<?xml version="1.0" encoding="UTF-8"?>
<svg id="Layer_5" xmlns="http://www.w3.org/2000/svg" version="1.1" viewBox="0 0 512 512">
  <!-- Generator: Adobe Illustrator 29.0.0, SVG Export Plug-In . SVG Version: 2.1.0 Build 186)  -->
  <defs>
    <style>
      .st0 {
        fill: #253885;
      }
    </style>
  </defs>
  <circle class="st0" cx="176" cy="112" r="8"/>
  <path class="st0" d="M296,272c0-51.7-27.6-99-72.2-124.7-1.2-26.6-11.6-49.2-18.8-61.6,15.6-5.4,26.9-20.2,26.9-37.6s-17.9-40-40-40-17.1,3-23.8,8h-26.9c-51.5,0-93.3,41.9-93.3,93.3s5.2,35.1,14.6,49.8c-34.3,27.2-54.6,68.8-54.6,112.8,0,79.4,64.6,144,144,144s47.5-6.2,67.7-17l105,105h3.3c30.9,0,56-25.1,56-56v-3.3l-105-105c10.8-20.2,17-43.2,17-67.7h0ZM120,260.9v101.5c-11.9-4.2-22.8-10.8-32-19.1v-84.3c0-21.1,11.8-39.9,30.4-49.4l33.6,33.6,17.6-17.6c18.6,9.5,30.4,28.3,30.4,49.4v79.9c-14.1,8.2-30.5,13-48,13s-10.8-.6-16-1.4v-115.5l-20.4-10.2-7.2,14.3,11.6,5.8ZM97.5,193.2l7.5,5.7c-20.4,13-33.1,35.4-33.1,60.3v65.9c-10.1-15.2-16-33.4-16-52.9,0-31.9,15.5-60.9,41.5-78.8h0ZM176,210.8v-12.8c5.1-1.7,9.8-4.4,13.7-8.3,1.4-1.4,2.5-2.8,3.6-4.4,33.5,15.9,54.7,49.2,54.7,86.7s-12.4,53.8-32,71.4v-68.3c0-27.6-15.5-52.3-40-64.3h0ZM184,154.2v10.5c0,5.2-2,10-5.7,13.7s-8.5,5.7-13.7,5.7h-20.7v16h16v12.7l-8,8-24-24v-38.1c0-6.4-2.5-12.4-7-17l-6.6-6.6c-1.5-1.5-2.3-3.5-2.3-5.7v-1.4c0-4.4,3.6-8,8-8h8v-24c0-4.4,3.6-8,8-8h51.8c5.3,8.1,18.4,30.9,20,58.3l-23.8,7.9ZM141.3,32h14.1c-2.2,4.9-3.4,10.3-3.4,16h16c0-13.2,10.8-24,24-24s24,10.8,24,24-10.8,24-24,24h-56c-13.2,0-24,10.8-24,24v9.4c-9.3,3.3-16,12.2-16,22.6v1.4c0,6.4,2.5,12.4,7,17l6.6,6.6c1.5,1.5,2.3,3.5,2.3,5.7v25.4l-17.1-12.8c-19.4-14.5-30.9-37.7-30.9-61.9,0-42.6,34.7-77.3,77.3-77.3ZM24,272c0-39,17.9-75.9,48.3-100.1,3.6,4,7.5,7.7,11.8,11.1-27.8,21.1-44.1,53.6-44.1,89,0,61.8,50.2,112,112,112s112-50.2,112-112-25.1-83.1-64.6-101.5c.3-1.6.5-3.1.6-4.8l15.2-5.1c40.1,22.8,64.8,65.1,64.8,111.3,0,70.6-57.4,128-128,128S24,342.6,24,272ZM367.9,451.2c-1.5,19.5-17.2,35.1-36.7,36.7l-97.5-97.5c14.3-9.9,26.8-22.4,36.7-36.7l97.5,97.5Z"/>
  <path class="st0" d="M376,424h112v-112h-112v112ZM392,328h80v80h-80v-80Z"/>
  <path class="st0" d="M424,372.7l-10.3-10.3-11.3,11.3,21.7,21.7,45.7-45.7-11.3-11.3-34.3,34.3Z"/>
  <path class="st0" d="M376,296h112v-112h-112v112ZM392,200h80v80h-80v-80Z"/>
  <path class="st0" d="M424,244.7l-10.3-10.3-11.3,11.3,21.7,21.7,45.7-45.7-11.3-11.3-34.3,34.3Z"/>
  <path class="st0" d="M248,8v64h256V8H248ZM360,24h32v32h-32V24ZM344,56h-32V24h32v32ZM408,24h32v32h-32V24ZM264,24h32v32h-32V24ZM488,56h-32V24h32v32Z"/>
  <path class="st0" d="M296,88h144v16h-144v-16Z"/>
  <path class="st0" d="M296,120h144v16h-144v-16Z"/>
  <path class="st0" d="M424,152h16v16h-16v-16Z"/>
  <path class="st0" d="M296,152h16v16h-16v-16Z"/>
  <path class="st0" d="M360,152h16v16h-16v-16Z"/>
  <path class="st0" d="M392,152h16v16h-16v-16Z"/>
  <path class="st0" d="M328,152h16v16h-16v-16Z"/>
</svg>