<?xml version="1.0" encoding="UTF-8"?>
<svg id="Layer_1" xmlns="http://www.w3.org/2000/svg" version="1.1" viewBox="0 0 512 512">
  <!-- Generator: Adobe Illustrator 29.0.0, SVG Export Plug-In . SVG Version: 2.1.0 Build 186)  -->
  <defs>
    <style>
      .st0 {
        fill: #d0cece;
      }
    </style>
  </defs>
  <g id="Layer_11" data-name="Layer_1">
    <g id="icons">
      <g>
        <g>
          <path class="st0" d="M340.6,397.2c-53.5,0-97-43.4-97-97s43.4-97,97-97,97,43.4,97,97-43.4,97-97,97ZM340.6,218.8c-45,0-81.5,36.5-81.5,81.5s36.5,81.5,81.5,81.5,81.5-36.5,81.5-81.5-36.5-81.5-81.5-81.5h0Z"/>
          <path class="st0" d="M394.9,271.5c-2.3,0-4.7-1.6-6.2-3.9-8.5-12.4-20.9-20.9-35.7-24s-30.3,0-43.4,8.5c-3.9,2.3-8.5,1.6-10.9-2.3s-1.6-8.5,2.3-10.9c16.3-10.9,35.7-14.7,55.1-10.9,18.6,3.9,34.9,14.7,45.8,31,2.3,3.9,1.6,8.5-2.3,10.9-1.6.8-3.1,1.6-4.7,1.6h0Z"/>
          <path class="st0" d="M455.4,502.7c-2.3,0-4.7,0-6.2-.8-7.8-1.6-14.7-6.2-19.4-13.2l-59.7-101.6c-2.3-3.9-.8-8.5,3.1-10.9s8.5-.8,10.9,3.1l59.7,101.6c2.3,3.1,5.4,5.4,9.3,6.2s7.8,0,11.6-2.3c3.1-2.3,5.4-5.4,6.2-9.3s0-8.5-3.1-11.6l-73.7-91.5c-2.3-3.1-2.3-8.5,1.6-10.9,3.1-2.3,8.5-2.3,10.9,1.6l73.7,91.5c5.4,7,7,15.5,6.2,24-1.6,8.5-6.2,15.5-13.2,20.2-6.2,2.3-12.4,3.9-17.8,3.9h-.1Z"/>
        </g>
        <path class="st0" d="M474.8,314.2h-45c-4.7,0-7.8-3.1-7.8-7.8s3.1-7.8,7.8-7.8h37.2V46.5c0-10.9-10.1-20.9-20.9-20.9H65.9c-11.6,0-20.9,9.3-20.9,20.9v251.3h206.4c4.7,0,7.8,3.1,7.8,7.8s-3.1,7.8-7.8,7.8H37.2c-4.7,0-7.8-3.1-7.8-7.8V46.5c0-20.2,16.3-36.5,36.5-36.5h380.1c19.4,0,36.5,17.1,36.5,36.5v259.9c0,4.7-3.1,7.8-7.8,7.8h0Z"/>
        <path class="st0" d="M279.3,372.4H49.6c-23.3,0-41.9-18.6-41.9-41.9v-24.8c0-4.7,3.1-7.8,7.8-7.8h235.8c4.7,0,7.8,3.1,7.8,7.8s-3.1,7.8-7.8,7.8H23.3v17.1c0,14,12.4,26.4,26.4,26.4h229.6c4.7,0,7.8,3.1,7.8,7.8s-3.1,7.8-7.8,7.8v-.2Z"/>
        <path class="st0" d="M462.4,372.4h-59.7c-4.7,0-7.8-3.1-7.8-7.8s3.1-7.8,7.8-7.8h59.7c14,0,26.4-12.4,26.4-26.4v-17.1h-59c-4.7,0-7.8-3.1-7.8-7.8s3.1-7.8,7.8-7.8h66.7c4.7,0,7.8,3.1,7.8,7.8v24.8c0,23.3-18.6,41.9-41.9,41.9v.2Z"/>
        <path class="st0" d="M270,49.6h-27.9c-4.7,0-7.8-3.1-7.8-7.8s3.1-7.8,7.8-7.8h27.9c4.7,0,7.8,3.1,7.8,7.8s-3.1,7.8-7.8,7.8Z"/>
        <path class="st0" d="M131.9,180.8h-27.9c-4.7,0-7.8-3.1-7.8-7.8v-91.5c0-4.7,3.1-7.8,7.8-7.8h27.9c4.7,0,7.8,3.1,7.8,7.8v91.5c0,4.7-3.1,7.8-7.8,7.8ZM111.7,165.2h12.4v-76h-12.4v76Z"/>
        <path class="st0" d="M252.9,180h-27.9c-4.7,0-7.8-3.1-7.8-7.8v-30.3c0-4.7,3.1-7.8,7.8-7.8h27.9c4.7,0,7.8,3.1,7.8,7.8v30.3c0,4.7-3.1,7.8-7.8,7.8h0ZM232.7,164.5h12.4v-14.7h-12.4v14.7Z"/>
        <path class="st0" d="M192.4,180h-27.9c-4.7,0-7.8-3.1-7.8-7.8v-58.2c0-4.7,3.1-7.8,7.8-7.8h27.9c4.7,0,7.8,3.1,7.8,7.8v58.2c0,4.7-3.1,7.8-7.8,7.8ZM172.2,164.5h12.4v-42.7h-12.4v42.7Z"/>
        <path class="st0" d="M391.8,112.5h-61.3c-4.7,0-7.8-3.1-7.8-7.8s3.1-7.8,7.8-7.8h61.3c4.7,0,7.8,3.1,7.8,7.8s-3.1,7.8-7.8,7.8Z"/>
        <path class="st0" d="M418.1,143.5h-108.6c-4.7,0-7.8-3.1-7.8-7.8s3.1-7.8,7.8-7.8h108.6c4.7,0,7.8,3.1,7.8,7.8s-3.1,7.8-7.8,7.8Z"/>
        <path class="st0" d="M196.3,234.3h-94.6c-4.7,0-7.8-3.1-7.8-7.8s3.1-7.8,7.8-7.8h94.6c4.7,0,7.8,3.1,7.8,7.8s-3.1,7.8-7.8,7.8Z"/>
        <path class="st0" d="M196.3,265.3h-94.6c-4.7,0-7.8-3.1-7.8-7.8s3.1-7.8,7.8-7.8h94.6c4.7,0,7.8,3.1,7.8,7.8s-3.1,7.8-7.8,7.8Z"/>
        <path class="st0" d="M418.1,173h-108.6c-4.7,0-7.8-3.1-7.8-7.8s3.1-7.8,7.8-7.8h108.6c4.7,0,7.8,3.1,7.8,7.8s-3.1,7.8-7.8,7.8Z"/>
      </g>
    </g>
  </g>
</svg>