<?xml version="1.0" encoding="UTF-8"?>
<svg id="Layer_3" xmlns="http://www.w3.org/2000/svg" version="1.1" viewBox="0 0 512 512">
  <!-- Generator: Adobe Illustrator 29.0.0, SVG Export Plug-In . SVG Version: 2.1.0 Build 186)  -->
  <defs>
    <style>
      .st0 {
        fill: #253885;
      }
    </style>
  </defs>
  <path class="st0" d="M464,392h-184.8c-.9-3.6-2.6-6.9-4.9-9.7l-44.2-51.5c-1.5-1.8-3.7-2.8-6.1-2.8h-88v-8c0-4.4-3.6-8-8-8H16c-4.4,0-8,3.6-8,8v176c0,4.4,3.6,8,8,8h64c4.4,0,8-3.6,8-8v-8h40c4.4,0,8-3.6,8-8v-8h53.6l46,30.7c1.3.9,2.8,1.3,4.4,1.3.6,0,1.1,0,1.7-.2l256-56c3.7-.8,6.3-4.1,6.3-7.8v-8c0-22.1-17.9-40-40-40ZM72,488H24v-160h48v160ZM120,472h-32v-144h32v144ZM488,433.6l-246.4,53.9-45.2-30.1c-1.3-.9-2.9-1.3-4.4-1.3h-56v-112h84.3l41.8,48.7c1.2,1.5,1.9,3.3,1.9,5.2v10.1c0,4.4-3.6,8-8,8h-9.4c-2.1,0-4.2-.8-5.7-2.3l-35.3-35.3-11.3,11.3,35.3,35.3c4.5,4.5,10.6,7.1,17,7h9.4c13.3,0,24-10.7,24-24h184c13.3,0,24,10.7,24,24v1.6Z"/>
  <path class="st0" d="M496,248h-16V72c0-13.3-10.7-24-24-24h-56.4c-.1-.2-.2-.4-.4-.6l-22.6-22.6c-3.1-3.1-8.2-3.1-11.3,0l-8.3,8.3c-4.2-2.2-8.5-4-13-5.4v-11.7c0-4.4-3.6-8-8-8h-32c-4.4,0-8,3.6-8,8v11.7c-4.5,1.4-8.8,3.2-13,5.4l-8.3-8.3c-3.1-3.1-8.2-3.1-11.3,0l-22.6,22.6c-.1.2-.3.4-.4.6h-56.4c-13.3,0-24,10.7-24,24v48H16c-4.4,0-8,3.6-8,8v96c0,4.4,3.6,8,8,8h144v16h-16c-4.4,0-8,3.6-8,8v32c0,13.3,10.7,24,24,24h320c13.3,0,24-10.7,24-24v-32c0-4.4-3.6-8-8-8ZM464,72v176h-16V88c0-4.4-3.6-8-8-8h-43.7c-1.4-4.5-3.2-8.8-5.4-13l3-3h62.1c4.4,0,8,3.6,8,8ZM216,224v-96c0-4.4-3.6-8-8-8v-24h16v24c0,4.4,3.6,8,8,8h11.7c1.4,4.5,3.2,8.8,5.4,13l-8.3,8.3c-3.1,3.1-3.1,8.2,0,11.3l22.6,22.6c3.1,3.1,8.2,3.1,11.3,0l8.3-8.3c4.2,2.2,8.5,4,13,5.4v11.7c0,4.4,3.6,8,8,8h32c4.4,0,8-3.6,8-8v-11.7c4.5-1.4,8.8-3.2,13-5.4l8.3,8.3c3.1,3.1,8.2,3.1,11.3,0l22.6-22.6c3.1-3.1,3.1-8.2,0-11.3l-8.3-8.3c2.2-4.2,4-8.5,5.4-13h11.7c4.4,0,8-3.6,8-8v-24h16v152h-224v-16c4.4,0,8-3.6,8-8ZM257.6,89.8c1.6-7,4.4-13.7,8.2-19.8,2-3.2,1.5-7.3-1.1-9.9l-7-7,11.3-11.3,7,7c2.6,2.6,6.8,3.1,9.9,1.1,6.1-3.8,12.8-6.6,19.8-8.2,3.6-.8,6.2-4.1,6.2-7.8v-9.8h16v9.8c0,3.7,2.6,7,6.2,7.8,7,1.6,13.7,4.4,19.8,8.2,3.2,2,7.3,1.5,9.9-1.1l7-7,11.3,11.3-7,7c-2.6,2.6-3.1,6.8-1.1,9.9,3.8,6.1,6.6,12.8,8.2,19.8.8,3.6,4.1,6.2,7.8,6.2h9.8v16h-9.8c-3.7,0-7,2.6-7.8,6.2-1.6,7-4.4,13.7-8.2,19.8-2,3.2-1.5,7.3,1.1,9.9l7,7-11.3,11.3-7-7c-2.6-2.6-6.8-3.1-9.9-1.1-6.1,3.8-12.8,6.6-19.8,8.2-3.6.8-6.2,4.1-6.2,7.8v9.8h-16v-9.8c0-3.7-2.6-7-6.2-7.8-7-1.6-13.7-4.4-19.8-8.2-3.2-2-7.3-1.5-9.9,1.1l-7,7-11.3-11.3,7-7c2.6-2.6,3.1-6.8,1.1-9.9-3.8-6.1-6.6-12.8-8.2-19.8-.8-3.6-4.1-6.2-7.8-6.2h-9.8v-16h9.8c3.7,0,7-2.6,7.8-6.2ZM176,72c0-4.4,3.6-8,8-8h62.1l3,3c-2.2,4.2-4,8.5-5.4,13h-43.7c-4.4,0-8,3.6-8,8v32h-16v-48ZM24,136h176v80H24v-80ZM176,232h16v16h-16v-16ZM488,288c0,4.4-3.6,8-8,8H160c-4.4,0-8-3.6-8-8v-24h336v24Z"/>
  <path class="st0" d="M320,152c26.5,0,48-21.5,48-48s-21.5-48-48-48-48,21.5-48,48c0,26.5,21.5,48,48,48ZM320,72c17.7,0,32,14.3,32,32s-14.3,32-32,32-32-14.3-32-32,14.3-32,32-32Z"/>
  <path class="st0" d="M66.3,146.3l-24,24c-3.1,3.1-3.1,8.2,0,11.3l24,24,11.3-11.3-18.3-18.3,18.3-18.3-11.3-11.3Z"/>
  <path class="st0" d="M157.7,146.3l-11.3,11.3,18.3,18.3-18.3,18.3,11.3,11.3,24-24c3.1-3.1,3.1-8.2,0-11.3l-24-24Z"/>
  <rect class="st0" x="76.2" y="168" width="71.6" height="16" transform="translate(-95.5 197.5) rotate(-63.4)"/>
</svg>