<?xml version="1.0" encoding="UTF-8"?>
<svg id="Layer_1" xmlns="http://www.w3.org/2000/svg" version="1.1" viewBox="0 0 512 512">
  <!-- Generator: Adobe Illustrator 29.0.0, SVG Export Plug-In . SVG Version: 2.1.0 Build 186)  -->
  <defs>
    <style>
      .st0 {
        fill: #d0cece;
      }
    </style>
  </defs>
  <g id="Capa_1">
    <g>
      <path class="st0" d="M117.3,149.3h234.7c5.9,0,10.7-4.8,10.7-10.7s-4.8-10.7-10.7-10.7H117.3c-5.9,0-10.7,4.8-10.7,10.7s4.8,10.7,10.7,10.7Z"/>
      <path class="st0" d="M245.3,256H117.3c-5.9,0-10.7,4.8-10.7,10.7s4.8,10.7,10.7,10.7h128c5.9,0,10.7-4.8,10.7-10.7s-4.8-10.7-10.7-10.7Z"/>
      <path class="st0" d="M471.2,64c-.6,0-1.2.2-1.8.2v-.2c0-23.5-19.1-42.7-42.7-42.7H42.7c-23.6,0-42.7,19.2-42.7,42.7v416c0,4.3,2.6,8.2,6.6,9.9,1.3.6,2.7.8,4.1.8,2.8,0,5.5-1.1,7.5-3.1l103.5-103.5h304.9c23.5,0,42.7-19.1,42.7-42.7v-176.9l30.7-30.7h0c7.6-7.6,12-18.1,12-28.9,0-22.5-18.3-40.8-40.8-40.8h0ZM448,341.3c0,11.8-9.6,21.3-21.3,21.3H117.3c-2.8,0-5.5,1.1-7.5,3.1l-88.5,88.5V64c0-11.8,9.6-21.3,21.3-21.3h384c11.8,0,21.3,9.6,21.3,21.3v7.3c-2,1.4-4,2.9-5.7,4.7l-116.1,116H117.3c-5.9,0-10.7,4.8-10.7,10.7s4.8,10.7,10.7,10.7h191.8l-10.2,51.2c-.7,3.5.4,7.1,2.9,9.6s4.8,3.1,7.5,3.1,1.4,0,2.1-.2l53.3-10.7c2.1-.4,4-1.4,5.5-2.9l77.8-77.8v155.6ZM357.4,246.2l-34.5,6.9,6.9-34.5,96.8-96.8,27.6,27.6-96.9,96.8h.1ZM485,118.6l-15.6,15.6-27.6-27.6,15.6-15.6c3.6-3.6,8.6-5.7,13.8-5.7,10.8,0,19.5,8.8,19.5,19.5s-2.1,10.2-5.7,13.8h0Z"/>
    </g>
  </g>
</svg>