<?xml version="1.0" encoding="UTF-8"?>
<svg id="Layer_1" xmlns="http://www.w3.org/2000/svg" version="1.1" viewBox="0 0 511 511">
  <!-- Generator: Adobe Illustrator 29.0.0, SVG Export Plug-In . SVG Version: 2.1.0 Build 186)  -->
  <defs>
    <style>
      .st0 {
        fill: #d0cece;
      }
    </style>
  </defs>
  <path class="st0" d="M498.2,221.3h0L289.7,12.8c-8.9-8.9-20.7-13.8-33.3-13.8s-24.4,4.9-33.3,13.8L14.9,221.1s-.1.1-.2.2c-18.2,18.4-18.2,48.1,0,66.4,8.4,8.4,19.4,13.2,31.2,13.7h9.8v153.4c0,30.4,24.7,55.1,55.1,55.1h81.6c8.3,0,15-6.7,15-15v-120.3c0-13.9,11.3-25.1,25.1-25.1h48.1c13.9,0,25.1,11.3,25.1,25.1v120.3c0,8.3,6.7,15,15,15h81.6c30.4,0,55.1-24.7,55.1-55.1v-153.4h7.7c12.6,0,24.4-4.9,33.3-13.8,18.3-18.3,18.3-48.2,0-66.5l-.2.2ZM477,266.6c-3.2,3.2-7.5,5-12.1,5h-22.7c-8.3,0-15,6.7-15,15v168.4c0,13.8-11.3,25.1-25.1,25.1h-66.6v-105.3c0-30.4-24.7-55.1-55.1-55.1h-48.1c-30.4,0-55.1,24.7-55.1,55.1v105.3h-66.6c-13.8,0-25.1-11.3-25.1-25.1v-168.4c0-8.3-6.7-15-15-15h-23c-4.5,0-8.6-1.8-11.8-5-6.7-6.7-6.7-17.5,0-24.2h0L244.4,34c3.2-3.2,7.5-5,12.1-5s8.9,1.8,12.1,5l208.4,208.4h0c6.6,6.7,6.6,17.5,0,24.2Z"/>
</svg>