<?xml version="1.0" encoding="UTF-8"?>
<svg id="Layer_1" xmlns="http://www.w3.org/2000/svg" version="1.1" viewBox="0 0 512 512">
  <!-- Generator: Adobe Illustrator 29.0.0, SVG Export Plug-In . SVG Version: 2.1.0 Build 186)  -->
  <defs>
    <style>
      .st0 {
        fill: #d0cece;
      }
    </style>
  </defs>
  <g id="Layer_11" data-name="Layer_1">
    <g id="Line">
      <path class="st0" d="M256,400c-8.8-.1-15.9-7.2-16-16v-149.3c0-8.8,7.2-16,16-16s16,7.2,16,16v149.3c-.1,8.8-7.2,15.9-16,16ZM282.7,149.3c0-14.7-11.9-26.7-26.7-26.7s-26.7,11.9-26.7,26.7,11.9,26.7,26.7,26.7,26.7-11.9,26.7-26.7ZM485.3,256c0-126.7-102.7-229.3-229.3-229.3S26.7,129.3,26.7,256s102.7,229.3,229.3,229.3c126.6-.1,229.2-102.7,229.3-229.3h0ZM453.3,256c0,109-88.3,197.3-197.3,197.3S58.7,365,58.7,256,147,58.7,256,58.7c108.9,0,197.2,88.4,197.3,197.3Z"/>
    </g>
  </g>
</svg>