<?xml version="1.0" encoding="UTF-8"?>
<svg xmlns="http://www.w3.org/2000/svg" version="1.1" viewBox="0 0 512 512">
  <defs>
    <style>
      .cls-1 {
        fill: #253885;
      }
    </style>
  </defs>
  <!-- Generator: Adobe Illustrator 28.7.1, SVG Export Plug-In . SVG Version: 1.2.0 Build 142)  -->
  <g>
    <g id="Layer_1">
      <g id="Line">
        <path class="cls-1" d="M256,400c-8.8-.1-15.9-7.2-16-16v-149.3c0-8.8,7.2-16,16-16s16,7.2,16,16v149.3c-.1,8.8-7.2,15.9-16,16ZM282.7,149.3c0-14.7-11.9-26.7-26.7-26.7s-26.7,11.9-26.7,26.7,11.9,26.7,26.7,26.7,26.7-11.9,26.7-26.7ZM485.3,256c0-126.7-102.7-229.3-229.3-229.3S26.7,129.3,26.7,256s102.7,229.3,229.3,229.3c126.6-.1,229.2-102.7,229.3-229.3ZM453.3,256c0,109-88.3,197.3-197.3,197.3S58.7,365,58.7,256,147,58.7,256,58.7c108.9.1,197.2,88.4,197.3,197.3Z"/>
      </g>
    </g>
  </g>
</svg>