<?xml version="1.0" standalone="no"?><!DOCTYPE svg PUBLIC "-//W3C//DTD SVG 1.1//EN" "http://www.w3.org/Graphics/SVG/1.1/DTD/svg11.dtd"><svg xmlns="http://www.w3.org/2000/svg" version="1.1" width="42.3px" height="20.5px" viewBox="0 -4 42.3 20.5" style="top:-4px">  <desc>Survey</desc>  <defs/>  <g id="Polygon2875">    <path d="M 3 6 C 3 6 4.1 5.9 4.1 5.9 C 4.2 6.3 4.3 6.7 4.5 6.9 C 4.6 7.2 4.9 7.4 5.3 7.6 C 5.7 7.8 6.2 7.9 6.6 7.9 C 7.1 7.9 7.5 7.8 7.8 7.7 C 8.1 7.5 8.4 7.4 8.5 7.1 C 8.7 6.9 8.8 6.7 8.8 6.4 C 8.8 6.1 8.7 5.9 8.5 5.7 C 8.4 5.5 8.1 5.3 7.8 5.2 C 7.5 5.1 7 5 6.2 4.8 C 5.4 4.6 4.9 4.4 4.6 4.2 C 4.2 4 3.9 3.8 3.7 3.4 C 3.5 3.1 3.4 2.8 3.4 2.4 C 3.4 1.9 3.5 1.5 3.7 1.2 C 4 0.8 4.3 0.5 4.8 0.3 C 5.3 0.1 5.8 0 6.4 0 C 7 0 7.6 0.1 8.1 0.3 C 8.6 0.5 8.9 0.8 9.2 1.2 C 9.4 1.6 9.6 2.1 9.6 2.6 C 9.6 2.6 8.5 2.6 8.5 2.6 C 8.5 2.1 8.3 1.7 7.9 1.4 C 7.6 1.1 7.1 1 6.4 1 C 5.7 1 5.2 1.1 4.9 1.4 C 4.6 1.6 4.5 1.9 4.5 2.3 C 4.5 2.6 4.6 2.9 4.8 3.1 C 5 3.3 5.6 3.5 6.5 3.7 C 7.4 3.9 8.1 4.1 8.4 4.2 C 8.9 4.4 9.3 4.7 9.5 5.1 C 9.7 5.4 9.9 5.8 9.9 6.3 C 9.9 6.8 9.7 7.2 9.5 7.6 C 9.2 8 8.8 8.3 8.3 8.5 C 7.9 8.8 7.3 8.9 6.7 8.9 C 5.9 8.9 5.3 8.8 4.7 8.5 C 4.2 8.3 3.8 8 3.5 7.5 C 3.2 7.1 3 6.6 3 6 Z M 15.4 8.7 C 15.4 8.7 15.36 7.82 15.4 7.8 C 14.9 8.5 14.2 8.9 13.4 8.9 C 13 8.9 12.7 8.8 12.4 8.7 C 12 8.5 11.8 8.3 11.7 8.1 C 11.5 7.9 11.4 7.7 11.3 7.4 C 11.3 7.1 11.3 6.8 11.3 6.4 C 11.26 6.37 11.3 2.5 11.3 2.5 L 12.3 2.5 C 12.3 2.5 12.32 5.96 12.3 6 C 12.3 6.5 12.3 6.9 12.4 7.1 C 12.4 7.4 12.6 7.6 12.8 7.7 C 13 7.9 13.3 8 13.6 8 C 13.9 8 14.2 7.9 14.5 7.7 C 14.8 7.6 15 7.3 15.1 7.1 C 15.2 6.8 15.3 6.4 15.3 5.8 C 15.25 5.85 15.3 2.5 15.3 2.5 L 16.3 2.5 L 16.3 8.7 L 15.4 8.7 Z M 17.9 8.7 L 17.9 2.5 L 18.9 2.5 C 18.9 2.5 18.9 3.46 18.9 3.5 C 19.1 3 19.4 2.7 19.6 2.6 C 19.8 2.4 20 2.4 20.2 2.4 C 20.6 2.4 21 2.5 21.3 2.7 C 21.3 2.7 21 3.7 21 3.7 C 20.7 3.5 20.4 3.5 20.2 3.5 C 20 3.5 19.8 3.5 19.6 3.7 C 19.4 3.8 19.3 4 19.2 4.2 C 19.1 4.6 19 5 19 5.5 C 19 5.48 19 8.7 19 8.7 L 17.9 8.7 Z M 23.7 8.7 L 21.3 2.5 L 22.4 2.5 C 22.4 2.5 23.77 6.24 23.8 6.2 C 23.9 6.6 24 7.1 24.2 7.5 C 24.3 7.2 24.4 6.8 24.6 6.3 C 24.56 6.31 25.9 2.5 25.9 2.5 L 27 2.5 L 24.7 8.7 L 23.7 8.7 Z M 32.2 6.7 C 32.2 6.7 33.3 6.9 33.3 6.9 C 33.1 7.5 32.8 8 32.3 8.3 C 31.9 8.7 31.3 8.9 30.6 8.9 C 29.7 8.9 28.9 8.6 28.4 8 C 27.9 7.5 27.6 6.7 27.6 5.7 C 27.6 4.6 27.9 3.8 28.4 3.2 C 29 2.7 29.7 2.4 30.5 2.4 C 31.3 2.4 32 2.7 32.5 3.2 C 33.1 3.8 33.3 4.6 33.3 5.6 C 33.3 5.7 33.3 5.8 33.3 5.9 C 33.3 5.9 28.7 5.9 28.7 5.9 C 28.7 6.6 28.9 7.1 29.3 7.5 C 29.6 7.8 30.1 8 30.6 8 C 31 8 31.3 7.9 31.6 7.7 C 31.8 7.5 32.1 7.2 32.2 6.7 Z M 28.8 5 C 28.8 5 32.2 5 32.2 5 C 32.2 4.5 32 4.1 31.8 3.8 C 31.5 3.4 31.1 3.2 30.5 3.2 C 30 3.2 29.6 3.4 29.3 3.7 C 29 4.1 28.8 4.5 28.8 5 Z M 35.3 11.3 C 35.1 11.3 34.8 11.2 34.6 11.1 C 34.6 11.1 34.5 10.1 34.5 10.1 C 34.7 10.2 34.9 10.2 35.1 10.2 C 35.3 10.2 35.5 10.2 35.6 10.1 C 35.8 10 35.9 9.9 36 9.8 C 36 9.7 36.2 9.4 36.3 9 C 36.3 8.9 36.3 8.9 36.4 8.7 C 36.39 8.75 34 2.5 34 2.5 L 35.2 2.5 C 35.2 2.5 36.46 6.12 36.5 6.1 C 36.6 6.6 36.8 7.1 36.9 7.6 C 37 7.1 37.2 6.6 37.3 6.1 C 37.35 6.14 38.7 2.5 38.7 2.5 L 39.7 2.5 C 39.7 2.5 37.37 8.84 37.4 8.8 C 37.1 9.5 36.9 10 36.8 10.3 C 36.6 10.6 36.4 10.9 36.1 11 C 35.9 11.2 35.6 11.3 35.3 11.3 C 35.3 11.3 35.3 11.3 35.3 11.3 Z " stroke="none" fill="#000"/>  </g></svg>