<?xml version="1.0" standalone="no"?><!DOCTYPE svg PUBLIC "-//W3C//DTD SVG 1.1//EN" "http://www.w3.org/Graphics/SVG/1.1/DTD/svg11.dtd"><svg xmlns="http://www.w3.org/2000/svg" version="1.1" width="326px" height="28.9px" viewBox="0 -5 326 28.9" style="top:-5px">  <desc>About</desc>  <defs/>  <g id="Polygon3476">    <path d="M 6.3 0.8 L 11.8 13.1 L 10.4 13.1 L 8.7 9.3 L 3.1 9.3 L 1.4 13.1 L 0 13.1 L 5.3 0.8 L 6.3 0.8 Z M 3.6 8.1 L 8.1 8.1 L 5.8 2.8 L 3.6 8.1 Z M 16.3 0.8 C 18.6 0.8 20.1 2 20.1 4 C 20.1 5.3 19.4 6.2 18.1 6.7 C 20 6.9 21.2 8.2 21.2 9.8 C 21.2 12.1 19.2 13.1 16.9 13.1 C 16.92 13.12 13.2 13.1 13.2 13.1 L 13.2 0.8 C 13.2 0.8 16.34 0.85 16.3 0.8 Z M 14.5 6.3 C 14.5 6.3 15.86 6.3 15.9 6.3 C 17.9 6.3 18.7 5.4 18.7 4.1 C 18.7 2.7 17.9 2 16.1 2 C 16.07 2.03 14.5 2 14.5 2 L 14.5 6.3 Z M 16.7 11.9 C 18.6 11.9 19.8 11.3 19.8 9.7 C 19.8 8.3 18.8 7.5 16.5 7.5 C 16.47 7.47 14.5 7.5 14.5 7.5 L 14.5 11.9 C 14.5 11.9 16.67 11.93 16.7 11.9 Z M 35.4 6.9 C 35.4 10.4 32.9 13.3 28.8 13.3 C 25 13.3 22.4 10.4 22.4 7.1 C 22.4 3.6 24.9 0.7 28.9 0.7 C 32.8 0.7 35.4 3.5 35.4 6.9 Z M 23.8 7 C 23.8 9.9 26.1 12 28.8 12 C 32.5 12 34 9.2 34 7 C 34 4.5 32.1 2 28.9 2 C 25.6 2 23.8 4.5 23.8 7 Z M 38.8 0.8 C 38.8 0.8 38.79 7.92 38.8 7.9 C 38.8 10.6 40.1 12.1 42.6 12.1 C 45.1 12.1 46.4 10.6 46.4 7.9 C 46.39 7.92 46.4 0.8 46.4 0.8 L 47.7 0.8 C 47.7 0.8 47.74 7.92 47.7 7.9 C 47.7 11.1 46 13.3 42.6 13.3 C 39.2 13.3 37.4 11.4 37.4 7.9 C 37.44 7.92 37.4 0.8 37.4 0.8 L 38.8 0.8 Z M 59.3 0.8 L 59.3 2 L 54.9 2 L 54.9 13.1 L 53.6 13.1 L 53.6 2 L 49.2 2 L 49.2 0.8 L 59.3 0.8 Z " stroke="none" fill="#010102"/>  </g></svg>