<?xml version="1.0" standalone="no"?><!DOCTYPE svg PUBLIC "-//W3C//DTD SVG 1.1//EN" "http://www.w3.org/Graphics/SVG/1.1/DTD/svg11.dtd"><svg xmlns="http://www.w3.org/2000/svg" version="1.1" width="99px" height="19.3px" viewBox="0 -4 99 19.3" style="top:-4px">  <desc>Client Feedback</desc>  <defs/>  <g id="Polygon2233">    <path d="M 7.7 1.1 C 7.7 1.1 7.7 2.1 7.7 2.1 C 6.8 1.6 5.9 1.3 4.9 1.3 C 2.8 1.3 1.5 2.9 1.5 4.7 C 1.5 6.5 2.8 8 4.9 8 C 5.9 8 6.9 7.7 7.7 7.2 C 7.7 7.2 7.7 8.2 7.7 8.2 C 6.8 8.6 5.9 8.9 4.9 8.9 C 2 8.9 0.6 6.7 0.6 4.7 C 0.6 2.3 2.4 0.5 4.9 0.5 C 5.8 0.5 6.8 0.7 7.7 1.1 Z M 10.1 0.6 L 10.1 7.9 L 13.9 7.9 L 13.9 8.7 L 9.2 8.7 L 9.2 0.6 L 10.1 0.6 Z M 15.9 0.6 L 15.9 8.7 L 15 8.7 L 15 0.6 L 15.9 0.6 Z M 22.2 0.6 L 22.2 1.4 L 18.6 1.4 L 18.6 4.2 L 22 4.2 L 22 5 L 18.6 5 L 18.6 7.9 L 22.3 7.9 L 22.3 8.7 L 17.7 8.7 L 17.7 0.6 L 22.2 0.6 Z M 24.5 0.6 L 30.3 7.3 L 30.3 0.6 L 31.1 0.6 L 31.1 8.7 L 30.3 8.7 L 24.6 2 L 24.6 8.7 L 23.7 8.7 L 23.7 0.6 L 24.5 0.6 Z M 38.9 0.6 L 38.9 1.4 L 36 1.4 L 36 8.7 L 35.1 8.7 L 35.1 1.4 L 32.2 1.4 L 32.2 0.6 L 38.9 0.6 Z M 47.6 0.6 L 47.6 1.4 L 44.3 1.4 L 44.3 4 L 47.5 4 L 47.5 4.8 L 44.3 4.8 L 44.3 8.7 L 43.4 8.7 L 43.4 0.6 L 47.6 0.6 Z M 53.2 0.6 L 53.2 1.4 L 49.7 1.4 L 49.7 4.2 L 53.1 4.2 L 53.1 5 L 49.7 5 L 49.7 7.9 L 53.3 7.9 L 53.3 8.7 L 48.8 8.7 L 48.8 0.6 L 53.2 0.6 Z M 59.3 0.6 L 59.3 1.4 L 55.7 1.4 L 55.7 4.2 L 59.1 4.2 L 59.1 5 L 55.7 5 L 55.7 7.9 L 59.4 7.9 L 59.4 8.7 L 54.8 8.7 L 54.8 0.6 L 59.3 0.6 Z M 60.8 0.6 C 60.8 0.6 63.83 0.56 63.8 0.6 C 66.5 0.6 68.2 2.2 68.2 4.6 C 68.2 7.1 66.4 8.7 63.8 8.7 C 63.83 8.75 60.8 8.7 60.8 8.7 L 60.8 0.6 Z M 63.8 7.9 C 66 7.9 67.3 6.7 67.3 4.6 C 67.3 2.7 66 1.4 63.7 1.4 C 63.68 1.37 61.7 1.4 61.7 1.4 L 61.7 7.9 C 61.7 7.9 63.82 7.93 63.8 7.9 Z M 71.8 0.6 C 73.4 0.6 74.4 1.3 74.4 2.7 C 74.4 3.5 73.9 4.2 73 4.5 C 74.3 4.6 75.1 5.5 75.1 6.6 C 75.1 8.1 73.7 8.7 72.2 8.7 C 72.23 8.75 69.7 8.7 69.7 8.7 L 69.7 0.6 C 69.7 0.6 71.84 0.56 71.8 0.6 Z M 70.6 4.2 C 70.6 4.2 71.52 4.2 71.5 4.2 C 72.9 4.2 73.4 3.6 73.4 2.7 C 73.4 1.8 72.9 1.4 71.7 1.4 C 71.66 1.36 70.6 1.4 70.6 1.4 L 70.6 4.2 Z M 72.1 8 C 73.4 8 74.1 7.5 74.1 6.5 C 74.1 5.5 73.5 5 71.9 5 C 71.93 4.98 70.6 5 70.6 5 L 70.6 8 C 70.6 8 72.06 7.96 72.1 8 Z M 79.8 0.5 L 83.5 8.7 L 82.6 8.7 L 81.4 6.2 L 77.7 6.2 L 76.6 8.7 L 75.7 8.7 L 79.2 0.5 L 79.8 0.5 Z M 78 5.4 L 81 5.4 L 79.5 1.9 L 78 5.4 Z M 90.8 1.1 C 90.8 1.1 90.8 2.1 90.8 2.1 C 90 1.6 89 1.3 88 1.3 C 86 1.3 84.6 2.9 84.6 4.7 C 84.6 6.5 85.9 8 88 8 C 89.1 8 90 7.7 90.9 7.2 C 90.9 7.2 90.9 8.2 90.9 8.2 C 90 8.6 89 8.9 88 8.9 C 85.2 8.9 83.7 6.7 83.7 4.7 C 83.7 2.3 85.6 0.5 88 0.5 C 89 0.5 89.9 0.7 90.8 1.1 Z M 93.2 0.6 L 93.2 4.4 L 96.8 0.6 L 97.9 0.6 L 94.2 4.5 L 98.6 8.7 L 97.4 8.7 L 93.2 4.7 L 93.2 8.7 L 92.3 8.7 L 92.3 0.6 L 93.2 0.6 Z " stroke="none" fill="#010102"/>  </g></svg>