<?xml version="1.0" standalone="no"?><!DOCTYPE svg PUBLIC "-//W3C//DTD SVG 1.1//EN" "http://www.w3.org/Graphics/SVG/1.1/DTD/svg11.dtd"><svg xmlns="http://www.w3.org/2000/svg" version="1.1" width="247px" height="36.7px" viewBox="0 -4 247 36.7" style="top:-4px">  <desc>Survey Help us to continuously improve.</desc>  <defs/>  <g id="Polygon847">    <path d="M 0.6 27.2 L 0.6 21.5 L 1.4 21.5 L 1.4 23.8 L 4.4 23.8 L 4.4 21.5 L 5.1 21.5 L 5.1 27.2 L 4.4 27.2 L 4.4 24.5 L 1.4 24.5 L 1.4 27.2 L 0.6 27.2 Z M 9.1 25.9 C 9.1 25.9 9.9 26 9.9 26 C 9.8 26.4 9.5 26.7 9.2 26.9 C 8.9 27.2 8.5 27.3 8 27.3 C 7.4 27.3 7 27.1 6.6 26.7 C 6.2 26.4 6.1 25.8 6.1 25.2 C 6.1 24.5 6.3 23.9 6.6 23.5 C 7 23.2 7.4 23 8 23 C 8.6 23 9 23.2 9.4 23.5 C 9.7 23.9 9.9 24.4 9.9 25.1 C 9.9 25.2 9.9 25.2 9.9 25.3 C 9.9 25.3 6.8 25.3 6.8 25.3 C 6.8 25.8 7 26.1 7.2 26.4 C 7.4 26.6 7.7 26.7 8.1 26.7 C 8.3 26.7 8.5 26.7 8.7 26.5 C 8.9 26.4 9 26.2 9.1 25.9 Z M 6.8 24.7 C 6.8 24.7 9.2 24.7 9.2 24.7 C 9.1 24.4 9 24.1 8.9 23.9 C 8.7 23.7 8.4 23.5 8 23.5 C 7.7 23.5 7.4 23.6 7.2 23.9 C 7 24.1 6.9 24.4 6.8 24.7 Z M 10.7 27.2 L 10.7 21.5 L 11.4 21.5 L 11.4 27.2 L 10.7 27.2 Z M 12.5 28.8 L 12.5 23.1 L 13.2 23.1 C 13.2 23.1 13.17 23.6 13.2 23.6 C 13.3 23.4 13.5 23.2 13.7 23.1 C 13.9 23 14.1 23 14.4 23 C 14.7 23 15 23.1 15.3 23.2 C 15.6 23.4 15.8 23.7 15.9 24 C 16.1 24.3 16.1 24.7 16.1 25.1 C 16.1 25.5 16.1 25.9 15.9 26.2 C 15.8 26.6 15.5 26.8 15.2 27 C 14.9 27.2 14.6 27.3 14.3 27.3 C 14.1 27.3 13.9 27.3 13.7 27.2 C 13.5 27.1 13.4 26.9 13.2 26.8 C 13.23 26.78 13.2 28.8 13.2 28.8 L 12.5 28.8 Z M 13.2 25.2 C 13.2 25.7 13.3 26.1 13.5 26.3 C 13.7 26.6 14 26.7 14.3 26.7 C 14.6 26.7 14.9 26.6 15.1 26.3 C 15.3 26.1 15.4 25.7 15.4 25.1 C 15.4 24.6 15.3 24.2 15.1 23.9 C 14.9 23.6 14.6 23.5 14.3 23.5 C 14 23.5 13.7 23.7 13.5 23.9 C 13.3 24.2 13.2 24.6 13.2 25.2 Z M 21.9 27.2 C 21.9 27.2 21.92 26.6 21.9 26.6 C 21.6 27.1 21.2 27.3 20.6 27.3 C 20.4 27.3 20.1 27.3 19.9 27.2 C 19.7 27.1 19.6 26.9 19.4 26.8 C 19.3 26.7 19.3 26.5 19.2 26.3 C 19.2 26.1 19.2 25.9 19.2 25.6 C 19.19 25.63 19.2 23.1 19.2 23.1 L 19.9 23.1 C 19.9 23.1 19.89 25.36 19.9 25.4 C 19.9 25.7 19.9 26 19.9 26.1 C 20 26.3 20.1 26.4 20.2 26.5 C 20.4 26.6 20.5 26.7 20.7 26.7 C 21 26.7 21.2 26.6 21.3 26.5 C 21.5 26.4 21.7 26.3 21.7 26.1 C 21.8 25.9 21.8 25.6 21.8 25.3 C 21.85 25.28 21.8 23.1 21.8 23.1 L 22.6 23.1 L 22.6 27.2 L 21.9 27.2 Z M 23.4 26 C 23.4 26 24.1 25.9 24.1 25.9 C 24.1 26.1 24.2 26.4 24.4 26.5 C 24.6 26.6 24.8 26.7 25.1 26.7 C 25.5 26.7 25.7 26.7 25.9 26.5 C 26 26.4 26.1 26.2 26.1 26.1 C 26.1 25.9 26 25.8 25.9 25.7 C 25.8 25.6 25.6 25.5 25.2 25.4 C 24.7 25.3 24.3 25.2 24.1 25.1 C 23.9 25 23.7 24.9 23.6 24.7 C 23.5 24.5 23.5 24.4 23.5 24.2 C 23.5 24 23.5 23.8 23.6 23.6 C 23.7 23.5 23.8 23.4 24 23.3 C 24.1 23.2 24.2 23.1 24.4 23 C 24.6 23 24.8 23 25 23 C 25.3 23 25.6 23 25.9 23.1 C 26.1 23.2 26.3 23.3 26.4 23.5 C 26.5 23.6 26.6 23.9 26.7 24.1 C 26.7 24.1 26 24.2 26 24.2 C 25.9 24 25.9 23.8 25.7 23.7 C 25.6 23.6 25.3 23.5 25.1 23.5 C 24.7 23.5 24.5 23.6 24.4 23.7 C 24.2 23.8 24.2 23.9 24.2 24.1 C 24.2 24.2 24.2 24.3 24.3 24.3 C 24.3 24.4 24.4 24.5 24.5 24.5 C 24.6 24.5 24.8 24.6 25.1 24.7 C 25.6 24.8 26 24.9 26.2 25 C 26.4 25.1 26.5 25.2 26.6 25.4 C 26.8 25.5 26.8 25.7 26.8 26 C 26.8 26.2 26.7 26.4 26.6 26.6 C 26.5 26.9 26.3 27 26 27.1 C 25.8 27.2 25.5 27.3 25.1 27.3 C 24.6 27.3 24.2 27.2 23.9 27 C 23.6 26.7 23.4 26.4 23.4 26 Z M 31.1 26.6 C 31.2 26.6 31.3 26.6 31.4 26.6 C 31.4 26.6 31.5 27.2 31.5 27.2 C 31.3 27.2 31.1 27.3 31 27.3 C 30.7 27.3 30.5 27.2 30.4 27.1 C 30.2 27.1 30.1 27 30.1 26.8 C 30 26.7 30 26.4 30 26 C 30 25.99 30 23.6 30 23.6 L 29.5 23.6 L 29.5 23.1 L 30 23.1 L 30 22 L 30.7 21.6 L 30.7 23.1 L 31.4 23.1 L 31.4 23.6 L 30.7 23.6 C 30.7 23.6 30.7 26.03 30.7 26 C 30.7 26.2 30.7 26.4 30.7 26.4 C 30.8 26.5 30.8 26.5 30.9 26.6 C 30.9 26.6 31 26.6 31.1 26.6 C 31.1 26.6 31.1 26.6 31.1 26.6 Z M 31.8 25.1 C 31.8 24.4 32 23.8 32.5 23.4 C 32.8 23.1 33.3 23 33.8 23 C 34.4 23 34.8 23.2 35.2 23.5 C 35.5 23.9 35.7 24.4 35.7 25.1 C 35.7 25.6 35.6 26 35.5 26.3 C 35.3 26.6 35.1 26.9 34.8 27 C 34.5 27.2 34.1 27.3 33.8 27.3 C 33.2 27.3 32.7 27.1 32.4 26.7 C 32 26.4 31.8 25.8 31.8 25.1 Z M 32.6 25.1 C 32.6 25.7 32.7 26.1 32.9 26.3 C 33.1 26.6 33.4 26.7 33.8 26.7 C 34.1 26.7 34.4 26.6 34.7 26.3 C 34.9 26.1 35 25.7 35 25.1 C 35 24.6 34.9 24.2 34.7 23.9 C 34.4 23.7 34.1 23.5 33.8 23.5 C 33.4 23.5 33.1 23.7 32.9 23.9 C 32.7 24.2 32.6 24.6 32.6 25.1 Z M 41.5 25.7 C 41.5 25.7 42.2 25.8 42.2 25.8 C 42.1 26.3 41.9 26.6 41.6 26.9 C 41.3 27.2 40.9 27.3 40.4 27.3 C 39.9 27.3 39.4 27.1 39.1 26.7 C 38.7 26.4 38.6 25.8 38.6 25.1 C 38.6 24.7 38.6 24.3 38.8 24 C 38.9 23.6 39.2 23.4 39.5 23.2 C 39.8 23 40.1 23 40.4 23 C 40.9 23 41.3 23.1 41.6 23.3 C 41.8 23.5 42 23.9 42.1 24.3 C 42.1 24.3 41.4 24.4 41.4 24.4 C 41.4 24.1 41.2 23.9 41.1 23.8 C 40.9 23.6 40.7 23.5 40.5 23.5 C 40.1 23.5 39.8 23.7 39.6 23.9 C 39.4 24.2 39.3 24.6 39.3 25.1 C 39.3 25.7 39.4 26.1 39.6 26.3 C 39.8 26.6 40.1 26.7 40.4 26.7 C 40.7 26.7 40.9 26.6 41.1 26.5 C 41.3 26.3 41.4 26 41.5 25.7 Z M 42.5 25.1 C 42.5 24.4 42.7 23.8 43.1 23.4 C 43.5 23.1 43.9 23 44.5 23 C 45 23 45.5 23.2 45.9 23.5 C 46.2 23.9 46.4 24.4 46.4 25.1 C 46.4 25.6 46.3 26 46.2 26.3 C 46 26.6 45.8 26.9 45.5 27 C 45.1 27.2 44.8 27.3 44.5 27.3 C 43.9 27.3 43.4 27.1 43 26.7 C 42.7 26.4 42.5 25.8 42.5 25.1 Z M 43.2 25.1 C 43.2 25.7 43.3 26.1 43.6 26.3 C 43.8 26.6 44.1 26.7 44.5 26.7 C 44.8 26.7 45.1 26.6 45.3 26.3 C 45.6 26.1 45.7 25.7 45.7 25.1 C 45.7 24.6 45.6 24.2 45.3 23.9 C 45.1 23.7 44.8 23.5 44.5 23.5 C 44.1 23.5 43.8 23.7 43.6 23.9 C 43.3 24.2 43.2 24.6 43.2 25.1 Z M 47.2 27.2 L 47.2 23.1 L 47.9 23.1 C 47.9 23.1 47.85 23.65 47.9 23.6 C 48.2 23.2 48.6 23 49.2 23 C 49.4 23 49.7 23 49.9 23.1 C 50.1 23.2 50.2 23.3 50.3 23.5 C 50.4 23.6 50.5 23.8 50.6 24 C 50.6 24.1 50.6 24.3 50.6 24.7 C 50.59 24.66 50.6 27.2 50.6 27.2 L 49.9 27.2 C 49.9 27.2 49.89 24.68 49.9 24.7 C 49.9 24.4 49.9 24.2 49.8 24 C 49.8 23.9 49.7 23.8 49.5 23.7 C 49.4 23.6 49.2 23.6 49 23.6 C 48.7 23.6 48.5 23.7 48.2 23.9 C 48 24 47.9 24.4 47.9 24.9 C 47.92 24.94 47.9 27.2 47.9 27.2 L 47.2 27.2 Z M 52.9 26.6 C 53 26.6 53.1 26.6 53.2 26.6 C 53.2 26.6 53.3 27.2 53.3 27.2 C 53.1 27.2 52.9 27.3 52.8 27.3 C 52.5 27.3 52.3 27.2 52.2 27.1 C 52 27.1 51.9 27 51.9 26.8 C 51.8 26.7 51.8 26.4 51.8 26 C 51.8 25.99 51.8 23.6 51.8 23.6 L 51.3 23.6 L 51.3 23.1 L 51.8 23.1 L 51.8 22 L 52.5 21.6 L 52.5 23.1 L 53.2 23.1 L 53.2 23.6 L 52.5 23.6 C 52.5 23.6 52.5 26.03 52.5 26 C 52.5 26.2 52.5 26.4 52.5 26.4 C 52.6 26.5 52.6 26.5 52.7 26.6 C 52.7 26.6 52.8 26.6 52.9 26.6 C 52.9 26.6 52.9 26.6 52.9 26.6 Z M 53.9 22.3 L 53.9 21.5 L 54.6 21.5 L 54.6 22.3 L 53.9 22.3 Z M 53.9 27.2 L 53.9 23.1 L 54.6 23.1 L 54.6 27.2 L 53.9 27.2 Z M 55.7 27.2 L 55.7 23.1 L 56.3 23.1 C 56.3 23.1 56.3 23.65 56.3 23.6 C 56.6 23.2 57 23 57.6 23 C 57.9 23 58.1 23 58.3 23.1 C 58.5 23.2 58.7 23.3 58.8 23.5 C 58.9 23.6 59 23.8 59 24 C 59 24.1 59 24.3 59 24.7 C 59.04 24.66 59 27.2 59 27.2 L 58.3 27.2 C 58.3 27.2 58.34 24.68 58.3 24.7 C 58.3 24.4 58.3 24.2 58.3 24 C 58.2 23.9 58.1 23.8 58 23.7 C 57.8 23.6 57.7 23.6 57.5 23.6 C 57.2 23.6 56.9 23.7 56.7 23.9 C 56.5 24 56.4 24.4 56.4 24.9 C 56.37 24.94 56.4 27.2 56.4 27.2 L 55.7 27.2 Z M 62.8 27.2 C 62.8 27.2 62.84 26.6 62.8 26.6 C 62.5 27.1 62.1 27.3 61.5 27.3 C 61.3 27.3 61 27.3 60.8 27.2 C 60.6 27.1 60.5 26.9 60.4 26.8 C 60.3 26.7 60.2 26.5 60.1 26.3 C 60.1 26.1 60.1 25.9 60.1 25.6 C 60.1 25.63 60.1 23.1 60.1 23.1 L 60.8 23.1 C 60.8 23.1 60.8 25.36 60.8 25.4 C 60.8 25.7 60.8 26 60.8 26.1 C 60.9 26.3 61 26.4 61.1 26.5 C 61.3 26.6 61.4 26.7 61.7 26.7 C 61.9 26.7 62.1 26.6 62.3 26.5 C 62.4 26.4 62.6 26.3 62.6 26.1 C 62.7 25.9 62.8 25.6 62.8 25.3 C 62.76 25.28 62.8 23.1 62.8 23.1 L 63.5 23.1 L 63.5 27.2 L 62.8 27.2 Z M 64.3 25.1 C 64.3 24.4 64.5 23.8 64.9 23.4 C 65.3 23.1 65.7 23 66.3 23 C 66.8 23 67.3 23.2 67.6 23.5 C 68 23.9 68.2 24.4 68.2 25.1 C 68.2 25.6 68.1 26 68 26.3 C 67.8 26.6 67.6 26.9 67.3 27 C 66.9 27.2 66.6 27.3 66.3 27.3 C 65.7 27.3 65.2 27.1 64.8 26.7 C 64.5 26.4 64.3 25.8 64.3 25.1 Z M 65 25.1 C 65 25.7 65.1 26.1 65.4 26.3 C 65.6 26.6 65.9 26.7 66.3 26.7 C 66.6 26.7 66.9 26.6 67.1 26.3 C 67.4 26.1 67.5 25.7 67.5 25.1 C 67.5 24.6 67.4 24.2 67.1 23.9 C 66.9 23.7 66.6 23.5 66.3 23.5 C 65.9 23.5 65.6 23.7 65.4 23.9 C 65.1 24.2 65 24.6 65 25.1 Z M 71.7 27.2 C 71.7 27.2 71.73 26.6 71.7 26.6 C 71.4 27.1 71 27.3 70.4 27.3 C 70.2 27.3 69.9 27.3 69.7 27.2 C 69.5 27.1 69.4 26.9 69.3 26.8 C 69.2 26.7 69.1 26.5 69 26.3 C 69 26.1 69 25.9 69 25.6 C 69 25.63 69 23.1 69 23.1 L 69.7 23.1 C 69.7 23.1 69.7 25.36 69.7 25.4 C 69.7 25.7 69.7 26 69.7 26.1 C 69.8 26.3 69.9 26.4 70 26.5 C 70.2 26.6 70.3 26.7 70.6 26.7 C 70.8 26.7 71 26.6 71.2 26.5 C 71.3 26.4 71.5 26.3 71.5 26.1 C 71.6 25.9 71.7 25.6 71.7 25.3 C 71.66 25.28 71.7 23.1 71.7 23.1 L 72.4 23.1 L 72.4 27.2 L 71.7 27.2 Z M 73.2 26 C 73.2 26 73.9 25.9 73.9 25.9 C 73.9 26.1 74 26.4 74.2 26.5 C 74.4 26.6 74.6 26.7 75 26.7 C 75.3 26.7 75.5 26.7 75.7 26.5 C 75.8 26.4 75.9 26.2 75.9 26.1 C 75.9 25.9 75.8 25.8 75.7 25.7 C 75.6 25.6 75.4 25.5 75 25.4 C 74.5 25.3 74.1 25.2 73.9 25.1 C 73.7 25 73.6 24.9 73.5 24.7 C 73.4 24.5 73.3 24.4 73.3 24.2 C 73.3 24 73.3 23.8 73.4 23.6 C 73.5 23.5 73.6 23.4 73.8 23.3 C 73.9 23.2 74 23.1 74.2 23 C 74.4 23 74.6 23 74.8 23 C 75.2 23 75.4 23 75.7 23.1 C 75.9 23.2 76.1 23.3 76.2 23.5 C 76.3 23.6 76.4 23.9 76.5 24.1 C 76.5 24.1 75.8 24.2 75.8 24.2 C 75.8 24 75.7 23.8 75.5 23.7 C 75.4 23.6 75.2 23.5 74.9 23.5 C 74.6 23.5 74.3 23.6 74.2 23.7 C 74 23.8 74 23.9 74 24.1 C 74 24.2 74 24.3 74.1 24.3 C 74.1 24.4 74.2 24.5 74.3 24.5 C 74.4 24.5 74.6 24.6 75 24.7 C 75.5 24.8 75.8 24.9 76 25 C 76.2 25.1 76.3 25.2 76.5 25.4 C 76.6 25.5 76.6 25.7 76.6 26 C 76.6 26.2 76.6 26.4 76.4 26.6 C 76.3 26.9 76.1 27 75.8 27.1 C 75.6 27.2 75.3 27.3 75 27.3 C 74.4 27.3 74 27.2 73.7 27 C 73.4 26.7 73.3 26.4 73.2 26 Z M 77.4 27.2 L 77.4 21.5 L 78.2 21.5 L 78.2 27.2 L 77.4 27.2 Z M 79.7 28.9 C 79.5 28.9 79.4 28.9 79.2 28.8 C 79.2 28.8 79.1 28.1 79.1 28.1 C 79.3 28.2 79.4 28.2 79.5 28.2 C 79.7 28.2 79.8 28.2 79.9 28.1 C 80 28.1 80.1 28 80.1 27.9 C 80.2 27.8 80.3 27.7 80.4 27.4 C 80.4 27.3 80.4 27.3 80.4 27.2 C 80.42 27.21 78.8 23.1 78.8 23.1 L 79.6 23.1 C 79.6 23.1 80.46 25.46 80.5 25.5 C 80.6 25.8 80.7 26.1 80.8 26.4 C 80.8 26.1 80.9 25.8 81.1 25.5 C 81.05 25.48 81.9 23.1 81.9 23.1 L 82.6 23.1 C 82.6 23.1 81.07 27.28 81.1 27.3 C 80.9 27.7 80.8 28 80.7 28.2 C 80.5 28.4 80.4 28.6 80.2 28.7 C 80.1 28.8 79.9 28.9 79.7 28.9 C 79.7 28.9 79.7 28.9 79.7 28.9 Z M 85.5 22.3 L 85.5 21.5 L 86.2 21.5 L 86.2 22.3 L 85.5 22.3 Z M 85.5 27.2 L 85.5 23.1 L 86.2 23.1 L 86.2 27.2 L 85.5 27.2 Z M 87.2 27.2 L 87.2 23.1 L 87.9 23.1 C 87.9 23.1 87.87 23.64 87.9 23.6 C 88 23.4 88.2 23.3 88.4 23.1 C 88.6 23 88.9 23 89.1 23 C 89.4 23 89.7 23 89.9 23.2 C 90.1 23.3 90.2 23.5 90.3 23.7 C 90.6 23.2 91.1 23 91.6 23 C 92 23 92.3 23.1 92.5 23.3 C 92.8 23.5 92.9 23.9 92.9 24.4 C 92.86 24.36 92.9 27.2 92.9 27.2 L 92.2 27.2 C 92.2 27.2 92.16 24.59 92.2 24.6 C 92.2 24.3 92.1 24.1 92.1 24 C 92.1 23.9 92 23.8 91.8 23.7 C 91.7 23.6 91.6 23.6 91.4 23.6 C 91.1 23.6 90.9 23.7 90.7 23.9 C 90.5 24.1 90.4 24.4 90.4 24.8 C 90.41 24.8 90.4 27.2 90.4 27.2 L 89.7 27.2 C 89.7 27.2 89.71 24.51 89.7 24.5 C 89.7 24.2 89.6 24 89.5 23.8 C 89.4 23.7 89.2 23.6 89 23.6 C 88.8 23.6 88.6 23.6 88.4 23.7 C 88.3 23.8 88.1 24 88.1 24.2 C 88 24.4 87.9 24.7 87.9 25.1 C 87.95 25.05 87.9 27.2 87.9 27.2 L 87.2 27.2 Z M 93.9 28.8 L 93.9 23.1 L 94.5 23.1 C 94.5 23.1 94.55 23.6 94.5 23.6 C 94.7 23.4 94.9 23.2 95.1 23.1 C 95.2 23 95.5 23 95.8 23 C 96.1 23 96.4 23.1 96.7 23.2 C 97 23.4 97.2 23.7 97.3 24 C 97.4 24.3 97.5 24.7 97.5 25.1 C 97.5 25.5 97.4 25.9 97.3 26.2 C 97.1 26.6 96.9 26.8 96.6 27 C 96.3 27.2 96 27.3 95.7 27.3 C 95.5 27.3 95.3 27.3 95.1 27.2 C 94.9 27.1 94.7 26.9 94.6 26.8 C 94.61 26.78 94.6 28.8 94.6 28.8 L 93.9 28.8 Z M 94.5 25.2 C 94.5 25.7 94.7 26.1 94.9 26.3 C 95.1 26.6 95.3 26.7 95.7 26.7 C 96 26.7 96.2 26.6 96.5 26.3 C 96.7 26.1 96.8 25.7 96.8 25.1 C 96.8 24.6 96.7 24.2 96.5 23.9 C 96.2 23.6 96 23.5 95.7 23.5 C 95.4 23.5 95.1 23.7 94.9 23.9 C 94.7 24.2 94.5 24.6 94.5 25.2 Z M 98.3 27.2 L 98.3 23.1 L 99 23.1 C 99 23.1 98.98 23.69 99 23.7 C 99.1 23.4 99.3 23.2 99.4 23.1 C 99.6 23 99.7 23 99.9 23 C 100.1 23 100.4 23 100.6 23.2 C 100.6 23.2 100.4 23.8 100.4 23.8 C 100.2 23.7 100 23.7 99.8 23.7 C 99.7 23.7 99.6 23.7 99.4 23.8 C 99.3 23.9 99.2 24 99.2 24.2 C 99.1 24.5 99.1 24.7 99.1 25 C 99.05 25.03 99.1 27.2 99.1 27.2 L 98.3 27.2 Z M 100.8 25.1 C 100.8 24.4 101 23.8 101.4 23.4 C 101.8 23.1 102.2 23 102.7 23 C 103.3 23 103.7 23.2 104.1 23.5 C 104.5 23.9 104.6 24.4 104.6 25.1 C 104.6 25.6 104.6 26 104.4 26.3 C 104.2 26.6 104 26.9 103.7 27 C 103.4 27.2 103.1 27.3 102.7 27.3 C 102.1 27.3 101.7 27.1 101.3 26.7 C 100.9 26.4 100.8 25.8 100.8 25.1 Z M 101.5 25.1 C 101.5 25.7 101.6 26.1 101.8 26.3 C 102.1 26.6 102.4 26.7 102.7 26.7 C 103.1 26.7 103.3 26.6 103.6 26.3 C 103.8 26.1 103.9 25.7 103.9 25.1 C 103.9 24.6 103.8 24.2 103.6 23.9 C 103.3 23.7 103 23.5 102.7 23.5 C 102.4 23.5 102.1 23.7 101.8 23.9 C 101.6 24.2 101.5 24.6 101.5 25.1 Z M 106.6 27.2 L 105 23.1 L 105.8 23.1 C 105.8 23.1 106.68 25.54 106.7 25.5 C 106.8 25.8 106.9 26.1 106.9 26.4 C 107 26.2 107.1 25.9 107.2 25.6 C 107.2 25.59 108.1 23.1 108.1 23.1 L 108.8 23.1 L 107.3 27.2 L 106.6 27.2 Z M 112.3 25.9 C 112.3 25.9 113 26 113 26 C 112.9 26.4 112.7 26.7 112.4 26.9 C 112.1 27.2 111.7 27.3 111.2 27.3 C 110.6 27.3 110.1 27.1 109.8 26.7 C 109.4 26.4 109.2 25.8 109.2 25.2 C 109.2 24.5 109.4 23.9 109.8 23.5 C 110.1 23.2 110.6 23 111.2 23 C 111.7 23 112.2 23.2 112.5 23.5 C 112.9 23.9 113.1 24.4 113.1 25.1 C 113.1 25.2 113.1 25.2 113.1 25.3 C 113.1 25.3 110 25.3 110 25.3 C 110 25.8 110.1 26.1 110.3 26.4 C 110.6 26.6 110.9 26.7 111.2 26.7 C 111.5 26.7 111.7 26.7 111.9 26.5 C 112.1 26.4 112.2 26.2 112.3 25.9 Z M 110 24.7 C 110 24.7 112.3 24.7 112.3 24.7 C 112.3 24.4 112.2 24.1 112.1 23.9 C 111.8 23.7 111.5 23.5 111.2 23.5 C 110.9 23.5 110.6 23.6 110.4 23.9 C 110.1 24.1 110 24.4 110 24.7 Z M 114.1 27.2 L 114.1 26.4 L 114.9 26.4 L 114.9 27.2 L 114.1 27.2 Z " stroke="none" fill="#010102"/>  </g>  <g id="Polygon846">    <path d="M 4.7 2.4 C 4.7 2.4 4.7 3.5 4.7 3.5 C 4.2 3 3.5 2.7 2.9 2.7 C 2 2.7 1.4 3.2 1.4 3.9 C 1.4 4.5 1.6 4.9 2.9 5.6 C 4.6 6.5 5 7.1 5 8.2 C 5 9.4 4.1 10.3 2.7 10.3 C 1.9 10.3 1.2 10.1 0.6 9.6 C 0.6 9.6 0.6 8.5 0.6 8.5 C 1.2 9.1 1.9 9.5 2.7 9.5 C 3.5 9.5 4.1 9 4.1 8.2 C 4.1 7.5 3.9 7.1 2.3 6.3 C 1 5.6 0.5 5 0.5 3.9 C 0.5 2.8 1.5 1.9 2.9 1.9 C 3.5 1.9 4.2 2.1 4.7 2.4 Z M 7.2 2 C 7.2 2 7.22 6.74 7.2 6.7 C 7.2 8.5 8.1 9.5 9.8 9.5 C 11.5 9.5 12.3 8.5 12.3 6.7 C 12.29 6.74 12.3 2 12.3 2 L 13.2 2 C 13.2 2 13.19 6.74 13.2 6.7 C 13.2 8.9 12 10.3 9.8 10.3 C 7.5 10.3 6.3 9 6.3 6.7 C 6.32 6.74 6.3 2 6.3 2 L 7.2 2 Z M 14.9 2 C 14.9 2 17.08 2.02 17.1 2 C 18.7 2 19.6 3 19.6 4.2 C 19.6 5.2 19 5.9 18 6.2 C 18.6 6.5 18.8 6.7 19.5 7.8 C 19.46 7.76 21 10.2 21 10.2 L 20 10.2 C 20 10.2 18.54 7.95 18.5 7.9 C 17.8 6.7 17.3 6.5 16.6 6.5 C 16.58 6.49 15.8 6.5 15.8 6.5 L 15.8 10.2 L 14.9 10.2 L 14.9 2 Z M 16.7 5.7 C 17.8 5.7 18.6 5.4 18.6 4.2 C 18.6 3.2 18 2.8 17 2.8 C 16.96 2.81 15.8 2.8 15.8 2.8 L 15.8 5.7 C 15.8 5.7 16.67 5.69 16.7 5.7 Z M 20.6 2 L 21.5 2 L 24.2 8.4 L 24.2 8.4 L 26.9 2 L 27.8 2 L 24.3 10.3 L 24.1 10.3 L 20.6 2 Z M 33.2 2 L 33.2 2.8 L 29.6 2.8 L 29.6 5.7 L 33 5.7 L 33 6.5 L 29.6 6.5 L 29.6 9.4 L 33.3 9.4 L 33.3 10.2 L 28.7 10.2 L 28.7 2 L 33.2 2 Z M 35.1 2 L 37.6 5 L 40 2 L 41.1 2 L 38 5.8 L 38 10.2 L 37.1 10.2 L 37.1 5.8 L 34 2 L 35.1 2 Z " stroke="none" fill="#010102"/>  </g></svg>