<?xml version="1.0" standalone="no"?><!DOCTYPE svg PUBLIC "-//W3C//DTD SVG 1.1//EN" "http://www.w3.org/Graphics/SVG/1.1/DTD/svg11.dtd"><svg xmlns="http://www.w3.org/2000/svg" version="1.1" width="247px" height="36.9px" viewBox="0 -4 247 36.9" style="top:-4px">  <desc>Case Studies Gain a better understanding on what we can do for you.</desc>  <defs/>  <g id="Polygon738">    <path d="M 3.7 24.7 L 3.7 23.9 L 6.4 23.9 C 6.4 23.9 6.44 26.31 6.4 26.3 C 6 26.6 5.6 26.9 5.1 27.1 C 4.7 27.2 4.2 27.3 3.8 27.3 C 3.1 27.3 2.6 27.2 2 26.9 C 1.5 26.6 1.1 26.2 0.9 25.7 C 0.6 25.2 0.5 24.6 0.5 24 C 0.5 23.4 0.6 22.8 0.9 22.3 C 1.1 21.7 1.5 21.3 2 21 C 2.5 20.8 3.1 20.7 3.7 20.7 C 4.2 20.7 4.6 20.7 5 20.9 C 5.3 21 5.6 21.2 5.9 21.5 C 6.1 21.8 6.2 22.1 6.3 22.6 C 6.3 22.6 5.6 22.8 5.6 22.8 C 5.5 22.4 5.4 22.2 5.2 22 C 5.1 21.8 4.9 21.7 4.6 21.6 C 4.3 21.4 4 21.4 3.7 21.4 C 3.3 21.4 3 21.4 2.7 21.6 C 2.4 21.7 2.2 21.8 2 22 C 1.8 22.2 1.7 22.4 1.6 22.7 C 1.4 23.1 1.4 23.5 1.4 24 C 1.4 24.5 1.5 25 1.7 25.4 C 1.9 25.8 2.1 26.1 2.5 26.3 C 2.9 26.5 3.3 26.5 3.7 26.5 C 4.1 26.5 4.5 26.5 4.8 26.3 C 5.2 26.2 5.4 26 5.6 25.9 C 5.6 25.88 5.6 24.7 5.6 24.7 L 3.7 24.7 Z M 10.8 27.2 C 10.7 27 10.7 26.8 10.6 26.6 C 10.3 26.9 10.1 27.1 9.8 27.2 C 9.5 27.3 9.2 27.3 8.9 27.3 C 8.4 27.3 8 27.2 7.7 26.9 C 7.5 26.7 7.3 26.4 7.3 26 C 7.3 25.7 7.4 25.5 7.5 25.3 C 7.6 25.2 7.7 25 7.9 24.9 C 8.1 24.8 8.2 24.7 8.5 24.6 C 8.6 24.6 8.8 24.6 9.2 24.5 C 9.8 24.4 10.3 24.3 10.6 24.2 C 10.6 24.1 10.6 24.1 10.6 24 C 10.6 23.7 10.5 23.5 10.4 23.4 C 10.2 23.2 9.9 23.1 9.5 23.1 C 9.1 23.1 8.8 23.2 8.6 23.3 C 8.5 23.4 8.3 23.6 8.2 24 C 8.2 24 7.5 23.9 7.5 23.9 C 7.5 23.5 7.6 23.3 7.8 23.1 C 8 22.9 8.2 22.7 8.5 22.6 C 8.8 22.5 9.2 22.4 9.6 22.4 C 10 22.4 10.3 22.5 10.5 22.6 C 10.8 22.7 11 22.8 11.1 22.9 C 11.2 23.1 11.3 23.2 11.3 23.5 C 11.4 23.6 11.4 23.8 11.4 24.2 C 11.4 24.2 11.4 25.3 11.4 25.3 C 11.4 26 11.4 26.5 11.4 26.6 C 11.5 26.8 11.5 27 11.6 27.2 C 11.62 27.21 10.8 27.2 10.8 27.2 C 10.8 27.2 10.8 27.21 10.8 27.2 Z M 10.6 24.9 C 10.3 25 9.9 25.1 9.3 25.2 C 9 25.2 8.7 25.3 8.6 25.3 C 8.5 25.4 8.4 25.5 8.3 25.6 C 8.2 25.7 8.2 25.8 8.2 26 C 8.2 26.2 8.2 26.3 8.4 26.5 C 8.6 26.6 8.8 26.7 9.1 26.7 C 9.4 26.7 9.7 26.6 9.9 26.5 C 10.2 26.4 10.3 26.2 10.4 25.9 C 10.5 25.8 10.6 25.5 10.6 25.2 C 10.6 25.2 10.6 24.9 10.6 24.9 Z M 12.6 21.7 L 12.6 20.8 L 13.4 20.8 L 13.4 21.7 L 12.6 21.7 Z M 12.6 27.2 L 12.6 22.5 L 13.4 22.5 L 13.4 27.2 L 12.6 27.2 Z M 14.6 27.2 L 14.6 22.5 L 15.3 22.5 C 15.3 22.5 15.31 23.2 15.3 23.2 C 15.7 22.7 16.1 22.4 16.8 22.4 C 17.1 22.4 17.3 22.5 17.6 22.6 C 17.8 22.7 18 22.8 18.1 23 C 18.2 23.1 18.3 23.3 18.3 23.6 C 18.4 23.7 18.4 24 18.4 24.3 C 18.39 24.34 18.4 27.2 18.4 27.2 L 17.6 27.2 C 17.6 27.2 17.6 24.37 17.6 24.4 C 17.6 24 17.6 23.8 17.5 23.6 C 17.4 23.5 17.3 23.4 17.2 23.3 C 17 23.2 16.8 23.1 16.6 23.1 C 16.3 23.1 16 23.2 15.8 23.4 C 15.5 23.7 15.4 24.1 15.4 24.7 C 15.39 24.66 15.4 27.2 15.4 27.2 L 14.6 27.2 Z M 25.3 27.2 C 25.2 27 25.2 26.8 25.1 26.6 C 24.9 26.9 24.6 27.1 24.3 27.2 C 24 27.3 23.7 27.3 23.4 27.3 C 22.9 27.3 22.5 27.2 22.2 26.9 C 22 26.7 21.8 26.4 21.8 26 C 21.8 25.7 21.9 25.5 22 25.3 C 22.1 25.2 22.2 25 22.4 24.9 C 22.6 24.8 22.8 24.7 23 24.6 C 23.1 24.6 23.4 24.6 23.7 24.5 C 24.3 24.4 24.8 24.3 25.1 24.2 C 25.1 24.1 25.1 24.1 25.1 24 C 25.1 23.7 25 23.5 24.9 23.4 C 24.7 23.2 24.4 23.1 24 23.1 C 23.6 23.1 23.3 23.2 23.1 23.3 C 23 23.4 22.8 23.6 22.7 24 C 22.7 24 22 23.9 22 23.9 C 22 23.5 22.2 23.3 22.3 23.1 C 22.5 22.9 22.7 22.7 23 22.6 C 23.3 22.5 23.7 22.4 24.1 22.4 C 24.5 22.4 24.8 22.5 25 22.6 C 25.3 22.7 25.5 22.8 25.6 22.9 C 25.7 23.1 25.8 23.2 25.8 23.5 C 25.9 23.6 25.9 23.8 25.9 24.2 C 25.9 24.2 25.9 25.3 25.9 25.3 C 25.9 26 25.9 26.5 25.9 26.6 C 26 26.8 26 27 26.1 27.2 C 26.13 27.21 25.3 27.2 25.3 27.2 C 25.3 27.2 25.31 27.21 25.3 27.2 Z M 25.1 24.9 C 24.8 25 24.4 25.1 23.8 25.2 C 23.5 25.2 23.2 25.3 23.1 25.3 C 23 25.4 22.9 25.5 22.8 25.6 C 22.7 25.7 22.7 25.8 22.7 26 C 22.7 26.2 22.8 26.3 22.9 26.5 C 23.1 26.6 23.3 26.7 23.6 26.7 C 23.9 26.7 24.2 26.6 24.4 26.5 C 24.7 26.4 24.8 26.2 25 25.9 C 25 25.8 25.1 25.5 25.1 25.2 C 25.1 25.2 25.1 24.9 25.1 24.9 Z M 30.3 27.2 L 29.6 27.2 L 29.6 20.8 L 30.4 20.8 C 30.4 20.8 30.4 23.06 30.4 23.1 C 30.7 22.6 31.2 22.4 31.7 22.4 C 32 22.4 32.2 22.5 32.5 22.6 C 32.7 22.7 33 22.9 33.1 23.1 C 33.3 23.3 33.4 23.6 33.5 23.9 C 33.6 24.1 33.7 24.5 33.7 24.8 C 33.7 25.6 33.5 26.2 33.1 26.7 C 32.7 27.1 32.2 27.3 31.6 27.3 C 31.1 27.3 30.7 27.1 30.3 26.6 C 30.34 26.62 30.3 27.2 30.3 27.2 Z M 30.3 24.8 C 30.3 25.4 30.4 25.8 30.6 26.1 C 30.8 26.5 31.1 26.7 31.6 26.7 C 31.9 26.7 32.2 26.5 32.5 26.2 C 32.7 25.9 32.8 25.5 32.8 24.9 C 32.8 24.3 32.7 23.8 32.5 23.5 C 32.2 23.2 31.9 23.1 31.6 23.1 C 31.3 23.1 31 23.2 30.7 23.5 C 30.5 23.8 30.3 24.3 30.3 24.8 Z M 37.8 25.7 C 37.8 25.7 38.6 25.8 38.6 25.8 C 38.5 26.3 38.3 26.7 37.9 26.9 C 37.6 27.2 37.1 27.3 36.6 27.3 C 35.9 27.3 35.4 27.1 35 26.7 C 34.6 26.3 34.4 25.7 34.4 24.9 C 34.4 24.1 34.6 23.5 35 23.1 C 35.4 22.7 35.9 22.4 36.5 22.4 C 37.2 22.4 37.7 22.6 38.1 23.1 C 38.5 23.5 38.7 24.1 38.7 24.9 C 38.7 24.9 38.7 25 38.6 25.1 C 38.6 25.1 35.2 25.1 35.2 25.1 C 35.2 25.6 35.3 26 35.6 26.3 C 35.9 26.5 36.2 26.7 36.6 26.7 C 36.9 26.7 37.1 26.6 37.3 26.4 C 37.5 26.3 37.7 26 37.8 25.7 Z M 35.2 24.4 C 35.2 24.4 37.8 24.4 37.8 24.4 C 37.8 24 37.7 23.7 37.5 23.5 C 37.3 23.2 36.9 23.1 36.5 23.1 C 36.2 23.1 35.9 23.2 35.6 23.4 C 35.4 23.7 35.2 24 35.2 24.4 Z M 41 26.5 C 41.1 26.5 41.2 26.5 41.3 26.5 C 41.3 26.5 41.5 27.2 41.5 27.2 C 41.2 27.2 41 27.3 40.9 27.3 C 40.6 27.3 40.4 27.2 40.2 27.1 C 40 27 39.9 26.9 39.9 26.8 C 39.8 26.6 39.8 26.3 39.8 25.8 C 39.77 25.84 39.8 23.2 39.8 23.2 L 39.2 23.2 L 39.2 22.5 L 39.8 22.5 L 39.8 21.4 L 40.6 20.9 L 40.6 22.5 L 41.3 22.5 L 41.3 23.2 L 40.6 23.2 C 40.6 23.2 40.55 25.88 40.6 25.9 C 40.6 26.1 40.6 26.3 40.6 26.3 C 40.6 26.4 40.7 26.4 40.7 26.5 C 40.8 26.5 40.9 26.5 41 26.5 C 41 26.5 41 26.5 41 26.5 Z M 43.5 26.5 C 43.6 26.5 43.7 26.5 43.8 26.5 C 43.8 26.5 44 27.2 44 27.2 C 43.7 27.2 43.5 27.3 43.4 27.3 C 43.1 27.3 42.9 27.2 42.7 27.1 C 42.5 27 42.4 26.9 42.4 26.8 C 42.3 26.6 42.3 26.3 42.3 25.8 C 42.27 25.84 42.3 23.2 42.3 23.2 L 41.7 23.2 L 41.7 22.5 L 42.3 22.5 L 42.3 21.4 L 43.1 20.9 L 43.1 22.5 L 43.8 22.5 L 43.8 23.2 L 43.1 23.2 C 43.1 23.2 43.05 25.88 43.1 25.9 C 43.1 26.1 43.1 26.3 43.1 26.3 C 43.1 26.4 43.2 26.4 43.2 26.5 C 43.3 26.5 43.4 26.5 43.5 26.5 C 43.5 26.5 43.5 26.5 43.5 26.5 Z M 47.8 25.7 C 47.8 25.7 48.6 25.8 48.6 25.8 C 48.5 26.3 48.3 26.7 47.9 26.9 C 47.6 27.2 47.1 27.3 46.6 27.3 C 45.9 27.3 45.4 27.1 45 26.7 C 44.6 26.3 44.4 25.7 44.4 24.9 C 44.4 24.1 44.6 23.5 45 23.1 C 45.4 22.7 45.9 22.4 46.5 22.4 C 47.2 22.4 47.7 22.6 48.1 23.1 C 48.5 23.5 48.7 24.1 48.7 24.9 C 48.7 24.9 48.7 25 48.7 25.1 C 48.7 25.1 45.2 25.1 45.2 25.1 C 45.2 25.6 45.4 26 45.6 26.3 C 45.9 26.5 46.2 26.7 46.6 26.7 C 46.9 26.7 47.1 26.6 47.3 26.4 C 47.5 26.3 47.7 26 47.8 25.7 Z M 45.2 24.4 C 45.2 24.4 47.8 24.4 47.8 24.4 C 47.8 24 47.7 23.7 47.5 23.5 C 47.3 23.2 46.9 23.1 46.5 23.1 C 46.2 23.1 45.9 23.2 45.6 23.4 C 45.4 23.7 45.2 24 45.2 24.4 Z M 49.6 27.2 L 49.6 22.5 L 50.3 22.5 C 50.3 22.5 50.33 23.25 50.3 23.2 C 50.5 22.9 50.7 22.7 50.8 22.6 C 51 22.5 51.2 22.4 51.3 22.4 C 51.6 22.4 51.9 22.5 52.2 22.7 C 52.2 22.7 51.9 23.4 51.9 23.4 C 51.7 23.3 51.5 23.3 51.3 23.3 C 51.1 23.3 51 23.3 50.8 23.4 C 50.7 23.5 50.6 23.7 50.5 23.8 C 50.5 24.1 50.4 24.4 50.4 24.8 C 50.41 24.76 50.4 27.2 50.4 27.2 L 49.6 27.2 Z M 58.2 27.2 C 58.2 27.2 58.18 26.52 58.2 26.5 C 57.8 27 57.3 27.3 56.7 27.3 C 56.4 27.3 56.2 27.3 55.9 27.2 C 55.7 27 55.5 26.9 55.4 26.8 C 55.3 26.6 55.2 26.4 55.2 26.2 C 55.1 26 55.1 25.8 55.1 25.4 C 55.11 25.43 55.1 22.5 55.1 22.5 L 55.9 22.5 C 55.9 22.5 55.9 25.13 55.9 25.1 C 55.9 25.5 55.9 25.8 55.9 26 C 56 26.2 56.1 26.3 56.3 26.5 C 56.4 26.6 56.6 26.6 56.9 26.6 C 57.1 26.6 57.3 26.6 57.5 26.4 C 57.7 26.3 57.9 26.2 58 26 C 58.1 25.7 58.1 25.4 58.1 25 C 58.1 25.04 58.1 22.5 58.1 22.5 L 58.9 22.5 L 58.9 27.2 L 58.2 27.2 Z M 60.1 27.2 L 60.1 22.5 L 60.8 22.5 C 60.8 22.5 60.84 23.2 60.8 23.2 C 61.2 22.7 61.7 22.4 62.3 22.4 C 62.6 22.4 62.9 22.5 63.1 22.6 C 63.3 22.7 63.5 22.8 63.6 23 C 63.7 23.1 63.8 23.3 63.9 23.6 C 63.9 23.7 63.9 24 63.9 24.3 C 63.92 24.34 63.9 27.2 63.9 27.2 L 63.1 27.2 C 63.1 27.2 63.13 24.37 63.1 24.4 C 63.1 24 63.1 23.8 63 23.6 C 63 23.5 62.9 23.4 62.7 23.3 C 62.6 23.2 62.4 23.1 62.2 23.1 C 61.8 23.1 61.5 23.2 61.3 23.4 C 61 23.7 60.9 24.1 60.9 24.7 C 60.92 24.66 60.9 27.2 60.9 27.2 L 60.1 27.2 Z M 68.2 27.2 C 68.2 27.2 68.16 26.62 68.2 26.6 C 67.9 27.1 67.4 27.3 66.9 27.3 C 66.5 27.3 66.1 27.2 65.8 27 C 65.5 26.8 65.3 26.5 65.1 26.1 C 64.9 25.8 64.9 25.4 64.9 24.9 C 64.9 24.4 64.9 24 65.1 23.6 C 65.2 23.2 65.5 22.9 65.8 22.7 C 66.1 22.5 66.4 22.4 66.8 22.4 C 67.1 22.4 67.4 22.5 67.6 22.6 C 67.8 22.7 68 22.9 68.1 23.1 C 68.11 23.07 68.1 20.8 68.1 20.8 L 68.9 20.8 L 68.9 27.2 L 68.2 27.2 Z M 65.7 24.9 C 65.7 25.5 65.8 25.9 66 26.2 C 66.3 26.5 66.6 26.7 66.9 26.7 C 67.3 26.7 67.6 26.5 67.8 26.2 C 68.1 26 68.2 25.5 68.2 24.9 C 68.2 24.3 68.1 23.8 67.8 23.5 C 67.6 23.2 67.3 23.1 66.9 23.1 C 66.5 23.1 66.3 23.2 66 23.5 C 65.8 23.8 65.7 24.3 65.7 24.9 Z M 73.3 25.7 C 73.3 25.7 74.2 25.8 74.2 25.8 C 74 26.3 73.8 26.7 73.4 26.9 C 73.1 27.2 72.6 27.3 72.1 27.3 C 71.4 27.3 70.9 27.1 70.5 26.7 C 70.1 26.3 69.9 25.7 69.9 24.9 C 69.9 24.1 70.1 23.5 70.5 23.1 C 70.9 22.7 71.4 22.4 72.1 22.4 C 72.7 22.4 73.2 22.6 73.6 23.1 C 74 23.5 74.2 24.1 74.2 24.9 C 74.2 24.9 74.2 25 74.2 25.1 C 74.2 25.1 70.7 25.1 70.7 25.1 C 70.7 25.6 70.9 26 71.1 26.3 C 71.4 26.5 71.7 26.7 72.1 26.7 C 72.4 26.7 72.6 26.6 72.8 26.4 C 73.1 26.3 73.2 26 73.3 25.7 Z M 70.7 24.4 C 70.7 24.4 73.3 24.4 73.3 24.4 C 73.3 24 73.2 23.7 73 23.5 C 72.8 23.2 72.5 23.1 72.1 23.1 C 71.7 23.1 71.4 23.2 71.1 23.4 C 70.9 23.7 70.8 24 70.7 24.4 Z M 75.1 27.2 L 75.1 22.5 L 75.8 22.5 C 75.8 22.5 75.85 23.25 75.8 23.2 C 76 22.9 76.2 22.7 76.4 22.6 C 76.5 22.5 76.7 22.4 76.9 22.4 C 77.1 22.4 77.4 22.5 77.7 22.7 C 77.7 22.7 77.4 23.4 77.4 23.4 C 77.2 23.3 77 23.3 76.8 23.3 C 76.6 23.3 76.5 23.3 76.4 23.4 C 76.2 23.5 76.1 23.7 76.1 23.8 C 76 24.1 75.9 24.4 75.9 24.8 C 75.93 24.76 75.9 27.2 75.9 27.2 L 75.1 27.2 Z M 77.8 25.8 C 77.8 25.8 78.6 25.7 78.6 25.7 C 78.7 26 78.8 26.2 79 26.4 C 79.2 26.6 79.5 26.7 79.8 26.7 C 80.2 26.7 80.5 26.6 80.6 26.4 C 80.8 26.3 80.9 26.1 80.9 25.9 C 80.9 25.7 80.8 25.6 80.7 25.5 C 80.5 25.4 80.3 25.3 79.8 25.2 C 79.3 25.1 78.9 25 78.6 24.8 C 78.4 24.7 78.2 24.6 78.1 24.4 C 78 24.2 78 24 78 23.8 C 78 23.6 78 23.4 78.1 23.2 C 78.2 23 78.3 22.9 78.5 22.8 C 78.6 22.7 78.8 22.6 79 22.5 C 79.2 22.5 79.4 22.4 79.7 22.4 C 80 22.4 80.4 22.5 80.6 22.6 C 80.9 22.7 81.1 22.8 81.3 23 C 81.4 23.2 81.5 23.4 81.5 23.7 C 81.5 23.7 80.8 23.8 80.8 23.8 C 80.7 23.6 80.6 23.4 80.4 23.3 C 80.3 23.2 80 23.1 79.7 23.1 C 79.4 23.1 79.1 23.1 79 23.3 C 78.8 23.4 78.7 23.5 78.7 23.7 C 78.7 23.8 78.8 23.9 78.8 24 C 78.9 24 79 24.1 79.1 24.2 C 79.2 24.2 79.4 24.3 79.8 24.4 C 80.4 24.5 80.8 24.6 81 24.7 C 81.2 24.8 81.4 25 81.5 25.2 C 81.6 25.3 81.7 25.6 81.7 25.8 C 81.7 26.1 81.6 26.3 81.5 26.6 C 81.3 26.8 81.1 27 80.8 27.1 C 80.5 27.2 80.2 27.3 79.8 27.3 C 79.2 27.3 78.8 27.2 78.4 26.9 C 78.1 26.7 77.9 26.3 77.8 25.8 Z M 84 26.5 C 84.1 26.5 84.2 26.5 84.4 26.5 C 84.4 26.5 84.5 27.2 84.5 27.2 C 84.3 27.2 84.1 27.3 83.9 27.3 C 83.6 27.3 83.4 27.2 83.2 27.1 C 83.1 27 82.9 26.9 82.9 26.8 C 82.8 26.6 82.8 26.3 82.8 25.8 C 82.79 25.84 82.8 23.2 82.8 23.2 L 82.2 23.2 L 82.2 22.5 L 82.8 22.5 L 82.8 21.4 L 83.6 20.9 L 83.6 22.5 L 84.4 22.5 L 84.4 23.2 L 83.6 23.2 C 83.6 23.2 83.58 25.88 83.6 25.9 C 83.6 26.1 83.6 26.3 83.6 26.3 C 83.6 26.4 83.7 26.4 83.8 26.5 C 83.8 26.5 83.9 26.5 84 26.5 C 84 26.5 84 26.5 84 26.5 Z M 88.3 27.2 C 88.3 27 88.2 26.8 88.2 26.6 C 87.9 26.9 87.6 27.1 87.3 27.2 C 87.1 27.3 86.8 27.3 86.5 27.3 C 86 27.3 85.6 27.2 85.3 26.9 C 85 26.7 84.9 26.4 84.9 26 C 84.9 25.7 84.9 25.5 85 25.3 C 85.1 25.2 85.3 25 85.4 24.9 C 85.6 24.8 85.8 24.7 86 24.6 C 86.2 24.6 86.4 24.6 86.7 24.5 C 87.4 24.4 87.8 24.3 88.1 24.2 C 88.1 24.1 88.1 24.1 88.1 24 C 88.1 23.7 88.1 23.5 87.9 23.4 C 87.7 23.2 87.4 23.1 87 23.1 C 86.6 23.1 86.4 23.2 86.2 23.3 C 86 23.4 85.9 23.6 85.8 24 C 85.8 24 85 23.9 85 23.9 C 85.1 23.5 85.2 23.3 85.4 23.1 C 85.5 22.9 85.8 22.7 86.1 22.6 C 86.4 22.5 86.7 22.4 87.1 22.4 C 87.5 22.4 87.8 22.5 88.1 22.6 C 88.3 22.7 88.5 22.8 88.6 22.9 C 88.8 23.1 88.8 23.2 88.9 23.5 C 88.9 23.6 88.9 23.8 88.9 24.2 C 88.9 24.2 88.9 25.3 88.9 25.3 C 88.9 26 88.9 26.5 89 26.6 C 89 26.8 89.1 27 89.2 27.2 C 89.17 27.21 88.3 27.2 88.3 27.2 C 88.3 27.2 88.35 27.21 88.3 27.2 Z M 88.1 24.9 C 87.8 25 87.4 25.1 86.8 25.2 C 86.5 25.2 86.3 25.3 86.1 25.3 C 86 25.4 85.9 25.5 85.8 25.6 C 85.8 25.7 85.7 25.8 85.7 26 C 85.7 26.2 85.8 26.3 86 26.5 C 86.1 26.6 86.4 26.7 86.7 26.7 C 87 26.7 87.2 26.6 87.5 26.5 C 87.7 26.4 87.9 26.2 88 25.9 C 88.1 25.8 88.1 25.5 88.1 25.2 C 88.1 25.2 88.1 24.9 88.1 24.9 Z M 90.1 27.2 L 90.1 22.5 L 90.9 22.5 C 90.9 22.5 90.86 23.2 90.9 23.2 C 91.2 22.7 91.7 22.4 92.3 22.4 C 92.6 22.4 92.9 22.5 93.1 22.6 C 93.4 22.7 93.5 22.8 93.7 23 C 93.8 23.1 93.9 23.3 93.9 23.6 C 93.9 23.7 93.9 24 93.9 24.3 C 93.94 24.34 93.9 27.2 93.9 27.2 L 93.2 27.2 C 93.2 27.2 93.15 24.37 93.2 24.4 C 93.2 24 93.1 23.8 93.1 23.6 C 93 23.5 92.9 23.4 92.7 23.3 C 92.6 23.2 92.4 23.1 92.2 23.1 C 91.8 23.1 91.6 23.2 91.3 23.4 C 91.1 23.7 90.9 24.1 90.9 24.7 C 90.94 24.66 90.9 27.2 90.9 27.2 L 90.1 27.2 Z M 98.2 27.2 C 98.2 27.2 98.18 26.62 98.2 26.6 C 97.9 27.1 97.5 27.3 96.9 27.3 C 96.5 27.3 96.2 27.2 95.9 27 C 95.5 26.8 95.3 26.5 95.1 26.1 C 95 25.8 94.9 25.4 94.9 24.9 C 94.9 24.4 94.9 24 95.1 23.6 C 95.3 23.2 95.5 22.9 95.8 22.7 C 96.1 22.5 96.5 22.4 96.8 22.4 C 97.1 22.4 97.4 22.5 97.6 22.6 C 97.8 22.7 98 22.9 98.1 23.1 C 98.13 23.07 98.1 20.8 98.1 20.8 L 98.9 20.8 L 98.9 27.2 L 98.2 27.2 Z M 95.7 24.9 C 95.7 25.5 95.8 25.9 96.1 26.2 C 96.3 26.5 96.6 26.7 97 26.7 C 97.3 26.7 97.6 26.5 97.8 26.2 C 98.1 26 98.2 25.5 98.2 24.9 C 98.2 24.3 98.1 23.8 97.8 23.5 C 97.6 23.2 97.3 23.1 96.9 23.1 C 96.6 23.1 96.3 23.2 96 23.5 C 95.8 23.8 95.7 24.3 95.7 24.9 Z M 100.2 21.7 L 100.2 20.8 L 101 20.8 L 101 21.7 L 100.2 21.7 Z M 100.2 27.2 L 100.2 22.5 L 101 22.5 L 101 27.2 L 100.2 27.2 Z M 102.2 27.2 L 102.2 22.5 L 102.9 22.5 C 102.9 22.5 102.87 23.2 102.9 23.2 C 103.2 22.7 103.7 22.4 104.4 22.4 C 104.6 22.4 104.9 22.5 105.1 22.6 C 105.4 22.7 105.5 22.8 105.7 23 C 105.8 23.1 105.9 23.3 105.9 23.6 C 105.9 23.7 106 24 106 24.3 C 105.95 24.34 106 27.2 106 27.2 L 105.2 27.2 C 105.2 27.2 105.16 24.37 105.2 24.4 C 105.2 24 105.1 23.8 105.1 23.6 C 105 23.5 104.9 23.4 104.7 23.3 C 104.6 23.2 104.4 23.1 104.2 23.1 C 103.9 23.1 103.6 23.2 103.3 23.4 C 103.1 23.7 103 24.1 103 24.7 C 102.95 24.66 103 27.2 103 27.2 L 102.2 27.2 Z M 107 27.6 C 107 27.6 107.8 27.7 107.8 27.7 C 107.8 27.9 107.9 28.1 108.1 28.2 C 108.3 28.4 108.5 28.4 108.9 28.4 C 109.2 28.4 109.5 28.4 109.7 28.2 C 109.9 28.1 110 27.9 110.1 27.6 C 110.2 27.4 110.2 27.1 110.2 26.6 C 109.8 27 109.4 27.2 108.9 27.2 C 108.2 27.2 107.7 27 107.4 26.5 C 107 26 106.9 25.5 106.9 24.8 C 106.9 24.4 106.9 24 107.1 23.6 C 107.3 23.2 107.5 22.9 107.8 22.7 C 108.1 22.5 108.5 22.4 108.9 22.4 C 109.4 22.4 109.9 22.7 110.2 23.1 C 110.25 23.1 110.2 22.5 110.2 22.5 L 111 22.5 C 111 22.5 110.98 26.57 111 26.6 C 111 27.3 110.9 27.8 110.8 28.1 C 110.6 28.4 110.4 28.7 110.1 28.8 C 109.7 29 109.3 29.1 108.9 29.1 C 108.3 29.1 107.9 29 107.5 28.7 C 107.2 28.5 107 28.1 107 27.6 Z M 107.7 24.8 C 107.7 25.4 107.8 25.8 108 26.1 C 108.3 26.4 108.6 26.6 109 26.6 C 109.3 26.6 109.6 26.4 109.9 26.1 C 110.1 25.9 110.2 25.4 110.2 24.8 C 110.2 24.2 110.1 23.8 109.9 23.5 C 109.6 23.2 109.3 23.1 108.9 23.1 C 108.6 23.1 108.3 23.2 108 23.5 C 107.8 23.8 107.7 24.2 107.7 24.8 Z M 114.4 24.9 C 114.4 24 114.6 23.4 115.1 23 C 115.5 22.6 116 22.4 116.6 22.4 C 117.2 22.4 117.7 22.6 118.1 23.1 C 118.5 23.5 118.7 24.1 118.7 24.8 C 118.7 25.4 118.7 25.9 118.5 26.2 C 118.3 26.6 118 26.8 117.7 27 C 117.3 27.2 117 27.3 116.6 27.3 C 115.9 27.3 115.4 27.1 115 26.7 C 114.6 26.3 114.4 25.7 114.4 24.9 Z M 115.2 24.9 C 115.2 25.5 115.3 25.9 115.6 26.2 C 115.8 26.5 116.2 26.7 116.6 26.7 C 117 26.7 117.3 26.5 117.5 26.2 C 117.8 25.9 117.9 25.5 117.9 24.8 C 117.9 24.3 117.8 23.8 117.5 23.5 C 117.3 23.2 117 23.1 116.6 23.1 C 116.2 23.1 115.8 23.2 115.6 23.5 C 115.3 23.8 115.2 24.3 115.2 24.9 Z M 119.7 27.2 L 119.7 22.5 L 120.4 22.5 C 120.4 22.5 120.39 23.2 120.4 23.2 C 120.7 22.7 121.2 22.4 121.9 22.4 C 122.2 22.4 122.4 22.5 122.6 22.6 C 122.9 22.7 123.1 22.8 123.2 23 C 123.3 23.1 123.4 23.3 123.4 23.6 C 123.5 23.7 123.5 24 123.5 24.3 C 123.47 24.34 123.5 27.2 123.5 27.2 L 122.7 27.2 C 122.7 27.2 122.68 24.37 122.7 24.4 C 122.7 24 122.6 23.8 122.6 23.6 C 122.5 23.5 122.4 23.4 122.3 23.3 C 122.1 23.2 121.9 23.1 121.7 23.1 C 121.4 23.1 121.1 23.2 120.8 23.4 C 120.6 23.7 120.5 24.1 120.5 24.7 C 120.47 24.66 120.5 27.2 120.5 27.2 L 119.7 27.2 Z M 128 27.2 L 126.6 22.5 L 127.4 22.5 L 128.2 25.2 C 128.2 25.2 128.45 26.23 128.5 26.2 C 128.5 26.2 128.5 25.9 128.7 25.3 C 128.69 25.27 129.4 22.5 129.4 22.5 L 130.2 22.5 L 130.9 25.2 L 131.2 26.1 L 131.4 25.2 L 132.2 22.5 L 133 22.5 L 131.6 27.2 L 130.7 27.2 L 130 24.4 L 129.8 23.6 L 128.9 27.2 L 128 27.2 Z M 133.7 27.2 L 133.7 20.8 L 134.5 20.8 C 134.5 20.8 134.47 23.07 134.5 23.1 C 134.8 22.6 135.3 22.4 135.9 22.4 C 136.2 22.4 136.5 22.5 136.8 22.6 C 137 22.8 137.2 23 137.3 23.2 C 137.4 23.4 137.5 23.8 137.5 24.2 C 137.48 24.25 137.5 27.2 137.5 27.2 L 136.7 27.2 C 136.7 27.2 136.69 24.25 136.7 24.2 C 136.7 23.9 136.6 23.6 136.4 23.4 C 136.3 23.2 136 23.1 135.7 23.1 C 135.5 23.1 135.3 23.2 135 23.3 C 134.8 23.4 134.7 23.6 134.6 23.8 C 134.5 24 134.5 24.3 134.5 24.7 C 134.47 24.65 134.5 27.2 134.5 27.2 L 133.7 27.2 Z M 141.9 27.2 C 141.8 27 141.8 26.8 141.7 26.6 C 141.4 26.9 141.2 27.1 140.9 27.2 C 140.6 27.3 140.3 27.3 140 27.3 C 139.5 27.3 139.1 27.2 138.8 26.9 C 138.6 26.7 138.4 26.4 138.4 26 C 138.4 25.7 138.5 25.5 138.6 25.3 C 138.7 25.2 138.8 25 139 24.9 C 139.2 24.8 139.3 24.7 139.6 24.6 C 139.7 24.6 139.9 24.6 140.3 24.5 C 140.9 24.4 141.4 24.3 141.7 24.2 C 141.7 24.1 141.7 24.1 141.7 24 C 141.7 23.7 141.6 23.5 141.4 23.4 C 141.2 23.2 140.9 23.1 140.5 23.1 C 140.2 23.1 139.9 23.2 139.7 23.3 C 139.5 23.4 139.4 23.6 139.3 24 C 139.3 24 138.6 23.9 138.6 23.9 C 138.6 23.5 138.7 23.3 138.9 23.1 C 139.1 22.9 139.3 22.7 139.6 22.6 C 139.9 22.5 140.3 22.4 140.7 22.4 C 141.1 22.4 141.4 22.5 141.6 22.6 C 141.9 22.7 142.1 22.8 142.2 22.9 C 142.3 23.1 142.4 23.2 142.4 23.5 C 142.5 23.6 142.5 23.8 142.5 24.2 C 142.5 24.2 142.5 25.3 142.5 25.3 C 142.5 26 142.5 26.5 142.5 26.6 C 142.6 26.8 142.6 27 142.7 27.2 C 142.72 27.21 141.9 27.2 141.9 27.2 C 141.9 27.2 141.89 27.21 141.9 27.2 Z M 141.7 24.9 C 141.4 25 140.9 25.1 140.4 25.2 C 140 25.2 139.8 25.3 139.7 25.3 C 139.5 25.4 139.4 25.5 139.4 25.6 C 139.3 25.7 139.3 25.8 139.3 26 C 139.3 26.2 139.3 26.3 139.5 26.5 C 139.7 26.6 139.9 26.7 140.2 26.7 C 140.5 26.7 140.8 26.6 141 26.5 C 141.3 26.4 141.4 26.2 141.5 25.9 C 141.6 25.8 141.7 25.5 141.7 25.2 C 141.7 25.2 141.7 24.9 141.7 24.9 Z M 145.1 26.5 C 145.2 26.5 145.3 26.5 145.4 26.5 C 145.4 26.5 145.5 27.2 145.5 27.2 C 145.3 27.2 145.1 27.3 144.9 27.3 C 144.6 27.3 144.4 27.2 144.3 27.1 C 144.1 27 144 26.9 143.9 26.8 C 143.9 26.6 143.8 26.3 143.8 25.8 C 143.84 25.84 143.8 23.2 143.8 23.2 L 143.3 23.2 L 143.3 22.5 L 143.8 22.5 L 143.8 21.4 L 144.6 20.9 L 144.6 22.5 L 145.4 22.5 L 145.4 23.2 L 144.6 23.2 C 144.6 23.2 144.62 25.88 144.6 25.9 C 144.6 26.1 144.6 26.3 144.7 26.3 C 144.7 26.4 144.7 26.4 144.8 26.5 C 144.9 26.5 145 26.5 145.1 26.5 C 145.1 26.5 145.1 26.5 145.1 26.5 Z M 149.6 27.2 L 148.1 22.5 L 148.9 22.5 L 149.7 25.2 C 149.7 25.2 149.96 26.23 150 26.2 C 150 26.2 150.1 25.9 150.2 25.3 C 150.21 25.27 150.9 22.5 150.9 22.5 L 151.8 22.5 L 152.5 25.2 L 152.7 26.1 L 153 25.2 L 153.8 22.5 L 154.5 22.5 L 153.1 27.2 L 152.2 27.2 L 151.5 24.4 L 151.3 23.6 L 150.4 27.2 L 149.6 27.2 Z M 158.4 25.7 C 158.4 25.7 159.2 25.8 159.2 25.8 C 159.1 26.3 158.8 26.7 158.5 26.9 C 158.1 27.2 157.7 27.3 157.2 27.3 C 156.5 27.3 155.9 27.1 155.5 26.7 C 155.1 26.3 154.9 25.7 154.9 24.9 C 154.9 24.1 155.1 23.5 155.5 23.1 C 155.9 22.7 156.5 22.4 157.1 22.4 C 157.7 22.4 158.2 22.6 158.6 23.1 C 159 23.5 159.2 24.1 159.2 24.9 C 159.2 24.9 159.2 25 159.2 25.1 C 159.2 25.1 155.7 25.1 155.7 25.1 C 155.8 25.6 155.9 26 156.2 26.3 C 156.4 26.5 156.8 26.7 157.2 26.7 C 157.4 26.7 157.7 26.6 157.9 26.4 C 158.1 26.3 158.3 26 158.4 25.7 Z M 155.8 24.4 C 155.8 24.4 158.4 24.4 158.4 24.4 C 158.4 24 158.3 23.7 158.1 23.5 C 157.8 23.2 157.5 23.1 157.1 23.1 C 156.8 23.1 156.4 23.2 156.2 23.4 C 156 23.7 155.8 24 155.8 24.4 Z M 165.7 25.5 C 165.7 25.5 166.5 25.6 166.5 25.6 C 166.4 26.1 166.2 26.6 165.9 26.9 C 165.5 27.2 165.1 27.3 164.6 27.3 C 163.9 27.3 163.4 27.1 163 26.7 C 162.7 26.3 162.5 25.7 162.5 24.9 C 162.5 24.4 162.5 23.9 162.7 23.6 C 162.9 23.2 163.1 22.9 163.5 22.7 C 163.8 22.5 164.2 22.4 164.6 22.4 C 165.1 22.4 165.5 22.6 165.8 22.8 C 166.1 23.1 166.4 23.4 166.4 23.9 C 166.4 23.9 165.7 24 165.7 24 C 165.6 23.7 165.5 23.5 165.3 23.3 C 165.1 23.2 164.9 23.1 164.6 23.1 C 164.2 23.1 163.9 23.2 163.6 23.5 C 163.4 23.8 163.3 24.2 163.3 24.9 C 163.3 25.5 163.4 26 163.6 26.2 C 163.9 26.5 164.2 26.7 164.6 26.7 C 164.9 26.7 165.1 26.6 165.3 26.4 C 165.6 26.2 165.7 25.9 165.7 25.5 Z M 170.4 27.2 C 170.3 27 170.3 26.8 170.2 26.6 C 170 26.9 169.7 27.1 169.4 27.2 C 169.1 27.3 168.8 27.3 168.5 27.3 C 168 27.3 167.6 27.2 167.3 26.9 C 167.1 26.7 166.9 26.4 166.9 26 C 166.9 25.7 167 25.5 167.1 25.3 C 167.2 25.2 167.3 25 167.5 24.9 C 167.7 24.8 167.9 24.7 168.1 24.6 C 168.2 24.6 168.5 24.6 168.8 24.5 C 169.4 24.4 169.9 24.3 170.2 24.2 C 170.2 24.1 170.2 24.1 170.2 24 C 170.2 23.7 170.1 23.5 170 23.4 C 169.8 23.2 169.5 23.1 169.1 23.1 C 168.7 23.1 168.4 23.2 168.2 23.3 C 168.1 23.4 167.9 23.6 167.8 24 C 167.8 24 167.1 23.9 167.1 23.9 C 167.1 23.5 167.3 23.3 167.4 23.1 C 167.6 22.9 167.8 22.7 168.1 22.6 C 168.4 22.5 168.8 22.4 169.2 22.4 C 169.6 22.4 169.9 22.5 170.1 22.6 C 170.4 22.7 170.6 22.8 170.7 22.9 C 170.8 23.1 170.9 23.2 170.9 23.5 C 171 23.6 171 23.8 171 24.2 C 171 24.2 171 25.3 171 25.3 C 171 26 171 26.5 171 26.6 C 171.1 26.8 171.1 27 171.2 27.2 C 171.23 27.21 170.4 27.2 170.4 27.2 C 170.4 27.2 170.4 27.21 170.4 27.2 Z M 170.2 24.9 C 169.9 25 169.5 25.1 168.9 25.2 C 168.6 25.2 168.3 25.3 168.2 25.3 C 168.1 25.4 168 25.5 167.9 25.6 C 167.8 25.7 167.8 25.8 167.8 26 C 167.8 26.2 167.9 26.3 168 26.5 C 168.2 26.6 168.4 26.7 168.7 26.7 C 169 26.7 169.3 26.6 169.5 26.5 C 169.8 26.4 169.9 26.2 170.1 25.9 C 170.1 25.8 170.2 25.5 170.2 25.2 C 170.2 25.2 170.2 24.9 170.2 24.9 Z M 172.2 27.2 L 172.2 22.5 L 172.9 22.5 C 172.9 22.5 172.92 23.2 172.9 23.2 C 173.3 22.7 173.8 22.4 174.4 22.4 C 174.7 22.4 174.9 22.5 175.2 22.6 C 175.4 22.7 175.6 22.8 175.7 23 C 175.8 23.1 175.9 23.3 176 23.6 C 176 23.7 176 24 176 24.3 C 176 24.34 176 27.2 176 27.2 L 175.2 27.2 C 175.2 27.2 175.21 24.37 175.2 24.4 C 175.2 24 175.2 23.8 175.1 23.6 C 175.1 23.5 174.9 23.4 174.8 23.3 C 174.6 23.2 174.4 23.1 174.2 23.1 C 173.9 23.1 173.6 23.2 173.4 23.4 C 173.1 23.7 173 24.1 173 24.7 C 173 24.66 173 27.2 173 27.2 L 172.2 27.2 Z M 182.7 27.2 C 182.7 27.2 182.74 26.62 182.7 26.6 C 182.4 27.1 182 27.3 181.4 27.3 C 181.1 27.3 180.7 27.2 180.4 27 C 180.1 26.8 179.9 26.5 179.7 26.1 C 179.5 25.8 179.4 25.4 179.4 24.9 C 179.4 24.4 179.5 24 179.7 23.6 C 179.8 23.2 180 22.9 180.4 22.7 C 180.7 22.5 181 22.4 181.4 22.4 C 181.7 22.4 181.9 22.5 182.1 22.6 C 182.4 22.7 182.5 22.9 182.7 23.1 C 182.69 23.07 182.7 20.8 182.7 20.8 L 183.5 20.8 L 183.5 27.2 L 182.7 27.2 Z M 180.2 24.9 C 180.2 25.5 180.4 25.9 180.6 26.2 C 180.9 26.5 181.2 26.7 181.5 26.7 C 181.9 26.7 182.1 26.5 182.4 26.2 C 182.6 26 182.8 25.5 182.8 24.9 C 182.8 24.3 182.6 23.8 182.4 23.5 C 182.1 23.2 181.8 23.1 181.5 23.1 C 181.1 23.1 180.8 23.2 180.6 23.5 C 180.4 23.8 180.2 24.3 180.2 24.9 Z M 184.4 24.9 C 184.4 24 184.7 23.4 185.1 23 C 185.5 22.6 186 22.4 186.6 22.4 C 187.3 22.4 187.8 22.6 188.2 23.1 C 188.6 23.5 188.8 24.1 188.8 24.8 C 188.8 25.4 188.7 25.9 188.5 26.2 C 188.3 26.6 188.1 26.8 187.7 27 C 187.4 27.2 187 27.3 186.6 27.3 C 186 27.3 185.4 27.1 185 26.7 C 184.6 26.3 184.4 25.7 184.4 24.9 Z M 185.2 24.9 C 185.2 25.5 185.4 25.9 185.6 26.2 C 185.9 26.5 186.2 26.7 186.6 26.7 C 187 26.7 187.3 26.5 187.6 26.2 C 187.9 25.9 188 25.5 188 24.8 C 188 24.3 187.8 23.8 187.6 23.5 C 187.3 23.2 187 23.1 186.6 23.1 C 186.2 23.1 185.9 23.2 185.6 23.5 C 185.4 23.8 185.2 24.3 185.2 24.9 Z M 192.4 27.2 L 192.4 23.2 L 191.7 23.2 L 191.7 22.5 L 192.4 22.5 C 192.4 22.5 192.41 22.04 192.4 22 C 192.4 21.7 192.4 21.5 192.5 21.3 C 192.6 21.1 192.7 21 192.9 20.8 C 193.1 20.7 193.4 20.7 193.7 20.7 C 193.9 20.7 194.2 20.7 194.4 20.7 C 194.4 20.7 194.3 21.4 194.3 21.4 C 194.2 21.4 194 21.4 193.9 21.4 C 193.6 21.4 193.4 21.4 193.3 21.5 C 193.2 21.6 193.2 21.8 193.2 22.1 C 193.2 22.11 193.2 22.5 193.2 22.5 L 194.1 22.5 L 194.1 23.2 L 193.2 23.2 L 193.2 27.2 L 192.4 27.2 Z M 194.4 24.9 C 194.4 24 194.7 23.4 195.1 23 C 195.5 22.6 196 22.4 196.6 22.4 C 197.3 22.4 197.8 22.6 198.2 23.1 C 198.6 23.5 198.8 24.1 198.8 24.8 C 198.8 25.4 198.7 25.9 198.5 26.2 C 198.3 26.6 198.1 26.8 197.7 27 C 197.4 27.2 197 27.3 196.6 27.3 C 196 27.3 195.4 27.1 195 26.7 C 194.6 26.3 194.4 25.7 194.4 24.9 Z M 195.2 24.9 C 195.2 25.5 195.4 25.9 195.6 26.2 C 195.9 26.5 196.2 26.7 196.6 26.7 C 197 26.7 197.3 26.5 197.6 26.2 C 197.9 25.9 198 25.5 198 24.8 C 198 24.3 197.9 23.8 197.6 23.5 C 197.3 23.2 197 23.1 196.6 23.1 C 196.2 23.1 195.9 23.2 195.6 23.5 C 195.4 23.8 195.2 24.3 195.2 24.9 Z M 199.7 27.2 L 199.7 22.5 L 200.4 22.5 C 200.4 22.5 200.43 23.25 200.4 23.2 C 200.6 22.9 200.8 22.7 200.9 22.6 C 201.1 22.5 201.3 22.4 201.4 22.4 C 201.7 22.4 202 22.5 202.3 22.7 C 202.3 22.7 202 23.4 202 23.4 C 201.8 23.3 201.6 23.3 201.4 23.3 C 201.2 23.3 201.1 23.3 200.9 23.4 C 200.8 23.5 200.7 23.7 200.6 23.8 C 200.6 24.1 200.5 24.4 200.5 24.8 C 200.51 24.76 200.5 27.2 200.5 27.2 L 199.7 27.2 Z M 205.7 29.1 C 205.5 29.1 205.4 29.1 205.2 29 C 205.2 29 205.1 28.3 205.1 28.3 C 205.3 28.3 205.4 28.3 205.6 28.3 C 205.7 28.3 205.9 28.3 206 28.2 C 206.1 28.2 206.2 28.1 206.2 28 C 206.3 27.9 206.4 27.7 206.5 27.4 C 206.5 27.4 206.5 27.3 206.5 27.2 C 206.55 27.21 204.8 22.5 204.8 22.5 L 205.6 22.5 C 205.6 22.5 206.6 25.24 206.6 25.2 C 206.7 25.6 206.8 25.9 206.9 26.3 C 207 26 207.1 25.6 207.3 25.3 C 207.26 25.26 208.3 22.5 208.3 22.5 L 209.1 22.5 C 209.1 22.5 207.28 27.28 207.3 27.3 C 207.1 27.8 206.9 28.2 206.8 28.3 C 206.7 28.6 206.5 28.8 206.3 28.9 C 206.2 29 206 29.1 205.7 29.1 C 205.7 29.1 205.7 29.1 205.7 29.1 Z M 209.4 24.9 C 209.4 24 209.7 23.4 210.2 23 C 210.6 22.6 211 22.4 211.6 22.4 C 212.3 22.4 212.8 22.6 213.2 23.1 C 213.6 23.5 213.8 24.1 213.8 24.8 C 213.8 25.4 213.7 25.9 213.5 26.2 C 213.4 26.6 213.1 26.8 212.7 27 C 212.4 27.2 212 27.3 211.6 27.3 C 211 27.3 210.4 27.1 210 26.7 C 209.6 26.3 209.4 25.7 209.4 24.9 Z M 210.2 24.9 C 210.2 25.5 210.4 25.9 210.6 26.2 C 210.9 26.5 211.2 26.7 211.6 26.7 C 212 26.7 212.3 26.5 212.6 26.2 C 212.9 25.9 213 25.5 213 24.8 C 213 24.3 212.9 23.8 212.6 23.5 C 212.3 23.2 212 23.1 211.6 23.1 C 211.2 23.1 210.9 23.2 210.6 23.5 C 210.4 23.8 210.2 24.3 210.2 24.9 Z M 217.8 27.2 C 217.8 27.2 217.79 26.52 217.8 26.5 C 217.4 27 216.9 27.3 216.3 27.3 C 216 27.3 215.8 27.3 215.5 27.2 C 215.3 27 215.1 26.9 215 26.8 C 214.9 26.6 214.8 26.4 214.8 26.2 C 214.7 26 214.7 25.8 214.7 25.4 C 214.71 25.43 214.7 22.5 214.7 22.5 L 215.5 22.5 C 215.5 22.5 215.5 25.13 215.5 25.1 C 215.5 25.5 215.5 25.8 215.6 26 C 215.6 26.2 215.7 26.3 215.9 26.5 C 216 26.6 216.2 26.6 216.5 26.6 C 216.7 26.6 216.9 26.6 217.1 26.4 C 217.3 26.3 217.5 26.2 217.6 26 C 217.7 25.7 217.7 25.4 217.7 25 C 217.71 25.04 217.7 22.5 217.7 22.5 L 218.5 22.5 L 218.5 27.2 L 217.8 27.2 Z M 220 27.2 L 220 26.3 L 220.9 26.3 L 220.9 27.2 L 220 27.2 Z " stroke="none" fill="#010102"/>  </g>  <g id="Polygon737">    <path d="M 7.7 2.6 C 7.7 2.6 7.7 3.5 7.7 3.5 C 6.8 3 5.9 2.8 4.9 2.8 C 2.8 2.8 1.5 4.3 1.5 6.1 C 1.5 8 2.8 9.5 4.9 9.5 C 5.9 9.5 6.9 9.2 7.7 8.6 C 7.7 8.6 7.7 9.6 7.7 9.6 C 6.8 10.1 5.9 10.3 4.9 10.3 C 2 10.3 0.6 8.2 0.6 6.1 C 0.6 3.7 2.4 1.9 4.9 1.9 C 5.8 1.9 6.8 2.1 7.7 2.6 Z M 12.6 2 L 16.3 10.2 L 15.3 10.2 L 14.2 7.6 L 10.5 7.6 L 9.4 10.2 L 8.4 10.2 L 12 2 L 12.6 2 Z M 10.8 6.8 L 13.8 6.8 L 12.3 3.4 L 10.8 6.8 Z M 21.2 2.4 C 21.2 2.4 21.2 3.5 21.2 3.5 C 20.6 3 20 2.7 19.3 2.7 C 18.5 2.7 17.9 3.2 17.9 3.9 C 17.9 4.5 18 4.9 19.4 5.6 C 21.1 6.5 21.5 7.1 21.5 8.2 C 21.5 9.4 20.6 10.3 19.2 10.3 C 18.4 10.3 17.7 10.1 17 9.6 C 17 9.6 17 8.5 17 8.5 C 17.7 9.1 18.4 9.5 19.2 9.5 C 20 9.5 20.6 9 20.6 8.2 C 20.6 7.5 20.4 7.1 18.8 6.3 C 17.5 5.6 17 5 17 3.9 C 17 2.8 18 1.9 19.4 1.9 C 20 1.9 20.6 2.1 21.2 2.4 Z M 27.4 2 L 27.4 2.8 L 23.8 2.8 L 23.8 5.7 L 27.3 5.7 L 27.3 6.5 L 23.8 6.5 L 23.8 9.4 L 27.5 9.4 L 27.5 10.2 L 22.9 10.2 L 22.9 2 L 27.4 2 Z M 36.1 2.4 C 36.1 2.4 36.1 3.5 36.1 3.5 C 35.5 3 34.9 2.7 34.2 2.7 C 33.3 2.7 32.8 3.2 32.8 3.9 C 32.8 4.5 32.9 4.9 34.3 5.6 C 36 6.5 36.4 7.1 36.4 8.2 C 36.4 9.4 35.4 10.3 34 10.3 C 33.3 10.3 32.5 10.1 31.9 9.6 C 31.9 9.6 31.9 8.5 31.9 8.5 C 32.5 9.1 33.2 9.5 34 9.5 C 34.9 9.5 35.5 9 35.5 8.2 C 35.5 7.5 35.2 7.1 33.6 6.3 C 32.4 5.6 31.9 5 31.9 3.9 C 31.9 2.8 32.9 1.9 34.2 1.9 C 34.9 1.9 35.5 2.1 36.1 2.4 Z M 43.8 2 L 43.8 2.8 L 40.8 2.8 L 40.8 10.2 L 39.9 10.2 L 39.9 2.8 L 37 2.8 L 37 2 L 43.8 2 Z M 45.6 2 C 45.6 2 45.65 6.74 45.6 6.7 C 45.6 8.5 46.5 9.5 48.2 9.5 C 49.9 9.5 50.7 8.5 50.7 6.7 C 50.71 6.74 50.7 2 50.7 2 L 51.6 2 C 51.6 2 51.61 6.74 51.6 6.7 C 51.6 8.9 50.5 10.3 48.2 10.3 C 45.9 10.3 44.7 9 44.7 6.7 C 44.75 6.74 44.7 2 44.7 2 L 45.6 2 Z M 53.4 2 C 53.4 2 56.36 2.02 56.4 2 C 59 2 60.8 3.7 60.8 6 C 60.8 8.6 59 10.2 56.4 10.2 C 56.36 10.21 53.4 10.2 53.4 10.2 L 53.4 2 Z M 56.4 9.4 C 58.5 9.4 59.8 8.1 59.8 6.1 C 59.8 4.1 58.5 2.8 56.2 2.8 C 56.22 2.83 54.3 2.8 54.3 2.8 L 54.3 9.4 C 54.3 9.4 56.35 9.39 56.4 9.4 Z M 63.2 2 L 63.2 10.2 L 62.3 10.2 L 62.3 2 L 63.2 2 Z M 69.5 2 L 69.5 2.8 L 65.9 2.8 L 65.9 5.7 L 69.4 5.7 L 69.4 6.5 L 65.9 6.5 L 65.9 9.4 L 69.6 9.4 L 69.6 10.2 L 65 10.2 L 65 2 L 69.5 2 Z M 74.8 2.4 C 74.8 2.4 74.8 3.5 74.8 3.5 C 74.3 3 73.6 2.7 73 2.7 C 72.1 2.7 71.5 3.2 71.5 3.9 C 71.5 4.5 71.7 4.9 73 5.6 C 74.7 6.5 75.1 7.1 75.1 8.2 C 75.1 9.4 74.2 10.3 72.8 10.3 C 72 10.3 71.3 10.1 70.7 9.6 C 70.7 9.6 70.7 8.5 70.7 8.5 C 71.3 9.1 72 9.5 72.8 9.5 C 73.6 9.5 74.2 9 74.2 8.2 C 74.2 7.5 74 7.1 72.4 6.3 C 71.1 5.6 70.6 5 70.6 3.9 C 70.6 2.8 71.6 1.9 73 1.9 C 73.6 1.9 74.3 2.1 74.8 2.4 Z " stroke="none" fill="#010102"/>  </g></svg>