<?xml version="1.0" standalone="no"?><!DOCTYPE svg PUBLIC "-//W3C//DTD SVG 1.1//EN" "http://www.w3.org/Graphics/SVG/1.1/DTD/svg11.dtd"><svg xmlns="http://www.w3.org/2000/svg" version="1.1" width="247px" height="36.7px" viewBox="0 -4 247 36.7" style="top:-4px">  <desc>Client Feedback View our latest survey results.</desc>  <defs/>  <g id="Polygon792">    <path d="M 2.3 27.2 L 0 21.5 L 0.9 21.5 C 0.9 21.5 2.34 25.64 2.3 25.6 C 2.5 26 2.6 26.3 2.6 26.6 C 2.7 26.3 2.8 26 3 25.6 C 2.95 25.64 4.5 21.5 4.5 21.5 L 5.3 21.5 L 3 27.2 L 2.3 27.2 Z M 5.7 22.3 L 5.7 21.5 L 6.4 21.5 L 6.4 22.3 L 5.7 22.3 Z M 5.7 27.2 L 5.7 23.1 L 6.4 23.1 L 6.4 27.2 L 5.7 27.2 Z M 10.3 25.9 C 10.3 25.9 11.1 26 11.1 26 C 10.9 26.4 10.7 26.7 10.4 26.9 C 10.1 27.2 9.7 27.3 9.2 27.3 C 8.6 27.3 8.2 27.1 7.8 26.7 C 7.4 26.4 7.3 25.8 7.3 25.2 C 7.3 24.5 7.4 23.9 7.8 23.5 C 8.2 23.2 8.6 23 9.2 23 C 9.8 23 10.2 23.2 10.6 23.5 C 10.9 23.9 11.1 24.4 11.1 25.1 C 11.1 25.2 11.1 25.2 11.1 25.3 C 11.1 25.3 8 25.3 8 25.3 C 8 25.8 8.1 26.1 8.4 26.4 C 8.6 26.6 8.9 26.7 9.2 26.7 C 9.5 26.7 9.7 26.7 9.9 26.5 C 10.1 26.4 10.2 26.2 10.3 25.9 Z M 8 24.7 C 8 24.7 10.3 24.7 10.3 24.7 C 10.3 24.4 10.2 24.1 10.1 23.9 C 9.9 23.7 9.6 23.5 9.2 23.5 C 8.9 23.5 8.6 23.6 8.4 23.9 C 8.2 24.1 8.1 24.4 8 24.7 Z M 12.7 27.2 L 11.4 23.1 L 12.2 23.1 L 12.8 25.5 C 12.8 25.5 13.07 26.34 13.1 26.3 C 13.1 26.3 13.2 26 13.3 25.5 C 13.29 25.49 13.9 23.1 13.9 23.1 L 14.7 23.1 L 15.3 25.5 L 15.5 26.3 L 15.7 25.5 L 16.4 23.1 L 17.1 23.1 L 15.8 27.2 L 15.1 27.2 L 14.4 24.7 L 14.3 24 L 13.4 27.2 L 12.7 27.2 Z M 19.7 25.1 C 19.7 24.4 19.9 23.8 20.3 23.4 C 20.7 23.1 21.1 23 21.6 23 C 22.2 23 22.7 23.2 23 23.5 C 23.4 23.9 23.6 24.4 23.6 25.1 C 23.6 25.6 23.5 26 23.3 26.3 C 23.2 26.6 22.9 26.9 22.6 27 C 22.3 27.2 22 27.3 21.6 27.3 C 21 27.3 20.6 27.1 20.2 26.7 C 19.9 26.4 19.7 25.8 19.7 25.1 Z M 20.4 25.1 C 20.4 25.7 20.5 26.1 20.8 26.3 C 21 26.6 21.3 26.7 21.6 26.7 C 22 26.7 22.3 26.6 22.5 26.3 C 22.7 26.1 22.8 25.7 22.8 25.1 C 22.8 24.6 22.7 24.2 22.5 23.9 C 22.3 23.7 22 23.5 21.6 23.5 C 21.3 23.5 21 23.7 20.8 23.9 C 20.5 24.2 20.4 24.6 20.4 25.1 Z M 27.1 27.2 C 27.1 27.2 27.11 26.6 27.1 26.6 C 26.8 27.1 26.4 27.3 25.8 27.3 C 25.6 27.3 25.3 27.3 25.1 27.2 C 24.9 27.1 24.7 26.9 24.6 26.8 C 24.5 26.7 24.5 26.5 24.4 26.3 C 24.4 26.1 24.4 25.9 24.4 25.6 C 24.38 25.63 24.4 23.1 24.4 23.1 L 25.1 23.1 C 25.1 23.1 25.08 25.36 25.1 25.4 C 25.1 25.7 25.1 26 25.1 26.1 C 25.2 26.3 25.3 26.4 25.4 26.5 C 25.5 26.6 25.7 26.7 25.9 26.7 C 26.1 26.7 26.3 26.6 26.5 26.5 C 26.7 26.4 26.8 26.3 26.9 26.1 C 27 25.9 27 25.6 27 25.3 C 27.04 25.28 27 23.1 27 23.1 L 27.7 23.1 L 27.7 27.2 L 27.1 27.2 Z M 28.8 27.2 L 28.8 23.1 L 29.5 23.1 C 29.5 23.1 29.47 23.69 29.5 23.7 C 29.6 23.4 29.8 23.2 29.9 23.1 C 30.1 23 30.2 23 30.4 23 C 30.6 23 30.8 23 31.1 23.2 C 31.1 23.2 30.8 23.8 30.8 23.8 C 30.7 23.7 30.5 23.7 30.3 23.7 C 30.2 23.7 30 23.7 29.9 23.8 C 29.8 23.9 29.7 24 29.7 24.2 C 29.6 24.5 29.5 24.7 29.5 25 C 29.54 25.03 29.5 27.2 29.5 27.2 L 28.8 27.2 Z M 33.7 27.2 L 33.7 21.5 L 34.4 21.5 L 34.4 27.2 L 33.7 27.2 Z M 38.4 27.2 C 38.3 27.1 38.2 26.9 38.2 26.7 C 38 26.9 37.7 27.1 37.5 27.2 C 37.2 27.3 37 27.3 36.7 27.3 C 36.2 27.3 35.9 27.2 35.6 27 C 35.4 26.7 35.3 26.5 35.3 26.1 C 35.3 25.9 35.3 25.7 35.4 25.6 C 35.5 25.4 35.6 25.3 35.8 25.2 C 35.9 25 36.1 25 36.3 24.9 C 36.4 24.9 36.6 24.8 36.9 24.8 C 37.5 24.7 37.9 24.7 38.2 24.6 C 38.2 24.5 38.2 24.4 38.2 24.4 C 38.2 24.1 38.1 23.9 38 23.8 C 37.8 23.6 37.5 23.5 37.2 23.5 C 36.8 23.5 36.6 23.6 36.4 23.7 C 36.3 23.8 36.2 24 36.1 24.3 C 36.1 24.3 35.4 24.2 35.4 24.2 C 35.5 23.9 35.6 23.7 35.7 23.5 C 35.8 23.3 36 23.2 36.3 23.1 C 36.6 23 36.9 23 37.3 23 C 37.6 23 37.9 23 38.1 23.1 C 38.3 23.2 38.5 23.3 38.6 23.4 C 38.7 23.5 38.8 23.7 38.8 23.9 C 38.9 24 38.9 24.2 38.9 24.5 C 38.9 24.5 38.9 25.5 38.9 25.5 C 38.9 26.1 38.9 26.5 38.9 26.7 C 38.9 26.9 39 27 39.1 27.2 C 39.09 27.21 38.4 27.2 38.4 27.2 C 38.4 27.2 38.36 27.21 38.4 27.2 Z M 38.2 25.1 C 37.9 25.2 37.5 25.3 37 25.4 C 36.7 25.4 36.5 25.5 36.4 25.5 C 36.3 25.6 36.2 25.7 36.1 25.8 C 36.1 25.9 36 26 36 26.1 C 36 26.3 36.1 26.4 36.2 26.6 C 36.4 26.7 36.6 26.7 36.9 26.7 C 37.1 26.7 37.4 26.7 37.6 26.6 C 37.8 26.5 37.9 26.3 38 26.1 C 38.1 25.9 38.2 25.7 38.2 25.4 C 38.2 25.4 38.2 25.1 38.2 25.1 Z M 41.2 26.6 C 41.3 26.6 41.4 26.6 41.5 26.6 C 41.5 26.6 41.6 27.2 41.6 27.2 C 41.4 27.2 41.2 27.3 41.1 27.3 C 40.8 27.3 40.6 27.2 40.5 27.1 C 40.3 27.1 40.2 27 40.2 26.8 C 40.1 26.7 40.1 26.4 40.1 26 C 40.09 25.99 40.1 23.6 40.1 23.6 L 39.6 23.6 L 39.6 23.1 L 40.1 23.1 L 40.1 22 L 40.8 21.6 L 40.8 23.1 L 41.5 23.1 L 41.5 23.6 L 40.8 23.6 C 40.8 23.6 40.79 26.03 40.8 26 C 40.8 26.2 40.8 26.4 40.8 26.4 C 40.8 26.5 40.9 26.5 40.9 26.6 C 41 26.6 41.1 26.6 41.2 26.6 C 41.2 26.6 41.2 26.6 41.2 26.6 Z M 45 25.9 C 45 25.9 45.7 26 45.7 26 C 45.6 26.4 45.4 26.7 45.1 26.9 C 44.8 27.2 44.4 27.3 43.9 27.3 C 43.3 27.3 42.8 27.1 42.5 26.7 C 42.1 26.4 41.9 25.8 41.9 25.2 C 41.9 24.5 42.1 23.9 42.5 23.5 C 42.8 23.2 43.3 23 43.9 23 C 44.4 23 44.9 23.2 45.2 23.5 C 45.6 23.9 45.8 24.4 45.8 25.1 C 45.8 25.2 45.8 25.2 45.8 25.3 C 45.8 25.3 42.7 25.3 42.7 25.3 C 42.7 25.8 42.8 26.1 43.1 26.4 C 43.3 26.6 43.6 26.7 43.9 26.7 C 44.2 26.7 44.4 26.7 44.6 26.5 C 44.8 26.4 44.9 26.2 45 25.9 Z M 42.7 24.7 C 42.7 24.7 45 24.7 45 24.7 C 45 24.4 44.9 24.1 44.8 23.9 C 44.5 23.7 44.2 23.5 43.9 23.5 C 43.6 23.5 43.3 23.6 43.1 23.9 C 42.9 24.1 42.7 24.4 42.7 24.7 Z M 46.3 26 C 46.3 26 47 25.9 47 25.9 C 47.1 26.1 47.2 26.4 47.4 26.5 C 47.5 26.6 47.8 26.7 48.1 26.7 C 48.4 26.7 48.7 26.7 48.8 26.5 C 49 26.4 49.1 26.2 49.1 26.1 C 49.1 25.9 49 25.8 48.9 25.7 C 48.8 25.6 48.5 25.5 48.1 25.4 C 47.6 25.3 47.3 25.2 47.1 25.1 C 46.9 25 46.7 24.9 46.6 24.7 C 46.5 24.5 46.5 24.4 46.5 24.2 C 46.5 24 46.5 23.8 46.6 23.6 C 46.7 23.5 46.8 23.4 46.9 23.3 C 47 23.2 47.2 23.1 47.4 23 C 47.6 23 47.8 23 48 23 C 48.3 23 48.6 23 48.8 23.1 C 49.1 23.2 49.3 23.3 49.4 23.5 C 49.5 23.6 49.6 23.9 49.6 24.1 C 49.6 24.1 48.9 24.2 48.9 24.2 C 48.9 24 48.8 23.8 48.7 23.7 C 48.5 23.6 48.3 23.5 48 23.5 C 47.7 23.5 47.5 23.6 47.4 23.7 C 47.2 23.8 47.1 23.9 47.1 24.1 C 47.1 24.2 47.2 24.3 47.2 24.3 C 47.3 24.4 47.4 24.5 47.5 24.5 C 47.6 24.5 47.8 24.6 48.1 24.7 C 48.6 24.8 49 24.9 49.2 25 C 49.4 25.1 49.5 25.2 49.6 25.4 C 49.7 25.5 49.8 25.7 49.8 26 C 49.8 26.2 49.7 26.4 49.6 26.6 C 49.5 26.9 49.3 27 49 27.1 C 48.7 27.2 48.4 27.3 48.1 27.3 C 47.6 27.3 47.2 27.2 46.9 27 C 46.6 26.7 46.4 26.4 46.3 26 Z M 51.9 26.6 C 51.9 26.6 52 26.6 52.2 26.6 C 52.2 26.6 52.3 27.2 52.3 27.2 C 52.1 27.2 51.9 27.3 51.7 27.3 C 51.5 27.3 51.3 27.2 51.1 27.1 C 51 27.1 50.9 27 50.8 26.8 C 50.8 26.7 50.8 26.4 50.8 26 C 50.76 25.99 50.8 23.6 50.8 23.6 L 50.2 23.6 L 50.2 23.1 L 50.8 23.1 L 50.8 22 L 51.5 21.6 L 51.5 23.1 L 52.2 23.1 L 52.2 23.6 L 51.5 23.6 C 51.5 23.6 51.46 26.03 51.5 26 C 51.5 26.2 51.5 26.4 51.5 26.4 C 51.5 26.5 51.6 26.5 51.6 26.6 C 51.7 26.6 51.8 26.6 51.9 26.6 C 51.9 26.6 51.9 26.6 51.9 26.6 Z M 54.8 26 C 54.8 26 55.5 25.9 55.5 25.9 C 55.5 26.1 55.6 26.4 55.8 26.5 C 56 26.6 56.2 26.7 56.6 26.7 C 56.9 26.7 57.1 26.7 57.3 26.5 C 57.4 26.4 57.5 26.2 57.5 26.1 C 57.5 25.9 57.4 25.8 57.3 25.7 C 57.2 25.6 57 25.5 56.6 25.4 C 56.1 25.3 55.7 25.2 55.5 25.1 C 55.3 25 55.2 24.9 55.1 24.7 C 55 24.5 54.9 24.4 54.9 24.2 C 54.9 24 55 23.8 55 23.6 C 55.1 23.5 55.2 23.4 55.4 23.3 C 55.5 23.2 55.6 23.1 55.8 23 C 56 23 56.2 23 56.4 23 C 56.8 23 57 23 57.3 23.1 C 57.5 23.2 57.7 23.3 57.8 23.5 C 58 23.6 58 23.9 58.1 24.1 C 58.1 24.1 57.4 24.2 57.4 24.2 C 57.4 24 57.3 23.8 57.1 23.7 C 57 23.6 56.8 23.5 56.5 23.5 C 56.2 23.5 55.9 23.6 55.8 23.7 C 55.7 23.8 55.6 23.9 55.6 24.1 C 55.6 24.2 55.6 24.3 55.7 24.3 C 55.7 24.4 55.8 24.5 55.9 24.5 C 56 24.5 56.2 24.6 56.6 24.7 C 57.1 24.8 57.4 24.9 57.6 25 C 57.8 25.1 58 25.2 58.1 25.4 C 58.2 25.5 58.2 25.7 58.2 26 C 58.2 26.2 58.2 26.4 58 26.6 C 57.9 26.9 57.7 27 57.4 27.1 C 57.2 27.2 56.9 27.3 56.6 27.3 C 56 27.3 55.6 27.2 55.3 27 C 55.1 26.7 54.9 26.4 54.8 26 Z M 61.8 27.2 C 61.8 27.2 61.79 26.6 61.8 26.6 C 61.5 27.1 61 27.3 60.5 27.3 C 60.2 27.3 60 27.3 59.8 27.2 C 59.6 27.1 59.4 26.9 59.3 26.8 C 59.2 26.7 59.1 26.5 59.1 26.3 C 59.1 26.1 59.1 25.9 59.1 25.6 C 59.06 25.63 59.1 23.1 59.1 23.1 L 59.8 23.1 C 59.8 23.1 59.76 25.36 59.8 25.4 C 59.8 25.7 59.8 26 59.8 26.1 C 59.8 26.3 59.9 26.4 60.1 26.5 C 60.2 26.6 60.4 26.7 60.6 26.7 C 60.8 26.7 61 26.6 61.2 26.5 C 61.4 26.4 61.5 26.3 61.6 26.1 C 61.7 25.9 61.7 25.6 61.7 25.3 C 61.72 25.28 61.7 23.1 61.7 23.1 L 62.4 23.1 L 62.4 27.2 L 61.8 27.2 Z M 63.5 27.2 L 63.5 23.1 L 64.1 23.1 C 64.1 23.1 64.15 23.69 64.1 23.7 C 64.3 23.4 64.5 23.2 64.6 23.1 C 64.7 23 64.9 23 65 23 C 65.3 23 65.5 23 65.8 23.2 C 65.8 23.2 65.5 23.8 65.5 23.8 C 65.4 23.7 65.2 23.7 65 23.7 C 64.9 23.7 64.7 23.7 64.6 23.8 C 64.5 23.9 64.4 24 64.3 24.2 C 64.3 24.5 64.2 24.7 64.2 25 C 64.22 25.03 64.2 27.2 64.2 27.2 L 63.5 27.2 Z M 67.3 27.2 L 65.8 23.1 L 66.5 23.1 C 66.5 23.1 67.39 25.54 67.4 25.5 C 67.5 25.8 67.6 26.1 67.7 26.4 C 67.7 26.2 67.8 25.9 67.9 25.6 C 67.92 25.59 68.8 23.1 68.8 23.1 L 69.6 23.1 L 68 27.2 L 67.3 27.2 Z M 73 25.9 C 73 25.9 73.8 26 73.8 26 C 73.6 26.4 73.4 26.7 73.1 26.9 C 72.8 27.2 72.4 27.3 71.9 27.3 C 71.3 27.3 70.8 27.1 70.5 26.7 C 70.1 26.4 70 25.8 70 25.2 C 70 24.5 70.1 23.9 70.5 23.5 C 70.9 23.2 71.3 23 71.9 23 C 72.4 23 72.9 23.2 73.3 23.5 C 73.6 23.9 73.8 24.4 73.8 25.1 C 73.8 25.2 73.8 25.2 73.8 25.3 C 73.8 25.3 70.7 25.3 70.7 25.3 C 70.7 25.8 70.8 26.1 71.1 26.4 C 71.3 26.6 71.6 26.7 71.9 26.7 C 72.2 26.7 72.4 26.7 72.6 26.5 C 72.8 26.4 72.9 26.2 73 25.9 Z M 70.7 24.7 C 70.7 24.7 73 24.7 73 24.7 C 73 24.4 72.9 24.1 72.8 23.9 C 72.5 23.7 72.3 23.5 71.9 23.5 C 71.6 23.5 71.3 23.6 71.1 23.9 C 70.9 24.1 70.7 24.4 70.7 24.7 Z M 75.1 28.9 C 74.9 28.9 74.8 28.9 74.6 28.8 C 74.6 28.8 74.5 28.1 74.5 28.1 C 74.7 28.2 74.8 28.2 74.9 28.2 C 75.1 28.2 75.2 28.2 75.3 28.1 C 75.4 28.1 75.5 28 75.5 27.9 C 75.6 27.8 75.7 27.7 75.8 27.4 C 75.8 27.3 75.8 27.3 75.8 27.2 C 75.81 27.21 74.2 23.1 74.2 23.1 L 75 23.1 C 75 23.1 75.86 25.46 75.9 25.5 C 76 25.8 76.1 26.1 76.2 26.4 C 76.2 26.1 76.3 25.8 76.4 25.5 C 76.45 25.48 77.3 23.1 77.3 23.1 L 78 23.1 C 78 23.1 76.46 27.28 76.5 27.3 C 76.3 27.7 76.2 28 76.1 28.2 C 75.9 28.4 75.8 28.6 75.6 28.7 C 75.5 28.8 75.3 28.9 75.1 28.9 C 75.1 28.9 75.1 28.9 75.1 28.9 Z M 80.9 27.2 L 80.9 23.1 L 81.5 23.1 C 81.5 23.1 81.48 23.69 81.5 23.7 C 81.6 23.4 81.8 23.2 81.9 23.1 C 82.1 23 82.2 23 82.4 23 C 82.6 23 82.9 23 83.1 23.2 C 83.1 23.2 82.9 23.8 82.9 23.8 C 82.7 23.7 82.5 23.7 82.3 23.7 C 82.2 23.7 82.1 23.7 81.9 23.8 C 81.8 23.9 81.7 24 81.7 24.2 C 81.6 24.5 81.6 24.7 81.6 25 C 81.55 25.03 81.6 27.2 81.6 27.2 L 80.9 27.2 Z M 86.4 25.9 C 86.4 25.9 87.1 26 87.1 26 C 87 26.4 86.8 26.7 86.5 26.9 C 86.1 27.2 85.7 27.3 85.3 27.3 C 84.7 27.3 84.2 27.1 83.8 26.7 C 83.5 26.4 83.3 25.8 83.3 25.2 C 83.3 24.5 83.5 23.9 83.8 23.5 C 84.2 23.2 84.7 23 85.2 23 C 85.8 23 86.2 23.2 86.6 23.5 C 86.9 23.9 87.1 24.4 87.1 25.1 C 87.1 25.2 87.1 25.2 87.1 25.3 C 87.1 25.3 84 25.3 84 25.3 C 84 25.8 84.2 26.1 84.4 26.4 C 84.6 26.6 84.9 26.7 85.3 26.7 C 85.5 26.7 85.7 26.7 85.9 26.5 C 86.1 26.4 86.3 26.2 86.4 25.9 Z M 84.1 24.7 C 84.1 24.7 86.4 24.7 86.4 24.7 C 86.3 24.4 86.3 24.1 86.1 23.9 C 85.9 23.7 85.6 23.5 85.2 23.5 C 84.9 23.5 84.6 23.6 84.4 23.9 C 84.2 24.1 84.1 24.4 84.1 24.7 Z M 87.7 26 C 87.7 26 88.4 25.9 88.4 25.9 C 88.4 26.1 88.5 26.4 88.7 26.5 C 88.9 26.6 89.1 26.7 89.5 26.7 C 89.8 26.7 90 26.7 90.2 26.5 C 90.3 26.4 90.4 26.2 90.4 26.1 C 90.4 25.9 90.3 25.8 90.2 25.7 C 90.1 25.6 89.9 25.5 89.5 25.4 C 89 25.3 88.6 25.2 88.4 25.1 C 88.2 25 88.1 24.9 88 24.7 C 87.9 24.5 87.8 24.4 87.8 24.2 C 87.8 24 87.9 23.8 87.9 23.6 C 88 23.5 88.1 23.4 88.3 23.3 C 88.4 23.2 88.5 23.1 88.7 23 C 88.9 23 89.1 23 89.3 23 C 89.7 23 89.9 23 90.2 23.1 C 90.4 23.2 90.6 23.3 90.7 23.5 C 90.9 23.6 90.9 23.9 91 24.1 C 91 24.1 90.3 24.2 90.3 24.2 C 90.3 24 90.2 23.8 90 23.7 C 89.9 23.6 89.7 23.5 89.4 23.5 C 89.1 23.5 88.8 23.6 88.7 23.7 C 88.6 23.8 88.5 23.9 88.5 24.1 C 88.5 24.2 88.5 24.3 88.6 24.3 C 88.6 24.4 88.7 24.5 88.8 24.5 C 88.9 24.5 89.1 24.6 89.5 24.7 C 90 24.8 90.3 24.9 90.5 25 C 90.7 25.1 90.9 25.2 91 25.4 C 91.1 25.5 91.1 25.7 91.1 26 C 91.1 26.2 91.1 26.4 90.9 26.6 C 90.8 26.9 90.6 27 90.3 27.1 C 90.1 27.2 89.8 27.3 89.5 27.3 C 88.9 27.3 88.5 27.2 88.2 27 C 87.9 26.7 87.8 26.4 87.7 26 Z M 94.7 27.2 C 94.7 27.2 94.69 26.6 94.7 26.6 C 94.4 27.1 93.9 27.3 93.4 27.3 C 93.1 27.3 92.9 27.3 92.7 27.2 C 92.5 27.1 92.3 26.9 92.2 26.8 C 92.1 26.7 92 26.5 92 26.3 C 92 26.1 92 25.9 92 25.6 C 91.96 25.63 92 23.1 92 23.1 L 92.7 23.1 C 92.7 23.1 92.66 25.36 92.7 25.4 C 92.7 25.7 92.7 26 92.7 26.1 C 92.7 26.3 92.8 26.4 93 26.5 C 93.1 26.6 93.3 26.7 93.5 26.7 C 93.7 26.7 93.9 26.6 94.1 26.5 C 94.3 26.4 94.4 26.3 94.5 26.1 C 94.6 25.9 94.6 25.6 94.6 25.3 C 94.62 25.28 94.6 23.1 94.6 23.1 L 95.3 23.1 L 95.3 27.2 L 94.7 27.2 Z M 96.4 27.2 L 96.4 21.5 L 97.1 21.5 L 97.1 27.2 L 96.4 27.2 Z M 99.4 26.6 C 99.5 26.6 99.6 26.6 99.7 26.6 C 99.7 26.6 99.8 27.2 99.8 27.2 C 99.6 27.2 99.5 27.3 99.3 27.3 C 99 27.3 98.9 27.2 98.7 27.1 C 98.6 27.1 98.5 27 98.4 26.8 C 98.4 26.7 98.3 26.4 98.3 26 C 98.33 25.99 98.3 23.6 98.3 23.6 L 97.8 23.6 L 97.8 23.1 L 98.3 23.1 L 98.3 22 L 99 21.6 L 99 23.1 L 99.7 23.1 L 99.7 23.6 L 99 23.6 C 99 23.6 99.03 26.03 99 26 C 99 26.2 99 26.4 99.1 26.4 C 99.1 26.5 99.1 26.5 99.2 26.6 C 99.2 26.6 99.3 26.6 99.4 26.6 C 99.4 26.6 99.4 26.6 99.4 26.6 Z M 100.1 26 C 100.1 26 100.8 25.9 100.8 25.9 C 100.9 26.1 101 26.4 101.2 26.5 C 101.3 26.6 101.6 26.7 101.9 26.7 C 102.2 26.7 102.5 26.7 102.6 26.5 C 102.8 26.4 102.9 26.2 102.9 26.1 C 102.9 25.9 102.8 25.8 102.7 25.7 C 102.6 25.6 102.3 25.5 101.9 25.4 C 101.4 25.3 101.1 25.2 100.9 25.1 C 100.7 25 100.5 24.9 100.4 24.7 C 100.3 24.5 100.3 24.4 100.3 24.2 C 100.3 24 100.3 23.8 100.4 23.6 C 100.5 23.5 100.6 23.4 100.7 23.3 C 100.8 23.2 101 23.1 101.2 23 C 101.4 23 101.6 23 101.8 23 C 102.1 23 102.4 23 102.6 23.1 C 102.9 23.2 103.1 23.3 103.2 23.5 C 103.3 23.6 103.4 23.9 103.4 24.1 C 103.4 24.1 102.7 24.2 102.7 24.2 C 102.7 24 102.6 23.8 102.5 23.7 C 102.3 23.6 102.1 23.5 101.8 23.5 C 101.5 23.5 101.3 23.6 101.1 23.7 C 101 23.8 100.9 23.9 100.9 24.1 C 100.9 24.2 101 24.3 101 24.3 C 101.1 24.4 101.2 24.5 101.3 24.5 C 101.4 24.5 101.6 24.6 101.9 24.7 C 102.4 24.8 102.8 24.9 103 25 C 103.2 25.1 103.3 25.2 103.4 25.4 C 103.5 25.5 103.6 25.7 103.6 26 C 103.6 26.2 103.5 26.4 103.4 26.6 C 103.2 26.9 103 27 102.8 27.1 C 102.5 27.2 102.2 27.3 101.9 27.3 C 101.4 27.3 101 27.2 100.7 27 C 100.4 26.7 100.2 26.4 100.1 26 Z M 104.6 27.2 L 104.6 26.4 L 105.4 26.4 L 105.4 27.2 L 104.6 27.2 Z " stroke="none" fill="#010102"/>  </g>  <g id="Polygon791">    <path d="M 7.7 2.6 C 7.7 2.6 7.7 3.5 7.7 3.5 C 6.8 3 5.9 2.8 4.9 2.8 C 2.8 2.8 1.5 4.3 1.5 6.1 C 1.5 8 2.8 9.5 4.9 9.5 C 5.9 9.5 6.9 9.2 7.7 8.6 C 7.7 8.6 7.7 9.6 7.7 9.6 C 6.8 10.1 5.9 10.3 4.9 10.3 C 2 10.3 0.6 8.2 0.6 6.1 C 0.6 3.7 2.4 1.9 4.9 1.9 C 5.8 1.9 6.8 2.1 7.7 2.6 Z M 10.1 2 L 10.1 9.4 L 13.9 9.4 L 13.9 10.2 L 9.2 10.2 L 9.2 2 L 10.1 2 Z M 15.9 2 L 15.9 10.2 L 15 10.2 L 15 2 L 15.9 2 Z M 22.2 2 L 22.2 2.8 L 18.6 2.8 L 18.6 5.7 L 22 5.7 L 22 6.5 L 18.6 6.5 L 18.6 9.4 L 22.3 9.4 L 22.3 10.2 L 17.7 10.2 L 17.7 2 L 22.2 2 Z M 24.5 2 L 30.3 8.8 L 30.3 2 L 31.1 2 L 31.1 10.2 L 30.3 10.2 L 24.6 3.5 L 24.6 10.2 L 23.7 10.2 L 23.7 2 L 24.5 2 Z M 38.9 2 L 38.9 2.8 L 36 2.8 L 36 10.2 L 35.1 10.2 L 35.1 2.8 L 32.2 2.8 L 32.2 2 L 38.9 2 Z M 47.6 2 L 47.6 2.8 L 44.3 2.8 L 44.3 5.5 L 47.5 5.5 L 47.5 6.3 L 44.3 6.3 L 44.3 10.2 L 43.4 10.2 L 43.4 2 L 47.6 2 Z M 53.2 2 L 53.2 2.8 L 49.7 2.8 L 49.7 5.7 L 53.1 5.7 L 53.1 6.5 L 49.7 6.5 L 49.7 9.4 L 53.3 9.4 L 53.3 10.2 L 48.8 10.2 L 48.8 2 L 53.2 2 Z M 59.3 2 L 59.3 2.8 L 55.7 2.8 L 55.7 5.7 L 59.1 5.7 L 59.1 6.5 L 55.7 6.5 L 55.7 9.4 L 59.4 9.4 L 59.4 10.2 L 54.8 10.2 L 54.8 2 L 59.3 2 Z M 60.8 2 C 60.8 2 63.83 2.02 63.8 2 C 66.5 2 68.2 3.7 68.2 6 C 68.2 8.6 66.4 10.2 63.8 10.2 C 63.83 10.21 60.8 10.2 60.8 10.2 L 60.8 2 Z M 63.8 9.4 C 66 9.4 67.3 8.1 67.3 6.1 C 67.3 4.1 66 2.8 63.7 2.8 C 63.68 2.83 61.7 2.8 61.7 2.8 L 61.7 9.4 C 61.7 9.4 63.82 9.39 63.8 9.4 Z M 71.8 2 C 73.4 2 74.4 2.8 74.4 4.1 C 74.4 5 73.9 5.6 73 5.9 C 74.3 6.1 75.1 6.9 75.1 8 C 75.1 9.5 73.7 10.2 72.2 10.2 C 72.23 10.21 69.7 10.2 69.7 10.2 L 69.7 2 C 69.7 2 71.84 2.02 71.8 2 Z M 70.6 5.7 C 70.6 5.7 71.52 5.66 71.5 5.7 C 72.9 5.7 73.4 5 73.4 4.2 C 73.4 3.2 72.9 2.8 71.7 2.8 C 71.66 2.81 70.6 2.8 70.6 2.8 L 70.6 5.7 Z M 72.1 9.4 C 73.4 9.4 74.1 9 74.1 7.9 C 74.1 7 73.5 6.4 71.9 6.4 C 71.93 6.44 70.6 6.4 70.6 6.4 L 70.6 9.4 C 70.6 9.4 72.06 9.41 72.1 9.4 Z M 79.8 2 L 83.5 10.2 L 82.6 10.2 L 81.4 7.6 L 77.7 7.6 L 76.6 10.2 L 75.7 10.2 L 79.2 2 L 79.8 2 Z M 78 6.8 L 81 6.8 L 79.5 3.4 L 78 6.8 Z M 90.8 2.6 C 90.8 2.6 90.8 3.5 90.8 3.5 C 90 3 89 2.8 88 2.8 C 86 2.8 84.6 4.3 84.6 6.1 C 84.6 8 85.9 9.5 88 9.5 C 89.1 9.5 90 9.2 90.9 8.6 C 90.9 8.6 90.9 9.6 90.9 9.6 C 90 10.1 89 10.3 88 10.3 C 85.2 10.3 83.7 8.2 83.7 6.1 C 83.7 3.7 85.6 1.9 88 1.9 C 89 1.9 89.9 2.1 90.8 2.6 Z M 93.2 2 L 93.2 5.9 L 96.8 2 L 97.9 2 L 94.2 6 L 98.6 10.2 L 97.4 10.2 L 93.2 6.1 L 93.2 10.2 L 92.3 10.2 L 92.3 2 L 93.2 2 Z " stroke="none" fill="#010102"/>  </g></svg>