<?xml version="1.0" standalone="no"?><!DOCTYPE svg PUBLIC "-//W3C//DTD SVG 1.1//EN" "http://www.w3.org/Graphics/SVG/1.1/DTD/svg11.dtd"><svg xmlns="http://www.w3.org/2000/svg" version="1.1" width="264px" height="60.5px" viewBox="0 -5 264 60.5" style="top:-5px">  <desc>Case Studies Gain a better understanding on what we can do for you with real life examples.</desc>  <defs/>  <g id="Polygon1685">    <path d="M 1 48.3 L 1 42.9 L 0.1 42.9 L 0.1 42.1 L 1 42.1 C 1 42.1 1.04 41.43 1 41.4 C 1 41 1.1 40.7 1.2 40.5 C 1.3 40.2 1.4 40 1.7 39.8 C 1.9 39.7 2.3 39.6 2.8 39.6 C 3.1 39.6 3.4 39.6 3.8 39.7 C 3.8 39.7 3.6 40.6 3.6 40.6 C 3.4 40.6 3.2 40.5 3 40.5 C 2.7 40.5 2.4 40.6 2.3 40.7 C 2.2 40.9 2.1 41.1 2.1 41.5 C 2.09 41.51 2.1 42.1 2.1 42.1 L 3.3 42.1 L 3.3 42.9 L 2.1 42.9 L 2.1 48.3 L 1 48.3 Z M 3.7 45.2 C 3.7 44 4.1 43.2 4.7 42.6 C 5.2 42.2 5.9 41.9 6.7 41.9 C 7.5 41.9 8.2 42.2 8.7 42.8 C 9.3 43.3 9.6 44.1 9.6 45.1 C 9.6 45.9 9.4 46.5 9.2 47 C 9 47.5 8.6 47.8 8.2 48.1 C 7.7 48.3 7.2 48.5 6.7 48.5 C 5.8 48.5 5.1 48.2 4.5 47.6 C 4 47.1 3.7 46.2 3.7 45.2 Z M 4.8 45.2 C 4.8 46 5 46.6 5.3 47 C 5.7 47.4 6.1 47.6 6.7 47.6 C 7.2 47.6 7.6 47.4 8 47 C 8.3 46.6 8.5 46 8.5 45.2 C 8.5 44.4 8.3 43.8 8 43.4 C 7.6 43 7.2 42.8 6.7 42.8 C 6.1 42.8 5.7 43 5.3 43.4 C 5 43.8 4.8 44.4 4.8 45.2 Z M 10.8 48.3 L 10.8 42.1 L 11.7 42.1 C 11.7 42.1 11.74 43.03 11.7 43 C 12 42.6 12.2 42.3 12.4 42.2 C 12.6 42 12.8 41.9 13.1 41.9 C 13.4 41.9 13.8 42.1 14.2 42.3 C 14.2 42.3 13.8 43.3 13.8 43.3 C 13.5 43.1 13.3 43 13 43 C 12.8 43 12.6 43.1 12.4 43.2 C 12.2 43.4 12.1 43.6 12 43.8 C 11.9 44.2 11.8 44.6 11.8 45.1 C 11.84 45.05 11.8 48.3 11.8 48.3 L 10.8 48.3 Z M 18.8 50.8 C 18.6 50.8 18.3 50.8 18.1 50.7 C 18.1 50.7 18 49.7 18 49.7 C 18.2 49.8 18.4 49.8 18.6 49.8 C 18.8 49.8 19 49.8 19.1 49.7 C 19.3 49.6 19.4 49.5 19.5 49.4 C 19.5 49.3 19.7 49 19.8 48.6 C 19.8 48.5 19.8 48.4 19.9 48.3 C 19.89 48.32 17.5 42.1 17.5 42.1 L 18.7 42.1 C 18.7 42.1 19.96 45.69 20 45.7 C 20.1 46.1 20.3 46.6 20.4 47.1 C 20.5 46.6 20.7 46.2 20.8 45.7 C 20.85 45.71 22.2 42.1 22.2 42.1 L 23.2 42.1 C 23.2 42.1 20.87 48.42 20.9 48.4 C 20.6 49.1 20.4 49.6 20.3 49.8 C 20.1 50.2 19.9 50.4 19.6 50.6 C 19.4 50.8 19.1 50.8 18.8 50.8 C 18.8 50.8 18.8 50.8 18.8 50.8 Z M 23.7 45.2 C 23.7 44 24.1 43.2 24.7 42.6 C 25.2 42.2 25.9 41.9 26.7 41.9 C 27.5 41.9 28.2 42.2 28.8 42.8 C 29.3 43.3 29.6 44.1 29.6 45.1 C 29.6 45.9 29.4 46.5 29.2 47 C 29 47.5 28.6 47.8 28.2 48.1 C 27.7 48.3 27.2 48.5 26.7 48.5 C 25.8 48.5 25.1 48.2 24.5 47.6 C 24 47.1 23.7 46.2 23.7 45.2 Z M 24.8 45.2 C 24.8 46 25 46.6 25.3 47 C 25.7 47.4 26.1 47.6 26.7 47.6 C 27.2 47.6 27.6 47.4 28 47 C 28.3 46.6 28.5 46 28.5 45.2 C 28.5 44.4 28.3 43.8 28 43.4 C 27.6 43 27.2 42.8 26.7 42.8 C 26.1 42.8 25.7 43 25.3 43.4 C 25 43.8 24.8 44.4 24.8 45.2 Z M 34.9 48.3 C 34.9 48.3 34.88 47.4 34.9 47.4 C 34.4 48.1 33.7 48.5 32.9 48.5 C 32.5 48.5 32.2 48.4 31.9 48.2 C 31.6 48.1 31.3 47.9 31.2 47.7 C 31 47.5 30.9 47.2 30.8 46.9 C 30.8 46.7 30.8 46.4 30.8 45.9 C 30.78 45.94 30.8 42.1 30.8 42.1 L 31.8 42.1 C 31.8 42.1 31.83 45.54 31.8 45.5 C 31.8 46.1 31.9 46.5 31.9 46.7 C 32 46.9 32.1 47.1 32.3 47.3 C 32.5 47.5 32.8 47.5 33.1 47.5 C 33.4 47.5 33.7 47.5 34 47.3 C 34.3 47.1 34.5 46.9 34.6 46.6 C 34.7 46.4 34.8 46 34.8 45.4 C 34.77 45.42 34.8 42.1 34.8 42.1 L 35.8 42.1 L 35.8 48.3 L 34.9 48.3 Z M 42 48.3 L 40.1 42.1 L 41.1 42.1 L 42.1 45.7 C 42.1 45.7 42.5 47.02 42.5 47 C 42.5 46.9 42.6 46.5 42.8 45.7 C 42.83 45.73 43.8 42.1 43.8 42.1 L 44.9 42.1 L 45.8 45.7 L 46.1 46.9 L 46.5 45.7 L 47.6 42.1 L 48.6 42.1 L 46.6 48.3 L 45.6 48.3 L 44.6 44.6 L 44.3 43.5 L 43.1 48.3 L 42 48.3 Z M 49.5 40.9 L 49.5 39.7 L 50.5 39.7 L 50.5 40.9 L 49.5 40.9 Z M 49.5 48.3 L 49.5 42.1 L 50.5 42.1 L 50.5 48.3 L 49.5 48.3 Z M 54 47.4 C 54.1 47.4 54.3 47.4 54.4 47.4 C 54.4 47.4 54.6 48.3 54.6 48.3 C 54.3 48.4 54 48.4 53.8 48.4 C 53.4 48.4 53.1 48.3 52.9 48.2 C 52.7 48.1 52.6 47.9 52.5 47.7 C 52.4 47.5 52.3 47.1 52.3 46.5 C 52.34 46.49 52.3 42.9 52.3 42.9 L 51.6 42.9 L 51.6 42.1 L 52.3 42.1 L 52.3 40.5 L 53.4 39.9 L 53.4 42.1 L 54.4 42.1 L 54.4 42.9 L 53.4 42.9 C 53.4 42.9 53.38 46.55 53.4 46.5 C 53.4 46.8 53.4 47 53.4 47.1 C 53.5 47.2 53.5 47.3 53.6 47.3 C 53.7 47.4 53.8 47.4 54 47.4 C 54 47.4 54 47.4 54 47.4 Z M 55.5 48.3 L 55.5 39.7 L 56.5 39.7 C 56.5 39.7 56.53 42.8 56.5 42.8 C 57 42.2 57.6 41.9 58.4 41.9 C 58.9 41.9 59.3 42 59.6 42.2 C 59.9 42.4 60.2 42.7 60.3 43 C 60.5 43.3 60.5 43.8 60.5 44.4 C 60.54 44.37 60.5 48.3 60.5 48.3 L 59.5 48.3 C 59.5 48.3 59.49 44.37 59.5 44.4 C 59.5 43.8 59.4 43.5 59.1 43.2 C 58.9 43 58.6 42.9 58.2 42.9 C 57.9 42.9 57.6 42.9 57.3 43.1 C 57 43.3 56.8 43.5 56.7 43.8 C 56.6 44 56.5 44.4 56.5 44.9 C 56.53 44.91 56.5 48.3 56.5 48.3 L 55.5 48.3 Z M 65.5 48.3 L 65.5 42.1 L 66.4 42.1 C 66.4 42.1 66.42 43.03 66.4 43 C 66.7 42.6 66.9 42.3 67.1 42.2 C 67.3 42 67.5 41.9 67.8 41.9 C 68.1 41.9 68.5 42.1 68.9 42.3 C 68.9 42.3 68.5 43.3 68.5 43.3 C 68.2 43.1 68 43 67.7 43 C 67.5 43 67.3 43.1 67.1 43.2 C 66.9 43.4 66.8 43.6 66.7 43.8 C 66.6 44.2 66.5 44.6 66.5 45.1 C 66.53 45.05 66.5 48.3 66.5 48.3 L 65.5 48.3 Z M 73.7 46.3 C 73.7 46.3 74.8 46.4 74.8 46.4 C 74.7 47.1 74.3 47.6 73.9 47.9 C 73.4 48.3 72.8 48.5 72.1 48.5 C 71.2 48.5 70.5 48.2 69.9 47.6 C 69.4 47 69.1 46.3 69.1 45.3 C 69.1 44.2 69.4 43.4 69.9 42.8 C 70.5 42.2 71.2 41.9 72 41.9 C 72.9 41.9 73.5 42.2 74.1 42.8 C 74.6 43.4 74.9 44.2 74.9 45.2 C 74.9 45.2 74.9 45.3 74.9 45.5 C 74.9 45.5 70.2 45.5 70.2 45.5 C 70.3 46.2 70.5 46.7 70.8 47 C 71.1 47.4 71.6 47.6 72.1 47.6 C 72.5 47.6 72.8 47.5 73.1 47.3 C 73.4 47.1 73.6 46.8 73.7 46.3 Z M 70.3 44.6 C 70.3 44.6 73.8 44.6 73.8 44.6 C 73.7 44.1 73.6 43.7 73.4 43.4 C 73 43 72.6 42.8 72 42.8 C 71.6 42.8 71.2 43 70.8 43.3 C 70.5 43.6 70.3 44.1 70.3 44.6 Z M 80.4 48.3 C 80.3 48.1 80.2 47.8 80.2 47.5 C 79.8 47.9 79.4 48.1 79.1 48.2 C 78.7 48.4 78.3 48.5 77.9 48.5 C 77.2 48.5 76.7 48.3 76.3 47.9 C 76 47.6 75.8 47.2 75.8 46.7 C 75.8 46.4 75.9 46.1 76 45.8 C 76.1 45.6 76.3 45.4 76.5 45.2 C 76.8 45.1 77 45 77.3 44.9 C 77.5 44.8 77.8 44.8 78.2 44.7 C 79.1 44.6 79.7 44.5 80.1 44.4 C 80.1 44.2 80.1 44.1 80.1 44.1 C 80.1 43.7 80 43.4 79.8 43.2 C 79.6 42.9 79.2 42.8 78.6 42.8 C 78.1 42.8 77.8 42.9 77.5 43.1 C 77.3 43.3 77.1 43.6 77 44 C 77 44 76 43.9 76 43.9 C 76.1 43.4 76.2 43.1 76.4 42.8 C 76.7 42.5 77 42.3 77.4 42.2 C 77.8 42 78.2 41.9 78.8 41.9 C 79.3 41.9 79.7 42 80.1 42.1 C 80.4 42.3 80.7 42.4 80.8 42.6 C 81 42.8 81.1 43 81.1 43.3 C 81.2 43.5 81.2 43.8 81.2 44.3 C 81.2 44.3 81.2 45.7 81.2 45.7 C 81.2 46.7 81.2 47.3 81.3 47.6 C 81.3 47.8 81.4 48.1 81.5 48.3 C 81.53 48.31 80.4 48.3 80.4 48.3 C 80.4 48.3 80.43 48.31 80.4 48.3 Z M 80.1 45.2 C 79.7 45.3 79.2 45.5 78.4 45.6 C 78 45.6 77.7 45.7 77.5 45.8 C 77.3 45.9 77.2 46 77.1 46.1 C 77 46.3 76.9 46.5 76.9 46.6 C 76.9 46.9 77 47.2 77.2 47.3 C 77.5 47.5 77.8 47.6 78.2 47.6 C 78.6 47.6 78.9 47.5 79.3 47.4 C 79.6 47.2 79.8 46.9 80 46.6 C 80.1 46.4 80.1 46 80.1 45.6 C 80.1 45.6 80.1 45.2 80.1 45.2 Z M 82.8 48.3 L 82.8 39.7 L 83.9 39.7 L 83.9 48.3 L 82.8 48.3 Z M 88.8 48.3 L 88.8 39.7 L 89.9 39.7 L 89.9 48.3 L 88.8 48.3 Z M 91.5 40.9 L 91.5 39.7 L 92.6 39.7 L 92.6 40.9 L 91.5 40.9 Z M 91.5 48.3 L 91.5 42.1 L 92.6 42.1 L 92.6 48.3 L 91.5 48.3 Z M 94.4 48.3 L 94.4 42.9 L 93.5 42.9 L 93.5 42.1 L 94.4 42.1 C 94.4 42.1 94.41 41.43 94.4 41.4 C 94.4 41 94.4 40.7 94.5 40.5 C 94.6 40.2 94.8 40 95.1 39.8 C 95.3 39.7 95.7 39.6 96.1 39.6 C 96.4 39.6 96.8 39.6 97.1 39.7 C 97.1 39.7 97 40.6 97 40.6 C 96.7 40.6 96.5 40.5 96.3 40.5 C 96 40.5 95.8 40.6 95.7 40.7 C 95.5 40.9 95.5 41.1 95.5 41.5 C 95.46 41.51 95.5 42.1 95.5 42.1 L 96.7 42.1 L 96.7 42.9 L 95.5 42.9 L 95.5 48.3 L 94.4 48.3 Z M 101.8 46.3 C 101.8 46.3 102.8 46.4 102.8 46.4 C 102.7 47.1 102.4 47.6 101.9 47.9 C 101.4 48.3 100.8 48.5 100.1 48.5 C 99.2 48.5 98.5 48.2 97.9 47.6 C 97.4 47 97.1 46.3 97.1 45.3 C 97.1 44.2 97.4 43.4 98 42.8 C 98.5 42.2 99.2 41.9 100 41.9 C 100.9 41.9 101.6 42.2 102.1 42.8 C 102.6 43.4 102.9 44.2 102.9 45.2 C 102.9 45.2 102.9 45.3 102.9 45.5 C 102.9 45.5 98.2 45.5 98.2 45.5 C 98.3 46.2 98.5 46.7 98.8 47 C 99.2 47.4 99.6 47.6 100.1 47.6 C 100.5 47.6 100.8 47.5 101.1 47.3 C 101.4 47.1 101.6 46.8 101.8 46.3 Z M 98.3 44.6 C 98.3 44.6 101.8 44.6 101.8 44.6 C 101.7 44.1 101.6 43.7 101.4 43.4 C 101 43 100.6 42.8 100.1 42.8 C 99.6 42.8 99.2 43 98.8 43.3 C 98.5 43.6 98.3 44.1 98.3 44.6 Z M 111.8 46.3 C 111.8 46.3 112.9 46.4 112.9 46.4 C 112.7 47.1 112.4 47.6 111.9 47.9 C 111.4 48.3 110.8 48.5 110.1 48.5 C 109.2 48.5 108.5 48.2 108 47.6 C 107.4 47 107.2 46.3 107.2 45.3 C 107.2 44.2 107.4 43.4 108 42.8 C 108.5 42.2 109.2 41.9 110.1 41.9 C 110.9 41.9 111.6 42.2 112.1 42.8 C 112.6 43.4 112.9 44.2 112.9 45.2 C 112.9 45.2 112.9 45.3 112.9 45.5 C 112.9 45.5 108.2 45.5 108.2 45.5 C 108.3 46.2 108.5 46.7 108.8 47 C 109.2 47.4 109.6 47.6 110.1 47.6 C 110.5 47.6 110.8 47.5 111.1 47.3 C 111.4 47.1 111.6 46.8 111.8 46.3 Z M 108.3 44.6 C 108.3 44.6 111.8 44.6 111.8 44.6 C 111.7 44.1 111.6 43.7 111.4 43.4 C 111 43 110.6 42.8 110.1 42.8 C 109.6 42.8 109.2 43 108.8 43.3 C 108.5 43.6 108.3 44.1 108.3 44.6 Z M 113.5 48.3 L 115.7 45.1 L 113.6 42.1 L 115 42.1 C 115 42.1 115.92 43.55 115.9 43.5 C 116.1 43.8 116.2 44.1 116.3 44.2 C 116.5 44 116.7 43.8 116.8 43.6 C 116.82 43.56 117.9 42.1 117.9 42.1 L 119.1 42.1 L 117 45 L 119.3 48.3 L 118 48.3 L 116.7 46.4 L 116.4 45.9 L 114.8 48.3 L 113.5 48.3 Z M 124.4 48.3 C 124.3 48.1 124.3 47.8 124.2 47.5 C 123.8 47.9 123.5 48.1 123.1 48.2 C 122.7 48.4 122.4 48.5 121.9 48.5 C 121.3 48.5 120.7 48.3 120.4 47.9 C 120 47.6 119.8 47.2 119.8 46.7 C 119.8 46.4 119.9 46.1 120 45.8 C 120.2 45.6 120.3 45.4 120.6 45.2 C 120.8 45.1 121 45 121.3 44.9 C 121.5 44.8 121.8 44.8 122.3 44.7 C 123.1 44.6 123.7 44.5 124.1 44.4 C 124.2 44.2 124.2 44.1 124.2 44.1 C 124.2 43.7 124.1 43.4 123.9 43.2 C 123.6 42.9 123.2 42.8 122.7 42.8 C 122.2 42.8 121.8 42.9 121.6 43.1 C 121.3 43.3 121.1 43.6 121 44 C 121 44 120 43.9 120 43.9 C 120.1 43.4 120.2 43.1 120.5 42.8 C 120.7 42.5 121 42.3 121.4 42.2 C 121.8 42 122.3 41.9 122.8 41.9 C 123.3 41.9 123.8 42 124.1 42.1 C 124.4 42.3 124.7 42.4 124.8 42.6 C 125 42.8 125.1 43 125.2 43.3 C 125.2 43.5 125.2 43.8 125.2 44.3 C 125.2 44.3 125.2 45.7 125.2 45.7 C 125.2 46.7 125.2 47.3 125.3 47.6 C 125.3 47.8 125.4 48.1 125.5 48.3 C 125.55 48.31 124.4 48.3 124.4 48.3 C 124.4 48.3 124.45 48.31 124.4 48.3 Z M 124.1 45.2 C 123.8 45.3 123.2 45.5 122.4 45.6 C 122 45.6 121.7 45.7 121.5 45.8 C 121.3 45.9 121.2 46 121.1 46.1 C 121 46.3 120.9 46.5 120.9 46.6 C 120.9 46.9 121 47.2 121.3 47.3 C 121.5 47.5 121.8 47.6 122.2 47.6 C 122.6 47.6 123 47.5 123.3 47.4 C 123.6 47.2 123.8 46.9 124 46.6 C 124.1 46.4 124.1 46 124.1 45.6 C 124.1 45.6 124.1 45.2 124.1 45.2 Z M 126.8 48.3 L 126.8 42.1 L 127.8 42.1 C 127.8 42.1 127.79 42.96 127.8 43 C 128 42.7 128.2 42.4 128.6 42.2 C 128.9 42 129.3 41.9 129.7 41.9 C 130.1 41.9 130.5 42 130.8 42.2 C 131.1 42.4 131.3 42.7 131.4 43 C 131.9 42.3 132.6 41.9 133.4 41.9 C 134 41.9 134.5 42.1 134.8 42.5 C 135.1 42.8 135.3 43.3 135.3 44 C 135.28 44.04 135.3 48.3 135.3 48.3 L 134.2 48.3 C 134.2 48.3 134.23 44.39 134.2 44.4 C 134.2 44 134.2 43.7 134.1 43.5 C 134.1 43.3 133.9 43.1 133.8 43 C 133.6 42.9 133.4 42.9 133.1 42.9 C 132.7 42.9 132.3 43 132 43.3 C 131.7 43.6 131.6 44.1 131.6 44.7 C 131.6 44.69 131.6 48.3 131.6 48.3 L 130.5 48.3 C 130.5 48.3 130.55 44.27 130.5 44.3 C 130.5 43.8 130.5 43.4 130.3 43.2 C 130.1 43 129.8 42.9 129.4 42.9 C 129.1 42.9 128.9 42.9 128.6 43.1 C 128.4 43.3 128.2 43.5 128.1 43.8 C 128 44.1 127.9 44.5 127.9 45.1 C 127.9 45.08 127.9 48.3 127.9 48.3 L 126.8 48.3 Z M 136.8 50.7 L 136.8 42.1 L 137.8 42.1 C 137.8 42.1 137.81 42.9 137.8 42.9 C 138 42.6 138.3 42.3 138.6 42.2 C 138.9 42 139.2 41.9 139.6 41.9 C 140.1 41.9 140.6 42.1 141 42.4 C 141.4 42.6 141.7 43 141.9 43.5 C 142.1 44 142.2 44.6 142.2 45.2 C 142.2 45.8 142.1 46.4 141.9 46.9 C 141.7 47.4 141.3 47.8 140.9 48 C 140.5 48.3 140 48.5 139.5 48.5 C 139.2 48.5 138.9 48.4 138.6 48.2 C 138.3 48.1 138.1 47.9 137.9 47.7 C 137.9 47.67 137.9 50.7 137.9 50.7 L 136.8 50.7 Z M 137.8 45.2 C 137.8 46 138 46.6 138.3 47 C 138.6 47.4 139 47.6 139.5 47.6 C 139.9 47.6 140.3 47.4 140.7 47 C 141 46.6 141.2 46 141.2 45.1 C 141.2 44.4 141 43.8 140.7 43.4 C 140.4 43 140 42.8 139.5 42.8 C 139.1 42.8 138.7 43 138.3 43.4 C 138 43.8 137.8 44.4 137.8 45.2 Z M 143.5 48.3 L 143.5 39.7 L 144.6 39.7 L 144.6 48.3 L 143.5 48.3 Z M 150.4 46.3 C 150.4 46.3 151.5 46.4 151.5 46.4 C 151.4 47.1 151 47.6 150.6 47.9 C 150.1 48.3 149.5 48.5 148.8 48.5 C 147.9 48.5 147.2 48.2 146.6 47.6 C 146.1 47 145.8 46.3 145.8 45.3 C 145.8 44.2 146.1 43.4 146.6 42.8 C 147.2 42.2 147.9 41.9 148.7 41.9 C 149.6 41.9 150.3 42.2 150.8 42.8 C 151.3 43.4 151.6 44.2 151.6 45.2 C 151.6 45.2 151.6 45.3 151.6 45.5 C 151.6 45.5 146.9 45.5 146.9 45.5 C 147 46.2 147.2 46.7 147.5 47 C 147.9 47.4 148.3 47.6 148.8 47.6 C 149.2 47.6 149.5 47.5 149.8 47.3 C 150.1 47.1 150.3 46.8 150.4 46.3 Z M 147 44.6 C 147 44.6 150.5 44.6 150.5 44.6 C 150.4 44.1 150.3 43.7 150.1 43.4 C 149.7 43 149.3 42.8 148.8 42.8 C 148.3 42.8 147.9 43 147.5 43.3 C 147.2 43.6 147 44.1 147 44.6 Z M 152.4 46.5 C 152.4 46.5 153.5 46.3 153.5 46.3 C 153.5 46.7 153.7 47 154 47.2 C 154.2 47.5 154.6 47.6 155.1 47.6 C 155.6 47.6 155.9 47.5 156.2 47.3 C 156.4 47.1 156.5 46.9 156.5 46.6 C 156.5 46.4 156.4 46.2 156.2 46 C 156.1 45.9 155.7 45.8 155.1 45.7 C 154.4 45.5 153.8 45.3 153.5 45.2 C 153.2 45 153 44.8 152.8 44.6 C 152.7 44.3 152.6 44 152.6 43.7 C 152.6 43.5 152.7 43.2 152.8 43 C 152.9 42.7 153.1 42.5 153.3 42.4 C 153.5 42.3 153.7 42.2 154 42.1 C 154.3 42 154.6 41.9 154.9 41.9 C 155.4 41.9 155.8 42 156.2 42.2 C 156.6 42.3 156.8 42.5 157 42.7 C 157.2 43 157.3 43.3 157.4 43.7 C 157.4 43.7 156.3 43.8 156.3 43.8 C 156.3 43.5 156.2 43.3 155.9 43.1 C 155.7 42.9 155.4 42.8 155 42.8 C 154.5 42.8 154.2 42.9 153.9 43.1 C 153.7 43.2 153.6 43.4 153.6 43.6 C 153.6 43.8 153.7 43.9 153.8 44 C 153.8 44.1 154 44.2 154.2 44.3 C 154.3 44.3 154.6 44.4 155.1 44.5 C 155.8 44.7 156.4 44.9 156.7 45 C 157 45.2 157.2 45.3 157.4 45.6 C 157.5 45.8 157.6 46.1 157.6 46.5 C 157.6 46.8 157.5 47.2 157.3 47.5 C 157.1 47.8 156.8 48 156.4 48.2 C 156 48.4 155.6 48.5 155.1 48.5 C 154.3 48.5 153.7 48.3 153.2 47.9 C 152.8 47.6 152.6 47.1 152.4 46.5 Z M 159.2 48.3 L 159.2 47.1 L 160.4 47.1 L 160.4 48.3 L 159.2 48.3 Z " stroke="none" fill="#010102"/>  </g>  <g id="Polygon1684">    <path d="M 4.9 30.5 L 4.9 29.5 L 8.6 29.5 C 8.6 29.5 8.58 32.71 8.6 32.7 C 8 33.2 7.4 33.5 6.9 33.7 C 6.3 33.9 5.7 34.1 5 34.1 C 4.2 34.1 3.4 33.9 2.7 33.5 C 2 33.2 1.5 32.6 1.2 31.9 C 0.8 31.3 0.6 30.5 0.6 29.7 C 0.6 28.8 0.8 28 1.2 27.3 C 1.5 26.6 2 26.1 2.7 25.7 C 3.3 25.3 4.1 25.2 4.9 25.2 C 5.6 25.2 6.1 25.3 6.6 25.5 C 7.1 25.7 7.5 26 7.8 26.3 C 8.1 26.7 8.3 27.1 8.5 27.7 C 8.5 27.7 7.4 28 7.4 28 C 7.3 27.6 7.1 27.2 6.9 27 C 6.8 26.7 6.5 26.5 6.1 26.4 C 5.8 26.2 5.4 26.1 4.9 26.1 C 4.4 26.1 4 26.2 3.6 26.4 C 3.2 26.5 2.9 26.7 2.7 27 C 2.4 27.3 2.3 27.5 2.1 27.9 C 1.9 28.4 1.8 29 1.8 29.6 C 1.8 30.4 1.9 31 2.2 31.5 C 2.5 32 2.9 32.4 3.4 32.7 C 3.9 32.9 4.4 33 5 33 C 5.5 33 5.9 32.9 6.4 32.7 C 6.9 32.6 7.2 32.4 7.5 32.1 C 7.47 32.14 7.5 30.5 7.5 30.5 L 4.9 30.5 Z M 14.4 33.9 C 14.3 33.7 14.2 33.4 14.2 33.1 C 13.8 33.5 13.4 33.7 13.1 33.8 C 12.7 34 12.3 34.1 11.9 34.1 C 11.2 34.1 10.7 33.9 10.3 33.5 C 10 33.2 9.8 32.8 9.8 32.3 C 9.8 32 9.8 31.7 10 31.4 C 10.1 31.2 10.3 31 10.5 30.8 C 10.7 30.7 11 30.6 11.3 30.5 C 11.5 30.4 11.8 30.4 12.2 30.3 C 13.1 30.2 13.7 30.1 14.1 30 C 14.1 29.8 14.1 29.7 14.1 29.7 C 14.1 29.3 14 29 13.8 28.8 C 13.5 28.5 13.1 28.4 12.6 28.4 C 12.1 28.4 11.7 28.5 11.5 28.7 C 11.3 28.9 11.1 29.2 11 29.6 C 11 29.6 9.9 29.5 9.9 29.5 C 10 29 10.2 28.7 10.4 28.4 C 10.6 28.1 10.9 27.9 11.3 27.8 C 11.7 27.6 12.2 27.5 12.8 27.5 C 13.3 27.5 13.7 27.6 14.1 27.7 C 14.4 27.9 14.6 28 14.8 28.2 C 14.9 28.4 15 28.6 15.1 28.9 C 15.1 29.1 15.2 29.4 15.2 29.9 C 15.2 29.9 15.2 31.3 15.2 31.3 C 15.2 32.3 15.2 32.9 15.2 33.2 C 15.3 33.4 15.4 33.7 15.5 33.9 C 15.5 33.91 14.4 33.9 14.4 33.9 C 14.4 33.9 14.4 33.91 14.4 33.9 Z M 14.1 30.8 C 13.7 30.9 13.1 31.1 12.4 31.2 C 11.9 31.2 11.6 31.3 11.5 31.4 C 11.3 31.5 11.1 31.6 11 31.7 C 10.9 31.9 10.9 32.1 10.9 32.2 C 10.9 32.5 11 32.8 11.2 32.9 C 11.4 33.1 11.7 33.2 12.1 33.2 C 12.6 33.2 12.9 33.1 13.2 33 C 13.5 32.8 13.8 32.5 13.9 32.2 C 14 32 14.1 31.6 14.1 31.2 C 14.1 31.2 14.1 30.8 14.1 30.8 Z M 16.8 26.5 L 16.8 25.3 L 17.9 25.3 L 17.9 26.5 L 16.8 26.5 Z M 16.8 33.9 L 16.8 27.7 L 17.9 27.7 L 17.9 33.9 L 16.8 33.9 Z M 19.5 33.9 L 19.5 27.7 L 20.4 27.7 C 20.4 27.7 20.41 28.57 20.4 28.6 C 20.9 27.9 21.5 27.5 22.4 27.5 C 22.8 27.5 23.1 27.6 23.4 27.7 C 23.7 27.9 24 28.1 24.1 28.3 C 24.3 28.5 24.4 28.8 24.5 29.1 C 24.5 29.3 24.5 29.6 24.5 30.1 C 24.52 30.08 24.5 33.9 24.5 33.9 L 23.5 33.9 C 23.5 33.9 23.47 30.12 23.5 30.1 C 23.5 29.7 23.4 29.4 23.3 29.2 C 23.3 28.9 23.1 28.8 22.9 28.7 C 22.7 28.5 22.5 28.5 22.2 28.5 C 21.7 28.5 21.3 28.6 21 28.9 C 20.7 29.2 20.5 29.7 20.5 30.5 C 20.52 30.51 20.5 33.9 20.5 33.9 L 19.5 33.9 Z M 33.7 33.9 C 33.6 33.7 33.6 33.4 33.5 33.1 C 33.1 33.5 32.8 33.7 32.4 33.8 C 32 34 31.7 34.1 31.2 34.1 C 30.6 34.1 30 33.9 29.7 33.5 C 29.3 33.2 29.1 32.8 29.1 32.3 C 29.1 32 29.2 31.7 29.3 31.4 C 29.5 31.2 29.6 31 29.9 30.8 C 30.1 30.7 30.3 30.6 30.6 30.5 C 30.8 30.4 31.1 30.4 31.6 30.3 C 32.4 30.2 33 30.1 33.4 30 C 33.4 29.8 33.5 29.7 33.5 29.7 C 33.5 29.3 33.4 29 33.2 28.8 C 32.9 28.5 32.5 28.4 32 28.4 C 31.5 28.4 31.1 28.5 30.9 28.7 C 30.6 28.9 30.4 29.2 30.3 29.6 C 30.3 29.6 29.3 29.5 29.3 29.5 C 29.4 29 29.5 28.7 29.8 28.4 C 30 28.1 30.3 27.9 30.7 27.8 C 31.1 27.6 31.6 27.5 32.1 27.5 C 32.6 27.5 33.1 27.6 33.4 27.7 C 33.7 27.9 34 28 34.1 28.2 C 34.3 28.4 34.4 28.6 34.5 28.9 C 34.5 29.1 34.5 29.4 34.5 29.9 C 34.5 29.9 34.5 31.3 34.5 31.3 C 34.5 32.3 34.5 32.9 34.6 33.2 C 34.6 33.4 34.7 33.7 34.8 33.9 C 34.85 33.91 33.7 33.9 33.7 33.9 C 33.7 33.9 33.74 33.91 33.7 33.9 Z M 33.4 30.8 C 33.1 30.9 32.5 31.1 31.7 31.2 C 31.3 31.2 31 31.3 30.8 31.4 C 30.6 31.5 30.5 31.6 30.4 31.7 C 30.3 31.9 30.2 32.1 30.2 32.2 C 30.2 32.5 30.3 32.8 30.6 32.9 C 30.8 33.1 31.1 33.2 31.5 33.2 C 31.9 33.2 32.3 33.1 32.6 33 C 32.9 32.8 33.1 32.5 33.3 32.2 C 33.4 32 33.4 31.6 33.4 31.2 C 33.4 31.2 33.4 30.8 33.4 30.8 Z M 40.5 33.9 L 39.5 33.9 L 39.5 25.3 L 40.5 25.3 C 40.5 25.3 40.53 28.38 40.5 28.4 C 41 27.8 41.5 27.5 42.2 27.5 C 42.6 27.5 43 27.6 43.3 27.8 C 43.7 27.9 43.9 28.1 44.2 28.4 C 44.4 28.7 44.6 29 44.7 29.4 C 44.8 29.8 44.9 30.3 44.9 30.7 C 44.9 31.8 44.6 32.6 44.1 33.2 C 43.6 33.8 42.9 34.1 42.2 34.1 C 41.4 34.1 40.9 33.7 40.5 33.1 C 40.45 33.13 40.5 33.9 40.5 33.9 Z M 40.4 30.8 C 40.4 31.5 40.5 32 40.7 32.4 C 41.1 32.9 41.5 33.2 42.1 33.2 C 42.6 33.2 43 33 43.3 32.6 C 43.6 32.2 43.8 31.6 43.8 30.8 C 43.8 30 43.6 29.4 43.3 29 C 43 28.6 42.6 28.4 42.1 28.4 C 41.7 28.4 41.3 28.6 40.9 29 C 40.6 29.4 40.4 30 40.4 30.8 Z M 50.4 31.9 C 50.4 31.9 51.5 32 51.5 32 C 51.3 32.7 51 33.2 50.5 33.5 C 50.1 33.9 49.5 34.1 48.8 34.1 C 47.9 34.1 47.1 33.8 46.6 33.2 C 46.1 32.6 45.8 31.9 45.8 30.9 C 45.8 29.8 46.1 29 46.6 28.4 C 47.2 27.8 47.8 27.5 48.7 27.5 C 49.5 27.5 50.2 27.8 50.7 28.4 C 51.3 29 51.5 29.8 51.5 30.8 C 51.5 30.8 51.5 30.9 51.5 31.1 C 51.5 31.1 46.9 31.1 46.9 31.1 C 46.9 31.8 47.1 32.3 47.5 32.6 C 47.8 33 48.3 33.2 48.8 33.2 C 49.2 33.2 49.5 33.1 49.8 32.9 C 50 32.7 50.3 32.4 50.4 31.9 Z M 47 30.2 C 47 30.2 50.4 30.2 50.4 30.2 C 50.4 29.7 50.2 29.3 50 29 C 49.7 28.6 49.3 28.4 48.7 28.4 C 48.2 28.4 47.8 28.6 47.5 28.9 C 47.2 29.2 47 29.7 47 30.2 Z M 54.7 33 C 54.8 33 54.9 33 55.1 33 C 55.1 33 55.3 33.9 55.3 33.9 C 55 34 54.7 34 54.5 34 C 54.1 34 53.8 33.9 53.6 33.8 C 53.4 33.7 53.2 33.5 53.2 33.3 C 53.1 33.1 53 32.7 53 32.1 C 53.02 32.09 53 28.5 53 28.5 L 52.2 28.5 L 52.2 27.7 L 53 27.7 L 53 26.1 L 54.1 25.5 L 54.1 27.7 L 55.1 27.7 L 55.1 28.5 L 54.1 28.5 C 54.1 28.5 54.07 32.15 54.1 32.1 C 54.1 32.4 54.1 32.6 54.1 32.7 C 54.2 32.8 54.2 32.9 54.3 32.9 C 54.4 33 54.5 33 54.7 33 C 54.7 33 54.7 33 54.7 33 Z M 58 33 C 58.1 33 58.3 33 58.5 33 C 58.5 33 58.6 33.9 58.6 33.9 C 58.3 34 58.1 34 57.8 34 C 57.4 34 57.1 33.9 56.9 33.8 C 56.7 33.7 56.6 33.5 56.5 33.3 C 56.4 33.1 56.4 32.7 56.4 32.1 C 56.36 32.09 56.4 28.5 56.4 28.5 L 55.6 28.5 L 55.6 27.7 L 56.4 27.7 L 56.4 26.1 L 57.4 25.5 L 57.4 27.7 L 58.5 27.7 L 58.5 28.5 L 57.4 28.5 C 57.4 28.5 57.4 32.15 57.4 32.1 C 57.4 32.4 57.4 32.6 57.5 32.7 C 57.5 32.8 57.6 32.9 57.6 32.9 C 57.7 33 57.8 33 58 33 C 58 33 58 33 58 33 Z M 63.8 31.9 C 63.8 31.9 64.8 32 64.8 32 C 64.7 32.7 64.4 33.2 63.9 33.5 C 63.4 33.9 62.8 34.1 62.1 34.1 C 61.2 34.1 60.5 33.8 59.9 33.2 C 59.4 32.6 59.1 31.9 59.1 30.9 C 59.1 29.8 59.4 29 60 28.4 C 60.5 27.8 61.2 27.5 62.1 27.5 C 62.9 27.5 63.6 27.8 64.1 28.4 C 64.6 29 64.9 29.8 64.9 30.8 C 64.9 30.8 64.9 30.9 64.9 31.1 C 64.9 31.1 60.2 31.1 60.2 31.1 C 60.3 31.8 60.5 32.3 60.8 32.6 C 61.2 33 61.6 33.2 62.1 33.2 C 62.5 33.2 62.8 33.1 63.1 32.9 C 63.4 32.7 63.6 32.4 63.8 31.9 Z M 60.3 30.2 C 60.3 30.2 63.8 30.2 63.8 30.2 C 63.7 29.7 63.6 29.3 63.4 29 C 63 28.6 62.6 28.4 62.1 28.4 C 61.6 28.4 61.2 28.6 60.8 28.9 C 60.5 29.2 60.3 29.7 60.3 30.2 Z M 66.2 33.9 L 66.2 27.7 L 67.1 27.7 C 67.1 27.7 67.11 28.63 67.1 28.6 C 67.3 28.2 67.6 27.9 67.8 27.8 C 68 27.6 68.2 27.5 68.5 27.5 C 68.8 27.5 69.2 27.7 69.5 27.9 C 69.5 27.9 69.2 28.9 69.2 28.9 C 68.9 28.7 68.7 28.6 68.4 28.6 C 68.2 28.6 68 28.7 67.8 28.8 C 67.6 29 67.5 29.2 67.4 29.4 C 67.3 29.8 67.2 30.2 67.2 30.7 C 67.21 30.65 67.2 33.9 67.2 33.9 L 66.2 33.9 Z M 77.6 33.9 C 77.6 33.9 77.58 33 77.6 33 C 77.1 33.7 76.4 34.1 75.6 34.1 C 75.2 34.1 74.9 34 74.6 33.8 C 74.3 33.7 74 33.5 73.9 33.3 C 73.7 33.1 73.6 32.8 73.5 32.5 C 73.5 32.3 73.5 32 73.5 31.5 C 73.48 31.54 73.5 27.7 73.5 27.7 L 74.5 27.7 C 74.5 27.7 74.53 31.14 74.5 31.1 C 74.5 31.7 74.6 32.1 74.6 32.3 C 74.7 32.5 74.8 32.7 75 32.9 C 75.2 33.1 75.5 33.1 75.8 33.1 C 76.1 33.1 76.4 33.1 76.7 32.9 C 77 32.7 77.2 32.5 77.3 32.2 C 77.4 32 77.5 31.6 77.5 31 C 77.47 31.02 77.5 27.7 77.5 27.7 L 78.5 27.7 L 78.5 33.9 L 77.6 33.9 Z M 80.2 33.9 L 80.2 27.7 L 81.1 27.7 C 81.1 27.7 81.12 28.57 81.1 28.6 C 81.6 27.9 82.2 27.5 83.1 27.5 C 83.5 27.5 83.8 27.6 84.1 27.7 C 84.5 27.9 84.7 28.1 84.8 28.3 C 85 28.5 85.1 28.8 85.2 29.1 C 85.2 29.3 85.2 29.6 85.2 30.1 C 85.23 30.08 85.2 33.9 85.2 33.9 L 84.2 33.9 C 84.2 33.9 84.18 30.12 84.2 30.1 C 84.2 29.7 84.1 29.4 84.1 29.2 C 84 28.9 83.8 28.8 83.6 28.7 C 83.4 28.5 83.2 28.5 82.9 28.5 C 82.4 28.5 82 28.6 81.7 28.9 C 81.4 29.2 81.2 29.7 81.2 30.5 C 81.23 30.51 81.2 33.9 81.2 33.9 L 80.2 33.9 Z M 90.9 33.9 C 90.9 33.9 90.88 33.12 90.9 33.1 C 90.5 33.7 89.9 34.1 89.1 34.1 C 88.6 34.1 88.2 33.9 87.8 33.6 C 87.4 33.4 87 33 86.8 32.5 C 86.6 32 86.5 31.4 86.5 30.8 C 86.5 30.2 86.6 29.6 86.8 29.1 C 87 28.6 87.3 28.2 87.7 28 C 88.1 27.7 88.6 27.5 89.1 27.5 C 89.5 27.5 89.8 27.6 90.1 27.8 C 90.4 27.9 90.6 28.1 90.8 28.4 C 90.81 28.4 90.8 25.3 90.8 25.3 L 91.9 25.3 L 91.9 33.9 L 90.9 33.9 Z M 87.6 30.8 C 87.6 31.6 87.7 32.2 88.1 32.6 C 88.4 33 88.8 33.2 89.2 33.2 C 89.7 33.2 90.1 33 90.4 32.6 C 90.7 32.2 90.9 31.7 90.9 30.9 C 90.9 30 90.7 29.4 90.4 29 C 90.1 28.6 89.7 28.4 89.2 28.4 C 88.7 28.4 88.3 28.6 88 29 C 87.7 29.4 87.6 30 87.6 30.8 Z M 97.8 31.9 C 97.8 31.9 98.9 32 98.9 32 C 98.7 32.7 98.4 33.2 97.9 33.5 C 97.5 33.9 96.9 34.1 96.1 34.1 C 95.2 34.1 94.5 33.8 94 33.2 C 93.4 32.6 93.2 31.9 93.2 30.9 C 93.2 29.8 93.4 29 94 28.4 C 94.5 27.8 95.2 27.5 96.1 27.5 C 96.9 27.5 97.6 27.8 98.1 28.4 C 98.6 29 98.9 29.8 98.9 30.8 C 98.9 30.8 98.9 30.9 98.9 31.1 C 98.9 31.1 94.3 31.1 94.3 31.1 C 94.3 31.8 94.5 32.3 94.8 32.6 C 95.2 33 95.6 33.2 96.1 33.2 C 96.5 33.2 96.9 33.1 97.1 32.9 C 97.4 32.7 97.6 32.4 97.8 31.9 Z M 94.3 30.2 C 94.3 30.2 97.8 30.2 97.8 30.2 C 97.7 29.7 97.6 29.3 97.4 29 C 97.1 28.6 96.6 28.4 96.1 28.4 C 95.6 28.4 95.2 28.6 94.9 28.9 C 94.5 29.2 94.4 29.7 94.3 30.2 Z M 100.2 33.9 L 100.2 27.7 L 101.1 27.7 C 101.1 27.7 101.13 28.63 101.1 28.6 C 101.4 28.2 101.6 27.9 101.8 27.8 C 102 27.6 102.2 27.5 102.5 27.5 C 102.8 27.5 103.2 27.7 103.6 27.9 C 103.6 27.9 103.2 28.9 103.2 28.9 C 102.9 28.7 102.7 28.6 102.4 28.6 C 102.2 28.6 102 28.7 101.8 28.8 C 101.6 29 101.5 29.2 101.4 29.4 C 101.3 29.8 101.2 30.2 101.2 30.7 C 101.24 30.65 101.2 33.9 101.2 33.9 L 100.2 33.9 Z M 103.8 32.1 C 103.8 32.1 104.8 31.9 104.8 31.9 C 104.9 32.3 105 32.6 105.3 32.8 C 105.6 33.1 105.9 33.2 106.4 33.2 C 106.9 33.2 107.3 33.1 107.5 32.9 C 107.7 32.7 107.9 32.5 107.9 32.2 C 107.9 32 107.7 31.8 107.5 31.6 C 107.4 31.5 107 31.4 106.5 31.3 C 105.7 31.1 105.2 30.9 104.9 30.8 C 104.6 30.6 104.3 30.4 104.2 30.2 C 104 29.9 103.9 29.6 103.9 29.3 C 103.9 29.1 104 28.8 104.1 28.6 C 104.3 28.3 104.4 28.1 104.7 28 C 104.8 27.9 105 27.8 105.3 27.7 C 105.6 27.6 105.9 27.5 106.2 27.5 C 106.7 27.5 107.2 27.6 107.5 27.8 C 107.9 27.9 108.2 28.1 108.3 28.3 C 108.5 28.6 108.6 28.9 108.7 29.3 C 108.7 29.3 107.7 29.4 107.7 29.4 C 107.6 29.1 107.5 28.9 107.3 28.7 C 107 28.5 106.7 28.4 106.3 28.4 C 105.8 28.4 105.5 28.5 105.3 28.7 C 105.1 28.8 105 29 105 29.2 C 105 29.4 105 29.5 105.1 29.6 C 105.2 29.7 105.3 29.8 105.5 29.9 C 105.6 29.9 105.9 30 106.4 30.1 C 107.2 30.3 107.7 30.5 108 30.6 C 108.3 30.8 108.5 30.9 108.7 31.2 C 108.9 31.4 108.9 31.7 108.9 32.1 C 108.9 32.4 108.8 32.8 108.6 33.1 C 108.4 33.4 108.1 33.6 107.7 33.8 C 107.4 34 106.9 34.1 106.4 34.1 C 105.6 34.1 105 33.9 104.6 33.5 C 104.2 33.2 103.9 32.7 103.8 32.1 Z M 112 33 C 112.1 33 112.3 33 112.5 33 C 112.5 33 112.6 33.9 112.6 33.9 C 112.3 34 112.1 34 111.8 34 C 111.5 34 111.2 33.9 111 33.8 C 110.7 33.7 110.6 33.5 110.5 33.3 C 110.4 33.1 110.4 32.7 110.4 32.1 C 110.38 32.09 110.4 28.5 110.4 28.5 L 109.6 28.5 L 109.6 27.7 L 110.4 27.7 L 110.4 26.1 L 111.4 25.5 L 111.4 27.7 L 112.5 27.7 L 112.5 28.5 L 111.4 28.5 C 111.4 28.5 111.43 32.15 111.4 32.1 C 111.4 32.4 111.5 32.6 111.5 32.7 C 111.5 32.8 111.6 32.9 111.7 32.9 C 111.8 33 111.9 33 112 33 C 112 33 112 33 112 33 Z M 117.8 33.9 C 117.7 33.7 117.6 33.4 117.6 33.1 C 117.2 33.5 116.8 33.7 116.5 33.8 C 116.1 34 115.7 34.1 115.3 34.1 C 114.6 34.1 114.1 33.9 113.7 33.5 C 113.4 33.2 113.2 32.8 113.2 32.3 C 113.2 32 113.2 31.7 113.4 31.4 C 113.5 31.2 113.7 31 113.9 30.8 C 114.1 30.7 114.4 30.6 114.7 30.5 C 114.9 30.4 115.2 30.4 115.6 30.3 C 116.5 30.2 117.1 30.1 117.5 30 C 117.5 29.8 117.5 29.7 117.5 29.7 C 117.5 29.3 117.4 29 117.2 28.8 C 116.9 28.5 116.5 28.4 116 28.4 C 115.5 28.4 115.1 28.5 114.9 28.7 C 114.7 28.9 114.5 29.2 114.4 29.6 C 114.4 29.6 113.3 29.5 113.3 29.5 C 113.4 29 113.6 28.7 113.8 28.4 C 114 28.1 114.3 27.9 114.7 27.8 C 115.2 27.6 115.6 27.5 116.2 27.5 C 116.7 27.5 117.1 27.6 117.5 27.7 C 117.8 27.9 118 28 118.2 28.2 C 118.3 28.4 118.4 28.6 118.5 28.9 C 118.5 29.1 118.6 29.4 118.6 29.9 C 118.6 29.9 118.6 31.3 118.6 31.3 C 118.6 32.3 118.6 32.9 118.6 33.2 C 118.7 33.4 118.8 33.7 118.9 33.9 C 118.9 33.91 117.8 33.9 117.8 33.9 C 117.8 33.9 117.8 33.91 117.8 33.9 Z M 117.5 30.8 C 117.1 30.9 116.5 31.1 115.8 31.2 C 115.3 31.2 115 31.3 114.9 31.4 C 114.7 31.5 114.5 31.6 114.4 31.7 C 114.3 31.9 114.3 32.1 114.3 32.2 C 114.3 32.5 114.4 32.8 114.6 32.9 C 114.8 33.1 115.1 33.2 115.5 33.2 C 116 33.2 116.3 33.1 116.6 33 C 116.9 32.8 117.2 32.5 117.3 32.2 C 117.4 32 117.5 31.6 117.5 31.2 C 117.5 31.2 117.5 30.8 117.5 30.8 Z M 120.2 33.9 L 120.2 27.7 L 121.1 27.7 C 121.1 27.7 121.15 28.57 121.1 28.6 C 121.6 27.9 122.3 27.5 123.1 27.5 C 123.5 27.5 123.8 27.6 124.2 27.7 C 124.5 27.9 124.7 28.1 124.9 28.3 C 125 28.5 125.1 28.8 125.2 29.1 C 125.2 29.3 125.3 29.6 125.3 30.1 C 125.26 30.08 125.3 33.9 125.3 33.9 L 124.2 33.9 C 124.2 33.9 124.2 30.12 124.2 30.1 C 124.2 29.7 124.2 29.4 124.1 29.2 C 124 28.9 123.9 28.8 123.6 28.7 C 123.4 28.5 123.2 28.5 122.9 28.5 C 122.5 28.5 122.1 28.6 121.7 28.9 C 121.4 29.2 121.3 29.7 121.3 30.5 C 121.25 30.51 121.3 33.9 121.3 33.9 L 120.2 33.9 Z M 130.9 33.9 C 130.9 33.9 130.91 33.12 130.9 33.1 C 130.5 33.7 129.9 34.1 129.2 34.1 C 128.7 34.1 128.2 33.9 127.8 33.6 C 127.4 33.4 127.1 33 126.8 32.5 C 126.6 32 126.5 31.4 126.5 30.8 C 126.5 30.2 126.6 29.6 126.8 29.1 C 127 28.6 127.3 28.2 127.7 28 C 128.1 27.7 128.6 27.5 129.1 27.5 C 129.5 27.5 129.8 27.6 130.1 27.8 C 130.4 27.9 130.7 28.1 130.8 28.4 C 130.84 28.4 130.8 25.3 130.8 25.3 L 131.9 25.3 L 131.9 33.9 L 130.9 33.9 Z M 127.6 30.8 C 127.6 31.6 127.7 32.2 128.1 32.6 C 128.4 33 128.8 33.2 129.3 33.2 C 129.7 33.2 130.1 33 130.4 32.6 C 130.8 32.2 130.9 31.7 130.9 30.9 C 130.9 30 130.8 29.4 130.4 29 C 130.1 28.6 129.7 28.4 129.2 28.4 C 128.8 28.4 128.4 28.6 128 29 C 127.7 29.4 127.6 30 127.6 30.8 Z M 133.6 26.5 L 133.6 25.3 L 134.6 25.3 L 134.6 26.5 L 133.6 26.5 Z M 133.6 33.9 L 133.6 27.7 L 134.6 27.7 L 134.6 33.9 L 133.6 33.9 Z M 136.2 33.9 L 136.2 27.7 L 137.2 27.7 C 137.2 27.7 137.16 28.57 137.2 28.6 C 137.6 27.9 138.3 27.5 139.1 27.5 C 139.5 27.5 139.9 27.6 140.2 27.7 C 140.5 27.9 140.7 28.1 140.9 28.3 C 141 28.5 141.1 28.8 141.2 29.1 C 141.2 29.3 141.3 29.6 141.3 30.1 C 141.27 30.08 141.3 33.9 141.3 33.9 L 140.2 33.9 C 140.2 33.9 140.21 30.12 140.2 30.1 C 140.2 29.7 140.2 29.4 140.1 29.2 C 140 28.9 139.9 28.8 139.7 28.7 C 139.4 28.5 139.2 28.5 138.9 28.5 C 138.5 28.5 138.1 28.6 137.8 28.9 C 137.4 29.2 137.3 29.7 137.3 30.5 C 137.27 30.51 137.3 33.9 137.3 33.9 L 136.2 33.9 Z M 142.7 34.4 C 142.7 34.4 143.7 34.6 143.7 34.6 C 143.8 34.9 143.9 35.1 144.1 35.3 C 144.3 35.5 144.7 35.6 145.1 35.6 C 145.6 35.6 146 35.5 146.3 35.3 C 146.5 35.1 146.7 34.8 146.8 34.4 C 146.9 34.2 146.9 33.8 146.9 33.1 C 146.4 33.6 145.9 33.9 145.2 33.9 C 144.3 33.9 143.7 33.6 143.2 33 C 142.7 32.4 142.5 31.6 142.5 30.8 C 142.5 30.2 142.6 29.6 142.8 29.1 C 143 28.6 143.3 28.2 143.7 28 C 144.1 27.7 144.6 27.5 145.2 27.5 C 145.9 27.5 146.5 27.8 147 28.4 C 146.99 28.44 147 27.7 147 27.7 L 148 27.7 C 148 27.7 147.97 33.07 148 33.1 C 148 34 147.9 34.7 147.7 35.1 C 147.5 35.5 147.2 35.8 146.7 36.1 C 146.3 36.3 145.8 36.4 145.2 36.4 C 144.4 36.4 143.8 36.3 143.4 35.9 C 142.9 35.6 142.7 35.1 142.7 34.4 Z M 143.6 30.7 C 143.6 31.5 143.7 32.1 144.1 32.5 C 144.4 32.8 144.8 33 145.3 33 C 145.8 33 146.2 32.9 146.5 32.5 C 146.8 32.1 147 31.5 147 30.7 C 147 30 146.8 29.4 146.5 29 C 146.1 28.6 145.7 28.4 145.3 28.4 C 144.8 28.4 144.4 28.6 144.1 29 C 143.7 29.4 143.6 29.9 143.6 30.7 Z M 152.5 30.8 C 152.5 29.6 152.8 28.8 153.5 28.2 C 154 27.8 154.7 27.5 155.4 27.5 C 156.3 27.5 157 27.8 157.5 28.4 C 158.1 28.9 158.3 29.7 158.3 30.7 C 158.3 31.5 158.2 32.1 158 32.6 C 157.7 33.1 157.4 33.4 156.9 33.7 C 156.5 33.9 156 34.1 155.4 34.1 C 154.5 34.1 153.8 33.8 153.3 33.2 C 152.8 32.7 152.5 31.8 152.5 30.8 Z M 153.6 30.8 C 153.6 31.6 153.8 32.2 154.1 32.6 C 154.5 33 154.9 33.2 155.4 33.2 C 155.9 33.2 156.4 33 156.7 32.6 C 157.1 32.2 157.2 31.6 157.2 30.8 C 157.2 30 157.1 29.4 156.7 29 C 156.4 28.6 155.9 28.4 155.4 28.4 C 154.9 28.4 154.5 28.6 154.1 29 C 153.8 29.4 153.6 30 153.6 30.8 Z M 159.6 33.9 L 159.6 27.7 L 160.5 27.7 C 160.5 27.7 160.52 28.57 160.5 28.6 C 161 27.9 161.6 27.5 162.5 27.5 C 162.9 27.5 163.2 27.6 163.5 27.7 C 163.8 27.9 164.1 28.1 164.2 28.3 C 164.4 28.5 164.5 28.8 164.6 29.1 C 164.6 29.3 164.6 29.6 164.6 30.1 C 164.63 30.08 164.6 33.9 164.6 33.9 L 163.6 33.9 C 163.6 33.9 163.57 30.12 163.6 30.1 C 163.6 29.7 163.5 29.4 163.4 29.2 C 163.4 28.9 163.2 28.8 163 28.7 C 162.8 28.5 162.6 28.5 162.3 28.5 C 161.8 28.5 161.4 28.6 161.1 28.9 C 160.8 29.2 160.6 29.7 160.6 30.5 C 160.62 30.51 160.6 33.9 160.6 33.9 L 159.6 33.9 Z M 170.7 33.9 L 168.8 27.7 L 169.9 27.7 L 170.9 31.3 C 170.9 31.3 171.27 32.62 171.3 32.6 C 171.3 32.5 171.4 32.1 171.6 31.3 C 171.59 31.33 172.6 27.7 172.6 27.7 L 173.7 27.7 L 174.6 31.3 L 174.9 32.5 L 175.3 31.3 L 176.3 27.7 L 177.4 27.7 L 175.4 33.9 L 174.3 33.9 L 173.3 30.2 L 173.1 29.1 L 171.8 33.9 L 170.7 33.9 Z M 178.2 33.9 L 178.2 25.3 L 179.3 25.3 C 179.3 25.3 179.3 28.4 179.3 28.4 C 179.8 27.8 180.4 27.5 181.2 27.5 C 181.6 27.5 182 27.6 182.4 27.8 C 182.7 28 182.9 28.3 183.1 28.6 C 183.2 28.9 183.3 29.4 183.3 30 C 183.31 29.97 183.3 33.9 183.3 33.9 L 182.3 33.9 C 182.3 33.9 182.26 29.97 182.3 30 C 182.3 29.4 182.1 29.1 181.9 28.8 C 181.7 28.6 181.4 28.5 180.9 28.5 C 180.6 28.5 180.3 28.5 180.1 28.7 C 179.8 28.9 179.6 29.1 179.5 29.4 C 179.4 29.6 179.3 30 179.3 30.5 C 179.3 30.51 179.3 33.9 179.3 33.9 L 178.2 33.9 Z M 189.2 33.9 C 189.1 33.7 189 33.4 189 33.1 C 188.6 33.5 188.2 33.7 187.8 33.8 C 187.5 34 187.1 34.1 186.7 34.1 C 186 34.1 185.5 33.9 185.1 33.5 C 184.7 33.2 184.6 32.8 184.6 32.3 C 184.6 32 184.6 31.7 184.8 31.4 C 184.9 31.2 185.1 31 185.3 30.8 C 185.5 30.7 185.8 30.6 186.1 30.5 C 186.3 30.4 186.6 30.4 187 30.3 C 187.9 30.2 188.5 30.1 188.9 30 C 188.9 29.8 188.9 29.7 188.9 29.7 C 188.9 29.3 188.8 29 188.6 28.8 C 188.3 28.5 187.9 28.4 187.4 28.4 C 186.9 28.4 186.5 28.5 186.3 28.7 C 186.1 28.9 185.9 29.2 185.8 29.6 C 185.8 29.6 184.7 29.5 184.7 29.5 C 184.8 29 185 28.7 185.2 28.4 C 185.4 28.1 185.7 27.9 186.1 27.8 C 186.5 27.6 187 27.5 187.5 27.5 C 188.1 27.5 188.5 27.6 188.8 27.7 C 189.2 27.9 189.4 28 189.6 28.2 C 189.7 28.4 189.8 28.6 189.9 28.9 C 189.9 29.1 190 29.4 190 29.9 C 190 29.9 190 31.3 190 31.3 C 190 32.3 190 32.9 190 33.2 C 190.1 33.4 190.2 33.7 190.3 33.9 C 190.29 33.91 189.2 33.9 189.2 33.9 C 189.2 33.9 189.19 33.91 189.2 33.9 Z M 188.9 30.8 C 188.5 30.9 187.9 31.1 187.2 31.2 C 186.7 31.2 186.4 31.3 186.2 31.4 C 186.1 31.5 185.9 31.6 185.8 31.7 C 185.7 31.9 185.7 32.1 185.7 32.2 C 185.7 32.5 185.8 32.8 186 32.9 C 186.2 33.1 186.5 33.2 186.9 33.2 C 187.3 33.2 187.7 33.1 188 33 C 188.3 32.8 188.6 32.5 188.7 32.2 C 188.8 32 188.9 31.6 188.9 31.2 C 188.9 31.2 188.9 30.8 188.9 30.8 Z M 193.4 33 C 193.5 33 193.7 33 193.9 33 C 193.9 33 194 33.9 194 33.9 C 193.7 34 193.5 34 193.2 34 C 192.9 34 192.6 33.9 192.4 33.8 C 192.1 33.7 192 33.5 191.9 33.3 C 191.8 33.1 191.8 32.7 191.8 32.1 C 191.78 32.09 191.8 28.5 191.8 28.5 L 191 28.5 L 191 27.7 L 191.8 27.7 L 191.8 26.1 L 192.8 25.5 L 192.8 27.7 L 193.9 27.7 L 193.9 28.5 L 192.8 28.5 C 192.8 28.5 192.83 32.15 192.8 32.1 C 192.8 32.4 192.9 32.6 192.9 32.7 C 192.9 32.8 193 32.9 193.1 32.9 C 193.2 33 193.3 33 193.4 33 C 193.4 33 193.4 33 193.4 33 Z M 199.4 33.9 L 197.5 27.7 L 198.6 27.7 L 199.6 31.3 C 199.6 31.3 199.95 32.62 200 32.6 C 200 32.5 200.1 32.1 200.3 31.3 C 200.27 31.33 201.3 27.7 201.3 27.7 L 202.3 27.7 L 203.3 31.3 L 203.6 32.5 L 203.9 31.3 L 205 27.7 L 206 27.7 L 204.1 33.9 L 203 33.9 L 202 30.2 L 201.8 29.1 L 200.5 33.9 L 199.4 33.9 Z M 211.2 31.9 C 211.2 31.9 212.3 32 212.3 32 C 212.1 32.7 211.8 33.2 211.3 33.5 C 210.9 33.9 210.3 34.1 209.5 34.1 C 208.6 34.1 207.9 33.8 207.4 33.2 C 206.8 32.6 206.6 31.9 206.6 30.9 C 206.6 29.8 206.8 29 207.4 28.4 C 207.9 27.8 208.6 27.5 209.5 27.5 C 210.3 27.5 211 27.8 211.5 28.4 C 212 29 212.3 29.8 212.3 30.8 C 212.3 30.8 212.3 30.9 212.3 31.1 C 212.3 31.1 207.7 31.1 207.7 31.1 C 207.7 31.8 207.9 32.3 208.2 32.6 C 208.6 33 209 33.2 209.5 33.2 C 209.9 33.2 210.3 33.1 210.5 32.9 C 210.8 32.7 211 32.4 211.2 31.9 Z M 207.7 30.2 C 207.7 30.2 211.2 30.2 211.2 30.2 C 211.1 29.7 211 29.3 210.8 29 C 210.5 28.6 210 28.4 209.5 28.4 C 209 28.4 208.6 28.6 208.3 28.9 C 207.9 29.2 207.8 29.7 207.7 30.2 Z M 221 31.6 C 221 31.6 222 31.8 222 31.8 C 221.9 32.5 221.6 33 221.2 33.4 C 220.7 33.8 220.1 34.1 219.4 34.1 C 218.6 34.1 217.9 33.8 217.4 33.2 C 216.9 32.7 216.6 31.9 216.6 30.8 C 216.6 30.2 216.7 29.6 216.9 29.1 C 217.2 28.6 217.5 28.2 218 27.9 C 218.4 27.7 218.9 27.5 219.4 27.5 C 220.1 27.5 220.7 27.7 221.1 28.1 C 221.5 28.4 221.8 28.9 221.9 29.5 C 221.9 29.5 220.9 29.7 220.9 29.7 C 220.8 29.3 220.6 28.9 220.4 28.7 C 220.1 28.5 219.8 28.4 219.5 28.4 C 219 28.4 218.5 28.6 218.2 29 C 217.9 29.4 217.7 30 217.7 30.8 C 217.7 31.6 217.9 32.2 218.2 32.6 C 218.5 33 218.9 33.2 219.4 33.2 C 219.8 33.2 220.2 33.1 220.5 32.8 C 220.7 32.5 220.9 32.2 221 31.6 Z M 227.2 33.9 C 227.1 33.7 227 33.4 227 33.1 C 226.6 33.5 226.2 33.7 225.9 33.8 C 225.5 34 225.1 34.1 224.7 34.1 C 224 34.1 223.5 33.9 223.1 33.5 C 222.8 33.2 222.6 32.8 222.6 32.3 C 222.6 32 222.6 31.7 222.8 31.4 C 222.9 31.2 223.1 31 223.3 30.8 C 223.6 30.7 223.8 30.6 224.1 30.5 C 224.3 30.4 224.6 30.4 225 30.3 C 225.9 30.2 226.5 30.1 226.9 30 C 226.9 29.8 226.9 29.7 226.9 29.7 C 226.9 29.3 226.8 29 226.6 28.8 C 226.3 28.5 225.9 28.4 225.4 28.4 C 224.9 28.4 224.5 28.5 224.3 28.7 C 224.1 28.9 223.9 29.2 223.8 29.6 C 223.8 29.6 222.8 29.5 222.8 29.5 C 222.8 29 223 28.7 223.2 28.4 C 223.4 28.1 223.7 27.9 224.2 27.8 C 224.6 27.6 225 27.5 225.6 27.5 C 226.1 27.5 226.5 27.6 226.9 27.7 C 227.2 27.9 227.4 28 227.6 28.2 C 227.7 28.4 227.9 28.6 227.9 28.9 C 228 29.1 228 29.4 228 29.9 C 228 29.9 228 31.3 228 31.3 C 228 32.3 228 32.9 228 33.2 C 228.1 33.4 228.2 33.7 228.3 33.9 C 228.3 33.91 227.2 33.9 227.2 33.9 C 227.2 33.9 227.2 33.91 227.2 33.9 Z M 226.9 30.8 C 226.5 30.9 225.9 31.1 225.2 31.2 C 224.7 31.2 224.4 31.3 224.3 31.4 C 224.1 31.5 223.9 31.6 223.8 31.7 C 223.7 31.9 223.7 32.1 223.7 32.2 C 223.7 32.5 223.8 32.8 224 32.9 C 224.2 33.1 224.5 33.2 225 33.2 C 225.4 33.2 225.7 33.1 226 33 C 226.4 32.8 226.6 32.5 226.7 32.2 C 226.8 32 226.9 31.6 226.9 31.2 C 226.9 31.2 226.9 30.8 226.9 30.8 Z M 229.6 33.9 L 229.6 27.7 L 230.6 27.7 C 230.6 27.7 230.55 28.57 230.6 28.6 C 231 27.9 231.7 27.5 232.5 27.5 C 232.9 27.5 233.3 27.6 233.6 27.7 C 233.9 27.9 234.1 28.1 234.3 28.3 C 234.4 28.5 234.5 28.8 234.6 29.1 C 234.6 29.3 234.7 29.6 234.7 30.1 C 234.66 30.08 234.7 33.9 234.7 33.9 L 233.6 33.9 C 233.6 33.9 233.61 30.12 233.6 30.1 C 233.6 29.7 233.6 29.4 233.5 29.2 C 233.4 28.9 233.3 28.8 233 28.7 C 232.8 28.5 232.6 28.5 232.3 28.5 C 231.9 28.5 231.5 28.6 231.1 28.9 C 230.8 29.2 230.7 29.7 230.7 30.5 C 230.66 30.51 230.7 33.9 230.7 33.9 L 229.6 33.9 Z M 243.7 33.9 C 243.7 33.9 243.65 33.12 243.7 33.1 C 243.3 33.7 242.7 34.1 241.9 34.1 C 241.4 34.1 241 33.9 240.5 33.6 C 240.1 33.4 239.8 33 239.6 32.5 C 239.3 32 239.2 31.4 239.2 30.8 C 239.2 30.2 239.3 29.6 239.5 29.1 C 239.7 28.6 240.1 28.2 240.5 28 C 240.9 27.7 241.4 27.5 241.9 27.5 C 242.2 27.5 242.6 27.6 242.9 27.8 C 243.2 27.9 243.4 28.1 243.6 28.4 C 243.58 28.4 243.6 25.3 243.6 25.3 L 244.6 25.3 L 244.6 33.9 L 243.7 33.9 Z M 240.3 30.8 C 240.3 31.6 240.5 32.2 240.8 32.6 C 241.2 33 241.6 33.2 242 33.2 C 242.5 33.2 242.9 33 243.2 32.6 C 243.5 32.2 243.7 31.7 243.7 30.9 C 243.7 30 243.5 29.4 243.2 29 C 242.8 28.6 242.4 28.4 242 28.4 C 241.5 28.4 241.1 28.6 240.8 29 C 240.5 29.4 240.3 30 240.3 30.8 Z M 245.9 30.8 C 245.9 29.6 246.2 28.8 246.9 28.2 C 247.4 27.8 248 27.5 248.8 27.5 C 249.7 27.5 250.4 27.8 250.9 28.4 C 251.5 28.9 251.7 29.7 251.7 30.7 C 251.7 31.5 251.6 32.1 251.4 32.6 C 251.1 33.1 250.8 33.4 250.3 33.7 C 249.9 33.9 249.4 34.1 248.8 34.1 C 247.9 34.1 247.2 33.8 246.7 33.2 C 246.2 32.7 245.9 31.8 245.9 30.8 Z M 247 30.8 C 247 31.6 247.2 32.2 247.5 32.6 C 247.8 33 248.3 33.2 248.8 33.2 C 249.3 33.2 249.8 33 250.1 32.6 C 250.5 32.2 250.6 31.6 250.6 30.8 C 250.6 30 250.5 29.4 250.1 29 C 249.8 28.6 249.3 28.4 248.8 28.4 C 248.3 28.4 247.8 28.6 247.5 29 C 247.2 29.4 247 30 247 30.8 Z " stroke="none" fill="#010102"/>  </g>  <g id="Polygon1683">    <path d="M 11.5 1.7 C 11.5 1.7 11.5 3.1 11.5 3.1 C 10.2 2.4 8.8 1.9 7.4 1.9 C 4.2 1.9 2.3 4.3 2.3 7 C 2.3 9.8 4.2 12 7.3 12 C 8.9 12 10.3 11.6 11.6 10.8 C 11.6 10.8 11.6 12.3 11.6 12.3 C 10.2 13 8.8 13.3 7.3 13.3 C 3.1 13.3 0.8 10.1 0.8 7 C 0.8 3.4 3.7 0.7 7.3 0.7 C 8.7 0.7 10.1 1 11.5 1.7 Z M 18.9 0.8 L 24.4 13.1 L 23 13.1 L 21.3 9.3 L 15.7 9.3 L 14.1 13.1 L 12.7 13.1 L 18 0.8 L 18.9 0.8 Z M 16.2 8.1 L 20.8 8.1 L 18.4 2.8 L 16.2 8.1 Z M 31.8 1.5 C 31.8 1.5 31.8 3 31.8 3 C 30.9 2.3 30 1.9 29 1.9 C 27.7 1.9 26.9 2.6 26.9 3.7 C 26.9 4.5 27.1 5.2 29.1 6.2 C 31.6 7.5 32.3 8.4 32.3 10.1 C 32.3 11.9 30.9 13.3 28.7 13.3 C 27.6 13.3 26.5 12.9 25.6 12.2 C 25.6 12.2 25.6 10.5 25.6 10.5 C 26.5 11.5 27.6 12.1 28.7 12.1 C 30 12.1 30.9 11.3 30.9 10.1 C 30.9 9.1 30.5 8.5 28.2 7.2 C 26.2 6.2 25.5 5.3 25.5 3.7 C 25.5 2 27 0.7 29.1 0.7 C 30 0.7 31 1 31.8 1.5 Z M 41.1 0.8 L 41.1 2.1 L 35.7 2.1 L 35.7 6.3 L 40.9 6.3 L 40.9 7.5 L 35.7 7.5 L 35.7 11.9 L 41.2 11.9 L 41.2 13.1 L 34.4 13.1 L 34.4 0.8 L 41.1 0.8 Z M 54.1 1.5 C 54.1 1.5 54.1 3 54.1 3 C 53.2 2.3 52.3 1.9 51.3 1.9 C 50 1.9 49.2 2.6 49.2 3.7 C 49.2 4.5 49.4 5.2 51.4 6.2 C 53.9 7.5 54.6 8.4 54.6 10.1 C 54.6 11.9 53.2 13.3 51 13.3 C 49.9 13.3 48.8 12.9 47.9 12.2 C 47.9 12.2 47.9 10.5 47.9 10.5 C 48.8 11.5 49.9 12.1 51 12.1 C 52.3 12.1 53.2 11.3 53.2 10.1 C 53.2 9.1 52.8 8.5 50.5 7.2 C 48.5 6.2 47.8 5.3 47.8 3.7 C 47.8 2 49.3 0.7 51.4 0.7 C 52.3 0.7 53.3 1 54.1 1.5 Z M 65.6 0.8 L 65.6 2 L 61.2 2 L 61.2 13.1 L 59.9 13.1 L 59.9 2 L 55.5 2 L 55.5 0.8 L 65.6 0.8 Z M 68.5 0.8 C 68.5 0.8 68.47 7.92 68.5 7.9 C 68.5 10.6 69.7 12.1 72.3 12.1 C 74.8 12.1 76.1 10.6 76.1 7.9 C 76.07 7.92 76.1 0.8 76.1 0.8 L 77.4 0.8 C 77.4 0.8 77.42 7.92 77.4 7.9 C 77.4 11.1 75.7 13.3 72.3 13.3 C 68.9 13.3 67.1 11.4 67.1 7.9 C 67.12 7.92 67.1 0.8 67.1 0.8 L 68.5 0.8 Z M 80 0.8 C 80 0.8 84.55 0.85 84.5 0.8 C 88.6 0.8 91.2 3.3 91.2 6.9 C 91.2 10.7 88.5 13.1 84.5 13.1 C 84.55 13.12 80 13.1 80 13.1 L 80 0.8 Z M 84.5 11.9 C 87.7 11.9 89.7 10 89.7 7 C 89.7 4 87.8 2.1 84.3 2.1 C 84.33 2.05 81.4 2.1 81.4 2.1 L 81.4 11.9 C 81.4 11.9 84.53 11.9 84.5 11.9 Z M 94.8 0.8 L 94.8 13.1 L 93.4 13.1 L 93.4 0.8 L 94.8 0.8 Z M 104.2 0.8 L 104.2 2.1 L 98.9 2.1 L 98.9 6.3 L 104 6.3 L 104 7.5 L 98.9 7.5 L 98.9 11.9 L 104.4 11.9 L 104.4 13.1 L 97.5 13.1 L 97.5 0.8 L 104.2 0.8 Z M 112.2 1.5 C 112.2 1.5 112.2 3 112.2 3 C 111.4 2.3 110.5 1.9 109.5 1.9 C 108.2 1.9 107.3 2.6 107.3 3.7 C 107.3 4.5 107.5 5.2 109.5 6.2 C 112.1 7.5 112.7 8.4 112.7 10.1 C 112.7 11.9 111.3 13.3 109.2 13.3 C 108 13.3 106.9 12.9 106 12.2 C 106 12.2 106 10.5 106 10.5 C 106.9 11.5 108 12.1 109.2 12.1 C 110.4 12.1 111.3 11.3 111.3 10.1 C 111.3 9.1 111 8.5 108.6 7.2 C 106.7 6.2 105.9 5.3 105.9 3.7 C 105.9 2 107.4 0.7 109.5 0.7 C 110.4 0.7 111.4 1 112.2 1.5 Z " stroke="none" fill="#010102"/>  </g></svg>