<?xml version="1.0" standalone="no"?><!DOCTYPE svg PUBLIC "-//W3C//DTD SVG 1.1//EN" "http://www.w3.org/Graphics/SVG/1.1/DTD/svg11.dtd"><svg xmlns="http://www.w3.org/2000/svg" version="1.1" width="247px" height="45.5px" viewBox="0 -5 247 45.5" style="top:-5px">  <desc>Survey Help us to continuously improve.</desc>  <defs/>  <g id="Polygon861">    <path d="M 1 33.1 L 1 24.5 L 2.1 24.5 L 2.1 28.1 L 6.6 28.1 L 6.6 24.5 L 7.7 24.5 L 7.7 33.1 L 6.6 33.1 L 6.6 29.1 L 2.1 29.1 L 2.1 33.1 L 1 33.1 Z M 13.7 31.1 C 13.7 31.1 14.8 31.3 14.8 31.3 C 14.6 31.9 14.3 32.4 13.9 32.7 C 13.4 33.1 12.8 33.3 12.1 33.3 C 11.2 33.3 10.4 33 9.9 32.4 C 9.4 31.9 9.1 31.1 9.1 30.1 C 9.1 29 9.4 28.2 9.9 27.6 C 10.5 27 11.2 26.8 12 26.8 C 12.8 26.8 13.5 27 14.1 27.6 C 14.6 28.2 14.8 29 14.8 30 C 14.8 30.1 14.8 30.2 14.8 30.3 C 14.8 30.3 10.2 30.3 10.2 30.3 C 10.2 31 10.4 31.5 10.8 31.9 C 11.1 32.2 11.6 32.4 12.1 32.4 C 12.5 32.4 12.8 32.3 13.1 32.1 C 13.3 31.9 13.6 31.6 13.7 31.1 Z M 10.3 29.4 C 10.3 29.4 13.7 29.4 13.7 29.4 C 13.7 28.9 13.5 28.5 13.3 28.2 C 13 27.8 12.6 27.6 12 27.6 C 11.5 27.6 11.1 27.8 10.8 28.1 C 10.5 28.4 10.3 28.9 10.3 29.4 Z M 16.1 33.1 L 16.1 24.5 L 17.2 24.5 L 17.2 33.1 L 16.1 33.1 Z M 18.8 35.5 L 18.8 26.9 L 19.8 26.9 C 19.8 26.9 19.76 27.71 19.8 27.7 C 20 27.4 20.2 27.2 20.5 27 C 20.8 26.8 21.2 26.8 21.6 26.8 C 22.1 26.8 22.6 26.9 23 27.2 C 23.4 27.4 23.7 27.8 23.9 28.3 C 24.1 28.8 24.2 29.4 24.2 30 C 24.2 30.6 24.1 31.2 23.9 31.7 C 23.6 32.2 23.3 32.6 22.9 32.9 C 22.4 33.1 22 33.3 21.5 33.3 C 21.1 33.3 20.8 33.2 20.5 33 C 20.3 32.9 20 32.7 19.9 32.5 C 19.85 32.48 19.9 35.5 19.9 35.5 L 18.8 35.5 Z M 19.8 30 C 19.8 30.8 19.9 31.4 20.2 31.8 C 20.6 32.2 21 32.4 21.4 32.4 C 21.9 32.4 22.3 32.2 22.6 31.8 C 23 31.4 23.1 30.8 23.1 30 C 23.1 29.2 23 28.6 22.6 28.2 C 22.3 27.8 21.9 27.6 21.5 27.6 C 21 27.6 20.6 27.8 20.3 28.2 C 19.9 28.6 19.8 29.2 19.8 30 Z M 32.9 33.1 C 32.9 33.1 32.88 32.21 32.9 32.2 C 32.4 32.9 31.7 33.3 30.9 33.3 C 30.5 33.3 30.2 33.2 29.9 33.1 C 29.6 32.9 29.3 32.7 29.2 32.5 C 29 32.3 28.9 32 28.8 31.7 C 28.8 31.5 28.8 31.2 28.8 30.8 C 28.78 30.75 28.8 26.9 28.8 26.9 L 29.8 26.9 C 29.8 26.9 29.84 30.35 29.8 30.4 C 29.8 30.9 29.9 31.3 29.9 31.5 C 30 31.7 30.1 32 30.3 32.1 C 30.5 32.3 30.8 32.4 31.1 32.4 C 31.4 32.4 31.7 32.3 32 32.1 C 32.3 31.9 32.5 31.7 32.6 31.4 C 32.7 31.2 32.8 30.8 32.8 30.2 C 32.77 30.23 32.8 26.9 32.8 26.9 L 33.8 26.9 L 33.8 33.1 L 32.9 33.1 Z M 35.1 31.3 C 35.1 31.3 36.1 31.1 36.1 31.1 C 36.2 31.5 36.3 31.8 36.6 32.1 C 36.9 32.3 37.2 32.4 37.7 32.4 C 38.2 32.4 38.6 32.3 38.8 32.1 C 39 31.9 39.1 31.7 39.1 31.4 C 39.1 31.2 39 31 38.8 30.8 C 38.7 30.7 38.3 30.6 37.8 30.5 C 37 30.3 36.4 30.1 36.1 30 C 35.8 29.8 35.6 29.6 35.5 29.4 C 35.3 29.1 35.2 28.9 35.2 28.6 C 35.2 28.3 35.3 28 35.4 27.8 C 35.5 27.5 35.7 27.3 35.9 27.2 C 36.1 27.1 36.3 27 36.6 26.9 C 36.9 26.8 37.2 26.8 37.5 26.8 C 38 26.8 38.4 26.8 38.8 27 C 39.2 27.1 39.5 27.3 39.6 27.5 C 39.8 27.8 39.9 28.1 40 28.5 C 40 28.5 39 28.6 39 28.6 C 38.9 28.3 38.8 28.1 38.6 27.9 C 38.3 27.7 38 27.6 37.6 27.6 C 37.1 27.6 36.8 27.7 36.6 27.9 C 36.4 28 36.3 28.2 36.3 28.4 C 36.3 28.6 36.3 28.7 36.4 28.8 C 36.5 28.9 36.6 29 36.8 29.1 C 36.9 29.1 37.2 29.2 37.7 29.3 C 38.5 29.5 39 29.7 39.3 29.8 C 39.6 30 39.8 30.1 40 30.4 C 40.1 30.6 40.2 30.9 40.2 31.3 C 40.2 31.6 40.1 32 39.9 32.3 C 39.7 32.6 39.4 32.8 39 33 C 38.6 33.2 38.2 33.3 37.7 33.3 C 36.9 33.3 36.3 33.1 35.9 32.8 C 35.4 32.4 35.2 31.9 35.1 31.3 Z M 46.7 32.2 C 46.8 32.2 46.9 32.2 47.1 32.2 C 47.1 32.2 47.3 33.1 47.3 33.1 C 47 33.2 46.7 33.2 46.5 33.2 C 46.1 33.2 45.8 33.1 45.6 33 C 45.4 32.9 45.2 32.7 45.1 32.5 C 45 32.3 45 31.9 45 31.3 C 45.01 31.3 45 27.7 45 27.7 L 44.2 27.7 L 44.2 26.9 L 45 26.9 L 45 25.4 L 46.1 24.7 L 46.1 26.9 L 47.1 26.9 L 47.1 27.7 L 46.1 27.7 C 46.1 27.7 46.05 31.36 46.1 31.4 C 46.1 31.7 46.1 31.9 46.1 31.9 C 46.1 32 46.2 32.1 46.3 32.1 C 46.4 32.2 46.5 32.2 46.7 32.2 C 46.7 32.2 46.7 32.2 46.7 32.2 Z M 47.8 30 C 47.8 28.9 48.1 28 48.7 27.4 C 49.2 27 49.9 26.8 50.7 26.8 C 51.5 26.8 52.2 27 52.8 27.6 C 53.3 28.2 53.6 28.9 53.6 29.9 C 53.6 30.7 53.5 31.4 53.2 31.8 C 53 32.3 52.6 32.6 52.2 32.9 C 51.7 33.1 51.2 33.3 50.7 33.3 C 49.8 33.3 49.1 33 48.6 32.4 C 48 31.9 47.8 31.1 47.8 30 Z M 48.8 30 C 48.8 30.8 49 31.4 49.4 31.8 C 49.7 32.2 50.1 32.4 50.7 32.4 C 51.2 32.4 51.6 32.2 52 31.8 C 52.3 31.4 52.5 30.8 52.5 30 C 52.5 29.2 52.3 28.6 52 28.2 C 51.6 27.8 51.2 27.6 50.7 27.6 C 50.1 27.6 49.7 27.8 49.4 28.2 C 49 28.6 48.8 29.2 48.8 30 Z M 62.2 30.8 C 62.2 30.8 63.3 31 63.3 31 C 63.1 31.7 62.8 32.3 62.4 32.7 C 61.9 33.1 61.3 33.3 60.7 33.3 C 59.8 33.3 59.1 33 58.6 32.4 C 58.1 31.9 57.8 31.1 57.8 30 C 57.8 29.4 57.9 28.8 58.2 28.3 C 58.4 27.8 58.7 27.4 59.2 27.1 C 59.6 26.9 60.1 26.8 60.7 26.8 C 61.3 26.8 61.9 26.9 62.3 27.3 C 62.8 27.6 63 28.1 63.2 28.7 C 63.2 28.7 62.1 28.9 62.1 28.9 C 62 28.5 61.9 28.2 61.6 27.9 C 61.4 27.7 61.1 27.6 60.7 27.6 C 60.2 27.6 59.7 27.8 59.4 28.2 C 59.1 28.6 58.9 29.2 58.9 30 C 58.9 30.8 59.1 31.4 59.4 31.8 C 59.7 32.2 60.1 32.4 60.7 32.4 C 61.1 32.4 61.4 32.3 61.7 32 C 62 31.8 62.1 31.4 62.2 30.8 Z M 63.8 30 C 63.8 28.9 64.1 28 64.7 27.4 C 65.3 27 65.9 26.8 66.7 26.8 C 67.5 26.8 68.2 27 68.8 27.6 C 69.3 28.2 69.6 28.9 69.6 29.9 C 69.6 30.7 69.5 31.4 69.2 31.8 C 69 32.3 68.6 32.6 68.2 32.9 C 67.7 33.1 67.2 33.3 66.7 33.3 C 65.8 33.3 65.1 33 64.6 32.4 C 64 31.9 63.8 31.1 63.8 30 Z M 64.8 30 C 64.8 30.8 65 31.4 65.4 31.8 C 65.7 32.2 66.2 32.4 66.7 32.4 C 67.2 32.4 67.6 32.2 68 31.8 C 68.3 31.4 68.5 30.8 68.5 30 C 68.5 29.2 68.3 28.6 68 28.2 C 67.6 27.8 67.2 27.6 66.7 27.6 C 66.2 27.6 65.7 27.8 65.4 28.2 C 65 28.6 64.8 29.2 64.8 30 Z M 70.8 33.1 L 70.8 26.9 L 71.8 26.9 C 71.8 26.9 71.78 27.78 71.8 27.8 C 72.2 27.1 72.9 26.8 73.8 26.8 C 74.1 26.8 74.5 26.8 74.8 27 C 75.1 27.1 75.3 27.3 75.5 27.5 C 75.7 27.7 75.8 28 75.8 28.3 C 75.9 28.5 75.9 28.8 75.9 29.3 C 75.88 29.3 75.9 33.1 75.9 33.1 L 74.8 33.1 C 74.8 33.1 74.83 29.34 74.8 29.3 C 74.8 28.9 74.8 28.6 74.7 28.4 C 74.6 28.2 74.5 28 74.3 27.9 C 74.1 27.7 73.8 27.7 73.5 27.7 C 73.1 27.7 72.7 27.8 72.4 28.1 C 72 28.4 71.9 28.9 71.9 29.7 C 71.88 29.72 71.9 33.1 71.9 33.1 L 70.8 33.1 Z M 79.3 32.2 C 79.5 32.2 79.6 32.2 79.8 32.2 C 79.8 32.2 80 33.1 80 33.1 C 79.7 33.2 79.4 33.2 79.2 33.2 C 78.8 33.2 78.5 33.1 78.3 33 C 78.1 32.9 77.9 32.7 77.8 32.5 C 77.7 32.3 77.7 31.9 77.7 31.3 C 77.7 31.3 77.7 27.7 77.7 27.7 L 76.9 27.7 L 76.9 26.9 L 77.7 26.9 L 77.7 25.4 L 78.7 24.7 L 78.7 26.9 L 79.8 26.9 L 79.8 27.7 L 78.7 27.7 C 78.7 27.7 78.74 31.36 78.7 31.4 C 78.7 31.7 78.8 31.9 78.8 31.9 C 78.8 32 78.9 32.1 79 32.1 C 79.1 32.2 79.2 32.2 79.3 32.2 C 79.3 32.2 79.3 32.2 79.3 32.2 Z M 80.8 25.7 L 80.8 24.5 L 81.9 24.5 L 81.9 25.7 L 80.8 25.7 Z M 80.8 33.1 L 80.8 26.9 L 81.9 26.9 L 81.9 33.1 L 80.8 33.1 Z M 83.5 33.1 L 83.5 26.9 L 84.5 26.9 C 84.5 26.9 84.45 27.78 84.5 27.8 C 84.9 27.1 85.6 26.8 86.4 26.8 C 86.8 26.8 87.2 26.8 87.5 27 C 87.8 27.1 88 27.3 88.2 27.5 C 88.3 27.7 88.4 28 88.5 28.3 C 88.5 28.5 88.6 28.8 88.6 29.3 C 88.56 29.3 88.6 33.1 88.6 33.1 L 87.5 33.1 C 87.5 33.1 87.5 29.34 87.5 29.3 C 87.5 28.9 87.5 28.6 87.4 28.4 C 87.3 28.2 87.2 28 86.9 27.9 C 86.7 27.7 86.5 27.7 86.2 27.7 C 85.8 27.7 85.4 27.8 85 28.1 C 84.7 28.4 84.6 28.9 84.6 29.7 C 84.56 29.72 84.6 33.1 84.6 33.1 L 83.5 33.1 Z M 94.3 33.1 C 94.3 33.1 94.25 32.21 94.3 32.2 C 93.8 32.9 93.1 33.3 92.3 33.3 C 91.9 33.3 91.6 33.2 91.3 33.1 C 90.9 32.9 90.7 32.7 90.5 32.5 C 90.4 32.3 90.3 32 90.2 31.7 C 90.2 31.5 90.2 31.2 90.2 30.8 C 90.15 30.75 90.2 26.9 90.2 26.9 L 91.2 26.9 C 91.2 26.9 91.21 30.35 91.2 30.4 C 91.2 30.9 91.2 31.3 91.3 31.5 C 91.3 31.7 91.5 32 91.7 32.1 C 91.9 32.3 92.2 32.4 92.5 32.4 C 92.8 32.4 93.1 32.3 93.4 32.1 C 93.7 31.9 93.9 31.7 94 31.4 C 94.1 31.2 94.1 30.8 94.1 30.2 C 94.14 30.23 94.1 26.9 94.1 26.9 L 95.2 26.9 L 95.2 33.1 L 94.3 33.1 Z M 96.5 30 C 96.5 28.9 96.8 28 97.4 27.4 C 98 27 98.6 26.8 99.4 26.8 C 100.2 26.8 100.9 27 101.5 27.6 C 102 28.2 102.3 28.9 102.3 29.9 C 102.3 30.7 102.2 31.4 101.9 31.8 C 101.7 32.3 101.3 32.6 100.9 32.9 C 100.4 33.1 99.9 33.3 99.4 33.3 C 98.5 33.3 97.8 33 97.3 32.4 C 96.7 31.9 96.5 31.1 96.5 30 Z M 97.5 30 C 97.5 30.8 97.7 31.4 98.1 31.8 C 98.4 32.2 98.8 32.4 99.4 32.4 C 99.9 32.4 100.3 32.2 100.7 31.8 C 101 31.4 101.2 30.8 101.2 30 C 101.2 29.2 101 28.6 100.7 28.2 C 100.3 27.8 99.9 27.6 99.4 27.6 C 98.8 27.6 98.4 27.8 98.1 28.2 C 97.7 28.6 97.5 29.2 97.5 30 Z M 107.6 33.1 C 107.6 33.1 107.6 32.21 107.6 32.2 C 107.1 32.9 106.5 33.3 105.6 33.3 C 105.3 33.3 104.9 33.2 104.6 33.1 C 104.3 32.9 104 32.7 103.9 32.5 C 103.7 32.3 103.6 32 103.6 31.7 C 103.5 31.5 103.5 31.2 103.5 30.8 C 103.5 30.75 103.5 26.9 103.5 26.9 L 104.6 26.9 C 104.6 26.9 104.55 30.35 104.6 30.4 C 104.6 30.9 104.6 31.3 104.6 31.5 C 104.7 31.7 104.8 32 105 32.1 C 105.3 32.3 105.5 32.4 105.8 32.4 C 106.2 32.4 106.5 32.3 106.7 32.1 C 107 31.9 107.2 31.7 107.3 31.4 C 107.4 31.2 107.5 30.8 107.5 30.2 C 107.49 30.23 107.5 26.9 107.5 26.9 L 108.5 26.9 L 108.5 33.1 L 107.6 33.1 Z M 109.8 31.3 C 109.8 31.3 110.8 31.1 110.8 31.1 C 110.9 31.5 111 31.8 111.3 32.1 C 111.6 32.3 111.9 32.4 112.4 32.4 C 112.9 32.4 113.3 32.3 113.5 32.1 C 113.7 31.9 113.9 31.7 113.9 31.4 C 113.9 31.2 113.8 31 113.5 30.8 C 113.4 30.7 113 30.6 112.5 30.5 C 111.7 30.3 111.2 30.1 110.9 30 C 110.6 29.8 110.3 29.6 110.2 29.4 C 110 29.1 110 28.9 110 28.6 C 110 28.3 110 28 110.1 27.8 C 110.3 27.5 110.4 27.3 110.7 27.2 C 110.8 27.1 111 27 111.3 26.9 C 111.6 26.8 111.9 26.8 112.2 26.8 C 112.7 26.8 113.2 26.8 113.5 27 C 113.9 27.1 114.2 27.3 114.3 27.5 C 114.5 27.8 114.6 28.1 114.7 28.5 C 114.7 28.5 113.7 28.6 113.7 28.6 C 113.6 28.3 113.5 28.1 113.3 27.9 C 113 27.7 112.7 27.6 112.3 27.6 C 111.8 27.6 111.5 27.7 111.3 27.9 C 111.1 28 111 28.2 111 28.4 C 111 28.6 111 28.7 111.1 28.8 C 111.2 28.9 111.3 29 111.5 29.1 C 111.6 29.1 111.9 29.2 112.4 29.3 C 113.2 29.5 113.7 29.7 114 29.8 C 114.3 30 114.5 30.1 114.7 30.4 C 114.9 30.6 114.9 30.9 114.9 31.3 C 114.9 31.6 114.8 32 114.6 32.3 C 114.4 32.6 114.1 32.8 113.7 33 C 113.4 33.2 112.9 33.3 112.4 33.3 C 111.6 33.3 111 33.1 110.6 32.8 C 110.2 32.4 109.9 31.9 109.8 31.3 Z M 116.2 33.1 L 116.2 24.5 L 117.2 24.5 L 117.2 33.1 L 116.2 33.1 Z M 119.5 35.6 C 119.3 35.6 119.1 35.6 118.8 35.5 C 118.8 35.5 118.7 34.5 118.7 34.5 C 118.9 34.6 119.1 34.6 119.3 34.6 C 119.5 34.6 119.7 34.6 119.9 34.5 C 120 34.4 120.1 34.3 120.2 34.2 C 120.3 34.1 120.4 33.8 120.5 33.4 C 120.6 33.3 120.6 33.2 120.6 33.1 C 120.63 33.13 118.3 26.9 118.3 26.9 L 119.4 26.9 C 119.4 26.9 120.7 30.5 120.7 30.5 C 120.9 31 121 31.4 121.1 31.9 C 121.3 31.5 121.4 31 121.6 30.5 C 121.58 30.53 122.9 26.9 122.9 26.9 L 124 26.9 C 124 26.9 121.6 33.23 121.6 33.2 C 121.3 33.9 121.1 34.4 121 34.6 C 120.8 35 120.6 35.2 120.4 35.4 C 120.1 35.6 119.8 35.6 119.5 35.6 C 119.5 35.6 119.5 35.6 119.5 35.6 Z M 128.2 25.7 L 128.2 24.5 L 129.3 24.5 L 129.3 25.7 L 128.2 25.7 Z M 128.2 33.1 L 128.2 26.9 L 129.3 26.9 L 129.3 33.1 L 128.2 33.1 Z M 130.9 33.1 L 130.9 26.9 L 131.8 26.9 C 131.8 26.9 131.81 27.77 131.8 27.8 C 132 27.5 132.3 27.2 132.6 27 C 132.9 26.9 133.3 26.8 133.7 26.8 C 134.2 26.8 134.5 26.9 134.8 27 C 135.1 27.2 135.3 27.5 135.5 27.8 C 135.9 27.1 136.6 26.8 137.4 26.8 C 138 26.8 138.5 26.9 138.8 27.3 C 139.1 27.6 139.3 28.1 139.3 28.9 C 139.29 28.85 139.3 33.1 139.3 33.1 L 138.2 33.1 C 138.2 33.1 138.25 29.2 138.2 29.2 C 138.2 28.8 138.2 28.5 138.1 28.3 C 138.1 28.1 138 28 137.8 27.8 C 137.6 27.7 137.4 27.7 137.1 27.7 C 136.7 27.7 136.3 27.8 136 28.1 C 135.8 28.4 135.6 28.9 135.6 29.5 C 135.62 29.51 135.6 33.1 135.6 33.1 L 134.6 33.1 C 134.6 33.1 134.56 29.08 134.6 29.1 C 134.6 28.6 134.5 28.3 134.3 28 C 134.1 27.8 133.8 27.7 133.5 27.7 C 133.2 27.7 132.9 27.8 132.6 27.9 C 132.4 28.1 132.2 28.3 132.1 28.6 C 132 28.9 131.9 29.3 131.9 29.9 C 131.92 29.89 131.9 33.1 131.9 33.1 L 130.9 33.1 Z M 140.9 35.5 L 140.9 26.9 L 141.8 26.9 C 141.8 26.9 141.82 27.71 141.8 27.7 C 142 27.4 142.3 27.2 142.6 27 C 142.9 26.8 143.2 26.8 143.6 26.8 C 144.2 26.8 144.6 26.9 145 27.2 C 145.4 27.4 145.7 27.8 146 28.3 C 146.2 28.8 146.3 29.4 146.3 30 C 146.3 30.6 146.1 31.2 145.9 31.7 C 145.7 32.2 145.4 32.6 144.9 32.9 C 144.5 33.1 144 33.3 143.5 33.3 C 143.2 33.3 142.9 33.2 142.6 33 C 142.3 32.9 142.1 32.7 141.9 32.5 C 141.91 32.48 141.9 35.5 141.9 35.5 L 140.9 35.5 Z M 141.8 30 C 141.8 30.8 142 31.4 142.3 31.8 C 142.6 32.2 143 32.4 143.5 32.4 C 143.9 32.4 144.3 32.2 144.7 31.8 C 145 31.4 145.2 30.8 145.2 30 C 145.2 29.2 145 28.6 144.7 28.2 C 144.4 27.8 144 27.6 143.5 27.6 C 143.1 27.6 142.7 27.8 142.3 28.2 C 142 28.6 141.8 29.2 141.8 30 Z M 147.5 33.1 L 147.5 26.9 L 148.5 26.9 C 148.5 26.9 148.47 27.84 148.5 27.8 C 148.7 27.4 148.9 27.1 149.1 27 C 149.3 26.8 149.6 26.8 149.8 26.8 C 150.2 26.8 150.5 26.9 150.9 27.1 C 150.9 27.1 150.5 28.1 150.5 28.1 C 150.3 27.9 150 27.8 149.8 27.8 C 149.5 27.8 149.3 27.9 149.1 28.1 C 149 28.2 148.8 28.4 148.8 28.6 C 148.6 29 148.6 29.4 148.6 29.9 C 148.58 29.86 148.6 33.1 148.6 33.1 L 147.5 33.1 Z M 151.1 30 C 151.1 28.9 151.5 28 152.1 27.4 C 152.6 27 153.3 26.8 154.1 26.8 C 154.9 26.8 155.6 27 156.2 27.6 C 156.7 28.2 157 28.9 157 29.9 C 157 30.7 156.8 31.4 156.6 31.8 C 156.4 32.3 156 32.6 155.6 32.9 C 155.1 33.1 154.6 33.3 154.1 33.3 C 153.2 33.3 152.5 33 151.9 32.4 C 151.4 31.9 151.1 31.1 151.1 30 Z M 152.2 30 C 152.2 30.8 152.4 31.4 152.7 31.8 C 153.1 32.2 153.5 32.4 154.1 32.4 C 154.6 32.4 155 32.2 155.4 31.8 C 155.7 31.4 155.9 30.8 155.9 30 C 155.9 29.2 155.7 28.6 155.4 28.2 C 155 27.8 154.6 27.6 154.1 27.6 C 153.5 27.6 153.1 27.8 152.7 28.2 C 152.4 28.6 152.2 29.2 152.2 30 Z M 159.9 33.1 L 157.6 26.9 L 158.7 26.9 C 158.7 26.9 160.01 30.63 160 30.6 C 160.2 31 160.3 31.4 160.4 31.9 C 160.5 31.6 160.6 31.2 160.8 30.7 C 160.8 30.7 162.2 26.9 162.2 26.9 L 163.3 26.9 L 160.9 33.1 L 159.9 33.1 Z M 168.5 31.1 C 168.5 31.1 169.6 31.3 169.6 31.3 C 169.4 31.9 169.1 32.4 168.6 32.7 C 168.1 33.1 167.5 33.3 166.8 33.3 C 165.9 33.3 165.2 33 164.7 32.4 C 164.1 31.9 163.9 31.1 163.9 30.1 C 163.9 29 164.1 28.2 164.7 27.6 C 165.2 27 165.9 26.8 166.8 26.8 C 167.6 26.8 168.3 27 168.8 27.6 C 169.3 28.2 169.6 29 169.6 30 C 169.6 30.1 169.6 30.2 169.6 30.3 C 169.6 30.3 164.9 30.3 164.9 30.3 C 165 31 165.2 31.5 165.5 31.9 C 165.9 32.2 166.3 32.4 166.8 32.4 C 167.2 32.4 167.5 32.3 167.8 32.1 C 168.1 31.9 168.3 31.6 168.5 31.1 Z M 165 29.4 C 165 29.4 168.5 29.4 168.5 29.4 C 168.4 28.9 168.3 28.5 168.1 28.2 C 167.7 27.8 167.3 27.6 166.8 27.6 C 166.3 27.6 165.9 27.8 165.5 28.1 C 165.2 28.4 165 28.9 165 29.4 Z M 171.2 33.1 L 171.2 31.9 L 172.4 31.9 L 172.4 33.1 L 171.2 33.1 Z " stroke="none" fill="#010102"/>  </g>  <g id="Polygon860">    <path d="M 7.1 1.5 C 7.1 1.5 7.1 3 7.1 3 C 6.2 2.3 5.3 1.9 4.3 1.9 C 3 1.9 2.2 2.6 2.2 3.7 C 2.2 4.5 2.4 5.2 4.4 6.2 C 6.9 7.5 7.5 8.4 7.5 10.1 C 7.5 11.9 6.1 13.3 4 13.3 C 2.9 13.3 1.8 12.9 0.8 12.2 C 0.8 12.2 0.8 10.5 0.8 10.5 C 1.8 11.5 2.8 12.1 4 12.1 C 5.3 12.1 6.2 11.3 6.2 10.1 C 6.2 9.1 5.8 8.5 3.5 7.2 C 1.5 6.2 0.8 5.3 0.8 3.7 C 0.8 2 2.3 0.7 4.3 0.7 C 5.3 0.7 6.2 1 7.1 1.5 Z M 10.8 0.8 C 10.8 0.8 10.84 7.92 10.8 7.9 C 10.8 10.6 12.1 12.1 14.6 12.1 C 17.2 12.1 18.4 10.6 18.4 7.9 C 18.43 7.92 18.4 0.8 18.4 0.8 L 19.8 0.8 C 19.8 0.8 19.78 7.92 19.8 7.9 C 19.8 11.1 18.1 13.3 14.7 13.3 C 11.3 13.3 9.5 11.4 9.5 7.9 C 9.49 7.92 9.5 0.8 9.5 0.8 L 10.8 0.8 Z M 22.4 0.8 C 22.4 0.8 25.61 0.85 25.6 0.8 C 28.1 0.8 29.4 2.3 29.4 4.1 C 29.4 5.7 28.5 6.7 27 7.2 C 27.8 7.6 28.2 7.9 29.2 9.4 C 29.2 9.45 31.6 13.1 31.6 13.1 L 30 13.1 C 30 13.1 27.81 9.74 27.8 9.7 C 26.7 7.9 25.9 7.5 24.9 7.5 C 24.88 7.54 23.7 7.5 23.7 7.5 L 23.7 13.1 L 22.4 13.1 L 22.4 0.8 Z M 25 6.4 C 26.7 6.4 28 5.9 28 4.2 C 28 2.6 27 2 25.4 2 C 25.43 2.03 23.7 2 23.7 2 L 23.7 6.4 C 23.7 6.4 25 6.35 25 6.4 Z M 30.9 0.8 L 32.3 0.8 L 36.3 10.4 L 36.3 10.4 L 40.3 0.8 L 41.6 0.8 L 36.4 13.2 L 36.1 13.2 L 30.9 0.8 Z M 49.8 0.8 L 49.8 2.1 L 44.4 2.1 L 44.4 6.3 L 49.6 6.3 L 49.6 7.5 L 44.4 7.5 L 44.4 11.9 L 49.9 11.9 L 49.9 13.1 L 43 13.1 L 43 0.8 L 49.8 0.8 Z M 52.7 0.8 L 56.3 5.4 L 60 0.8 L 61.6 0.8 L 57 6.6 L 57 13.1 L 55.7 13.1 L 55.7 6.6 L 51.1 0.8 L 52.7 0.8 Z " stroke="none" fill="#010102"/>  </g></svg>