<?xml version="1.0" standalone="no"?><!DOCTYPE svg PUBLIC "-//W3C//DTD SVG 1.1//EN" "http://www.w3.org/Graphics/SVG/1.1/DTD/svg11.dtd"><svg xmlns="http://www.w3.org/2000/svg" version="1.1" width="99px" height="20.5px" viewBox="0 -4 99 20.5" style="top:-4px">  <desc>Client Feedback</desc>  <defs/>  <g id="Polygon2302">    <path d="M 13 5.7 C 13 5.7 14.1 6 14.1 6 C 13.9 6.9 13.5 7.7 12.8 8.1 C 12.2 8.6 11.5 8.9 10.6 8.9 C 9.6 8.9 8.9 8.7 8.3 8.3 C 7.7 7.9 7.3 7.4 7 6.7 C 6.7 6 6.5 5.2 6.5 4.4 C 6.5 3.5 6.7 2.7 7 2 C 7.4 1.4 7.9 0.9 8.5 0.5 C 9.1 0.2 9.8 0 10.6 0 C 11.5 0 12.2 0.2 12.8 0.7 C 13.3 1.1 13.8 1.7 14 2.5 C 14 2.5 12.9 2.8 12.9 2.8 C 12.7 2.1 12.4 1.7 12 1.4 C 11.6 1.1 11.1 1 10.6 1 C 9.9 1 9.4 1.1 8.9 1.4 C 8.5 1.8 8.2 2.2 8 2.7 C 7.8 3.3 7.7 3.8 7.7 4.4 C 7.7 5.1 7.8 5.7 8 6.3 C 8.2 6.8 8.6 7.2 9 7.5 C 9.5 7.8 10 7.9 10.5 7.9 C 11.1 7.9 11.7 7.7 12.1 7.4 C 12.5 7 12.8 6.4 13 5.7 Z M 15.4 8.7 L 15.4 0.1 L 16.4 0.1 L 16.4 8.7 L 15.4 8.7 Z M 18.1 1.4 L 18.1 0.1 L 19.1 0.1 L 19.1 1.4 L 18.1 1.4 Z M 18.1 8.7 L 18.1 2.5 L 19.1 2.5 L 19.1 8.7 L 18.1 8.7 Z M 25 6.7 C 25 6.7 26.1 6.9 26.1 6.9 C 25.9 7.5 25.6 8 25.1 8.3 C 24.7 8.7 24.1 8.9 23.3 8.9 C 22.4 8.9 21.7 8.6 21.2 8 C 20.6 7.5 20.4 6.7 20.4 5.7 C 20.4 4.6 20.6 3.8 21.2 3.2 C 21.7 2.7 22.4 2.4 23.3 2.4 C 24.1 2.4 24.8 2.7 25.3 3.2 C 25.8 3.8 26.1 4.6 26.1 5.6 C 26.1 5.7 26.1 5.8 26.1 5.9 C 26.1 5.9 21.5 5.9 21.5 5.9 C 21.5 6.6 21.7 7.1 22 7.5 C 22.4 7.8 22.8 8 23.3 8 C 23.7 8 24.1 7.9 24.3 7.7 C 24.6 7.5 24.8 7.2 25 6.7 Z M 21.5 5 C 21.5 5 25 5 25 5 C 25 4.5 24.8 4.1 24.6 3.8 C 24.3 3.4 23.8 3.2 23.3 3.2 C 22.8 3.2 22.4 3.4 22.1 3.7 C 21.7 4.1 21.6 4.5 21.5 5 Z M 27.4 8.7 L 27.4 2.5 L 28.4 2.5 C 28.4 2.5 28.35 3.4 28.4 3.4 C 28.8 2.7 29.5 2.4 30.3 2.4 C 30.7 2.4 31.1 2.4 31.4 2.6 C 31.7 2.7 31.9 2.9 32.1 3.1 C 32.2 3.3 32.3 3.6 32.4 3.9 C 32.4 4.1 32.5 4.4 32.5 4.9 C 32.46 4.91 32.5 8.7 32.5 8.7 L 31.4 8.7 C 31.4 8.7 31.4 4.95 31.4 5 C 31.4 4.5 31.4 4.2 31.3 4 C 31.2 3.8 31.1 3.6 30.8 3.5 C 30.6 3.4 30.4 3.3 30.1 3.3 C 29.7 3.3 29.3 3.4 28.9 3.7 C 28.6 4 28.5 4.5 28.5 5.3 C 28.46 5.34 28.5 8.7 28.5 8.7 L 27.4 8.7 Z M 35.9 7.8 C 36 7.8 36.2 7.8 36.4 7.8 C 36.4 7.8 36.5 8.7 36.5 8.7 C 36.2 8.8 36 8.8 35.7 8.8 C 35.4 8.8 35.1 8.8 34.8 8.6 C 34.6 8.5 34.5 8.4 34.4 8.2 C 34.3 8 34.3 7.5 34.3 6.9 C 34.27 6.91 34.3 3.3 34.3 3.3 L 33.5 3.3 L 33.5 2.5 L 34.3 2.5 L 34.3 1 L 35.3 0.3 L 35.3 2.5 L 36.4 2.5 L 36.4 3.3 L 35.3 3.3 C 35.3 3.3 35.32 6.97 35.3 7 C 35.3 7.3 35.3 7.5 35.4 7.6 C 35.4 7.6 35.5 7.7 35.6 7.8 C 35.6 7.8 35.8 7.8 35.9 7.8 C 35.9 7.8 35.9 7.8 35.9 7.8 Z M 40.9 8.7 L 40.9 0.1 L 46.7 0.1 L 46.7 1.2 L 42.1 1.2 L 42.1 3.8 L 46.1 3.8 L 46.1 4.8 L 42.1 4.8 L 42.1 8.7 L 40.9 8.7 Z M 52.3 6.7 C 52.3 6.7 53.4 6.9 53.4 6.9 C 53.3 7.5 52.9 8 52.5 8.3 C 52 8.7 51.4 8.9 50.7 8.9 C 49.8 8.9 49.1 8.6 48.5 8 C 48 7.5 47.7 6.7 47.7 5.7 C 47.7 4.6 48 3.8 48.5 3.2 C 49.1 2.7 49.8 2.4 50.6 2.4 C 51.5 2.4 52.1 2.7 52.7 3.2 C 53.2 3.8 53.5 4.6 53.5 5.6 C 53.5 5.7 53.5 5.8 53.5 5.9 C 53.5 5.9 48.8 5.9 48.8 5.9 C 48.9 6.6 49 7.1 49.4 7.5 C 49.7 7.8 50.2 8 50.7 8 C 51.1 8 51.4 7.9 51.7 7.7 C 52 7.5 52.2 7.2 52.3 6.7 Z M 48.9 5 C 48.9 5 52.3 5 52.3 5 C 52.3 4.5 52.2 4.1 51.9 3.8 C 51.6 3.4 51.2 3.2 50.6 3.2 C 50.2 3.2 49.7 3.4 49.4 3.7 C 49.1 4.1 48.9 4.5 48.9 5 Z M 59 6.7 C 59 6.7 60.1 6.9 60.1 6.9 C 59.9 7.5 59.6 8 59.1 8.3 C 58.7 8.7 58.1 8.9 57.4 8.9 C 56.5 8.9 55.7 8.6 55.2 8 C 54.7 7.5 54.4 6.7 54.4 5.7 C 54.4 4.6 54.7 3.8 55.2 3.2 C 55.7 2.7 56.4 2.4 57.3 2.4 C 58.1 2.4 58.8 2.7 59.3 3.2 C 59.9 3.8 60.1 4.6 60.1 5.6 C 60.1 5.7 60.1 5.8 60.1 5.9 C 60.1 5.9 55.5 5.9 55.5 5.9 C 55.5 6.6 55.7 7.1 56.1 7.5 C 56.4 7.8 56.8 8 57.4 8 C 57.8 8 58.1 7.9 58.4 7.7 C 58.6 7.5 58.8 7.2 59 6.7 Z M 55.5 5 C 55.5 5 59 5 59 5 C 59 4.5 58.8 4.1 58.6 3.8 C 58.3 3.4 57.8 3.2 57.3 3.2 C 56.8 3.2 56.4 3.4 56.1 3.7 C 55.8 4.1 55.6 4.5 55.5 5 Z M 65.5 8.7 C 65.5 8.7 65.46 7.95 65.5 8 C 65.1 8.6 64.5 8.9 63.7 8.9 C 63.2 8.9 62.8 8.7 62.4 8.5 C 61.9 8.2 61.6 7.8 61.4 7.3 C 61.2 6.8 61 6.3 61 5.6 C 61 5 61.1 4.4 61.4 3.9 C 61.6 3.4 61.9 3 62.3 2.8 C 62.7 2.5 63.2 2.4 63.7 2.4 C 64 2.4 64.4 2.5 64.7 2.6 C 65 2.8 65.2 3 65.4 3.2 C 65.39 3.23 65.4 0.1 65.4 0.1 L 66.4 0.1 L 66.4 8.7 L 65.5 8.7 Z M 62.1 5.6 C 62.1 6.4 62.3 7 62.6 7.4 C 63 7.8 63.4 8 63.8 8 C 64.3 8 64.7 7.8 65 7.4 C 65.3 7.1 65.5 6.5 65.5 5.7 C 65.5 4.9 65.3 4.2 65 3.8 C 64.7 3.4 64.3 3.2 63.8 3.2 C 63.3 3.2 62.9 3.4 62.6 3.8 C 62.3 4.2 62.1 4.8 62.1 5.6 Z M 69.1 8.7 L 68.1 8.7 L 68.1 0.1 L 69.1 0.1 C 69.1 0.1 69.14 3.21 69.1 3.2 C 69.6 2.7 70.2 2.4 70.8 2.4 C 71.2 2.4 71.6 2.5 71.9 2.6 C 72.3 2.8 72.6 3 72.8 3.3 C 73 3.5 73.2 3.9 73.3 4.3 C 73.4 4.7 73.5 5.1 73.5 5.5 C 73.5 6.6 73.2 7.4 72.7 8 C 72.2 8.6 71.5 8.9 70.8 8.9 C 70.1 8.9 69.5 8.6 69.1 8 C 69.07 7.96 69.1 8.7 69.1 8.7 Z M 69.1 5.6 C 69.1 6.3 69.2 6.9 69.4 7.2 C 69.7 7.7 70.1 8 70.7 8 C 71.2 8 71.6 7.8 71.9 7.4 C 72.2 7 72.4 6.4 72.4 5.6 C 72.4 4.8 72.2 4.2 71.9 3.8 C 71.6 3.4 71.2 3.2 70.8 3.2 C 70.3 3.2 69.9 3.4 69.6 3.8 C 69.2 4.2 69.1 4.8 69.1 5.6 Z M 79 8.7 C 78.9 8.5 78.9 8.3 78.8 8 C 78.4 8.3 78.1 8.5 77.7 8.7 C 77.3 8.8 77 8.9 76.5 8.9 C 75.9 8.9 75.3 8.7 75 8.4 C 74.6 8 74.4 7.6 74.4 7.1 C 74.4 6.8 74.5 6.5 74.6 6.3 C 74.8 6 74.9 5.8 75.2 5.7 C 75.4 5.5 75.6 5.4 75.9 5.3 C 76.1 5.3 76.4 5.2 76.9 5.2 C 77.7 5 78.3 4.9 78.7 4.8 C 78.7 4.6 78.7 4.6 78.7 4.5 C 78.7 4.1 78.6 3.8 78.4 3.6 C 78.2 3.4 77.8 3.2 77.2 3.2 C 76.8 3.2 76.4 3.3 76.1 3.5 C 75.9 3.7 75.7 4 75.6 4.4 C 75.6 4.4 74.6 4.3 74.6 4.3 C 74.7 3.8 74.8 3.5 75.1 3.2 C 75.3 2.9 75.6 2.7 76 2.6 C 76.4 2.4 76.9 2.4 77.4 2.4 C 77.9 2.4 78.4 2.4 78.7 2.6 C 79 2.7 79.3 2.8 79.4 3 C 79.6 3.2 79.7 3.5 79.8 3.8 C 79.8 3.9 79.8 4.3 79.8 4.7 C 79.8 4.7 79.8 6.1 79.8 6.1 C 79.8 7.1 79.8 7.7 79.9 8 C 79.9 8.2 80 8.5 80.1 8.7 C 80.14 8.74 79 8.7 79 8.7 C 79 8.7 79.04 8.74 79 8.7 Z M 78.7 5.6 C 78.4 5.8 77.8 5.9 77 6 C 76.6 6.1 76.3 6.1 76.1 6.2 C 75.9 6.3 75.8 6.4 75.7 6.6 C 75.6 6.7 75.5 6.9 75.5 7.1 C 75.5 7.3 75.6 7.6 75.9 7.8 C 76.1 8 76.4 8.1 76.8 8.1 C 77.2 8.1 77.6 8 77.9 7.8 C 78.2 7.6 78.4 7.4 78.6 7.1 C 78.7 6.8 78.7 6.5 78.7 6 C 78.7 6 78.7 5.6 78.7 5.6 Z M 85.5 6.5 C 85.5 6.5 86.5 6.6 86.5 6.6 C 86.4 7.3 86.1 7.9 85.7 8.3 C 85.2 8.7 84.6 8.9 84 8.9 C 83.1 8.9 82.4 8.6 81.9 8 C 81.4 7.5 81.1 6.7 81.1 5.6 C 81.1 5 81.2 4.4 81.5 3.9 C 81.7 3.4 82 3 82.5 2.8 C 82.9 2.5 83.4 2.4 84 2.4 C 84.6 2.4 85.2 2.5 85.6 2.9 C 86 3.2 86.3 3.7 86.4 4.3 C 86.4 4.3 85.4 4.5 85.4 4.5 C 85.3 4.1 85.1 3.8 84.9 3.6 C 84.6 3.3 84.3 3.2 84 3.2 C 83.5 3.2 83 3.4 82.7 3.8 C 82.4 4.2 82.2 4.8 82.2 5.6 C 82.2 6.5 82.4 7.1 82.7 7.4 C 83 7.8 83.4 8 83.9 8 C 84.4 8 84.7 7.9 85 7.6 C 85.3 7.4 85.4 7 85.5 6.5 Z M 87.4 8.7 L 87.4 0.1 L 88.5 0.1 L 88.5 5 L 91 2.5 L 92.4 2.5 L 90 4.8 L 92.6 8.7 L 91.3 8.7 L 89.2 5.6 L 88.5 6.3 L 88.5 8.7 L 87.4 8.7 Z " stroke="none" fill="#000"/>  </g></svg>