<?xml version="1.0" standalone="no"?><!DOCTYPE svg PUBLIC "-//W3C//DTD SVG 1.1//EN" "http://www.w3.org/Graphics/SVG/1.1/DTD/svg11.dtd"><svg xmlns="http://www.w3.org/2000/svg" version="1.1" width="247px" height="36.9px" viewBox="0 -4 247 36.9" style="top:-4px">  <desc>Survey Help us to continuously improve.</desc>  <defs/>  <g id="Polygon850">    <path d="M 0.7 27.2 L 0.7 20.8 L 1.6 20.8 L 1.6 23.4 L 4.9 23.4 L 4.9 20.8 L 5.8 20.8 L 5.8 27.2 L 4.9 27.2 L 4.9 24.2 L 1.6 24.2 L 1.6 27.2 L 0.7 27.2 Z M 10.3 25.7 C 10.3 25.7 11.1 25.8 11.1 25.8 C 11 26.3 10.7 26.7 10.4 26.9 C 10 27.2 9.6 27.3 9.1 27.3 C 8.4 27.3 7.8 27.1 7.4 26.7 C 7 26.3 6.8 25.7 6.8 24.9 C 6.8 24.1 7 23.5 7.4 23.1 C 7.8 22.7 8.4 22.4 9 22.4 C 9.6 22.4 10.1 22.6 10.5 23.1 C 10.9 23.5 11.1 24.1 11.1 24.9 C 11.1 24.9 11.1 25 11.1 25.1 C 11.1 25.1 7.6 25.1 7.6 25.1 C 7.7 25.6 7.8 26 8.1 26.3 C 8.3 26.5 8.7 26.7 9.1 26.7 C 9.3 26.7 9.6 26.6 9.8 26.4 C 10 26.3 10.2 26 10.3 25.7 Z M 7.7 24.4 C 7.7 24.4 10.3 24.4 10.3 24.4 C 10.3 24 10.2 23.7 10 23.5 C 9.7 23.2 9.4 23.1 9 23.1 C 8.7 23.1 8.3 23.2 8.1 23.4 C 7.9 23.7 7.7 24 7.7 24.4 Z M 12.1 27.2 L 12.1 20.8 L 12.9 20.8 L 12.9 27.2 L 12.1 27.2 Z M 14.1 29 L 14.1 22.5 L 14.8 22.5 C 14.8 22.5 14.82 23.15 14.8 23.1 C 15 22.9 15.2 22.7 15.4 22.6 C 15.6 22.5 15.9 22.4 16.2 22.4 C 16.6 22.4 16.9 22.5 17.2 22.7 C 17.5 22.9 17.8 23.2 17.9 23.6 C 18.1 24 18.1 24.4 18.1 24.8 C 18.1 25.3 18.1 25.7 17.9 26.1 C 17.7 26.5 17.5 26.8 17.1 27 C 16.8 27.2 16.5 27.3 16.1 27.3 C 15.9 27.3 15.6 27.3 15.4 27.1 C 15.2 27 15 26.9 14.9 26.7 C 14.89 26.72 14.9 29 14.9 29 L 14.1 29 Z M 14.8 24.9 C 14.8 25.5 14.9 25.9 15.2 26.2 C 15.4 26.5 15.7 26.7 16.1 26.7 C 16.4 26.7 16.7 26.5 17 26.2 C 17.2 25.9 17.3 25.5 17.3 24.8 C 17.3 24.2 17.2 23.8 17 23.5 C 16.7 23.2 16.4 23.1 16.1 23.1 C 15.8 23.1 15.5 23.2 15.2 23.5 C 14.9 23.8 14.8 24.3 14.8 24.9 Z M 24.7 27.2 C 24.7 27.2 24.66 26.52 24.7 26.5 C 24.3 27 23.8 27.3 23.2 27.3 C 22.9 27.3 22.6 27.3 22.4 27.2 C 22.2 27 22 26.9 21.9 26.8 C 21.8 26.6 21.7 26.4 21.6 26.2 C 21.6 26 21.6 25.8 21.6 25.4 C 21.59 25.43 21.6 22.5 21.6 22.5 L 22.4 22.5 C 22.4 22.5 22.38 25.13 22.4 25.1 C 22.4 25.5 22.4 25.8 22.4 26 C 22.5 26.2 22.6 26.3 22.7 26.5 C 22.9 26.6 23.1 26.6 23.3 26.6 C 23.6 26.6 23.8 26.6 24 26.4 C 24.2 26.3 24.4 26.2 24.4 26 C 24.5 25.7 24.6 25.4 24.6 25 C 24.58 25.04 24.6 22.5 24.6 22.5 L 25.4 22.5 L 25.4 27.2 L 24.7 27.2 Z M 26.3 25.8 C 26.3 25.8 27.1 25.7 27.1 25.7 C 27.1 26 27.2 26.2 27.4 26.4 C 27.6 26.6 27.9 26.7 28.3 26.7 C 28.6 26.7 28.9 26.6 29.1 26.4 C 29.3 26.3 29.4 26.1 29.4 25.9 C 29.4 25.7 29.3 25.6 29.1 25.5 C 29 25.4 28.7 25.3 28.3 25.2 C 27.7 25.1 27.3 25 27.1 24.8 C 26.9 24.7 26.7 24.6 26.6 24.4 C 26.5 24.2 26.4 24 26.4 23.8 C 26.4 23.6 26.5 23.4 26.6 23.2 C 26.7 23 26.8 22.9 27 22.8 C 27.1 22.7 27.2 22.6 27.5 22.5 C 27.7 22.5 27.9 22.4 28.1 22.4 C 28.5 22.4 28.8 22.5 29.1 22.6 C 29.4 22.7 29.6 22.8 29.7 23 C 29.9 23.2 29.9 23.4 30 23.7 C 30 23.7 29.2 23.8 29.2 23.8 C 29.2 23.6 29.1 23.4 28.9 23.3 C 28.7 23.2 28.5 23.1 28.2 23.1 C 27.8 23.1 27.6 23.1 27.4 23.3 C 27.3 23.4 27.2 23.5 27.2 23.7 C 27.2 23.8 27.2 23.9 27.3 24 C 27.4 24 27.5 24.1 27.6 24.2 C 27.7 24.2 27.9 24.3 28.3 24.4 C 28.8 24.5 29.2 24.6 29.5 24.7 C 29.7 24.8 29.9 25 30 25.2 C 30.1 25.3 30.2 25.6 30.2 25.8 C 30.2 26.1 30.1 26.3 29.9 26.6 C 29.8 26.8 29.6 27 29.3 27.1 C 29 27.2 28.7 27.3 28.3 27.3 C 27.7 27.3 27.2 27.2 26.9 26.9 C 26.6 26.7 26.4 26.3 26.3 25.8 Z M 35 26.5 C 35.1 26.5 35.2 26.5 35.3 26.5 C 35.3 26.5 35.5 27.2 35.5 27.2 C 35.2 27.2 35 27.3 34.9 27.3 C 34.6 27.3 34.3 27.2 34.2 27.1 C 34 27 33.9 26.9 33.9 26.8 C 33.8 26.6 33.8 26.3 33.8 25.8 C 33.75 25.84 33.8 23.2 33.8 23.2 L 33.2 23.2 L 33.2 22.5 L 33.8 22.5 L 33.8 21.4 L 34.5 20.9 L 34.5 22.5 L 35.3 22.5 L 35.3 23.2 L 34.5 23.2 C 34.5 23.2 34.54 25.88 34.5 25.9 C 34.5 26.1 34.6 26.3 34.6 26.3 C 34.6 26.4 34.7 26.4 34.7 26.5 C 34.8 26.5 34.9 26.5 35 26.5 C 35 26.5 35 26.5 35 26.5 Z M 35.8 24.9 C 35.8 24 36.1 23.4 36.5 23 C 36.9 22.6 37.4 22.4 38 22.4 C 38.6 22.4 39.2 22.6 39.6 23.1 C 40 23.5 40.2 24.1 40.2 24.8 C 40.2 25.4 40.1 25.9 39.9 26.2 C 39.7 26.6 39.5 26.8 39.1 27 C 38.8 27.2 38.4 27.3 38 27.3 C 37.4 27.3 36.8 27.1 36.4 26.7 C 36 26.3 35.8 25.7 35.8 24.9 Z M 36.6 24.9 C 36.6 25.5 36.8 25.9 37 26.2 C 37.3 26.5 37.6 26.7 38 26.7 C 38.4 26.7 38.7 26.5 39 26.2 C 39.2 25.9 39.4 25.5 39.4 24.8 C 39.4 24.3 39.2 23.8 39 23.5 C 38.7 23.2 38.4 23.1 38 23.1 C 37.6 23.1 37.3 23.2 37 23.5 C 36.8 23.8 36.6 24.3 36.6 24.9 Z M 46.7 25.5 C 46.7 25.5 47.4 25.6 47.4 25.6 C 47.4 26.1 47.1 26.6 46.8 26.9 C 46.4 27.2 46 27.3 45.5 27.3 C 44.9 27.3 44.3 27.1 44 26.7 C 43.6 26.3 43.4 25.7 43.4 24.9 C 43.4 24.4 43.5 23.9 43.6 23.6 C 43.8 23.2 44 22.9 44.4 22.7 C 44.7 22.5 45.1 22.4 45.5 22.4 C 46 22.4 46.4 22.6 46.7 22.8 C 47.1 23.1 47.3 23.4 47.4 23.9 C 47.4 23.9 46.6 24 46.6 24 C 46.5 23.7 46.4 23.5 46.2 23.3 C 46 23.2 45.8 23.1 45.5 23.1 C 45.1 23.1 44.8 23.2 44.6 23.5 C 44.3 23.8 44.2 24.2 44.2 24.9 C 44.2 25.5 44.3 26 44.5 26.2 C 44.8 26.5 45.1 26.7 45.5 26.7 C 45.8 26.7 46.1 26.6 46.3 26.4 C 46.5 26.2 46.6 25.9 46.7 25.5 Z M 47.8 24.9 C 47.8 24 48.1 23.4 48.5 23 C 48.9 22.6 49.4 22.4 50 22.4 C 50.7 22.4 51.2 22.6 51.6 23.1 C 52 23.5 52.2 24.1 52.2 24.8 C 52.2 25.4 52.1 25.9 51.9 26.2 C 51.7 26.6 51.5 26.8 51.1 27 C 50.8 27.2 50.4 27.3 50 27.3 C 49.4 27.3 48.8 27.1 48.4 26.7 C 48 26.3 47.8 25.7 47.8 24.9 Z M 48.6 24.9 C 48.6 25.5 48.8 25.9 49 26.2 C 49.3 26.5 49.6 26.7 50 26.7 C 50.4 26.7 50.7 26.5 51 26.2 C 51.3 25.9 51.4 25.5 51.4 24.8 C 51.4 24.3 51.2 23.8 51 23.5 C 50.7 23.2 50.4 23.1 50 23.1 C 49.6 23.1 49.3 23.2 49 23.5 C 48.8 23.8 48.6 24.3 48.6 24.9 Z M 53.1 27.2 L 53.1 22.5 L 53.8 22.5 C 53.8 22.5 53.83 23.2 53.8 23.2 C 54.2 22.7 54.7 22.4 55.3 22.4 C 55.6 22.4 55.9 22.5 56.1 22.6 C 56.3 22.7 56.5 22.8 56.6 23 C 56.7 23.1 56.8 23.3 56.9 23.6 C 56.9 23.7 56.9 24 56.9 24.3 C 56.91 24.34 56.9 27.2 56.9 27.2 L 56.1 27.2 C 56.1 27.2 56.12 24.37 56.1 24.4 C 56.1 24 56.1 23.8 56 23.6 C 56 23.5 55.9 23.4 55.7 23.3 C 55.5 23.2 55.4 23.1 55.2 23.1 C 54.8 23.1 54.5 23.2 54.3 23.4 C 54 23.7 53.9 24.1 53.9 24.7 C 53.91 24.66 53.9 27.2 53.9 27.2 L 53.1 27.2 Z M 59.5 26.5 C 59.6 26.5 59.7 26.5 59.9 26.5 C 59.9 26.5 60 27.2 60 27.2 C 59.7 27.2 59.5 27.3 59.4 27.3 C 59.1 27.3 58.9 27.2 58.7 27.1 C 58.5 27 58.4 26.9 58.4 26.8 C 58.3 26.6 58.3 26.3 58.3 25.8 C 58.27 25.84 58.3 23.2 58.3 23.2 L 57.7 23.2 L 57.7 22.5 L 58.3 22.5 L 58.3 21.4 L 59.1 20.9 L 59.1 22.5 L 59.9 22.5 L 59.9 23.2 L 59.1 23.2 C 59.1 23.2 59.06 25.88 59.1 25.9 C 59.1 26.1 59.1 26.3 59.1 26.3 C 59.1 26.4 59.2 26.4 59.2 26.5 C 59.3 26.5 59.4 26.5 59.5 26.5 C 59.5 26.5 59.5 26.5 59.5 26.5 Z M 60.6 21.7 L 60.6 20.8 L 61.4 20.8 L 61.4 21.7 L 60.6 21.7 Z M 60.6 27.2 L 60.6 22.5 L 61.4 22.5 L 61.4 27.2 L 60.6 27.2 Z M 62.6 27.2 L 62.6 22.5 L 63.3 22.5 C 63.3 22.5 63.34 23.2 63.3 23.2 C 63.7 22.7 64.2 22.4 64.8 22.4 C 65.1 22.4 65.4 22.5 65.6 22.6 C 65.8 22.7 66 22.8 66.1 23 C 66.2 23.1 66.3 23.3 66.4 23.6 C 66.4 23.7 66.4 24 66.4 24.3 C 66.42 24.34 66.4 27.2 66.4 27.2 L 65.6 27.2 C 65.6 27.2 65.63 24.37 65.6 24.4 C 65.6 24 65.6 23.8 65.5 23.6 C 65.5 23.5 65.4 23.4 65.2 23.3 C 65.1 23.2 64.9 23.1 64.7 23.1 C 64.3 23.1 64 23.2 63.8 23.4 C 63.5 23.7 63.4 24.1 63.4 24.7 C 63.42 24.66 63.4 27.2 63.4 27.2 L 62.6 27.2 Z M 70.7 27.2 C 70.7 27.2 70.69 26.52 70.7 26.5 C 70.3 27 69.8 27.3 69.2 27.3 C 68.9 27.3 68.7 27.3 68.4 27.2 C 68.2 27 68 26.9 67.9 26.8 C 67.8 26.6 67.7 26.4 67.7 26.2 C 67.6 26 67.6 25.8 67.6 25.4 C 67.61 25.43 67.6 22.5 67.6 22.5 L 68.4 22.5 C 68.4 22.5 68.41 25.13 68.4 25.1 C 68.4 25.5 68.4 25.8 68.5 26 C 68.5 26.2 68.6 26.3 68.8 26.5 C 68.9 26.6 69.1 26.6 69.4 26.6 C 69.6 26.6 69.8 26.6 70 26.4 C 70.2 26.3 70.4 26.2 70.5 26 C 70.6 25.7 70.6 25.4 70.6 25 C 70.61 25.04 70.6 22.5 70.6 22.5 L 71.4 22.5 L 71.4 27.2 L 70.7 27.2 Z M 72.3 24.9 C 72.3 24 72.6 23.4 73.1 23 C 73.5 22.6 74 22.4 74.5 22.4 C 75.2 22.4 75.7 22.6 76.1 23.1 C 76.5 23.5 76.7 24.1 76.7 24.8 C 76.7 25.4 76.6 25.9 76.4 26.2 C 76.3 26.6 76 26.8 75.7 27 C 75.3 27.2 74.9 27.3 74.5 27.3 C 73.9 27.3 73.3 27.1 72.9 26.7 C 72.5 26.3 72.3 25.7 72.3 24.9 Z M 73.2 24.9 C 73.2 25.5 73.3 25.9 73.5 26.2 C 73.8 26.5 74.1 26.7 74.5 26.7 C 74.9 26.7 75.3 26.5 75.5 26.2 C 75.8 25.9 75.9 25.5 75.9 24.8 C 75.9 24.3 75.8 23.8 75.5 23.5 C 75.2 23.2 74.9 23.1 74.5 23.1 C 74.1 23.1 73.8 23.2 73.5 23.5 C 73.3 23.8 73.2 24.3 73.2 24.9 Z M 80.7 27.2 C 80.7 27.2 80.7 26.52 80.7 26.5 C 80.3 27 79.8 27.3 79.2 27.3 C 78.9 27.3 78.7 27.3 78.4 27.2 C 78.2 27 78 26.9 77.9 26.8 C 77.8 26.6 77.7 26.4 77.7 26.2 C 77.6 26 77.6 25.8 77.6 25.4 C 77.63 25.43 77.6 22.5 77.6 22.5 L 78.4 22.5 C 78.4 22.5 78.42 25.13 78.4 25.1 C 78.4 25.5 78.4 25.8 78.5 26 C 78.5 26.2 78.6 26.3 78.8 26.5 C 78.9 26.6 79.1 26.6 79.4 26.6 C 79.6 26.6 79.8 26.6 80 26.4 C 80.3 26.3 80.4 26.2 80.5 26 C 80.6 25.7 80.6 25.4 80.6 25 C 80.62 25.04 80.6 22.5 80.6 22.5 L 81.4 22.5 L 81.4 27.2 L 80.7 27.2 Z M 82.3 25.8 C 82.3 25.8 83.1 25.7 83.1 25.7 C 83.2 26 83.3 26.2 83.5 26.4 C 83.7 26.6 84 26.7 84.3 26.7 C 84.7 26.7 85 26.6 85.1 26.4 C 85.3 26.3 85.4 26.1 85.4 25.9 C 85.4 25.7 85.3 25.6 85.2 25.5 C 85.1 25.4 84.8 25.3 84.4 25.2 C 83.8 25.1 83.4 25 83.1 24.8 C 82.9 24.7 82.8 24.6 82.6 24.4 C 82.5 24.2 82.5 24 82.5 23.8 C 82.5 23.6 82.5 23.4 82.6 23.2 C 82.7 23 82.8 22.9 83 22.8 C 83.1 22.7 83.3 22.6 83.5 22.5 C 83.7 22.5 83.9 22.4 84.2 22.4 C 84.5 22.4 84.9 22.5 85.1 22.6 C 85.4 22.7 85.6 22.8 85.8 23 C 85.9 23.2 86 23.4 86 23.7 C 86 23.7 85.3 23.8 85.3 23.8 C 85.2 23.6 85.1 23.4 85 23.3 C 84.8 23.2 84.5 23.1 84.2 23.1 C 83.9 23.1 83.6 23.1 83.5 23.3 C 83.3 23.4 83.2 23.5 83.2 23.7 C 83.2 23.8 83.3 23.9 83.3 24 C 83.4 24 83.5 24.1 83.6 24.2 C 83.7 24.2 83.9 24.3 84.3 24.4 C 84.9 24.5 85.3 24.6 85.5 24.7 C 85.7 24.8 85.9 25 86 25.2 C 86.1 25.3 86.2 25.6 86.2 25.8 C 86.2 26.1 86.1 26.3 86 26.6 C 85.8 26.8 85.6 27 85.3 27.1 C 85 27.2 84.7 27.3 84.3 27.3 C 83.7 27.3 83.3 27.2 82.9 26.9 C 82.6 26.7 82.4 26.3 82.3 25.8 Z M 87.1 27.2 L 87.1 20.8 L 87.9 20.8 L 87.9 27.2 L 87.1 27.2 Z M 89.6 29.1 C 89.5 29.1 89.3 29.1 89.1 29 C 89.1 29 89 28.3 89 28.3 C 89.2 28.3 89.3 28.3 89.5 28.3 C 89.7 28.3 89.8 28.3 89.9 28.2 C 90 28.2 90.1 28.1 90.2 28 C 90.2 27.9 90.3 27.7 90.4 27.4 C 90.4 27.4 90.4 27.3 90.5 27.2 C 90.47 27.21 88.7 22.5 88.7 22.5 L 89.6 22.5 C 89.6 22.5 90.52 25.24 90.5 25.2 C 90.6 25.6 90.8 25.9 90.9 26.3 C 91 26 91.1 25.6 91.2 25.3 C 91.19 25.26 92.2 22.5 92.2 22.5 L 93 22.5 C 93 22.5 91.2 27.28 91.2 27.3 C 91 27.8 90.9 28.2 90.8 28.3 C 90.6 28.6 90.5 28.8 90.3 28.9 C 90.1 29 89.9 29.1 89.6 29.1 C 89.6 29.1 89.6 29.1 89.6 29.1 Z M 96.2 21.7 L 96.2 20.8 L 96.9 20.8 L 96.9 21.7 L 96.2 21.7 Z M 96.2 27.2 L 96.2 22.5 L 96.9 22.5 L 96.9 27.2 L 96.2 27.2 Z M 98.1 27.2 L 98.1 22.5 L 98.9 22.5 C 98.9 22.5 98.85 23.19 98.9 23.2 C 99 23 99.2 22.8 99.4 22.6 C 99.7 22.5 100 22.4 100.3 22.4 C 100.6 22.4 100.9 22.5 101.1 22.6 C 101.3 22.8 101.5 23 101.6 23.3 C 102 22.7 102.4 22.4 103 22.4 C 103.5 22.4 103.8 22.6 104.1 22.8 C 104.3 23.1 104.5 23.5 104.5 24 C 104.47 24 104.5 27.2 104.5 27.2 L 103.7 27.2 C 103.7 27.2 103.68 24.27 103.7 24.3 C 103.7 23.9 103.7 23.7 103.6 23.6 C 103.6 23.4 103.5 23.3 103.3 23.2 C 103.2 23.2 103 23.1 102.9 23.1 C 102.5 23.1 102.3 23.2 102 23.4 C 101.8 23.7 101.7 24 101.7 24.5 C 101.71 24.49 101.7 27.2 101.7 27.2 L 100.9 27.2 C 100.9 27.2 100.92 24.17 100.9 24.2 C 100.9 23.8 100.9 23.6 100.7 23.4 C 100.6 23.2 100.4 23.1 100.1 23.1 C 99.9 23.1 99.7 23.2 99.5 23.3 C 99.3 23.4 99.2 23.6 99.1 23.8 C 99 24 98.9 24.4 98.9 24.8 C 98.94 24.78 98.9 27.2 98.9 27.2 L 98.1 27.2 Z M 105.6 29 L 105.6 22.5 L 106.4 22.5 C 106.4 22.5 106.37 23.15 106.4 23.1 C 106.5 22.9 106.7 22.7 106.9 22.6 C 107.2 22.5 107.4 22.4 107.7 22.4 C 108.1 22.4 108.5 22.5 108.8 22.7 C 109.1 22.9 109.3 23.2 109.5 23.6 C 109.6 24 109.7 24.4 109.7 24.8 C 109.7 25.3 109.6 25.7 109.4 26.1 C 109.3 26.5 109 26.8 108.7 27 C 108.4 27.2 108 27.3 107.7 27.3 C 107.4 27.3 107.2 27.3 107 27.1 C 106.7 27 106.6 26.9 106.4 26.7 C 106.44 26.72 106.4 29 106.4 29 L 105.6 29 Z M 106.4 24.9 C 106.4 25.5 106.5 25.9 106.7 26.2 C 107 26.5 107.3 26.7 107.6 26.7 C 108 26.7 108.3 26.5 108.5 26.2 C 108.8 25.9 108.9 25.5 108.9 24.8 C 108.9 24.2 108.8 23.8 108.5 23.5 C 108.3 23.2 108 23.1 107.6 23.1 C 107.3 23.1 107 23.2 106.7 23.5 C 106.5 23.8 106.4 24.3 106.4 24.9 Z M 110.6 27.2 L 110.6 22.5 L 111.4 22.5 C 111.4 22.5 111.35 23.25 111.4 23.2 C 111.5 22.9 111.7 22.7 111.9 22.6 C 112 22.5 112.2 22.4 112.4 22.4 C 112.6 22.4 112.9 22.5 113.2 22.7 C 113.2 22.7 112.9 23.4 112.9 23.4 C 112.7 23.3 112.5 23.3 112.3 23.3 C 112.2 23.3 112 23.3 111.9 23.4 C 111.7 23.5 111.6 23.7 111.6 23.8 C 111.5 24.1 111.4 24.4 111.4 24.8 C 111.43 24.76 111.4 27.2 111.4 27.2 L 110.6 27.2 Z M 113.4 24.9 C 113.4 24 113.6 23.4 114.1 23 C 114.5 22.6 115 22.4 115.5 22.4 C 116.2 22.4 116.7 22.6 117.1 23.1 C 117.5 23.5 117.7 24.1 117.7 24.8 C 117.7 25.4 117.6 25.9 117.5 26.2 C 117.3 26.6 117 26.8 116.7 27 C 116.3 27.2 115.9 27.3 115.5 27.3 C 114.9 27.3 114.4 27.1 114 26.7 C 113.6 26.3 113.4 25.7 113.4 24.9 Z M 114.2 24.9 C 114.2 25.5 114.3 25.9 114.6 26.2 C 114.8 26.5 115.1 26.7 115.5 26.7 C 115.9 26.7 116.3 26.5 116.5 26.2 C 116.8 25.9 116.9 25.5 116.9 24.8 C 116.9 24.3 116.8 23.8 116.5 23.5 C 116.3 23.2 115.9 23.1 115.5 23.1 C 115.1 23.1 114.8 23.2 114.6 23.5 C 114.3 23.8 114.2 24.3 114.2 24.9 Z M 119.9 27.2 L 118.2 22.5 L 119 22.5 C 119 22.5 120.01 25.33 120 25.3 C 120.1 25.6 120.2 25.9 120.3 26.3 C 120.4 26 120.5 25.7 120.6 25.4 C 120.6 25.39 121.6 22.5 121.6 22.5 L 122.5 22.5 L 120.7 27.2 L 119.9 27.2 Z M 126.3 25.7 C 126.3 25.7 127.2 25.8 127.2 25.8 C 127 26.3 126.8 26.7 126.4 26.9 C 126.1 27.2 125.7 27.3 125.1 27.3 C 124.4 27.3 123.9 27.1 123.5 26.7 C 123.1 26.3 122.9 25.7 122.9 24.9 C 122.9 24.1 123.1 23.5 123.5 23.1 C 123.9 22.7 124.4 22.4 125.1 22.4 C 125.7 22.4 126.2 22.6 126.6 23.1 C 127 23.5 127.2 24.1 127.2 24.9 C 127.2 24.9 127.2 25 127.2 25.1 C 127.2 25.1 123.7 25.1 123.7 25.1 C 123.7 25.6 123.9 26 124.1 26.3 C 124.4 26.5 124.7 26.7 125.1 26.7 C 125.4 26.7 125.7 26.6 125.9 26.4 C 126.1 26.3 126.2 26 126.3 25.7 Z M 123.8 24.4 C 123.8 24.4 126.4 24.4 126.4 24.4 C 126.3 24 126.2 23.7 126.1 23.5 C 125.8 23.2 125.5 23.1 125.1 23.1 C 124.7 23.1 124.4 23.2 124.2 23.4 C 123.9 23.7 123.8 24 123.8 24.4 Z M 128.4 27.2 L 128.4 26.3 L 129.3 26.3 L 129.3 27.2 L 128.4 27.2 Z " stroke="none" fill="#010102"/>  </g>  <g id="Polygon849">    <path d="M 4.7 2.4 C 4.7 2.4 4.7 3.5 4.7 3.5 C 4.2 3 3.5 2.7 2.9 2.7 C 2 2.7 1.4 3.2 1.4 3.9 C 1.4 4.5 1.6 4.9 2.9 5.6 C 4.6 6.5 5 7.1 5 8.2 C 5 9.4 4.1 10.3 2.7 10.3 C 1.9 10.3 1.2 10.1 0.6 9.6 C 0.6 9.6 0.6 8.5 0.6 8.5 C 1.2 9.1 1.9 9.5 2.7 9.5 C 3.5 9.5 4.1 9 4.1 8.2 C 4.1 7.5 3.9 7.1 2.3 6.3 C 1 5.6 0.5 5 0.5 3.9 C 0.5 2.8 1.5 1.9 2.9 1.9 C 3.5 1.9 4.2 2.1 4.7 2.4 Z M 7.2 2 C 7.2 2 7.22 6.74 7.2 6.7 C 7.2 8.5 8.1 9.5 9.8 9.5 C 11.5 9.5 12.3 8.5 12.3 6.7 C 12.29 6.74 12.3 2 12.3 2 L 13.2 2 C 13.2 2 13.19 6.74 13.2 6.7 C 13.2 8.9 12 10.3 9.8 10.3 C 7.5 10.3 6.3 9 6.3 6.7 C 6.32 6.74 6.3 2 6.3 2 L 7.2 2 Z M 14.9 2 C 14.9 2 17.08 2.02 17.1 2 C 18.7 2 19.6 3 19.6 4.2 C 19.6 5.2 19 5.9 18 6.2 C 18.6 6.5 18.8 6.7 19.5 7.8 C 19.46 7.76 21 10.2 21 10.2 L 20 10.2 C 20 10.2 18.54 7.95 18.5 7.9 C 17.8 6.7 17.3 6.5 16.6 6.5 C 16.58 6.49 15.8 6.5 15.8 6.5 L 15.8 10.2 L 14.9 10.2 L 14.9 2 Z M 16.7 5.7 C 17.8 5.7 18.6 5.4 18.6 4.2 C 18.6 3.2 18 2.8 17 2.8 C 16.96 2.81 15.8 2.8 15.8 2.8 L 15.8 5.7 C 15.8 5.7 16.67 5.69 16.7 5.7 Z M 20.6 2 L 21.5 2 L 24.2 8.4 L 24.2 8.4 L 26.9 2 L 27.8 2 L 24.3 10.3 L 24.1 10.3 L 20.6 2 Z M 33.2 2 L 33.2 2.8 L 29.6 2.8 L 29.6 5.7 L 33 5.7 L 33 6.5 L 29.6 6.5 L 29.6 9.4 L 33.3 9.4 L 33.3 10.2 L 28.7 10.2 L 28.7 2 L 33.2 2 Z M 35.1 2 L 37.6 5 L 40 2 L 41.1 2 L 38 5.8 L 38 10.2 L 37.1 10.2 L 37.1 5.8 L 34 2 L 35.1 2 Z " stroke="none" fill="#010102"/>  </g></svg>