<?xml version="1.0" standalone="no"?><!DOCTYPE svg PUBLIC "-//W3C//DTD SVG 1.1//EN" "http://www.w3.org/Graphics/SVG/1.1/DTD/svg11.dtd"><svg xmlns="http://www.w3.org/2000/svg" version="1.1" width="41.1px" height="19.3px" viewBox="0 -4 41.1 19.3" style="top:-4px">  <desc>Survey</desc>  <defs/>  <g id="Polygon2286">    <path d="M 4.7 1 C 4.7 1 4.7 2 4.7 2 C 4.2 1.5 3.5 1.3 2.9 1.3 C 2 1.3 1.4 1.8 1.4 2.5 C 1.4 3 1.6 3.5 2.9 4.2 C 4.6 5 5 5.6 5 6.7 C 5 7.9 4.1 8.9 2.7 8.9 C 1.9 8.9 1.2 8.6 0.6 8.1 C 0.6 8.1 0.6 7 0.6 7 C 1.2 7.7 1.9 8.1 2.7 8.1 C 3.5 8.1 4.1 7.5 4.1 6.7 C 4.1 6 3.9 5.6 2.3 4.8 C 1 4.2 0.5 3.5 0.5 2.5 C 0.5 1.3 1.5 0.5 2.9 0.5 C 3.5 0.5 4.2 0.6 4.7 1 Z M 7.2 0.6 C 7.2 0.6 7.22 5.28 7.2 5.3 C 7.2 7.1 8.1 8.1 9.8 8.1 C 11.5 8.1 12.3 7.1 12.3 5.3 C 12.29 5.28 12.3 0.6 12.3 0.6 L 13.2 0.6 C 13.2 0.6 13.19 5.28 13.2 5.3 C 13.2 7.4 12 8.9 9.8 8.9 C 7.5 8.9 6.3 7.6 6.3 5.3 C 6.32 5.28 6.3 0.6 6.3 0.6 L 7.2 0.6 Z M 14.9 0.6 C 14.9 0.6 17.08 0.56 17.1 0.6 C 18.7 0.6 19.6 1.5 19.6 2.8 C 19.6 3.8 19 4.5 18 4.8 C 18.6 5.1 18.8 5.3 19.5 6.3 C 19.46 6.3 21 8.7 21 8.7 L 20 8.7 C 20 8.7 18.54 6.49 18.5 6.5 C 17.8 5.3 17.3 5 16.6 5 C 16.58 5.03 15.8 5 15.8 5 L 15.8 8.7 L 14.9 8.7 L 14.9 0.6 Z M 16.7 4.2 C 17.8 4.2 18.6 4 18.6 2.8 C 18.6 1.8 18 1.4 17 1.4 C 16.96 1.36 15.8 1.4 15.8 1.4 L 15.8 4.2 C 15.8 4.2 16.67 4.24 16.7 4.2 Z M 20.6 0.6 L 21.5 0.6 L 24.2 6.9 L 24.2 6.9 L 26.9 0.6 L 27.8 0.6 L 24.3 8.8 L 24.1 8.8 L 20.6 0.6 Z M 33.2 0.6 L 33.2 1.4 L 29.6 1.4 L 29.6 4.2 L 33 4.2 L 33 5 L 29.6 5 L 29.6 7.9 L 33.3 7.9 L 33.3 8.7 L 28.7 8.7 L 28.7 0.6 L 33.2 0.6 Z M 35.1 0.6 L 37.6 3.6 L 40 0.6 L 41.1 0.6 L 38 4.4 L 38 8.7 L 37.1 8.7 L 37.1 4.4 L 34 0.6 L 35.1 0.6 Z " stroke="none" fill="#010102"/>  </g></svg>