<?xml version="1.0" standalone="no"?><!DOCTYPE svg PUBLIC "-//W3C//DTD SVG 1.1//EN" "http://www.w3.org/Graphics/SVG/1.1/DTD/svg11.dtd"><svg xmlns="http://www.w3.org/2000/svg" version="1.1" width="76px" height="20.5px" viewBox="0 -4 76 20.5" style="top:-4px">  <desc>Case Studies</desc>  <defs/>  <g id="Polygon2215">    <path d="M 9.2 5.7 C 9.2 5.7 10.3 6 10.3 6 C 10.1 6.9 9.6 7.7 9 8.1 C 8.4 8.6 7.6 8.9 6.8 8.9 C 5.8 8.9 5.1 8.7 4.5 8.3 C 3.9 7.9 3.5 7.4 3.2 6.7 C 2.9 6 2.7 5.2 2.7 4.4 C 2.7 3.5 2.9 2.7 3.2 2 C 3.6 1.4 4.1 0.9 4.7 0.5 C 5.3 0.2 6 0 6.8 0 C 7.6 0 8.4 0.2 8.9 0.7 C 9.5 1.1 9.9 1.7 10.2 2.5 C 10.2 2.5 9 2.8 9 2.8 C 8.8 2.1 8.6 1.7 8.2 1.4 C 7.8 1.1 7.3 1 6.7 1 C 6.1 1 5.5 1.1 5.1 1.4 C 4.6 1.8 4.3 2.2 4.2 2.7 C 4 3.3 3.9 3.8 3.9 4.4 C 3.9 5.1 4 5.7 4.2 6.3 C 4.4 6.8 4.8 7.2 5.2 7.5 C 5.7 7.8 6.1 7.9 6.7 7.9 C 7.3 7.9 7.8 7.7 8.3 7.4 C 8.7 7 9 6.4 9.2 5.7 Z M 15.8 8.7 C 15.7 8.5 15.7 8.3 15.6 8 C 15.2 8.3 14.9 8.5 14.5 8.7 C 14.1 8.8 13.8 8.9 13.3 8.9 C 12.7 8.9 12.1 8.7 11.8 8.4 C 11.4 8 11.2 7.6 11.2 7.1 C 11.2 6.8 11.3 6.5 11.4 6.3 C 11.6 6 11.7 5.8 12 5.7 C 12.2 5.5 12.4 5.4 12.7 5.3 C 12.9 5.3 13.2 5.2 13.7 5.2 C 14.5 5 15.1 4.9 15.5 4.8 C 15.6 4.6 15.6 4.6 15.6 4.5 C 15.6 4.1 15.5 3.8 15.3 3.6 C 15 3.4 14.6 3.2 14.1 3.2 C 13.6 3.2 13.2 3.3 13 3.5 C 12.7 3.7 12.5 4 12.4 4.4 C 12.4 4.4 11.4 4.3 11.4 4.3 C 11.5 3.8 11.6 3.5 11.9 3.2 C 12.1 2.9 12.4 2.7 12.8 2.6 C 13.2 2.4 13.7 2.4 14.2 2.4 C 14.7 2.4 15.2 2.4 15.5 2.6 C 15.8 2.7 16.1 2.8 16.2 3 C 16.4 3.2 16.5 3.5 16.6 3.8 C 16.6 3.9 16.6 4.3 16.6 4.7 C 16.6 4.7 16.6 6.1 16.6 6.1 C 16.6 7.1 16.6 7.7 16.7 8 C 16.7 8.2 16.8 8.5 16.9 8.7 C 16.95 8.74 15.8 8.7 15.8 8.7 C 15.8 8.7 15.85 8.74 15.8 8.7 Z M 15.5 5.6 C 15.2 5.8 14.6 5.9 13.8 6 C 13.4 6.1 13.1 6.1 12.9 6.2 C 12.7 6.3 12.6 6.4 12.5 6.6 C 12.4 6.7 12.3 6.9 12.3 7.1 C 12.3 7.3 12.5 7.6 12.7 7.8 C 12.9 8 13.2 8.1 13.6 8.1 C 14 8.1 14.4 8 14.7 7.8 C 15 7.6 15.2 7.4 15.4 7.1 C 15.5 6.8 15.5 6.5 15.5 6 C 15.5 6 15.5 5.6 15.5 5.6 Z M 17.8 6.9 C 17.8 6.9 18.9 6.7 18.9 6.7 C 18.9 7.1 19.1 7.5 19.4 7.7 C 19.6 7.9 20 8 20.5 8 C 21 8 21.3 7.9 21.6 7.7 C 21.8 7.5 21.9 7.3 21.9 7 C 21.9 6.8 21.8 6.6 21.6 6.5 C 21.5 6.4 21.1 6.2 20.5 6.1 C 19.8 5.9 19.2 5.7 18.9 5.6 C 18.6 5.5 18.4 5.3 18.2 5 C 18.1 4.7 18 4.5 18 4.2 C 18 3.9 18.1 3.6 18.2 3.4 C 18.3 3.2 18.5 3 18.7 2.8 C 18.9 2.7 19.1 2.6 19.4 2.5 C 19.7 2.4 20 2.4 20.3 2.4 C 20.8 2.4 21.2 2.4 21.6 2.6 C 22 2.7 22.2 2.9 22.4 3.2 C 22.6 3.4 22.7 3.7 22.8 4.1 C 22.8 4.1 21.7 4.3 21.7 4.3 C 21.7 3.9 21.5 3.7 21.3 3.5 C 21.1 3.3 20.8 3.2 20.4 3.2 C 19.9 3.2 19.5 3.3 19.3 3.5 C 19.1 3.6 19 3.8 19 4 C 19 4.2 19.1 4.3 19.2 4.4 C 19.2 4.5 19.4 4.6 19.6 4.7 C 19.7 4.7 20 4.8 20.5 5 C 21.2 5.2 21.8 5.3 22 5.5 C 22.3 5.6 22.6 5.8 22.7 6 C 22.9 6.2 23 6.5 23 6.9 C 23 7.3 22.9 7.6 22.7 7.9 C 22.5 8.2 22.2 8.5 21.8 8.6 C 21.4 8.8 21 8.9 20.5 8.9 C 19.7 8.9 19.1 8.7 18.6 8.4 C 18.2 8 17.9 7.5 17.8 6.9 Z M 28.5 6.7 C 28.5 6.7 29.6 6.9 29.6 6.9 C 29.4 7.5 29.1 8 28.6 8.3 C 28.2 8.7 27.6 8.9 26.9 8.9 C 26 8.9 25.2 8.6 24.7 8 C 24.2 7.5 23.9 6.7 23.9 5.7 C 23.9 4.6 24.2 3.8 24.7 3.2 C 25.2 2.7 25.9 2.4 26.8 2.4 C 27.6 2.4 28.3 2.7 28.8 3.2 C 29.4 3.8 29.6 4.6 29.6 5.6 C 29.6 5.7 29.6 5.8 29.6 5.9 C 29.6 5.9 25 5.9 25 5.9 C 25 6.6 25.2 7.1 25.6 7.5 C 25.9 7.8 26.3 8 26.9 8 C 27.3 8 27.6 7.9 27.9 7.7 C 28.1 7.5 28.3 7.2 28.5 6.7 Z M 25 5 C 25 5 28.5 5 28.5 5 C 28.5 4.5 28.3 4.1 28.1 3.8 C 27.8 3.4 27.4 3.2 26.8 3.2 C 26.3 3.2 25.9 3.4 25.6 3.7 C 25.3 4.1 25.1 4.5 25 5 Z M 34 6 C 34 6 35.1 5.9 35.1 5.9 C 35.1 6.3 35.2 6.7 35.4 6.9 C 35.6 7.2 35.9 7.4 36.3 7.6 C 36.7 7.8 37.1 7.9 37.6 7.9 C 38 7.9 38.4 7.8 38.8 7.7 C 39.1 7.5 39.3 7.4 39.5 7.1 C 39.7 6.9 39.7 6.7 39.7 6.4 C 39.7 6.1 39.7 5.9 39.5 5.7 C 39.4 5.5 39.1 5.3 38.7 5.2 C 38.5 5.1 38 5 37.2 4.8 C 36.4 4.6 35.9 4.4 35.6 4.2 C 35.1 4 34.8 3.8 34.6 3.4 C 34.4 3.1 34.3 2.8 34.3 2.4 C 34.3 1.9 34.5 1.5 34.7 1.2 C 34.9 0.8 35.3 0.5 35.8 0.3 C 36.3 0.1 36.8 0 37.4 0 C 38 0 38.6 0.1 39 0.3 C 39.5 0.5 39.9 0.8 40.2 1.2 C 40.4 1.6 40.6 2.1 40.6 2.6 C 40.6 2.6 39.5 2.6 39.5 2.6 C 39.4 2.1 39.2 1.7 38.9 1.4 C 38.6 1.1 38.1 1 37.4 1 C 36.7 1 36.2 1.1 35.9 1.4 C 35.6 1.6 35.4 1.9 35.4 2.3 C 35.4 2.6 35.5 2.9 35.8 3.1 C 36 3.3 36.6 3.5 37.5 3.7 C 38.4 3.9 39 4.1 39.4 4.2 C 39.9 4.4 40.2 4.7 40.5 5.1 C 40.7 5.4 40.8 5.8 40.8 6.3 C 40.8 6.8 40.7 7.2 40.5 7.6 C 40.2 8 39.8 8.3 39.3 8.5 C 38.8 8.8 38.3 8.9 37.7 8.9 C 36.9 8.9 36.2 8.8 35.7 8.5 C 35.2 8.3 34.8 8 34.5 7.5 C 34.2 7.1 34 6.6 34 6 Z M 44.1 7.8 C 44.2 7.8 44.4 7.8 44.6 7.8 C 44.6 7.8 44.7 8.7 44.7 8.7 C 44.4 8.8 44.2 8.8 43.9 8.8 C 43.5 8.8 43.2 8.8 43 8.6 C 42.8 8.5 42.7 8.4 42.6 8.2 C 42.5 8 42.5 7.5 42.5 6.9 C 42.46 6.91 42.5 3.3 42.5 3.3 L 41.7 3.3 L 41.7 2.5 L 42.5 2.5 L 42.5 1 L 43.5 0.3 L 43.5 2.5 L 44.6 2.5 L 44.6 3.3 L 43.5 3.3 C 43.5 3.3 43.5 6.97 43.5 7 C 43.5 7.3 43.5 7.5 43.6 7.6 C 43.6 7.6 43.7 7.7 43.7 7.8 C 43.8 7.8 43.9 7.8 44.1 7.8 C 44.1 7.8 44.1 7.8 44.1 7.8 Z M 49.7 8.7 C 49.7 8.7 49.67 7.82 49.7 7.8 C 49.2 8.5 48.5 8.9 47.7 8.9 C 47.3 8.9 47 8.8 46.7 8.7 C 46.4 8.5 46.1 8.3 46 8.1 C 45.8 7.9 45.7 7.7 45.6 7.4 C 45.6 7.1 45.6 6.8 45.6 6.4 C 45.57 6.37 45.6 2.5 45.6 2.5 L 46.6 2.5 C 46.6 2.5 46.63 5.96 46.6 6 C 46.6 6.5 46.6 6.9 46.7 7.1 C 46.8 7.4 46.9 7.6 47.1 7.7 C 47.3 7.9 47.6 8 47.9 8 C 48.2 8 48.5 7.9 48.8 7.7 C 49.1 7.6 49.3 7.3 49.4 7.1 C 49.5 6.8 49.6 6.4 49.6 5.8 C 49.56 5.85 49.6 2.5 49.6 2.5 L 50.6 2.5 L 50.6 8.7 L 49.7 8.7 Z M 56.3 8.7 C 56.3 8.7 56.31 7.95 56.3 8 C 55.9 8.6 55.3 8.9 54.6 8.9 C 54.1 8.9 53.6 8.7 53.2 8.5 C 52.8 8.2 52.5 7.8 52.2 7.3 C 52 6.8 51.9 6.3 51.9 5.6 C 51.9 5 52 4.4 52.2 3.9 C 52.4 3.4 52.7 3 53.1 2.8 C 53.5 2.5 54 2.4 54.5 2.4 C 54.9 2.4 55.2 2.5 55.5 2.6 C 55.8 2.8 56.1 3 56.2 3.2 C 56.24 3.23 56.2 0.1 56.2 0.1 L 57.3 0.1 L 57.3 8.7 L 56.3 8.7 Z M 53 5.6 C 53 6.4 53.1 7 53.5 7.4 C 53.8 7.8 54.2 8 54.7 8 C 55.1 8 55.5 7.8 55.8 7.4 C 56.2 7.1 56.3 6.5 56.3 5.7 C 56.3 4.9 56.2 4.2 55.8 3.8 C 55.5 3.4 55.1 3.2 54.6 3.2 C 54.2 3.2 53.8 3.4 53.4 3.8 C 53.1 4.2 53 4.8 53 5.6 Z M 58.9 1.4 L 58.9 0.1 L 60 0.1 L 60 1.4 L 58.9 1.4 Z M 58.9 8.7 L 58.9 2.5 L 60 2.5 L 60 8.7 L 58.9 8.7 Z M 65.9 6.7 C 65.9 6.7 67 6.9 67 6.9 C 66.8 7.5 66.5 8 66 8.3 C 65.5 8.7 64.9 8.9 64.2 8.9 C 63.3 8.9 62.6 8.6 62.1 8 C 61.5 7.5 61.3 6.7 61.3 5.7 C 61.3 4.6 61.5 3.8 62.1 3.2 C 62.6 2.7 63.3 2.4 64.2 2.4 C 65 2.4 65.7 2.7 66.2 3.2 C 66.7 3.8 67 4.6 67 5.6 C 67 5.7 67 5.8 67 5.9 C 67 5.9 62.3 5.9 62.3 5.9 C 62.4 6.6 62.6 7.1 62.9 7.5 C 63.3 7.8 63.7 8 64.2 8 C 64.6 8 64.9 7.9 65.2 7.7 C 65.5 7.5 65.7 7.2 65.9 6.7 Z M 62.4 5 C 62.4 5 65.9 5 65.9 5 C 65.8 4.5 65.7 4.1 65.5 3.8 C 65.1 3.4 64.7 3.2 64.2 3.2 C 63.7 3.2 63.3 3.4 63 3.7 C 62.6 4.1 62.4 4.5 62.4 5 Z M 67.9 6.9 C 67.9 6.9 68.9 6.7 68.9 6.7 C 69 7.1 69.1 7.5 69.4 7.7 C 69.7 7.9 70 8 70.5 8 C 71 8 71.4 7.9 71.6 7.7 C 71.8 7.5 71.9 7.3 71.9 7 C 71.9 6.8 71.8 6.6 71.6 6.5 C 71.5 6.4 71.1 6.2 70.6 6.1 C 69.8 5.9 69.2 5.7 68.9 5.6 C 68.6 5.5 68.4 5.3 68.3 5 C 68.1 4.7 68 4.5 68 4.2 C 68 3.9 68.1 3.6 68.2 3.4 C 68.4 3.2 68.5 3 68.7 2.8 C 68.9 2.7 69.1 2.6 69.4 2.5 C 69.7 2.4 70 2.4 70.3 2.4 C 70.8 2.4 71.2 2.4 71.6 2.6 C 72 2.7 72.3 2.9 72.4 3.2 C 72.6 3.4 72.7 3.7 72.8 4.1 C 72.8 4.1 71.8 4.3 71.8 4.3 C 71.7 3.9 71.6 3.7 71.4 3.5 C 71.1 3.3 70.8 3.2 70.4 3.2 C 69.9 3.2 69.6 3.3 69.4 3.5 C 69.2 3.6 69.1 3.8 69.1 4 C 69.1 4.2 69.1 4.3 69.2 4.4 C 69.3 4.5 69.4 4.6 69.6 4.7 C 69.7 4.7 70 4.8 70.5 5 C 71.3 5.2 71.8 5.3 72.1 5.5 C 72.4 5.6 72.6 5.8 72.8 6 C 72.9 6.2 73 6.5 73 6.9 C 73 7.3 72.9 7.6 72.7 7.9 C 72.5 8.2 72.2 8.5 71.8 8.6 C 71.4 8.8 71 8.9 70.5 8.9 C 69.7 8.9 69.1 8.7 68.7 8.4 C 68.2 8 68 7.5 67.9 6.9 Z " stroke="none" fill="#000"/>  </g></svg>