<?xml version="1.0" standalone="no"?><!DOCTYPE svg PUBLIC "-//W3C//DTD SVG 1.1//EN" "http://www.w3.org/Graphics/SVG/1.1/DTD/svg11.dtd"><svg xmlns="http://www.w3.org/2000/svg" version="1.1" width="247px" height="59.5px" viewBox="0 -5 247 59.5" style="top:-5px">  <desc>Case Studies Gain a better understanding on what we can do for you.</desc>  <defs/>  <g id="Polygon751">    <path d="M 4.8 47.5 C 4.8 47.5 4.83 46.74 4.8 46.7 C 4.4 47.4 3.9 47.7 3.1 47.7 C 2.6 47.7 2.1 47.5 1.7 47.3 C 1.3 47 1 46.6 0.8 46.1 C 0.5 45.6 0.4 45.1 0.4 44.4 C 0.4 43.8 0.5 43.2 0.7 42.7 C 0.9 42.2 1.2 41.8 1.7 41.6 C 2.1 41.3 2.5 41.2 3 41.2 C 3.4 41.2 3.8 41.2 4 41.4 C 4.3 41.6 4.6 41.8 4.8 42 C 4.76 42.01 4.8 38.9 4.8 38.9 L 5.8 38.9 L 5.8 47.5 L 4.8 47.5 Z M 1.5 44.4 C 1.5 45.2 1.7 45.8 2 46.2 C 2.3 46.6 2.7 46.8 3.2 46.8 C 3.6 46.8 4 46.6 4.4 46.2 C 4.7 45.9 4.8 45.3 4.8 44.5 C 4.8 43.7 4.7 43 4.4 42.6 C 4 42.2 3.6 42 3.1 42 C 2.7 42 2.3 42.2 2 42.6 C 1.7 43 1.5 43.6 1.5 44.4 Z M 7.1 44.4 C 7.1 43.3 7.4 42.4 8 41.8 C 8.6 41.4 9.2 41.2 10 41.2 C 10.8 41.2 11.5 41.4 12.1 42 C 12.6 42.6 12.9 43.3 12.9 44.3 C 12.9 45.1 12.8 45.8 12.5 46.2 C 12.3 46.7 12 47 11.5 47.3 C 11 47.5 10.5 47.7 10 47.7 C 9.1 47.7 8.4 47.4 7.9 46.8 C 7.3 46.3 7.1 45.5 7.1 44.4 Z M 8.2 44.4 C 8.2 45.2 8.3 45.8 8.7 46.2 C 9 46.6 9.5 46.8 10 46.8 C 10.5 46.8 10.9 46.6 11.3 46.2 C 11.6 45.8 11.8 45.2 11.8 44.4 C 11.8 43.6 11.6 43 11.3 42.6 C 10.9 42.2 10.5 42 10 42 C 9.5 42 9 42.2 8.7 42.6 C 8.3 43 8.2 43.6 8.2 44.4 Z M 17.7 47.5 L 17.7 42.1 L 16.8 42.1 L 16.8 41.3 L 17.7 41.3 C 17.7 41.3 17.72 40.64 17.7 40.6 C 17.7 40.2 17.8 39.9 17.8 39.7 C 17.9 39.4 18.1 39.2 18.4 39 C 18.6 38.9 19 38.8 19.4 38.8 C 19.7 38.8 20.1 38.8 20.4 38.9 C 20.4 38.9 20.3 39.8 20.3 39.8 C 20.1 39.8 19.8 39.8 19.7 39.8 C 19.3 39.8 19.1 39.8 19 40 C 18.8 40.1 18.8 40.3 18.8 40.7 C 18.77 40.72 18.8 41.3 18.8 41.3 L 20 41.3 L 20 42.1 L 18.8 42.1 L 18.8 47.5 L 17.7 47.5 Z M 20.4 44.4 C 20.4 43.3 20.7 42.4 21.4 41.8 C 21.9 41.4 22.6 41.2 23.3 41.2 C 24.2 41.2 24.9 41.4 25.4 42 C 26 42.6 26.2 43.3 26.2 44.3 C 26.2 45.1 26.1 45.8 25.9 46.2 C 25.6 46.7 25.3 47 24.8 47.3 C 24.4 47.5 23.9 47.7 23.3 47.7 C 22.5 47.7 21.8 47.4 21.2 46.8 C 20.7 46.3 20.4 45.5 20.4 44.4 Z M 21.5 44.4 C 21.5 45.2 21.7 45.8 22 46.2 C 22.4 46.6 22.8 46.8 23.3 46.8 C 23.9 46.8 24.3 46.6 24.6 46.2 C 25 45.8 25.2 45.2 25.2 44.4 C 25.2 43.6 25 43 24.6 42.6 C 24.3 42.2 23.9 42 23.3 42 C 22.8 42 22.4 42.2 22 42.6 C 21.7 43 21.5 43.6 21.5 44.4 Z M 27.5 47.5 L 27.5 41.3 L 28.4 41.3 C 28.4 41.3 28.42 42.24 28.4 42.2 C 28.7 41.8 28.9 41.5 29.1 41.4 C 29.3 41.2 29.5 41.2 29.8 41.2 C 30.1 41.2 30.5 41.3 30.8 41.5 C 30.8 41.5 30.5 42.5 30.5 42.5 C 30.2 42.3 30 42.2 29.7 42.2 C 29.5 42.2 29.3 42.3 29.1 42.5 C 28.9 42.6 28.8 42.8 28.7 43 C 28.6 43.4 28.5 43.8 28.5 44.3 C 28.52 44.26 28.5 47.5 28.5 47.5 L 27.5 47.5 Z M 35.4 50 C 35.2 50 35 50 34.8 49.9 C 34.8 49.9 34.6 48.9 34.6 48.9 C 34.9 49 35.1 49 35.3 49 C 35.5 49 35.7 49 35.8 48.9 C 36 48.8 36.1 48.7 36.2 48.6 C 36.2 48.5 36.3 48.2 36.5 47.8 C 36.5 47.7 36.5 47.6 36.6 47.5 C 36.57 47.53 34.2 41.3 34.2 41.3 L 35.3 41.3 C 35.3 41.3 36.64 44.9 36.6 44.9 C 36.8 45.4 37 45.8 37.1 46.3 C 37.2 45.9 37.4 45.4 37.5 44.9 C 37.53 44.93 38.9 41.3 38.9 41.3 L 39.9 41.3 C 39.9 41.3 37.55 47.63 37.5 47.6 C 37.3 48.3 37.1 48.8 37 49 C 36.8 49.4 36.6 49.6 36.3 49.8 C 36.1 50 35.8 50 35.4 50 C 35.4 50 35.4 50 35.4 50 Z M 40.4 44.4 C 40.4 43.3 40.7 42.4 41.4 41.8 C 41.9 41.4 42.6 41.2 43.3 41.2 C 44.2 41.2 44.9 41.4 45.4 42 C 46 42.6 46.2 43.3 46.2 44.3 C 46.2 45.1 46.1 45.8 45.9 46.2 C 45.6 46.7 45.3 47 44.8 47.3 C 44.4 47.5 43.9 47.7 43.3 47.7 C 42.5 47.7 41.8 47.4 41.2 46.8 C 40.7 46.3 40.4 45.5 40.4 44.4 Z M 41.5 44.4 C 41.5 45.2 41.7 45.8 42 46.2 C 42.4 46.6 42.8 46.8 43.3 46.8 C 43.9 46.8 44.3 46.6 44.6 46.2 C 45 45.8 45.2 45.2 45.2 44.4 C 45.2 43.6 45 43 44.6 42.6 C 44.3 42.2 43.9 42 43.3 42 C 42.8 42 42.4 42.2 42 42.6 C 41.7 43 41.5 43.6 41.5 44.4 Z M 51.6 47.5 C 51.6 47.5 51.56 46.61 51.6 46.6 C 51.1 47.3 50.4 47.7 49.6 47.7 C 49.2 47.7 48.9 47.6 48.6 47.5 C 48.2 47.3 48 47.1 47.9 46.9 C 47.7 46.7 47.6 46.4 47.5 46.1 C 47.5 45.9 47.5 45.6 47.5 45.2 C 47.46 45.15 47.5 41.3 47.5 41.3 L 48.5 41.3 C 48.5 41.3 48.52 44.75 48.5 44.8 C 48.5 45.3 48.5 45.7 48.6 45.9 C 48.6 46.1 48.8 46.4 49 46.5 C 49.2 46.7 49.5 46.8 49.8 46.8 C 50.1 46.8 50.4 46.7 50.7 46.5 C 51 46.3 51.2 46.1 51.3 45.8 C 51.4 45.6 51.5 45.2 51.5 44.6 C 51.45 44.63 51.5 41.3 51.5 41.3 L 52.5 41.3 L 52.5 47.5 L 51.6 47.5 Z M 54.5 47.5 L 54.5 46.3 L 55.7 46.3 L 55.7 47.5 L 54.5 47.5 Z " stroke="none" fill="#010102"/>  </g>  <g id="Polygon750">    <path d="M 4.9 29.8 L 4.9 28.7 L 8.6 28.7 C 8.6 28.7 8.58 31.93 8.6 31.9 C 8 32.4 7.4 32.7 6.9 32.9 C 6.3 33.2 5.7 33.3 5 33.3 C 4.2 33.3 3.4 33.1 2.7 32.7 C 2 32.4 1.5 31.8 1.2 31.2 C 0.8 30.5 0.6 29.7 0.6 28.9 C 0.6 28 0.8 27.3 1.2 26.5 C 1.5 25.8 2 25.3 2.7 24.9 C 3.3 24.6 4.1 24.4 4.9 24.4 C 5.6 24.4 6.1 24.5 6.6 24.7 C 7.1 24.9 7.5 25.2 7.8 25.5 C 8.1 25.9 8.3 26.4 8.5 26.9 C 8.5 26.9 7.4 27.2 7.4 27.2 C 7.3 26.8 7.1 26.4 6.9 26.2 C 6.8 25.9 6.5 25.7 6.1 25.6 C 5.8 25.4 5.4 25.4 4.9 25.4 C 4.4 25.4 4 25.4 3.6 25.6 C 3.2 25.8 2.9 26 2.7 26.2 C 2.4 26.5 2.3 26.8 2.1 27.1 C 1.9 27.6 1.8 28.2 1.8 28.8 C 1.8 29.6 1.9 30.2 2.2 30.7 C 2.5 31.2 2.9 31.6 3.4 31.9 C 3.9 32.1 4.4 32.2 5 32.2 C 5.5 32.2 5.9 32.1 6.4 32 C 6.9 31.8 7.2 31.6 7.5 31.4 C 7.47 31.35 7.5 29.8 7.5 29.8 L 4.9 29.8 Z M 14.4 33.1 C 14.3 32.9 14.2 32.6 14.2 32.4 C 13.8 32.7 13.4 32.9 13.1 33.1 C 12.7 33.2 12.3 33.3 11.9 33.3 C 11.2 33.3 10.7 33.1 10.3 32.8 C 10 32.4 9.8 32 9.8 31.5 C 9.8 31.2 9.8 30.9 10 30.6 C 10.1 30.4 10.3 30.2 10.5 30 C 10.7 29.9 11 29.8 11.3 29.7 C 11.5 29.6 11.8 29.6 12.2 29.5 C 13.1 29.4 13.7 29.3 14.1 29.2 C 14.1 29 14.1 28.9 14.1 28.9 C 14.1 28.5 14 28.2 13.8 28 C 13.5 27.8 13.1 27.6 12.6 27.6 C 12.1 27.6 11.7 27.7 11.5 27.9 C 11.3 28.1 11.1 28.4 11 28.8 C 11 28.8 9.9 28.7 9.9 28.7 C 10 28.2 10.2 27.9 10.4 27.6 C 10.6 27.3 10.9 27.1 11.3 27 C 11.7 26.8 12.2 26.8 12.8 26.8 C 13.3 26.8 13.7 26.8 14.1 26.9 C 14.4 27.1 14.6 27.2 14.8 27.4 C 14.9 27.6 15 27.8 15.1 28.1 C 15.1 28.3 15.2 28.6 15.2 29.1 C 15.2 29.1 15.2 30.5 15.2 30.5 C 15.2 31.5 15.2 32.1 15.2 32.4 C 15.3 32.6 15.4 32.9 15.5 33.1 C 15.5 33.12 14.4 33.1 14.4 33.1 C 14.4 33.1 14.4 33.12 14.4 33.1 Z M 14.1 30 C 13.7 30.2 13.1 30.3 12.4 30.4 C 11.9 30.5 11.6 30.5 11.5 30.6 C 11.3 30.7 11.1 30.8 11 31 C 10.9 31.1 10.9 31.3 10.9 31.5 C 10.9 31.7 11 32 11.2 32.2 C 11.4 32.3 11.7 32.4 12.1 32.4 C 12.6 32.4 12.9 32.3 13.2 32.2 C 13.5 32 13.8 31.7 13.9 31.4 C 14 31.2 14.1 30.9 14.1 30.4 C 14.1 30.4 14.1 30 14.1 30 Z M 16.8 25.7 L 16.8 24.5 L 17.9 24.5 L 17.9 25.7 L 16.8 25.7 Z M 16.8 33.1 L 16.8 26.9 L 17.9 26.9 L 17.9 33.1 L 16.8 33.1 Z M 19.5 33.1 L 19.5 26.9 L 20.4 26.9 C 20.4 26.9 20.41 27.78 20.4 27.8 C 20.9 27.1 21.5 26.8 22.4 26.8 C 22.8 26.8 23.1 26.8 23.4 27 C 23.7 27.1 24 27.3 24.1 27.5 C 24.3 27.7 24.4 28 24.5 28.3 C 24.5 28.5 24.5 28.8 24.5 29.3 C 24.52 29.3 24.5 33.1 24.5 33.1 L 23.5 33.1 C 23.5 33.1 23.47 29.34 23.5 29.3 C 23.5 28.9 23.4 28.6 23.3 28.4 C 23.3 28.2 23.1 28 22.9 27.9 C 22.7 27.7 22.5 27.7 22.2 27.7 C 21.7 27.7 21.3 27.8 21 28.1 C 20.7 28.4 20.5 28.9 20.5 29.7 C 20.52 29.72 20.5 33.1 20.5 33.1 L 19.5 33.1 Z M 33.7 33.1 C 33.6 32.9 33.6 32.6 33.5 32.4 C 33.1 32.7 32.8 32.9 32.4 33.1 C 32 33.2 31.7 33.3 31.2 33.3 C 30.6 33.3 30 33.1 29.7 32.8 C 29.3 32.4 29.1 32 29.1 31.5 C 29.1 31.2 29.2 30.9 29.3 30.6 C 29.5 30.4 29.6 30.2 29.9 30 C 30.1 29.9 30.3 29.8 30.6 29.7 C 30.8 29.6 31.1 29.6 31.6 29.5 C 32.4 29.4 33 29.3 33.4 29.2 C 33.4 29 33.5 28.9 33.5 28.9 C 33.5 28.5 33.4 28.2 33.2 28 C 32.9 27.8 32.5 27.6 32 27.6 C 31.5 27.6 31.1 27.7 30.9 27.9 C 30.6 28.1 30.4 28.4 30.3 28.8 C 30.3 28.8 29.3 28.7 29.3 28.7 C 29.4 28.2 29.5 27.9 29.8 27.6 C 30 27.3 30.3 27.1 30.7 27 C 31.1 26.8 31.6 26.8 32.1 26.8 C 32.6 26.8 33.1 26.8 33.4 26.9 C 33.7 27.1 34 27.2 34.1 27.4 C 34.3 27.6 34.4 27.8 34.5 28.1 C 34.5 28.3 34.5 28.6 34.5 29.1 C 34.5 29.1 34.5 30.5 34.5 30.5 C 34.5 31.5 34.5 32.1 34.6 32.4 C 34.6 32.6 34.7 32.9 34.8 33.1 C 34.85 33.12 33.7 33.1 33.7 33.1 C 33.7 33.1 33.74 33.12 33.7 33.1 Z M 33.4 30 C 33.1 30.2 32.5 30.3 31.7 30.4 C 31.3 30.5 31 30.5 30.8 30.6 C 30.6 30.7 30.5 30.8 30.4 31 C 30.3 31.1 30.2 31.3 30.2 31.5 C 30.2 31.7 30.3 32 30.6 32.2 C 30.8 32.3 31.1 32.4 31.5 32.4 C 31.9 32.4 32.3 32.3 32.6 32.2 C 32.9 32 33.1 31.7 33.3 31.4 C 33.4 31.2 33.4 30.9 33.4 30.4 C 33.4 30.4 33.4 30 33.4 30 Z M 40.5 33.1 L 39.5 33.1 L 39.5 24.5 L 40.5 24.5 C 40.5 24.5 40.53 27.6 40.5 27.6 C 41 27 41.5 26.8 42.2 26.8 C 42.6 26.8 43 26.8 43.3 27 C 43.7 27.1 43.9 27.4 44.2 27.6 C 44.4 27.9 44.6 28.3 44.7 28.7 C 44.8 29 44.9 29.5 44.9 29.9 C 44.9 31 44.6 31.8 44.1 32.4 C 43.6 33 42.9 33.3 42.2 33.3 C 41.4 33.3 40.9 33 40.5 32.3 C 40.45 32.34 40.5 33.1 40.5 33.1 Z M 40.4 30 C 40.4 30.7 40.5 31.2 40.7 31.6 C 41.1 32.1 41.5 32.4 42.1 32.4 C 42.6 32.4 43 32.2 43.3 31.8 C 43.6 31.4 43.8 30.8 43.8 30 C 43.8 29.2 43.6 28.6 43.3 28.2 C 43 27.8 42.6 27.6 42.1 27.6 C 41.7 27.6 41.3 27.8 40.9 28.2 C 40.6 28.6 40.4 29.2 40.4 30 Z M 50.4 31.1 C 50.4 31.1 51.5 31.3 51.5 31.3 C 51.3 31.9 51 32.4 50.5 32.7 C 50.1 33.1 49.5 33.3 48.8 33.3 C 47.9 33.3 47.1 33 46.6 32.4 C 46.1 31.9 45.8 31.1 45.8 30.1 C 45.8 29 46.1 28.2 46.6 27.6 C 47.2 27 47.8 26.8 48.7 26.8 C 49.5 26.8 50.2 27 50.7 27.6 C 51.3 28.2 51.5 29 51.5 30 C 51.5 30.1 51.5 30.2 51.5 30.3 C 51.5 30.3 46.9 30.3 46.9 30.3 C 46.9 31 47.1 31.5 47.5 31.9 C 47.8 32.2 48.3 32.4 48.8 32.4 C 49.2 32.4 49.5 32.3 49.8 32.1 C 50 31.9 50.3 31.6 50.4 31.1 Z M 47 29.4 C 47 29.4 50.4 29.4 50.4 29.4 C 50.4 28.9 50.2 28.5 50 28.2 C 49.7 27.8 49.3 27.6 48.7 27.6 C 48.2 27.6 47.8 27.8 47.5 28.1 C 47.2 28.4 47 28.9 47 29.4 Z M 54.7 32.2 C 54.8 32.2 54.9 32.2 55.1 32.2 C 55.1 32.2 55.3 33.1 55.3 33.1 C 55 33.2 54.7 33.2 54.5 33.2 C 54.1 33.2 53.8 33.1 53.6 33 C 53.4 32.9 53.2 32.7 53.2 32.5 C 53.1 32.3 53 31.9 53 31.3 C 53.02 31.3 53 27.7 53 27.7 L 52.2 27.7 L 52.2 26.9 L 53 26.9 L 53 25.4 L 54.1 24.7 L 54.1 26.9 L 55.1 26.9 L 55.1 27.7 L 54.1 27.7 C 54.1 27.7 54.07 31.36 54.1 31.4 C 54.1 31.7 54.1 31.9 54.1 31.9 C 54.2 32 54.2 32.1 54.3 32.1 C 54.4 32.2 54.5 32.2 54.7 32.2 C 54.7 32.2 54.7 32.2 54.7 32.2 Z M 58 32.2 C 58.1 32.2 58.3 32.2 58.5 32.2 C 58.5 32.2 58.6 33.1 58.6 33.1 C 58.3 33.2 58.1 33.2 57.8 33.2 C 57.4 33.2 57.1 33.1 56.9 33 C 56.7 32.9 56.6 32.7 56.5 32.5 C 56.4 32.3 56.4 31.9 56.4 31.3 C 56.36 31.3 56.4 27.7 56.4 27.7 L 55.6 27.7 L 55.6 26.9 L 56.4 26.9 L 56.4 25.4 L 57.4 24.7 L 57.4 26.9 L 58.5 26.9 L 58.5 27.7 L 57.4 27.7 C 57.4 27.7 57.4 31.36 57.4 31.4 C 57.4 31.7 57.4 31.9 57.5 31.9 C 57.5 32 57.6 32.1 57.6 32.1 C 57.7 32.2 57.8 32.2 58 32.2 C 58 32.2 58 32.2 58 32.2 Z M 63.8 31.1 C 63.8 31.1 64.8 31.3 64.8 31.3 C 64.7 31.9 64.4 32.4 63.9 32.7 C 63.4 33.1 62.8 33.3 62.1 33.3 C 61.2 33.3 60.5 33 59.9 32.4 C 59.4 31.9 59.1 31.1 59.1 30.1 C 59.1 29 59.4 28.2 60 27.6 C 60.5 27 61.2 26.8 62.1 26.8 C 62.9 26.8 63.6 27 64.1 27.6 C 64.6 28.2 64.9 29 64.9 30 C 64.9 30.1 64.9 30.2 64.9 30.3 C 64.9 30.3 60.2 30.3 60.2 30.3 C 60.3 31 60.5 31.5 60.8 31.9 C 61.2 32.2 61.6 32.4 62.1 32.4 C 62.5 32.4 62.8 32.3 63.1 32.1 C 63.4 31.9 63.6 31.6 63.8 31.1 Z M 60.3 29.4 C 60.3 29.4 63.8 29.4 63.8 29.4 C 63.7 28.9 63.6 28.5 63.4 28.2 C 63 27.8 62.6 27.6 62.1 27.6 C 61.6 27.6 61.2 27.8 60.8 28.1 C 60.5 28.4 60.3 28.9 60.3 29.4 Z M 66.2 33.1 L 66.2 26.9 L 67.1 26.9 C 67.1 26.9 67.11 27.84 67.1 27.8 C 67.3 27.4 67.6 27.1 67.8 27 C 68 26.8 68.2 26.8 68.5 26.8 C 68.8 26.8 69.2 26.9 69.5 27.1 C 69.5 27.1 69.2 28.1 69.2 28.1 C 68.9 27.9 68.7 27.8 68.4 27.8 C 68.2 27.8 68 27.9 67.8 28.1 C 67.6 28.2 67.5 28.4 67.4 28.6 C 67.3 29 67.2 29.4 67.2 29.9 C 67.21 29.86 67.2 33.1 67.2 33.1 L 66.2 33.1 Z M 77.6 33.1 C 77.6 33.1 77.58 32.21 77.6 32.2 C 77.1 32.9 76.4 33.3 75.6 33.3 C 75.2 33.3 74.9 33.2 74.6 33.1 C 74.3 32.9 74 32.7 73.9 32.5 C 73.7 32.3 73.6 32 73.5 31.7 C 73.5 31.5 73.5 31.2 73.5 30.8 C 73.48 30.75 73.5 26.9 73.5 26.9 L 74.5 26.9 C 74.5 26.9 74.53 30.35 74.5 30.4 C 74.5 30.9 74.6 31.3 74.6 31.5 C 74.7 31.7 74.8 32 75 32.1 C 75.2 32.3 75.5 32.4 75.8 32.4 C 76.1 32.4 76.4 32.3 76.7 32.1 C 77 31.9 77.2 31.7 77.3 31.4 C 77.4 31.2 77.5 30.8 77.5 30.2 C 77.47 30.23 77.5 26.9 77.5 26.9 L 78.5 26.9 L 78.5 33.1 L 77.6 33.1 Z M 80.2 33.1 L 80.2 26.9 L 81.1 26.9 C 81.1 26.9 81.12 27.78 81.1 27.8 C 81.6 27.1 82.2 26.8 83.1 26.8 C 83.5 26.8 83.8 26.8 84.1 27 C 84.5 27.1 84.7 27.3 84.8 27.5 C 85 27.7 85.1 28 85.2 28.3 C 85.2 28.5 85.2 28.8 85.2 29.3 C 85.23 29.3 85.2 33.1 85.2 33.1 L 84.2 33.1 C 84.2 33.1 84.18 29.34 84.2 29.3 C 84.2 28.9 84.1 28.6 84.1 28.4 C 84 28.2 83.8 28 83.6 27.9 C 83.4 27.7 83.2 27.7 82.9 27.7 C 82.4 27.7 82 27.8 81.7 28.1 C 81.4 28.4 81.2 28.9 81.2 29.7 C 81.23 29.72 81.2 33.1 81.2 33.1 L 80.2 33.1 Z M 90.9 33.1 C 90.9 33.1 90.88 32.34 90.9 32.3 C 90.5 33 89.9 33.3 89.1 33.3 C 88.6 33.3 88.2 33.1 87.8 32.9 C 87.4 32.6 87 32.2 86.8 31.7 C 86.6 31.2 86.5 30.7 86.5 30 C 86.5 29.4 86.6 28.8 86.8 28.3 C 87 27.8 87.3 27.4 87.7 27.2 C 88.1 26.9 88.6 26.8 89.1 26.8 C 89.5 26.8 89.8 26.8 90.1 27 C 90.4 27.2 90.6 27.4 90.8 27.6 C 90.81 27.61 90.8 24.5 90.8 24.5 L 91.9 24.5 L 91.9 33.1 L 90.9 33.1 Z M 87.6 30 C 87.6 30.8 87.7 31.4 88.1 31.8 C 88.4 32.2 88.8 32.4 89.2 32.4 C 89.7 32.4 90.1 32.2 90.4 31.8 C 90.7 31.5 90.9 30.9 90.9 30.1 C 90.9 29.3 90.7 28.6 90.4 28.2 C 90.1 27.8 89.7 27.6 89.2 27.6 C 88.7 27.6 88.3 27.8 88 28.2 C 87.7 28.6 87.6 29.2 87.6 30 Z M 97.8 31.1 C 97.8 31.1 98.9 31.3 98.9 31.3 C 98.7 31.9 98.4 32.4 97.9 32.7 C 97.5 33.1 96.9 33.3 96.1 33.3 C 95.2 33.3 94.5 33 94 32.4 C 93.4 31.9 93.2 31.1 93.2 30.1 C 93.2 29 93.4 28.2 94 27.6 C 94.5 27 95.2 26.8 96.1 26.8 C 96.9 26.8 97.6 27 98.1 27.6 C 98.6 28.2 98.9 29 98.9 30 C 98.9 30.1 98.9 30.2 98.9 30.3 C 98.9 30.3 94.3 30.3 94.3 30.3 C 94.3 31 94.5 31.5 94.8 31.9 C 95.2 32.2 95.6 32.4 96.1 32.4 C 96.5 32.4 96.9 32.3 97.1 32.1 C 97.4 31.9 97.6 31.6 97.8 31.1 Z M 94.3 29.4 C 94.3 29.4 97.8 29.4 97.8 29.4 C 97.7 28.9 97.6 28.5 97.4 28.2 C 97.1 27.8 96.6 27.6 96.1 27.6 C 95.6 27.6 95.2 27.8 94.9 28.1 C 94.5 28.4 94.4 28.9 94.3 29.4 Z M 100.2 33.1 L 100.2 26.9 L 101.1 26.9 C 101.1 26.9 101.13 27.84 101.1 27.8 C 101.4 27.4 101.6 27.1 101.8 27 C 102 26.8 102.2 26.8 102.5 26.8 C 102.8 26.8 103.2 26.9 103.6 27.1 C 103.6 27.1 103.2 28.1 103.2 28.1 C 102.9 27.9 102.7 27.8 102.4 27.8 C 102.2 27.8 102 27.9 101.8 28.1 C 101.6 28.2 101.5 28.4 101.4 28.6 C 101.3 29 101.2 29.4 101.2 29.9 C 101.24 29.86 101.2 33.1 101.2 33.1 L 100.2 33.1 Z M 103.8 31.3 C 103.8 31.3 104.8 31.1 104.8 31.1 C 104.9 31.5 105 31.8 105.3 32.1 C 105.6 32.3 105.9 32.4 106.4 32.4 C 106.9 32.4 107.3 32.3 107.5 32.1 C 107.7 31.9 107.9 31.7 107.9 31.4 C 107.9 31.2 107.7 31 107.5 30.8 C 107.4 30.7 107 30.6 106.5 30.5 C 105.7 30.3 105.2 30.1 104.9 30 C 104.6 29.8 104.3 29.6 104.2 29.4 C 104 29.1 103.9 28.9 103.9 28.6 C 103.9 28.3 104 28 104.1 27.8 C 104.3 27.5 104.4 27.3 104.7 27.2 C 104.8 27.1 105 27 105.3 26.9 C 105.6 26.8 105.9 26.8 106.2 26.8 C 106.7 26.8 107.2 26.8 107.5 27 C 107.9 27.1 108.2 27.3 108.3 27.5 C 108.5 27.8 108.6 28.1 108.7 28.5 C 108.7 28.5 107.7 28.6 107.7 28.6 C 107.6 28.3 107.5 28.1 107.3 27.9 C 107 27.7 106.7 27.6 106.3 27.6 C 105.8 27.6 105.5 27.7 105.3 27.9 C 105.1 28 105 28.2 105 28.4 C 105 28.6 105 28.7 105.1 28.8 C 105.2 28.9 105.3 29 105.5 29.1 C 105.6 29.1 105.9 29.2 106.4 29.3 C 107.2 29.5 107.7 29.7 108 29.8 C 108.3 30 108.5 30.1 108.7 30.4 C 108.9 30.6 108.9 30.9 108.9 31.3 C 108.9 31.6 108.8 32 108.6 32.3 C 108.4 32.6 108.1 32.8 107.7 33 C 107.4 33.2 106.9 33.3 106.4 33.3 C 105.6 33.3 105 33.1 104.6 32.8 C 104.2 32.4 103.9 31.9 103.8 31.3 Z M 112 32.2 C 112.1 32.2 112.3 32.2 112.5 32.2 C 112.5 32.2 112.6 33.1 112.6 33.1 C 112.3 33.2 112.1 33.2 111.8 33.2 C 111.5 33.2 111.2 33.1 111 33 C 110.7 32.9 110.6 32.7 110.5 32.5 C 110.4 32.3 110.4 31.9 110.4 31.3 C 110.38 31.3 110.4 27.7 110.4 27.7 L 109.6 27.7 L 109.6 26.9 L 110.4 26.9 L 110.4 25.4 L 111.4 24.7 L 111.4 26.9 L 112.5 26.9 L 112.5 27.7 L 111.4 27.7 C 111.4 27.7 111.43 31.36 111.4 31.4 C 111.4 31.7 111.5 31.9 111.5 31.9 C 111.5 32 111.6 32.1 111.7 32.1 C 111.8 32.2 111.9 32.2 112 32.2 C 112 32.2 112 32.2 112 32.2 Z M 117.8 33.1 C 117.7 32.9 117.6 32.6 117.6 32.4 C 117.2 32.7 116.8 32.9 116.5 33.1 C 116.1 33.2 115.7 33.3 115.3 33.3 C 114.6 33.3 114.1 33.1 113.7 32.8 C 113.4 32.4 113.2 32 113.2 31.5 C 113.2 31.2 113.2 30.9 113.4 30.6 C 113.5 30.4 113.7 30.2 113.9 30 C 114.1 29.9 114.4 29.8 114.7 29.7 C 114.9 29.6 115.2 29.6 115.6 29.5 C 116.5 29.4 117.1 29.3 117.5 29.2 C 117.5 29 117.5 28.9 117.5 28.9 C 117.5 28.5 117.4 28.2 117.2 28 C 116.9 27.8 116.5 27.6 116 27.6 C 115.5 27.6 115.1 27.7 114.9 27.9 C 114.7 28.1 114.5 28.4 114.4 28.8 C 114.4 28.8 113.3 28.7 113.3 28.7 C 113.4 28.2 113.6 27.9 113.8 27.6 C 114 27.3 114.3 27.1 114.7 27 C 115.2 26.8 115.6 26.8 116.2 26.8 C 116.7 26.8 117.1 26.8 117.5 26.9 C 117.8 27.1 118 27.2 118.2 27.4 C 118.3 27.6 118.4 27.8 118.5 28.1 C 118.5 28.3 118.6 28.6 118.6 29.1 C 118.6 29.1 118.6 30.5 118.6 30.5 C 118.6 31.5 118.6 32.1 118.6 32.4 C 118.7 32.6 118.8 32.9 118.9 33.1 C 118.9 33.12 117.8 33.1 117.8 33.1 C 117.8 33.1 117.8 33.12 117.8 33.1 Z M 117.5 30 C 117.1 30.2 116.5 30.3 115.8 30.4 C 115.3 30.5 115 30.5 114.9 30.6 C 114.7 30.7 114.5 30.8 114.4 31 C 114.3 31.1 114.3 31.3 114.3 31.5 C 114.3 31.7 114.4 32 114.6 32.2 C 114.8 32.3 115.1 32.4 115.5 32.4 C 116 32.4 116.3 32.3 116.6 32.2 C 116.9 32 117.2 31.7 117.3 31.4 C 117.4 31.2 117.5 30.9 117.5 30.4 C 117.5 30.4 117.5 30 117.5 30 Z M 120.2 33.1 L 120.2 26.9 L 121.1 26.9 C 121.1 26.9 121.15 27.78 121.1 27.8 C 121.6 27.1 122.3 26.8 123.1 26.8 C 123.5 26.8 123.8 26.8 124.2 27 C 124.5 27.1 124.7 27.3 124.9 27.5 C 125 27.7 125.1 28 125.2 28.3 C 125.2 28.5 125.3 28.8 125.3 29.3 C 125.26 29.3 125.3 33.1 125.3 33.1 L 124.2 33.1 C 124.2 33.1 124.2 29.34 124.2 29.3 C 124.2 28.9 124.2 28.6 124.1 28.4 C 124 28.2 123.9 28 123.6 27.9 C 123.4 27.7 123.2 27.7 122.9 27.7 C 122.5 27.7 122.1 27.8 121.7 28.1 C 121.4 28.4 121.3 28.9 121.3 29.7 C 121.25 29.72 121.3 33.1 121.3 33.1 L 120.2 33.1 Z M 130.9 33.1 C 130.9 33.1 130.91 32.34 130.9 32.3 C 130.5 33 129.9 33.3 129.2 33.3 C 128.7 33.3 128.2 33.1 127.8 32.9 C 127.4 32.6 127.1 32.2 126.8 31.7 C 126.6 31.2 126.5 30.7 126.5 30 C 126.5 29.4 126.6 28.8 126.8 28.3 C 127 27.8 127.3 27.4 127.7 27.2 C 128.1 26.9 128.6 26.8 129.1 26.8 C 129.5 26.8 129.8 26.8 130.1 27 C 130.4 27.2 130.7 27.4 130.8 27.6 C 130.84 27.61 130.8 24.5 130.8 24.5 L 131.9 24.5 L 131.9 33.1 L 130.9 33.1 Z M 127.6 30 C 127.6 30.8 127.7 31.4 128.1 31.8 C 128.4 32.2 128.8 32.4 129.3 32.4 C 129.7 32.4 130.1 32.2 130.4 31.8 C 130.8 31.5 130.9 30.9 130.9 30.1 C 130.9 29.3 130.8 28.6 130.4 28.2 C 130.1 27.8 129.7 27.6 129.2 27.6 C 128.8 27.6 128.4 27.8 128 28.2 C 127.7 28.6 127.6 29.2 127.6 30 Z M 133.6 25.7 L 133.6 24.5 L 134.6 24.5 L 134.6 25.7 L 133.6 25.7 Z M 133.6 33.1 L 133.6 26.9 L 134.6 26.9 L 134.6 33.1 L 133.6 33.1 Z M 136.2 33.1 L 136.2 26.9 L 137.2 26.9 C 137.2 26.9 137.16 27.78 137.2 27.8 C 137.6 27.1 138.3 26.8 139.1 26.8 C 139.5 26.8 139.9 26.8 140.2 27 C 140.5 27.1 140.7 27.3 140.9 27.5 C 141 27.7 141.1 28 141.2 28.3 C 141.2 28.5 141.3 28.8 141.3 29.3 C 141.27 29.3 141.3 33.1 141.3 33.1 L 140.2 33.1 C 140.2 33.1 140.21 29.34 140.2 29.3 C 140.2 28.9 140.2 28.6 140.1 28.4 C 140 28.2 139.9 28 139.7 27.9 C 139.4 27.7 139.2 27.7 138.9 27.7 C 138.5 27.7 138.1 27.8 137.8 28.1 C 137.4 28.4 137.3 28.9 137.3 29.7 C 137.27 29.72 137.3 33.1 137.3 33.1 L 136.2 33.1 Z M 142.7 33.6 C 142.7 33.6 143.7 33.8 143.7 33.8 C 143.8 34.1 143.9 34.3 144.1 34.5 C 144.3 34.7 144.7 34.8 145.1 34.8 C 145.6 34.8 146 34.7 146.3 34.5 C 146.5 34.3 146.7 34 146.8 33.7 C 146.9 33.4 146.9 33 146.9 32.3 C 146.4 32.9 145.9 33.1 145.2 33.1 C 144.3 33.1 143.7 32.8 143.2 32.2 C 142.7 31.6 142.5 30.8 142.5 30 C 142.5 29.4 142.6 28.8 142.8 28.3 C 143 27.8 143.3 27.4 143.7 27.2 C 144.1 26.9 144.6 26.8 145.2 26.8 C 145.9 26.8 146.5 27.1 147 27.6 C 146.99 27.65 147 26.9 147 26.9 L 148 26.9 C 148 26.9 147.97 32.28 148 32.3 C 148 33.2 147.9 33.9 147.7 34.3 C 147.5 34.7 147.2 35.1 146.7 35.3 C 146.3 35.5 145.8 35.6 145.2 35.6 C 144.4 35.6 143.8 35.5 143.4 35.1 C 142.9 34.8 142.7 34.3 142.7 33.6 Z M 143.6 29.9 C 143.6 30.7 143.7 31.3 144.1 31.7 C 144.4 32.1 144.8 32.2 145.3 32.2 C 145.8 32.2 146.2 32.1 146.5 31.7 C 146.8 31.3 147 30.7 147 29.9 C 147 29.2 146.8 28.6 146.5 28.2 C 146.1 27.8 145.7 27.6 145.3 27.6 C 144.8 27.6 144.4 27.8 144.1 28.2 C 143.7 28.6 143.6 29.1 143.6 29.9 Z M 152.5 30 C 152.5 28.9 152.8 28 153.5 27.4 C 154 27 154.7 26.8 155.4 26.8 C 156.3 26.8 157 27 157.5 27.6 C 158.1 28.2 158.3 28.9 158.3 29.9 C 158.3 30.7 158.2 31.4 158 31.8 C 157.7 32.3 157.4 32.6 156.9 32.9 C 156.5 33.1 156 33.3 155.4 33.3 C 154.5 33.3 153.8 33 153.3 32.4 C 152.8 31.9 152.5 31.1 152.5 30 Z M 153.6 30 C 153.6 30.8 153.8 31.4 154.1 31.8 C 154.5 32.2 154.9 32.4 155.4 32.4 C 155.9 32.4 156.4 32.2 156.7 31.8 C 157.1 31.4 157.2 30.8 157.2 30 C 157.2 29.2 157.1 28.6 156.7 28.2 C 156.4 27.8 155.9 27.6 155.4 27.6 C 154.9 27.6 154.5 27.8 154.1 28.2 C 153.8 28.6 153.6 29.2 153.6 30 Z M 159.6 33.1 L 159.6 26.9 L 160.5 26.9 C 160.5 26.9 160.52 27.78 160.5 27.8 C 161 27.1 161.6 26.8 162.5 26.8 C 162.9 26.8 163.2 26.8 163.5 27 C 163.8 27.1 164.1 27.3 164.2 27.5 C 164.4 27.7 164.5 28 164.6 28.3 C 164.6 28.5 164.6 28.8 164.6 29.3 C 164.63 29.3 164.6 33.1 164.6 33.1 L 163.6 33.1 C 163.6 33.1 163.57 29.34 163.6 29.3 C 163.6 28.9 163.5 28.6 163.4 28.4 C 163.4 28.2 163.2 28 163 27.9 C 162.8 27.7 162.6 27.7 162.3 27.7 C 161.8 27.7 161.4 27.8 161.1 28.1 C 160.8 28.4 160.6 28.9 160.6 29.7 C 160.62 29.72 160.6 33.1 160.6 33.1 L 159.6 33.1 Z M 170.7 33.1 L 168.8 26.9 L 169.9 26.9 L 170.9 30.5 C 170.9 30.5 171.27 31.83 171.3 31.8 C 171.3 31.8 171.4 31.3 171.6 30.5 C 171.59 30.54 172.6 26.9 172.6 26.9 L 173.7 26.9 L 174.6 30.5 L 174.9 31.7 L 175.3 30.5 L 176.3 26.9 L 177.4 26.9 L 175.4 33.1 L 174.3 33.1 L 173.3 29.4 L 173.1 28.3 L 171.8 33.1 L 170.7 33.1 Z M 178.2 33.1 L 178.2 24.5 L 179.3 24.5 C 179.3 24.5 179.3 27.61 179.3 27.6 C 179.8 27 180.4 26.8 181.2 26.8 C 181.6 26.8 182 26.8 182.4 27 C 182.7 27.2 182.9 27.5 183.1 27.8 C 183.2 28.1 183.3 28.6 183.3 29.2 C 183.31 29.18 183.3 33.1 183.3 33.1 L 182.3 33.1 C 182.3 33.1 182.26 29.18 182.3 29.2 C 182.3 28.7 182.1 28.3 181.9 28 C 181.7 27.8 181.4 27.7 180.9 27.7 C 180.6 27.7 180.3 27.7 180.1 27.9 C 179.8 28.1 179.6 28.3 179.5 28.6 C 179.4 28.8 179.3 29.2 179.3 29.7 C 179.3 29.72 179.3 33.1 179.3 33.1 L 178.2 33.1 Z M 189.2 33.1 C 189.1 32.9 189 32.6 189 32.4 C 188.6 32.7 188.2 32.9 187.8 33.1 C 187.5 33.2 187.1 33.3 186.7 33.3 C 186 33.3 185.5 33.1 185.1 32.8 C 184.7 32.4 184.6 32 184.6 31.5 C 184.6 31.2 184.6 30.9 184.8 30.6 C 184.9 30.4 185.1 30.2 185.3 30 C 185.5 29.9 185.8 29.8 186.1 29.7 C 186.3 29.6 186.6 29.6 187 29.5 C 187.9 29.4 188.5 29.3 188.9 29.2 C 188.9 29 188.9 28.9 188.9 28.9 C 188.9 28.5 188.8 28.2 188.6 28 C 188.3 27.8 187.9 27.6 187.4 27.6 C 186.9 27.6 186.5 27.7 186.3 27.9 C 186.1 28.1 185.9 28.4 185.8 28.8 C 185.8 28.8 184.7 28.7 184.7 28.7 C 184.8 28.2 185 27.9 185.2 27.6 C 185.4 27.3 185.7 27.1 186.1 27 C 186.5 26.8 187 26.8 187.5 26.8 C 188.1 26.8 188.5 26.8 188.8 26.9 C 189.2 27.1 189.4 27.2 189.6 27.4 C 189.7 27.6 189.8 27.8 189.9 28.1 C 189.9 28.3 190 28.6 190 29.1 C 190 29.1 190 30.5 190 30.5 C 190 31.5 190 32.1 190 32.4 C 190.1 32.6 190.2 32.9 190.3 33.1 C 190.29 33.12 189.2 33.1 189.2 33.1 C 189.2 33.1 189.19 33.12 189.2 33.1 Z M 188.9 30 C 188.5 30.2 187.9 30.3 187.2 30.4 C 186.7 30.5 186.4 30.5 186.2 30.6 C 186.1 30.7 185.9 30.8 185.8 31 C 185.7 31.1 185.7 31.3 185.7 31.5 C 185.7 31.7 185.8 32 186 32.2 C 186.2 32.3 186.5 32.4 186.9 32.4 C 187.3 32.4 187.7 32.3 188 32.2 C 188.3 32 188.6 31.7 188.7 31.4 C 188.8 31.2 188.9 30.9 188.9 30.4 C 188.9 30.4 188.9 30 188.9 30 Z M 193.4 32.2 C 193.5 32.2 193.7 32.2 193.9 32.2 C 193.9 32.2 194 33.1 194 33.1 C 193.7 33.2 193.5 33.2 193.2 33.2 C 192.9 33.2 192.6 33.1 192.4 33 C 192.1 32.9 192 32.7 191.9 32.5 C 191.8 32.3 191.8 31.9 191.8 31.3 C 191.78 31.3 191.8 27.7 191.8 27.7 L 191 27.7 L 191 26.9 L 191.8 26.9 L 191.8 25.4 L 192.8 24.7 L 192.8 26.9 L 193.9 26.9 L 193.9 27.7 L 192.8 27.7 C 192.8 27.7 192.83 31.36 192.8 31.4 C 192.8 31.7 192.9 31.9 192.9 31.9 C 192.9 32 193 32.1 193.1 32.1 C 193.2 32.2 193.3 32.2 193.4 32.2 C 193.4 32.2 193.4 32.2 193.4 32.2 Z M 199.4 33.1 L 197.5 26.9 L 198.6 26.9 L 199.6 30.5 C 199.6 30.5 199.95 31.83 200 31.8 C 200 31.8 200.1 31.3 200.3 30.5 C 200.27 30.54 201.3 26.9 201.3 26.9 L 202.3 26.9 L 203.3 30.5 L 203.6 31.7 L 203.9 30.5 L 205 26.9 L 206 26.9 L 204.1 33.1 L 203 33.1 L 202 29.4 L 201.8 28.3 L 200.5 33.1 L 199.4 33.1 Z M 211.2 31.1 C 211.2 31.1 212.3 31.3 212.3 31.3 C 212.1 31.9 211.8 32.4 211.3 32.7 C 210.9 33.1 210.3 33.3 209.5 33.3 C 208.6 33.3 207.9 33 207.4 32.4 C 206.8 31.9 206.6 31.1 206.6 30.1 C 206.6 29 206.8 28.2 207.4 27.6 C 207.9 27 208.6 26.8 209.5 26.8 C 210.3 26.8 211 27 211.5 27.6 C 212 28.2 212.3 29 212.3 30 C 212.3 30.1 212.3 30.2 212.3 30.3 C 212.3 30.3 207.7 30.3 207.7 30.3 C 207.7 31 207.9 31.5 208.2 31.9 C 208.6 32.2 209 32.4 209.5 32.4 C 209.9 32.4 210.3 32.3 210.5 32.1 C 210.8 31.9 211 31.6 211.2 31.1 Z M 207.7 29.4 C 207.7 29.4 211.2 29.4 211.2 29.4 C 211.1 28.9 211 28.5 210.8 28.2 C 210.5 27.8 210 27.6 209.5 27.6 C 209 27.6 208.6 27.8 208.3 28.1 C 207.9 28.4 207.8 28.9 207.7 29.4 Z M 221 30.8 C 221 30.8 222 31 222 31 C 221.9 31.7 221.6 32.3 221.2 32.7 C 220.7 33.1 220.1 33.3 219.4 33.3 C 218.6 33.3 217.9 33 217.4 32.4 C 216.9 31.9 216.6 31.1 216.6 30 C 216.6 29.4 216.7 28.8 216.9 28.3 C 217.2 27.8 217.5 27.4 218 27.1 C 218.4 26.9 218.9 26.8 219.4 26.8 C 220.1 26.8 220.7 26.9 221.1 27.3 C 221.5 27.6 221.8 28.1 221.9 28.7 C 221.9 28.7 220.9 28.9 220.9 28.9 C 220.8 28.5 220.6 28.2 220.4 27.9 C 220.1 27.7 219.8 27.6 219.5 27.6 C 219 27.6 218.5 27.8 218.2 28.2 C 217.9 28.6 217.7 29.2 217.7 30 C 217.7 30.8 217.9 31.4 218.2 31.8 C 218.5 32.2 218.9 32.4 219.4 32.4 C 219.8 32.4 220.2 32.3 220.5 32 C 220.7 31.8 220.9 31.4 221 30.8 Z M 227.2 33.1 C 227.1 32.9 227 32.6 227 32.4 C 226.6 32.7 226.2 32.9 225.9 33.1 C 225.5 33.2 225.1 33.3 224.7 33.3 C 224 33.3 223.5 33.1 223.1 32.8 C 222.8 32.4 222.6 32 222.6 31.5 C 222.6 31.2 222.6 30.9 222.8 30.6 C 222.9 30.4 223.1 30.2 223.3 30 C 223.6 29.9 223.8 29.8 224.1 29.7 C 224.3 29.6 224.6 29.6 225 29.5 C 225.9 29.4 226.5 29.3 226.9 29.2 C 226.9 29 226.9 28.9 226.9 28.9 C 226.9 28.5 226.8 28.2 226.6 28 C 226.3 27.8 225.9 27.6 225.4 27.6 C 224.9 27.6 224.5 27.7 224.3 27.9 C 224.1 28.1 223.9 28.4 223.8 28.8 C 223.8 28.8 222.8 28.7 222.8 28.7 C 222.8 28.2 223 27.9 223.2 27.6 C 223.4 27.3 223.7 27.1 224.2 27 C 224.6 26.8 225 26.8 225.6 26.8 C 226.1 26.8 226.5 26.8 226.9 26.9 C 227.2 27.1 227.4 27.2 227.6 27.4 C 227.7 27.6 227.9 27.8 227.9 28.1 C 228 28.3 228 28.6 228 29.1 C 228 29.1 228 30.5 228 30.5 C 228 31.5 228 32.1 228 32.4 C 228.1 32.6 228.2 32.9 228.3 33.1 C 228.3 33.12 227.2 33.1 227.2 33.1 C 227.2 33.1 227.2 33.12 227.2 33.1 Z M 226.9 30 C 226.5 30.2 225.9 30.3 225.2 30.4 C 224.7 30.5 224.4 30.5 224.3 30.6 C 224.1 30.7 223.9 30.8 223.8 31 C 223.7 31.1 223.7 31.3 223.7 31.5 C 223.7 31.7 223.8 32 224 32.2 C 224.2 32.3 224.5 32.4 225 32.4 C 225.4 32.4 225.7 32.3 226 32.2 C 226.4 32 226.6 31.7 226.7 31.4 C 226.8 31.2 226.9 30.9 226.9 30.4 C 226.9 30.4 226.9 30 226.9 30 Z M 229.6 33.1 L 229.6 26.9 L 230.6 26.9 C 230.6 26.9 230.55 27.78 230.6 27.8 C 231 27.1 231.7 26.8 232.5 26.8 C 232.9 26.8 233.3 26.8 233.6 27 C 233.9 27.1 234.1 27.3 234.3 27.5 C 234.4 27.7 234.5 28 234.6 28.3 C 234.6 28.5 234.7 28.8 234.7 29.3 C 234.66 29.3 234.7 33.1 234.7 33.1 L 233.6 33.1 C 233.6 33.1 233.61 29.34 233.6 29.3 C 233.6 28.9 233.6 28.6 233.5 28.4 C 233.4 28.2 233.3 28 233 27.9 C 232.8 27.7 232.6 27.7 232.3 27.7 C 231.9 27.7 231.5 27.8 231.1 28.1 C 230.8 28.4 230.7 28.9 230.7 29.7 C 230.66 29.72 230.7 33.1 230.7 33.1 L 229.6 33.1 Z " stroke="none" fill="#010102"/>  </g>  <g id="Polygon749">    <path d="M 11.5 1.7 C 11.5 1.7 11.5 3.1 11.5 3.1 C 10.2 2.4 8.8 1.9 7.4 1.9 C 4.2 1.9 2.3 4.3 2.3 7 C 2.3 9.8 4.2 12 7.3 12 C 8.9 12 10.3 11.6 11.6 10.8 C 11.6 10.8 11.6 12.3 11.6 12.3 C 10.2 13 8.8 13.3 7.3 13.3 C 3.1 13.3 0.8 10.1 0.8 7 C 0.8 3.4 3.7 0.7 7.3 0.7 C 8.7 0.7 10.1 1 11.5 1.7 Z M 18.9 0.8 L 24.4 13.1 L 23 13.1 L 21.3 9.3 L 15.7 9.3 L 14.1 13.1 L 12.7 13.1 L 18 0.8 L 18.9 0.8 Z M 16.2 8.1 L 20.8 8.1 L 18.4 2.8 L 16.2 8.1 Z M 31.8 1.5 C 31.8 1.5 31.8 3 31.8 3 C 30.9 2.3 30 1.9 29 1.9 C 27.7 1.9 26.9 2.6 26.9 3.7 C 26.9 4.5 27.1 5.2 29.1 6.2 C 31.6 7.5 32.3 8.4 32.3 10.1 C 32.3 11.9 30.9 13.3 28.7 13.3 C 27.6 13.3 26.5 12.9 25.6 12.2 C 25.6 12.2 25.6 10.5 25.6 10.5 C 26.5 11.5 27.6 12.1 28.7 12.1 C 30 12.1 30.9 11.3 30.9 10.1 C 30.9 9.1 30.5 8.5 28.2 7.2 C 26.2 6.2 25.5 5.3 25.5 3.7 C 25.5 2 27 0.7 29.1 0.7 C 30 0.7 31 1 31.8 1.5 Z M 41.1 0.8 L 41.1 2.1 L 35.7 2.1 L 35.7 6.3 L 40.9 6.3 L 40.9 7.5 L 35.7 7.5 L 35.7 11.9 L 41.2 11.9 L 41.2 13.1 L 34.4 13.1 L 34.4 0.8 L 41.1 0.8 Z M 54.1 1.5 C 54.1 1.5 54.1 3 54.1 3 C 53.2 2.3 52.3 1.9 51.3 1.9 C 50 1.9 49.2 2.6 49.2 3.7 C 49.2 4.5 49.4 5.2 51.4 6.2 C 53.9 7.5 54.6 8.4 54.6 10.1 C 54.6 11.9 53.2 13.3 51 13.3 C 49.9 13.3 48.8 12.9 47.9 12.2 C 47.9 12.2 47.9 10.5 47.9 10.5 C 48.8 11.5 49.9 12.1 51 12.1 C 52.3 12.1 53.2 11.3 53.2 10.1 C 53.2 9.1 52.8 8.5 50.5 7.2 C 48.5 6.2 47.8 5.3 47.8 3.7 C 47.8 2 49.3 0.7 51.4 0.7 C 52.3 0.7 53.3 1 54.1 1.5 Z M 65.6 0.8 L 65.6 2 L 61.2 2 L 61.2 13.1 L 59.9 13.1 L 59.9 2 L 55.5 2 L 55.5 0.8 L 65.6 0.8 Z M 68.5 0.8 C 68.5 0.8 68.47 7.92 68.5 7.9 C 68.5 10.6 69.7 12.1 72.3 12.1 C 74.8 12.1 76.1 10.6 76.1 7.9 C 76.07 7.92 76.1 0.8 76.1 0.8 L 77.4 0.8 C 77.4 0.8 77.42 7.92 77.4 7.9 C 77.4 11.1 75.7 13.3 72.3 13.3 C 68.9 13.3 67.1 11.4 67.1 7.9 C 67.12 7.92 67.1 0.8 67.1 0.8 L 68.5 0.8 Z M 80 0.8 C 80 0.8 84.55 0.85 84.5 0.8 C 88.6 0.8 91.2 3.3 91.2 6.9 C 91.2 10.7 88.5 13.1 84.5 13.1 C 84.55 13.12 80 13.1 80 13.1 L 80 0.8 Z M 84.5 11.9 C 87.7 11.9 89.7 10 89.7 7 C 89.7 4 87.8 2.1 84.3 2.1 C 84.33 2.05 81.4 2.1 81.4 2.1 L 81.4 11.9 C 81.4 11.9 84.53 11.9 84.5 11.9 Z M 94.8 0.8 L 94.8 13.1 L 93.4 13.1 L 93.4 0.8 L 94.8 0.8 Z M 104.2 0.8 L 104.2 2.1 L 98.9 2.1 L 98.9 6.3 L 104 6.3 L 104 7.5 L 98.9 7.5 L 98.9 11.9 L 104.4 11.9 L 104.4 13.1 L 97.5 13.1 L 97.5 0.8 L 104.2 0.8 Z M 112.2 1.5 C 112.2 1.5 112.2 3 112.2 3 C 111.4 2.3 110.5 1.9 109.5 1.9 C 108.2 1.9 107.3 2.6 107.3 3.7 C 107.3 4.5 107.5 5.2 109.5 6.2 C 112.1 7.5 112.7 8.4 112.7 10.1 C 112.7 11.9 111.3 13.3 109.2 13.3 C 108 13.3 106.9 12.9 106 12.2 C 106 12.2 106 10.5 106 10.5 C 106.9 11.5 108 12.1 109.2 12.1 C 110.4 12.1 111.3 11.3 111.3 10.1 C 111.3 9.1 111 8.5 108.6 7.2 C 106.7 6.2 105.9 5.3 105.9 3.7 C 105.9 2 107.4 0.7 109.5 0.7 C 110.4 0.7 111.4 1 112.2 1.5 Z " stroke="none" fill="#010102"/>  </g></svg>