<?xml version="1.0" standalone="no"?><!DOCTYPE svg PUBLIC "-//W3C//DTD SVG 1.1//EN" "http://www.w3.org/Graphics/SVG/1.1/DTD/svg11.dtd"><svg xmlns="http://www.w3.org/2000/svg" version="1.1" width="76px" height="19.3px" viewBox="0 -4 76 19.3" style="top:-4px">  <desc>Case Studies</desc>  <defs/>  <g id="Polygon2184">    <path d="M 7.7 1.1 C 7.7 1.1 7.7 2.1 7.7 2.1 C 6.8 1.6 5.9 1.3 4.9 1.3 C 2.8 1.3 1.5 2.9 1.5 4.7 C 1.5 6.5 2.8 8 4.9 8 C 5.9 8 6.9 7.7 7.7 7.2 C 7.7 7.2 7.7 8.2 7.7 8.2 C 6.8 8.6 5.9 8.9 4.9 8.9 C 2 8.9 0.6 6.7 0.6 4.7 C 0.6 2.3 2.4 0.5 4.9 0.5 C 5.8 0.5 6.8 0.7 7.7 1.1 Z M 12.6 0.5 L 16.3 8.7 L 15.3 8.7 L 14.2 6.2 L 10.5 6.2 L 9.4 8.7 L 8.4 8.7 L 12 0.5 L 12.6 0.5 Z M 10.8 5.4 L 13.8 5.4 L 12.3 1.9 L 10.8 5.4 Z M 21.2 1 C 21.2 1 21.2 2 21.2 2 C 20.6 1.5 20 1.3 19.3 1.3 C 18.5 1.3 17.9 1.8 17.9 2.5 C 17.9 3 18 3.5 19.4 4.2 C 21.1 5 21.5 5.6 21.5 6.7 C 21.5 7.9 20.6 8.9 19.2 8.9 C 18.4 8.9 17.7 8.6 17 8.1 C 17 8.1 17 7 17 7 C 17.7 7.7 18.4 8.1 19.2 8.1 C 20 8.1 20.6 7.5 20.6 6.7 C 20.6 6 20.4 5.6 18.8 4.8 C 17.5 4.2 17 3.5 17 2.5 C 17 1.3 18 0.5 19.4 0.5 C 20 0.5 20.6 0.6 21.2 1 Z M 27.4 0.6 L 27.4 1.4 L 23.8 1.4 L 23.8 4.2 L 27.3 4.2 L 27.3 5 L 23.8 5 L 23.8 7.9 L 27.5 7.9 L 27.5 8.7 L 22.9 8.7 L 22.9 0.6 L 27.4 0.6 Z M 36.1 1 C 36.1 1 36.1 2 36.1 2 C 35.5 1.5 34.9 1.3 34.2 1.3 C 33.3 1.3 32.8 1.8 32.8 2.5 C 32.8 3 32.9 3.5 34.3 4.2 C 36 5 36.4 5.6 36.4 6.7 C 36.4 7.9 35.4 8.9 34 8.9 C 33.3 8.9 32.5 8.6 31.9 8.1 C 31.9 8.1 31.9 7 31.9 7 C 32.5 7.7 33.2 8.1 34 8.1 C 34.9 8.1 35.5 7.5 35.5 6.7 C 35.5 6 35.2 5.6 33.6 4.8 C 32.4 4.2 31.9 3.5 31.9 2.5 C 31.9 1.3 32.9 0.5 34.2 0.5 C 34.9 0.5 35.5 0.6 36.1 1 Z M 43.8 0.6 L 43.8 1.4 L 40.8 1.4 L 40.8 8.7 L 39.9 8.7 L 39.9 1.4 L 37 1.4 L 37 0.6 L 43.8 0.6 Z M 45.6 0.6 C 45.6 0.6 45.65 5.28 45.6 5.3 C 45.6 7.1 46.5 8.1 48.2 8.1 C 49.9 8.1 50.7 7.1 50.7 5.3 C 50.71 5.28 50.7 0.6 50.7 0.6 L 51.6 0.6 C 51.6 0.6 51.61 5.28 51.6 5.3 C 51.6 7.4 50.5 8.9 48.2 8.9 C 45.9 8.9 44.7 7.6 44.7 5.3 C 44.75 5.28 44.7 0.6 44.7 0.6 L 45.6 0.6 Z M 53.4 0.6 C 53.4 0.6 56.36 0.56 56.4 0.6 C 59 0.6 60.8 2.2 60.8 4.6 C 60.8 7.1 59 8.7 56.4 8.7 C 56.36 8.75 53.4 8.7 53.4 8.7 L 53.4 0.6 Z M 56.4 7.9 C 58.5 7.9 59.8 6.7 59.8 4.6 C 59.8 2.7 58.5 1.4 56.2 1.4 C 56.22 1.37 54.3 1.4 54.3 1.4 L 54.3 7.9 C 54.3 7.9 56.35 7.93 56.4 7.9 Z M 63.2 0.6 L 63.2 8.7 L 62.3 8.7 L 62.3 0.6 L 63.2 0.6 Z M 69.5 0.6 L 69.5 1.4 L 65.9 1.4 L 65.9 4.2 L 69.4 4.2 L 69.4 5 L 65.9 5 L 65.9 7.9 L 69.6 7.9 L 69.6 8.7 L 65 8.7 L 65 0.6 L 69.5 0.6 Z M 74.8 1 C 74.8 1 74.8 2 74.8 2 C 74.3 1.5 73.6 1.3 73 1.3 C 72.1 1.3 71.5 1.8 71.5 2.5 C 71.5 3 71.7 3.5 73 4.2 C 74.7 5 75.1 5.6 75.1 6.7 C 75.1 7.9 74.2 8.9 72.8 8.9 C 72 8.9 71.3 8.6 70.7 8.1 C 70.7 8.1 70.7 7 70.7 7 C 71.3 7.7 72 8.1 72.8 8.1 C 73.6 8.1 74.2 7.5 74.2 6.7 C 74.2 6 74 5.6 72.4 4.8 C 71.1 4.2 70.6 3.5 70.6 2.5 C 70.6 1.3 71.6 0.5 73 0.5 C 73.6 0.5 74.3 0.6 74.8 1 Z " stroke="none" fill="#010102"/>  </g></svg>