<?xml version="1.0" standalone="no"?><!DOCTYPE svg PUBLIC "-//W3C//DTD SVG 1.1//EN" "http://www.w3.org/Graphics/SVG/1.1/DTD/svg11.dtd"><svg xmlns="http://www.w3.org/2000/svg" version="1.1" width="343px" height="22.8px" viewBox="0 -4 343 22.8" style="top:-4px">  <desc>AWARDING I LEARNING I MANAGED SERVICES</desc>  <defs/>  <g id="Polygon628">    <path d="M 24.1 0.6 L 28.4 10.2 L 27.3 10.2 L 26 7.2 L 21.6 7.2 L 20.3 10.2 L 19.3 10.2 L 23.4 0.6 L 24.1 0.6 Z M 22 6.3 L 25.5 6.3 L 23.7 2.2 L 22 6.3 Z M 27.6 0.7 L 28.7 0.7 L 31.6 7.9 L 31.6 7.9 L 34.4 0.7 L 35.3 0.7 L 38.2 7.9 L 38.2 7.9 L 41 0.7 L 42.1 0.7 L 38.3 10.3 L 38.1 10.3 L 34.9 2.1 L 31.7 10.3 L 31.5 10.3 L 27.6 0.7 Z M 46.3 0.6 L 50.5 10.2 L 49.4 10.2 L 48.1 7.2 L 43.8 7.2 L 42.5 10.2 L 41.4 10.2 L 45.5 0.6 L 46.3 0.6 Z M 44.2 6.3 L 47.7 6.3 L 45.9 2.2 L 44.2 6.3 Z M 51.6 0.7 C 51.6 0.7 54.12 0.66 54.1 0.7 C 56 0.7 57 1.8 57 3.2 C 57 4.4 56.4 5.2 55.2 5.6 C 55.8 5.9 56.1 6.1 56.9 7.3 C 56.91 7.35 58.8 10.2 58.8 10.2 L 57.5 10.2 C 57.5 10.2 55.83 7.57 55.8 7.6 C 54.9 6.2 54.4 5.9 53.5 5.9 C 53.55 5.87 52.7 5.9 52.7 5.9 L 52.7 10.2 L 51.6 10.2 L 51.6 0.7 Z M 53.6 4.9 C 55 4.9 56 4.6 56 3.2 C 56 2.1 55.2 1.6 54 1.6 C 53.98 1.58 52.7 1.6 52.7 1.6 L 52.7 4.9 C 52.7 4.9 53.65 4.94 53.6 4.9 Z M 59.8 0.7 C 59.8 0.7 63.32 0.66 63.3 0.7 C 66.4 0.7 68.5 2.6 68.5 5.3 C 68.5 8.3 66.4 10.2 63.3 10.2 C 63.32 10.21 59.8 10.2 59.8 10.2 L 59.8 0.7 Z M 63.3 9.3 C 65.8 9.3 67.4 7.8 67.4 5.4 C 67.4 3.1 65.9 1.6 63.2 1.6 C 63.15 1.6 60.9 1.6 60.9 1.6 L 60.9 9.3 C 60.9 9.3 63.31 9.25 63.3 9.3 Z M 71.3 0.7 L 71.3 10.2 L 70.2 10.2 L 70.2 0.7 L 71.3 0.7 Z M 74.3 0.7 L 81 8.6 L 81 0.7 L 82 0.7 L 82 10.2 L 81.1 10.2 L 74.4 2.3 L 74.4 10.2 L 73.4 10.2 L 73.4 0.7 L 74.3 0.7 Z M 92.1 2.4 C 91 1.8 89.9 1.5 88.8 1.5 C 86.6 1.5 84.9 3.1 84.9 5.4 C 84.9 7.7 86.5 9.4 88.9 9.4 C 89.7 9.4 90.2 9.3 91.2 8.9 C 91.21 8.9 91.2 6.6 91.2 6.6 L 89.3 6.6 L 89.3 5.7 L 92.3 5.7 C 92.3 5.7 92.26 9.55 92.3 9.5 C 91.2 10.1 90.1 10.3 88.9 10.3 C 85.4 10.3 83.8 7.9 83.8 5.5 C 83.8 2.8 85.8 0.5 88.8 0.5 C 89.9 0.5 90.8 0.8 92.1 1.3 C 92.1 1.3 92.1 2.4 92.1 2.4 Z M 103.1 0.7 L 103.1 10.2 L 102 10.2 L 102 0.7 L 103.1 0.7 Z M 114.1 0.7 L 114.1 9.2 L 118.6 9.2 L 118.6 10.2 L 113 10.2 L 113 0.7 L 114.1 0.7 Z M 125 0.7 L 125 1.6 L 120.8 1.6 L 120.8 4.9 L 124.9 4.9 L 124.9 5.9 L 120.8 5.9 L 120.8 9.3 L 125.1 9.3 L 125.1 10.2 L 119.8 10.2 L 119.8 0.7 L 125 0.7 Z M 131 0.6 L 135.2 10.2 L 134.1 10.2 L 132.8 7.2 L 128.4 7.2 L 127.2 10.2 L 126.1 10.2 L 130.2 0.6 L 131 0.6 Z M 128.9 6.3 L 132.4 6.3 L 130.6 2.2 L 128.9 6.3 Z M 136.3 0.7 C 136.3 0.7 138.81 0.66 138.8 0.7 C 140.7 0.7 141.7 1.8 141.7 3.2 C 141.7 4.4 141.1 5.2 139.9 5.6 C 140.5 5.9 140.8 6.1 141.6 7.3 C 141.59 7.35 143.4 10.2 143.4 10.2 L 142.2 10.2 C 142.2 10.2 140.52 7.57 140.5 7.6 C 139.6 6.2 139 5.9 138.2 5.9 C 138.23 5.87 137.4 5.9 137.4 5.9 L 137.4 10.2 L 136.3 10.2 L 136.3 0.7 Z M 138.3 4.9 C 139.6 4.9 140.6 4.6 140.6 3.2 C 140.6 2.1 139.9 1.6 138.7 1.6 C 138.67 1.58 137.4 1.6 137.4 1.6 L 137.4 4.9 C 137.4 4.9 138.33 4.94 138.3 4.9 Z M 145.4 0.7 L 152.1 8.6 L 152.1 0.7 L 153.1 0.7 L 153.1 10.2 L 152.2 10.2 L 145.5 2.3 L 145.5 10.2 L 144.5 10.2 L 144.5 0.7 L 145.4 0.7 Z M 156.3 0.7 L 156.3 10.2 L 155.3 10.2 L 155.3 0.7 L 156.3 0.7 Z M 159.3 0.7 L 166.1 8.6 L 166.1 0.7 L 167.1 0.7 L 167.1 10.2 L 166.2 10.2 L 159.5 2.3 L 159.5 10.2 L 158.5 10.2 L 158.5 0.7 L 159.3 0.7 Z M 177.1 2.4 C 176.1 1.8 174.9 1.5 173.8 1.5 C 171.6 1.5 169.9 3.1 169.9 5.4 C 169.9 7.7 171.5 9.4 173.9 9.4 C 174.7 9.4 175.3 9.3 176.3 8.9 C 176.27 8.9 176.3 6.6 176.3 6.6 L 174.3 6.6 L 174.3 5.7 L 177.3 5.7 C 177.3 5.7 177.32 9.55 177.3 9.5 C 176.2 10.1 175.2 10.3 173.9 10.3 C 170.5 10.3 168.8 7.9 168.8 5.5 C 168.8 2.8 170.8 0.5 173.9 0.5 C 175 0.5 175.9 0.8 177.1 1.3 C 177.1 1.3 177.1 2.4 177.1 2.4 Z M 188.2 0.7 L 188.2 10.2 L 187.1 10.2 L 187.1 0.7 L 188.2 0.7 Z M 198.1 0.7 L 199.1 0.7 L 202.5 4.8 L 205.8 0.7 L 206.8 0.7 L 206.8 10.2 L 205.8 10.2 L 205.8 2.3 L 205.7 2.3 L 202.5 6.3 L 202.4 6.3 L 199.2 2.3 L 199.1 2.3 L 199.1 10.2 L 198.1 10.2 L 198.1 0.7 Z M 212.8 0.6 L 217 10.2 L 216 10.2 L 214.6 7.2 L 210.3 7.2 L 209 10.2 L 207.9 10.2 L 212 0.6 L 212.8 0.6 Z M 210.7 6.3 L 214.2 6.3 L 212.4 2.2 L 210.7 6.3 Z M 219 0.7 L 225.8 8.6 L 225.8 0.7 L 226.8 0.7 L 226.8 10.2 L 225.8 10.2 L 219.1 2.3 L 219.1 10.2 L 218.1 10.2 L 218.1 0.7 L 219 0.7 Z M 232.7 0.6 L 237 10.2 L 235.9 10.2 L 234.6 7.2 L 230.2 7.2 L 228.9 10.2 L 227.9 10.2 L 232 0.6 L 232.7 0.6 Z M 230.6 6.3 L 234.1 6.3 L 232.3 2.2 L 230.6 6.3 Z M 245.5 2.4 C 244.5 1.8 243.3 1.5 242.3 1.5 C 240 1.5 238.3 3.1 238.3 5.4 C 238.3 7.7 240 9.4 242.3 9.4 C 243.1 9.4 243.7 9.3 244.7 8.9 C 244.69 8.9 244.7 6.6 244.7 6.6 L 242.7 6.6 L 242.7 5.7 L 245.7 5.7 C 245.7 5.7 245.74 9.55 245.7 9.5 C 244.6 10.1 243.6 10.3 242.3 10.3 C 238.9 10.3 237.2 7.9 237.2 5.5 C 237.2 2.8 239.2 0.5 242.3 0.5 C 243.4 0.5 244.3 0.8 245.5 1.3 C 245.5 1.3 245.5 2.4 245.5 2.4 Z M 253 0.7 L 253 1.6 L 248.8 1.6 L 248.8 4.9 L 252.8 4.9 L 252.8 5.9 L 248.8 5.9 L 248.8 9.3 L 253.1 9.3 L 253.1 10.2 L 247.7 10.2 L 247.7 0.7 L 253 0.7 Z M 254.8 0.7 C 254.8 0.7 258.28 0.66 258.3 0.7 C 261.4 0.7 263.4 2.6 263.4 5.3 C 263.4 8.3 261.3 10.2 258.3 10.2 C 258.28 10.21 254.8 10.2 254.8 10.2 L 254.8 0.7 Z M 258.3 9.3 C 260.8 9.3 262.3 7.8 262.3 5.4 C 262.3 3.1 260.8 1.6 258.1 1.6 C 258.12 1.6 255.8 1.6 255.8 1.6 L 255.8 9.3 C 255.8 9.3 258.27 9.25 258.3 9.3 Z M 273.5 1.1 C 273.5 1.1 273.5 2.3 273.5 2.3 C 272.8 1.8 272.1 1.5 271.3 1.5 C 270.3 1.5 269.7 2 269.7 2.9 C 269.7 3.5 269.8 4 271.4 4.8 C 273.4 5.9 273.9 6.6 273.9 7.9 C 273.9 9.3 272.8 10.3 271.1 10.3 C 270.2 10.3 269.4 10 268.6 9.5 C 268.6 9.5 268.6 8.2 268.6 8.2 C 269.4 9 270.2 9.4 271.1 9.4 C 272.1 9.4 272.8 8.8 272.8 7.9 C 272.8 7.1 272.5 6.6 270.7 5.6 C 269.2 4.8 268.6 4.1 268.6 2.9 C 268.6 1.5 269.8 0.5 271.4 0.5 C 272.1 0.5 272.8 0.7 273.5 1.1 Z M 280.7 0.7 L 280.7 1.6 L 276.5 1.6 L 276.5 4.9 L 280.6 4.9 L 280.6 5.9 L 276.5 5.9 L 276.5 9.3 L 280.8 9.3 L 280.8 10.2 L 275.5 10.2 L 275.5 0.7 L 280.7 0.7 Z M 282.5 0.7 C 282.5 0.7 285.02 0.66 285 0.7 C 286.9 0.7 287.9 1.8 287.9 3.2 C 287.9 4.4 287.3 5.2 286.1 5.6 C 286.7 5.9 287 6.1 287.8 7.3 C 287.81 7.35 289.7 10.2 289.7 10.2 L 288.4 10.2 C 288.4 10.2 286.73 7.57 286.7 7.6 C 285.8 6.2 285.3 5.9 284.4 5.9 C 284.45 5.87 283.6 5.9 283.6 5.9 L 283.6 10.2 L 282.5 10.2 L 282.5 0.7 Z M 284.5 4.9 C 285.9 4.9 286.9 4.6 286.9 3.2 C 286.9 2.1 286.1 1.6 284.9 1.6 C 284.88 1.58 283.6 1.6 283.6 1.6 L 283.6 4.9 C 283.6 4.9 284.55 4.94 284.5 4.9 Z M 289.2 0.7 L 290.2 0.7 L 293.3 8.1 L 293.3 8.1 L 296.4 0.7 L 297.5 0.7 L 293.5 10.3 L 293.2 10.3 L 289.2 0.7 Z M 299.6 0.7 L 299.6 10.2 L 298.6 10.2 L 298.6 0.7 L 299.6 0.7 Z M 309.6 1.3 C 309.6 1.3 309.6 2.4 309.6 2.4 C 308.6 1.8 307.5 1.5 306.4 1.5 C 304 1.5 302.4 3.3 302.4 5.4 C 302.4 7.6 304 9.4 306.4 9.4 C 307.6 9.4 308.7 9 309.7 8.4 C 309.7 8.4 309.7 9.5 309.7 9.5 C 308.7 10.1 307.5 10.3 306.4 10.3 C 303.1 10.3 301.3 7.9 301.3 5.5 C 301.3 2.6 303.5 0.5 306.4 0.5 C 307.5 0.5 308.6 0.8 309.6 1.3 Z M 316.6 0.7 L 316.6 1.6 L 312.4 1.6 L 312.4 4.9 L 316.5 4.9 L 316.5 5.9 L 312.4 5.9 L 312.4 9.3 L 316.7 9.3 L 316.7 10.2 L 311.4 10.2 L 311.4 0.7 L 316.6 0.7 Z M 322.8 1.1 C 322.8 1.1 322.8 2.3 322.8 2.3 C 322.2 1.8 321.5 1.5 320.7 1.5 C 319.7 1.5 319 2 319 2.9 C 319 3.5 319.2 4 320.7 4.8 C 322.7 5.9 323.2 6.6 323.2 7.9 C 323.2 9.3 322.1 10.3 320.5 10.3 C 319.5 10.3 318.7 10 318 9.5 C 318 9.5 318 8.2 318 8.2 C 318.7 9 319.5 9.4 320.5 9.4 C 321.4 9.4 322.1 8.8 322.1 7.9 C 322.1 7.1 321.9 6.6 320 5.6 C 318.5 4.8 317.9 4.1 317.9 2.9 C 317.9 1.5 319.1 0.5 320.7 0.5 C 321.4 0.5 322.2 0.7 322.8 1.1 Z " stroke="none" fill="#ffffff"/>  </g></svg>