<?xml version="1.0" standalone="no"?><!DOCTYPE svg PUBLIC "-//W3C//DTD SVG 1.1//EN" "http://www.w3.org/Graphics/SVG/1.1/DTD/svg11.dtd"><svg xmlns="http://www.w3.org/2000/svg" version="1.1" width="343px" height="24.1px" viewBox="0 -4 343 24.1" style="top:-4px">  <desc>AWARDING I LEARNING I MANAGED SERVICES</desc>  <defs/>  <g id="Polygon640">    <path d="M 13.6 0.6 L 18.2 10.9 L 17 10.9 L 15.6 7.7 L 10.9 7.7 L 9.5 10.9 L 8.4 10.9 L 12.8 0.6 L 13.6 0.6 Z M 11.4 6.7 L 15.1 6.7 L 13.2 2.4 L 11.4 6.7 Z M 17.4 0.7 L 18.5 0.7 L 21.6 8.5 L 21.6 8.5 L 24.6 0.7 L 25.6 0.7 L 28.7 8.5 L 28.7 8.5 L 31.7 0.7 L 32.9 0.7 L 28.8 11 L 28.6 11 L 25.1 2.3 L 21.7 11 L 21.5 11 L 17.4 0.7 Z M 37.3 0.6 L 41.9 10.9 L 40.7 10.9 L 39.3 7.7 L 34.6 7.7 L 33.3 10.9 L 32.1 10.9 L 36.5 0.6 L 37.3 0.6 Z M 35.1 6.7 L 38.8 6.7 L 36.9 2.4 L 35.1 6.7 Z M 43.1 0.7 C 43.1 0.7 45.74 0.7 45.7 0.7 C 47.8 0.7 48.9 1.9 48.9 3.4 C 48.9 4.7 48.2 5.6 46.9 6 C 47.6 6.3 47.9 6.6 48.7 7.9 C 48.72 7.87 50.7 10.9 50.7 10.9 L 49.4 10.9 C 49.4 10.9 47.57 8.11 47.6 8.1 C 46.6 6.6 46 6.3 45.1 6.3 C 45.12 6.28 44.2 6.3 44.2 6.3 L 44.2 10.9 L 43.1 10.9 L 43.1 0.7 Z M 45.2 5.3 C 46.6 5.3 47.7 4.9 47.7 3.5 C 47.7 2.2 46.9 1.7 45.6 1.7 C 45.59 1.69 44.2 1.7 44.2 1.7 L 44.2 5.3 C 44.2 5.3 45.23 5.29 45.2 5.3 Z M 51.8 0.7 C 51.8 0.7 55.59 0.7 55.6 0.7 C 58.9 0.7 61.1 2.8 61.1 5.7 C 61.1 8.9 58.8 10.9 55.6 10.9 C 55.59 10.93 51.8 10.9 51.8 10.9 L 51.8 0.7 Z M 55.6 9.9 C 58.3 9.9 59.9 8.3 59.9 5.8 C 59.9 3.3 58.3 1.7 55.4 1.7 C 55.41 1.71 53 1.7 53 1.7 L 53 9.9 C 53 9.9 55.58 9.91 55.6 9.9 Z M 64.1 0.7 L 64.1 10.9 L 63 10.9 L 63 0.7 L 64.1 0.7 Z M 67.3 0.7 L 74.6 9.2 L 74.6 0.7 L 75.6 0.7 L 75.6 10.9 L 74.7 10.9 L 67.5 2.5 L 67.5 10.9 L 66.4 10.9 L 66.4 0.7 L 67.3 0.7 Z M 86.4 2.6 C 85.3 1.9 84 1.6 82.9 1.6 C 80.5 1.6 78.7 3.4 78.7 5.8 C 78.7 8.3 80.4 10.1 83 10.1 C 83.8 10.1 84.4 9.9 85.5 9.5 C 85.47 9.54 85.5 7 85.5 7 L 83.4 7 L 83.4 6.1 L 86.6 6.1 C 86.6 6.1 86.6 10.23 86.6 10.2 C 85.4 10.8 84.3 11.1 83 11.1 C 79.3 11.1 77.5 8.5 77.5 5.9 C 77.5 3 79.6 0.6 82.9 0.6 C 84.1 0.6 85 0.8 86.4 1.4 C 86.4 1.4 86.4 2.6 86.4 2.6 Z M 98.2 0.7 L 98.2 10.9 L 97.1 10.9 L 97.1 0.7 L 98.2 0.7 Z M 110 0.7 L 110 9.9 L 114.8 9.9 L 114.8 10.9 L 108.8 10.9 L 108.8 0.7 L 110 0.7 Z M 121.7 0.7 L 121.7 1.7 L 117.2 1.7 L 117.2 5.3 L 121.5 5.3 L 121.5 6.3 L 117.2 6.3 L 117.2 9.9 L 121.8 9.9 L 121.8 10.9 L 116.1 10.9 L 116.1 0.7 L 121.7 0.7 Z M 128.1 0.6 L 132.6 10.9 L 131.5 10.9 L 130 7.7 L 125.4 7.7 L 124 10.9 L 122.8 10.9 L 127.3 0.6 L 128.1 0.6 Z M 125.8 6.7 L 129.6 6.7 L 127.6 2.4 L 125.8 6.7 Z M 133.8 0.7 C 133.8 0.7 136.47 0.7 136.5 0.7 C 138.5 0.7 139.6 1.9 139.6 3.4 C 139.6 4.7 138.9 5.6 137.7 6 C 138.3 6.3 138.6 6.6 139.5 7.9 C 139.46 7.87 141.4 10.9 141.4 10.9 L 140.1 10.9 C 140.1 10.9 138.3 8.11 138.3 8.1 C 137.4 6.6 136.7 6.3 135.9 6.3 C 135.86 6.28 134.9 6.3 134.9 6.3 L 134.9 10.9 L 133.8 10.9 L 133.8 0.7 Z M 136 5.3 C 137.4 5.3 138.4 4.9 138.4 3.5 C 138.4 2.2 137.6 1.7 136.3 1.7 C 136.32 1.69 134.9 1.7 134.9 1.7 L 134.9 5.3 C 134.9 5.3 135.96 5.29 136 5.3 Z M 143.5 0.7 L 150.7 9.2 L 150.7 0.7 L 151.8 0.7 L 151.8 10.9 L 150.8 10.9 L 143.6 2.5 L 143.6 10.9 L 142.6 10.9 L 142.6 0.7 L 143.5 0.7 Z M 155.2 0.7 L 155.2 10.9 L 154.1 10.9 L 154.1 0.7 L 155.2 0.7 Z M 158.5 0.7 L 165.7 9.2 L 165.7 0.7 L 166.8 0.7 L 166.8 10.9 L 165.8 10.9 L 158.6 2.5 L 158.6 10.9 L 157.5 10.9 L 157.5 0.7 L 158.5 0.7 Z M 177.5 2.6 C 176.4 1.9 175.2 1.6 174 1.6 C 171.6 1.6 169.8 3.4 169.8 5.8 C 169.8 8.3 171.5 10.1 174.1 10.1 C 174.9 10.1 175.6 9.9 176.6 9.5 C 176.61 9.54 176.6 7 176.6 7 L 174.5 7 L 174.5 6.1 L 177.7 6.1 C 177.7 6.1 177.74 10.23 177.7 10.2 C 176.6 10.8 175.4 11.1 174.1 11.1 C 170.4 11.1 168.6 8.5 168.6 5.9 C 168.6 3 170.8 0.6 174 0.6 C 175.2 0.6 176.2 0.8 177.5 1.4 C 177.5 1.4 177.5 2.6 177.5 2.6 Z M 189.3 0.7 L 189.3 10.9 L 188.2 10.9 L 188.2 0.7 L 189.3 0.7 Z M 200 0.7 L 201 0.7 L 204.7 5.2 L 208.3 0.7 L 209.3 0.7 L 209.3 10.9 L 208.2 10.9 L 208.2 2.5 L 208.2 2.5 L 204.8 6.8 L 204.6 6.8 L 201.1 2.5 L 201.1 2.5 L 201.1 10.9 L 200 10.9 L 200 0.7 Z M 215.7 0.6 L 220.3 10.9 L 219.1 10.9 L 217.7 7.7 L 213 7.7 L 211.7 10.9 L 210.5 10.9 L 214.9 0.6 L 215.7 0.6 Z M 213.5 6.7 L 217.2 6.7 L 215.3 2.4 L 213.5 6.7 Z M 222.4 0.7 L 229.6 9.2 L 229.6 0.7 L 230.7 0.7 L 230.7 10.9 L 229.7 10.9 L 222.5 2.5 L 222.5 10.9 L 221.5 10.9 L 221.5 0.7 L 222.4 0.7 Z M 237.1 0.6 L 241.7 10.9 L 240.5 10.9 L 239.1 7.7 L 234.4 7.7 L 233 10.9 L 231.9 10.9 L 236.3 0.6 L 237.1 0.6 Z M 234.9 6.7 L 238.6 6.7 L 236.7 2.4 L 234.9 6.7 Z M 250.8 2.6 C 249.7 1.9 248.5 1.6 247.3 1.6 C 244.9 1.6 243.1 3.4 243.1 5.8 C 243.1 8.3 244.8 10.1 247.4 10.1 C 248.3 10.1 248.9 9.9 249.9 9.5 C 249.92 9.54 249.9 7 249.9 7 L 247.8 7 L 247.8 6.1 L 251 6.1 C 251 6.1 251.04 10.23 251 10.2 C 249.9 10.8 248.7 11.1 247.4 11.1 C 243.7 11.1 241.9 8.5 241.9 5.9 C 241.9 3 244.1 0.6 247.4 0.6 C 248.5 0.6 249.5 0.8 250.8 1.4 C 250.8 1.4 250.8 2.6 250.8 2.6 Z M 258.8 0.7 L 258.8 1.7 L 254.3 1.7 L 254.3 5.3 L 258.6 5.3 L 258.6 6.3 L 254.3 6.3 L 254.3 9.9 L 258.9 9.9 L 258.9 10.9 L 253.2 10.9 L 253.2 0.7 L 258.8 0.7 Z M 260.7 0.7 C 260.7 0.7 264.48 0.7 264.5 0.7 C 267.8 0.7 270 2.8 270 5.7 C 270 8.9 267.7 10.9 264.5 10.9 C 264.48 10.93 260.7 10.9 260.7 10.9 L 260.7 0.7 Z M 264.5 9.9 C 267.2 9.9 268.8 8.3 268.8 5.8 C 268.8 3.3 267.2 1.7 264.3 1.7 C 264.3 1.71 261.8 1.7 261.8 1.7 L 261.8 9.9 C 261.8 9.9 264.47 9.91 264.5 9.9 Z M 280.8 1.2 C 280.8 1.2 280.8 2.5 280.8 2.5 C 280.1 1.9 279.3 1.6 278.5 1.6 C 277.4 1.6 276.7 2.2 276.7 3.1 C 276.7 3.7 276.8 4.3 278.5 5.2 C 280.7 6.3 281.2 7 281.2 8.4 C 281.2 9.9 280 11.1 278.2 11.1 C 277.3 11.1 276.4 10.8 275.6 10.2 C 275.6 10.2 275.6 8.8 275.6 8.8 C 276.3 9.6 277.2 10.1 278.2 10.1 C 279.3 10.1 280 9.4 280 8.4 C 280 7.6 279.7 7 277.8 6 C 276.2 5.2 275.5 4.4 275.5 3.1 C 275.5 1.6 276.8 0.6 278.5 0.6 C 279.3 0.6 280.1 0.8 280.8 1.2 Z M 288.5 0.7 L 288.5 1.7 L 284 1.7 L 284 5.3 L 288.4 5.3 L 288.4 6.3 L 284 6.3 L 284 9.9 L 288.6 9.9 L 288.6 10.9 L 282.9 10.9 L 282.9 0.7 L 288.5 0.7 Z M 290.4 0.7 C 290.4 0.7 293.13 0.7 293.1 0.7 C 295.2 0.7 296.3 1.9 296.3 3.4 C 296.3 4.7 295.6 5.6 294.3 6 C 295 6.3 295.3 6.6 296.1 7.9 C 296.12 7.87 298.1 10.9 298.1 10.9 L 296.8 10.9 C 296.8 10.9 294.96 8.11 295 8.1 C 294 6.6 293.4 6.3 292.5 6.3 C 292.52 6.28 291.6 6.3 291.6 6.3 L 291.6 10.9 L 290.4 10.9 L 290.4 0.7 Z M 292.6 5.3 C 294 5.3 295.1 4.9 295.1 3.5 C 295.1 2.2 294.3 1.7 293 1.7 C 292.98 1.69 291.6 1.7 291.6 1.7 L 291.6 5.3 C 291.6 5.3 292.62 5.29 292.6 5.3 Z M 297.6 0.7 L 298.7 0.7 L 302 8.7 L 302 8.7 L 305.4 0.7 L 306.5 0.7 L 302.2 11 L 301.9 11 L 297.6 0.7 Z M 308.8 0.7 L 308.8 10.9 L 307.7 10.9 L 307.7 0.7 L 308.8 0.7 Z M 319.5 1.4 C 319.5 1.4 319.5 2.6 319.5 2.6 C 318.4 2 317.3 1.6 316.1 1.6 C 313.4 1.6 311.8 3.6 311.8 5.8 C 311.8 8.1 313.4 10 316 10 C 317.3 10 318.5 9.7 319.6 9 C 319.6 9 319.6 10.2 319.6 10.2 C 318.5 10.8 317.3 11.1 316 11.1 C 312.5 11.1 310.6 8.4 310.6 5.9 C 310.6 2.8 313 0.6 316 0.6 C 317.2 0.6 318.4 0.9 319.5 1.4 Z M 327 0.7 L 327 1.7 L 322.5 1.7 L 322.5 5.3 L 326.8 5.3 L 326.8 6.3 L 322.5 6.3 L 322.5 9.9 L 327.1 9.9 L 327.1 10.9 L 321.4 10.9 L 321.4 0.7 L 327 0.7 Z M 333.6 1.2 C 333.6 1.2 333.6 2.5 333.6 2.5 C 332.9 1.9 332.2 1.6 331.3 1.6 C 330.2 1.6 329.5 2.2 329.5 3.1 C 329.5 3.7 329.7 4.3 331.4 5.2 C 333.5 6.3 334 7 334 8.4 C 334 9.9 332.9 11.1 331.1 11.1 C 330.1 11.1 329.2 10.8 328.4 10.2 C 328.4 10.2 328.4 8.8 328.4 8.8 C 329.2 9.6 330.1 10.1 331.1 10.1 C 332.1 10.1 332.9 9.4 332.9 8.4 C 332.9 7.6 332.6 7 330.6 6 C 329 5.2 328.4 4.4 328.4 3.1 C 328.4 1.6 329.6 0.6 331.4 0.6 C 332.1 0.6 332.9 0.8 333.6 1.2 Z " stroke="none" fill="#ffffff"/>  </g></svg>