<?xml version="1.0" standalone="no"?><!DOCTYPE svg PUBLIC "-//W3C//DTD SVG 1.1//EN" "http://www.w3.org/Graphics/SVG/1.1/DTD/svg11.dtd"><svg xmlns="http://www.w3.org/2000/svg" version="1.1" width="247px" height="36.9px" viewBox="0 -4 247 36.9" style="top:-4px">  <desc>About Find out about our services, tenets and way of working.</desc>  <defs/>  <g id="Polygon683">    <path d="M 0.7 27.2 L 0.7 20.8 L 5.1 20.8 L 5.1 21.5 L 1.6 21.5 L 1.6 23.5 L 4.6 23.5 L 4.6 24.3 L 1.6 24.3 L 1.6 27.2 L 0.7 27.2 Z M 6.1 21.7 L 6.1 20.8 L 6.9 20.8 L 6.9 21.7 L 6.1 21.7 Z M 6.1 27.2 L 6.1 22.5 L 6.9 22.5 L 6.9 27.2 L 6.1 27.2 Z M 8.1 27.2 L 8.1 22.5 L 8.8 22.5 C 8.8 22.5 8.8 23.2 8.8 23.2 C 9.1 22.7 9.6 22.4 10.3 22.4 C 10.6 22.4 10.8 22.5 11.1 22.6 C 11.3 22.7 11.5 22.8 11.6 23 C 11.7 23.1 11.8 23.3 11.8 23.6 C 11.9 23.7 11.9 24 11.9 24.3 C 11.88 24.34 11.9 27.2 11.9 27.2 L 11.1 27.2 C 11.1 27.2 11.09 24.37 11.1 24.4 C 11.1 24 11.1 23.8 11 23.6 C 10.9 23.5 10.8 23.4 10.7 23.3 C 10.5 23.2 10.3 23.1 10.1 23.1 C 9.8 23.1 9.5 23.2 9.2 23.4 C 9 23.7 8.9 24.1 8.9 24.7 C 8.88 24.66 8.9 27.2 8.9 27.2 L 8.1 27.2 Z M 16.1 27.2 C 16.1 27.2 16.12 26.62 16.1 26.6 C 15.8 27.1 15.4 27.3 14.8 27.3 C 14.4 27.3 14.1 27.2 13.8 27 C 13.5 26.8 13.2 26.5 13.1 26.1 C 12.9 25.8 12.8 25.4 12.8 24.9 C 12.8 24.4 12.9 24 13 23.6 C 13.2 23.2 13.4 22.9 13.7 22.7 C 14.1 22.5 14.4 22.4 14.8 22.4 C 15.1 22.4 15.3 22.5 15.5 22.6 C 15.8 22.7 15.9 22.9 16.1 23.1 C 16.07 23.07 16.1 20.8 16.1 20.8 L 16.9 20.8 L 16.9 27.2 L 16.1 27.2 Z M 13.6 24.9 C 13.6 25.5 13.7 25.9 14 26.2 C 14.3 26.5 14.6 26.7 14.9 26.7 C 15.2 26.7 15.5 26.5 15.8 26.2 C 16 26 16.1 25.5 16.1 24.9 C 16.1 24.3 16 23.8 15.8 23.5 C 15.5 23.2 15.2 23.1 14.9 23.1 C 14.5 23.1 14.2 23.2 14 23.5 C 13.7 23.8 13.6 24.3 13.6 24.9 Z M 20.3 24.9 C 20.3 24 20.5 23.4 21 23 C 21.4 22.6 21.9 22.4 22.5 22.4 C 23.1 22.4 23.7 22.6 24.1 23.1 C 24.5 23.5 24.7 24.1 24.7 24.8 C 24.7 25.4 24.6 25.9 24.4 26.2 C 24.2 26.6 24 26.8 23.6 27 C 23.3 27.2 22.9 27.3 22.5 27.3 C 21.8 27.3 21.3 27.1 20.9 26.7 C 20.5 26.3 20.3 25.7 20.3 24.9 Z M 21.1 24.9 C 21.1 25.5 21.3 25.9 21.5 26.2 C 21.8 26.5 22.1 26.7 22.5 26.7 C 22.9 26.7 23.2 26.5 23.5 26.2 C 23.7 25.9 23.9 25.5 23.9 24.8 C 23.9 24.3 23.7 23.8 23.5 23.5 C 23.2 23.2 22.9 23.1 22.5 23.1 C 22.1 23.1 21.8 23.2 21.5 23.5 C 21.3 23.8 21.1 24.3 21.1 24.9 Z M 28.7 27.2 C 28.7 27.2 28.67 26.52 28.7 26.5 C 28.3 27 27.8 27.3 27.2 27.3 C 26.9 27.3 26.7 27.3 26.4 27.2 C 26.2 27 26 26.9 25.9 26.8 C 25.8 26.6 25.7 26.4 25.6 26.2 C 25.6 26 25.6 25.8 25.6 25.4 C 25.59 25.43 25.6 22.5 25.6 22.5 L 26.4 22.5 C 26.4 22.5 26.38 25.13 26.4 25.1 C 26.4 25.5 26.4 25.8 26.4 26 C 26.5 26.2 26.6 26.3 26.7 26.5 C 26.9 26.6 27.1 26.6 27.3 26.6 C 27.6 26.6 27.8 26.6 28 26.4 C 28.2 26.3 28.4 26.2 28.5 26 C 28.5 25.7 28.6 25.4 28.6 25 C 28.58 25.04 28.6 22.5 28.6 22.5 L 29.4 22.5 L 29.4 27.2 L 28.7 27.2 Z M 32 26.5 C 32.1 26.5 32.2 26.5 32.3 26.5 C 32.3 26.5 32.5 27.2 32.5 27.2 C 32.2 27.2 32 27.3 31.9 27.3 C 31.6 27.3 31.3 27.2 31.2 27.1 C 31 27 30.9 26.9 30.9 26.8 C 30.8 26.6 30.8 26.3 30.8 25.8 C 30.76 25.84 30.8 23.2 30.8 23.2 L 30.2 23.2 L 30.2 22.5 L 30.8 22.5 L 30.8 21.4 L 31.5 20.9 L 31.5 22.5 L 32.3 22.5 L 32.3 23.2 L 31.5 23.2 C 31.5 23.2 31.54 25.88 31.5 25.9 C 31.5 26.1 31.6 26.3 31.6 26.3 C 31.6 26.4 31.7 26.4 31.7 26.5 C 31.8 26.5 31.9 26.5 32 26.5 C 32 26.5 32 26.5 32 26.5 Z M 38.8 27.2 C 38.7 27 38.7 26.8 38.7 26.6 C 38.4 26.9 38.1 27.1 37.8 27.2 C 37.5 27.3 37.3 27.3 36.9 27.3 C 36.4 27.3 36 27.2 35.8 26.9 C 35.5 26.7 35.3 26.4 35.3 26 C 35.3 25.7 35.4 25.5 35.5 25.3 C 35.6 25.2 35.7 25 35.9 24.9 C 36.1 24.8 36.3 24.7 36.5 24.6 C 36.6 24.6 36.9 24.6 37.2 24.5 C 37.8 24.4 38.3 24.3 38.6 24.2 C 38.6 24.1 38.6 24.1 38.6 24 C 38.6 23.7 38.5 23.5 38.4 23.4 C 38.2 23.2 37.9 23.1 37.5 23.1 C 37.1 23.1 36.8 23.2 36.6 23.3 C 36.5 23.4 36.3 23.6 36.3 24 C 36.3 24 35.5 23.9 35.5 23.9 C 35.6 23.5 35.7 23.3 35.8 23.1 C 36 22.9 36.2 22.7 36.5 22.6 C 36.8 22.5 37.2 22.4 37.6 22.4 C 38 22.4 38.3 22.5 38.6 22.6 C 38.8 22.7 39 22.8 39.1 22.9 C 39.2 23.1 39.3 23.2 39.4 23.5 C 39.4 23.6 39.4 23.8 39.4 24.2 C 39.4 24.2 39.4 25.3 39.4 25.3 C 39.4 26 39.4 26.5 39.4 26.6 C 39.5 26.8 39.5 27 39.6 27.2 C 39.64 27.21 38.8 27.2 38.8 27.2 C 38.8 27.2 38.82 27.21 38.8 27.2 Z M 38.6 24.9 C 38.3 25 37.9 25.1 37.3 25.2 C 37 25.2 36.7 25.3 36.6 25.3 C 36.5 25.4 36.4 25.5 36.3 25.6 C 36.2 25.7 36.2 25.8 36.2 26 C 36.2 26.2 36.3 26.3 36.4 26.5 C 36.6 26.6 36.8 26.7 37.1 26.7 C 37.4 26.7 37.7 26.6 37.9 26.5 C 38.2 26.4 38.4 26.2 38.5 25.9 C 38.6 25.8 38.6 25.5 38.6 25.2 C 38.6 25.2 38.6 24.9 38.6 24.9 Z M 41.3 27.2 L 40.6 27.2 L 40.6 20.8 L 41.4 20.8 C 41.4 20.8 41.41 23.06 41.4 23.1 C 41.7 22.6 42.2 22.4 42.7 22.4 C 43 22.4 43.2 22.5 43.5 22.6 C 43.8 22.7 44 22.9 44.1 23.1 C 44.3 23.3 44.4 23.6 44.5 23.9 C 44.6 24.1 44.7 24.5 44.7 24.8 C 44.7 25.6 44.5 26.2 44.1 26.7 C 43.7 27.1 43.2 27.3 42.6 27.3 C 42.1 27.3 41.7 27.1 41.3 26.6 C 41.35 26.62 41.3 27.2 41.3 27.2 Z M 41.3 24.8 C 41.3 25.4 41.4 25.8 41.6 26.1 C 41.8 26.5 42.2 26.7 42.6 26.7 C 42.9 26.7 43.2 26.5 43.5 26.2 C 43.7 25.9 43.9 25.5 43.9 24.9 C 43.9 24.3 43.7 23.8 43.5 23.5 C 43.2 23.2 43 23.1 42.6 23.1 C 42.3 23.1 42 23.2 41.7 23.5 C 41.5 23.8 41.3 24.3 41.3 24.8 Z M 45.3 24.9 C 45.3 24 45.6 23.4 46.1 23 C 46.5 22.6 46.9 22.4 47.5 22.4 C 48.2 22.4 48.7 22.6 49.1 23.1 C 49.5 23.5 49.7 24.1 49.7 24.8 C 49.7 25.4 49.6 25.9 49.4 26.2 C 49.3 26.6 49 26.8 48.6 27 C 48.3 27.2 47.9 27.3 47.5 27.3 C 46.9 27.3 46.3 27.1 45.9 26.7 C 45.5 26.3 45.3 25.7 45.3 24.9 Z M 46.1 24.9 C 46.1 25.5 46.3 25.9 46.5 26.2 C 46.8 26.5 47.1 26.7 47.5 26.7 C 47.9 26.7 48.2 26.5 48.5 26.2 C 48.8 25.9 48.9 25.5 48.9 24.8 C 48.9 24.3 48.8 23.8 48.5 23.5 C 48.2 23.2 47.9 23.1 47.5 23.1 C 47.1 23.1 46.8 23.2 46.5 23.5 C 46.3 23.8 46.1 24.3 46.1 24.9 Z M 53.7 27.2 C 53.7 27.2 53.69 26.52 53.7 26.5 C 53.3 27 52.8 27.3 52.2 27.3 C 51.9 27.3 51.7 27.3 51.4 27.2 C 51.2 27 51 26.9 50.9 26.8 C 50.8 26.6 50.7 26.4 50.7 26.2 C 50.6 26 50.6 25.8 50.6 25.4 C 50.61 25.43 50.6 22.5 50.6 22.5 L 51.4 22.5 C 51.4 22.5 51.4 25.13 51.4 25.1 C 51.4 25.5 51.4 25.8 51.5 26 C 51.5 26.2 51.6 26.3 51.8 26.5 C 51.9 26.6 52.1 26.6 52.4 26.6 C 52.6 26.6 52.8 26.6 53 26.4 C 53.2 26.3 53.4 26.2 53.5 26 C 53.6 25.7 53.6 25.4 53.6 25 C 53.6 25.04 53.6 22.5 53.6 22.5 L 54.4 22.5 L 54.4 27.2 L 53.7 27.2 Z M 57 26.5 C 57.1 26.5 57.2 26.5 57.4 26.5 C 57.4 26.5 57.5 27.2 57.5 27.2 C 57.3 27.2 57.1 27.3 56.9 27.3 C 56.6 27.3 56.4 27.2 56.2 27.1 C 56.1 27 55.9 26.9 55.9 26.8 C 55.8 26.6 55.8 26.3 55.8 25.8 C 55.78 25.84 55.8 23.2 55.8 23.2 L 55.2 23.2 L 55.2 22.5 L 55.8 22.5 L 55.8 21.4 L 56.6 20.9 L 56.6 22.5 L 57.4 22.5 L 57.4 23.2 L 56.6 23.2 C 56.6 23.2 56.57 25.88 56.6 25.9 C 56.6 26.1 56.6 26.3 56.6 26.3 C 56.6 26.4 56.7 26.4 56.7 26.5 C 56.8 26.5 56.9 26.5 57 26.5 C 57 26.5 57 26.5 57 26.5 Z M 60.3 24.9 C 60.3 24 60.6 23.4 61.1 23 C 61.5 22.6 62 22.4 62.5 22.4 C 63.2 22.4 63.7 22.6 64.1 23.1 C 64.5 23.5 64.7 24.1 64.7 24.8 C 64.7 25.4 64.6 25.9 64.4 26.2 C 64.3 26.6 64 26.8 63.7 27 C 63.3 27.2 62.9 27.3 62.5 27.3 C 61.9 27.3 61.3 27.1 60.9 26.7 C 60.5 26.3 60.3 25.7 60.3 24.9 Z M 61.2 24.9 C 61.2 25.5 61.3 25.9 61.5 26.2 C 61.8 26.5 62.1 26.7 62.5 26.7 C 62.9 26.7 63.2 26.5 63.5 26.2 C 63.8 25.9 63.9 25.5 63.9 24.8 C 63.9 24.3 63.8 23.8 63.5 23.5 C 63.2 23.2 62.9 23.1 62.5 23.1 C 62.1 23.1 61.8 23.2 61.5 23.5 C 61.3 23.8 61.2 24.3 61.2 24.9 Z M 68.7 27.2 C 68.7 27.2 68.7 26.52 68.7 26.5 C 68.3 27 67.8 27.3 67.2 27.3 C 66.9 27.3 66.7 27.3 66.4 27.2 C 66.2 27 66 26.9 65.9 26.8 C 65.8 26.6 65.7 26.4 65.7 26.2 C 65.6 26 65.6 25.8 65.6 25.4 C 65.62 25.43 65.6 22.5 65.6 22.5 L 66.4 22.5 C 66.4 22.5 66.41 25.13 66.4 25.1 C 66.4 25.5 66.4 25.8 66.5 26 C 66.5 26.2 66.6 26.3 66.8 26.5 C 66.9 26.6 67.1 26.6 67.4 26.6 C 67.6 26.6 67.8 26.6 68 26.4 C 68.3 26.3 68.4 26.2 68.5 26 C 68.6 25.7 68.6 25.4 68.6 25 C 68.62 25.04 68.6 22.5 68.6 22.5 L 69.4 22.5 L 69.4 27.2 L 68.7 27.2 Z M 70.6 27.2 L 70.6 22.5 L 71.3 22.5 C 71.3 22.5 71.35 23.25 71.3 23.2 C 71.5 22.9 71.7 22.7 71.9 22.6 C 72 22.5 72.2 22.4 72.4 22.4 C 72.6 22.4 72.9 22.5 73.2 22.7 C 73.2 22.7 72.9 23.4 72.9 23.4 C 72.7 23.3 72.5 23.3 72.3 23.3 C 72.1 23.3 72 23.3 71.9 23.4 C 71.7 23.5 71.6 23.7 71.6 23.8 C 71.5 24.1 71.4 24.4 71.4 24.8 C 71.43 24.76 71.4 27.2 71.4 27.2 L 70.6 27.2 Z M 75.8 25.8 C 75.8 25.8 76.6 25.7 76.6 25.7 C 76.7 26 76.8 26.2 77 26.4 C 77.2 26.6 77.5 26.7 77.8 26.7 C 78.2 26.7 78.5 26.6 78.6 26.4 C 78.8 26.3 78.9 26.1 78.9 25.9 C 78.9 25.7 78.8 25.6 78.7 25.5 C 78.5 25.4 78.3 25.3 77.8 25.2 C 77.3 25.1 76.9 25 76.6 24.8 C 76.4 24.7 76.2 24.6 76.1 24.4 C 76 24.2 76 24 76 23.8 C 76 23.6 76 23.4 76.1 23.2 C 76.2 23 76.3 22.9 76.5 22.8 C 76.6 22.7 76.8 22.6 77 22.5 C 77.2 22.5 77.4 22.4 77.7 22.4 C 78 22.4 78.4 22.5 78.6 22.6 C 78.9 22.7 79.1 22.8 79.3 23 C 79.4 23.2 79.5 23.4 79.5 23.7 C 79.5 23.7 78.8 23.8 78.8 23.8 C 78.7 23.6 78.6 23.4 78.4 23.3 C 78.3 23.2 78 23.1 77.7 23.1 C 77.4 23.1 77.1 23.1 77 23.3 C 76.8 23.4 76.7 23.5 76.7 23.7 C 76.7 23.8 76.8 23.9 76.8 24 C 76.9 24 77 24.1 77.1 24.2 C 77.2 24.2 77.4 24.3 77.8 24.4 C 78.4 24.5 78.8 24.6 79 24.7 C 79.2 24.8 79.4 25 79.5 25.2 C 79.6 25.3 79.7 25.6 79.7 25.8 C 79.7 26.1 79.6 26.3 79.5 26.6 C 79.3 26.8 79.1 27 78.8 27.1 C 78.5 27.2 78.2 27.3 77.8 27.3 C 77.2 27.3 76.8 27.2 76.4 26.9 C 76.1 26.7 75.9 26.3 75.8 25.8 Z M 83.8 25.7 C 83.8 25.7 84.7 25.8 84.7 25.8 C 84.5 26.3 84.3 26.7 83.9 26.9 C 83.6 27.2 83.1 27.3 82.6 27.3 C 81.9 27.3 81.4 27.1 81 26.7 C 80.6 26.3 80.4 25.7 80.4 24.9 C 80.4 24.1 80.6 23.5 81 23.1 C 81.4 22.7 81.9 22.4 82.6 22.4 C 83.2 22.4 83.7 22.6 84.1 23.1 C 84.5 23.5 84.7 24.1 84.7 24.9 C 84.7 24.9 84.7 25 84.7 25.1 C 84.7 25.1 81.2 25.1 81.2 25.1 C 81.2 25.6 81.4 26 81.6 26.3 C 81.9 26.5 82.2 26.7 82.6 26.7 C 82.9 26.7 83.1 26.6 83.4 26.4 C 83.6 26.3 83.7 26 83.8 25.7 Z M 81.2 24.4 C 81.2 24.4 83.8 24.4 83.8 24.4 C 83.8 24 83.7 23.7 83.5 23.5 C 83.3 23.2 83 23.1 82.6 23.1 C 82.2 23.1 81.9 23.2 81.7 23.4 C 81.4 23.7 81.3 24 81.2 24.4 Z M 85.6 27.2 L 85.6 22.5 L 86.4 22.5 C 86.4 22.5 86.35 23.25 86.4 23.2 C 86.5 22.9 86.7 22.7 86.9 22.6 C 87 22.5 87.2 22.4 87.4 22.4 C 87.6 22.4 87.9 22.5 88.2 22.7 C 88.2 22.7 87.9 23.4 87.9 23.4 C 87.7 23.3 87.5 23.3 87.3 23.3 C 87.2 23.3 87 23.3 86.9 23.4 C 86.7 23.5 86.6 23.7 86.6 23.8 C 86.5 24.1 86.4 24.4 86.4 24.8 C 86.43 24.76 86.4 27.2 86.4 27.2 L 85.6 27.2 Z M 89.9 27.2 L 88.2 22.5 L 89 22.5 C 89 22.5 90 25.33 90 25.3 C 90.1 25.6 90.2 25.9 90.3 26.3 C 90.4 26 90.5 25.7 90.6 25.4 C 90.6 25.39 91.6 22.5 91.6 22.5 L 92.4 22.5 L 90.7 27.2 L 89.9 27.2 Z M 93.2 21.7 L 93.2 20.8 L 93.9 20.8 L 93.9 21.7 L 93.2 21.7 Z M 93.2 27.2 L 93.2 22.5 L 93.9 22.5 L 93.9 27.2 L 93.2 27.2 Z M 98.2 25.5 C 98.2 25.5 99 25.6 99 25.6 C 98.9 26.1 98.7 26.6 98.3 26.9 C 98 27.2 97.5 27.3 97 27.3 C 96.4 27.3 95.9 27.1 95.5 26.7 C 95.1 26.3 94.9 25.7 94.9 24.9 C 94.9 24.4 95 23.9 95.2 23.6 C 95.3 23.2 95.6 22.9 95.9 22.7 C 96.3 22.5 96.6 22.4 97 22.4 C 97.5 22.4 98 22.6 98.3 22.8 C 98.6 23.1 98.8 23.4 98.9 23.9 C 98.9 23.9 98.1 24 98.1 24 C 98.1 23.7 97.9 23.5 97.7 23.3 C 97.6 23.2 97.3 23.1 97.1 23.1 C 96.7 23.1 96.3 23.2 96.1 23.5 C 95.8 23.8 95.7 24.2 95.7 24.9 C 95.7 25.5 95.8 26 96.1 26.2 C 96.3 26.5 96.6 26.7 97 26.7 C 97.3 26.7 97.6 26.6 97.8 26.4 C 98 26.2 98.1 25.9 98.2 25.5 Z M 102.8 25.7 C 102.8 25.7 103.7 25.8 103.7 25.8 C 103.5 26.3 103.3 26.7 102.9 26.9 C 102.6 27.2 102.1 27.3 101.6 27.3 C 100.9 27.3 100.4 27.1 100 26.7 C 99.6 26.3 99.4 25.7 99.4 24.9 C 99.4 24.1 99.6 23.5 100 23.1 C 100.4 22.7 100.9 22.4 101.6 22.4 C 102.2 22.4 102.7 22.6 103.1 23.1 C 103.5 23.5 103.7 24.1 103.7 24.9 C 103.7 24.9 103.7 25 103.7 25.1 C 103.7 25.1 100.2 25.1 100.2 25.1 C 100.2 25.6 100.4 26 100.6 26.3 C 100.9 26.5 101.2 26.7 101.6 26.7 C 101.9 26.7 102.1 26.6 102.4 26.4 C 102.6 26.3 102.7 26 102.8 25.7 Z M 100.2 24.4 C 100.2 24.4 102.8 24.4 102.8 24.4 C 102.8 24 102.7 23.7 102.6 23.5 C 102.3 23.2 102 23.1 101.6 23.1 C 101.2 23.1 100.9 23.2 100.7 23.4 C 100.4 23.7 100.3 24 100.2 24.4 Z M 104.3 25.8 C 104.3 25.8 105.1 25.7 105.1 25.7 C 105.2 26 105.3 26.2 105.5 26.4 C 105.7 26.6 106 26.7 106.3 26.7 C 106.7 26.7 107 26.6 107.1 26.4 C 107.3 26.3 107.4 26.1 107.4 25.9 C 107.4 25.7 107.3 25.6 107.2 25.5 C 107.1 25.4 106.8 25.3 106.4 25.2 C 105.8 25.1 105.4 25 105.2 24.8 C 104.9 24.7 104.8 24.6 104.6 24.4 C 104.5 24.2 104.5 24 104.5 23.8 C 104.5 23.6 104.5 23.4 104.6 23.2 C 104.7 23 104.8 22.9 105 22.8 C 105.1 22.7 105.3 22.6 105.5 22.5 C 105.7 22.5 105.9 22.4 106.2 22.4 C 106.6 22.4 106.9 22.5 107.1 22.6 C 107.4 22.7 107.6 22.8 107.8 23 C 107.9 23.2 108 23.4 108 23.7 C 108 23.7 107.3 23.8 107.3 23.8 C 107.2 23.6 107.1 23.4 107 23.3 C 106.8 23.2 106.5 23.1 106.2 23.1 C 105.9 23.1 105.6 23.1 105.5 23.3 C 105.3 23.4 105.2 23.5 105.2 23.7 C 105.2 23.8 105.3 23.9 105.3 24 C 105.4 24 105.5 24.1 105.6 24.2 C 105.7 24.2 105.9 24.3 106.3 24.4 C 106.9 24.5 107.3 24.6 107.5 24.7 C 107.7 24.8 107.9 25 108 25.2 C 108.1 25.3 108.2 25.6 108.2 25.8 C 108.2 26.1 108.1 26.3 108 26.6 C 107.8 26.8 107.6 27 107.3 27.1 C 107 27.2 106.7 27.3 106.3 27.3 C 105.7 27.3 105.3 27.2 104.9 26.9 C 104.6 26.7 104.4 26.3 104.3 25.8 Z M 109.4 27.2 L 109.4 26.3 L 110.3 26.3 C 110.3 26.3 110.26 27.21 110.3 27.2 C 110.3 27.5 110.2 27.8 110.1 28 C 110 28.2 109.8 28.4 109.5 28.5 C 109.5 28.5 109.3 28.1 109.3 28.1 C 109.5 28.1 109.6 28 109.7 27.8 C 109.8 27.7 109.8 27.5 109.8 27.2 C 109.81 27.21 109.4 27.2 109.4 27.2 Z M 115.5 26.5 C 115.6 26.5 115.7 26.5 115.9 26.5 C 115.9 26.5 116 27.2 116 27.2 C 115.8 27.2 115.6 27.3 115.4 27.3 C 115.1 27.3 114.9 27.2 114.7 27.1 C 114.6 27 114.5 26.9 114.4 26.8 C 114.3 26.6 114.3 26.3 114.3 25.8 C 114.3 25.84 114.3 23.2 114.3 23.2 L 113.7 23.2 L 113.7 22.5 L 114.3 22.5 L 114.3 21.4 L 115.1 20.9 L 115.1 22.5 L 115.9 22.5 L 115.9 23.2 L 115.1 23.2 C 115.1 23.2 115.08 25.88 115.1 25.9 C 115.1 26.1 115.1 26.3 115.1 26.3 C 115.2 26.4 115.2 26.4 115.3 26.5 C 115.3 26.5 115.4 26.5 115.5 26.5 C 115.5 26.5 115.5 26.5 115.5 26.5 Z M 119.8 25.7 C 119.8 25.7 120.7 25.8 120.7 25.8 C 120.5 26.3 120.3 26.7 119.9 26.9 C 119.6 27.2 119.2 27.3 118.6 27.3 C 117.9 27.3 117.4 27.1 117 26.7 C 116.6 26.3 116.4 25.7 116.4 24.9 C 116.4 24.1 116.6 23.5 117 23.1 C 117.4 22.7 117.9 22.4 118.6 22.4 C 119.2 22.4 119.7 22.6 120.1 23.1 C 120.5 23.5 120.7 24.1 120.7 24.9 C 120.7 24.9 120.7 25 120.7 25.1 C 120.7 25.1 117.2 25.1 117.2 25.1 C 117.2 25.6 117.4 26 117.6 26.3 C 117.9 26.5 118.2 26.7 118.6 26.7 C 118.9 26.7 119.2 26.6 119.4 26.4 C 119.6 26.3 119.7 26 119.8 25.7 Z M 117.3 24.4 C 117.3 24.4 119.9 24.4 119.9 24.4 C 119.8 24 119.7 23.7 119.6 23.5 C 119.3 23.2 119 23.1 118.6 23.1 C 118.2 23.1 117.9 23.2 117.7 23.4 C 117.4 23.7 117.3 24 117.3 24.4 Z M 121.7 27.2 L 121.7 22.5 L 122.4 22.5 C 122.4 22.5 122.37 23.2 122.4 23.2 C 122.7 22.7 123.2 22.4 123.9 22.4 C 124.1 22.4 124.4 22.5 124.6 22.6 C 124.9 22.7 125 22.8 125.2 23 C 125.3 23.1 125.4 23.3 125.4 23.6 C 125.4 23.7 125.5 24 125.5 24.3 C 125.45 24.34 125.5 27.2 125.5 27.2 L 124.7 27.2 C 124.7 27.2 124.66 24.37 124.7 24.4 C 124.7 24 124.6 23.8 124.6 23.6 C 124.5 23.5 124.4 23.4 124.2 23.3 C 124.1 23.2 123.9 23.1 123.7 23.1 C 123.4 23.1 123.1 23.2 122.8 23.4 C 122.6 23.7 122.4 24.1 122.4 24.7 C 122.45 24.66 122.4 27.2 122.4 27.2 L 121.7 27.2 Z M 129.9 25.7 C 129.9 25.7 130.7 25.8 130.7 25.8 C 130.5 26.3 130.3 26.7 130 26.9 C 129.6 27.2 129.2 27.3 128.6 27.3 C 127.9 27.3 127.4 27.1 127 26.7 C 126.6 26.3 126.4 25.7 126.4 24.9 C 126.4 24.1 126.6 23.5 127 23.1 C 127.4 22.7 127.9 22.4 128.6 22.4 C 129.2 22.4 129.7 22.6 130.1 23.1 C 130.5 23.5 130.7 24.1 130.7 24.9 C 130.7 24.9 130.7 25 130.7 25.1 C 130.7 25.1 127.2 25.1 127.2 25.1 C 127.2 25.6 127.4 26 127.7 26.3 C 127.9 26.5 128.2 26.7 128.6 26.7 C 128.9 26.7 129.2 26.6 129.4 26.4 C 129.6 26.3 129.7 26 129.9 25.7 Z M 127.3 24.4 C 127.3 24.4 129.9 24.4 129.9 24.4 C 129.8 24 129.7 23.7 129.6 23.5 C 129.3 23.2 129 23.1 128.6 23.1 C 128.2 23.1 127.9 23.2 127.7 23.4 C 127.4 23.7 127.3 24 127.3 24.4 Z M 133 26.5 C 133.1 26.5 133.3 26.5 133.4 26.5 C 133.4 26.5 133.5 27.2 133.5 27.2 C 133.3 27.2 133.1 27.3 132.9 27.3 C 132.6 27.3 132.4 27.2 132.2 27.1 C 132.1 27 132 26.9 131.9 26.8 C 131.8 26.6 131.8 26.3 131.8 25.8 C 131.81 25.84 131.8 23.2 131.8 23.2 L 131.2 23.2 L 131.2 22.5 L 131.8 22.5 L 131.8 21.4 L 132.6 20.9 L 132.6 22.5 L 133.4 22.5 L 133.4 23.2 L 132.6 23.2 C 132.6 23.2 132.6 25.88 132.6 25.9 C 132.6 26.1 132.6 26.3 132.6 26.3 C 132.7 26.4 132.7 26.4 132.8 26.5 C 132.8 26.5 132.9 26.5 133 26.5 C 133 26.5 133 26.5 133 26.5 Z M 133.9 25.8 C 133.9 25.8 134.6 25.7 134.6 25.7 C 134.7 26 134.8 26.2 135 26.4 C 135.2 26.6 135.5 26.7 135.8 26.7 C 136.2 26.7 136.5 26.6 136.7 26.4 C 136.8 26.3 136.9 26.1 136.9 25.9 C 136.9 25.7 136.8 25.6 136.7 25.5 C 136.6 25.4 136.3 25.3 135.9 25.2 C 135.3 25.1 134.9 25 134.7 24.8 C 134.4 24.7 134.3 24.6 134.2 24.4 C 134 24.2 134 24 134 23.8 C 134 23.6 134 23.4 134.1 23.2 C 134.2 23 134.4 22.9 134.5 22.8 C 134.6 22.7 134.8 22.6 135 22.5 C 135.2 22.5 135.5 22.4 135.7 22.4 C 136.1 22.4 136.4 22.5 136.7 22.6 C 136.9 22.7 137.1 22.8 137.3 23 C 137.4 23.2 137.5 23.4 137.6 23.7 C 137.6 23.7 136.8 23.8 136.8 23.8 C 136.7 23.6 136.6 23.4 136.5 23.3 C 136.3 23.2 136.1 23.1 135.8 23.1 C 135.4 23.1 135.1 23.1 135 23.3 C 134.8 23.4 134.7 23.5 134.7 23.7 C 134.7 23.8 134.8 23.9 134.8 24 C 134.9 24 135 24.1 135.1 24.2 C 135.2 24.2 135.5 24.3 135.8 24.4 C 136.4 24.5 136.8 24.6 137 24.7 C 137.2 24.8 137.4 25 137.5 25.2 C 137.7 25.3 137.7 25.6 137.7 25.8 C 137.7 26.1 137.7 26.3 137.5 26.6 C 137.3 26.8 137.1 27 136.8 27.1 C 136.5 27.2 136.2 27.3 135.8 27.3 C 135.2 27.3 134.8 27.2 134.5 26.9 C 134.1 26.7 133.9 26.3 133.9 25.8 Z M 144.4 27.2 C 144.3 27 144.2 26.8 144.2 26.6 C 143.9 26.9 143.6 27.1 143.4 27.2 C 143.1 27.3 142.8 27.3 142.5 27.3 C 142 27.3 141.6 27.2 141.3 26.9 C 141 26.7 140.9 26.4 140.9 26 C 140.9 25.7 141 25.5 141.1 25.3 C 141.2 25.2 141.3 25 141.5 24.9 C 141.6 24.8 141.8 24.7 142 24.6 C 142.2 24.6 142.4 24.6 142.7 24.5 C 143.4 24.4 143.8 24.3 144.1 24.2 C 144.2 24.1 144.2 24.1 144.2 24 C 144.2 23.7 144.1 23.5 143.9 23.4 C 143.7 23.2 143.4 23.1 143 23.1 C 142.7 23.1 142.4 23.2 142.2 23.3 C 142 23.4 141.9 23.6 141.8 24 C 141.8 24 141 23.9 141 23.9 C 141.1 23.5 141.2 23.3 141.4 23.1 C 141.5 22.9 141.8 22.7 142.1 22.6 C 142.4 22.5 142.7 22.4 143.1 22.4 C 143.5 22.4 143.9 22.5 144.1 22.6 C 144.4 22.7 144.5 22.8 144.7 22.9 C 144.8 23.1 144.9 23.2 144.9 23.5 C 144.9 23.6 144.9 23.8 144.9 24.2 C 144.9 24.2 144.9 25.3 144.9 25.3 C 144.9 26 145 26.5 145 26.6 C 145 26.8 145.1 27 145.2 27.2 C 145.2 27.21 144.4 27.2 144.4 27.2 C 144.4 27.2 144.37 27.21 144.4 27.2 Z M 144.1 24.9 C 143.9 25 143.4 25.1 142.9 25.2 C 142.5 25.2 142.3 25.3 142.2 25.3 C 142 25.4 141.9 25.5 141.9 25.6 C 141.8 25.7 141.7 25.8 141.7 26 C 141.7 26.2 141.8 26.3 142 26.5 C 142.1 26.6 142.4 26.7 142.7 26.7 C 143 26.7 143.3 26.6 143.5 26.5 C 143.7 26.4 143.9 26.2 144 25.9 C 144.1 25.8 144.1 25.5 144.1 25.2 C 144.1 25.2 144.1 24.9 144.1 24.9 Z M 146.2 27.2 L 146.2 22.5 L 146.9 22.5 C 146.9 22.5 146.89 23.2 146.9 23.2 C 147.2 22.7 147.7 22.4 148.4 22.4 C 148.7 22.4 148.9 22.5 149.1 22.6 C 149.4 22.7 149.6 22.8 149.7 23 C 149.8 23.1 149.9 23.3 149.9 23.6 C 150 23.7 150 24 150 24.3 C 149.97 24.34 150 27.2 150 27.2 L 149.2 27.2 C 149.2 27.2 149.18 24.37 149.2 24.4 C 149.2 24 149.1 23.8 149.1 23.6 C 149 23.5 148.9 23.4 148.8 23.3 C 148.6 23.2 148.4 23.1 148.2 23.1 C 147.9 23.1 147.6 23.2 147.3 23.4 C 147.1 23.7 147 24.1 147 24.7 C 146.97 24.66 147 27.2 147 27.2 L 146.2 27.2 Z M 154.2 27.2 C 154.2 27.2 154.21 26.62 154.2 26.6 C 153.9 27.1 153.5 27.3 152.9 27.3 C 152.5 27.3 152.2 27.2 151.9 27 C 151.6 26.8 151.3 26.5 151.2 26.1 C 151 25.8 150.9 25.4 150.9 24.9 C 150.9 24.4 151 24 151.1 23.6 C 151.3 23.2 151.5 22.9 151.8 22.7 C 152.1 22.5 152.5 22.4 152.9 22.4 C 153.1 22.4 153.4 22.5 153.6 22.6 C 153.8 22.7 154 22.9 154.2 23.1 C 154.16 23.07 154.2 20.8 154.2 20.8 L 154.9 20.8 L 154.9 27.2 L 154.2 27.2 Z M 151.7 24.9 C 151.7 25.5 151.8 25.9 152.1 26.2 C 152.3 26.5 152.6 26.7 153 26.7 C 153.3 26.7 153.6 26.5 153.9 26.2 C 154.1 26 154.2 25.5 154.2 24.9 C 154.2 24.3 154.1 23.8 153.9 23.5 C 153.6 23.2 153.3 23.1 152.9 23.1 C 152.6 23.1 152.3 23.2 152.1 23.5 C 151.8 23.8 151.7 24.3 151.7 24.9 Z M 159.5 27.2 L 158.1 22.5 L 158.9 22.5 L 159.7 25.2 C 159.7 25.2 159.96 26.23 160 26.2 C 160 26.2 160 25.9 160.2 25.3 C 160.2 25.27 160.9 22.5 160.9 22.5 L 161.8 22.5 L 162.5 25.2 L 162.7 26.1 L 163 25.2 L 163.8 22.5 L 164.5 22.5 L 163.1 27.2 L 162.2 27.2 L 161.5 24.4 L 161.3 23.6 L 160.4 27.2 L 159.5 27.2 Z M 168.4 27.2 C 168.3 27 168.3 26.8 168.2 26.6 C 167.9 26.9 167.7 27.1 167.4 27.2 C 167.1 27.3 166.8 27.3 166.5 27.3 C 166 27.3 165.6 27.2 165.3 26.9 C 165.1 26.7 164.9 26.4 164.9 26 C 164.9 25.7 165 25.5 165.1 25.3 C 165.2 25.2 165.3 25 165.5 24.9 C 165.7 24.8 165.8 24.7 166.1 24.6 C 166.2 24.6 166.4 24.6 166.8 24.5 C 167.4 24.4 167.9 24.3 168.2 24.2 C 168.2 24.1 168.2 24.1 168.2 24 C 168.2 23.7 168.1 23.5 167.9 23.4 C 167.7 23.2 167.4 23.1 167 23.1 C 166.7 23.1 166.4 23.2 166.2 23.3 C 166 23.4 165.9 23.6 165.8 24 C 165.8 24 165.1 23.9 165.1 23.9 C 165.1 23.5 165.2 23.3 165.4 23.1 C 165.6 22.9 165.8 22.7 166.1 22.6 C 166.4 22.5 166.8 22.4 167.2 22.4 C 167.6 22.4 167.9 22.5 168.1 22.6 C 168.4 22.7 168.6 22.8 168.7 22.9 C 168.8 23.1 168.9 23.2 168.9 23.5 C 169 23.6 169 23.8 169 24.2 C 169 24.2 169 25.3 169 25.3 C 169 26 169 26.5 169 26.6 C 169 26.8 169.1 27 169.2 27.2 C 169.22 27.21 168.4 27.2 168.4 27.2 C 168.4 27.2 168.39 27.21 168.4 27.2 Z M 168.2 24.9 C 167.9 25 167.4 25.1 166.9 25.2 C 166.5 25.2 166.3 25.3 166.2 25.3 C 166 25.4 165.9 25.5 165.9 25.6 C 165.8 25.7 165.8 25.8 165.8 26 C 165.8 26.2 165.8 26.3 166 26.5 C 166.2 26.6 166.4 26.7 166.7 26.7 C 167 26.7 167.3 26.6 167.5 26.5 C 167.8 26.4 167.9 26.2 168 25.9 C 168.1 25.8 168.2 25.5 168.2 25.2 C 168.2 25.2 168.2 24.9 168.2 24.9 Z M 170.7 29.1 C 170.5 29.1 170.3 29.1 170.2 29 C 170.2 29 170.1 28.3 170.1 28.3 C 170.2 28.3 170.4 28.3 170.5 28.3 C 170.7 28.3 170.8 28.3 170.9 28.2 C 171 28.2 171.1 28.1 171.2 28 C 171.3 27.9 171.3 27.7 171.4 27.4 C 171.5 27.4 171.5 27.3 171.5 27.2 C 171.51 27.21 169.7 22.5 169.7 22.5 L 170.6 22.5 C 170.6 22.5 171.57 25.24 171.6 25.2 C 171.7 25.6 171.8 25.9 171.9 26.3 C 172 26 172.1 25.6 172.2 25.3 C 172.23 25.26 173.2 22.5 173.2 22.5 L 174 22.5 C 174 22.5 172.24 27.28 172.2 27.3 C 172.1 27.8 171.9 28.2 171.8 28.3 C 171.7 28.6 171.5 28.8 171.3 28.9 C 171.1 29 170.9 29.1 170.7 29.1 C 170.7 29.1 170.7 29.1 170.7 29.1 Z M 176.9 24.9 C 176.9 24 177.1 23.4 177.6 23 C 178 22.6 178.5 22.4 179.1 22.4 C 179.7 22.4 180.3 22.6 180.7 23.1 C 181.1 23.5 181.3 24.1 181.3 24.8 C 181.3 25.4 181.2 25.9 181 26.2 C 180.8 26.6 180.6 26.8 180.2 27 C 179.9 27.2 179.5 27.3 179.1 27.3 C 178.4 27.3 177.9 27.1 177.5 26.7 C 177.1 26.3 176.9 25.7 176.9 24.9 Z M 177.7 24.9 C 177.7 25.5 177.8 25.9 178.1 26.2 C 178.4 26.5 178.7 26.7 179.1 26.7 C 179.5 26.7 179.8 26.5 180.1 26.2 C 180.3 25.9 180.5 25.5 180.5 24.8 C 180.5 24.3 180.3 23.8 180.1 23.5 C 179.8 23.2 179.5 23.1 179.1 23.1 C 178.7 23.1 178.4 23.2 178.1 23.5 C 177.8 23.8 177.7 24.3 177.7 24.9 Z M 182.4 27.2 L 182.4 23.2 L 181.7 23.2 L 181.7 22.5 L 182.4 22.5 C 182.4 22.5 182.39 22.04 182.4 22 C 182.4 21.7 182.4 21.5 182.5 21.3 C 182.5 21.1 182.7 21 182.9 20.8 C 183.1 20.7 183.3 20.7 183.7 20.7 C 183.9 20.7 184.1 20.7 184.4 20.7 C 184.4 20.7 184.3 21.4 184.3 21.4 C 184.1 21.4 184 21.4 183.8 21.4 C 183.6 21.4 183.4 21.4 183.3 21.5 C 183.2 21.6 183.2 21.8 183.2 22.1 C 183.17 22.11 183.2 22.5 183.2 22.5 L 184.1 22.5 L 184.1 23.2 L 183.2 23.2 L 183.2 27.2 L 182.4 27.2 Z M 188.1 27.2 L 186.6 22.5 L 187.4 22.5 L 188.2 25.2 C 188.2 25.2 188.47 26.23 188.5 26.2 C 188.5 26.2 188.6 25.9 188.7 25.3 C 188.71 25.27 189.5 22.5 189.5 22.5 L 190.3 22.5 L 191 25.2 L 191.2 26.1 L 191.5 25.2 L 192.3 22.5 L 193 22.5 L 191.6 27.2 L 190.8 27.2 L 190 24.4 L 189.8 23.6 L 188.9 27.2 L 188.1 27.2 Z M 193.4 24.9 C 193.4 24 193.6 23.4 194.1 23 C 194.5 22.6 195 22.4 195.6 22.4 C 196.2 22.4 196.8 22.6 197.2 23.1 C 197.6 23.5 197.8 24.1 197.8 24.8 C 197.8 25.4 197.7 25.9 197.5 26.2 C 197.3 26.6 197.1 26.8 196.7 27 C 196.4 27.2 196 27.3 195.6 27.3 C 194.9 27.3 194.4 27.1 194 26.7 C 193.6 26.3 193.4 25.7 193.4 24.9 Z M 194.2 24.9 C 194.2 25.5 194.3 25.9 194.6 26.2 C 194.9 26.5 195.2 26.7 195.6 26.7 C 196 26.7 196.3 26.5 196.6 26.2 C 196.8 25.9 197 25.5 197 24.8 C 197 24.3 196.8 23.8 196.6 23.5 C 196.3 23.2 196 23.1 195.6 23.1 C 195.2 23.1 194.9 23.2 194.6 23.5 C 194.3 23.8 194.2 24.3 194.2 24.9 Z M 198.7 27.2 L 198.7 22.5 L 199.4 22.5 C 199.4 22.5 199.41 23.25 199.4 23.2 C 199.6 22.9 199.8 22.7 199.9 22.6 C 200.1 22.5 200.2 22.4 200.4 22.4 C 200.7 22.4 201 22.5 201.2 22.7 C 201.2 22.7 201 23.4 201 23.4 C 200.8 23.3 200.6 23.3 200.4 23.3 C 200.2 23.3 200 23.3 199.9 23.4 C 199.8 23.5 199.7 23.7 199.6 23.8 C 199.5 24.1 199.5 24.4 199.5 24.8 C 199.49 24.76 199.5 27.2 199.5 27.2 L 198.7 27.2 Z M 201.7 27.2 L 201.7 20.8 L 202.5 20.8 L 202.5 24.4 L 204.4 22.5 L 205.4 22.5 L 203.6 24.3 L 205.6 27.2 L 204.6 27.2 L 203.1 24.8 L 202.5 25.4 L 202.5 27.2 L 201.7 27.2 Z M 206.2 21.7 L 206.2 20.8 L 207 20.8 L 207 21.7 L 206.2 21.7 Z M 206.2 27.2 L 206.2 22.5 L 207 22.5 L 207 27.2 L 206.2 27.2 Z M 208.2 27.2 L 208.2 22.5 L 208.9 22.5 C 208.9 22.5 208.91 23.2 208.9 23.2 C 209.3 22.7 209.7 22.4 210.4 22.4 C 210.7 22.4 210.9 22.5 211.2 22.6 C 211.4 22.7 211.6 22.8 211.7 23 C 211.8 23.1 211.9 23.3 211.9 23.6 C 212 23.7 212 24 212 24.3 C 211.99 24.34 212 27.2 212 27.2 L 211.2 27.2 C 211.2 27.2 211.2 24.37 211.2 24.4 C 211.2 24 211.2 23.8 211.1 23.6 C 211 23.5 210.9 23.4 210.8 23.3 C 210.6 23.2 210.4 23.1 210.2 23.1 C 209.9 23.1 209.6 23.2 209.4 23.4 C 209.1 23.7 209 24.1 209 24.7 C 208.99 24.66 209 27.2 209 27.2 L 208.2 27.2 Z M 213.1 27.6 C 213.1 27.6 213.8 27.7 213.8 27.7 C 213.9 27.9 214 28.1 214.1 28.2 C 214.3 28.4 214.6 28.4 214.9 28.4 C 215.3 28.4 215.6 28.4 215.7 28.2 C 215.9 28.1 216.1 27.9 216.2 27.6 C 216.2 27.4 216.2 27.1 216.2 26.6 C 215.9 27 215.4 27.2 214.9 27.2 C 214.3 27.2 213.8 27 213.4 26.5 C 213.1 26 212.9 25.5 212.9 24.8 C 212.9 24.4 213 24 213.1 23.6 C 213.3 23.2 213.5 22.9 213.8 22.7 C 214.2 22.5 214.5 22.4 214.9 22.4 C 215.5 22.4 215.9 22.7 216.3 23.1 C 216.29 23.1 216.3 22.5 216.3 22.5 L 217 22.5 C 217 22.5 217.02 26.57 217 26.6 C 217 27.3 216.9 27.8 216.8 28.1 C 216.6 28.4 216.4 28.7 216.1 28.8 C 215.8 29 215.4 29.1 214.9 29.1 C 214.3 29.1 213.9 29 213.6 28.7 C 213.2 28.5 213 28.1 213.1 27.6 Z M 213.7 24.8 C 213.7 25.4 213.8 25.8 214.1 26.1 C 214.3 26.4 214.6 26.6 215 26.6 C 215.4 26.6 215.7 26.4 215.9 26.1 C 216.2 25.9 216.3 25.4 216.3 24.8 C 216.3 24.2 216.2 23.8 215.9 23.5 C 215.6 23.2 215.3 23.1 215 23.1 C 214.6 23.1 214.3 23.2 214.1 23.5 C 213.8 23.8 213.7 24.2 213.7 24.8 Z M 218.4 27.2 L 218.4 26.3 L 219.3 26.3 L 219.3 27.2 L 218.4 27.2 Z " stroke="none" fill="#010102"/>  </g>  <g id="Polygon682">    <path d="M 4.2 2 L 7.8 10.2 L 6.9 10.2 L 5.8 7.6 L 2.1 7.6 L 0.9 10.2 L 0 10.2 L 3.6 2 L 4.2 2 Z M 2.4 6.8 L 5.4 6.8 L 3.9 3.4 L 2.4 6.8 Z M 10.9 2 C 12.4 2 13.4 2.8 13.4 4.1 C 13.4 5 12.9 5.6 12.1 5.9 C 13.3 6.1 14.1 6.9 14.1 8 C 14.1 9.5 12.8 10.2 11.3 10.2 C 11.28 10.21 8.8 10.2 8.8 10.2 L 8.8 2 C 8.8 2 10.9 2.02 10.9 2 Z M 9.7 5.7 C 9.7 5.7 10.57 5.66 10.6 5.7 C 11.9 5.7 12.5 5 12.5 4.2 C 12.5 3.2 11.9 2.8 10.7 2.8 C 10.72 2.81 9.7 2.8 9.7 2.8 L 9.7 5.7 Z M 11.1 9.4 C 12.4 9.4 13.2 9 13.2 7.9 C 13.2 7 12.5 6.4 11 6.4 C 10.98 6.44 9.7 6.4 9.7 6.4 L 9.7 9.4 C 9.7 9.4 11.11 9.41 11.1 9.4 Z M 23.6 6.1 C 23.6 8.4 21.9 10.3 19.2 10.3 C 16.7 10.3 15 8.4 15 6.2 C 15 3.9 16.6 1.9 19.2 1.9 C 21.9 1.9 23.6 3.8 23.6 6.1 Z M 15.9 6.1 C 15.9 8.1 17.4 9.5 19.2 9.5 C 21.7 9.5 22.7 7.6 22.7 6.1 C 22.7 4.4 21.4 2.8 19.3 2.8 C 17.1 2.8 15.9 4.5 15.9 6.1 Z M 25.9 2 C 25.9 2 25.86 6.74 25.9 6.7 C 25.9 8.5 26.7 9.5 28.4 9.5 C 30.1 9.5 30.9 8.5 30.9 6.7 C 30.92 6.74 30.9 2 30.9 2 L 31.8 2 C 31.8 2 31.82 6.74 31.8 6.7 C 31.8 8.9 30.7 10.3 28.4 10.3 C 26.2 10.3 25 9 25 6.7 C 24.96 6.74 25 2 25 2 L 25.9 2 Z M 39.5 2 L 39.5 2.8 L 36.6 2.8 L 36.6 10.2 L 35.7 10.2 L 35.7 2.8 L 32.8 2.8 L 32.8 2 L 39.5 2 Z " stroke="none" fill="#010102"/>  </g></svg>