<?xml version="1.0" standalone="no"?><!DOCTYPE svg PUBLIC "-//W3C//DTD SVG 1.1//EN" "http://www.w3.org/Graphics/SVG/1.1/DTD/svg11.dtd"><svg xmlns="http://www.w3.org/2000/svg" version="1.1" width="43.4px" height="20.5px" viewBox="0 -4 43.4 20.5" style="top:-4px">  <desc>About</desc>  <defs/>  <g id="Polygon2345">    <path d="M 6 8.7 L 9.3 0.1 L 10.5 0.1 L 14 8.7 L 12.7 8.7 L 11.7 6.1 L 8.1 6.1 L 7.2 8.7 L 6 8.7 Z M 8.5 5.2 L 11.4 5.2 C 11.4 5.2 10.47 2.83 10.5 2.8 C 10.2 2.1 10 1.5 9.9 1 C 9.8 1.6 9.6 2.1 9.4 2.7 C 9.4 2.69 8.5 5.2 8.5 5.2 Z M 15.8 8.7 L 14.8 8.7 L 14.8 0.1 L 15.8 0.1 C 15.8 0.1 15.84 3.21 15.8 3.2 C 16.3 2.7 16.9 2.4 17.5 2.4 C 17.9 2.4 18.3 2.5 18.6 2.6 C 19 2.8 19.3 3 19.5 3.3 C 19.7 3.5 19.9 3.9 20 4.3 C 20.1 4.7 20.2 5.1 20.2 5.5 C 20.2 6.6 19.9 7.4 19.4 8 C 18.9 8.6 18.2 8.9 17.5 8.9 C 16.8 8.9 16.2 8.6 15.8 8 C 15.77 7.96 15.8 8.7 15.8 8.7 Z M 15.8 5.6 C 15.8 6.3 15.9 6.9 16.1 7.2 C 16.4 7.7 16.8 8 17.4 8 C 17.9 8 18.3 7.8 18.6 7.4 C 18.9 7 19.1 6.4 19.1 5.6 C 19.1 4.8 18.9 4.2 18.6 3.8 C 18.3 3.4 17.9 3.2 17.5 3.2 C 17 3.2 16.6 3.4 16.3 3.8 C 15.9 4.2 15.8 4.8 15.8 5.6 Z M 21.1 5.6 C 21.1 4.5 21.4 3.6 22 3.1 C 22.6 2.6 23.2 2.4 24 2.4 C 24.8 2.4 25.5 2.7 26.1 3.2 C 26.6 3.8 26.9 4.5 26.9 5.5 C 26.9 6.3 26.8 7 26.5 7.4 C 26.3 7.9 26 8.2 25.5 8.5 C 25 8.7 24.5 8.9 24 8.9 C 23.1 8.9 22.4 8.6 21.9 8 C 21.3 7.5 21.1 6.7 21.1 5.6 Z M 22.2 5.6 C 22.2 6.4 22.3 7 22.7 7.4 C 23 7.8 23.5 8 24 8 C 24.5 8 25 7.8 25.3 7.4 C 25.6 7 25.8 6.4 25.8 5.6 C 25.8 4.8 25.6 4.2 25.3 3.8 C 24.9 3.4 24.5 3.2 24 3.2 C 23.5 3.2 23 3.4 22.7 3.8 C 22.3 4.2 22.2 4.8 22.2 5.6 Z M 32.2 8.7 C 32.2 8.7 32.22 7.82 32.2 7.8 C 31.7 8.5 31.1 8.9 30.2 8.9 C 29.9 8.9 29.5 8.8 29.2 8.7 C 28.9 8.5 28.7 8.3 28.5 8.1 C 28.4 7.9 28.2 7.7 28.2 7.4 C 28.1 7.1 28.1 6.8 28.1 6.4 C 28.12 6.37 28.1 2.5 28.1 2.5 L 29.2 2.5 C 29.2 2.5 29.17 5.96 29.2 6 C 29.2 6.5 29.2 6.9 29.2 7.1 C 29.3 7.4 29.4 7.6 29.7 7.7 C 29.9 7.9 30.1 8 30.5 8 C 30.8 8 31.1 7.9 31.3 7.7 C 31.6 7.6 31.8 7.3 31.9 7.1 C 32 6.8 32.1 6.4 32.1 5.8 C 32.11 5.85 32.1 2.5 32.1 2.5 L 33.2 2.5 L 33.2 8.7 L 32.2 8.7 Z M 36.7 7.8 C 36.8 7.8 36.9 7.8 37.1 7.8 C 37.1 7.8 37.3 8.7 37.3 8.7 C 37 8.8 36.7 8.8 36.5 8.8 C 36.1 8.8 35.8 8.8 35.6 8.6 C 35.4 8.5 35.2 8.4 35.1 8.2 C 35.1 8 35 7.5 35 6.9 C 35.01 6.91 35 3.3 35 3.3 L 34.2 3.3 L 34.2 2.5 L 35 2.5 L 35 1 L 36.1 0.3 L 36.1 2.5 L 37.1 2.5 L 37.1 3.3 L 36.1 3.3 C 36.1 3.3 36.06 6.97 36.1 7 C 36.1 7.3 36.1 7.5 36.1 7.6 C 36.1 7.6 36.2 7.7 36.3 7.8 C 36.4 7.8 36.5 7.8 36.7 7.8 C 36.7 7.8 36.7 7.8 36.7 7.8 Z " stroke="none" fill="#000"/>  </g></svg>