<?xml version="1.0" standalone="no"?><!DOCTYPE svg PUBLIC "-//W3C//DTD SVG 1.1//EN" "http://www.w3.org/Graphics/SVG/1.1/DTD/svg11.dtd"><svg xmlns="http://www.w3.org/2000/svg" version="1.1" width="247px" height="36.7px" viewBox="0 -4 247 36.7" style="top:-4px">  <desc>About Find out about our services, tenets and way of working.</desc>  <defs/>  <g id="Polygon682">    <path d="M 0.7 27.2 L 0.7 21.5 L 4.5 21.5 L 4.5 22.2 L 1.4 22.2 L 1.4 23.9 L 4.1 23.9 L 4.1 24.6 L 1.4 24.6 L 1.4 27.2 L 0.7 27.2 Z M 5.4 22.3 L 5.4 21.5 L 6.1 21.5 L 6.1 22.3 L 5.4 22.3 Z M 5.4 27.2 L 5.4 23.1 L 6.1 23.1 L 6.1 27.2 L 5.4 27.2 Z M 7.2 27.2 L 7.2 23.1 L 7.8 23.1 C 7.8 23.1 7.82 23.65 7.8 23.6 C 8.1 23.2 8.6 23 9.1 23 C 9.4 23 9.6 23 9.8 23.1 C 10 23.2 10.2 23.3 10.3 23.5 C 10.4 23.6 10.5 23.8 10.5 24 C 10.5 24.1 10.6 24.3 10.6 24.7 C 10.56 24.66 10.6 27.2 10.6 27.2 L 9.9 27.2 C 9.9 27.2 9.86 24.68 9.9 24.7 C 9.9 24.4 9.8 24.2 9.8 24 C 9.7 23.9 9.6 23.8 9.5 23.7 C 9.3 23.6 9.2 23.6 9 23.6 C 8.7 23.6 8.4 23.7 8.2 23.9 C 8 24 7.9 24.4 7.9 24.9 C 7.89 24.94 7.9 27.2 7.9 27.2 L 7.2 27.2 Z M 14.3 27.2 C 14.3 27.2 14.33 26.68 14.3 26.7 C 14.1 27.1 13.7 27.3 13.2 27.3 C 12.8 27.3 12.5 27.2 12.3 27 C 12 26.8 11.8 26.6 11.6 26.3 C 11.5 25.9 11.4 25.6 11.4 25.1 C 11.4 24.7 11.5 24.3 11.6 24 C 11.7 23.7 11.9 23.4 12.2 23.2 C 12.5 23.1 12.8 23 13.1 23 C 13.4 23 13.6 23 13.8 23.1 C 14 23.2 14.2 23.4 14.3 23.5 C 14.29 23.53 14.3 21.5 14.3 21.5 L 15 21.5 L 15 27.2 L 14.3 27.2 Z M 12.1 25.1 C 12.1 25.7 12.2 26.1 12.4 26.3 C 12.7 26.6 12.9 26.7 13.2 26.7 C 13.5 26.7 13.8 26.6 14 26.3 C 14.2 26.1 14.3 25.7 14.3 25.2 C 14.3 24.6 14.2 24.2 14 23.9 C 13.8 23.7 13.5 23.5 13.2 23.5 C 12.9 23.5 12.6 23.7 12.4 23.9 C 12.2 24.2 12.1 24.6 12.1 25.1 Z M 18.1 25.1 C 18.1 24.4 18.3 23.8 18.7 23.4 C 19 23.1 19.5 23 20 23 C 20.6 23 21 23.2 21.4 23.5 C 21.8 23.9 21.9 24.4 21.9 25.1 C 21.9 25.6 21.9 26 21.7 26.3 C 21.5 26.6 21.3 26.9 21 27 C 20.7 27.2 20.4 27.3 20 27.3 C 19.4 27.3 18.9 27.1 18.6 26.7 C 18.2 26.4 18.1 25.8 18.1 25.1 Z M 18.8 25.1 C 18.8 25.7 18.9 26.1 19.1 26.3 C 19.4 26.6 19.6 26.7 20 26.7 C 20.3 26.7 20.6 26.6 20.9 26.3 C 21.1 26.1 21.2 25.7 21.2 25.1 C 21.2 24.6 21.1 24.2 20.9 23.9 C 20.6 23.7 20.3 23.5 20 23.5 C 19.6 23.5 19.4 23.7 19.1 23.9 C 18.9 24.2 18.8 24.6 18.8 25.1 Z M 25.5 27.2 C 25.5 27.2 25.48 26.6 25.5 26.6 C 25.2 27.1 24.7 27.3 24.2 27.3 C 23.9 27.3 23.7 27.3 23.5 27.2 C 23.3 27.1 23.1 26.9 23 26.8 C 22.9 26.7 22.8 26.5 22.8 26.3 C 22.8 26.1 22.7 25.9 22.7 25.6 C 22.75 25.63 22.7 23.1 22.7 23.1 L 23.4 23.1 C 23.4 23.1 23.45 25.36 23.4 25.4 C 23.4 25.7 23.5 26 23.5 26.1 C 23.5 26.3 23.6 26.4 23.8 26.5 C 23.9 26.6 24.1 26.7 24.3 26.7 C 24.5 26.7 24.7 26.6 24.9 26.5 C 25.1 26.4 25.2 26.3 25.3 26.1 C 25.4 25.9 25.4 25.6 25.4 25.3 C 25.41 25.28 25.4 23.1 25.4 23.1 L 26.1 23.1 L 26.1 27.2 L 25.5 27.2 Z M 28.4 26.6 C 28.5 26.6 28.6 26.6 28.7 26.6 C 28.7 26.6 28.8 27.2 28.8 27.2 C 28.6 27.2 28.5 27.3 28.3 27.3 C 28.1 27.3 27.9 27.2 27.7 27.1 C 27.6 27.1 27.5 27 27.4 26.8 C 27.4 26.7 27.3 26.4 27.3 26 C 27.34 25.99 27.3 23.6 27.3 23.6 L 26.8 23.6 L 26.8 23.1 L 27.3 23.1 L 27.3 22 L 28 21.6 L 28 23.1 L 28.7 23.1 L 28.7 23.6 L 28 23.6 C 28 23.6 28.04 26.03 28 26 C 28 26.2 28.1 26.4 28.1 26.4 C 28.1 26.5 28.1 26.5 28.2 26.6 C 28.3 26.6 28.3 26.6 28.4 26.6 C 28.4 26.6 28.4 26.6 28.4 26.6 Z M 34.5 27.2 C 34.4 27.1 34.4 26.9 34.4 26.7 C 34.1 26.9 33.9 27.1 33.6 27.2 C 33.4 27.3 33.1 27.3 32.8 27.3 C 32.4 27.3 32 27.2 31.8 27 C 31.5 26.7 31.4 26.5 31.4 26.1 C 31.4 25.9 31.5 25.7 31.6 25.6 C 31.6 25.4 31.8 25.3 31.9 25.2 C 32.1 25 32.2 25 32.4 24.9 C 32.6 24.9 32.8 24.8 33.1 24.8 C 33.6 24.7 34 24.7 34.3 24.6 C 34.3 24.5 34.3 24.4 34.3 24.4 C 34.3 24.1 34.2 23.9 34.1 23.8 C 33.9 23.6 33.7 23.5 33.3 23.5 C 33 23.5 32.7 23.6 32.6 23.7 C 32.4 23.8 32.3 24 32.2 24.3 C 32.2 24.3 31.5 24.2 31.5 24.2 C 31.6 23.9 31.7 23.7 31.8 23.5 C 32 23.3 32.2 23.2 32.5 23.1 C 32.7 23 33.1 23 33.4 23 C 33.8 23 34.1 23 34.3 23.1 C 34.5 23.2 34.7 23.3 34.8 23.4 C 34.9 23.5 34.9 23.7 35 23.9 C 35 24 35 24.2 35 24.5 C 35 24.5 35 25.5 35 25.5 C 35 26.1 35 26.5 35.1 26.7 C 35.1 26.9 35.1 27 35.2 27.2 C 35.24 27.21 34.5 27.2 34.5 27.2 C 34.5 27.2 34.5 27.21 34.5 27.2 Z M 34.3 25.1 C 34 25.2 33.7 25.3 33.2 25.4 C 32.9 25.4 32.7 25.5 32.5 25.5 C 32.4 25.6 32.3 25.7 32.3 25.8 C 32.2 25.9 32.2 26 32.2 26.1 C 32.2 26.3 32.2 26.4 32.4 26.6 C 32.5 26.7 32.7 26.7 33 26.7 C 33.3 26.7 33.5 26.7 33.7 26.6 C 33.9 26.5 34.1 26.3 34.2 26.1 C 34.3 25.9 34.3 25.7 34.3 25.4 C 34.3 25.4 34.3 25.1 34.3 25.1 Z M 36.8 27.2 L 36.1 27.2 L 36.1 21.5 L 36.8 21.5 C 36.8 21.5 36.8 23.52 36.8 23.5 C 37.1 23.1 37.5 23 37.9 23 C 38.2 23 38.4 23 38.7 23.1 C 38.9 23.2 39.1 23.4 39.2 23.6 C 39.4 23.7 39.5 24 39.6 24.2 C 39.7 24.5 39.7 24.8 39.7 25.1 C 39.7 25.8 39.5 26.3 39.2 26.7 C 38.8 27.1 38.4 27.3 37.9 27.3 C 37.4 27.3 37 27.1 36.8 26.7 C 36.75 26.69 36.8 27.2 36.8 27.2 Z M 36.7 25.1 C 36.7 25.6 36.8 26 36.9 26.2 C 37.2 26.5 37.5 26.7 37.8 26.7 C 38.2 26.7 38.4 26.6 38.6 26.3 C 38.9 26.1 39 25.7 39 25.1 C 39 24.6 38.9 24.2 38.7 23.9 C 38.4 23.7 38.2 23.5 37.9 23.5 C 37.6 23.5 37.3 23.7 37.1 23.9 C 36.9 24.2 36.7 24.6 36.7 25.1 Z M 40.3 25.1 C 40.3 24.4 40.5 23.8 40.9 23.4 C 41.3 23.1 41.7 23 42.2 23 C 42.8 23 43.3 23.2 43.6 23.5 C 44 23.9 44.2 24.4 44.2 25.1 C 44.2 25.6 44.1 26 43.9 26.3 C 43.8 26.6 43.5 26.9 43.2 27 C 42.9 27.2 42.6 27.3 42.2 27.3 C 41.7 27.3 41.2 27.1 40.8 26.7 C 40.5 26.4 40.3 25.8 40.3 25.1 Z M 41 25.1 C 41 25.7 41.1 26.1 41.4 26.3 C 41.6 26.6 41.9 26.7 42.2 26.7 C 42.6 26.7 42.9 26.6 43.1 26.3 C 43.3 26.1 43.5 25.7 43.5 25.1 C 43.5 24.6 43.3 24.2 43.1 23.9 C 42.9 23.7 42.6 23.5 42.2 23.5 C 41.9 23.5 41.6 23.7 41.4 23.9 C 41.1 24.2 41 24.6 41 25.1 Z M 47.7 27.2 C 47.7 27.2 47.72 26.6 47.7 26.6 C 47.4 27.1 47 27.3 46.4 27.3 C 46.2 27.3 45.9 27.3 45.7 27.2 C 45.5 27.1 45.4 26.9 45.2 26.8 C 45.1 26.7 45.1 26.5 45 26.3 C 45 26.1 45 25.9 45 25.6 C 44.99 25.63 45 23.1 45 23.1 L 45.7 23.1 C 45.7 23.1 45.69 25.36 45.7 25.4 C 45.7 25.7 45.7 26 45.7 26.1 C 45.8 26.3 45.9 26.4 46 26.5 C 46.2 26.6 46.3 26.7 46.5 26.7 C 46.8 26.7 47 26.6 47.1 26.5 C 47.3 26.4 47.5 26.3 47.5 26.1 C 47.6 25.9 47.6 25.6 47.6 25.3 C 47.65 25.28 47.6 23.1 47.6 23.1 L 48.4 23.1 L 48.4 27.2 L 47.7 27.2 Z M 50.7 26.6 C 50.8 26.6 50.9 26.6 51 26.6 C 51 26.6 51.1 27.2 51.1 27.2 C 50.9 27.2 50.7 27.3 50.6 27.3 C 50.3 27.3 50.1 27.2 50 27.1 C 49.8 27.1 49.7 27 49.7 26.8 C 49.6 26.7 49.6 26.4 49.6 26 C 49.58 25.99 49.6 23.6 49.6 23.6 L 49.1 23.6 L 49.1 23.1 L 49.6 23.1 L 49.6 22 L 50.3 21.6 L 50.3 23.1 L 51 23.1 L 51 23.6 L 50.3 23.6 C 50.3 23.6 50.28 26.03 50.3 26 C 50.3 26.2 50.3 26.4 50.3 26.4 C 50.3 26.5 50.4 26.5 50.4 26.6 C 50.5 26.6 50.6 26.6 50.7 26.6 C 50.7 26.6 50.7 26.6 50.7 26.6 Z M 53.6 25.1 C 53.6 24.4 53.9 23.8 54.3 23.4 C 54.6 23.1 55.1 23 55.6 23 C 56.2 23 56.6 23.2 57 23.5 C 57.3 23.9 57.5 24.4 57.5 25.1 C 57.5 25.6 57.4 26 57.3 26.3 C 57.1 26.6 56.9 26.9 56.6 27 C 56.3 27.2 55.9 27.3 55.6 27.3 C 55 27.3 54.5 27.1 54.2 26.7 C 53.8 26.4 53.6 25.8 53.6 25.1 Z M 54.4 25.1 C 54.4 25.7 54.5 26.1 54.7 26.3 C 54.9 26.6 55.2 26.7 55.6 26.7 C 55.9 26.7 56.2 26.6 56.5 26.3 C 56.7 26.1 56.8 25.7 56.8 25.1 C 56.8 24.6 56.7 24.2 56.5 23.9 C 56.2 23.7 55.9 23.5 55.6 23.5 C 55.2 23.5 54.9 23.7 54.7 23.9 C 54.5 24.2 54.4 24.6 54.4 25.1 Z M 61.1 27.2 C 61.1 27.2 61.07 26.6 61.1 26.6 C 60.7 27.1 60.3 27.3 59.8 27.3 C 59.5 27.3 59.3 27.3 59.1 27.2 C 58.9 27.1 58.7 26.9 58.6 26.8 C 58.5 26.7 58.4 26.5 58.4 26.3 C 58.3 26.1 58.3 25.9 58.3 25.6 C 58.33 25.63 58.3 23.1 58.3 23.1 L 59 23.1 C 59 23.1 59.04 25.36 59 25.4 C 59 25.7 59 26 59.1 26.1 C 59.1 26.3 59.2 26.4 59.4 26.5 C 59.5 26.6 59.7 26.7 59.9 26.7 C 60.1 26.7 60.3 26.6 60.5 26.5 C 60.7 26.4 60.8 26.3 60.9 26.1 C 61 25.9 61 25.6 61 25.3 C 60.99 25.28 61 23.1 61 23.1 L 61.7 23.1 L 61.7 27.2 L 61.1 27.2 Z M 62.8 27.2 L 62.8 23.1 L 63.4 23.1 C 63.4 23.1 63.42 23.69 63.4 23.7 C 63.6 23.4 63.7 23.2 63.9 23.1 C 64 23 64.2 23 64.3 23 C 64.6 23 64.8 23 65 23.2 C 65 23.2 64.8 23.8 64.8 23.8 C 64.6 23.7 64.5 23.7 64.3 23.7 C 64.1 23.7 64 23.7 63.9 23.8 C 63.7 23.9 63.7 24 63.6 24.2 C 63.5 24.5 63.5 24.7 63.5 25 C 63.49 25.03 63.5 27.2 63.5 27.2 L 62.8 27.2 Z M 67.4 26 C 67.4 26 68.1 25.9 68.1 25.9 C 68.1 26.1 68.2 26.4 68.4 26.5 C 68.6 26.6 68.9 26.7 69.2 26.7 C 69.5 26.7 69.7 26.7 69.9 26.5 C 70 26.4 70.1 26.2 70.1 26.1 C 70.1 25.9 70.1 25.8 69.9 25.7 C 69.8 25.6 69.6 25.5 69.2 25.4 C 68.7 25.3 68.3 25.2 68.1 25.1 C 67.9 25 67.8 24.9 67.7 24.7 C 67.6 24.5 67.5 24.4 67.5 24.2 C 67.5 24 67.6 23.8 67.6 23.6 C 67.7 23.5 67.8 23.4 68 23.3 C 68.1 23.2 68.3 23.1 68.4 23 C 68.6 23 68.8 23 69 23 C 69.4 23 69.7 23 69.9 23.1 C 70.2 23.2 70.3 23.3 70.4 23.5 C 70.6 23.6 70.6 23.9 70.7 24.1 C 70.7 24.1 70 24.2 70 24.2 C 70 24 69.9 23.8 69.7 23.7 C 69.6 23.6 69.4 23.5 69.1 23.5 C 68.8 23.5 68.5 23.6 68.4 23.7 C 68.3 23.8 68.2 23.9 68.2 24.1 C 68.2 24.2 68.2 24.3 68.3 24.3 C 68.3 24.4 68.4 24.5 68.6 24.5 C 68.6 24.5 68.8 24.6 69.2 24.7 C 69.7 24.8 70 24.9 70.2 25 C 70.4 25.1 70.6 25.2 70.7 25.4 C 70.8 25.5 70.8 25.7 70.8 26 C 70.8 26.2 70.8 26.4 70.6 26.6 C 70.5 26.9 70.3 27 70.1 27.1 C 69.8 27.2 69.5 27.3 69.2 27.3 C 68.6 27.3 68.2 27.2 67.9 27 C 67.7 26.7 67.5 26.4 67.4 26 Z M 74.5 25.9 C 74.5 25.9 75.3 26 75.3 26 C 75.1 26.4 74.9 26.7 74.6 26.9 C 74.3 27.2 73.9 27.3 73.4 27.3 C 72.8 27.3 72.3 27.1 72 26.7 C 71.6 26.4 71.4 25.8 71.4 25.2 C 71.4 24.5 71.6 23.9 72 23.5 C 72.3 23.2 72.8 23 73.4 23 C 73.9 23 74.4 23.2 74.7 23.5 C 75.1 23.9 75.3 24.4 75.3 25.1 C 75.3 25.2 75.3 25.2 75.3 25.3 C 75.3 25.3 72.2 25.3 72.2 25.3 C 72.2 25.8 72.3 26.1 72.6 26.4 C 72.8 26.6 73.1 26.7 73.4 26.7 C 73.7 26.7 73.9 26.7 74.1 26.5 C 74.3 26.4 74.4 26.2 74.5 25.9 Z M 72.2 24.7 C 72.2 24.7 74.5 24.7 74.5 24.7 C 74.5 24.4 74.4 24.1 74.3 23.9 C 74 23.7 73.8 23.5 73.4 23.5 C 73.1 23.5 72.8 23.6 72.6 23.9 C 72.4 24.1 72.2 24.4 72.2 24.7 Z M 76.1 27.2 L 76.1 23.1 L 76.8 23.1 C 76.8 23.1 76.76 23.69 76.8 23.7 C 76.9 23.4 77.1 23.2 77.2 23.1 C 77.3 23 77.5 23 77.7 23 C 77.9 23 78.1 23 78.4 23.2 C 78.4 23.2 78.1 23.8 78.1 23.8 C 78 23.7 77.8 23.7 77.6 23.7 C 77.5 23.7 77.3 23.7 77.2 23.8 C 77.1 23.9 77 24 76.9 24.2 C 76.9 24.5 76.8 24.7 76.8 25 C 76.83 25.03 76.8 27.2 76.8 27.2 L 76.1 27.2 Z M 79.9 27.2 L 78.4 23.1 L 79.1 23.1 C 79.1 23.1 80 25.54 80 25.5 C 80.1 25.8 80.2 26.1 80.3 26.4 C 80.3 26.2 80.4 25.9 80.5 25.6 C 80.53 25.59 81.5 23.1 81.5 23.1 L 82.2 23.1 L 80.6 27.2 L 79.9 27.2 Z M 82.8 22.3 L 82.8 21.5 L 83.5 21.5 L 83.5 22.3 L 82.8 22.3 Z M 82.8 27.2 L 82.8 23.1 L 83.5 23.1 L 83.5 27.2 L 82.8 27.2 Z M 87.3 25.7 C 87.3 25.7 88 25.8 88 25.8 C 87.9 26.3 87.7 26.6 87.4 26.9 C 87.1 27.2 86.7 27.3 86.2 27.3 C 85.7 27.3 85.2 27.1 84.9 26.7 C 84.5 26.4 84.4 25.8 84.4 25.1 C 84.4 24.7 84.4 24.3 84.6 24 C 84.7 23.6 85 23.4 85.3 23.2 C 85.6 23 85.9 23 86.3 23 C 86.7 23 87.1 23.1 87.4 23.3 C 87.6 23.5 87.8 23.9 87.9 24.3 C 87.9 24.3 87.2 24.4 87.2 24.4 C 87.2 24.1 87 23.9 86.9 23.8 C 86.7 23.6 86.5 23.5 86.3 23.5 C 85.9 23.5 85.6 23.7 85.4 23.9 C 85.2 24.2 85.1 24.6 85.1 25.1 C 85.1 25.7 85.2 26.1 85.4 26.3 C 85.6 26.6 85.9 26.7 86.2 26.7 C 86.5 26.7 86.7 26.6 86.9 26.5 C 87.1 26.3 87.2 26 87.3 25.7 Z M 91.4 25.9 C 91.4 25.9 92.1 26 92.1 26 C 92 26.4 91.8 26.7 91.5 26.9 C 91.2 27.2 90.8 27.3 90.3 27.3 C 89.7 27.3 89.2 27.1 88.9 26.7 C 88.5 26.4 88.3 25.8 88.3 25.2 C 88.3 24.5 88.5 23.9 88.9 23.5 C 89.2 23.2 89.7 23 90.3 23 C 90.8 23 91.3 23.2 91.6 23.5 C 92 23.9 92.2 24.4 92.2 25.1 C 92.2 25.2 92.2 25.2 92.2 25.3 C 92.2 25.3 89.1 25.3 89.1 25.3 C 89.1 25.8 89.2 26.1 89.5 26.4 C 89.7 26.6 90 26.7 90.3 26.7 C 90.6 26.7 90.8 26.7 91 26.5 C 91.2 26.4 91.3 26.2 91.4 25.9 Z M 89.1 24.7 C 89.1 24.7 91.4 24.7 91.4 24.7 C 91.4 24.4 91.3 24.1 91.2 23.9 C 90.9 23.7 90.6 23.5 90.3 23.5 C 90 23.5 89.7 23.6 89.5 23.9 C 89.3 24.1 89.1 24.4 89.1 24.7 Z M 92.7 26 C 92.7 26 93.4 25.9 93.4 25.9 C 93.5 26.1 93.6 26.4 93.8 26.5 C 93.9 26.6 94.2 26.7 94.5 26.7 C 94.8 26.7 95.1 26.7 95.2 26.5 C 95.4 26.4 95.5 26.2 95.5 26.1 C 95.5 25.9 95.4 25.8 95.3 25.7 C 95.2 25.6 94.9 25.5 94.5 25.4 C 94 25.3 93.7 25.2 93.5 25.1 C 93.3 25 93.1 24.9 93 24.7 C 92.9 24.5 92.9 24.4 92.9 24.2 C 92.9 24 92.9 23.8 93 23.6 C 93.1 23.5 93.2 23.4 93.3 23.3 C 93.4 23.2 93.6 23.1 93.8 23 C 94 23 94.2 23 94.4 23 C 94.7 23 95 23 95.2 23.1 C 95.5 23.2 95.7 23.3 95.8 23.5 C 95.9 23.6 96 23.9 96 24.1 C 96 24.1 95.3 24.2 95.3 24.2 C 95.3 24 95.2 23.8 95.1 23.7 C 94.9 23.6 94.7 23.5 94.4 23.5 C 94.1 23.5 93.9 23.6 93.7 23.7 C 93.6 23.8 93.5 23.9 93.5 24.1 C 93.5 24.2 93.6 24.3 93.6 24.3 C 93.7 24.4 93.8 24.5 93.9 24.5 C 94 24.5 94.2 24.6 94.5 24.7 C 95 24.8 95.4 24.9 95.6 25 C 95.8 25.1 95.9 25.2 96 25.4 C 96.1 25.5 96.2 25.7 96.2 26 C 96.2 26.2 96.1 26.4 96 26.6 C 95.8 26.9 95.6 27 95.4 27.1 C 95.1 27.2 94.8 27.3 94.5 27.3 C 94 27.3 93.6 27.2 93.3 27 C 93 26.7 92.8 26.4 92.7 26 Z M 97.2 27.2 L 97.2 26.4 L 98 26.4 C 98 26.4 98.01 27.21 98 27.2 C 98 27.5 98 27.7 97.9 27.9 C 97.7 28.1 97.6 28.2 97.4 28.3 C 97.4 28.3 97.2 28 97.2 28 C 97.3 28 97.4 27.9 97.5 27.8 C 97.6 27.6 97.6 27.4 97.6 27.2 C 97.61 27.21 97.2 27.2 97.2 27.2 Z M 102.7 26.6 C 102.8 26.6 102.9 26.6 103 26.6 C 103 26.6 103.1 27.2 103.1 27.2 C 102.9 27.2 102.7 27.3 102.6 27.3 C 102.3 27.3 102.1 27.2 102 27.1 C 101.8 27.1 101.7 27 101.7 26.8 C 101.6 26.7 101.6 26.4 101.6 26 C 101.6 25.99 101.6 23.6 101.6 23.6 L 101.1 23.6 L 101.1 23.1 L 101.6 23.1 L 101.6 22 L 102.3 21.6 L 102.3 23.1 L 103 23.1 L 103 23.6 L 102.3 23.6 C 102.3 23.6 102.3 26.03 102.3 26 C 102.3 26.2 102.3 26.4 102.3 26.4 C 102.4 26.5 102.4 26.5 102.5 26.6 C 102.5 26.6 102.6 26.6 102.7 26.6 C 102.7 26.6 102.7 26.6 102.7 26.6 Z M 106.5 25.9 C 106.5 25.9 107.3 26 107.3 26 C 107.1 26.4 106.9 26.7 106.6 26.9 C 106.3 27.2 105.9 27.3 105.4 27.3 C 104.8 27.3 104.3 27.1 104 26.7 C 103.6 26.4 103.5 25.8 103.5 25.2 C 103.5 24.5 103.6 23.9 104 23.5 C 104.4 23.2 104.8 23 105.4 23 C 105.9 23 106.4 23.2 106.8 23.5 C 107.1 23.9 107.3 24.4 107.3 25.1 C 107.3 25.2 107.3 25.2 107.3 25.3 C 107.3 25.3 104.2 25.3 104.2 25.3 C 104.2 25.8 104.3 26.1 104.6 26.4 C 104.8 26.6 105.1 26.7 105.4 26.7 C 105.7 26.7 105.9 26.7 106.1 26.5 C 106.3 26.4 106.4 26.2 106.5 25.9 Z M 104.2 24.7 C 104.2 24.7 106.5 24.7 106.5 24.7 C 106.5 24.4 106.4 24.1 106.3 23.9 C 106 23.7 105.8 23.5 105.4 23.5 C 105.1 23.5 104.8 23.6 104.6 23.9 C 104.4 24.1 104.2 24.4 104.2 24.7 Z M 108.1 27.2 L 108.1 23.1 L 108.8 23.1 C 108.8 23.1 108.77 23.65 108.8 23.6 C 109.1 23.2 109.5 23 110.1 23 C 110.3 23 110.6 23 110.8 23.1 C 111 23.2 111.1 23.3 111.3 23.5 C 111.4 23.6 111.4 23.8 111.5 24 C 111.5 24.1 111.5 24.3 111.5 24.7 C 111.51 24.66 111.5 27.2 111.5 27.2 L 110.8 27.2 C 110.8 27.2 110.81 24.68 110.8 24.7 C 110.8 24.4 110.8 24.2 110.7 24 C 110.7 23.9 110.6 23.8 110.4 23.7 C 110.3 23.6 110.1 23.6 109.9 23.6 C 109.6 23.6 109.4 23.7 109.2 23.9 C 109 24 108.8 24.4 108.8 24.9 C 108.84 24.94 108.8 27.2 108.8 27.2 L 108.1 27.2 Z M 115.4 25.9 C 115.4 25.9 116.2 26 116.2 26 C 116 26.4 115.8 26.7 115.5 26.9 C 115.2 27.2 114.8 27.3 114.3 27.3 C 113.7 27.3 113.2 27.1 112.9 26.7 C 112.5 26.4 112.4 25.8 112.4 25.2 C 112.4 24.5 112.5 23.9 112.9 23.5 C 113.3 23.2 113.7 23 114.3 23 C 114.8 23 115.3 23.2 115.7 23.5 C 116 23.9 116.2 24.4 116.2 25.1 C 116.2 25.2 116.2 25.2 116.2 25.3 C 116.2 25.3 113.1 25.3 113.1 25.3 C 113.1 25.8 113.2 26.1 113.5 26.4 C 113.7 26.6 114 26.7 114.3 26.7 C 114.6 26.7 114.8 26.7 115 26.5 C 115.2 26.4 115.3 26.2 115.4 25.9 Z M 113.1 24.7 C 113.1 24.7 115.4 24.7 115.4 24.7 C 115.4 24.4 115.3 24.1 115.2 23.9 C 114.9 23.7 114.7 23.5 114.3 23.5 C 114 23.5 113.7 23.6 113.5 23.9 C 113.3 24.1 113.1 24.4 113.1 24.7 Z M 118.3 26.6 C 118.3 26.6 118.4 26.6 118.6 26.6 C 118.6 26.6 118.7 27.2 118.7 27.2 C 118.5 27.2 118.3 27.3 118.1 27.3 C 117.9 27.3 117.7 27.2 117.6 27.1 C 117.4 27.1 117.3 27 117.3 26.8 C 117.2 26.7 117.2 26.4 117.2 26 C 117.17 25.99 117.2 23.6 117.2 23.6 L 116.7 23.6 L 116.7 23.1 L 117.2 23.1 L 117.2 22 L 117.9 21.6 L 117.9 23.1 L 118.6 23.1 L 118.6 23.6 L 117.9 23.6 C 117.9 23.6 117.87 26.03 117.9 26 C 117.9 26.2 117.9 26.4 117.9 26.4 C 117.9 26.5 118 26.5 118 26.6 C 118.1 26.6 118.2 26.6 118.3 26.6 C 118.3 26.6 118.3 26.6 118.3 26.6 Z M 119 26 C 119 26 119.7 25.9 119.7 25.9 C 119.7 26.1 119.8 26.4 120 26.5 C 120.2 26.6 120.4 26.7 120.8 26.7 C 121.1 26.7 121.3 26.7 121.5 26.5 C 121.6 26.4 121.7 26.2 121.7 26.1 C 121.7 25.9 121.6 25.8 121.5 25.7 C 121.4 25.6 121.2 25.5 120.8 25.4 C 120.3 25.3 119.9 25.2 119.7 25.1 C 119.5 25 119.4 24.9 119.3 24.7 C 119.1 24.5 119.1 24.4 119.1 24.2 C 119.1 24 119.1 23.8 119.2 23.6 C 119.3 23.5 119.4 23.4 119.6 23.3 C 119.7 23.2 119.8 23.1 120 23 C 120.2 23 120.4 23 120.6 23 C 121 23 121.2 23 121.5 23.1 C 121.7 23.2 121.9 23.3 122 23.5 C 122.1 23.6 122.2 23.9 122.3 24.1 C 122.3 24.1 121.6 24.2 121.6 24.2 C 121.6 24 121.5 23.8 121.3 23.7 C 121.2 23.6 120.9 23.5 120.7 23.5 C 120.4 23.5 120.1 23.6 120 23.7 C 119.8 23.8 119.8 23.9 119.8 24.1 C 119.8 24.2 119.8 24.3 119.9 24.3 C 119.9 24.4 120 24.5 120.1 24.5 C 120.2 24.5 120.4 24.6 120.8 24.7 C 121.3 24.8 121.6 24.9 121.8 25 C 122 25.1 122.1 25.2 122.3 25.4 C 122.4 25.5 122.4 25.7 122.4 26 C 122.4 26.2 122.4 26.4 122.2 26.6 C 122.1 26.9 121.9 27 121.6 27.1 C 121.4 27.2 121.1 27.3 120.8 27.3 C 120.2 27.3 119.8 27.2 119.5 27 C 119.2 26.7 119.1 26.4 119 26 Z M 128.3 27.2 C 128.3 27.1 128.2 26.9 128.2 26.7 C 127.9 26.9 127.7 27.1 127.4 27.2 C 127.2 27.3 126.9 27.3 126.7 27.3 C 126.2 27.3 125.9 27.2 125.6 27 C 125.4 26.7 125.2 26.5 125.2 26.1 C 125.2 25.9 125.3 25.7 125.4 25.6 C 125.5 25.4 125.6 25.3 125.7 25.2 C 125.9 25 126.1 25 126.3 24.9 C 126.4 24.9 126.6 24.8 126.9 24.8 C 127.4 24.7 127.9 24.7 128.1 24.6 C 128.1 24.5 128.1 24.4 128.1 24.4 C 128.1 24.1 128.1 23.9 127.9 23.8 C 127.8 23.6 127.5 23.5 127.1 23.5 C 126.8 23.5 126.6 23.6 126.4 23.7 C 126.2 23.8 126.1 24 126.1 24.3 C 126.1 24.3 125.4 24.2 125.4 24.2 C 125.4 23.9 125.5 23.7 125.7 23.5 C 125.8 23.3 126 23.2 126.3 23.1 C 126.6 23 126.9 23 127.2 23 C 127.6 23 127.9 23 128.1 23.1 C 128.3 23.2 128.5 23.3 128.6 23.4 C 128.7 23.5 128.8 23.7 128.8 23.9 C 128.8 24 128.8 24.2 128.8 24.5 C 128.8 24.5 128.8 25.5 128.8 25.5 C 128.8 26.1 128.9 26.5 128.9 26.7 C 128.9 26.9 129 27 129.1 27.2 C 129.07 27.21 128.3 27.2 128.3 27.2 C 128.3 27.2 128.33 27.21 128.3 27.2 Z M 128.1 25.1 C 127.9 25.2 127.5 25.3 127 25.4 C 126.7 25.4 126.5 25.5 126.4 25.5 C 126.3 25.6 126.2 25.7 126.1 25.8 C 126 25.9 126 26 126 26.1 C 126 26.3 126.1 26.4 126.2 26.6 C 126.4 26.7 126.6 26.7 126.8 26.7 C 127.1 26.7 127.3 26.7 127.6 26.6 C 127.8 26.5 127.9 26.3 128 26.1 C 128.1 25.9 128.1 25.7 128.1 25.4 C 128.1 25.4 128.1 25.1 128.1 25.1 Z M 129.9 27.2 L 129.9 23.1 L 130.6 23.1 C 130.6 23.1 130.57 23.65 130.6 23.6 C 130.9 23.2 131.3 23 131.9 23 C 132.1 23 132.4 23 132.6 23.1 C 132.8 23.2 132.9 23.3 133 23.5 C 133.2 23.6 133.2 23.8 133.3 24 C 133.3 24.1 133.3 24.3 133.3 24.7 C 133.3 24.66 133.3 27.2 133.3 27.2 L 132.6 27.2 C 132.6 27.2 132.6 24.68 132.6 24.7 C 132.6 24.4 132.6 24.2 132.5 24 C 132.5 23.9 132.4 23.8 132.2 23.7 C 132.1 23.6 131.9 23.6 131.7 23.6 C 131.4 23.6 131.2 23.7 131 23.9 C 130.7 24 130.6 24.4 130.6 24.9 C 130.64 24.94 130.6 27.2 130.6 27.2 L 129.9 27.2 Z M 137.1 27.2 C 137.1 27.2 137.07 26.68 137.1 26.7 C 136.8 27.1 136.4 27.3 135.9 27.3 C 135.6 27.3 135.3 27.2 135 27 C 134.7 26.8 134.5 26.6 134.4 26.3 C 134.2 25.9 134.1 25.6 134.1 25.1 C 134.1 24.7 134.2 24.3 134.3 24 C 134.5 23.7 134.7 23.4 135 23.2 C 135.2 23.1 135.5 23 135.9 23 C 136.1 23 136.4 23 136.6 23.1 C 136.7 23.2 136.9 23.4 137 23.5 C 137.03 23.53 137 21.5 137 21.5 L 137.7 21.5 L 137.7 27.2 L 137.1 27.2 Z M 134.9 25.1 C 134.9 25.7 135 26.1 135.2 26.3 C 135.4 26.6 135.7 26.7 136 26.7 C 136.3 26.7 136.5 26.6 136.8 26.3 C 137 26.1 137.1 25.7 137.1 25.2 C 137.1 24.6 137 24.2 136.8 23.9 C 136.5 23.7 136.3 23.5 135.9 23.5 C 135.6 23.5 135.4 23.7 135.2 23.9 C 135 24.2 134.9 24.6 134.9 25.1 Z M 141.8 27.2 L 140.6 23.1 L 141.3 23.1 L 141.9 25.5 C 141.9 25.5 142.18 26.34 142.2 26.3 C 142.2 26.3 142.3 26 142.4 25.5 C 142.4 25.49 143.1 23.1 143.1 23.1 L 143.8 23.1 L 144.4 25.5 L 144.6 26.3 L 144.8 25.5 L 145.6 23.1 L 146.2 23.1 L 144.9 27.2 L 144.2 27.2 L 143.6 24.7 L 143.4 24 L 142.6 27.2 L 141.8 27.2 Z M 149.7 27.2 C 149.6 27.1 149.6 26.9 149.5 26.7 C 149.3 26.9 149 27.1 148.8 27.2 C 148.5 27.3 148.3 27.3 148 27.3 C 147.6 27.3 147.2 27.2 147 27 C 146.7 26.7 146.6 26.5 146.6 26.1 C 146.6 25.9 146.6 25.7 146.7 25.6 C 146.8 25.4 146.9 25.3 147.1 25.2 C 147.2 25 147.4 25 147.6 24.9 C 147.7 24.9 147.9 24.8 148.2 24.8 C 148.8 24.7 149.2 24.7 149.5 24.6 C 149.5 24.5 149.5 24.4 149.5 24.4 C 149.5 24.1 149.4 23.9 149.3 23.8 C 149.1 23.6 148.8 23.5 148.5 23.5 C 148.2 23.5 147.9 23.6 147.8 23.7 C 147.6 23.8 147.5 24 147.4 24.3 C 147.4 24.3 146.7 24.2 146.7 24.2 C 146.8 23.9 146.9 23.7 147 23.5 C 147.2 23.3 147.4 23.2 147.6 23.1 C 147.9 23 148.2 23 148.6 23 C 148.9 23 149.2 23 149.4 23.1 C 149.7 23.2 149.8 23.3 149.9 23.4 C 150 23.5 150.1 23.7 150.2 23.9 C 150.2 24 150.2 24.2 150.2 24.5 C 150.2 24.5 150.2 25.5 150.2 25.5 C 150.2 26.1 150.2 26.5 150.2 26.7 C 150.3 26.9 150.3 27 150.4 27.2 C 150.41 27.21 149.7 27.2 149.7 27.2 C 149.7 27.2 149.68 27.21 149.7 27.2 Z M 149.5 25.1 C 149.2 25.2 148.8 25.3 148.3 25.4 C 148 25.4 147.8 25.5 147.7 25.5 C 147.6 25.6 147.5 25.7 147.4 25.8 C 147.4 25.9 147.3 26 147.3 26.1 C 147.3 26.3 147.4 26.4 147.6 26.6 C 147.7 26.7 147.9 26.7 148.2 26.7 C 148.5 26.7 148.7 26.7 148.9 26.6 C 149.1 26.5 149.3 26.3 149.4 26.1 C 149.4 25.9 149.5 25.7 149.5 25.4 C 149.5 25.4 149.5 25.1 149.5 25.1 Z M 151.7 28.9 C 151.6 28.9 151.4 28.9 151.3 28.8 C 151.3 28.8 151.2 28.1 151.2 28.1 C 151.3 28.2 151.5 28.2 151.6 28.2 C 151.7 28.2 151.9 28.2 151.9 28.1 C 152 28.1 152.1 28 152.2 27.9 C 152.2 27.8 152.3 27.7 152.4 27.4 C 152.4 27.3 152.4 27.3 152.5 27.2 C 152.46 27.21 150.9 23.1 150.9 23.1 L 151.6 23.1 C 151.6 23.1 152.5 25.46 152.5 25.5 C 152.6 25.8 152.7 26.1 152.8 26.4 C 152.9 26.1 153 25.8 153.1 25.5 C 153.09 25.48 154 23.1 154 23.1 L 154.7 23.1 C 154.7 23.1 153.11 27.28 153.1 27.3 C 152.9 27.7 152.8 28 152.7 28.2 C 152.6 28.4 152.4 28.6 152.3 28.7 C 152.1 28.8 151.9 28.9 151.7 28.9 C 151.7 28.9 151.7 28.9 151.7 28.9 Z M 157.2 25.1 C 157.2 24.4 157.5 23.8 157.9 23.4 C 158.2 23.1 158.7 23 159.2 23 C 159.8 23 160.2 23.2 160.6 23.5 C 160.9 23.9 161.1 24.4 161.1 25.1 C 161.1 25.6 161 26 160.9 26.3 C 160.7 26.6 160.5 26.9 160.2 27 C 159.9 27.2 159.5 27.3 159.2 27.3 C 158.6 27.3 158.1 27.1 157.8 26.7 C 157.4 26.4 157.2 25.8 157.2 25.1 Z M 158 25.1 C 158 25.7 158.1 26.1 158.3 26.3 C 158.5 26.6 158.8 26.7 159.2 26.7 C 159.5 26.7 159.8 26.6 160.1 26.3 C 160.3 26.1 160.4 25.7 160.4 25.1 C 160.4 24.6 160.3 24.2 160.1 23.9 C 159.8 23.7 159.5 23.5 159.2 23.5 C 158.8 23.5 158.5 23.7 158.3 23.9 C 158.1 24.2 158 24.6 158 25.1 Z M 162.1 27.2 L 162.1 23.6 L 161.5 23.6 L 161.5 23.1 L 162.1 23.1 C 162.1 23.1 162.12 22.62 162.1 22.6 C 162.1 22.3 162.1 22.1 162.2 22 C 162.3 21.8 162.4 21.7 162.6 21.6 C 162.7 21.4 163 21.4 163.3 21.4 C 163.5 21.4 163.7 21.4 163.9 21.5 C 163.9 21.5 163.8 22.1 163.8 22.1 C 163.7 22 163.5 22 163.4 22 C 163.2 22 163 22.1 163 22.2 C 162.9 22.3 162.8 22.4 162.8 22.7 C 162.82 22.67 162.8 23.1 162.8 23.1 L 163.6 23.1 L 163.6 23.6 L 162.8 23.6 L 162.8 27.2 L 162.1 27.2 Z M 167.2 27.2 L 165.9 23.1 L 166.6 23.1 L 167.3 25.5 C 167.3 25.5 167.53 26.34 167.5 26.3 C 167.5 26.3 167.6 26 167.7 25.5 C 167.74 25.49 168.4 23.1 168.4 23.1 L 169.1 23.1 L 169.7 25.5 L 170 26.3 L 170.2 25.5 L 170.9 23.1 L 171.6 23.1 L 170.3 27.2 L 169.6 27.2 L 168.9 24.7 L 168.7 24 L 167.9 27.2 L 167.2 27.2 Z M 171.9 25.1 C 171.9 24.4 172.1 23.8 172.6 23.4 C 172.9 23.1 173.3 23 173.9 23 C 174.4 23 174.9 23.2 175.3 23.5 C 175.6 23.9 175.8 24.4 175.8 25.1 C 175.8 25.6 175.7 26 175.6 26.3 C 175.4 26.6 175.2 26.9 174.9 27 C 174.6 27.2 174.2 27.3 173.9 27.3 C 173.3 27.3 172.8 27.1 172.5 26.7 C 172.1 26.4 171.9 25.8 171.9 25.1 Z M 172.6 25.1 C 172.6 25.7 172.8 26.1 173 26.3 C 173.2 26.6 173.5 26.7 173.9 26.7 C 174.2 26.7 174.5 26.6 174.7 26.3 C 175 26.1 175.1 25.7 175.1 25.1 C 175.1 24.6 175 24.2 174.7 23.9 C 174.5 23.7 174.2 23.5 173.9 23.5 C 173.5 23.5 173.2 23.7 173 23.9 C 172.8 24.2 172.6 24.6 172.6 25.1 Z M 176.6 27.2 L 176.6 23.1 L 177.3 23.1 C 177.3 23.1 177.25 23.69 177.3 23.7 C 177.4 23.4 177.6 23.2 177.7 23.1 C 177.8 23 178 23 178.1 23 C 178.4 23 178.6 23 178.9 23.2 C 178.9 23.2 178.6 23.8 178.6 23.8 C 178.5 23.7 178.3 23.7 178.1 23.7 C 178 23.7 177.8 23.7 177.7 23.8 C 177.6 23.9 177.5 24 177.4 24.2 C 177.4 24.5 177.3 24.7 177.3 25 C 177.32 25.03 177.3 27.2 177.3 27.2 L 176.6 27.2 Z M 179.3 27.2 L 179.3 21.5 L 180 21.5 L 180 24.7 L 181.7 23.1 L 182.6 23.1 L 181 24.6 L 182.7 27.2 L 181.9 27.2 L 180.5 25.1 L 180 25.6 L 180 27.2 L 179.3 27.2 Z M 183.3 22.3 L 183.3 21.5 L 184 21.5 L 184 22.3 L 183.3 22.3 Z M 183.3 27.2 L 183.3 23.1 L 184 23.1 L 184 27.2 L 183.3 27.2 Z M 185.1 27.2 L 185.1 23.1 L 185.7 23.1 C 185.7 23.1 185.7 23.65 185.7 23.6 C 186 23.2 186.4 23 187 23 C 187.3 23 187.5 23 187.7 23.1 C 187.9 23.2 188.1 23.3 188.2 23.5 C 188.3 23.6 188.4 23.8 188.4 24 C 188.4 24.1 188.4 24.3 188.4 24.7 C 188.44 24.66 188.4 27.2 188.4 27.2 L 187.7 27.2 C 187.7 27.2 187.73 24.68 187.7 24.7 C 187.7 24.4 187.7 24.2 187.7 24 C 187.6 23.9 187.5 23.8 187.4 23.7 C 187.2 23.6 187.1 23.6 186.9 23.6 C 186.6 23.6 186.3 23.7 186.1 23.9 C 185.9 24 185.8 24.4 185.8 24.9 C 185.77 24.94 185.8 27.2 185.8 27.2 L 185.1 27.2 Z M 189.4 27.5 C 189.4 27.5 190.1 27.7 190.1 27.7 C 190.1 27.9 190.2 28 190.3 28.1 C 190.5 28.2 190.7 28.3 191 28.3 C 191.3 28.3 191.6 28.2 191.8 28.1 C 192 28 192.1 27.8 192.1 27.6 C 192.2 27.4 192.2 27.1 192.2 26.7 C 191.9 27 191.5 27.2 191 27.2 C 190.5 27.2 190 27 189.7 26.6 C 189.4 26.2 189.2 25.7 189.2 25.1 C 189.2 24.7 189.3 24.3 189.5 24 C 189.6 23.7 189.8 23.4 190.1 23.2 C 190.4 23.1 190.7 23 191 23 C 191.5 23 191.9 23.2 192.3 23.6 C 192.25 23.56 192.3 23.1 192.3 23.1 L 192.9 23.1 C 192.9 23.1 192.9 26.64 192.9 26.6 C 192.9 27.3 192.8 27.7 192.7 28 C 192.6 28.3 192.4 28.5 192.1 28.7 C 191.8 28.8 191.4 28.9 191 28.9 C 190.5 28.9 190.1 28.8 189.8 28.6 C 189.5 28.3 189.4 28 189.4 27.5 Z M 190 25.1 C 190 25.6 190.1 26 190.3 26.2 C 190.5 26.5 190.8 26.6 191.1 26.6 C 191.4 26.6 191.7 26.5 191.9 26.3 C 192.1 26 192.2 25.6 192.2 25.1 C 192.2 24.6 192.1 24.2 191.9 23.9 C 191.7 23.7 191.4 23.5 191.1 23.5 C 190.8 23.5 190.5 23.7 190.3 23.9 C 190.1 24.2 190 24.6 190 25.1 Z M 194.2 27.2 L 194.2 26.4 L 195 26.4 L 195 27.2 L 194.2 27.2 Z " stroke="none" fill="#010102"/>  </g>  <g id="Polygon681">    <path d="M 4.2 2 L 7.8 10.2 L 6.9 10.2 L 5.8 7.6 L 2.1 7.6 L 0.9 10.2 L 0 10.2 L 3.6 2 L 4.2 2 Z M 2.4 6.8 L 5.4 6.8 L 3.9 3.4 L 2.4 6.8 Z M 10.9 2 C 12.4 2 13.4 2.8 13.4 4.1 C 13.4 5 12.9 5.6 12.1 5.9 C 13.3 6.1 14.1 6.9 14.1 8 C 14.1 9.5 12.8 10.2 11.3 10.2 C 11.28 10.21 8.8 10.2 8.8 10.2 L 8.8 2 C 8.8 2 10.9 2.02 10.9 2 Z M 9.7 5.7 C 9.7 5.7 10.57 5.66 10.6 5.7 C 11.9 5.7 12.5 5 12.5 4.2 C 12.5 3.2 11.9 2.8 10.7 2.8 C 10.72 2.81 9.7 2.8 9.7 2.8 L 9.7 5.7 Z M 11.1 9.4 C 12.4 9.4 13.2 9 13.2 7.9 C 13.2 7 12.5 6.4 11 6.4 C 10.98 6.44 9.7 6.4 9.7 6.4 L 9.7 9.4 C 9.7 9.4 11.11 9.41 11.1 9.4 Z M 23.6 6.1 C 23.6 8.4 21.9 10.3 19.2 10.3 C 16.7 10.3 15 8.4 15 6.2 C 15 3.9 16.6 1.9 19.2 1.9 C 21.9 1.9 23.6 3.8 23.6 6.1 Z M 15.9 6.1 C 15.9 8.1 17.4 9.5 19.2 9.5 C 21.7 9.5 22.7 7.6 22.7 6.1 C 22.7 4.4 21.4 2.8 19.3 2.8 C 17.1 2.8 15.9 4.5 15.9 6.1 Z M 25.9 2 C 25.9 2 25.86 6.74 25.9 6.7 C 25.9 8.5 26.7 9.5 28.4 9.5 C 30.1 9.5 30.9 8.5 30.9 6.7 C 30.92 6.74 30.9 2 30.9 2 L 31.8 2 C 31.8 2 31.82 6.74 31.8 6.7 C 31.8 8.9 30.7 10.3 28.4 10.3 C 26.2 10.3 25 9 25 6.7 C 24.96 6.74 25 2 25 2 L 25.9 2 Z M 39.5 2 L 39.5 2.8 L 36.6 2.8 L 36.6 10.2 L 35.7 10.2 L 35.7 2.8 L 32.8 2.8 L 32.8 2 L 39.5 2 Z " stroke="none" fill="#010102"/>  </g></svg>