<?xml version="1.0" standalone="no"?><!DOCTYPE svg PUBLIC "-//W3C//DTD SVG 1.1//EN" "http://www.w3.org/Graphics/SVG/1.1/DTD/svg11.dtd"><svg xmlns="http://www.w3.org/2000/svg" version="1.1" width="356.5px" height="25.3px" viewBox="0 -5 356.5 25.3" style="top:-5px">  <desc>AWARDING I LEARNING I MANAGED SERVICES</desc>  <defs/>  <g id="Polygon1790">    <path d="M 9.8 0.7 L 14.7 11.7 L 13.5 11.7 L 11.9 8.2 L 7 8.2 L 5.5 11.7 L 4.3 11.7 L 9 0.7 L 9.8 0.7 Z M 7.4 7.2 L 11.5 7.2 L 9.4 2.5 L 7.4 7.2 Z M 13.8 0.8 L 15.1 0.8 L 18.3 9.1 L 18.4 9.1 L 21.6 0.8 L 22.7 0.8 L 26 9 L 26 9 L 29.2 0.8 L 30.4 0.8 L 26.1 11.7 L 25.8 11.7 L 22.1 2.4 L 18.5 11.7 L 18.2 11.7 L 13.8 0.8 Z M 35.1 0.7 L 40 11.7 L 38.8 11.7 L 37.2 8.2 L 32.3 8.2 L 30.8 11.7 L 29.6 11.7 L 34.3 0.7 L 35.1 0.7 Z M 32.7 7.2 L 36.8 7.2 L 34.7 2.5 L 32.7 7.2 Z M 41.3 0.8 C 41.3 0.8 44.11 0.75 44.1 0.8 C 46.3 0.8 47.4 2 47.4 3.7 C 47.4 5 46.7 6 45.4 6.4 C 46.1 6.7 46.4 7 47.3 8.4 C 47.3 8.4 49.4 11.7 49.4 11.7 L 48 11.7 C 48 11.7 46.07 8.66 46.1 8.7 C 45.1 7.1 44.4 6.7 43.5 6.7 C 43.46 6.7 42.5 6.7 42.5 6.7 L 42.5 11.7 L 41.3 11.7 L 41.3 0.8 Z M 43.6 5.6 C 45.1 5.6 46.2 5.3 46.2 3.7 C 46.2 2.4 45.3 1.8 44 1.8 C 43.95 1.81 42.5 1.8 42.5 1.8 L 42.5 5.6 C 42.5 5.6 43.57 5.65 43.6 5.6 Z M 50.6 0.8 C 50.6 0.8 54.63 0.75 54.6 0.8 C 58.2 0.8 60.5 3 60.5 6.1 C 60.5 9.5 58.1 11.7 54.6 11.7 C 54.63 11.66 50.6 11.7 50.6 11.7 L 50.6 0.8 Z M 54.6 10.6 C 57.5 10.6 59.3 8.9 59.3 6.2 C 59.3 3.6 57.5 1.8 54.4 1.8 C 54.43 1.82 51.8 1.8 51.8 1.8 L 51.8 10.6 C 51.8 10.6 54.61 10.58 54.6 10.6 Z M 63.7 0.8 L 63.7 11.7 L 62.5 11.7 L 62.5 0.8 L 63.7 0.8 Z M 67.1 0.8 L 74.9 9.8 L 74.9 0.8 L 76 0.8 L 76 11.7 L 75 11.7 L 67.3 2.7 L 67.3 11.7 L 66.1 11.7 L 66.1 0.8 L 67.1 0.8 Z M 87.5 2.8 C 86.3 2 84.9 1.7 83.7 1.7 C 81.2 1.7 79.2 3.6 79.2 6.2 C 79.2 8.8 81.1 10.7 83.8 10.7 C 84.7 10.7 85.4 10.6 86.5 10.2 C 86.5 10.18 86.5 7.5 86.5 7.5 L 84.3 7.5 L 84.3 6.5 L 87.7 6.5 C 87.7 6.5 87.7 10.91 87.7 10.9 C 86.5 11.5 85.2 11.8 83.8 11.8 C 79.9 11.8 78 9.1 78 6.3 C 78 3.2 80.3 0.6 83.8 0.6 C 85 0.6 86 0.9 87.5 1.5 C 87.5 1.5 87.5 2.8 87.5 2.8 Z M 100.1 0.8 L 100.1 11.7 L 98.9 11.7 L 98.9 0.8 L 100.1 0.8 Z M 112.6 0.8 L 112.6 10.6 L 117.8 10.6 L 117.8 11.7 L 111.4 11.7 L 111.4 0.8 L 112.6 0.8 Z M 125.1 0.8 L 125.1 1.8 L 120.4 1.8 L 120.4 5.6 L 125 5.6 L 125 6.7 L 120.4 6.7 L 120.4 10.6 L 125.2 10.6 L 125.2 11.7 L 119.2 11.7 L 119.2 0.8 L 125.1 0.8 Z M 131.9 0.7 L 136.8 11.7 L 135.6 11.7 L 134 8.2 L 129.1 8.2 L 127.6 11.7 L 126.4 11.7 L 131.1 0.7 L 131.9 0.7 Z M 129.5 7.2 L 133.5 7.2 L 131.5 2.5 L 129.5 7.2 Z M 138 0.8 C 138 0.8 140.9 0.75 140.9 0.8 C 143.1 0.8 144.2 2 144.2 3.7 C 144.2 5 143.5 6 142.2 6.4 C 142.9 6.7 143.2 7 144.1 8.4 C 144.08 8.4 146.2 11.7 146.2 11.7 L 144.8 11.7 C 144.8 11.7 142.85 8.66 142.8 8.7 C 141.8 7.1 141.2 6.7 140.2 6.7 C 140.24 6.7 139.2 6.7 139.2 6.7 L 139.2 11.7 L 138 11.7 L 138 0.8 Z M 140.4 5.6 C 141.9 5.6 143 5.3 143 3.7 C 143 2.4 142.1 1.8 140.7 1.8 C 140.74 1.81 139.2 1.8 139.2 1.8 L 139.2 5.6 C 139.2 5.6 140.35 5.65 140.4 5.6 Z M 148.4 0.8 L 156.1 9.8 L 156.1 0.8 L 157.3 0.8 L 157.3 11.7 L 156.2 11.7 L 148.5 2.7 L 148.5 11.7 L 147.4 11.7 L 147.4 0.8 L 148.4 0.8 Z M 160.9 0.8 L 160.9 11.7 L 159.7 11.7 L 159.7 0.8 L 160.9 0.8 Z M 164.4 0.8 L 172.1 9.8 L 172.1 0.8 L 173.2 0.8 L 173.2 11.7 L 172.2 11.7 L 164.5 2.7 L 164.5 11.7 L 163.4 11.7 L 163.4 0.8 L 164.4 0.8 Z M 184.7 2.8 C 183.5 2 182.2 1.7 180.9 1.7 C 178.4 1.7 176.4 3.6 176.4 6.2 C 176.4 8.8 178.3 10.7 181 10.7 C 181.9 10.7 182.6 10.6 183.7 10.2 C 183.71 10.18 183.7 7.5 183.7 7.5 L 181.5 7.5 L 181.5 6.5 L 184.9 6.5 C 184.9 6.5 184.91 10.91 184.9 10.9 C 183.7 11.5 182.4 11.8 181 11.8 C 177.1 11.8 175.2 9.1 175.2 6.3 C 175.2 3.2 177.5 0.6 181 0.6 C 182.2 0.6 183.2 0.9 184.7 1.5 C 184.7 1.5 184.7 2.8 184.7 2.8 Z M 197.3 0.8 L 197.3 11.7 L 196.1 11.7 L 196.1 0.8 L 197.3 0.8 Z M 208.6 0.8 L 209.8 0.8 L 213.6 5.5 L 217.5 0.8 L 218.6 0.8 L 218.6 11.7 L 217.4 11.7 L 217.4 2.7 L 217.4 2.7 L 213.7 7.2 L 213.5 7.2 L 209.9 2.7 L 209.8 2.7 L 209.8 11.7 L 208.6 11.7 L 208.6 0.8 Z M 225.4 0.7 L 230.3 11.7 L 229.1 11.7 L 227.5 8.2 L 222.6 8.2 L 221.1 11.7 L 219.9 11.7 L 224.6 0.7 L 225.4 0.7 Z M 223 7.2 L 227.1 7.2 L 225 2.5 L 223 7.2 Z M 232.5 0.8 L 240.3 9.8 L 240.3 0.8 L 241.4 0.8 L 241.4 11.7 L 240.4 11.7 L 232.7 2.7 L 232.7 11.7 L 231.6 11.7 L 231.6 0.8 L 232.5 0.8 Z M 248.2 0.7 L 253.1 11.7 L 251.9 11.7 L 250.3 8.2 L 245.4 8.2 L 243.9 11.7 L 242.7 11.7 L 247.4 0.7 L 248.2 0.7 Z M 245.8 7.2 L 249.9 7.2 L 247.8 2.5 L 245.8 7.2 Z M 262.9 2.8 C 261.7 2 260.4 1.7 259.1 1.7 C 256.6 1.7 254.6 3.6 254.6 6.2 C 254.6 8.8 256.5 10.7 259.2 10.7 C 260.1 10.7 260.8 10.6 261.9 10.2 C 261.9 10.18 261.9 7.5 261.9 7.5 L 259.7 7.5 L 259.7 6.5 L 263.1 6.5 C 263.1 6.5 263.1 10.91 263.1 10.9 C 261.9 11.5 260.6 11.8 259.2 11.8 C 255.3 11.8 253.4 9.1 253.4 6.3 C 253.4 3.2 255.7 0.6 259.2 0.6 C 260.4 0.6 261.4 0.9 262.9 1.5 C 262.9 1.5 262.9 2.8 262.9 2.8 Z M 271.4 0.8 L 271.4 1.8 L 266.6 1.8 L 266.6 5.6 L 271.2 5.6 L 271.2 6.7 L 266.6 6.7 L 266.6 10.6 L 271.5 10.6 L 271.5 11.7 L 265.4 11.7 L 265.4 0.8 L 271.4 0.8 Z M 273.4 0.8 C 273.4 0.8 277.44 0.75 277.4 0.8 C 281 0.8 283.3 3 283.3 6.1 C 283.3 9.5 280.9 11.7 277.4 11.7 C 277.44 11.66 273.4 11.7 273.4 11.7 L 273.4 0.8 Z M 277.4 10.6 C 280.3 10.6 282.1 8.9 282.1 6.2 C 282.1 3.6 280.3 1.8 277.2 1.8 C 277.25 1.82 274.6 1.8 274.6 1.8 L 274.6 10.6 C 274.6 10.6 277.42 10.58 277.4 10.6 Z M 294.8 1.3 C 294.8 1.3 294.8 2.7 294.8 2.7 C 294.1 2 293.2 1.7 292.4 1.7 C 291.2 1.7 290.4 2.3 290.4 3.3 C 290.4 4 290.6 4.6 292.4 5.5 C 294.7 6.7 295.2 7.5 295.2 9 C 295.2 10.6 294 11.8 292.1 11.8 C 291.1 11.8 290.1 11.5 289.3 10.8 C 289.3 10.8 289.3 9.3 289.3 9.3 C 290.1 10.2 291.1 10.7 292.1 10.7 C 293.2 10.7 294 10 294 9 C 294 8.1 293.7 7.5 291.6 6.4 C 289.9 5.5 289.2 4.7 289.2 3.3 C 289.2 1.8 290.6 0.6 292.4 0.6 C 293.2 0.6 294.1 0.8 294.8 1.3 Z M 303.1 0.8 L 303.1 1.8 L 298.3 1.8 L 298.3 5.6 L 302.9 5.6 L 302.9 6.7 L 298.3 6.7 L 298.3 10.6 L 303.2 10.6 L 303.2 11.7 L 297.1 11.7 L 297.1 0.8 L 303.1 0.8 Z M 305.1 0.8 C 305.1 0.8 308 0.75 308 0.8 C 310.2 0.8 311.3 2 311.3 3.7 C 311.3 5 310.6 6 309.3 6.4 C 310 6.7 310.3 7 311.2 8.4 C 311.18 8.4 313.3 11.7 313.3 11.7 L 311.9 11.7 C 311.9 11.7 309.95 8.66 310 8.7 C 308.9 7.1 308.3 6.7 307.3 6.7 C 307.34 6.7 306.3 6.7 306.3 6.7 L 306.3 11.7 L 305.1 11.7 L 305.1 0.8 Z M 307.5 5.6 C 309 5.6 310.1 5.3 310.1 3.7 C 310.1 2.4 309.2 1.8 307.8 1.8 C 307.84 1.81 306.3 1.8 306.3 1.8 L 306.3 5.6 C 306.3 5.6 307.46 5.65 307.5 5.6 Z M 312.7 0.8 L 313.9 0.8 L 317.5 9.2 L 317.5 9.2 L 321 0.8 L 322.2 0.8 L 317.6 11.8 L 317.4 11.8 L 312.7 0.8 Z M 324.7 0.8 L 324.7 11.7 L 323.5 11.7 L 323.5 0.8 L 324.7 0.8 Z M 336.1 1.5 C 336.1 1.5 336.1 2.8 336.1 2.8 C 335 2.1 333.7 1.7 332.4 1.7 C 329.7 1.7 327.9 3.8 327.9 6.2 C 327.9 8.7 329.6 10.7 332.4 10.7 C 333.8 10.7 335.1 10.3 336.2 9.6 C 336.2 9.6 336.2 10.9 336.2 10.9 C 335 11.5 333.7 11.8 332.4 11.8 C 328.6 11.8 326.7 9 326.7 6.3 C 326.7 3 329.2 0.6 332.4 0.6 C 333.7 0.6 334.9 0.9 336.1 1.5 Z M 344.1 0.8 L 344.1 1.8 L 339.3 1.8 L 339.3 5.6 L 343.9 5.6 L 343.9 6.7 L 339.3 6.7 L 339.3 10.6 L 344.2 10.6 L 344.2 11.7 L 338.1 11.7 L 338.1 0.8 L 344.1 0.8 Z M 351.2 1.3 C 351.2 1.3 351.2 2.7 351.2 2.7 C 350.4 2 349.6 1.7 348.7 1.7 C 347.6 1.7 346.8 2.3 346.8 3.3 C 346.8 4 347 4.6 348.8 5.5 C 351.1 6.7 351.6 7.5 351.6 9 C 351.6 10.6 350.4 11.8 348.5 11.8 C 347.5 11.8 346.5 11.5 345.7 10.8 C 345.7 10.8 345.7 9.3 345.7 9.3 C 346.5 10.2 347.4 10.7 348.5 10.7 C 349.6 10.7 350.4 10 350.4 9 C 350.4 8.1 350.1 7.5 348 6.4 C 346.3 5.5 345.6 4.7 345.6 3.3 C 345.6 1.8 346.9 0.6 348.8 0.6 C 349.6 0.6 350.5 0.8 351.2 1.3 Z " stroke="none" fill="#ffffff"/>  </g></svg>