<?xml version="1.0" standalone="no"?><!DOCTYPE svg PUBLIC "-//W3C//DTD SVG 1.1//EN" "http://www.w3.org/Graphics/SVG/1.1/DTD/svg11.dtd"><svg xmlns="http://www.w3.org/2000/svg" version="1.1" width="274px" height="76.5px" viewBox="0 -3 274 76.5" style="top:-3px">  <desc>Innovative Continuous improvement, embrace change, utilise IT and evolve ways to enhance the client experience</desc>  <defs/>  <g id="Polygon3656">    <path d="M 5.1 64.2 C 5.1 64.2 6.1 64.3 6.1 64.3 C 6 64.9 5.7 65.4 5.2 65.8 C 4.7 66.1 4.1 66.3 3.4 66.3 C 2.5 66.3 1.8 66 1.2 65.5 C 0.7 64.9 0.4 64.1 0.4 63.1 C 0.4 62.1 0.7 61.3 1.2 60.7 C 1.8 60.1 2.5 59.8 3.3 59.8 C 4.2 59.8 4.9 60.1 5.4 60.7 C 5.9 61.2 6.2 62 6.2 63.1 C 6.2 63.1 6.2 63.2 6.2 63.3 C 6.2 63.3 1.5 63.3 1.5 63.3 C 1.6 64 1.8 64.5 2.1 64.9 C 2.5 65.3 2.9 65.5 3.4 65.5 C 3.8 65.5 4.1 65.4 4.4 65.1 C 4.7 64.9 4.9 64.6 5.1 64.2 Z M 1.6 62.5 C 1.6 62.5 5.1 62.5 5.1 62.5 C 5 61.9 4.9 61.6 4.7 61.3 C 4.3 60.9 3.9 60.7 3.4 60.7 C 2.9 60.7 2.5 60.8 2.1 61.2 C 1.8 61.5 1.6 61.9 1.6 62.5 Z M 6.8 66.2 L 9 62.9 L 6.9 60 L 8.3 60 C 8.3 60 9.21 61.42 9.2 61.4 C 9.4 61.7 9.5 61.9 9.6 62.1 C 9.8 61.9 10 61.6 10.1 61.4 C 10.11 61.43 11.2 60 11.2 60 L 12.4 60 L 10.3 62.9 L 12.6 66.2 L 11.3 66.2 L 10 64.2 L 9.7 63.7 L 8 66.2 L 6.8 66.2 Z M 13.5 68.6 L 13.5 60 L 14.4 60 C 14.4 60 14.43 60.77 14.4 60.8 C 14.7 60.4 14.9 60.2 15.2 60.1 C 15.5 59.9 15.8 59.8 16.2 59.8 C 16.8 59.8 17.2 60 17.6 60.2 C 18 60.5 18.3 60.9 18.6 61.4 C 18.8 61.9 18.9 62.4 18.9 63 C 18.9 63.7 18.8 64.2 18.5 64.7 C 18.3 65.3 18 65.6 17.5 65.9 C 17.1 66.2 16.6 66.3 16.2 66.3 C 15.8 66.3 15.5 66.2 15.2 66.1 C 14.9 65.9 14.7 65.8 14.5 65.5 C 14.52 65.54 14.5 68.6 14.5 68.6 L 13.5 68.6 Z M 14.4 63.1 C 14.4 63.9 14.6 64.5 14.9 64.9 C 15.2 65.3 15.6 65.5 16.1 65.5 C 16.6 65.5 17 65.3 17.3 64.9 C 17.6 64.5 17.8 63.8 17.8 63 C 17.8 62.2 17.6 61.6 17.3 61.2 C 17 60.8 16.6 60.6 16.1 60.6 C 15.7 60.6 15.3 60.9 14.9 61.3 C 14.6 61.7 14.4 62.3 14.4 63.1 Z M 24.4 64.2 C 24.4 64.2 25.5 64.3 25.5 64.3 C 25.3 64.9 25 65.4 24.5 65.8 C 24.1 66.1 23.5 66.3 22.8 66.3 C 21.8 66.3 21.1 66 20.6 65.5 C 20.1 64.9 19.8 64.1 19.8 63.1 C 19.8 62.1 20.1 61.3 20.6 60.7 C 21.1 60.1 21.8 59.8 22.7 59.8 C 23.5 59.8 24.2 60.1 24.7 60.7 C 25.3 61.2 25.5 62 25.5 63.1 C 25.5 63.1 25.5 63.2 25.5 63.3 C 25.5 63.3 20.9 63.3 20.9 63.3 C 20.9 64 21.1 64.5 21.5 64.9 C 21.8 65.3 22.2 65.5 22.8 65.5 C 23.1 65.5 23.5 65.4 23.7 65.1 C 24 64.9 24.2 64.6 24.4 64.2 Z M 20.9 62.5 C 20.9 62.5 24.4 62.5 24.4 62.5 C 24.4 61.9 24.2 61.6 24 61.3 C 23.7 60.9 23.2 60.7 22.7 60.7 C 22.2 60.7 21.8 60.8 21.5 61.2 C 21.2 61.5 21 61.9 20.9 62.5 Z M 26.8 66.2 L 26.8 60 L 27.8 60 C 27.8 60 27.75 60.9 27.8 60.9 C 28 60.5 28.2 60.2 28.4 60 C 28.6 59.9 28.9 59.8 29.1 59.8 C 29.5 59.8 29.8 59.9 30.2 60.2 C 30.2 60.2 29.8 61.1 29.8 61.1 C 29.6 61 29.3 60.9 29 60.9 C 28.8 60.9 28.6 61 28.4 61.1 C 28.2 61.3 28.1 61.4 28 61.7 C 27.9 62.1 27.9 62.5 27.9 62.9 C 27.86 62.92 27.9 66.2 27.9 66.2 L 26.8 66.2 Z M 30.8 58.8 L 30.8 57.6 L 31.9 57.6 L 31.9 58.8 L 30.8 58.8 Z M 30.8 66.2 L 30.8 60 L 31.9 60 L 31.9 66.2 L 30.8 66.2 Z M 37.7 64.2 C 37.7 64.2 38.8 64.3 38.8 64.3 C 38.7 64.9 38.3 65.4 37.9 65.8 C 37.4 66.1 36.8 66.3 36.1 66.3 C 35.2 66.3 34.5 66 33.9 65.5 C 33.4 64.9 33.1 64.1 33.1 63.1 C 33.1 62.1 33.4 61.3 33.9 60.7 C 34.5 60.1 35.2 59.8 36 59.8 C 36.9 59.8 37.5 60.1 38.1 60.7 C 38.6 61.2 38.9 62 38.9 63.1 C 38.9 63.1 38.9 63.2 38.9 63.3 C 38.9 63.3 34.2 63.3 34.2 63.3 C 34.3 64 34.4 64.5 34.8 64.9 C 35.1 65.3 35.6 65.5 36.1 65.5 C 36.5 65.5 36.8 65.4 37.1 65.1 C 37.4 64.9 37.6 64.6 37.7 64.2 Z M 34.3 62.5 C 34.3 62.5 37.7 62.5 37.7 62.5 C 37.7 61.9 37.6 61.6 37.3 61.3 C 37 60.9 36.6 60.7 36 60.7 C 35.6 60.7 35.1 60.8 34.8 61.2 C 34.5 61.5 34.3 61.9 34.3 62.5 Z M 40.1 66.2 L 40.1 60 L 41.1 60 C 41.1 60 41.1 60.84 41.1 60.8 C 41.6 60.2 42.2 59.8 43.1 59.8 C 43.5 59.8 43.8 59.9 44.1 60 C 44.4 60.2 44.7 60.3 44.8 60.5 C 45 60.8 45.1 61 45.1 61.3 C 45.2 61.5 45.2 61.9 45.2 62.4 C 45.21 62.35 45.2 66.2 45.2 66.2 L 44.2 66.2 C 44.2 66.2 44.15 62.39 44.2 62.4 C 44.2 62 44.1 61.6 44 61.4 C 43.9 61.2 43.8 61 43.6 60.9 C 43.4 60.8 43.1 60.7 42.9 60.7 C 42.4 60.7 42 60.9 41.7 61.2 C 41.4 61.4 41.2 62 41.2 62.8 C 41.2 62.78 41.2 66.2 41.2 66.2 L 40.1 66.2 Z M 50.9 63.9 C 50.9 63.9 51.9 64 51.9 64 C 51.8 64.8 51.5 65.3 51 65.7 C 50.6 66.1 50 66.3 49.3 66.3 C 48.5 66.3 47.8 66 47.3 65.5 C 46.8 64.9 46.5 64.1 46.5 63.1 C 46.5 62.4 46.6 61.8 46.8 61.3 C 47.1 60.8 47.4 60.4 47.9 60.2 C 48.3 59.9 48.8 59.8 49.3 59.8 C 50 59.8 50.6 60 51 60.3 C 51.4 60.7 51.7 61.2 51.8 61.8 C 51.8 61.8 50.8 61.9 50.8 61.9 C 50.7 61.5 50.5 61.2 50.3 61 C 50 60.8 49.7 60.7 49.4 60.7 C 48.8 60.7 48.4 60.9 48.1 61.3 C 47.7 61.6 47.6 62.2 47.6 63.1 C 47.6 63.9 47.7 64.5 48.1 64.9 C 48.4 65.3 48.8 65.5 49.3 65.5 C 49.7 65.5 50.1 65.3 50.4 65.1 C 50.6 64.8 50.8 64.4 50.9 63.9 Z M 57.1 64.2 C 57.1 64.2 58.2 64.3 58.2 64.3 C 58 64.9 57.7 65.4 57.2 65.8 C 56.8 66.1 56.2 66.3 55.4 66.3 C 54.5 66.3 53.8 66 53.3 65.5 C 52.7 64.9 52.5 64.1 52.5 63.1 C 52.5 62.1 52.7 61.3 53.3 60.7 C 53.8 60.1 54.5 59.8 55.4 59.8 C 56.2 59.8 56.9 60.1 57.4 60.7 C 57.9 61.2 58.2 62 58.2 63.1 C 58.2 63.1 58.2 63.2 58.2 63.3 C 58.2 63.3 53.6 63.3 53.6 63.3 C 53.6 64 53.8 64.5 54.1 64.9 C 54.5 65.3 54.9 65.5 55.4 65.5 C 55.8 65.5 56.2 65.4 56.4 65.1 C 56.7 64.9 56.9 64.6 57.1 64.2 Z M 53.6 62.5 C 53.6 62.5 57.1 62.5 57.1 62.5 C 57 61.9 56.9 61.6 56.7 61.3 C 56.4 60.9 55.9 60.7 55.4 60.7 C 54.9 60.7 54.5 60.8 54.2 61.2 C 53.8 61.5 53.7 61.9 53.6 62.5 Z " stroke="none" fill="#ffffff"/>  </g>  <g id="Polygon3655">    <path d="M 4.9 51.8 C 4.9 51.8 4.87 50.87 4.9 50.9 C 4.4 51.6 3.7 51.9 2.9 51.9 C 2.5 51.9 2.2 51.9 1.9 51.7 C 1.5 51.6 1.3 51.4 1.2 51.2 C 1 51 0.9 50.7 0.8 50.4 C 0.8 50.2 0.8 49.9 0.8 49.4 C 0.77 49.41 0.8 45.6 0.8 45.6 L 1.8 45.6 C 1.8 45.6 1.82 49.01 1.8 49 C 1.8 49.6 1.8 49.9 1.9 50.1 C 2 50.4 2.1 50.6 2.3 50.8 C 2.5 50.9 2.8 51 3.1 51 C 3.4 51 3.7 50.9 4 50.8 C 4.3 50.6 4.5 50.4 4.6 50.1 C 4.7 49.8 4.8 49.4 4.8 48.9 C 4.76 48.89 4.8 45.6 4.8 45.6 L 5.8 45.6 L 5.8 51.8 L 4.9 51.8 Z M 9.3 50.9 C 9.4 50.9 9.6 50.9 9.8 50.8 C 9.8 50.8 9.9 51.8 9.9 51.8 C 9.6 51.8 9.4 51.9 9.1 51.9 C 8.7 51.9 8.4 51.8 8.2 51.7 C 8 51.6 7.9 51.4 7.8 51.2 C 7.7 51 7.7 50.6 7.7 50 C 7.66 49.96 7.7 46.4 7.7 46.4 L 6.9 46.4 L 6.9 45.6 L 7.7 45.6 L 7.7 44 L 8.7 43.4 L 8.7 45.6 L 9.8 45.6 L 9.8 46.4 L 8.7 46.4 C 8.7 46.4 8.71 50.02 8.7 50 C 8.7 50.3 8.7 50.5 8.8 50.6 C 8.8 50.7 8.9 50.8 8.9 50.8 C 9 50.9 9.1 50.9 9.3 50.9 C 9.3 50.9 9.3 50.9 9.3 50.9 Z M 10.8 44.4 L 10.8 43.2 L 11.9 43.2 L 11.9 44.4 L 10.8 44.4 Z M 10.8 51.8 L 10.8 45.6 L 11.9 45.6 L 11.9 51.8 L 10.8 51.8 Z M 13.4 51.8 L 13.4 43.2 L 14.5 43.2 L 14.5 51.8 L 13.4 51.8 Z M 16.1 44.4 L 16.1 43.2 L 17.2 43.2 L 17.2 44.4 L 16.1 44.4 Z M 16.1 51.8 L 16.1 45.6 L 17.2 45.6 L 17.2 51.8 L 16.1 51.8 Z M 18.4 49.9 C 18.4 49.9 19.4 49.8 19.4 49.8 C 19.5 50.2 19.6 50.5 19.9 50.7 C 20.2 50.9 20.5 51.1 21 51.1 C 21.5 51.1 21.9 51 22.1 50.8 C 22.3 50.6 22.5 50.3 22.5 50.1 C 22.5 49.8 22.4 49.6 22.1 49.5 C 22 49.4 21.6 49.3 21.1 49.1 C 20.3 48.9 19.8 48.8 19.5 48.6 C 19.2 48.5 18.9 48.3 18.8 48 C 18.6 47.8 18.6 47.5 18.6 47.2 C 18.6 46.9 18.6 46.7 18.7 46.4 C 18.9 46.2 19 46 19.3 45.9 C 19.4 45.7 19.6 45.6 19.9 45.5 C 20.2 45.5 20.5 45.4 20.8 45.4 C 21.3 45.4 21.8 45.5 22.1 45.6 C 22.5 45.8 22.8 46 22.9 46.2 C 23.1 46.4 23.2 46.8 23.3 47.2 C 23.3 47.2 22.3 47.3 22.3 47.3 C 22.2 47 22.1 46.7 21.9 46.6 C 21.6 46.4 21.3 46.3 20.9 46.3 C 20.4 46.3 20.1 46.4 19.9 46.5 C 19.7 46.7 19.6 46.9 19.6 47.1 C 19.6 47.2 19.6 47.3 19.7 47.5 C 19.8 47.6 19.9 47.7 20.1 47.7 C 20.2 47.8 20.5 47.9 21 48 C 21.8 48.2 22.3 48.4 22.6 48.5 C 22.9 48.6 23.1 48.8 23.3 49 C 23.5 49.3 23.5 49.6 23.5 50 C 23.5 50.3 23.4 50.6 23.2 50.9 C 23 51.3 22.7 51.5 22.3 51.7 C 22 51.8 21.5 51.9 21 51.9 C 20.2 51.9 19.6 51.8 19.2 51.4 C 18.8 51.1 18.5 50.6 18.4 49.9 Z M 29.1 49.8 C 29.1 49.8 30.1 49.9 30.1 49.9 C 30 50.5 29.7 51 29.2 51.4 C 28.7 51.7 28.1 51.9 27.4 51.9 C 26.5 51.9 25.8 51.6 25.2 51.1 C 24.7 50.5 24.4 49.7 24.4 48.7 C 24.4 47.7 24.7 46.9 25.3 46.3 C 25.8 45.7 26.5 45.4 27.4 45.4 C 28.2 45.4 28.9 45.7 29.4 46.3 C 29.9 46.8 30.2 47.6 30.2 48.7 C 30.2 48.7 30.2 48.8 30.2 48.9 C 30.2 48.9 25.5 48.9 25.5 48.9 C 25.6 49.6 25.8 50.1 26.1 50.5 C 26.5 50.9 26.9 51.1 27.4 51.1 C 27.8 51.1 28.1 51 28.4 50.7 C 28.7 50.5 28.9 50.2 29.1 49.8 Z M 25.6 48.1 C 25.6 48.1 29.1 48.1 29.1 48.1 C 29 47.5 28.9 47.2 28.7 46.9 C 28.3 46.5 27.9 46.3 27.4 46.3 C 26.9 46.3 26.5 46.4 26.1 46.8 C 25.8 47.1 25.6 47.5 25.6 48.1 Z M 35.1 51.8 L 35.1 43.2 L 36.3 43.2 L 36.3 51.8 L 35.1 51.8 Z M 40.5 51.8 L 40.5 44.2 L 37.6 44.2 L 37.6 43.2 L 44.4 43.2 L 44.4 44.2 L 41.6 44.2 L 41.6 51.8 L 40.5 51.8 Z M 52.9 51.8 C 52.7 51.6 52.7 51.3 52.6 51 C 52.3 51.3 51.9 51.6 51.5 51.7 C 51.2 51.9 50.8 51.9 50.4 51.9 C 49.7 51.9 49.1 51.8 48.8 51.4 C 48.4 51.1 48.2 50.7 48.2 50.1 C 48.2 49.8 48.3 49.6 48.4 49.3 C 48.6 49.1 48.8 48.9 49 48.7 C 49.2 48.5 49.5 48.4 49.7 48.4 C 49.9 48.3 50.3 48.2 50.7 48.2 C 51.5 48.1 52.2 48 52.6 47.8 C 52.6 47.7 52.6 47.6 52.6 47.6 C 52.6 47.1 52.5 46.8 52.3 46.6 C 52 46.4 51.6 46.3 51.1 46.3 C 50.6 46.3 50.2 46.4 50 46.6 C 49.7 46.7 49.6 47 49.4 47.5 C 49.4 47.5 48.4 47.3 48.4 47.3 C 48.5 46.9 48.7 46.5 48.9 46.3 C 49.1 46 49.4 45.8 49.8 45.6 C 50.2 45.5 50.7 45.4 51.2 45.4 C 51.7 45.4 52.2 45.5 52.5 45.6 C 52.8 45.7 53.1 45.9 53.2 46.1 C 53.4 46.3 53.5 46.5 53.6 46.8 C 53.6 47 53.6 47.3 53.6 47.8 C 53.6 47.8 53.6 49.2 53.6 49.2 C 53.6 50.2 53.6 50.8 53.7 51 C 53.7 51.3 53.8 51.5 54 51.8 C 53.96 51.78 52.9 51.8 52.9 51.8 C 52.9 51.8 52.86 51.78 52.9 51.8 Z M 52.6 48.7 C 52.2 48.8 51.6 48.9 50.8 49.1 C 50.4 49.1 50.1 49.2 49.9 49.3 C 49.7 49.3 49.6 49.5 49.5 49.6 C 49.4 49.8 49.4 49.9 49.4 50.1 C 49.4 50.4 49.5 50.6 49.7 50.8 C 49.9 51 50.2 51.1 50.6 51.1 C 51 51.1 51.4 51 51.7 50.8 C 52 50.6 52.2 50.4 52.4 50.1 C 52.5 49.9 52.6 49.5 52.6 49 C 52.6 49 52.6 48.7 52.6 48.7 Z M 55.3 51.8 L 55.3 45.6 L 56.2 45.6 C 56.2 45.6 56.21 46.44 56.2 46.4 C 56.7 45.8 57.3 45.4 58.2 45.4 C 58.6 45.4 58.9 45.5 59.2 45.6 C 59.5 45.8 59.8 45.9 59.9 46.1 C 60.1 46.4 60.2 46.6 60.3 46.9 C 60.3 47.1 60.3 47.5 60.3 48 C 60.32 47.95 60.3 51.8 60.3 51.8 L 59.3 51.8 C 59.3 51.8 59.26 47.99 59.3 48 C 59.3 47.6 59.2 47.2 59.1 47 C 59.1 46.8 58.9 46.6 58.7 46.5 C 58.5 46.4 58.2 46.3 58 46.3 C 57.5 46.3 57.1 46.5 56.8 46.8 C 56.5 47 56.3 47.6 56.3 48.4 C 56.31 48.38 56.3 51.8 56.3 51.8 L 55.3 51.8 Z M 66 51.8 C 66 51.8 65.97 50.99 66 51 C 65.6 51.6 65 51.9 64.2 51.9 C 63.7 51.9 63.3 51.8 62.9 51.5 C 62.4 51.2 62.1 50.9 61.9 50.4 C 61.7 49.9 61.6 49.3 61.6 48.7 C 61.6 48.1 61.7 47.5 61.9 47 C 62.1 46.5 62.4 46.1 62.8 45.8 C 63.2 45.6 63.7 45.4 64.2 45.4 C 64.6 45.4 64.9 45.5 65.2 45.7 C 65.5 45.8 65.7 46 65.9 46.3 C 65.9 46.27 65.9 43.2 65.9 43.2 L 66.9 43.2 L 66.9 51.8 L 66 51.8 Z M 62.6 48.7 C 62.6 49.5 62.8 50.1 63.1 50.5 C 63.5 50.9 63.9 51.1 64.3 51.1 C 64.8 51.1 65.2 50.9 65.5 50.5 C 65.8 50.1 66 49.5 66 48.8 C 66 47.9 65.8 47.3 65.5 46.9 C 65.2 46.5 64.8 46.3 64.3 46.3 C 63.8 46.3 63.4 46.5 63.1 46.9 C 62.8 47.2 62.6 47.9 62.6 48.7 Z M 76.2 49.8 C 76.2 49.8 77.3 49.9 77.3 49.9 C 77.1 50.5 76.8 51 76.3 51.4 C 75.9 51.7 75.3 51.9 74.6 51.9 C 73.6 51.9 72.9 51.6 72.4 51.1 C 71.9 50.5 71.6 49.7 71.6 48.7 C 71.6 47.7 71.9 46.9 72.4 46.3 C 72.9 45.7 73.6 45.4 74.5 45.4 C 75.3 45.4 76 45.7 76.5 46.3 C 77.1 46.8 77.3 47.6 77.3 48.7 C 77.3 48.7 77.3 48.8 77.3 48.9 C 77.3 48.9 72.7 48.9 72.7 48.9 C 72.7 49.6 72.9 50.1 73.3 50.5 C 73.6 50.9 74 51.1 74.6 51.1 C 74.9 51.1 75.3 51 75.6 50.7 C 75.8 50.5 76 50.2 76.2 49.8 Z M 72.7 48.1 C 72.7 48.1 76.2 48.1 76.2 48.1 C 76.2 47.5 76 47.2 75.8 46.9 C 75.5 46.5 75 46.3 74.5 46.3 C 74 46.3 73.6 46.4 73.3 46.8 C 73 47.1 72.8 47.5 72.7 48.1 Z M 80.3 51.8 L 78 45.6 L 79.1 45.6 C 79.1 45.6 80.43 49.28 80.4 49.3 C 80.6 49.7 80.7 50.1 80.8 50.5 C 80.9 50.2 81 49.8 81.2 49.4 C 81.22 49.35 82.6 45.6 82.6 45.6 L 83.7 45.6 L 81.3 51.8 L 80.3 51.8 Z M 84.2 48.7 C 84.2 47.5 84.5 46.7 85.2 46.1 C 85.7 45.6 86.4 45.4 87.1 45.4 C 88 45.4 88.7 45.7 89.2 46.3 C 89.8 46.8 90.1 47.6 90.1 48.6 C 90.1 49.4 89.9 50 89.7 50.5 C 89.5 50.9 89.1 51.3 88.6 51.5 C 88.2 51.8 87.7 51.9 87.1 51.9 C 86.3 51.9 85.6 51.6 85 51.1 C 84.5 50.5 84.2 49.7 84.2 48.7 Z M 85.3 48.7 C 85.3 49.5 85.5 50.1 85.8 50.5 C 86.2 50.9 86.6 51.1 87.1 51.1 C 87.7 51.1 88.1 50.9 88.4 50.5 C 88.8 50.1 89 49.4 89 48.6 C 89 47.9 88.8 47.3 88.4 46.9 C 88.1 46.5 87.7 46.3 87.1 46.3 C 86.6 46.3 86.2 46.5 85.8 46.9 C 85.5 47.3 85.3 47.9 85.3 48.7 Z M 91.3 51.8 L 91.3 43.2 L 92.3 43.2 L 92.3 51.8 L 91.3 51.8 Z M 95.7 51.8 L 93.3 45.6 L 94.4 45.6 C 94.4 45.6 95.77 49.28 95.8 49.3 C 95.9 49.7 96 50.1 96.2 50.5 C 96.3 50.2 96.4 49.8 96.6 49.4 C 96.56 49.35 97.9 45.6 97.9 45.6 L 99 45.6 L 96.7 51.8 L 95.7 51.8 Z M 104.2 49.8 C 104.2 49.8 105.3 49.9 105.3 49.9 C 105.1 50.5 104.8 51 104.3 51.4 C 103.9 51.7 103.3 51.9 102.6 51.9 C 101.7 51.9 100.9 51.6 100.4 51.1 C 99.9 50.5 99.6 49.7 99.6 48.7 C 99.6 47.7 99.9 46.9 100.4 46.3 C 101 45.7 101.7 45.4 102.5 45.4 C 103.3 45.4 104 45.7 104.5 46.3 C 105.1 46.8 105.3 47.6 105.3 48.7 C 105.3 48.7 105.3 48.8 105.3 48.9 C 105.3 48.9 100.7 48.9 100.7 48.9 C 100.7 49.6 100.9 50.1 101.3 50.5 C 101.6 50.9 102.1 51.1 102.6 51.1 C 103 51.1 103.3 51 103.6 50.7 C 103.8 50.5 104.1 50.2 104.2 49.8 Z M 100.8 48.1 C 100.8 48.1 104.2 48.1 104.2 48.1 C 104.2 47.5 104 47.2 103.8 46.9 C 103.5 46.5 103.1 46.3 102.5 46.3 C 102 46.3 101.6 46.4 101.3 46.8 C 101 47.1 100.8 47.5 100.8 48.1 Z M 111.1 51.8 L 109.2 45.6 L 110.3 45.6 L 111.3 49.1 C 111.3 49.1 111.66 50.48 111.7 50.5 C 111.7 50.4 111.8 50 112 49.2 C 111.98 49.2 113 45.6 113 45.6 L 114.1 45.6 L 115 49.2 L 115.3 50.4 L 115.7 49.2 L 116.7 45.6 L 117.7 45.6 L 115.8 51.8 L 114.7 51.8 L 113.7 48.1 L 113.5 47 L 112.2 51.8 L 111.1 51.8 Z M 122.9 51.8 C 122.8 51.6 122.7 51.3 122.7 51 C 122.3 51.3 121.9 51.6 121.6 51.7 C 121.2 51.9 120.8 51.9 120.4 51.9 C 119.7 51.9 119.2 51.8 118.8 51.4 C 118.5 51.1 118.3 50.7 118.3 50.1 C 118.3 49.8 118.3 49.6 118.5 49.3 C 118.6 49.1 118.8 48.9 119 48.7 C 119.2 48.5 119.5 48.4 119.8 48.4 C 120 48.3 120.3 48.2 120.7 48.2 C 121.6 48.1 122.2 48 122.6 47.8 C 122.6 47.7 122.6 47.6 122.6 47.6 C 122.6 47.1 122.5 46.8 122.3 46.6 C 122 46.4 121.6 46.3 121.1 46.3 C 120.6 46.3 120.2 46.4 120 46.6 C 119.8 46.7 119.6 47 119.5 47.5 C 119.5 47.5 118.5 47.3 118.5 47.3 C 118.5 46.9 118.7 46.5 118.9 46.3 C 119.1 46 119.4 45.8 119.8 45.6 C 120.3 45.5 120.7 45.4 121.3 45.4 C 121.8 45.4 122.2 45.5 122.6 45.6 C 122.9 45.7 123.1 45.9 123.3 46.1 C 123.4 46.3 123.6 46.5 123.6 46.8 C 123.7 47 123.7 47.3 123.7 47.8 C 123.7 47.8 123.7 49.2 123.7 49.2 C 123.7 50.2 123.7 50.8 123.7 51 C 123.8 51.3 123.9 51.5 124 51.8 C 124 51.78 122.9 51.8 122.9 51.8 C 122.9 51.8 122.9 51.78 122.9 51.8 Z M 122.6 48.7 C 122.2 48.8 121.6 48.9 120.9 49.1 C 120.4 49.1 120.1 49.2 120 49.3 C 119.8 49.3 119.6 49.5 119.5 49.6 C 119.4 49.8 119.4 49.9 119.4 50.1 C 119.4 50.4 119.5 50.6 119.7 50.8 C 119.9 51 120.2 51.1 120.7 51.1 C 121.1 51.1 121.4 51 121.7 50.8 C 122.1 50.6 122.3 50.4 122.4 50.1 C 122.5 49.9 122.6 49.5 122.6 49 C 122.6 49 122.6 48.7 122.6 48.7 Z M 125.9 54.3 C 125.7 54.3 125.5 54.3 125.3 54.2 C 125.3 54.2 125.1 53.2 125.1 53.2 C 125.4 53.2 125.6 53.3 125.7 53.3 C 126 53.3 126.2 53.2 126.3 53.2 C 126.4 53.1 126.6 53 126.7 52.8 C 126.7 52.7 126.8 52.5 127 52 C 127 52 127 51.9 127.1 51.8 C 127.07 51.79 124.7 45.6 124.7 45.6 L 125.8 45.6 C 125.8 45.6 127.14 49.16 127.1 49.2 C 127.3 49.6 127.5 50.1 127.6 50.6 C 127.7 50.1 127.9 49.6 128 49.2 C 128.02 49.18 129.4 45.6 129.4 45.6 L 130.4 45.6 C 130.4 45.6 128.04 51.89 128 51.9 C 127.8 52.6 127.6 53 127.4 53.3 C 127.3 53.6 127 53.9 126.8 54.1 C 126.6 54.2 126.3 54.3 125.9 54.3 C 125.9 54.3 125.9 54.3 125.9 54.3 Z M 130.9 49.9 C 130.9 49.9 131.9 49.8 131.9 49.8 C 132 50.2 132.1 50.5 132.4 50.7 C 132.7 50.9 133.1 51.1 133.5 51.1 C 134 51.1 134.4 51 134.6 50.8 C 134.8 50.6 135 50.3 135 50.1 C 135 49.8 134.9 49.6 134.7 49.5 C 134.5 49.4 134.2 49.3 133.6 49.1 C 132.8 48.9 132.3 48.8 132 48.6 C 131.7 48.5 131.4 48.3 131.3 48 C 131.1 47.8 131.1 47.5 131.1 47.2 C 131.1 46.9 131.1 46.7 131.2 46.4 C 131.4 46.2 131.5 46 131.8 45.9 C 131.9 45.7 132.2 45.6 132.4 45.5 C 132.7 45.5 133 45.4 133.3 45.4 C 133.8 45.4 134.3 45.5 134.6 45.6 C 135 45.8 135.3 46 135.5 46.2 C 135.6 46.4 135.7 46.8 135.8 47.2 C 135.8 47.2 134.8 47.3 134.8 47.3 C 134.7 47 134.6 46.7 134.4 46.6 C 134.2 46.4 133.8 46.3 133.4 46.3 C 132.9 46.3 132.6 46.4 132.4 46.5 C 132.2 46.7 132.1 46.9 132.1 47.1 C 132.1 47.2 132.1 47.3 132.2 47.5 C 132.3 47.6 132.4 47.7 132.6 47.7 C 132.7 47.8 133 47.9 133.5 48 C 134.3 48.2 134.8 48.4 135.1 48.5 C 135.4 48.6 135.6 48.8 135.8 49 C 136 49.3 136 49.6 136 50 C 136 50.3 135.9 50.6 135.7 50.9 C 135.5 51.3 135.2 51.5 134.9 51.7 C 134.5 51.8 134 51.9 133.5 51.9 C 132.7 51.9 132.1 51.8 131.7 51.4 C 131.3 51.1 131 50.6 130.9 49.9 Z M 142.5 50.9 C 142.6 50.9 142.7 50.9 142.9 50.8 C 142.9 50.8 143.1 51.8 143.1 51.8 C 142.8 51.8 142.5 51.9 142.3 51.9 C 141.9 51.9 141.6 51.8 141.4 51.7 C 141.2 51.6 141 51.4 141 51.2 C 140.9 51 140.8 50.6 140.8 50 C 140.83 49.96 140.8 46.4 140.8 46.4 L 140.1 46.4 L 140.1 45.6 L 140.8 45.6 L 140.8 44 L 141.9 43.4 L 141.9 45.6 L 142.9 45.6 L 142.9 46.4 L 141.9 46.4 C 141.9 46.4 141.88 50.02 141.9 50 C 141.9 50.3 141.9 50.5 141.9 50.6 C 142 50.7 142 50.8 142.1 50.8 C 142.2 50.9 142.3 50.9 142.5 50.9 C 142.5 50.9 142.5 50.9 142.5 50.9 Z M 143.6 48.7 C 143.6 47.5 143.9 46.7 144.5 46.1 C 145.1 45.6 145.7 45.4 146.5 45.4 C 147.4 45.4 148.1 45.7 148.6 46.3 C 149.1 46.8 149.4 47.6 149.4 48.6 C 149.4 49.4 149.3 50 149 50.5 C 148.8 50.9 148.5 51.3 148 51.5 C 147.5 51.8 147 51.9 146.5 51.9 C 145.6 51.9 144.9 51.6 144.4 51.1 C 143.8 50.5 143.6 49.7 143.6 48.7 Z M 144.7 48.7 C 144.7 49.5 144.8 50.1 145.2 50.5 C 145.5 50.9 146 51.1 146.5 51.1 C 147 51.1 147.5 50.9 147.8 50.5 C 148.2 50.1 148.3 49.4 148.3 48.6 C 148.3 47.9 148.1 47.3 147.8 46.9 C 147.5 46.5 147 46.3 146.5 46.3 C 146 46.3 145.5 46.5 145.2 46.9 C 144.8 47.3 144.7 47.9 144.7 48.7 Z M 158.2 49.8 C 158.2 49.8 159.3 49.9 159.3 49.9 C 159.2 50.5 158.8 51 158.4 51.4 C 157.9 51.7 157.3 51.9 156.6 51.9 C 155.7 51.9 155 51.6 154.4 51.1 C 153.9 50.5 153.6 49.7 153.6 48.7 C 153.6 47.7 153.9 46.9 154.4 46.3 C 155 45.7 155.7 45.4 156.5 45.4 C 157.4 45.4 158 45.7 158.6 46.3 C 159.1 46.8 159.4 47.6 159.4 48.7 C 159.4 48.7 159.4 48.8 159.4 48.9 C 159.4 48.9 154.7 48.9 154.7 48.9 C 154.8 49.6 154.9 50.1 155.3 50.5 C 155.6 50.9 156.1 51.1 156.6 51.1 C 157 51.1 157.3 51 157.6 50.7 C 157.9 50.5 158.1 50.2 158.2 49.8 Z M 154.8 48.1 C 154.8 48.1 158.3 48.1 158.3 48.1 C 158.2 47.5 158.1 47.2 157.9 46.9 C 157.5 46.5 157.1 46.3 156.5 46.3 C 156.1 46.3 155.7 46.4 155.3 46.8 C 155 47.1 154.8 47.5 154.8 48.1 Z M 160.7 51.8 L 160.7 45.6 L 161.6 45.6 C 161.6 45.6 161.6 46.44 161.6 46.4 C 162.1 45.8 162.7 45.4 163.6 45.4 C 164 45.4 164.3 45.5 164.6 45.6 C 164.9 45.8 165.2 45.9 165.3 46.1 C 165.5 46.4 165.6 46.6 165.7 46.9 C 165.7 47.1 165.7 47.5 165.7 48 C 165.71 47.95 165.7 51.8 165.7 51.8 L 164.7 51.8 C 164.7 51.8 164.65 47.99 164.7 48 C 164.7 47.6 164.6 47.2 164.5 47 C 164.4 46.8 164.3 46.6 164.1 46.5 C 163.9 46.4 163.6 46.3 163.4 46.3 C 162.9 46.3 162.5 46.5 162.2 46.8 C 161.9 47 161.7 47.6 161.7 48.4 C 161.71 48.38 161.7 51.8 161.7 51.8 L 160.7 51.8 Z M 167.3 51.8 L 167.3 43.2 L 168.4 43.2 C 168.4 43.2 168.38 46.27 168.4 46.3 C 168.9 45.7 169.5 45.4 170.2 45.4 C 170.7 45.4 171.1 45.5 171.4 45.7 C 171.8 45.9 172 46.1 172.2 46.4 C 172.3 46.8 172.4 47.2 172.4 47.8 C 172.39 47.84 172.4 51.8 172.4 51.8 L 171.3 51.8 C 171.3 51.8 171.34 47.84 171.3 47.8 C 171.3 47.3 171.2 46.9 171 46.7 C 170.8 46.4 170.4 46.3 170 46.3 C 169.7 46.3 169.4 46.4 169.1 46.6 C 168.9 46.7 168.7 46.9 168.6 47.2 C 168.4 47.5 168.4 47.9 168.4 48.4 C 168.38 48.38 168.4 51.8 168.4 51.8 L 167.3 51.8 Z M 178.3 51.8 C 178.2 51.6 178.1 51.3 178.1 51 C 177.7 51.3 177.3 51.6 176.9 51.7 C 176.6 51.9 176.2 51.9 175.8 51.9 C 175.1 51.9 174.6 51.8 174.2 51.4 C 173.8 51.1 173.6 50.7 173.6 50.1 C 173.6 49.8 173.7 49.6 173.9 49.3 C 174 49.1 174.2 48.9 174.4 48.7 C 174.6 48.5 174.9 48.4 175.2 48.4 C 175.4 48.3 175.7 48.2 176.1 48.2 C 176.9 48.1 177.6 48 178 47.8 C 178 47.7 178 47.6 178 47.6 C 178 47.1 177.9 46.8 177.7 46.6 C 177.4 46.4 177 46.3 176.5 46.3 C 176 46.3 175.6 46.4 175.4 46.6 C 175.1 46.7 175 47 174.9 47.5 C 174.9 47.5 173.8 47.3 173.8 47.3 C 173.9 46.9 174.1 46.5 174.3 46.3 C 174.5 46 174.8 45.8 175.2 45.6 C 175.6 45.5 176.1 45.4 176.6 45.4 C 177.2 45.4 177.6 45.5 177.9 45.6 C 178.3 45.7 178.5 45.9 178.7 46.1 C 178.8 46.3 178.9 46.5 179 46.8 C 179 47 179 47.3 179 47.8 C 179 47.8 179 49.2 179 49.2 C 179 50.2 179.1 50.8 179.1 51 C 179.2 51.3 179.2 51.5 179.4 51.8 C 179.37 51.78 178.3 51.8 178.3 51.8 C 178.3 51.8 178.27 51.78 178.3 51.8 Z M 178 48.7 C 177.6 48.8 177 48.9 176.3 49.1 C 175.8 49.1 175.5 49.2 175.3 49.3 C 175.2 49.3 175 49.5 174.9 49.6 C 174.8 49.8 174.8 49.9 174.8 50.1 C 174.8 50.4 174.9 50.6 175.1 50.8 C 175.3 51 175.6 51.1 176 51.1 C 176.4 51.1 176.8 51 177.1 50.8 C 177.4 50.6 177.7 50.4 177.8 50.1 C 177.9 49.9 178 49.5 178 49 C 178 49 178 48.7 178 48.7 Z M 180.7 51.8 L 180.7 45.6 L 181.6 45.6 C 181.6 45.6 181.62 46.44 181.6 46.4 C 182.1 45.8 182.7 45.4 183.6 45.4 C 184 45.4 184.3 45.5 184.6 45.6 C 185 45.8 185.2 45.9 185.3 46.1 C 185.5 46.4 185.6 46.6 185.7 46.9 C 185.7 47.1 185.7 47.5 185.7 48 C 185.73 47.95 185.7 51.8 185.7 51.8 L 184.7 51.8 C 184.7 51.8 184.68 47.99 184.7 48 C 184.7 47.6 184.6 47.2 184.6 47 C 184.5 46.8 184.3 46.6 184.1 46.5 C 183.9 46.4 183.7 46.3 183.4 46.3 C 182.9 46.3 182.5 46.5 182.2 46.8 C 181.9 47 181.7 47.6 181.7 48.4 C 181.73 48.38 181.7 51.8 181.7 51.8 L 180.7 51.8 Z M 191.4 49.5 C 191.4 49.5 192.4 49.6 192.4 49.6 C 192.3 50.4 192 50.9 191.6 51.3 C 191.1 51.7 190.5 51.9 189.9 51.9 C 189 51.9 188.3 51.6 187.8 51.1 C 187.3 50.5 187 49.7 187 48.7 C 187 48 187.1 47.4 187.4 46.9 C 187.6 46.4 187.9 46 188.4 45.8 C 188.8 45.5 189.3 45.4 189.9 45.4 C 190.5 45.4 191.1 45.6 191.5 45.9 C 191.9 46.3 192.2 46.8 192.3 47.4 C 192.3 47.4 191.3 47.5 191.3 47.5 C 191.2 47.1 191 46.8 190.8 46.6 C 190.6 46.4 190.3 46.3 189.9 46.3 C 189.4 46.3 188.9 46.5 188.6 46.9 C 188.3 47.2 188.1 47.8 188.1 48.7 C 188.1 49.5 188.3 50.1 188.6 50.5 C 188.9 50.9 189.3 51.1 189.8 51.1 C 190.3 51.1 190.6 50.9 190.9 50.7 C 191.2 50.4 191.3 50 191.4 49.5 Z M 197.6 49.8 C 197.6 49.8 198.7 49.9 198.7 49.9 C 198.5 50.5 198.2 51 197.7 51.4 C 197.3 51.7 196.7 51.9 196 51.9 C 195.1 51.9 194.3 51.6 193.8 51.1 C 193.3 50.5 193 49.7 193 48.7 C 193 47.7 193.3 46.9 193.8 46.3 C 194.3 45.7 195 45.4 195.9 45.4 C 196.7 45.4 197.4 45.7 197.9 46.3 C 198.5 46.8 198.7 47.6 198.7 48.7 C 198.7 48.7 198.7 48.8 198.7 48.9 C 198.7 48.9 194.1 48.9 194.1 48.9 C 194.1 49.6 194.3 50.1 194.7 50.5 C 195 50.9 195.4 51.1 196 51.1 C 196.4 51.1 196.7 51 197 50.7 C 197.2 50.5 197.4 50.2 197.6 49.8 Z M 194.1 48.1 C 194.1 48.1 197.6 48.1 197.6 48.1 C 197.6 47.5 197.4 47.2 197.2 46.9 C 196.9 46.5 196.4 46.3 195.9 46.3 C 195.4 46.3 195 46.4 194.7 46.8 C 194.4 47.1 194.2 47.5 194.1 48.1 Z M 205.2 50.9 C 205.3 50.9 205.5 50.9 205.7 50.8 C 205.7 50.8 205.8 51.8 205.8 51.8 C 205.5 51.8 205.2 51.9 205 51.9 C 204.6 51.9 204.3 51.8 204.1 51.7 C 203.9 51.6 203.8 51.4 203.7 51.2 C 203.6 51 203.5 50.6 203.5 50 C 203.55 49.96 203.5 46.4 203.5 46.4 L 202.8 46.4 L 202.8 45.6 L 203.5 45.6 L 203.5 44 L 204.6 43.4 L 204.6 45.6 L 205.7 45.6 L 205.7 46.4 L 204.6 46.4 C 204.6 46.4 204.6 50.02 204.6 50 C 204.6 50.3 204.6 50.5 204.7 50.6 C 204.7 50.7 204.8 50.8 204.8 50.8 C 204.9 50.9 205 50.9 205.2 50.9 C 205.2 50.9 205.2 50.9 205.2 50.9 Z M 206.7 51.8 L 206.7 43.2 L 207.7 43.2 C 207.7 43.2 207.74 46.27 207.7 46.3 C 208.2 45.7 208.9 45.4 209.6 45.4 C 210.1 45.4 210.5 45.5 210.8 45.7 C 211.1 45.9 211.4 46.1 211.5 46.4 C 211.7 46.8 211.8 47.2 211.8 47.8 C 211.76 47.84 211.8 51.8 211.8 51.8 L 210.7 51.8 C 210.7 51.8 210.7 47.84 210.7 47.8 C 210.7 47.3 210.6 46.9 210.4 46.7 C 210.1 46.4 209.8 46.3 209.4 46.3 C 209.1 46.3 208.8 46.4 208.5 46.6 C 208.2 46.7 208 46.9 207.9 47.2 C 207.8 47.5 207.7 47.9 207.7 48.4 C 207.74 48.38 207.7 51.8 207.7 51.8 L 206.7 51.8 Z M 217.6 49.8 C 217.6 49.8 218.7 49.9 218.7 49.9 C 218.5 50.5 218.2 51 217.8 51.4 C 217.3 51.7 216.7 51.9 216 51.9 C 215.1 51.9 214.3 51.6 213.8 51.1 C 213.3 50.5 213 49.7 213 48.7 C 213 47.7 213.3 46.9 213.8 46.3 C 214.4 45.7 215.1 45.4 215.9 45.4 C 216.8 45.4 217.4 45.7 218 46.3 C 218.5 46.8 218.7 47.6 218.7 48.7 C 218.7 48.7 218.7 48.8 218.7 48.9 C 218.7 48.9 214.1 48.9 214.1 48.9 C 214.1 49.6 214.3 50.1 214.7 50.5 C 215 50.9 215.5 51.1 216 51.1 C 216.4 51.1 216.7 51 217 50.7 C 217.2 50.5 217.5 50.2 217.6 49.8 Z M 214.2 48.1 C 214.2 48.1 217.6 48.1 217.6 48.1 C 217.6 47.5 217.5 47.2 217.2 46.9 C 216.9 46.5 216.5 46.3 215.9 46.3 C 215.4 46.3 215 46.4 214.7 46.8 C 214.4 47.1 214.2 47.5 214.2 48.1 Z M 227.4 49.5 C 227.4 49.5 228.5 49.6 228.5 49.6 C 228.4 50.4 228.1 50.9 227.6 51.3 C 227.1 51.7 226.6 51.9 225.9 51.9 C 225 51.9 224.3 51.6 223.8 51.1 C 223.3 50.5 223 49.7 223 48.7 C 223 48 223.2 47.4 223.4 46.9 C 223.6 46.4 223.9 46 224.4 45.8 C 224.9 45.5 225.3 45.4 225.9 45.4 C 226.6 45.4 227.1 45.6 227.5 45.9 C 228 46.3 228.2 46.8 228.4 47.4 C 228.4 47.4 227.3 47.5 227.3 47.5 C 227.2 47.1 227.1 46.8 226.8 46.6 C 226.6 46.4 226.3 46.3 225.9 46.3 C 225.4 46.3 225 46.5 224.6 46.9 C 224.3 47.2 224.1 47.8 224.1 48.7 C 224.1 49.5 224.3 50.1 224.6 50.5 C 224.9 50.9 225.4 51.1 225.9 51.1 C 226.3 51.1 226.6 50.9 226.9 50.7 C 227.2 50.4 227.4 50 227.4 49.5 Z M 229.3 51.8 L 229.3 43.2 L 230.4 43.2 L 230.4 51.8 L 229.3 51.8 Z M 232 44.4 L 232 43.2 L 233.1 43.2 L 233.1 44.4 L 232 44.4 Z M 232 51.8 L 232 45.6 L 233.1 45.6 L 233.1 51.8 L 232 51.8 Z M 239 49.8 C 239 49.8 240.1 49.9 240.1 49.9 C 239.9 50.5 239.6 51 239.1 51.4 C 238.6 51.7 238 51.9 237.3 51.9 C 236.4 51.9 235.7 51.6 235.2 51.1 C 234.6 50.5 234.4 49.7 234.4 48.7 C 234.4 47.7 234.6 46.9 235.2 46.3 C 235.7 45.7 236.4 45.4 237.3 45.4 C 238.1 45.4 238.8 45.7 239.3 46.3 C 239.8 46.8 240.1 47.6 240.1 48.7 C 240.1 48.7 240.1 48.8 240.1 48.9 C 240.1 48.9 235.4 48.9 235.4 48.9 C 235.5 49.6 235.7 50.1 236 50.5 C 236.4 50.9 236.8 51.1 237.3 51.1 C 237.7 51.1 238 51 238.3 50.7 C 238.6 50.5 238.8 50.2 239 49.8 Z M 235.5 48.1 C 235.5 48.1 239 48.1 239 48.1 C 238.9 47.5 238.8 47.2 238.6 46.9 C 238.2 46.5 237.8 46.3 237.3 46.3 C 236.8 46.3 236.4 46.4 236 46.8 C 235.7 47.1 235.5 47.5 235.5 48.1 Z M 241.4 51.8 L 241.4 45.6 L 242.3 45.6 C 242.3 45.6 242.33 46.44 242.3 46.4 C 242.8 45.8 243.4 45.4 244.3 45.4 C 244.7 45.4 245 45.5 245.3 45.6 C 245.7 45.8 245.9 45.9 246 46.1 C 246.2 46.4 246.3 46.6 246.4 46.9 C 246.4 47.1 246.4 47.5 246.4 48 C 246.43 47.95 246.4 51.8 246.4 51.8 L 245.4 51.8 C 245.4 51.8 245.38 47.99 245.4 48 C 245.4 47.6 245.3 47.2 245.3 47 C 245.2 46.8 245 46.6 244.8 46.5 C 244.6 46.4 244.4 46.3 244.1 46.3 C 243.6 46.3 243.2 46.5 242.9 46.8 C 242.6 47 242.4 47.6 242.4 48.4 C 242.43 48.38 242.4 51.8 242.4 51.8 L 241.4 51.8 Z M 249.9 50.9 C 250 50.9 250.2 50.9 250.4 50.8 C 250.4 50.8 250.5 51.8 250.5 51.8 C 250.2 51.8 249.9 51.9 249.7 51.9 C 249.3 51.9 249 51.8 248.8 51.7 C 248.6 51.6 248.5 51.4 248.4 51.2 C 248.3 51 248.2 50.6 248.2 50 C 248.24 49.96 248.2 46.4 248.2 46.4 L 247.5 46.4 L 247.5 45.6 L 248.2 45.6 L 248.2 44 L 249.3 43.4 L 249.3 45.6 L 250.4 45.6 L 250.4 46.4 L 249.3 46.4 C 249.3 46.4 249.29 50.02 249.3 50 C 249.3 50.3 249.3 50.5 249.3 50.6 C 249.4 50.7 249.4 50.8 249.5 50.8 C 249.6 50.9 249.7 50.9 249.9 50.9 C 249.9 50.9 249.9 50.9 249.9 50.9 Z " stroke="none" fill="#ffffff"/>  </g>  <g id="Polygon3654">    <path d="M 7.1 34.4 C 7.1 34.4 8.2 34.7 8.2 34.7 C 8 35.6 7.5 36.3 6.9 36.8 C 6.3 37.3 5.5 37.5 4.6 37.5 C 3.7 37.5 3 37.3 2.4 37 C 1.8 36.6 1.4 36 1.1 35.3 C 0.7 34.6 0.6 33.8 0.6 33 C 0.6 32.1 0.8 31.3 1.1 30.7 C 1.5 30 1.9 29.5 2.6 29.2 C 3.2 28.8 3.9 28.6 4.7 28.6 C 5.5 28.6 6.2 28.9 6.8 29.3 C 7.4 29.7 7.8 30.4 8 31.1 C 8 31.1 6.9 31.4 6.9 31.4 C 6.7 30.8 6.4 30.3 6.1 30 C 5.7 29.8 5.2 29.6 4.6 29.6 C 4 29.6 3.4 29.8 3 30.1 C 2.5 30.4 2.2 30.8 2 31.4 C 1.9 31.9 1.8 32.4 1.8 33 C 1.8 33.7 1.9 34.4 2.1 34.9 C 2.3 35.5 2.6 35.9 3.1 36.1 C 3.5 36.4 4 36.6 4.5 36.6 C 5.2 36.6 5.7 36.4 6.2 36 C 6.6 35.6 6.9 35.1 7.1 34.4 Z M 9.1 34.3 C 9.1 33.1 9.4 32.3 10 31.7 C 10.6 31.2 11.2 31 12 31 C 12.8 31 13.5 31.3 14.1 31.9 C 14.6 32.4 14.9 33.2 14.9 34.2 C 14.9 35 14.8 35.6 14.5 36.1 C 14.3 36.5 13.9 36.9 13.5 37.1 C 13 37.4 12.5 37.5 12 37.5 C 11.1 37.5 10.4 37.2 9.9 36.7 C 9.3 36.1 9.1 35.3 9.1 34.3 Z M 10.1 34.3 C 10.1 35.1 10.3 35.7 10.7 36.1 C 11 36.5 11.5 36.7 12 36.7 C 12.5 36.7 12.9 36.5 13.3 36.1 C 13.6 35.7 13.8 35 13.8 34.2 C 13.8 33.5 13.6 32.9 13.3 32.5 C 12.9 32.1 12.5 31.9 12 31.9 C 11.5 31.9 11 32.1 10.7 32.5 C 10.3 32.9 10.1 33.5 10.1 34.3 Z M 16.1 37.4 L 16.1 31.2 L 17.1 31.2 C 17.1 31.2 17.08 32.04 17.1 32 C 17.5 31.4 18.2 31 19.1 31 C 19.4 31 19.8 31.1 20.1 31.2 C 20.4 31.4 20.6 31.5 20.8 31.7 C 21 32 21.1 32.2 21.1 32.5 C 21.2 32.7 21.2 33.1 21.2 33.6 C 21.19 33.55 21.2 37.4 21.2 37.4 L 20.1 37.4 C 20.1 37.4 20.13 33.59 20.1 33.6 C 20.1 33.2 20.1 32.8 20 32.6 C 19.9 32.4 19.8 32.2 19.6 32.1 C 19.4 32 19.1 31.9 18.8 31.9 C 18.4 31.9 18 32.1 17.7 32.4 C 17.3 32.6 17.2 33.2 17.2 34 C 17.19 33.98 17.2 37.4 17.2 37.4 L 16.1 37.4 Z M 24.6 36.5 C 24.8 36.5 24.9 36.5 25.1 36.4 C 25.1 36.4 25.3 37.4 25.3 37.4 C 25 37.4 24.7 37.5 24.5 37.5 C 24.1 37.5 23.8 37.4 23.6 37.3 C 23.4 37.2 23.2 37 23.1 36.8 C 23 36.6 23 36.2 23 35.6 C 23 35.56 23 32 23 32 L 22.2 32 L 22.2 31.2 L 23 31.2 L 23 29.6 L 24 29 L 24 31.2 L 25.1 31.2 L 25.1 32 L 24 32 C 24 32 24.05 35.62 24 35.6 C 24 35.9 24.1 36.1 24.1 36.2 C 24.1 36.3 24.2 36.4 24.3 36.4 C 24.4 36.5 24.5 36.5 24.6 36.5 C 24.6 36.5 24.6 36.5 24.6 36.5 Z M 26.1 30 L 26.1 28.8 L 27.2 28.8 L 27.2 30 L 26.1 30 Z M 26.1 37.4 L 26.1 31.2 L 27.2 31.2 L 27.2 37.4 L 26.1 37.4 Z M 28.8 37.4 L 28.8 31.2 L 29.8 31.2 C 29.8 31.2 29.75 32.04 29.8 32 C 30.2 31.4 30.9 31 31.7 31 C 32.1 31 32.5 31.1 32.8 31.2 C 33.1 31.4 33.3 31.5 33.5 31.7 C 33.6 32 33.7 32.2 33.8 32.5 C 33.8 32.7 33.9 33.1 33.9 33.6 C 33.86 33.55 33.9 37.4 33.9 37.4 L 32.8 37.4 C 32.8 37.4 32.81 33.59 32.8 33.6 C 32.8 33.2 32.8 32.8 32.7 32.6 C 32.6 32.4 32.5 32.2 32.2 32.1 C 32 32 31.8 31.9 31.5 31.9 C 31.1 31.9 30.7 32.1 30.3 32.4 C 30 32.6 29.9 33.2 29.9 34 C 29.86 33.98 29.9 37.4 29.9 37.4 L 28.8 37.4 Z M 39.6 37.4 C 39.6 37.4 39.56 36.47 39.6 36.5 C 39.1 37.2 38.4 37.5 37.6 37.5 C 37.2 37.5 36.9 37.5 36.6 37.3 C 36.2 37.2 36 37 35.8 36.8 C 35.7 36.6 35.6 36.3 35.5 36 C 35.5 35.8 35.5 35.5 35.5 35 C 35.46 35.01 35.5 31.2 35.5 31.2 L 36.5 31.2 C 36.5 31.2 36.51 34.61 36.5 34.6 C 36.5 35.2 36.5 35.5 36.6 35.7 C 36.6 36 36.8 36.2 37 36.4 C 37.2 36.5 37.5 36.6 37.8 36.6 C 38.1 36.6 38.4 36.5 38.7 36.4 C 39 36.2 39.2 36 39.3 35.7 C 39.4 35.4 39.4 35 39.4 34.5 C 39.45 34.49 39.4 31.2 39.4 31.2 L 40.5 31.2 L 40.5 37.4 L 39.6 37.4 Z M 41.8 34.3 C 41.8 33.1 42.1 32.3 42.7 31.7 C 43.3 31.2 43.9 31 44.7 31 C 45.5 31 46.2 31.3 46.8 31.9 C 47.3 32.4 47.6 33.2 47.6 34.2 C 47.6 35 47.5 35.6 47.2 36.1 C 47 36.5 46.6 36.9 46.2 37.1 C 45.7 37.4 45.2 37.5 44.7 37.5 C 43.8 37.5 43.1 37.2 42.6 36.7 C 42 36.1 41.8 35.3 41.8 34.3 Z M 42.8 34.3 C 42.8 35.1 43 35.7 43.4 36.1 C 43.7 36.5 44.2 36.7 44.7 36.7 C 45.2 36.7 45.6 36.5 46 36.1 C 46.3 35.7 46.5 35 46.5 34.2 C 46.5 33.5 46.3 32.9 46 32.5 C 45.6 32.1 45.2 31.9 44.7 31.9 C 44.2 31.9 43.7 32.1 43.4 32.5 C 43 32.9 42.8 33.5 42.8 34.3 Z M 52.9 37.4 C 52.9 37.4 52.9 36.47 52.9 36.5 C 52.4 37.2 51.8 37.5 50.9 37.5 C 50.6 37.5 50.2 37.5 49.9 37.3 C 49.6 37.2 49.3 37 49.2 36.8 C 49 36.6 48.9 36.3 48.9 36 C 48.8 35.8 48.8 35.5 48.8 35 C 48.8 35.01 48.8 31.2 48.8 31.2 L 49.9 31.2 C 49.9 31.2 49.86 34.61 49.9 34.6 C 49.9 35.2 49.9 35.5 49.9 35.7 C 50 36 50.1 36.2 50.3 36.4 C 50.6 36.5 50.8 36.6 51.1 36.6 C 51.5 36.6 51.8 36.5 52 36.4 C 52.3 36.2 52.5 36 52.6 35.7 C 52.7 35.4 52.8 35 52.8 34.5 C 52.79 34.49 52.8 31.2 52.8 31.2 L 53.8 31.2 L 53.8 37.4 L 52.9 37.4 Z M 55.1 35.5 C 55.1 35.5 56.1 35.4 56.1 35.4 C 56.2 35.8 56.3 36.1 56.6 36.3 C 56.9 36.5 57.3 36.7 57.7 36.7 C 58.2 36.7 58.6 36.6 58.8 36.4 C 59 36.2 59.2 35.9 59.2 35.7 C 59.2 35.4 59.1 35.2 58.9 35.1 C 58.7 35 58.3 34.9 57.8 34.7 C 57 34.5 56.5 34.4 56.2 34.2 C 55.9 34.1 55.6 33.9 55.5 33.6 C 55.3 33.4 55.3 33.1 55.3 32.8 C 55.3 32.5 55.3 32.3 55.4 32 C 55.6 31.8 55.7 31.6 56 31.5 C 56.1 31.3 56.4 31.2 56.6 31.1 C 56.9 31.1 57.2 31 57.5 31 C 58 31 58.5 31.1 58.8 31.2 C 59.2 31.4 59.5 31.6 59.6 31.8 C 59.8 32 59.9 32.4 60 32.8 C 60 32.8 59 32.9 59 32.9 C 58.9 32.6 58.8 32.3 58.6 32.2 C 58.3 32 58 31.9 57.6 31.9 C 57.1 31.9 56.8 32 56.6 32.1 C 56.4 32.3 56.3 32.5 56.3 32.7 C 56.3 32.8 56.3 32.9 56.4 33.1 C 56.5 33.2 56.6 33.3 56.8 33.3 C 56.9 33.4 57.2 33.5 57.7 33.6 C 58.5 33.8 59 34 59.3 34.1 C 59.6 34.2 59.8 34.4 60 34.6 C 60.2 34.9 60.2 35.2 60.2 35.6 C 60.2 35.9 60.1 36.2 59.9 36.5 C 59.7 36.9 59.4 37.1 59.1 37.3 C 58.7 37.4 58.2 37.5 57.7 37.5 C 56.9 37.5 56.3 37.4 55.9 37 C 55.5 36.7 55.2 36.2 55.1 35.5 Z M 64.8 30 L 64.8 28.8 L 65.9 28.8 L 65.9 30 L 64.8 30 Z M 64.8 37.4 L 64.8 31.2 L 65.9 31.2 L 65.9 37.4 L 64.8 37.4 Z M 67.5 37.4 L 67.5 31.2 L 68.4 31.2 C 68.4 31.2 68.44 32.03 68.4 32 C 68.6 31.7 68.9 31.5 69.2 31.3 C 69.5 31.1 69.9 31 70.3 31 C 70.8 31 71.2 31.1 71.5 31.3 C 71.8 31.5 72 31.8 72.1 32.1 C 72.6 31.4 73.2 31 74 31 C 74.6 31 75.1 31.2 75.4 31.5 C 75.8 31.9 75.9 32.4 75.9 33.1 C 75.93 33.11 75.9 37.4 75.9 37.4 L 74.9 37.4 C 74.9 37.4 74.88 33.46 74.9 33.5 C 74.9 33 74.8 32.7 74.8 32.5 C 74.7 32.4 74.6 32.2 74.4 32.1 C 74.2 32 74 31.9 73.8 31.9 C 73.3 31.9 73 32.1 72.7 32.4 C 72.4 32.7 72.3 33.1 72.3 33.8 C 72.25 33.76 72.3 37.4 72.3 37.4 L 71.2 37.4 C 71.2 37.4 71.2 33.34 71.2 33.3 C 71.2 32.9 71.1 32.5 70.9 32.3 C 70.8 32 70.5 31.9 70.1 31.9 C 69.8 31.9 69.5 32 69.3 32.2 C 69 32.3 68.8 32.5 68.7 32.9 C 68.6 33.2 68.6 33.6 68.6 34.2 C 68.55 34.15 68.6 37.4 68.6 37.4 L 67.5 37.4 Z M 77.5 39.8 L 77.5 31.2 L 78.5 31.2 C 78.5 31.2 78.46 31.97 78.5 32 C 78.7 31.6 78.9 31.4 79.2 31.3 C 79.5 31.1 79.9 31 80.3 31 C 80.8 31 81.3 31.2 81.7 31.4 C 82.1 31.7 82.4 32.1 82.6 32.6 C 82.8 33.1 82.9 33.6 82.9 34.2 C 82.9 34.9 82.8 35.4 82.6 35.9 C 82.3 36.5 82 36.8 81.6 37.1 C 81.1 37.4 80.7 37.5 80.2 37.5 C 79.8 37.5 79.5 37.4 79.2 37.3 C 79 37.1 78.7 37 78.6 36.7 C 78.55 36.74 78.6 39.8 78.6 39.8 L 77.5 39.8 Z M 78.5 34.3 C 78.5 35.1 78.6 35.7 78.9 36.1 C 79.3 36.5 79.7 36.7 80.1 36.7 C 80.6 36.7 81 36.5 81.3 36.1 C 81.7 35.7 81.8 35 81.8 34.2 C 81.8 33.4 81.7 32.8 81.3 32.4 C 81 32 80.6 31.8 80.2 31.8 C 79.7 31.8 79.3 32.1 79 32.5 C 78.6 32.9 78.5 33.5 78.5 34.3 Z M 84.2 37.4 L 84.2 31.2 L 85.1 31.2 C 85.1 31.2 85.11 32.1 85.1 32.1 C 85.3 31.7 85.6 31.4 85.8 31.2 C 86 31.1 86.2 31 86.5 31 C 86.8 31 87.2 31.1 87.5 31.4 C 87.5 31.4 87.2 32.3 87.2 32.3 C 86.9 32.2 86.7 32.1 86.4 32.1 C 86.2 32.1 86 32.2 85.8 32.3 C 85.6 32.5 85.5 32.6 85.4 32.9 C 85.3 33.3 85.2 33.7 85.2 34.1 C 85.21 34.12 85.2 37.4 85.2 37.4 L 84.2 37.4 Z M 87.8 34.3 C 87.8 33.1 88.1 32.3 88.7 31.7 C 89.3 31.2 89.9 31 90.7 31 C 91.5 31 92.2 31.3 92.8 31.9 C 93.3 32.4 93.6 33.2 93.6 34.2 C 93.6 35 93.5 35.6 93.2 36.1 C 93 36.5 92.7 36.9 92.2 37.1 C 91.7 37.4 91.2 37.5 90.7 37.5 C 89.8 37.5 89.1 37.2 88.6 36.7 C 88 36.1 87.8 35.3 87.8 34.3 Z M 88.9 34.3 C 88.9 35.1 89 35.7 89.4 36.1 C 89.7 36.5 90.2 36.7 90.7 36.7 C 91.2 36.7 91.7 36.5 92 36.1 C 92.3 35.7 92.5 35 92.5 34.2 C 92.5 33.5 92.3 32.9 92 32.5 C 91.6 32.1 91.2 31.9 90.7 31.9 C 90.2 31.9 89.7 32.1 89.4 32.5 C 89 32.9 88.9 33.5 88.9 34.3 Z M 96.6 37.4 L 94.2 31.2 L 95.3 31.2 C 95.3 31.2 96.65 34.88 96.7 34.9 C 96.8 35.3 96.9 35.7 97 36.1 C 97.1 35.8 97.3 35.4 97.4 35 C 97.44 34.95 98.8 31.2 98.8 31.2 L 99.9 31.2 L 97.6 37.4 L 96.6 37.4 Z M 105.1 35.4 C 105.1 35.4 106.2 35.5 106.2 35.5 C 106 36.1 105.7 36.6 105.2 37 C 104.8 37.3 104.2 37.5 103.5 37.5 C 102.5 37.5 101.8 37.2 101.3 36.7 C 100.8 36.1 100.5 35.3 100.5 34.3 C 100.5 33.3 100.8 32.5 101.3 31.9 C 101.8 31.3 102.5 31 103.4 31 C 104.2 31 104.9 31.3 105.4 31.9 C 106 32.4 106.2 33.2 106.2 34.3 C 106.2 34.3 106.2 34.4 106.2 34.5 C 106.2 34.5 101.6 34.5 101.6 34.5 C 101.6 35.2 101.8 35.7 102.2 36.1 C 102.5 36.5 102.9 36.7 103.5 36.7 C 103.8 36.7 104.2 36.6 104.4 36.3 C 104.7 36.1 104.9 35.8 105.1 35.4 Z M 101.6 33.7 C 101.6 33.7 105.1 33.7 105.1 33.7 C 105.1 33.1 104.9 32.8 104.7 32.5 C 104.4 32.1 103.9 31.9 103.4 31.9 C 102.9 31.9 102.5 32 102.2 32.4 C 101.9 32.7 101.7 33.1 101.6 33.7 Z M 107.5 37.4 L 107.5 31.2 L 108.5 31.2 C 108.5 31.2 108.46 32.03 108.5 32 C 108.7 31.7 108.9 31.5 109.2 31.3 C 109.6 31.1 109.9 31 110.3 31 C 110.8 31 111.2 31.1 111.5 31.3 C 111.8 31.5 112 31.8 112.1 32.1 C 112.6 31.4 113.2 31 114 31 C 114.6 31 115.1 31.2 115.4 31.5 C 115.8 31.9 115.9 32.4 115.9 33.1 C 115.95 33.11 115.9 37.4 115.9 37.4 L 114.9 37.4 C 114.9 37.4 114.9 33.46 114.9 33.5 C 114.9 33 114.9 32.7 114.8 32.5 C 114.7 32.4 114.6 32.2 114.4 32.1 C 114.2 32 114 31.9 113.8 31.9 C 113.4 31.9 113 32.1 112.7 32.4 C 112.4 32.7 112.3 33.1 112.3 33.8 C 112.27 33.76 112.3 37.4 112.3 37.4 L 111.2 37.4 C 111.2 37.4 111.21 33.34 111.2 33.3 C 111.2 32.9 111.1 32.5 111 32.3 C 110.8 32 110.5 31.9 110.1 31.9 C 109.8 31.9 109.5 32 109.3 32.2 C 109 32.3 108.9 32.5 108.7 32.9 C 108.6 33.2 108.6 33.6 108.6 34.2 C 108.57 34.15 108.6 37.4 108.6 37.4 L 107.5 37.4 Z M 121.8 35.4 C 121.8 35.4 122.9 35.5 122.9 35.5 C 122.7 36.1 122.4 36.6 121.9 37 C 121.4 37.3 120.8 37.5 120.1 37.5 C 119.2 37.5 118.5 37.2 118 36.7 C 117.4 36.1 117.2 35.3 117.2 34.3 C 117.2 33.3 117.4 32.5 118 31.9 C 118.5 31.3 119.2 31 120.1 31 C 120.9 31 121.6 31.3 122.1 31.9 C 122.6 32.4 122.9 33.2 122.9 34.3 C 122.9 34.3 122.9 34.4 122.9 34.5 C 122.9 34.5 118.2 34.5 118.2 34.5 C 118.3 35.2 118.5 35.7 118.8 36.1 C 119.2 36.5 119.6 36.7 120.1 36.7 C 120.5 36.7 120.8 36.6 121.1 36.3 C 121.4 36.1 121.6 35.8 121.8 35.4 Z M 118.3 33.7 C 118.3 33.7 121.8 33.7 121.8 33.7 C 121.7 33.1 121.6 32.8 121.4 32.5 C 121 32.1 120.6 31.9 120.1 31.9 C 119.6 31.9 119.2 32 118.9 32.4 C 118.5 32.7 118.3 33.1 118.3 33.7 Z M 124.2 37.4 L 124.2 31.2 L 125.1 31.2 C 125.1 31.2 125.13 32.04 125.1 32 C 125.6 31.4 126.2 31 127.1 31 C 127.5 31 127.8 31.1 128.1 31.2 C 128.5 31.4 128.7 31.5 128.9 31.7 C 129 32 129.1 32.2 129.2 32.5 C 129.2 32.7 129.2 33.1 129.2 33.6 C 129.24 33.55 129.2 37.4 129.2 37.4 L 128.2 37.4 C 128.2 37.4 128.19 33.59 128.2 33.6 C 128.2 33.2 128.1 32.8 128.1 32.6 C 128 32.4 127.8 32.2 127.6 32.1 C 127.4 32 127.2 31.9 126.9 31.9 C 126.4 31.9 126.1 32.1 125.7 32.4 C 125.4 32.6 125.2 33.2 125.2 34 C 125.24 33.98 125.2 37.4 125.2 37.4 L 124.2 37.4 Z M 132.7 36.5 C 132.8 36.5 133 36.5 133.2 36.4 C 133.2 36.4 133.3 37.4 133.3 37.4 C 133 37.4 132.8 37.5 132.5 37.5 C 132.1 37.5 131.8 37.4 131.6 37.3 C 131.4 37.2 131.3 37 131.2 36.8 C 131.1 36.6 131.1 36.2 131.1 35.6 C 131.05 35.56 131.1 32 131.1 32 L 130.3 32 L 130.3 31.2 L 131.1 31.2 L 131.1 29.6 L 132.1 29 L 132.1 31.2 L 133.2 31.2 L 133.2 32 L 132.1 32 C 132.1 32 132.1 35.62 132.1 35.6 C 132.1 35.9 132.1 36.1 132.2 36.2 C 132.2 36.3 132.3 36.4 132.3 36.4 C 132.4 36.5 132.5 36.5 132.7 36.5 C 132.7 36.5 132.7 36.5 132.7 36.5 Z M 134.5 37.4 L 134.5 36.2 L 135.7 36.2 C 135.7 36.2 135.67 37.38 135.7 37.4 C 135.7 37.8 135.6 38.2 135.4 38.4 C 135.3 38.7 135 38.9 134.7 39.1 C 134.7 39.1 134.4 38.6 134.4 38.6 C 134.6 38.5 134.8 38.4 134.9 38.2 C 135 38 135.1 37.7 135.1 37.4 C 135.06 37.38 134.5 37.4 134.5 37.4 Z M 145.1 35.4 C 145.1 35.4 146.2 35.5 146.2 35.5 C 146 36.1 145.7 36.6 145.3 37 C 144.8 37.3 144.2 37.5 143.5 37.5 C 142.6 37.5 141.8 37.2 141.3 36.7 C 140.8 36.1 140.5 35.3 140.5 34.3 C 140.5 33.3 140.8 32.5 141.3 31.9 C 141.9 31.3 142.6 31 143.4 31 C 144.2 31 144.9 31.3 145.5 31.9 C 146 32.4 146.2 33.2 146.2 34.3 C 146.2 34.3 146.2 34.4 146.2 34.5 C 146.2 34.5 141.6 34.5 141.6 34.5 C 141.6 35.2 141.8 35.7 142.2 36.1 C 142.5 36.5 143 36.7 143.5 36.7 C 143.9 36.7 144.2 36.6 144.5 36.3 C 144.7 36.1 145 35.8 145.1 35.4 Z M 141.7 33.7 C 141.7 33.7 145.1 33.7 145.1 33.7 C 145.1 33.1 145 32.8 144.7 32.5 C 144.4 32.1 144 31.9 143.4 31.9 C 142.9 31.9 142.5 32 142.2 32.4 C 141.9 32.7 141.7 33.1 141.7 33.7 Z M 147.5 37.4 L 147.5 31.2 L 148.5 31.2 C 148.5 31.2 148.48 32.03 148.5 32 C 148.7 31.7 148.9 31.5 149.3 31.3 C 149.6 31.1 149.9 31 150.4 31 C 150.8 31 151.2 31.1 151.5 31.3 C 151.8 31.5 152 31.8 152.1 32.1 C 152.6 31.4 153.3 31 154 31 C 154.7 31 155.1 31.2 155.5 31.5 C 155.8 31.9 156 32.4 156 33.1 C 155.96 33.11 156 37.4 156 37.4 L 154.9 37.4 C 154.9 37.4 154.92 33.46 154.9 33.5 C 154.9 33 154.9 32.7 154.8 32.5 C 154.7 32.4 154.6 32.2 154.4 32.1 C 154.3 32 154.1 31.9 153.8 31.9 C 153.4 31.9 153 32.1 152.7 32.4 C 152.4 32.7 152.3 33.1 152.3 33.8 C 152.29 33.76 152.3 37.4 152.3 37.4 L 151.2 37.4 C 151.2 37.4 151.23 33.34 151.2 33.3 C 151.2 32.9 151.1 32.5 151 32.3 C 150.8 32 150.5 31.9 150.1 31.9 C 149.8 31.9 149.6 32 149.3 32.2 C 149.1 32.3 148.9 32.5 148.8 32.9 C 148.6 33.2 148.6 33.6 148.6 34.2 C 148.59 34.15 148.6 37.4 148.6 37.4 L 147.5 37.4 Z M 158.5 37.4 L 157.5 37.4 L 157.5 28.8 L 158.6 28.8 C 158.6 28.8 158.58 31.85 158.6 31.9 C 159 31.3 159.6 31 160.3 31 C 160.7 31 161 31.1 161.4 31.2 C 161.7 31.4 162 31.6 162.2 31.9 C 162.4 32.2 162.6 32.5 162.7 32.9 C 162.9 33.3 162.9 33.7 162.9 34.2 C 162.9 35.2 162.7 36.1 162.1 36.6 C 161.6 37.2 161 37.5 160.2 37.5 C 159.5 37.5 158.9 37.2 158.5 36.6 C 158.5 36.6 158.5 37.4 158.5 37.4 Z M 158.5 34.2 C 158.5 35 158.6 35.5 158.8 35.8 C 159.1 36.4 159.6 36.7 160.1 36.7 C 160.6 36.7 161 36.5 161.3 36.1 C 161.7 35.7 161.8 35.1 161.8 34.3 C 161.8 33.5 161.7 32.9 161.4 32.5 C 161 32.1 160.6 31.9 160.2 31.9 C 159.7 31.9 159.3 32.1 159 32.5 C 158.7 32.9 158.5 33.5 158.5 34.2 Z M 164.2 37.4 L 164.2 31.2 L 165.1 31.2 C 165.1 31.2 165.14 32.1 165.1 32.1 C 165.4 31.7 165.6 31.4 165.8 31.2 C 166 31.1 166.2 31 166.5 31 C 166.8 31 167.2 31.1 167.6 31.4 C 167.6 31.4 167.2 32.3 167.2 32.3 C 167 32.2 166.7 32.1 166.4 32.1 C 166.2 32.1 166 32.2 165.8 32.3 C 165.6 32.5 165.5 32.6 165.4 32.9 C 165.3 33.3 165.2 33.7 165.2 34.1 C 165.25 34.12 165.2 37.4 165.2 37.4 L 164.2 37.4 Z M 172.5 37.4 C 172.4 37.2 172.3 36.9 172.3 36.6 C 171.9 36.9 171.5 37.2 171.1 37.3 C 170.8 37.5 170.4 37.5 170 37.5 C 169.3 37.5 168.8 37.4 168.4 37 C 168 36.7 167.8 36.3 167.8 35.7 C 167.8 35.4 167.9 35.2 168 34.9 C 168.2 34.7 168.4 34.5 168.6 34.3 C 168.8 34.1 169.1 34 169.4 34 C 169.6 33.9 169.9 33.8 170.3 33.8 C 171.1 33.7 171.8 33.6 172.2 33.4 C 172.2 33.3 172.2 33.2 172.2 33.2 C 172.2 32.7 172.1 32.4 171.9 32.2 C 171.6 32 171.2 31.9 170.7 31.9 C 170.2 31.9 169.8 32 169.6 32.2 C 169.3 32.3 169.2 32.6 169.1 33.1 C 169.1 33.1 168 32.9 168 32.9 C 168.1 32.5 168.3 32.1 168.5 31.9 C 168.7 31.6 169 31.4 169.4 31.2 C 169.8 31.1 170.3 31 170.8 31 C 171.4 31 171.8 31.1 172.1 31.2 C 172.5 31.3 172.7 31.5 172.9 31.7 C 173 31.9 173.1 32.1 173.2 32.4 C 173.2 32.6 173.2 32.9 173.2 33.4 C 173.2 33.4 173.2 34.8 173.2 34.8 C 173.2 35.8 173.3 36.4 173.3 36.6 C 173.4 36.9 173.4 37.1 173.6 37.4 C 173.57 37.38 172.5 37.4 172.5 37.4 C 172.5 37.4 172.47 37.38 172.5 37.4 Z M 172.2 34.3 C 171.8 34.4 171.2 34.5 170.4 34.7 C 170 34.7 169.7 34.8 169.5 34.9 C 169.3 34.9 169.2 35.1 169.1 35.2 C 169 35.4 169 35.5 169 35.7 C 169 36 169.1 36.2 169.3 36.4 C 169.5 36.6 169.8 36.7 170.2 36.7 C 170.6 36.7 171 36.6 171.3 36.4 C 171.6 36.2 171.9 36 172 35.7 C 172.1 35.5 172.2 35.1 172.2 34.6 C 172.2 34.6 172.2 34.3 172.2 34.3 Z M 178.9 35.1 C 178.9 35.1 180 35.2 180 35.2 C 179.9 36 179.6 36.5 179.1 36.9 C 178.6 37.3 178.1 37.5 177.4 37.5 C 176.5 37.5 175.8 37.2 175.3 36.7 C 174.8 36.1 174.6 35.3 174.6 34.3 C 174.6 33.6 174.7 33 174.9 32.5 C 175.1 32 175.4 31.6 175.9 31.4 C 176.4 31.1 176.9 31 177.4 31 C 178.1 31 178.6 31.2 179 31.5 C 179.5 31.9 179.7 32.4 179.9 33 C 179.9 33 178.8 33.1 178.8 33.1 C 178.7 32.7 178.6 32.4 178.3 32.2 C 178.1 32 177.8 31.9 177.4 31.9 C 176.9 31.9 176.5 32.1 176.1 32.5 C 175.8 32.8 175.6 33.4 175.6 34.3 C 175.6 35.1 175.8 35.7 176.1 36.1 C 176.4 36.5 176.9 36.7 177.4 36.7 C 177.8 36.7 178.1 36.5 178.4 36.3 C 178.7 36 178.9 35.6 178.9 35.1 Z M 185.1 35.4 C 185.1 35.4 186.2 35.5 186.2 35.5 C 186.1 36.1 185.7 36.6 185.3 37 C 184.8 37.3 184.2 37.5 183.5 37.5 C 182.6 37.5 181.9 37.2 181.3 36.7 C 180.8 36.1 180.5 35.3 180.5 34.3 C 180.5 33.3 180.8 32.5 181.3 31.9 C 181.9 31.3 182.6 31 183.4 31 C 184.3 31 184.9 31.3 185.5 31.9 C 186 32.4 186.3 33.2 186.3 34.3 C 186.3 34.3 186.3 34.4 186.3 34.5 C 186.3 34.5 181.6 34.5 181.6 34.5 C 181.7 35.2 181.8 35.7 182.2 36.1 C 182.5 36.5 183 36.7 183.5 36.7 C 183.9 36.7 184.2 36.6 184.5 36.3 C 184.8 36.1 185 35.8 185.1 35.4 Z M 181.7 33.7 C 181.7 33.7 185.1 33.7 185.1 33.7 C 185.1 33.1 185 32.8 184.7 32.5 C 184.4 32.1 184 31.9 183.4 31.9 C 183 31.9 182.5 32 182.2 32.4 C 181.9 32.7 181.7 33.1 181.7 33.7 Z M 194.9 35.1 C 194.9 35.1 196 35.2 196 35.2 C 195.9 36 195.6 36.5 195.1 36.9 C 194.6 37.3 194.1 37.5 193.4 37.5 C 192.5 37.5 191.9 37.2 191.3 36.7 C 190.8 36.1 190.6 35.3 190.6 34.3 C 190.6 33.6 190.7 33 190.9 32.5 C 191.1 32 191.5 31.6 191.9 31.4 C 192.4 31.1 192.9 31 193.4 31 C 194.1 31 194.6 31.2 195.1 31.5 C 195.5 31.9 195.8 32.4 195.9 33 C 195.9 33 194.9 33.1 194.9 33.1 C 194.8 32.7 194.6 32.4 194.3 32.2 C 194.1 32 193.8 31.9 193.4 31.9 C 192.9 31.9 192.5 32.1 192.1 32.5 C 191.8 32.8 191.6 33.4 191.6 34.3 C 191.6 35.1 191.8 35.7 192.1 36.1 C 192.4 36.5 192.9 36.7 193.4 36.7 C 193.8 36.7 194.1 36.5 194.4 36.3 C 194.7 36 194.9 35.6 194.9 35.1 Z M 196.9 37.4 L 196.9 28.8 L 197.9 28.8 C 197.9 28.8 197.94 31.87 197.9 31.9 C 198.4 31.3 199 31 199.8 31 C 200.3 31 200.7 31.1 201 31.3 C 201.3 31.5 201.6 31.7 201.7 32 C 201.9 32.4 201.9 32.8 201.9 33.4 C 201.95 33.44 201.9 37.4 201.9 37.4 L 200.9 37.4 C 200.9 37.4 200.89 33.44 200.9 33.4 C 200.9 32.9 200.8 32.5 200.6 32.3 C 200.3 32 200 31.9 199.6 31.9 C 199.3 31.9 199 32 198.7 32.2 C 198.4 32.3 198.2 32.5 198.1 32.8 C 198 33.1 197.9 33.5 197.9 34 C 197.94 33.98 197.9 37.4 197.9 37.4 L 196.9 37.4 Z M 207.8 37.4 C 207.7 37.2 207.6 36.9 207.6 36.6 C 207.2 36.9 206.8 37.2 206.5 37.3 C 206.1 37.5 205.7 37.5 205.3 37.5 C 204.6 37.5 204.1 37.4 203.7 37 C 203.4 36.7 203.2 36.3 203.2 35.7 C 203.2 35.4 203.3 35.2 203.4 34.9 C 203.5 34.7 203.7 34.5 204 34.3 C 204.2 34.1 204.4 34 204.7 34 C 204.9 33.9 205.2 33.8 205.6 33.8 C 206.5 33.7 207.1 33.6 207.5 33.4 C 207.5 33.3 207.5 33.2 207.5 33.2 C 207.5 32.7 207.4 32.4 207.2 32.2 C 207 32 206.6 31.9 206 31.9 C 205.5 31.9 205.2 32 204.9 32.2 C 204.7 32.3 204.5 32.6 204.4 33.1 C 204.4 33.1 203.4 32.9 203.4 32.9 C 203.5 32.5 203.6 32.1 203.8 31.9 C 204.1 31.6 204.4 31.4 204.8 31.2 C 205.2 31.1 205.7 31 206.2 31 C 206.7 31 207.1 31.1 207.5 31.2 C 207.8 31.3 208.1 31.5 208.2 31.7 C 208.4 31.9 208.5 32.1 208.5 32.4 C 208.6 32.6 208.6 32.9 208.6 33.4 C 208.6 33.4 208.6 34.8 208.6 34.8 C 208.6 35.8 208.6 36.4 208.7 36.6 C 208.7 36.9 208.8 37.1 208.9 37.4 C 208.93 37.38 207.8 37.4 207.8 37.4 C 207.8 37.4 207.83 37.38 207.8 37.4 Z M 207.5 34.3 C 207.1 34.4 206.6 34.5 205.8 34.7 C 205.4 34.7 205.1 34.8 204.9 34.9 C 204.7 34.9 204.6 35.1 204.5 35.2 C 204.4 35.4 204.3 35.5 204.3 35.7 C 204.3 36 204.4 36.2 204.6 36.4 C 204.9 36.6 205.2 36.7 205.6 36.7 C 206 36.7 206.3 36.6 206.7 36.4 C 207 36.2 207.2 36 207.4 35.7 C 207.5 35.5 207.5 35.1 207.5 34.6 C 207.5 34.6 207.5 34.3 207.5 34.3 Z M 210.2 37.4 L 210.2 31.2 L 211.2 31.2 C 211.2 31.2 211.18 32.04 211.2 32 C 211.6 31.4 212.3 31 213.2 31 C 213.5 31 213.9 31.1 214.2 31.2 C 214.5 31.4 214.7 31.5 214.9 31.7 C 215.1 32 215.2 32.2 215.2 32.5 C 215.3 32.7 215.3 33.1 215.3 33.6 C 215.29 33.55 215.3 37.4 215.3 37.4 L 214.2 37.4 C 214.2 37.4 214.23 33.59 214.2 33.6 C 214.2 33.2 214.2 32.8 214.1 32.6 C 214 32.4 213.9 32.2 213.7 32.1 C 213.5 32 213.2 31.9 212.9 31.9 C 212.5 31.9 212.1 32.1 211.8 32.4 C 211.4 32.6 211.3 33.2 211.3 34 C 211.28 33.98 211.3 37.4 211.3 37.4 L 210.2 37.4 Z M 216.7 37.9 C 216.7 37.9 217.7 38 217.7 38 C 217.8 38.4 217.9 38.6 218.1 38.7 C 218.4 38.9 218.7 39 219.2 39 C 219.7 39 220 38.9 220.3 38.7 C 220.6 38.5 220.7 38.3 220.8 37.9 C 220.9 37.7 220.9 37.3 220.9 36.6 C 220.4 37.1 219.9 37.4 219.2 37.4 C 218.3 37.4 217.7 37.1 217.2 36.5 C 216.7 35.8 216.5 35.1 216.5 34.2 C 216.5 33.6 216.6 33.1 216.8 32.6 C 217 32.1 217.3 31.7 217.8 31.4 C 218.2 31.2 218.6 31 219.2 31 C 219.9 31 220.5 31.3 221 31.9 C 221.01 31.91 221 31.2 221 31.2 L 222 31.2 C 222 31.2 221.98 36.54 222 36.5 C 222 37.5 221.9 38.2 221.7 38.6 C 221.5 39 221.2 39.3 220.7 39.6 C 220.3 39.8 219.8 39.9 219.2 39.9 C 218.4 39.9 217.8 39.7 217.4 39.4 C 216.9 39.1 216.7 38.6 216.7 37.9 Z M 217.6 34.2 C 217.6 35 217.7 35.6 218.1 35.9 C 218.4 36.3 218.8 36.5 219.3 36.5 C 219.8 36.5 220.2 36.3 220.5 35.9 C 220.8 35.6 221 35 221 34.2 C 221 33.4 220.8 32.9 220.5 32.5 C 220.2 32.1 219.7 31.9 219.3 31.9 C 218.8 31.9 218.4 32.1 218.1 32.5 C 217.7 32.8 217.6 33.4 217.6 34.2 Z M 227.8 35.4 C 227.8 35.4 228.9 35.5 228.9 35.5 C 228.8 36.1 228.4 36.6 228 37 C 227.5 37.3 226.9 37.5 226.2 37.5 C 225.3 37.5 224.6 37.2 224 36.7 C 223.5 36.1 223.2 35.3 223.2 34.3 C 223.2 33.3 223.5 32.5 224 31.9 C 224.6 31.3 225.3 31 226.1 31 C 227 31 227.6 31.3 228.2 31.9 C 228.7 32.4 229 33.2 229 34.3 C 229 34.3 229 34.4 229 34.5 C 229 34.5 224.3 34.5 224.3 34.5 C 224.4 35.2 224.5 35.7 224.9 36.1 C 225.2 36.5 225.7 36.7 226.2 36.7 C 226.6 36.7 226.9 36.6 227.2 36.3 C 227.5 36.1 227.7 35.8 227.8 35.4 Z M 224.4 33.7 C 224.4 33.7 227.8 33.7 227.8 33.7 C 227.8 33.1 227.7 32.8 227.4 32.5 C 227.1 32.1 226.7 31.9 226.1 31.9 C 225.7 31.9 225.3 32 224.9 32.4 C 224.6 32.7 224.4 33.1 224.4 33.7 Z M 230.5 37.4 L 230.5 36.2 L 231.7 36.2 C 231.7 36.2 231.73 37.38 231.7 37.4 C 231.7 37.8 231.6 38.2 231.5 38.4 C 231.3 38.7 231.1 38.9 230.7 39.1 C 230.7 39.1 230.5 38.6 230.5 38.6 C 230.7 38.5 230.8 38.4 230.9 38.2 C 231.1 38 231.1 37.7 231.1 37.4 C 231.12 37.38 230.5 37.4 230.5 37.4 Z " stroke="none" fill="#ffffff"/>  </g>  <g id="Polygon3653">    <path d="M 2.7 5.1 L 2.7 17.4 L 1.4 17.4 L 1.4 5.1 L 2.7 5.1 Z M 6.6 5.1 L 15.3 15.3 L 15.3 5.1 L 16.6 5.1 L 16.6 17.4 L 15.4 17.4 L 6.8 7.3 L 6.8 17.4 L 5.5 17.4 L 5.5 5.1 L 6.6 5.1 Z M 20.5 5.1 L 29.2 15.3 L 29.2 5.1 L 30.5 5.1 L 30.5 17.4 L 29.3 17.4 L 20.6 7.3 L 20.6 17.4 L 19.3 17.4 L 19.3 5.1 L 20.5 5.1 Z M 45.6 11.2 C 45.6 14.6 43.1 17.5 39 17.5 C 35.2 17.5 32.7 14.6 32.7 11.3 C 32.7 7.9 35.1 4.9 39.1 4.9 C 43 4.9 45.6 7.8 45.6 11.2 Z M 34.1 11.3 C 34.1 14.2 36.3 16.3 39.1 16.3 C 42.7 16.3 44.2 13.4 44.2 11.2 C 44.2 8.7 42.4 6.2 39.2 6.2 C 35.8 6.2 34.1 8.8 34.1 11.3 Z M 45.9 5.1 L 47.3 5.1 L 51.3 14.7 L 51.3 14.7 L 55.3 5.1 L 56.6 5.1 L 51.4 17.5 L 51.1 17.5 L 45.9 5.1 Z M 61.9 5 L 67.4 17.4 L 66 17.4 L 64.3 13.5 L 58.7 13.5 L 57 17.4 L 55.7 17.4 L 61 5 L 61.9 5 Z M 59.2 12.3 L 63.7 12.3 L 61.4 7.1 L 59.2 12.3 Z M 76.2 5.1 L 76.2 6.3 L 71.9 6.3 L 71.9 17.4 L 70.5 17.4 L 70.5 6.3 L 66.2 6.3 L 66.2 5.1 L 76.2 5.1 Z M 79.3 5.1 L 79.3 17.4 L 77.9 17.4 L 77.9 5.1 L 79.3 5.1 Z M 80.7 5.1 L 82 5.1 L 86 14.7 L 86 14.7 L 90 5.1 L 91.3 5.1 L 86.2 17.5 L 85.9 17.5 L 80.7 5.1 Z M 99.5 5.1 L 99.5 6.3 L 94.1 6.3 L 94.1 10.6 L 99.3 10.6 L 99.3 11.8 L 94.1 11.8 L 94.1 16.2 L 99.6 16.2 L 99.6 17.4 L 92.8 17.4 L 92.8 5.1 L 99.5 5.1 Z " stroke="none" fill="#fff"/>  </g></svg>