<?xml version="1.0" standalone="no"?><!DOCTYPE svg PUBLIC "-//W3C//DTD SVG 1.1//EN" "http://www.w3.org/Graphics/SVG/1.1/DTD/svg11.dtd"><svg xmlns="http://www.w3.org/2000/svg" version="1.1" width="274px" height="74.5px" viewBox="0 -2 274 74.5" style="top:-2px">  <desc>Incisive No red tape, non bureaucratic, solution oriented, accountable and responsible for delivering against agreed ...</desc>  <defs/>  <g id="Polygon2158">    <path d="M 5.1 65.3 C 5 65.1 4.9 64.8 4.9 64.5 C 4.5 64.9 4.1 65.1 3.7 65.2 C 3.4 65.4 3 65.4 2.6 65.4 C 1.9 65.4 1.4 65.3 1 64.9 C 0.6 64.6 0.4 64.2 0.4 63.7 C 0.4 63.3 0.5 63.1 0.6 62.8 C 0.8 62.6 1 62.4 1.2 62.2 C 1.4 62.1 1.7 61.9 1.9 61.9 C 2.2 61.8 2.5 61.8 2.9 61.7 C 3.7 61.6 4.4 61.5 4.8 61.3 C 4.8 61.2 4.8 61.1 4.8 61.1 C 4.8 60.6 4.7 60.3 4.5 60.2 C 4.2 59.9 3.8 59.8 3.3 59.8 C 2.8 59.8 2.4 59.9 2.2 60.1 C 1.9 60.2 1.8 60.5 1.6 61 C 1.6 61 0.6 60.8 0.6 60.8 C 0.7 60.4 0.9 60 1.1 59.8 C 1.3 59.5 1.6 59.3 2 59.1 C 2.4 59 2.9 58.9 3.4 58.9 C 4 58.9 4.4 59 4.7 59.1 C 5 59.2 5.3 59.4 5.4 59.6 C 5.6 59.8 5.7 60 5.8 60.3 C 5.8 60.5 5.8 60.8 5.8 61.3 C 5.8 61.3 5.8 62.7 5.8 62.7 C 5.8 63.7 5.9 64.3 5.9 64.5 C 5.9 64.8 6 65.1 6.2 65.3 C 6.16 65.29 5.1 65.3 5.1 65.3 C 5.1 65.3 5.06 65.29 5.1 65.3 Z M 4.8 62.2 C 4.4 62.3 3.8 62.5 3 62.6 C 2.6 62.6 2.3 62.7 2.1 62.8 C 1.9 62.9 1.8 63 1.7 63.1 C 1.6 63.3 1.6 63.4 1.6 63.6 C 1.6 63.9 1.7 64.1 1.9 64.3 C 2.1 64.5 2.4 64.6 2.8 64.6 C 3.2 64.6 3.6 64.5 3.9 64.3 C 4.2 64.2 4.4 63.9 4.6 63.6 C 4.7 63.4 4.8 63 4.8 62.6 C 4.8 62.6 4.8 62.2 4.8 62.2 Z M 7.3 65.8 C 7.3 65.8 8.3 66 8.3 66 C 8.3 66.3 8.5 66.5 8.7 66.7 C 8.9 66.8 9.3 66.9 9.7 66.9 C 10.2 66.9 10.6 66.8 10.9 66.7 C 11.1 66.5 11.3 66.2 11.4 65.8 C 11.5 65.6 11.5 65.2 11.5 64.5 C 11 65 10.4 65.3 9.8 65.3 C 8.9 65.3 8.2 65 7.8 64.4 C 7.3 63.7 7.1 63 7.1 62.1 C 7.1 61.6 7.2 61 7.4 60.5 C 7.6 60 7.9 59.6 8.3 59.3 C 8.7 59.1 9.2 58.9 9.8 58.9 C 10.5 58.9 11.1 59.2 11.6 59.8 C 11.57 59.82 11.6 59.1 11.6 59.1 L 12.5 59.1 C 12.5 59.1 12.54 64.45 12.5 64.4 C 12.5 65.4 12.4 66.1 12.2 66.5 C 12.1 66.9 11.7 67.2 11.3 67.5 C 10.9 67.7 10.4 67.8 9.7 67.8 C 9 67.8 8.4 67.7 7.9 67.3 C 7.5 67 7.3 66.5 7.3 65.8 Z M 8.1 62.1 C 8.1 62.9 8.3 63.5 8.6 63.9 C 9 64.2 9.4 64.4 9.8 64.4 C 10.3 64.4 10.7 64.2 11.1 63.9 C 11.4 63.5 11.6 62.9 11.6 62.1 C 11.6 61.3 11.4 60.8 11.1 60.4 C 10.7 60 10.3 59.8 9.8 59.8 C 9.4 59.8 9 60 8.6 60.4 C 8.3 60.8 8.1 61.3 8.1 62.1 Z M 14.1 65.3 L 14.1 59.1 L 15.1 59.1 C 15.1 59.1 15.08 60.01 15.1 60 C 15.3 59.6 15.5 59.3 15.7 59.1 C 16 59 16.2 58.9 16.4 58.9 C 16.8 58.9 17.1 59 17.5 59.3 C 17.5 59.3 17.1 60.2 17.1 60.2 C 16.9 60.1 16.6 60 16.4 60 C 16.1 60 15.9 60.1 15.8 60.2 C 15.6 60.4 15.4 60.6 15.4 60.8 C 15.2 61.2 15.2 61.6 15.2 62 C 15.18 62.03 15.2 65.3 15.2 65.3 L 14.1 65.3 Z M 22.4 63.3 C 22.4 63.3 23.5 63.4 23.5 63.4 C 23.3 64.1 23 64.6 22.5 64.9 C 22.1 65.3 21.5 65.4 20.7 65.4 C 19.8 65.4 19.1 65.2 18.6 64.6 C 18 64 17.8 63.2 17.8 62.2 C 17.8 61.2 18.1 60.4 18.6 59.8 C 19.1 59.2 19.8 58.9 20.7 58.9 C 21.5 58.9 22.2 59.2 22.7 59.8 C 23.3 60.3 23.5 61.1 23.5 62.2 C 23.5 62.2 23.5 62.3 23.5 62.5 C 23.5 62.5 18.9 62.5 18.9 62.5 C 18.9 63.1 19.1 63.7 19.5 64 C 19.8 64.4 20.2 64.6 20.8 64.6 C 21.1 64.6 21.5 64.5 21.7 64.3 C 22 64.1 22.2 63.7 22.4 63.3 Z M 18.9 61.6 C 18.9 61.6 22.4 61.6 22.4 61.6 C 22.4 61.1 22.2 60.7 22 60.4 C 21.7 60 21.2 59.8 20.7 59.8 C 20.2 59.8 19.8 60 19.5 60.3 C 19.1 60.6 19 61 18.9 61.6 Z M 29.1 63.3 C 29.1 63.3 30.2 63.4 30.2 63.4 C 30 64.1 29.7 64.6 29.2 64.9 C 28.7 65.3 28.1 65.4 27.4 65.4 C 26.5 65.4 25.8 65.2 25.3 64.6 C 24.7 64 24.5 63.2 24.5 62.2 C 24.5 61.2 24.7 60.4 25.3 59.8 C 25.8 59.2 26.5 58.9 27.4 58.9 C 28.2 58.9 28.9 59.2 29.4 59.8 C 29.9 60.3 30.2 61.1 30.2 62.2 C 30.2 62.2 30.2 62.3 30.2 62.5 C 30.2 62.5 25.5 62.5 25.5 62.5 C 25.6 63.1 25.8 63.7 26.1 64 C 26.5 64.4 26.9 64.6 27.4 64.6 C 27.8 64.6 28.1 64.5 28.4 64.3 C 28.7 64.1 28.9 63.7 29.1 63.3 Z M 25.6 61.6 C 25.6 61.6 29.1 61.6 29.1 61.6 C 29 61.1 28.9 60.7 28.7 60.4 C 28.3 60 27.9 59.8 27.4 59.8 C 26.9 59.8 26.5 60 26.2 60.3 C 25.8 60.6 25.6 61 25.6 61.6 Z M 35.5 65.3 C 35.5 65.3 35.52 64.51 35.5 64.5 C 35.1 65.1 34.5 65.4 33.8 65.4 C 33.3 65.4 32.8 65.3 32.4 65 C 32 64.7 31.7 64.4 31.4 63.9 C 31.2 63.4 31.1 62.8 31.1 62.2 C 31.1 61.6 31.2 61 31.4 60.5 C 31.6 60 31.9 59.6 32.3 59.3 C 32.8 59.1 33.2 58.9 33.7 58.9 C 34.1 58.9 34.4 59 34.7 59.2 C 35 59.3 35.3 59.5 35.4 59.8 C 35.45 59.78 35.4 56.7 35.4 56.7 L 36.5 56.7 L 36.5 65.3 L 35.5 65.3 Z M 32.2 62.2 C 32.2 63 32.4 63.6 32.7 64 C 33 64.4 33.4 64.6 33.9 64.6 C 34.3 64.6 34.7 64.4 35.1 64 C 35.4 63.6 35.5 63 35.5 62.3 C 35.5 61.4 35.4 60.8 35 60.4 C 34.7 60 34.3 59.8 33.8 59.8 C 33.4 59.8 33 60 32.7 60.4 C 32.3 60.8 32.2 61.4 32.2 62.2 Z M 41.1 63.4 C 41.1 63.4 42.1 63.3 42.1 63.3 C 42.2 63.7 42.3 64 42.6 64.2 C 42.9 64.5 43.2 64.6 43.7 64.6 C 44.2 64.6 44.6 64.5 44.8 64.3 C 45 64.1 45.2 63.8 45.2 63.6 C 45.2 63.3 45 63.1 44.8 63 C 44.7 62.9 44.3 62.8 43.8 62.7 C 43 62.5 42.5 62.3 42.2 62.1 C 41.9 62 41.6 61.8 41.5 61.6 C 41.3 61.3 41.2 61 41.2 60.7 C 41.2 60.4 41.3 60.2 41.4 60 C 41.6 59.7 41.7 59.5 42 59.4 C 42.1 59.2 42.3 59.1 42.6 59.1 C 42.9 59 43.2 58.9 43.5 58.9 C 44 58.9 44.5 59 44.8 59.1 C 45.2 59.3 45.5 59.5 45.6 59.7 C 45.8 60 45.9 60.3 46 60.7 C 46 60.7 45 60.8 45 60.8 C 44.9 60.5 44.8 60.2 44.6 60.1 C 44.3 59.9 44 59.8 43.6 59.8 C 43.1 59.8 42.8 59.9 42.6 60 C 42.4 60.2 42.3 60.4 42.3 60.6 C 42.3 60.7 42.3 60.9 42.4 61 C 42.5 61.1 42.6 61.2 42.8 61.2 C 42.9 61.3 43.2 61.4 43.7 61.5 C 44.5 61.7 45 61.9 45.3 62 C 45.6 62.1 45.8 62.3 46 62.6 C 46.2 62.8 46.2 63.1 46.2 63.5 C 46.2 63.8 46.1 64.1 45.9 64.5 C 45.7 64.8 45.4 65 45 65.2 C 44.7 65.3 44.2 65.4 43.7 65.4 C 42.9 65.4 42.3 65.3 41.9 64.9 C 41.5 64.6 41.2 64.1 41.1 63.4 Z M 51.8 63.3 C 51.8 63.3 52.8 63.4 52.8 63.4 C 52.7 64.1 52.3 64.6 51.9 64.9 C 51.4 65.3 50.8 65.4 50.1 65.4 C 49.2 65.4 48.5 65.2 47.9 64.6 C 47.4 64 47.1 63.2 47.1 62.2 C 47.1 61.2 47.4 60.4 47.9 59.8 C 48.5 59.2 49.2 58.9 50 58.9 C 50.9 58.9 51.6 59.2 52.1 59.8 C 52.6 60.3 52.9 61.1 52.9 62.2 C 52.9 62.2 52.9 62.3 52.9 62.5 C 52.9 62.5 48.2 62.5 48.2 62.5 C 48.3 63.1 48.5 63.7 48.8 64 C 49.2 64.4 49.6 64.6 50.1 64.6 C 50.5 64.6 50.8 64.5 51.1 64.3 C 51.4 64.1 51.6 63.7 51.8 63.3 Z M 48.3 61.6 C 48.3 61.6 51.8 61.6 51.8 61.6 C 51.7 61.1 51.6 60.7 51.4 60.4 C 51 60 50.6 59.8 50.1 59.8 C 49.6 59.8 49.2 60 48.8 60.3 C 48.5 60.6 48.3 61 48.3 61.6 Z M 54.2 65.3 L 54.2 59.1 L 55.1 59.1 C 55.1 59.1 55.1 60.01 55.1 60 C 55.3 59.6 55.6 59.3 55.8 59.1 C 56 59 56.2 58.9 56.4 58.9 C 56.8 58.9 57.2 59 57.5 59.3 C 57.5 59.3 57.2 60.2 57.2 60.2 C 56.9 60.1 56.7 60 56.4 60 C 56.2 60 56 60.1 55.8 60.2 C 55.6 60.4 55.5 60.6 55.4 60.8 C 55.3 61.2 55.2 61.6 55.2 62 C 55.21 62.03 55.2 65.3 55.2 65.3 L 54.2 65.3 Z M 59.9 65.3 L 57.5 59.1 L 58.6 59.1 C 58.6 59.1 59.97 62.8 60 62.8 C 60.1 63.2 60.2 63.6 60.4 64.1 C 60.5 63.7 60.6 63.3 60.8 62.9 C 60.76 62.87 62.1 59.1 62.1 59.1 L 63.2 59.1 L 60.9 65.3 L 59.9 65.3 Z M 64.2 57.9 L 64.2 56.7 L 65.2 56.7 L 65.2 57.9 L 64.2 57.9 Z M 64.2 65.3 L 64.2 59.1 L 65.2 59.1 L 65.2 65.3 L 64.2 65.3 Z M 70.9 63 C 70.9 63 71.9 63.1 71.9 63.1 C 71.8 63.9 71.5 64.4 71.1 64.8 C 70.6 65.2 70 65.4 69.3 65.4 C 68.5 65.4 67.8 65.2 67.3 64.6 C 66.8 64 66.5 63.2 66.5 62.2 C 66.5 61.5 66.6 60.9 66.8 60.4 C 67.1 59.9 67.4 59.6 67.9 59.3 C 68.3 59.1 68.8 58.9 69.3 58.9 C 70 58.9 70.6 59.1 71 59.4 C 71.4 59.8 71.7 60.3 71.8 60.9 C 71.8 60.9 70.8 61.1 70.8 61.1 C 70.7 60.6 70.5 60.3 70.3 60.1 C 70 59.9 69.7 59.8 69.4 59.8 C 68.8 59.8 68.4 60 68.1 60.4 C 67.8 60.7 67.6 61.4 67.6 62.2 C 67.6 63 67.7 63.6 68.1 64 C 68.4 64.4 68.8 64.6 69.3 64.6 C 69.7 64.6 70.1 64.4 70.4 64.2 C 70.6 63.9 70.8 63.5 70.9 63 Z M 77.1 63.3 C 77.1 63.3 78.2 63.4 78.2 63.4 C 78 64.1 77.7 64.6 77.2 64.9 C 76.8 65.3 76.2 65.4 75.4 65.4 C 74.5 65.4 73.8 65.2 73.3 64.6 C 72.7 64 72.5 63.2 72.5 62.2 C 72.5 61.2 72.7 60.4 73.3 59.8 C 73.8 59.2 74.5 58.9 75.4 58.9 C 76.2 58.9 76.9 59.2 77.4 59.8 C 77.9 60.3 78.2 61.1 78.2 62.2 C 78.2 62.2 78.2 62.3 78.2 62.5 C 78.2 62.5 73.6 62.5 73.6 62.5 C 73.6 63.1 73.8 63.7 74.1 64 C 74.5 64.4 74.9 64.6 75.4 64.6 C 75.8 64.6 76.2 64.5 76.4 64.3 C 76.7 64.1 76.9 63.7 77.1 63.3 Z M 73.6 61.6 C 73.6 61.6 77.1 61.6 77.1 61.6 C 77.1 61.1 76.9 60.7 76.7 60.4 C 76.4 60 75.9 59.8 75.4 59.8 C 74.9 59.8 74.5 60 74.2 60.3 C 73.8 60.6 73.7 61 73.6 61.6 Z M 82.8 65.3 L 82.8 56.7 L 83.9 56.7 L 83.9 65.3 L 82.8 65.3 Z M 89.8 63.3 C 89.8 63.3 90.8 63.4 90.8 63.4 C 90.7 64.1 90.4 64.6 89.9 64.9 C 89.4 65.3 88.8 65.4 88.1 65.4 C 87.2 65.4 86.5 65.2 85.9 64.6 C 85.4 64 85.1 63.2 85.1 62.2 C 85.1 61.2 85.4 60.4 86 59.8 C 86.5 59.2 87.2 58.9 88.1 58.9 C 88.9 58.9 89.6 59.2 90.1 59.8 C 90.6 60.3 90.9 61.1 90.9 62.2 C 90.9 62.2 90.9 62.3 90.9 62.5 C 90.9 62.5 86.2 62.5 86.2 62.5 C 86.3 63.1 86.5 63.7 86.8 64 C 87.2 64.4 87.6 64.6 88.1 64.6 C 88.5 64.6 88.8 64.5 89.1 64.3 C 89.4 64.1 89.6 63.7 89.8 63.3 Z M 86.3 61.6 C 86.3 61.6 89.8 61.6 89.8 61.6 C 89.7 61.1 89.6 60.7 89.4 60.4 C 89 60 88.6 59.8 88.1 59.8 C 87.6 59.8 87.2 60 86.8 60.3 C 86.5 60.6 86.3 61 86.3 61.6 Z M 93.9 65.3 L 91.5 59.1 L 92.6 59.1 C 92.6 59.1 93.98 62.8 94 62.8 C 94.1 63.2 94.3 63.6 94.4 64.1 C 94.5 63.7 94.6 63.3 94.8 62.9 C 94.78 62.87 96.2 59.1 96.2 59.1 L 97.2 59.1 L 94.9 65.3 L 93.9 65.3 Z M 102.4 63.3 C 102.4 63.3 103.5 63.4 103.5 63.4 C 103.4 64.1 103 64.6 102.6 64.9 C 102.1 65.3 101.5 65.4 100.8 65.4 C 99.9 65.4 99.2 65.2 98.6 64.6 C 98.1 64 97.8 63.2 97.8 62.2 C 97.8 61.2 98.1 60.4 98.6 59.8 C 99.2 59.2 99.9 58.9 100.7 58.9 C 101.6 58.9 102.2 59.2 102.8 59.8 C 103.3 60.3 103.6 61.1 103.6 62.2 C 103.6 62.2 103.6 62.3 103.6 62.5 C 103.6 62.5 98.9 62.5 98.9 62.5 C 99 63.1 99.1 63.7 99.5 64 C 99.8 64.4 100.3 64.6 100.8 64.6 C 101.2 64.6 101.5 64.5 101.8 64.3 C 102.1 64.1 102.3 63.7 102.4 63.3 Z M 99 61.6 C 99 61.6 102.4 61.6 102.4 61.6 C 102.4 61.1 102.3 60.7 102 60.4 C 101.7 60 101.3 59.8 100.7 59.8 C 100.3 59.8 99.8 60 99.5 60.3 C 99.2 60.6 99 61 99 61.6 Z M 104.8 65.3 L 104.8 56.7 L 105.9 56.7 L 105.9 65.3 L 104.8 65.3 Z M 107.1 63.4 C 107.1 63.4 108.1 63.3 108.1 63.3 C 108.2 63.7 108.4 64 108.6 64.2 C 108.9 64.5 109.3 64.6 109.7 64.6 C 110.2 64.6 110.6 64.5 110.8 64.3 C 111.1 64.1 111.2 63.8 111.2 63.6 C 111.2 63.3 111.1 63.1 110.9 63 C 110.7 62.9 110.4 62.8 109.8 62.7 C 109 62.5 108.5 62.3 108.2 62.1 C 107.9 62 107.7 61.8 107.5 61.6 C 107.3 61.3 107.3 61 107.3 60.7 C 107.3 60.4 107.3 60.2 107.5 60 C 107.6 59.7 107.8 59.5 108 59.4 C 108.1 59.2 108.4 59.1 108.6 59.1 C 108.9 59 109.2 58.9 109.6 58.9 C 110 58.9 110.5 59 110.8 59.1 C 111.2 59.3 111.5 59.5 111.7 59.7 C 111.8 60 112 60.3 112 60.7 C 112 60.7 111 60.8 111 60.8 C 110.9 60.5 110.8 60.2 110.6 60.1 C 110.4 59.9 110 59.8 109.6 59.8 C 109.2 59.8 108.8 59.9 108.6 60 C 108.4 60.2 108.3 60.4 108.3 60.6 C 108.3 60.7 108.3 60.9 108.4 61 C 108.5 61.1 108.6 61.2 108.8 61.2 C 108.9 61.3 109.2 61.4 109.8 61.5 C 110.5 61.7 111 61.9 111.3 62 C 111.6 62.1 111.8 62.3 112 62.6 C 112.2 62.8 112.3 63.1 112.3 63.5 C 112.3 63.8 112.2 64.1 112 64.5 C 111.7 64.8 111.5 65 111.1 65.2 C 110.7 65.3 110.2 65.4 109.8 65.4 C 108.9 65.4 108.3 65.3 107.9 64.9 C 107.5 64.6 107.2 64.1 107.1 63.4 Z " stroke="none" fill="#ffffff"/>  </g>  <g id="Polygon2157">    <path d="M 5.1 50.9 C 5 50.7 4.9 50.4 4.9 50.1 C 4.5 50.5 4.1 50.7 3.7 50.8 C 3.4 51 3 51 2.6 51 C 1.9 51 1.4 50.9 1 50.5 C 0.6 50.2 0.4 49.8 0.4 49.3 C 0.4 48.9 0.5 48.7 0.6 48.4 C 0.8 48.2 1 48 1.2 47.8 C 1.4 47.7 1.7 47.5 1.9 47.5 C 2.2 47.4 2.5 47.4 2.9 47.3 C 3.7 47.2 4.4 47.1 4.8 46.9 C 4.8 46.8 4.8 46.7 4.8 46.7 C 4.8 46.2 4.7 45.9 4.5 45.8 C 4.2 45.5 3.8 45.4 3.3 45.4 C 2.8 45.4 2.4 45.5 2.2 45.7 C 1.9 45.8 1.8 46.1 1.6 46.6 C 1.6 46.6 0.6 46.4 0.6 46.4 C 0.7 46 0.9 45.6 1.1 45.4 C 1.3 45.1 1.6 44.9 2 44.7 C 2.4 44.6 2.9 44.5 3.4 44.5 C 4 44.5 4.4 44.6 4.7 44.7 C 5 44.8 5.3 45 5.4 45.2 C 5.6 45.4 5.7 45.6 5.8 45.9 C 5.8 46.1 5.8 46.4 5.8 46.9 C 5.8 46.9 5.8 48.3 5.8 48.3 C 5.8 49.3 5.9 49.9 5.9 50.1 C 5.9 50.4 6 50.7 6.2 50.9 C 6.16 50.89 5.1 50.9 5.1 50.9 C 5.1 50.9 5.06 50.89 5.1 50.9 Z M 4.8 47.8 C 4.4 47.9 3.8 48.1 3 48.2 C 2.6 48.2 2.3 48.3 2.1 48.4 C 1.9 48.5 1.8 48.6 1.7 48.7 C 1.6 48.9 1.6 49 1.6 49.2 C 1.6 49.5 1.7 49.7 1.9 49.9 C 2.1 50.1 2.4 50.2 2.8 50.2 C 3.2 50.2 3.6 50.1 3.9 49.9 C 4.2 49.8 4.4 49.5 4.6 49.2 C 4.7 49 4.8 48.6 4.8 48.2 C 4.8 48.2 4.8 47.8 4.8 47.8 Z M 11.5 48.6 C 11.5 48.6 12.6 48.7 12.6 48.7 C 12.4 49.5 12.2 50 11.7 50.4 C 11.2 50.8 10.7 51 10 51 C 9.1 51 8.4 50.8 7.9 50.2 C 7.4 49.6 7.1 48.8 7.1 47.8 C 7.1 47.1 7.3 46.5 7.5 46 C 7.7 45.5 8 45.2 8.5 44.9 C 8.9 44.7 9.4 44.5 10 44.5 C 10.7 44.5 11.2 44.7 11.6 45 C 12.1 45.4 12.3 45.9 12.5 46.5 C 12.5 46.5 11.4 46.7 11.4 46.7 C 11.3 46.2 11.2 45.9 10.9 45.7 C 10.7 45.5 10.4 45.4 10 45.4 C 9.5 45.4 9.1 45.6 8.7 46 C 8.4 46.3 8.2 47 8.2 47.8 C 8.2 48.6 8.4 49.2 8.7 49.6 C 9 50 9.4 50.2 10 50.2 C 10.4 50.2 10.7 50 11 49.8 C 11.3 49.5 11.5 49.1 11.5 48.6 Z M 17.5 48.6 C 17.5 48.6 18.6 48.7 18.6 48.7 C 18.4 49.5 18.2 50 17.7 50.4 C 17.2 50.8 16.7 51 16 51 C 15.1 51 14.4 50.8 13.9 50.2 C 13.4 49.6 13.1 48.8 13.1 47.8 C 13.1 47.1 13.3 46.5 13.5 46 C 13.7 45.5 14 45.2 14.5 44.9 C 14.9 44.7 15.4 44.5 16 44.5 C 16.7 44.5 17.2 44.7 17.6 45 C 18.1 45.4 18.3 45.9 18.5 46.5 C 18.5 46.5 17.4 46.7 17.4 46.7 C 17.3 46.2 17.2 45.9 16.9 45.7 C 16.7 45.5 16.4 45.4 16 45.4 C 15.5 45.4 15.1 45.6 14.7 46 C 14.4 46.3 14.2 47 14.2 47.8 C 14.2 48.6 14.4 49.2 14.7 49.6 C 15 50 15.4 50.2 16 50.2 C 16.4 50.2 16.7 50 17 49.8 C 17.3 49.5 17.5 49.1 17.5 48.6 Z M 19.1 47.8 C 19.1 46.6 19.4 45.8 20 45.2 C 20.6 44.8 21.2 44.5 22 44.5 C 22.8 44.5 23.5 44.8 24.1 45.4 C 24.6 45.9 24.9 46.7 24.9 47.7 C 24.9 48.5 24.8 49.1 24.5 49.6 C 24.3 50 24 50.4 23.5 50.7 C 23 50.9 22.5 51 22 51 C 21.1 51 20.4 50.8 19.9 50.2 C 19.3 49.6 19.1 48.8 19.1 47.8 Z M 20.2 47.8 C 20.2 48.6 20.3 49.2 20.7 49.6 C 21 50 21.5 50.2 22 50.2 C 22.5 50.2 22.9 50 23.3 49.6 C 23.6 49.2 23.8 48.6 23.8 47.7 C 23.8 47 23.6 46.4 23.3 46 C 22.9 45.6 22.5 45.4 22 45.4 C 21.5 45.4 21 45.6 20.7 46 C 20.3 46.4 20.2 47 20.2 47.8 Z M 30.2 50.9 C 30.2 50.9 30.22 49.98 30.2 50 C 29.7 50.7 29.1 51 28.2 51 C 27.9 51 27.5 51 27.2 50.8 C 26.9 50.7 26.7 50.5 26.5 50.3 C 26.4 50.1 26.2 49.8 26.2 49.5 C 26.1 49.3 26.1 49 26.1 48.5 C 26.12 48.53 26.1 44.7 26.1 44.7 L 27.2 44.7 C 27.2 44.7 27.17 48.12 27.2 48.1 C 27.2 48.7 27.2 49 27.2 49.2 C 27.3 49.5 27.4 49.7 27.7 49.9 C 27.9 50 28.1 50.1 28.5 50.1 C 28.8 50.1 29.1 50 29.3 49.9 C 29.6 49.7 29.8 49.5 29.9 49.2 C 30 48.9 30.1 48.5 30.1 48 C 30.11 48 30.1 44.7 30.1 44.7 L 31.2 44.7 L 31.2 50.9 L 30.2 50.9 Z M 32.8 50.9 L 32.8 44.7 L 33.8 44.7 C 33.8 44.7 33.76 45.55 33.8 45.6 C 34.2 44.9 34.9 44.5 35.7 44.5 C 36.1 44.5 36.5 44.6 36.8 44.7 C 37.1 44.9 37.3 45 37.5 45.3 C 37.6 45.5 37.7 45.7 37.8 46 C 37.8 46.2 37.9 46.6 37.9 47.1 C 37.87 47.07 37.9 50.9 37.9 50.9 L 36.8 50.9 C 36.8 50.9 36.81 47.11 36.8 47.1 C 36.8 46.7 36.8 46.4 36.7 46.1 C 36.6 45.9 36.5 45.8 36.3 45.6 C 36 45.5 35.8 45.4 35.5 45.4 C 35.1 45.4 34.7 45.6 34.4 45.9 C 34 46.2 33.9 46.7 33.9 47.5 C 33.87 47.49 33.9 50.9 33.9 50.9 L 32.8 50.9 Z M 41.3 50 C 41.4 50 41.6 50 41.8 49.9 C 41.8 49.9 41.9 50.9 41.9 50.9 C 41.6 50.9 41.4 51 41.1 51 C 40.8 51 40.5 50.9 40.3 50.8 C 40 50.7 39.9 50.5 39.8 50.3 C 39.7 50.1 39.7 49.7 39.7 49.1 C 39.68 49.07 39.7 45.5 39.7 45.5 L 38.9 45.5 L 38.9 44.7 L 39.7 44.7 L 39.7 43.1 L 40.7 42.5 L 40.7 44.7 L 41.8 44.7 L 41.8 45.5 L 40.7 45.5 C 40.7 45.5 40.73 49.13 40.7 49.1 C 40.7 49.4 40.7 49.6 40.8 49.7 C 40.8 49.8 40.9 49.9 41 49.9 C 41 50 41.2 50 41.3 50 C 41.3 50 41.3 50 41.3 50 Z M 47.1 50.9 C 47 50.7 46.9 50.4 46.9 50.1 C 46.5 50.5 46.1 50.7 45.8 50.8 C 45.4 51 45 51 44.6 51 C 43.9 51 43.4 50.9 43 50.5 C 42.6 50.2 42.5 49.8 42.5 49.3 C 42.5 48.9 42.5 48.7 42.7 48.4 C 42.8 48.2 43 48 43.2 47.8 C 43.4 47.7 43.7 47.5 44 47.5 C 44.2 47.4 44.5 47.4 44.9 47.3 C 45.8 47.2 46.4 47.1 46.8 46.9 C 46.8 46.8 46.8 46.7 46.8 46.7 C 46.8 46.2 46.7 45.9 46.5 45.8 C 46.2 45.5 45.8 45.4 45.3 45.4 C 44.8 45.4 44.4 45.5 44.2 45.7 C 44 45.8 43.8 46.1 43.7 46.6 C 43.7 46.6 42.6 46.4 42.6 46.4 C 42.7 46 42.9 45.6 43.1 45.4 C 43.3 45.1 43.6 44.9 44 44.7 C 44.4 44.6 44.9 44.5 45.5 44.5 C 46 44.5 46.4 44.6 46.7 44.7 C 47.1 44.8 47.3 45 47.5 45.2 C 47.6 45.4 47.7 45.6 47.8 45.9 C 47.8 46.1 47.9 46.4 47.9 46.9 C 47.9 46.9 47.9 48.3 47.9 48.3 C 47.9 49.3 47.9 49.9 47.9 50.1 C 48 50.4 48.1 50.7 48.2 50.9 C 48.19 50.89 47.1 50.9 47.1 50.9 C 47.1 50.9 47.09 50.89 47.1 50.9 Z M 46.8 47.8 C 46.4 47.9 45.8 48.1 45.1 48.2 C 44.6 48.2 44.3 48.3 44.2 48.4 C 44 48.5 43.8 48.6 43.7 48.7 C 43.6 48.9 43.6 49 43.6 49.2 C 43.6 49.5 43.7 49.7 43.9 49.9 C 44.1 50.1 44.4 50.2 44.8 50.2 C 45.2 50.2 45.6 50.1 45.9 49.9 C 46.2 49.8 46.5 49.5 46.6 49.2 C 46.7 49 46.8 48.6 46.8 48.2 C 46.8 48.2 46.8 47.8 46.8 47.8 Z M 50.5 50.9 L 49.5 50.9 L 49.5 42.3 L 50.5 42.3 C 50.5 42.3 50.54 45.37 50.5 45.4 C 51 44.8 51.6 44.5 52.2 44.5 C 52.6 44.5 53 44.6 53.3 44.8 C 53.7 44.9 54 45.1 54.2 45.4 C 54.4 45.7 54.6 46 54.7 46.4 C 54.8 46.8 54.9 47.2 54.9 47.7 C 54.9 48.8 54.6 49.6 54.1 50.2 C 53.6 50.7 52.9 51 52.2 51 C 51.5 51 50.9 50.7 50.5 50.1 C 50.47 50.11 50.5 50.9 50.5 50.9 Z M 50.5 47.7 C 50.5 48.5 50.6 49 50.8 49.4 C 51.1 49.9 51.5 50.2 52.1 50.2 C 52.6 50.2 53 50 53.3 49.6 C 53.6 49.2 53.8 48.6 53.8 47.8 C 53.8 47 53.6 46.4 53.3 46 C 53 45.6 52.6 45.4 52.2 45.4 C 51.7 45.4 51.3 45.6 51 46 C 50.6 46.4 50.5 47 50.5 47.7 Z M 56.1 50.9 L 56.1 42.3 L 57.2 42.3 L 57.2 50.9 L 56.1 50.9 Z M 63.1 48.9 C 63.1 48.9 64.2 49 64.2 49 C 64 49.7 63.7 50.2 63.2 50.5 C 62.8 50.9 62.2 51 61.4 51 C 60.5 51 59.8 50.8 59.3 50.2 C 58.7 49.6 58.5 48.8 58.5 47.8 C 58.5 46.8 58.8 46 59.3 45.4 C 59.8 44.8 60.5 44.5 61.4 44.5 C 62.2 44.5 62.9 44.8 63.4 45.4 C 64 45.9 64.2 46.7 64.2 47.8 C 64.2 47.8 64.2 47.9 64.2 48.1 C 64.2 48.1 59.6 48.1 59.6 48.1 C 59.6 48.7 59.8 49.3 60.2 49.6 C 60.5 50 60.9 50.2 61.5 50.2 C 61.8 50.2 62.2 50.1 62.4 49.9 C 62.7 49.7 62.9 49.3 63.1 48.9 Z M 59.6 47.2 C 59.6 47.2 63.1 47.2 63.1 47.2 C 63.1 46.7 62.9 46.3 62.7 46 C 62.4 45.6 61.9 45.4 61.4 45.4 C 60.9 45.4 60.5 45.6 60.2 45.9 C 59.8 46.2 59.7 46.6 59.6 47.2 Z M 73.1 50.9 C 73 50.7 72.9 50.4 72.9 50.1 C 72.5 50.5 72.1 50.7 71.8 50.8 C 71.4 51 71 51 70.6 51 C 69.9 51 69.4 50.9 69 50.5 C 68.7 50.2 68.5 49.8 68.5 49.3 C 68.5 48.9 68.6 48.7 68.7 48.4 C 68.8 48.2 69 48 69.2 47.8 C 69.5 47.7 69.7 47.5 70 47.5 C 70.2 47.4 70.5 47.4 70.9 47.3 C 71.8 47.2 72.4 47.1 72.8 46.9 C 72.8 46.8 72.8 46.7 72.8 46.7 C 72.8 46.2 72.7 45.9 72.5 45.8 C 72.3 45.5 71.9 45.4 71.3 45.4 C 70.8 45.4 70.5 45.5 70.2 45.7 C 70 45.8 69.8 46.1 69.7 46.6 C 69.7 46.6 68.7 46.4 68.7 46.4 C 68.8 46 68.9 45.6 69.1 45.4 C 69.3 45.1 69.7 44.9 70.1 44.7 C 70.5 44.6 70.9 44.5 71.5 44.5 C 72 44.5 72.4 44.6 72.8 44.7 C 73.1 44.8 73.3 45 73.5 45.2 C 73.7 45.4 73.8 45.6 73.8 45.9 C 73.9 46.1 73.9 46.4 73.9 46.9 C 73.9 46.9 73.9 48.3 73.9 48.3 C 73.9 49.3 73.9 49.9 73.9 50.1 C 74 50.4 74.1 50.7 74.2 50.9 C 74.21 50.89 73.1 50.9 73.1 50.9 C 73.1 50.9 73.11 50.89 73.1 50.9 Z M 72.8 47.8 C 72.4 47.9 71.9 48.1 71.1 48.2 C 70.7 48.2 70.4 48.3 70.2 48.4 C 70 48.5 69.9 48.6 69.8 48.7 C 69.7 48.9 69.6 49 69.6 49.2 C 69.6 49.5 69.7 49.7 69.9 49.9 C 70.1 50.1 70.5 50.2 70.9 50.2 C 71.3 50.2 71.6 50.1 71.9 49.9 C 72.3 49.8 72.5 49.5 72.6 49.2 C 72.8 49 72.8 48.6 72.8 48.2 C 72.8 48.2 72.8 47.8 72.8 47.8 Z M 75.5 50.9 L 75.5 44.7 L 76.5 44.7 C 76.5 44.7 76.46 45.55 76.5 45.6 C 76.9 44.9 77.6 44.5 78.4 44.5 C 78.8 44.5 79.2 44.6 79.5 44.7 C 79.8 44.9 80 45 80.2 45.3 C 80.3 45.5 80.5 45.7 80.5 46 C 80.6 46.2 80.6 46.6 80.6 47.1 C 80.57 47.07 80.6 50.9 80.6 50.9 L 79.5 50.9 C 79.5 50.9 79.52 47.11 79.5 47.1 C 79.5 46.7 79.5 46.4 79.4 46.1 C 79.3 45.9 79.2 45.8 79 45.6 C 78.7 45.5 78.5 45.4 78.2 45.4 C 77.8 45.4 77.4 45.6 77.1 45.9 C 76.7 46.2 76.6 46.7 76.6 47.5 C 76.57 47.49 76.6 50.9 76.6 50.9 L 75.5 50.9 Z M 86.2 50.9 C 86.2 50.9 86.23 50.11 86.2 50.1 C 85.8 50.7 85.3 51 84.5 51 C 84 51 83.5 50.9 83.1 50.6 C 82.7 50.3 82.4 50 82.2 49.5 C 81.9 49 81.8 48.4 81.8 47.8 C 81.8 47.2 81.9 46.6 82.1 46.1 C 82.3 45.6 82.6 45.2 83.1 44.9 C 83.5 44.7 83.9 44.5 84.4 44.5 C 84.8 44.5 85.1 44.6 85.4 44.8 C 85.7 44.9 86 45.1 86.2 45.4 C 86.16 45.38 86.2 42.3 86.2 42.3 L 87.2 42.3 L 87.2 50.9 L 86.2 50.9 Z M 82.9 47.8 C 82.9 48.6 83.1 49.2 83.4 49.6 C 83.7 50 84.1 50.2 84.6 50.2 C 85 50.2 85.4 50 85.8 49.6 C 86.1 49.2 86.2 48.6 86.2 47.9 C 86.2 47 86.1 46.4 85.8 46 C 85.4 45.6 85 45.4 84.5 45.4 C 84.1 45.4 83.7 45.6 83.4 46 C 83 46.4 82.9 47 82.9 47.8 Z M 92.2 50.9 L 92.2 44.7 L 93.1 44.7 C 93.1 44.7 93.13 45.61 93.1 45.6 C 93.4 45.2 93.6 44.9 93.8 44.7 C 94 44.6 94.2 44.5 94.5 44.5 C 94.8 44.5 95.2 44.6 95.6 44.9 C 95.6 44.9 95.2 45.8 95.2 45.8 C 94.9 45.7 94.7 45.6 94.4 45.6 C 94.2 45.6 94 45.7 93.8 45.8 C 93.6 46 93.5 46.2 93.4 46.4 C 93.3 46.8 93.2 47.2 93.2 47.6 C 93.24 47.63 93.2 50.9 93.2 50.9 L 92.2 50.9 Z M 100.5 48.9 C 100.5 48.9 101.5 49 101.5 49 C 101.4 49.7 101.1 50.2 100.6 50.5 C 100.1 50.9 99.5 51 98.8 51 C 97.9 51 97.2 50.8 96.6 50.2 C 96.1 49.6 95.8 48.8 95.8 47.8 C 95.8 46.8 96.1 46 96.7 45.4 C 97.2 44.8 97.9 44.5 98.7 44.5 C 99.6 44.5 100.3 44.8 100.8 45.4 C 101.3 45.9 101.6 46.7 101.6 47.8 C 101.6 47.8 101.6 47.9 101.6 48.1 C 101.6 48.1 96.9 48.1 96.9 48.1 C 97 48.7 97.2 49.3 97.5 49.6 C 97.9 50 98.3 50.2 98.8 50.2 C 99.2 50.2 99.5 50.1 99.8 49.9 C 100.1 49.7 100.3 49.3 100.5 48.9 Z M 97 47.2 C 97 47.2 100.5 47.2 100.5 47.2 C 100.4 46.7 100.3 46.3 100.1 46 C 99.7 45.6 99.3 45.4 98.8 45.4 C 98.3 45.4 97.9 45.6 97.5 45.9 C 97.2 46.2 97 46.6 97 47.2 Z M 102.4 49 C 102.4 49 103.5 48.9 103.5 48.9 C 103.5 49.3 103.7 49.6 104 49.8 C 104.2 50.1 104.6 50.2 105.1 50.2 C 105.6 50.2 105.9 50.1 106.2 49.9 C 106.4 49.7 106.5 49.4 106.5 49.2 C 106.5 48.9 106.4 48.7 106.2 48.6 C 106.1 48.5 105.7 48.4 105.1 48.3 C 104.4 48.1 103.8 47.9 103.5 47.7 C 103.2 47.6 103 47.4 102.9 47.2 C 102.7 46.9 102.6 46.6 102.6 46.3 C 102.6 46 102.7 45.8 102.8 45.6 C 102.9 45.3 103.1 45.1 103.3 45 C 103.5 44.8 103.7 44.7 104 44.7 C 104.3 44.6 104.6 44.5 104.9 44.5 C 105.4 44.5 105.8 44.6 106.2 44.7 C 106.6 44.9 106.8 45.1 107 45.3 C 107.2 45.6 107.3 45.9 107.4 46.3 C 107.4 46.3 106.3 46.4 106.3 46.4 C 106.3 46.1 106.2 45.8 105.9 45.7 C 105.7 45.5 105.4 45.4 105 45.4 C 104.5 45.4 104.2 45.5 104 45.6 C 103.7 45.8 103.6 46 103.6 46.2 C 103.6 46.3 103.7 46.5 103.8 46.6 C 103.9 46.7 104 46.8 104.2 46.8 C 104.3 46.9 104.6 47 105.1 47.1 C 105.9 47.3 106.4 47.5 106.7 47.6 C 107 47.7 107.2 47.9 107.4 48.2 C 107.5 48.4 107.6 48.7 107.6 49.1 C 107.6 49.4 107.5 49.7 107.3 50.1 C 107.1 50.4 106.8 50.6 106.4 50.8 C 106 50.9 105.6 51 105.1 51 C 104.3 51 103.7 50.9 103.3 50.5 C 102.8 50.2 102.6 49.7 102.4 49 Z M 108.9 53.3 L 108.9 44.7 L 109.8 44.7 C 109.8 44.7 109.83 45.48 109.8 45.5 C 110.1 45.2 110.3 44.9 110.6 44.8 C 110.9 44.6 111.2 44.5 111.6 44.5 C 112.2 44.5 112.6 44.7 113 44.9 C 113.4 45.2 113.8 45.6 114 46.1 C 114.2 46.6 114.3 47.1 114.3 47.7 C 114.3 48.4 114.2 48.9 113.9 49.5 C 113.7 50 113.4 50.4 112.9 50.6 C 112.5 50.9 112 51 111.6 51 C 111.2 51 110.9 51 110.6 50.8 C 110.3 50.7 110.1 50.5 109.9 50.2 C 109.92 50.25 109.9 53.3 109.9 53.3 L 108.9 53.3 Z M 109.8 47.8 C 109.8 48.6 110 49.2 110.3 49.6 C 110.6 50 111 50.2 111.5 50.2 C 112 50.2 112.4 50 112.7 49.6 C 113 49.2 113.2 48.6 113.2 47.7 C 113.2 46.9 113 46.3 112.7 45.9 C 112.4 45.6 112 45.4 111.5 45.4 C 111.1 45.4 110.7 45.6 110.3 46 C 110 46.4 109.8 47 109.8 47.8 Z M 115.1 47.8 C 115.1 46.6 115.5 45.8 116.1 45.2 C 116.6 44.8 117.3 44.5 118.1 44.5 C 118.9 44.5 119.6 44.8 120.2 45.4 C 120.7 45.9 121 46.7 121 47.7 C 121 48.5 120.9 49.1 120.6 49.6 C 120.4 50 120 50.4 119.6 50.7 C 119.1 50.9 118.6 51 118.1 51 C 117.2 51 116.5 50.8 116 50.2 C 115.4 49.6 115.1 48.8 115.1 47.8 Z M 116.2 47.8 C 116.2 48.6 116.4 49.2 116.8 49.6 C 117.1 50 117.5 50.2 118.1 50.2 C 118.6 50.2 119 50 119.4 49.6 C 119.7 49.2 119.9 48.6 119.9 47.7 C 119.9 47 119.7 46.4 119.4 46 C 119 45.6 118.6 45.4 118.1 45.4 C 117.5 45.4 117.1 45.6 116.8 46 C 116.4 46.4 116.2 47 116.2 47.8 Z M 122.2 50.9 L 122.2 44.7 L 123.2 44.7 C 123.2 44.7 123.16 45.55 123.2 45.6 C 123.6 44.9 124.3 44.5 125.1 44.5 C 125.5 44.5 125.9 44.6 126.2 44.7 C 126.5 44.9 126.7 45 126.9 45.3 C 127 45.5 127.2 45.7 127.2 46 C 127.3 46.2 127.3 46.6 127.3 47.1 C 127.27 47.07 127.3 50.9 127.3 50.9 L 126.2 50.9 C 126.2 50.9 126.22 47.11 126.2 47.1 C 126.2 46.7 126.2 46.4 126.1 46.1 C 126 45.9 125.9 45.8 125.7 45.6 C 125.4 45.5 125.2 45.4 124.9 45.4 C 124.5 45.4 124.1 45.6 123.8 45.9 C 123.4 46.2 123.3 46.7 123.3 47.5 C 123.27 47.49 123.3 50.9 123.3 50.9 L 122.2 50.9 Z M 128.5 49 C 128.5 49 129.5 48.9 129.5 48.9 C 129.6 49.3 129.7 49.6 130 49.8 C 130.3 50.1 130.6 50.2 131.1 50.2 C 131.6 50.2 132 50.1 132.2 49.9 C 132.4 49.7 132.6 49.4 132.6 49.2 C 132.6 48.9 132.4 48.7 132.2 48.6 C 132.1 48.5 131.7 48.4 131.2 48.3 C 130.4 48.1 129.9 47.9 129.6 47.7 C 129.3 47.6 129 47.4 128.9 47.2 C 128.7 46.9 128.6 46.6 128.6 46.3 C 128.6 46 128.7 45.8 128.8 45.6 C 129 45.3 129.1 45.1 129.4 45 C 129.5 44.8 129.7 44.7 130 44.7 C 130.3 44.6 130.6 44.5 130.9 44.5 C 131.4 44.5 131.9 44.6 132.2 44.7 C 132.6 44.9 132.9 45.1 133 45.3 C 133.2 45.6 133.3 45.9 133.4 46.3 C 133.4 46.3 132.4 46.4 132.4 46.4 C 132.3 46.1 132.2 45.8 132 45.7 C 131.7 45.5 131.4 45.4 131 45.4 C 130.5 45.4 130.2 45.5 130 45.6 C 129.8 45.8 129.7 46 129.7 46.2 C 129.7 46.3 129.7 46.5 129.8 46.6 C 129.9 46.7 130 46.8 130.2 46.8 C 130.3 46.9 130.6 47 131.1 47.1 C 131.9 47.3 132.4 47.5 132.7 47.6 C 133 47.7 133.2 47.9 133.4 48.2 C 133.6 48.4 133.6 48.7 133.6 49.1 C 133.6 49.4 133.5 49.7 133.3 50.1 C 133.1 50.4 132.8 50.6 132.4 50.8 C 132.1 50.9 131.6 51 131.1 51 C 130.3 51 129.7 50.9 129.3 50.5 C 128.9 50.2 128.6 49.7 128.5 49 Z M 134.9 43.5 L 134.9 42.3 L 135.9 42.3 L 135.9 43.5 L 134.9 43.5 Z M 134.9 50.9 L 134.9 44.7 L 135.9 44.7 L 135.9 50.9 L 134.9 50.9 Z M 138.5 50.9 L 137.5 50.9 L 137.5 42.3 L 138.6 42.3 C 138.6 42.3 138.6 45.37 138.6 45.4 C 139 44.8 139.6 44.5 140.3 44.5 C 140.7 44.5 141.1 44.6 141.4 44.8 C 141.7 44.9 142 45.1 142.2 45.4 C 142.5 45.7 142.6 46 142.8 46.4 C 142.9 46.8 142.9 47.2 142.9 47.7 C 142.9 48.8 142.7 49.6 142.2 50.2 C 141.6 50.7 141 51 140.3 51 C 139.5 51 138.9 50.7 138.5 50.1 C 138.53 50.11 138.5 50.9 138.5 50.9 Z M 138.5 47.7 C 138.5 48.5 138.6 49 138.8 49.4 C 139.2 49.9 139.6 50.2 140.2 50.2 C 140.6 50.2 141 50 141.4 49.6 C 141.7 49.2 141.9 48.6 141.9 47.8 C 141.9 47 141.7 46.4 141.4 46 C 141.1 45.6 140.7 45.4 140.2 45.4 C 139.8 45.4 139.4 45.6 139 46 C 138.7 46.4 138.5 47 138.5 47.7 Z M 144.2 50.9 L 144.2 42.3 L 145.3 42.3 L 145.3 50.9 L 144.2 50.9 Z M 151.2 48.9 C 151.2 48.9 152.2 49 152.2 49 C 152.1 49.7 151.8 50.2 151.3 50.5 C 150.8 50.9 150.2 51 149.5 51 C 148.6 51 147.9 50.8 147.3 50.2 C 146.8 49.6 146.5 48.8 146.5 47.8 C 146.5 46.8 146.8 46 147.4 45.4 C 147.9 44.8 148.6 44.5 149.4 44.5 C 150.3 44.5 151 44.8 151.5 45.4 C 152 45.9 152.3 46.7 152.3 47.8 C 152.3 47.8 152.3 47.9 152.3 48.1 C 152.3 48.1 147.6 48.1 147.6 48.1 C 147.7 48.7 147.9 49.3 148.2 49.6 C 148.6 50 149 50.2 149.5 50.2 C 149.9 50.2 150.2 50.1 150.5 49.9 C 150.8 49.7 151 49.3 151.2 48.9 Z M 147.7 47.2 C 147.7 47.2 151.2 47.2 151.2 47.2 C 151.1 46.7 151 46.3 150.8 46 C 150.4 45.6 150 45.4 149.5 45.4 C 149 45.4 148.6 45.6 148.2 45.9 C 147.9 46.2 147.7 46.6 147.7 47.2 Z M 157.2 50.9 L 157.2 45.5 L 156.2 45.5 L 156.2 44.7 L 157.2 44.7 C 157.2 44.7 157.15 44.01 157.2 44 C 157.2 43.6 157.2 43.3 157.3 43.1 C 157.4 42.8 157.5 42.6 157.8 42.4 C 158.1 42.2 158.4 42.2 158.9 42.2 C 159.2 42.2 159.5 42.2 159.9 42.3 C 159.9 42.3 159.7 43.2 159.7 43.2 C 159.5 43.1 159.3 43.1 159.1 43.1 C 158.8 43.1 158.5 43.2 158.4 43.3 C 158.3 43.5 158.2 43.7 158.2 44.1 C 158.2 44.1 158.2 44.7 158.2 44.7 L 159.4 44.7 L 159.4 45.5 L 158.2 45.5 L 158.2 50.9 L 157.2 50.9 Z M 159.8 47.8 C 159.8 46.6 160.2 45.8 160.8 45.2 C 161.3 44.8 162 44.5 162.8 44.5 C 163.6 44.5 164.3 44.8 164.9 45.4 C 165.4 45.9 165.7 46.7 165.7 47.7 C 165.7 48.5 165.6 49.1 165.3 49.6 C 165.1 50 164.7 50.4 164.3 50.7 C 163.8 50.9 163.3 51 162.8 51 C 161.9 51 161.2 50.8 160.6 50.2 C 160.1 49.6 159.8 48.8 159.8 47.8 Z M 160.9 47.8 C 160.9 48.6 161.1 49.2 161.4 49.6 C 161.8 50 162.2 50.2 162.8 50.2 C 163.3 50.2 163.7 50 164.1 49.6 C 164.4 49.2 164.6 48.6 164.6 47.7 C 164.6 47 164.4 46.4 164.1 46 C 163.7 45.6 163.3 45.4 162.8 45.4 C 162.2 45.4 161.8 45.6 161.4 46 C 161.1 46.4 160.9 47 160.9 47.8 Z M 166.9 50.9 L 166.9 44.7 L 167.8 44.7 C 167.8 44.7 167.85 45.61 167.8 45.6 C 168.1 45.2 168.3 44.9 168.5 44.7 C 168.7 44.6 168.9 44.5 169.2 44.5 C 169.6 44.5 169.9 44.6 170.3 44.9 C 170.3 44.9 169.9 45.8 169.9 45.8 C 169.7 45.7 169.4 45.6 169.1 45.6 C 168.9 45.6 168.7 45.7 168.5 45.8 C 168.3 46 168.2 46.2 168.1 46.4 C 168 46.8 168 47.2 168 47.6 C 167.95 47.63 168 50.9 168 50.9 L 166.9 50.9 Z M 178.3 50.9 C 178.3 50.9 178.28 50.11 178.3 50.1 C 177.9 50.7 177.3 51 176.5 51 C 176 51 175.6 50.9 175.2 50.6 C 174.8 50.3 174.4 50 174.2 49.5 C 174 49 173.9 48.4 173.9 47.8 C 173.9 47.2 174 46.6 174.2 46.1 C 174.4 45.6 174.7 45.2 175.1 44.9 C 175.5 44.7 176 44.5 176.5 44.5 C 176.9 44.5 177.2 44.6 177.5 44.8 C 177.8 44.9 178 45.1 178.2 45.4 C 178.21 45.38 178.2 42.3 178.2 42.3 L 179.3 42.3 L 179.3 50.9 L 178.3 50.9 Z M 174.9 47.8 C 174.9 48.6 175.1 49.2 175.4 49.6 C 175.8 50 176.2 50.2 176.6 50.2 C 177.1 50.2 177.5 50 177.8 49.6 C 178.1 49.2 178.3 48.6 178.3 47.9 C 178.3 47 178.1 46.4 177.8 46 C 177.5 45.6 177.1 45.4 176.6 45.4 C 176.1 45.4 175.7 45.6 175.4 46 C 175.1 46.4 174.9 47 174.9 47.8 Z M 185.2 48.9 C 185.2 48.9 186.3 49 186.3 49 C 186.1 49.7 185.8 50.2 185.3 50.5 C 184.8 50.9 184.2 51 183.5 51 C 182.6 51 181.9 50.8 181.4 50.2 C 180.8 49.6 180.6 48.8 180.6 47.8 C 180.6 46.8 180.8 46 181.4 45.4 C 181.9 44.8 182.6 44.5 183.5 44.5 C 184.3 44.5 185 44.8 185.5 45.4 C 186 45.9 186.3 46.7 186.3 47.8 C 186.3 47.8 186.3 47.9 186.3 48.1 C 186.3 48.1 181.7 48.1 181.7 48.1 C 181.7 48.7 181.9 49.3 182.2 49.6 C 182.6 50 183 50.2 183.5 50.2 C 183.9 50.2 184.2 50.1 184.5 49.9 C 184.8 49.7 185 49.3 185.2 48.9 Z M 181.7 47.2 C 181.7 47.2 185.2 47.2 185.2 47.2 C 185.1 46.7 185 46.3 184.8 46 C 184.5 45.6 184 45.4 183.5 45.4 C 183 45.4 182.6 45.6 182.3 45.9 C 181.9 46.2 181.7 46.6 181.7 47.2 Z M 187.6 50.9 L 187.6 42.3 L 188.6 42.3 L 188.6 50.9 L 187.6 50.9 Z M 190.3 43.5 L 190.3 42.3 L 191.3 42.3 L 191.3 43.5 L 190.3 43.5 Z M 190.3 50.9 L 190.3 44.7 L 191.3 44.7 L 191.3 50.9 L 190.3 50.9 Z M 194.6 50.9 L 192.3 44.7 L 193.4 44.7 C 193.4 44.7 194.73 48.4 194.7 48.4 C 194.9 48.8 195 49.2 195.1 49.7 C 195.2 49.3 195.4 48.9 195.5 48.5 C 195.52 48.47 196.9 44.7 196.9 44.7 L 198 44.7 L 195.6 50.9 L 194.6 50.9 Z M 203.2 48.9 C 203.2 48.9 204.3 49 204.3 49 C 204.1 49.7 203.8 50.2 203.3 50.5 C 202.8 50.9 202.3 51 201.5 51 C 200.6 51 199.9 50.8 199.4 50.2 C 198.8 49.6 198.6 48.8 198.6 47.8 C 198.6 46.8 198.8 46 199.4 45.4 C 199.9 44.8 200.6 44.5 201.5 44.5 C 202.3 44.5 203 44.8 203.5 45.4 C 204 45.9 204.3 46.7 204.3 47.8 C 204.3 47.8 204.3 47.9 204.3 48.1 C 204.3 48.1 199.7 48.1 199.7 48.1 C 199.7 48.7 199.9 49.3 200.2 49.6 C 200.6 50 201 50.2 201.5 50.2 C 201.9 50.2 202.3 50.1 202.5 49.9 C 202.8 49.7 203 49.3 203.2 48.9 Z M 199.7 47.2 C 199.7 47.2 203.2 47.2 203.2 47.2 C 203.1 46.7 203 46.3 202.8 46 C 202.5 45.6 202 45.4 201.5 45.4 C 201 45.4 200.6 45.6 200.3 45.9 C 199.9 46.2 199.8 46.6 199.7 47.2 Z M 205.6 50.9 L 205.6 44.7 L 206.5 44.7 C 206.5 44.7 206.53 45.61 206.5 45.6 C 206.8 45.2 207 44.9 207.2 44.7 C 207.4 44.6 207.6 44.5 207.9 44.5 C 208.2 44.5 208.6 44.6 209 44.9 C 209 44.9 208.6 45.8 208.6 45.8 C 208.3 45.7 208.1 45.6 207.8 45.6 C 207.6 45.6 207.4 45.7 207.2 45.8 C 207 46 206.9 46.2 206.8 46.4 C 206.7 46.8 206.6 47.2 206.6 47.6 C 206.64 47.63 206.6 50.9 206.6 50.9 L 205.6 50.9 Z M 209.6 43.5 L 209.6 42.3 L 210.7 42.3 L 210.7 43.5 L 209.6 43.5 Z M 209.6 50.9 L 209.6 44.7 L 210.7 44.7 L 210.7 50.9 L 209.6 50.9 Z M 212.3 50.9 L 212.3 44.7 L 213.2 44.7 C 213.2 44.7 213.21 45.55 213.2 45.6 C 213.7 44.9 214.3 44.5 215.2 44.5 C 215.6 44.5 215.9 44.6 216.2 44.7 C 216.5 44.9 216.8 45 216.9 45.3 C 217.1 45.5 217.2 45.7 217.3 46 C 217.3 46.2 217.3 46.6 217.3 47.1 C 217.31 47.07 217.3 50.9 217.3 50.9 L 216.3 50.9 C 216.3 50.9 216.26 47.11 216.3 47.1 C 216.3 46.7 216.2 46.4 216.1 46.1 C 216.1 45.9 215.9 45.8 215.7 45.6 C 215.5 45.5 215.2 45.4 215 45.4 C 214.5 45.4 214.1 45.6 213.8 45.9 C 213.5 46.2 213.3 46.7 213.3 47.5 C 213.31 47.49 213.3 50.9 213.3 50.9 L 212.3 50.9 Z M 218.7 51.4 C 218.7 51.4 219.8 51.6 219.8 51.6 C 219.8 51.9 219.9 52.1 220.1 52.3 C 220.4 52.4 220.7 52.5 221.2 52.5 C 221.7 52.5 222.1 52.4 222.3 52.3 C 222.6 52.1 222.8 51.8 222.9 51.4 C 222.9 51.2 222.9 50.8 222.9 50.1 C 222.5 50.6 221.9 50.9 221.2 50.9 C 220.4 50.9 219.7 50.6 219.2 50 C 218.8 49.3 218.5 48.6 218.5 47.7 C 218.5 47.2 218.6 46.6 218.8 46.1 C 219.1 45.6 219.4 45.2 219.8 44.9 C 220.2 44.7 220.7 44.5 221.2 44.5 C 222 44.5 222.6 44.8 223 45.4 C 223.04 45.42 223 44.7 223 44.7 L 224 44.7 C 224 44.7 224.01 50.05 224 50 C 224 51 223.9 51.7 223.7 52.1 C 223.5 52.5 223.2 52.8 222.8 53.1 C 222.3 53.3 221.8 53.4 221.2 53.4 C 220.5 53.4 219.9 53.3 219.4 52.9 C 218.9 52.6 218.7 52.1 218.7 51.4 Z M 219.6 47.7 C 219.6 48.5 219.8 49.1 220.1 49.5 C 220.4 49.8 220.8 50 221.3 50 C 221.8 50 222.2 49.8 222.5 49.5 C 222.9 49.1 223 48.5 223 47.7 C 223 46.9 222.9 46.4 222.5 46 C 222.2 45.6 221.8 45.4 221.3 45.4 C 220.8 45.4 220.4 45.6 220.1 46 C 219.8 46.4 219.6 46.9 219.6 47.7 Z M 233.2 50.9 C 233.1 50.7 233 50.4 233 50.1 C 232.6 50.5 232.2 50.7 231.9 50.8 C 231.5 51 231.1 51 230.7 51 C 230 51 229.5 50.9 229.1 50.5 C 228.8 50.2 228.6 49.8 228.6 49.3 C 228.6 48.9 228.6 48.7 228.8 48.4 C 228.9 48.2 229.1 48 229.3 47.8 C 229.6 47.7 229.8 47.5 230.1 47.5 C 230.3 47.4 230.6 47.4 231 47.3 C 231.9 47.2 232.5 47.1 232.9 46.9 C 232.9 46.8 232.9 46.7 232.9 46.7 C 232.9 46.2 232.8 45.9 232.6 45.8 C 232.3 45.5 231.9 45.4 231.4 45.4 C 230.9 45.4 230.6 45.5 230.3 45.7 C 230.1 45.8 229.9 46.1 229.8 46.6 C 229.8 46.6 228.8 46.4 228.8 46.4 C 228.9 46 229 45.6 229.2 45.4 C 229.4 45.1 229.7 44.9 230.2 44.7 C 230.6 44.6 231 44.5 231.6 44.5 C 232.1 44.5 232.5 44.6 232.9 44.7 C 233.2 44.8 233.4 45 233.6 45.2 C 233.8 45.4 233.9 45.6 233.9 45.9 C 234 46.1 234 46.4 234 46.9 C 234 46.9 234 48.3 234 48.3 C 234 49.3 234 49.9 234 50.1 C 234.1 50.4 234.2 50.7 234.3 50.9 C 234.31 50.89 233.2 50.9 233.2 50.9 C 233.2 50.9 233.21 50.89 233.2 50.9 Z M 232.9 47.8 C 232.5 47.9 232 48.1 231.2 48.2 C 230.8 48.2 230.4 48.3 230.3 48.4 C 230.1 48.5 229.9 48.6 229.9 48.7 C 229.8 48.9 229.7 49 229.7 49.2 C 229.7 49.5 229.8 49.7 230 49.9 C 230.2 50.1 230.5 50.2 231 50.2 C 231.4 50.2 231.7 50.1 232 49.9 C 232.4 49.8 232.6 49.5 232.7 49.2 C 232.9 49 232.9 48.6 232.9 48.2 C 232.9 48.2 232.9 47.8 232.9 47.8 Z M 235.4 51.4 C 235.4 51.4 236.4 51.6 236.4 51.6 C 236.5 51.9 236.6 52.1 236.8 52.3 C 237.1 52.4 237.4 52.5 237.9 52.5 C 238.4 52.5 238.7 52.4 239 52.3 C 239.3 52.1 239.4 51.8 239.5 51.4 C 239.6 51.2 239.6 50.8 239.6 50.1 C 239.2 50.6 238.6 50.9 237.9 50.9 C 237 50.9 236.4 50.6 235.9 50 C 235.4 49.3 235.2 48.6 235.2 47.7 C 235.2 47.2 235.3 46.6 235.5 46.1 C 235.7 45.6 236.1 45.2 236.5 44.9 C 236.9 44.7 237.4 44.5 237.9 44.5 C 238.6 44.5 239.2 44.8 239.7 45.4 C 239.72 45.42 239.7 44.7 239.7 44.7 L 240.7 44.7 C 240.7 44.7 240.69 50.05 240.7 50 C 240.7 51 240.6 51.7 240.4 52.1 C 240.2 52.5 239.9 52.8 239.5 53.1 C 239 53.3 238.5 53.4 237.9 53.4 C 237.1 53.4 236.5 53.3 236.1 52.9 C 235.6 52.6 235.4 52.1 235.4 51.4 Z M 236.3 47.7 C 236.3 48.5 236.5 49.1 236.8 49.5 C 237.1 49.8 237.5 50 238 50 C 238.5 50 238.9 49.8 239.2 49.5 C 239.5 49.1 239.7 48.5 239.7 47.7 C 239.7 46.9 239.5 46.4 239.2 46 C 238.9 45.6 238.5 45.4 238 45.4 C 237.5 45.4 237.1 45.6 236.8 46 C 236.5 46.4 236.3 46.9 236.3 47.7 Z M 246.6 50.9 C 246.4 50.7 246.4 50.4 246.3 50.1 C 246 50.5 245.6 50.7 245.2 50.8 C 244.9 51 244.5 51 244.1 51 C 243.4 51 242.8 50.9 242.5 50.5 C 242.1 50.2 241.9 49.8 241.9 49.3 C 241.9 48.9 242 48.7 242.1 48.4 C 242.3 48.2 242.5 48 242.7 47.8 C 242.9 47.7 243.2 47.5 243.4 47.5 C 243.6 47.4 244 47.4 244.4 47.3 C 245.2 47.2 245.9 47.1 246.3 46.9 C 246.3 46.8 246.3 46.7 246.3 46.7 C 246.3 46.2 246.2 45.9 246 45.8 C 245.7 45.5 245.3 45.4 244.8 45.4 C 244.3 45.4 243.9 45.5 243.7 45.7 C 243.4 45.8 243.3 46.1 243.1 46.6 C 243.1 46.6 242.1 46.4 242.1 46.4 C 242.2 46 242.4 45.6 242.6 45.4 C 242.8 45.1 243.1 44.9 243.5 44.7 C 243.9 44.6 244.4 44.5 244.9 44.5 C 245.4 44.5 245.9 44.6 246.2 44.7 C 246.5 44.8 246.8 45 246.9 45.2 C 247.1 45.4 247.2 45.6 247.3 45.9 C 247.3 46.1 247.3 46.4 247.3 46.9 C 247.3 46.9 247.3 48.3 247.3 48.3 C 247.3 49.3 247.3 49.9 247.4 50.1 C 247.4 50.4 247.5 50.7 247.7 50.9 C 247.66 50.89 246.6 50.9 246.6 50.9 C 246.6 50.9 246.56 50.89 246.6 50.9 Z M 246.3 47.8 C 245.9 47.9 245.3 48.1 244.5 48.2 C 244.1 48.2 243.8 48.3 243.6 48.4 C 243.4 48.5 243.3 48.6 243.2 48.7 C 243.1 48.9 243.1 49 243.1 49.2 C 243.1 49.5 243.2 49.7 243.4 49.9 C 243.6 50.1 243.9 50.2 244.3 50.2 C 244.7 50.2 245.1 50.1 245.4 49.9 C 245.7 49.8 245.9 49.5 246.1 49.2 C 246.2 49 246.3 48.6 246.3 48.2 C 246.3 48.2 246.3 47.8 246.3 47.8 Z M 249 43.5 L 249 42.3 L 250 42.3 L 250 43.5 L 249 43.5 Z M 249 50.9 L 249 44.7 L 250 44.7 L 250 50.9 L 249 50.9 Z M 251.6 50.9 L 251.6 44.7 L 252.6 44.7 C 252.6 44.7 252.57 45.55 252.6 45.6 C 253 44.9 253.7 44.5 254.6 44.5 C 254.9 44.5 255.3 44.6 255.6 44.7 C 255.9 44.9 256.1 45 256.3 45.3 C 256.5 45.5 256.6 45.7 256.6 46 C 256.7 46.2 256.7 46.6 256.7 47.1 C 256.68 47.07 256.7 50.9 256.7 50.9 L 255.6 50.9 C 255.6 50.9 255.63 47.11 255.6 47.1 C 255.6 46.7 255.6 46.4 255.5 46.1 C 255.4 45.9 255.3 45.8 255.1 45.6 C 254.9 45.5 254.6 45.4 254.3 45.4 C 253.9 45.4 253.5 45.6 253.2 45.9 C 252.8 46.2 252.7 46.7 252.7 47.5 C 252.68 47.49 252.7 50.9 252.7 50.9 L 251.6 50.9 Z M 257.9 49 C 257.9 49 258.9 48.9 258.9 48.9 C 259 49.3 259.1 49.6 259.4 49.8 C 259.7 50.1 260.1 50.2 260.5 50.2 C 261 50.2 261.4 50.1 261.6 49.9 C 261.8 49.7 262 49.4 262 49.2 C 262 48.9 261.9 48.7 261.7 48.6 C 261.5 48.5 261.1 48.4 260.6 48.3 C 259.8 48.1 259.3 47.9 259 47.7 C 258.7 47.6 258.4 47.4 258.3 47.2 C 258.1 46.9 258.1 46.6 258.1 46.3 C 258.1 46 258.1 45.8 258.2 45.6 C 258.4 45.3 258.5 45.1 258.8 45 C 258.9 44.8 259.1 44.7 259.4 44.7 C 259.7 44.6 260 44.5 260.3 44.5 C 260.8 44.5 261.3 44.6 261.6 44.7 C 262 44.9 262.3 45.1 262.4 45.3 C 262.6 45.6 262.7 45.9 262.8 46.3 C 262.8 46.3 261.8 46.4 261.8 46.4 C 261.7 46.1 261.6 45.8 261.4 45.7 C 261.1 45.5 260.8 45.4 260.4 45.4 C 259.9 45.4 259.6 45.5 259.4 45.6 C 259.2 45.8 259.1 46 259.1 46.2 C 259.1 46.3 259.1 46.5 259.2 46.6 C 259.3 46.7 259.4 46.8 259.6 46.8 C 259.7 46.9 260 47 260.5 47.1 C 261.3 47.3 261.8 47.5 262.1 47.6 C 262.4 47.7 262.6 47.9 262.8 48.2 C 263 48.4 263 48.7 263 49.1 C 263 49.4 262.9 49.7 262.7 50.1 C 262.5 50.4 262.2 50.6 261.8 50.8 C 261.5 50.9 261 51 260.5 51 C 259.7 51 259.1 50.9 258.7 50.5 C 258.3 50.2 258 49.7 257.9 49 Z M 266.1 50 C 266.3 50 266.4 50 266.6 49.9 C 266.6 49.9 266.8 50.9 266.8 50.9 C 266.5 50.9 266.2 51 266 51 C 265.6 51 265.3 50.9 265.1 50.8 C 264.9 50.7 264.7 50.5 264.6 50.3 C 264.5 50.1 264.5 49.7 264.5 49.1 C 264.49 49.07 264.5 45.5 264.5 45.5 L 263.7 45.5 L 263.7 44.7 L 264.5 44.7 L 264.5 43.1 L 265.5 42.5 L 265.5 44.7 L 266.6 44.7 L 266.6 45.5 L 265.5 45.5 C 265.5 45.5 265.54 49.13 265.5 49.1 C 265.5 49.4 265.6 49.6 265.6 49.7 C 265.6 49.8 265.7 49.9 265.8 49.9 C 265.9 50 266 50 266.1 50 C 266.1 50 266.1 50 266.1 50 Z " stroke="none" fill="#ffffff"/>  </g>  <g id="Polygon2156">    <path d="M 0.9 36.5 L 0.9 27.9 L 2.1 27.9 L 6.6 34.6 L 6.6 27.9 L 7.7 27.9 L 7.7 36.5 L 6.5 36.5 L 2 29.7 L 2 36.5 L 0.9 36.5 Z M 9.1 33.4 C 9.1 32.2 9.4 31.4 10 30.8 C 10.6 30.4 11.2 30.1 12 30.1 C 12.8 30.1 13.5 30.4 14.1 31 C 14.6 31.5 14.9 32.3 14.9 33.3 C 14.9 34.1 14.8 34.7 14.5 35.2 C 14.3 35.6 13.9 36 13.5 36.3 C 13 36.5 12.5 36.6 12 36.6 C 11.1 36.6 10.4 36.4 9.9 35.8 C 9.3 35.2 9.1 34.4 9.1 33.4 Z M 10.1 33.4 C 10.1 34.2 10.3 34.8 10.7 35.2 C 11 35.6 11.5 35.8 12 35.8 C 12.5 35.8 12.9 35.6 13.3 35.2 C 13.6 34.8 13.8 34.2 13.8 33.3 C 13.8 32.6 13.6 32 13.3 31.6 C 12.9 31.2 12.5 31 12 31 C 11.5 31 11 31.2 10.7 31.6 C 10.3 32 10.1 32.6 10.1 33.4 Z M 19.5 36.5 L 19.5 30.3 L 20.4 30.3 C 20.4 30.3 20.4 31.21 20.4 31.2 C 20.6 30.8 20.9 30.5 21.1 30.3 C 21.3 30.2 21.5 30.1 21.8 30.1 C 22.1 30.1 22.5 30.2 22.8 30.5 C 22.8 30.5 22.5 31.4 22.5 31.4 C 22.2 31.3 22 31.2 21.7 31.2 C 21.5 31.2 21.3 31.3 21.1 31.4 C 20.9 31.6 20.8 31.8 20.7 32 C 20.6 32.4 20.5 32.8 20.5 33.2 C 20.51 33.23 20.5 36.5 20.5 36.5 L 19.5 36.5 Z M 27.7 34.5 C 27.7 34.5 28.8 34.6 28.8 34.6 C 28.6 35.3 28.3 35.8 27.9 36.1 C 27.4 36.5 26.8 36.6 26.1 36.6 C 25.2 36.6 24.4 36.4 23.9 35.8 C 23.4 35.2 23.1 34.4 23.1 33.4 C 23.1 32.4 23.4 31.6 23.9 31 C 24.5 30.4 25.2 30.1 26 30.1 C 26.8 30.1 27.5 30.4 28.1 31 C 28.6 31.5 28.8 32.3 28.8 33.4 C 28.8 33.4 28.8 33.5 28.8 33.7 C 28.8 33.7 24.2 33.7 24.2 33.7 C 24.2 34.3 24.4 34.9 24.8 35.2 C 25.1 35.6 25.6 35.8 26.1 35.8 C 26.5 35.8 26.8 35.7 27.1 35.5 C 27.3 35.3 27.6 34.9 27.7 34.5 Z M 24.3 32.8 C 24.3 32.8 27.7 32.8 27.7 32.8 C 27.7 32.3 27.6 31.9 27.3 31.6 C 27 31.2 26.6 31 26 31 C 25.5 31 25.1 31.2 24.8 31.5 C 24.5 31.8 24.3 32.2 24.3 32.8 Z M 34.2 36.5 C 34.2 36.5 34.17 35.71 34.2 35.7 C 33.8 36.3 33.2 36.6 32.4 36.6 C 31.9 36.6 31.5 36.5 31.1 36.2 C 30.6 35.9 30.3 35.6 30.1 35.1 C 29.9 34.6 29.8 34 29.8 33.4 C 29.8 32.8 29.9 32.2 30.1 31.7 C 30.3 31.2 30.6 30.8 31 30.5 C 31.4 30.3 31.9 30.1 32.4 30.1 C 32.8 30.1 33.1 30.2 33.4 30.4 C 33.7 30.5 33.9 30.7 34.1 31 C 34.1 30.98 34.1 27.9 34.1 27.9 L 35.2 27.9 L 35.2 36.5 L 34.2 36.5 Z M 30.8 33.4 C 30.8 34.2 31 34.8 31.3 35.2 C 31.7 35.6 32.1 35.8 32.5 35.8 C 33 35.8 33.4 35.6 33.7 35.2 C 34 34.8 34.2 34.2 34.2 33.5 C 34.2 32.6 34 32 33.7 31.6 C 33.4 31.2 33 31 32.5 31 C 32 31 31.6 31.2 31.3 31.6 C 31 32 30.8 32.6 30.8 33.4 Z M 42 35.6 C 42.1 35.6 42.3 35.6 42.4 35.5 C 42.4 35.5 42.6 36.5 42.6 36.5 C 42.3 36.5 42 36.6 41.8 36.6 C 41.4 36.6 41.1 36.5 40.9 36.4 C 40.7 36.3 40.6 36.1 40.5 35.9 C 40.4 35.7 40.3 35.3 40.3 34.7 C 40.34 34.67 40.3 31.1 40.3 31.1 L 39.6 31.1 L 39.6 30.3 L 40.3 30.3 L 40.3 28.7 L 41.4 28.1 L 41.4 30.3 L 42.4 30.3 L 42.4 31.1 L 41.4 31.1 C 41.4 31.1 41.38 34.73 41.4 34.7 C 41.4 35 41.4 35.2 41.4 35.3 C 41.5 35.4 41.5 35.5 41.6 35.5 C 41.7 35.6 41.8 35.6 42 35.6 C 42 35.6 42 35.6 42 35.6 Z M 47.7 36.5 C 47.6 36.3 47.6 36 47.5 35.7 C 47.1 36.1 46.8 36.3 46.4 36.4 C 46 36.6 45.7 36.6 45.2 36.6 C 44.6 36.6 44 36.5 43.7 36.1 C 43.3 35.8 43.1 35.4 43.1 34.9 C 43.1 34.5 43.2 34.3 43.3 34 C 43.5 33.8 43.6 33.6 43.9 33.4 C 44.1 33.3 44.3 33.1 44.6 33.1 C 44.8 33 45.2 33 45.6 32.9 C 46.4 32.8 47 32.7 47.4 32.5 C 47.5 32.4 47.5 32.3 47.5 32.3 C 47.5 31.8 47.4 31.5 47.2 31.4 C 46.9 31.1 46.5 31 46 31 C 45.5 31 45.1 31.1 44.9 31.3 C 44.6 31.4 44.4 31.7 44.3 32.2 C 44.3 32.2 43.3 32 43.3 32 C 43.4 31.6 43.5 31.2 43.8 31 C 44 30.7 44.3 30.5 44.7 30.3 C 45.1 30.2 45.6 30.1 46.1 30.1 C 46.6 30.1 47.1 30.2 47.4 30.3 C 47.7 30.4 48 30.6 48.1 30.8 C 48.3 31 48.4 31.2 48.5 31.5 C 48.5 31.7 48.5 32 48.5 32.5 C 48.5 32.5 48.5 33.9 48.5 33.9 C 48.5 34.9 48.5 35.5 48.6 35.7 C 48.6 36 48.7 36.3 48.8 36.5 C 48.85 36.49 47.7 36.5 47.7 36.5 C 47.7 36.5 47.75 36.49 47.7 36.5 Z M 47.4 33.4 C 47.1 33.5 46.5 33.7 45.7 33.8 C 45.3 33.8 45 33.9 44.8 34 C 44.6 34.1 44.5 34.2 44.4 34.3 C 44.3 34.5 44.2 34.6 44.2 34.8 C 44.2 35.1 44.4 35.3 44.6 35.5 C 44.8 35.7 45.1 35.8 45.5 35.8 C 45.9 35.8 46.3 35.7 46.6 35.5 C 46.9 35.4 47.1 35.1 47.3 34.8 C 47.4 34.6 47.4 34.2 47.4 33.8 C 47.4 33.8 47.4 33.4 47.4 33.4 Z M 50.2 38.9 L 50.2 30.3 L 51.1 30.3 C 51.1 30.3 51.11 31.08 51.1 31.1 C 51.3 30.8 51.6 30.5 51.9 30.4 C 52.2 30.2 52.5 30.1 52.9 30.1 C 53.4 30.1 53.9 30.3 54.3 30.5 C 54.7 30.8 55 31.2 55.2 31.7 C 55.4 32.2 55.6 32.7 55.6 33.3 C 55.6 34 55.4 34.5 55.2 35.1 C 55 35.6 54.6 36 54.2 36.2 C 53.8 36.5 53.3 36.6 52.8 36.6 C 52.5 36.6 52.2 36.6 51.9 36.4 C 51.6 36.3 51.4 36.1 51.2 35.8 C 51.21 35.85 51.2 38.9 51.2 38.9 L 50.2 38.9 Z M 51.1 33.4 C 51.1 34.2 51.3 34.8 51.6 35.2 C 51.9 35.6 52.3 35.8 52.8 35.8 C 53.2 35.8 53.6 35.6 54 35.2 C 54.3 34.8 54.5 34.2 54.5 33.3 C 54.5 32.5 54.3 31.9 54 31.5 C 53.7 31.2 53.3 31 52.8 31 C 52.4 31 52 31.2 51.6 31.6 C 51.3 32 51.1 32.6 51.1 33.4 Z M 61.1 34.5 C 61.1 34.5 62.2 34.6 62.2 34.6 C 62 35.3 61.7 35.8 61.2 36.1 C 60.8 36.5 60.2 36.6 59.4 36.6 C 58.5 36.6 57.8 36.4 57.3 35.8 C 56.7 35.2 56.5 34.4 56.5 33.4 C 56.5 32.4 56.7 31.6 57.3 31 C 57.8 30.4 58.5 30.1 59.4 30.1 C 60.2 30.1 60.9 30.4 61.4 31 C 61.9 31.5 62.2 32.3 62.2 33.4 C 62.2 33.4 62.2 33.5 62.2 33.7 C 62.2 33.7 57.6 33.7 57.6 33.7 C 57.6 34.3 57.8 34.9 58.1 35.2 C 58.5 35.6 58.9 35.8 59.4 35.8 C 59.8 35.8 60.2 35.7 60.4 35.5 C 60.7 35.3 60.9 34.9 61.1 34.5 Z M 57.6 32.8 C 57.6 32.8 61.1 32.8 61.1 32.8 C 61 32.3 60.9 31.9 60.7 31.6 C 60.4 31.2 59.9 31 59.4 31 C 58.9 31 58.5 31.2 58.2 31.5 C 57.8 31.8 57.7 32.2 57.6 32.8 Z M 63.8 36.5 L 63.8 35.3 L 65 35.3 C 65 35.3 64.97 36.49 65 36.5 C 65 36.9 64.9 37.3 64.7 37.6 C 64.6 37.8 64.3 38 64 38.2 C 64 38.2 63.7 37.7 63.7 37.7 C 63.9 37.6 64.1 37.5 64.2 37.3 C 64.3 37.1 64.4 36.8 64.4 36.5 C 64.37 36.49 63.8 36.5 63.8 36.5 Z M 70.2 36.5 L 70.2 30.3 L 71.1 30.3 C 71.1 30.3 71.12 31.15 71.1 31.2 C 71.6 30.5 72.2 30.1 73.1 30.1 C 73.5 30.1 73.8 30.2 74.1 30.3 C 74.4 30.5 74.7 30.6 74.8 30.9 C 75 31.1 75.1 31.3 75.2 31.6 C 75.2 31.8 75.2 32.2 75.2 32.7 C 75.22 32.67 75.2 36.5 75.2 36.5 L 74.2 36.5 C 74.2 36.5 74.17 32.71 74.2 32.7 C 74.2 32.3 74.1 32 74 31.7 C 74 31.5 73.8 31.4 73.6 31.2 C 73.4 31.1 73.2 31 72.9 31 C 72.4 31 72 31.2 71.7 31.5 C 71.4 31.8 71.2 32.3 71.2 33.1 C 71.22 33.09 71.2 36.5 71.2 36.5 L 70.2 36.5 Z M 76.4 33.4 C 76.4 32.2 76.8 31.4 77.4 30.8 C 77.9 30.4 78.6 30.1 79.4 30.1 C 80.2 30.1 80.9 30.4 81.5 31 C 82 31.5 82.3 32.3 82.3 33.3 C 82.3 34.1 82.2 34.7 81.9 35.2 C 81.7 35.6 81.3 36 80.9 36.3 C 80.4 36.5 79.9 36.6 79.4 36.6 C 78.5 36.6 77.8 36.4 77.3 35.8 C 76.7 35.2 76.4 34.4 76.4 33.4 Z M 77.5 33.4 C 77.5 34.2 77.7 34.8 78.1 35.2 C 78.4 35.6 78.8 35.8 79.4 35.8 C 79.9 35.8 80.3 35.6 80.7 35.2 C 81 34.8 81.2 34.2 81.2 33.3 C 81.2 32.6 81 32 80.7 31.6 C 80.3 31.2 79.9 31 79.4 31 C 78.8 31 78.4 31.2 78.1 31.6 C 77.7 32 77.5 32.6 77.5 33.4 Z M 83.5 36.5 L 83.5 30.3 L 84.5 30.3 C 84.5 30.3 84.46 31.15 84.5 31.2 C 84.9 30.5 85.6 30.1 86.4 30.1 C 86.8 30.1 87.2 30.2 87.5 30.3 C 87.8 30.5 88 30.6 88.2 30.9 C 88.3 31.1 88.4 31.3 88.5 31.6 C 88.6 31.8 88.6 32.2 88.6 32.7 C 88.57 32.67 88.6 36.5 88.6 36.5 L 87.5 36.5 C 87.5 36.5 87.52 32.71 87.5 32.7 C 87.5 32.3 87.5 32 87.4 31.7 C 87.3 31.5 87.2 31.4 87 31.2 C 86.7 31.1 86.5 31 86.2 31 C 85.8 31 85.4 31.2 85.1 31.5 C 84.7 31.8 84.6 32.3 84.6 33.1 C 84.57 33.09 84.6 36.5 84.6 36.5 L 83.5 36.5 Z M 89.8 33.9 L 89.8 32.9 L 93 32.9 L 93 33.9 L 89.8 33.9 Z M 95.2 36.5 L 94.2 36.5 L 94.2 27.9 L 95.2 27.9 C 95.2 27.9 95.23 30.97 95.2 31 C 95.7 30.4 96.2 30.1 96.9 30.1 C 97.3 30.1 97.7 30.2 98 30.4 C 98.4 30.5 98.6 30.7 98.9 31 C 99.1 31.3 99.3 31.6 99.4 32 C 99.5 32.4 99.6 32.8 99.6 33.3 C 99.6 34.4 99.3 35.2 98.8 35.8 C 98.3 36.3 97.6 36.6 96.9 36.6 C 96.2 36.6 95.6 36.3 95.2 35.7 C 95.16 35.71 95.2 36.5 95.2 36.5 Z M 95.1 33.3 C 95.1 34.1 95.2 34.6 95.4 35 C 95.8 35.5 96.2 35.8 96.8 35.8 C 97.3 35.8 97.7 35.6 98 35.2 C 98.3 34.8 98.5 34.2 98.5 33.4 C 98.5 32.6 98.3 32 98 31.6 C 97.7 31.2 97.3 31 96.8 31 C 96.4 31 96 31.2 95.6 31.6 C 95.3 32 95.1 32.6 95.1 33.3 Z M 104.9 36.5 C 104.9 36.5 104.94 35.58 104.9 35.6 C 104.5 36.3 103.8 36.6 103 36.6 C 102.6 36.6 102.3 36.6 101.9 36.4 C 101.6 36.3 101.4 36.1 101.2 35.9 C 101.1 35.7 101 35.4 100.9 35.1 C 100.9 34.9 100.8 34.6 100.8 34.1 C 100.83 34.13 100.8 30.3 100.8 30.3 L 101.9 30.3 C 101.9 30.3 101.89 33.72 101.9 33.7 C 101.9 34.3 101.9 34.6 102 34.8 C 102 35.1 102.2 35.3 102.4 35.5 C 102.6 35.6 102.9 35.7 103.2 35.7 C 103.5 35.7 103.8 35.6 104.1 35.5 C 104.3 35.3 104.5 35.1 104.7 34.8 C 104.8 34.5 104.8 34.1 104.8 33.6 C 104.82 33.6 104.8 30.3 104.8 30.3 L 105.9 30.3 L 105.9 36.5 L 104.9 36.5 Z M 107.5 36.5 L 107.5 30.3 L 108.5 30.3 C 108.5 30.3 108.47 31.21 108.5 31.2 C 108.7 30.8 108.9 30.5 109.1 30.3 C 109.3 30.2 109.6 30.1 109.8 30.1 C 110.2 30.1 110.5 30.2 110.9 30.5 C 110.9 30.5 110.5 31.4 110.5 31.4 C 110.3 31.3 110 31.2 109.8 31.2 C 109.5 31.2 109.3 31.3 109.1 31.4 C 109 31.6 108.8 31.8 108.8 32 C 108.6 32.4 108.6 32.8 108.6 33.2 C 108.57 33.23 108.6 36.5 108.6 36.5 L 107.5 36.5 Z M 115.8 34.5 C 115.8 34.5 116.9 34.6 116.9 34.6 C 116.7 35.3 116.4 35.8 115.9 36.1 C 115.5 36.5 114.9 36.6 114.1 36.6 C 113.2 36.6 112.5 36.4 112 35.8 C 111.4 35.2 111.2 34.4 111.2 33.4 C 111.2 32.4 111.4 31.6 112 31 C 112.5 30.4 113.2 30.1 114.1 30.1 C 114.9 30.1 115.6 30.4 116.1 31 C 116.6 31.5 116.9 32.3 116.9 33.4 C 116.9 33.4 116.9 33.5 116.9 33.7 C 116.9 33.7 112.3 33.7 112.3 33.7 C 112.3 34.3 112.5 34.9 112.8 35.2 C 113.2 35.6 113.6 35.8 114.1 35.8 C 114.5 35.8 114.9 35.7 115.1 35.5 C 115.4 35.3 115.6 34.9 115.8 34.5 Z M 112.3 32.8 C 112.3 32.8 115.8 32.8 115.8 32.8 C 115.8 32.3 115.6 31.9 115.4 31.6 C 115.1 31.2 114.6 31 114.1 31 C 113.6 31 113.2 31.2 112.9 31.5 C 112.5 31.8 112.4 32.2 112.3 32.8 Z M 122.5 36.5 C 122.4 36.3 122.3 36 122.3 35.7 C 121.9 36.1 121.5 36.3 121.1 36.4 C 120.8 36.6 120.4 36.6 120 36.6 C 119.3 36.6 118.8 36.5 118.4 36.1 C 118 35.8 117.8 35.4 117.8 34.9 C 117.8 34.5 117.9 34.3 118.1 34 C 118.2 33.8 118.4 33.6 118.6 33.4 C 118.8 33.3 119.1 33.1 119.4 33.1 C 119.6 33 119.9 33 120.3 32.9 C 121.1 32.8 121.8 32.7 122.2 32.5 C 122.2 32.4 122.2 32.3 122.2 32.3 C 122.2 31.8 122.1 31.5 121.9 31.4 C 121.6 31.1 121.2 31 120.7 31 C 120.2 31 119.8 31.1 119.6 31.3 C 119.3 31.4 119.2 31.7 119.1 32.2 C 119.1 32.2 118 32 118 32 C 118.1 31.6 118.3 31.2 118.5 31 C 118.7 30.7 119 30.5 119.4 30.3 C 119.8 30.2 120.3 30.1 120.8 30.1 C 121.4 30.1 121.8 30.2 122.1 30.3 C 122.5 30.4 122.7 30.6 122.9 30.8 C 123 31 123.1 31.2 123.2 31.5 C 123.2 31.7 123.2 32 123.2 32.5 C 123.2 32.5 123.2 33.9 123.2 33.9 C 123.2 34.9 123.3 35.5 123.3 35.7 C 123.4 36 123.4 36.3 123.6 36.5 C 123.57 36.49 122.5 36.5 122.5 36.5 C 122.5 36.5 122.47 36.49 122.5 36.5 Z M 122.2 33.4 C 121.8 33.5 121.2 33.7 120.5 33.8 C 120 33.8 119.7 33.9 119.5 34 C 119.4 34.1 119.2 34.2 119.1 34.3 C 119 34.5 119 34.6 119 34.8 C 119 35.1 119.1 35.3 119.3 35.5 C 119.5 35.7 119.8 35.8 120.2 35.8 C 120.6 35.8 121 35.7 121.3 35.5 C 121.6 35.4 121.9 35.1 122 34.8 C 122.1 34.6 122.2 34.2 122.2 33.8 C 122.2 33.8 122.2 33.4 122.2 33.4 Z M 129 36.5 C 129 36.5 128.95 35.58 129 35.6 C 128.5 36.3 127.8 36.6 127 36.6 C 126.6 36.6 126.3 36.6 126 36.4 C 125.6 36.3 125.4 36.1 125.2 35.9 C 125.1 35.7 125 35.4 124.9 35.1 C 124.9 34.9 124.9 34.6 124.9 34.1 C 124.85 34.13 124.9 30.3 124.9 30.3 L 125.9 30.3 C 125.9 30.3 125.91 33.72 125.9 33.7 C 125.9 34.3 125.9 34.6 126 34.8 C 126 35.1 126.2 35.3 126.4 35.5 C 126.6 35.6 126.9 35.7 127.2 35.7 C 127.5 35.7 127.8 35.6 128.1 35.5 C 128.4 35.3 128.6 35.1 128.7 34.8 C 128.8 34.5 128.8 34.1 128.8 33.6 C 128.84 33.6 128.8 30.3 128.8 30.3 L 129.9 30.3 L 129.9 36.5 L 129 36.5 Z M 135.6 34.2 C 135.6 34.2 136.6 34.3 136.6 34.3 C 136.5 35.1 136.2 35.6 135.8 36 C 135.3 36.4 134.7 36.6 134.1 36.6 C 133.2 36.6 132.5 36.4 132 35.8 C 131.5 35.2 131.2 34.4 131.2 33.4 C 131.2 32.7 131.3 32.1 131.6 31.6 C 131.8 31.1 132.1 30.8 132.6 30.5 C 133 30.3 133.5 30.1 134.1 30.1 C 134.7 30.1 135.3 30.3 135.7 30.6 C 136.2 31 136.4 31.5 136.5 32.1 C 136.5 32.1 135.5 32.3 135.5 32.3 C 135.4 31.8 135.3 31.5 135 31.3 C 134.8 31.1 134.5 31 134.1 31 C 133.6 31 133.1 31.2 132.8 31.6 C 132.5 31.9 132.3 32.6 132.3 33.4 C 132.3 34.2 132.5 34.8 132.8 35.2 C 133.1 35.6 133.5 35.8 134 35.8 C 134.5 35.8 134.8 35.6 135.1 35.4 C 135.4 35.1 135.5 34.7 135.6 34.2 Z M 137.5 36.5 L 137.5 30.3 L 138.5 30.3 C 138.5 30.3 138.49 31.21 138.5 31.2 C 138.7 30.8 139 30.5 139.2 30.3 C 139.4 30.2 139.6 30.1 139.8 30.1 C 140.2 30.1 140.6 30.2 140.9 30.5 C 140.9 30.5 140.6 31.4 140.6 31.4 C 140.3 31.3 140 31.2 139.8 31.2 C 139.6 31.2 139.3 31.3 139.2 31.4 C 139 31.6 138.8 31.8 138.8 32 C 138.7 32.4 138.6 32.8 138.6 33.2 C 138.59 33.23 138.6 36.5 138.6 36.5 L 137.5 36.5 Z M 145.8 36.5 C 145.7 36.3 145.6 36 145.6 35.7 C 145.2 36.1 144.8 36.3 144.5 36.4 C 144.1 36.6 143.7 36.6 143.3 36.6 C 142.6 36.6 142.1 36.5 141.7 36.1 C 141.4 35.8 141.2 35.4 141.2 34.9 C 141.2 34.5 141.3 34.3 141.4 34 C 141.5 33.8 141.7 33.6 141.9 33.4 C 142.2 33.3 142.4 33.1 142.7 33.1 C 142.9 33 143.2 33 143.6 32.9 C 144.5 32.8 145.1 32.7 145.5 32.5 C 145.5 32.4 145.5 32.3 145.5 32.3 C 145.5 31.8 145.4 31.5 145.2 31.4 C 145 31.1 144.6 31 144 31 C 143.5 31 143.2 31.1 142.9 31.3 C 142.7 31.4 142.5 31.7 142.4 32.2 C 142.4 32.2 141.4 32 141.4 32 C 141.5 31.6 141.6 31.2 141.8 31 C 142 30.7 142.4 30.5 142.8 30.3 C 143.2 30.2 143.6 30.1 144.2 30.1 C 144.7 30.1 145.1 30.2 145.5 30.3 C 145.8 30.4 146 30.6 146.2 30.8 C 146.4 31 146.5 31.2 146.5 31.5 C 146.6 31.7 146.6 32 146.6 32.5 C 146.6 32.5 146.6 33.9 146.6 33.9 C 146.6 34.9 146.6 35.5 146.7 35.7 C 146.7 36 146.8 36.3 146.9 36.5 C 146.92 36.49 145.8 36.5 145.8 36.5 C 145.8 36.5 145.82 36.49 145.8 36.5 Z M 145.5 33.4 C 145.1 33.5 144.6 33.7 143.8 33.8 C 143.4 33.8 143.1 33.9 142.9 34 C 142.7 34.1 142.6 34.2 142.5 34.3 C 142.4 34.5 142.3 34.6 142.3 34.8 C 142.3 35.1 142.4 35.3 142.6 35.5 C 142.8 35.7 143.2 35.8 143.6 35.8 C 144 35.8 144.3 35.7 144.7 35.5 C 145 35.4 145.2 35.1 145.3 34.8 C 145.5 34.6 145.5 34.2 145.5 33.8 C 145.5 33.8 145.5 33.4 145.5 33.4 Z M 150.1 35.6 C 150.2 35.6 150.3 35.6 150.5 35.5 C 150.5 35.5 150.7 36.5 150.7 36.5 C 150.4 36.5 150.1 36.6 149.9 36.6 C 149.5 36.6 149.2 36.5 149 36.4 C 148.8 36.3 148.6 36.1 148.5 35.9 C 148.5 35.7 148.4 35.3 148.4 34.7 C 148.41 34.67 148.4 31.1 148.4 31.1 L 147.6 31.1 L 147.6 30.3 L 148.4 30.3 L 148.4 28.7 L 149.5 28.1 L 149.5 30.3 L 150.5 30.3 L 150.5 31.1 L 149.5 31.1 C 149.5 31.1 149.46 34.73 149.5 34.7 C 149.5 35 149.5 35.2 149.5 35.3 C 149.6 35.4 149.6 35.5 149.7 35.5 C 149.8 35.6 149.9 35.6 150.1 35.6 C 150.1 35.6 150.1 35.6 150.1 35.6 Z M 151.6 29.1 L 151.6 27.9 L 152.6 27.9 L 152.6 29.1 L 151.6 29.1 Z M 151.6 36.5 L 151.6 30.3 L 152.6 30.3 L 152.6 36.5 L 151.6 36.5 Z M 158.3 34.2 C 158.3 34.2 159.3 34.3 159.3 34.3 C 159.2 35.1 158.9 35.6 158.4 36 C 158 36.4 157.4 36.6 156.7 36.6 C 155.9 36.6 155.2 36.4 154.7 35.8 C 154.2 35.2 153.9 34.4 153.9 33.4 C 153.9 32.7 154 32.1 154.2 31.6 C 154.5 31.1 154.8 30.8 155.2 30.5 C 155.7 30.3 156.2 30.1 156.7 30.1 C 157.4 30.1 158 30.3 158.4 30.6 C 158.8 31 159.1 31.5 159.2 32.1 C 159.2 32.1 158.2 32.3 158.2 32.3 C 158.1 31.8 157.9 31.5 157.7 31.3 C 157.4 31.1 157.1 31 156.8 31 C 156.2 31 155.8 31.2 155.5 31.6 C 155.1 31.9 155 32.6 155 33.4 C 155 34.2 155.1 34.8 155.5 35.2 C 155.8 35.6 156.2 35.8 156.7 35.8 C 157.1 35.8 157.5 35.6 157.8 35.4 C 158 35.1 158.2 34.7 158.3 34.2 Z M 160.5 36.5 L 160.5 35.3 L 161.7 35.3 C 161.7 35.3 161.7 36.49 161.7 36.5 C 161.7 36.9 161.6 37.3 161.5 37.6 C 161.3 37.8 161.1 38 160.7 38.2 C 160.7 38.2 160.4 37.7 160.4 37.7 C 160.6 37.6 160.8 37.5 160.9 37.3 C 161 37.1 161.1 36.8 161.1 36.5 C 161.09 36.49 160.5 36.5 160.5 36.5 Z M 166.5 34.6 C 166.5 34.6 167.5 34.5 167.5 34.5 C 167.6 34.9 167.7 35.2 168 35.4 C 168.3 35.7 168.6 35.8 169.1 35.8 C 169.6 35.8 170 35.7 170.2 35.5 C 170.4 35.3 170.5 35 170.5 34.8 C 170.5 34.5 170.4 34.3 170.2 34.2 C 170.1 34.1 169.7 34 169.2 33.9 C 168.4 33.7 167.9 33.5 167.6 33.3 C 167.3 33.2 167 33 166.9 32.8 C 166.7 32.5 166.6 32.2 166.6 31.9 C 166.6 31.6 166.7 31.4 166.8 31.2 C 167 30.9 167.1 30.7 167.3 30.6 C 167.5 30.4 167.7 30.3 168 30.3 C 168.3 30.2 168.6 30.1 168.9 30.1 C 169.4 30.1 169.8 30.2 170.2 30.3 C 170.6 30.5 170.9 30.7 171 30.9 C 171.2 31.2 171.3 31.5 171.4 31.9 C 171.4 31.9 170.4 32 170.4 32 C 170.3 31.7 170.2 31.4 170 31.3 C 169.7 31.1 169.4 31 169 31 C 168.5 31 168.2 31.1 168 31.2 C 167.8 31.4 167.7 31.6 167.7 31.8 C 167.7 31.9 167.7 32.1 167.8 32.2 C 167.9 32.3 168 32.4 168.2 32.4 C 168.3 32.5 168.6 32.6 169.1 32.7 C 169.9 32.9 170.4 33.1 170.7 33.2 C 171 33.3 171.2 33.5 171.4 33.8 C 171.5 34 171.6 34.3 171.6 34.7 C 171.6 35 171.5 35.3 171.3 35.7 C 171.1 36 170.8 36.2 170.4 36.4 C 170.1 36.5 169.6 36.6 169.1 36.6 C 168.3 36.6 167.7 36.5 167.3 36.1 C 166.9 35.8 166.6 35.3 166.5 34.6 Z M 172.5 33.4 C 172.5 32.2 172.8 31.4 173.5 30.8 C 174 30.4 174.6 30.1 175.4 30.1 C 176.3 30.1 177 30.4 177.5 31 C 178.1 31.5 178.3 32.3 178.3 33.3 C 178.3 34.1 178.2 34.7 178 35.2 C 177.7 35.6 177.4 36 176.9 36.3 C 176.5 36.5 176 36.6 175.4 36.6 C 174.5 36.6 173.8 36.4 173.3 35.8 C 172.8 35.2 172.5 34.4 172.5 33.4 Z M 173.6 33.4 C 173.6 34.2 173.8 34.8 174.1 35.2 C 174.4 35.6 174.9 35.8 175.4 35.8 C 175.9 35.8 176.4 35.6 176.7 35.2 C 177.1 34.8 177.2 34.2 177.2 33.3 C 177.2 32.6 177.1 32 176.7 31.6 C 176.4 31.2 175.9 31 175.4 31 C 174.9 31 174.4 31.2 174.1 31.6 C 173.8 32 173.6 32.6 173.6 33.4 Z M 179.5 36.5 L 179.5 27.9 L 180.6 27.9 L 180.6 36.5 L 179.5 36.5 Z M 186.3 36.5 C 186.3 36.5 186.3 35.58 186.3 35.6 C 185.8 36.3 185.2 36.6 184.3 36.6 C 184 36.6 183.6 36.6 183.3 36.4 C 183 36.3 182.7 36.1 182.6 35.9 C 182.4 35.7 182.3 35.4 182.3 35.1 C 182.2 34.9 182.2 34.6 182.2 34.1 C 182.2 34.13 182.2 30.3 182.2 30.3 L 183.3 30.3 C 183.3 30.3 183.26 33.72 183.3 33.7 C 183.3 34.3 183.3 34.6 183.3 34.8 C 183.4 35.1 183.5 35.3 183.7 35.5 C 184 35.6 184.2 35.7 184.5 35.7 C 184.9 35.7 185.2 35.6 185.4 35.5 C 185.7 35.3 185.9 35.1 186 34.8 C 186.1 34.5 186.2 34.1 186.2 33.6 C 186.19 33.6 186.2 30.3 186.2 30.3 L 187.2 30.3 L 187.2 36.5 L 186.3 36.5 Z M 190.7 35.6 C 190.9 35.6 191 35.6 191.2 35.5 C 191.2 35.5 191.4 36.5 191.4 36.5 C 191.1 36.5 190.8 36.6 190.6 36.6 C 190.2 36.6 189.9 36.5 189.7 36.4 C 189.5 36.3 189.3 36.1 189.2 35.9 C 189.1 35.7 189.1 35.3 189.1 34.7 C 189.09 34.67 189.1 31.1 189.1 31.1 L 188.3 31.1 L 188.3 30.3 L 189.1 30.3 L 189.1 28.7 L 190.1 28.1 L 190.1 30.3 L 191.2 30.3 L 191.2 31.1 L 190.1 31.1 C 190.1 31.1 190.14 34.73 190.1 34.7 C 190.1 35 190.2 35.2 190.2 35.3 C 190.2 35.4 190.3 35.5 190.4 35.5 C 190.5 35.6 190.6 35.6 190.7 35.6 C 190.7 35.6 190.7 35.6 190.7 35.6 Z M 192.2 29.1 L 192.2 27.9 L 193.3 27.9 L 193.3 29.1 L 192.2 29.1 Z M 192.2 36.5 L 192.2 30.3 L 193.3 30.3 L 193.3 36.5 L 192.2 36.5 Z M 194.5 33.4 C 194.5 32.2 194.8 31.4 195.5 30.8 C 196 30.4 196.7 30.1 197.4 30.1 C 198.3 30.1 199 30.4 199.5 31 C 200.1 31.5 200.3 32.3 200.3 33.3 C 200.3 34.1 200.2 34.7 200 35.2 C 199.7 35.6 199.4 36 198.9 36.3 C 198.5 36.5 198 36.6 197.4 36.6 C 196.6 36.6 195.9 36.4 195.3 35.8 C 194.8 35.2 194.5 34.4 194.5 33.4 Z M 195.6 33.4 C 195.6 34.2 195.8 34.8 196.1 35.2 C 196.5 35.6 196.9 35.8 197.4 35.8 C 197.9 35.8 198.4 35.6 198.7 35.2 C 199.1 34.8 199.3 34.2 199.3 33.3 C 199.3 32.6 199.1 32 198.7 31.6 C 198.4 31.2 197.9 31 197.4 31 C 196.9 31 196.5 31.2 196.1 31.6 C 195.8 32 195.6 32.6 195.6 33.4 Z M 201.6 36.5 L 201.6 30.3 L 202.5 30.3 C 202.5 30.3 202.52 31.15 202.5 31.2 C 203 30.5 203.6 30.1 204.5 30.1 C 204.9 30.1 205.2 30.2 205.5 30.3 C 205.9 30.5 206.1 30.6 206.2 30.9 C 206.4 31.1 206.5 31.3 206.6 31.6 C 206.6 31.8 206.6 32.2 206.6 32.7 C 206.63 32.67 206.6 36.5 206.6 36.5 L 205.6 36.5 C 205.6 36.5 205.58 32.71 205.6 32.7 C 205.6 32.3 205.5 32 205.5 31.7 C 205.4 31.5 205.2 31.4 205 31.2 C 204.8 31.1 204.6 31 204.3 31 C 203.8 31 203.4 31.2 203.1 31.5 C 202.8 31.8 202.6 32.3 202.6 33.1 C 202.63 33.09 202.6 36.5 202.6 36.5 L 201.6 36.5 Z M 207.8 33.9 L 207.8 32.9 L 211.1 32.9 L 211.1 33.9 L 207.8 33.9 Z M 211.9 33.4 C 211.9 32.2 212.2 31.4 212.8 30.8 C 213.3 30.4 214 30.1 214.8 30.1 C 215.6 30.1 216.3 30.4 216.9 31 C 217.4 31.5 217.7 32.3 217.7 33.3 C 217.7 34.1 217.6 34.7 217.3 35.2 C 217.1 35.6 216.7 36 216.3 36.3 C 215.8 36.5 215.3 36.6 214.8 36.6 C 213.9 36.6 213.2 36.4 212.7 35.8 C 212.1 35.2 211.9 34.4 211.9 33.4 Z M 212.9 33.4 C 212.9 34.2 213.1 34.8 213.5 35.2 C 213.8 35.6 214.2 35.8 214.8 35.8 C 215.3 35.8 215.7 35.6 216.1 35.2 C 216.4 34.8 216.6 34.2 216.6 33.3 C 216.6 32.6 216.4 32 216.1 31.6 C 215.7 31.2 215.3 31 214.8 31 C 214.2 31 213.8 31.2 213.5 31.6 C 213.1 32 212.9 32.6 212.9 33.4 Z M 218.9 36.5 L 218.9 30.3 L 219.9 30.3 C 219.9 30.3 219.86 31.21 219.9 31.2 C 220.1 30.8 220.3 30.5 220.5 30.3 C 220.7 30.2 221 30.1 221.2 30.1 C 221.6 30.1 221.9 30.2 222.3 30.5 C 222.3 30.5 221.9 31.4 221.9 31.4 C 221.7 31.3 221.4 31.2 221.2 31.2 C 220.9 31.2 220.7 31.3 220.5 31.4 C 220.3 31.6 220.2 31.8 220.1 32 C 220 32.4 220 32.8 220 33.2 C 219.96 33.23 220 36.5 220 36.5 L 218.9 36.5 Z M 222.9 29.1 L 222.9 27.9 L 224 27.9 L 224 29.1 L 222.9 29.1 Z M 222.9 36.5 L 222.9 30.3 L 224 30.3 L 224 36.5 L 222.9 36.5 Z M 229.8 34.5 C 229.8 34.5 230.9 34.6 230.9 34.6 C 230.8 35.3 230.4 35.8 230 36.1 C 229.5 36.5 228.9 36.6 228.2 36.6 C 227.3 36.6 226.6 36.4 226 35.8 C 225.5 35.2 225.2 34.4 225.2 33.4 C 225.2 32.4 225.5 31.6 226 31 C 226.6 30.4 227.3 30.1 228.1 30.1 C 229 30.1 229.6 30.4 230.2 31 C 230.7 31.5 231 32.3 231 33.4 C 231 33.4 231 33.5 231 33.7 C 231 33.7 226.3 33.7 226.3 33.7 C 226.4 34.3 226.6 34.9 226.9 35.2 C 227.2 35.6 227.7 35.8 228.2 35.8 C 228.6 35.8 228.9 35.7 229.2 35.5 C 229.5 35.3 229.7 34.9 229.8 34.5 Z M 226.4 32.8 C 226.4 32.8 229.9 32.8 229.9 32.8 C 229.8 32.3 229.7 31.9 229.5 31.6 C 229.1 31.2 228.7 31 228.1 31 C 227.7 31 227.3 31.2 226.9 31.5 C 226.6 31.8 226.4 32.2 226.4 32.8 Z M 232.3 36.5 L 232.3 30.3 L 233.2 30.3 C 233.2 30.3 233.2 31.15 233.2 31.2 C 233.7 30.5 234.3 30.1 235.2 30.1 C 235.6 30.1 235.9 30.2 236.2 30.3 C 236.5 30.5 236.8 30.6 236.9 30.9 C 237.1 31.1 237.2 31.3 237.3 31.6 C 237.3 31.8 237.3 32.2 237.3 32.7 C 237.31 32.67 237.3 36.5 237.3 36.5 L 236.3 36.5 C 236.3 36.5 236.26 32.71 236.3 32.7 C 236.3 32.3 236.2 32 236.1 31.7 C 236.1 31.5 235.9 31.4 235.7 31.2 C 235.5 31.1 235.2 31 235 31 C 234.5 31 234.1 31.2 233.8 31.5 C 233.5 31.8 233.3 32.3 233.3 33.1 C 233.31 33.09 233.3 36.5 233.3 36.5 L 232.3 36.5 Z M 240.8 35.6 C 240.9 35.6 241 35.6 241.2 35.5 C 241.2 35.5 241.4 36.5 241.4 36.5 C 241.1 36.5 240.8 36.6 240.6 36.6 C 240.2 36.6 239.9 36.5 239.7 36.4 C 239.5 36.3 239.3 36.1 239.3 35.9 C 239.2 35.7 239.1 35.3 239.1 34.7 C 239.12 34.67 239.1 31.1 239.1 31.1 L 238.3 31.1 L 238.3 30.3 L 239.1 30.3 L 239.1 28.7 L 240.2 28.1 L 240.2 30.3 L 241.2 30.3 L 241.2 31.1 L 240.2 31.1 C 240.2 31.1 240.17 34.73 240.2 34.7 C 240.2 35 240.2 35.2 240.2 35.3 C 240.3 35.4 240.3 35.5 240.4 35.5 C 240.5 35.6 240.6 35.6 240.8 35.6 C 240.8 35.6 240.8 35.6 240.8 35.6 Z M 246.5 34.5 C 246.5 34.5 247.6 34.6 247.6 34.6 C 247.4 35.3 247.1 35.8 246.7 36.1 C 246.2 36.5 245.6 36.6 244.9 36.6 C 244 36.6 243.2 36.4 242.7 35.8 C 242.2 35.2 241.9 34.4 241.9 33.4 C 241.9 32.4 242.2 31.6 242.7 31 C 243.3 30.4 244 30.1 244.8 30.1 C 245.6 30.1 246.3 30.4 246.9 31 C 247.4 31.5 247.6 32.3 247.6 33.4 C 247.6 33.4 247.6 33.5 247.6 33.7 C 247.6 33.7 243 33.7 243 33.7 C 243 34.3 243.2 34.9 243.6 35.2 C 243.9 35.6 244.4 35.8 244.9 35.8 C 245.3 35.8 245.6 35.7 245.9 35.5 C 246.1 35.3 246.4 34.9 246.5 34.5 Z M 243.1 32.8 C 243.1 32.8 246.5 32.8 246.5 32.8 C 246.5 32.3 246.4 31.9 246.1 31.6 C 245.8 31.2 245.4 31 244.8 31 C 244.3 31 243.9 31.2 243.6 31.5 C 243.3 31.8 243.1 32.2 243.1 32.8 Z M 253 36.5 C 253 36.5 252.97 35.71 253 35.7 C 252.6 36.3 252 36.6 251.2 36.6 C 250.7 36.6 250.3 36.5 249.9 36.2 C 249.4 35.9 249.1 35.6 248.9 35.1 C 248.7 34.6 248.6 34 248.6 33.4 C 248.6 32.8 248.7 32.2 248.9 31.7 C 249.1 31.2 249.4 30.8 249.8 30.5 C 250.2 30.3 250.7 30.1 251.2 30.1 C 251.6 30.1 251.9 30.2 252.2 30.4 C 252.5 30.5 252.7 30.7 252.9 31 C 252.9 30.98 252.9 27.9 252.9 27.9 L 254 27.9 L 254 36.5 L 253 36.5 Z M 249.6 33.4 C 249.6 34.2 249.8 34.8 250.1 35.2 C 250.5 35.6 250.9 35.8 251.3 35.8 C 251.8 35.8 252.2 35.6 252.5 35.2 C 252.8 34.8 253 34.2 253 33.5 C 253 32.6 252.8 32 252.5 31.6 C 252.2 31.2 251.8 31 251.3 31 C 250.8 31 250.4 31.2 250.1 31.6 C 249.8 32 249.6 32.6 249.6 33.4 Z M 255.9 36.5 L 255.9 35.3 L 257.1 35.3 C 257.1 35.3 257.09 36.49 257.1 36.5 C 257.1 36.9 257 37.3 256.9 37.6 C 256.7 37.8 256.4 38 256.1 38.2 C 256.1 38.2 255.8 37.7 255.8 37.7 C 256 37.6 256.2 37.5 256.3 37.3 C 256.4 37.1 256.5 36.8 256.5 36.5 C 256.48 36.49 255.9 36.5 255.9 36.5 Z " stroke="none" fill="#ffffff"/>  </g>  <g id="Polygon2155">    <path d="M 2.7 4.2 L 2.7 16.5 L 1.4 16.5 L 1.4 4.2 L 2.7 4.2 Z M 6.6 4.2 L 15.3 14.4 L 15.3 4.2 L 16.6 4.2 L 16.6 16.5 L 15.4 16.5 L 6.8 6.4 L 6.8 16.5 L 5.5 16.5 L 5.5 4.2 L 6.6 4.2 Z M 29.5 5 C 29.5 5 29.5 6.5 29.5 6.5 C 28.2 5.7 26.8 5.3 25.3 5.3 C 22.2 5.3 20.2 7.7 20.2 10.4 C 20.2 13.1 22.2 15.4 25.3 15.4 C 26.8 15.4 28.3 15 29.6 14.1 C 29.6 14.1 29.6 15.6 29.6 15.6 C 28.2 16.3 26.8 16.7 25.3 16.7 C 21 16.7 18.8 13.5 18.8 10.4 C 18.8 6.8 21.6 4.1 25.3 4.1 C 26.7 4.1 28.1 4.4 29.5 5 Z M 33 4.2 L 33 16.5 L 31.7 16.5 L 31.7 4.2 L 33 4.2 Z M 41.7 4.8 C 41.7 4.8 41.7 6.4 41.7 6.4 C 40.9 5.7 39.9 5.3 38.9 5.3 C 37.6 5.3 36.8 6 36.8 7.1 C 36.8 7.9 37 8.6 39 9.6 C 41.6 10.9 42.2 11.8 42.2 13.5 C 42.2 15.3 40.8 16.7 38.7 16.7 C 37.5 16.7 36.4 16.3 35.5 15.6 C 35.5 15.6 35.5 13.9 35.5 13.9 C 36.4 14.9 37.5 15.4 38.7 15.4 C 39.9 15.4 40.8 14.7 40.8 13.5 C 40.8 12.4 40.5 11.8 38.1 10.6 C 36.2 9.6 35.4 8.7 35.4 7.1 C 35.4 5.4 36.9 4.1 39 4.1 C 39.9 4.1 40.9 4.3 41.7 4.8 Z M 45.6 4.2 L 45.6 16.5 L 44.3 16.5 L 44.3 4.2 L 45.6 4.2 Z M 47 4.2 L 48.4 4.2 L 52.4 13.8 L 52.4 13.8 L 56.4 4.2 L 57.7 4.2 L 52.5 16.6 L 52.2 16.6 L 47 4.2 Z M 65.8 4.2 L 65.8 5.4 L 60.5 5.4 L 60.5 9.7 L 65.7 9.7 L 65.7 10.9 L 60.5 10.9 L 60.5 15.3 L 66 15.3 L 66 16.5 L 59.1 16.5 L 59.1 4.2 L 65.8 4.2 Z " stroke="none" fill="#ffffff"/>  </g></svg>