<?xml version="1.0" standalone="no"?><!DOCTYPE svg PUBLIC "-//W3C//DTD SVG 1.1//EN" "http://www.w3.org/Graphics/SVG/1.1/DTD/svg11.dtd"><svg xmlns="http://www.w3.org/2000/svg" version="1.1" width="241px" height="69.5px" viewBox="0 -7 241 69.5" style="top:-7px">  <desc>End Point Assessment Assessment of Occupational Competence Qualification Design and Certification</desc>  <defs/>  <g id="Polygon1990">    <path d="M 25.4 46.1 C 26 46.4 26.4 46.7 26.9 46.9 C 26.9 46.9 26.6 47.7 26.6 47.7 C 25.9 47.4 25.3 47.1 24.7 46.6 C 24.1 47 23.4 47.1 22.6 47.1 C 21.8 47.1 21.1 47 20.5 46.6 C 19.9 46.2 19.4 45.7 19 45 C 18.7 44.3 18.5 43.6 18.5 42.7 C 18.5 41.9 18.7 41.1 19 40.4 C 19.4 39.7 19.9 39.2 20.5 38.8 C 21.1 38.4 21.8 38.3 22.6 38.3 C 23.4 38.3 24.1 38.4 24.8 38.8 C 25.4 39.2 25.9 39.7 26.2 40.4 C 26.6 41.1 26.7 41.8 26.7 42.7 C 26.7 43.4 26.6 44 26.4 44.6 C 26.2 45.2 25.9 45.7 25.4 46.1 Z M 22.9 44.6 C 23.6 44.8 24.1 45.1 24.6 45.4 C 25.2 44.8 25.6 43.9 25.6 42.7 C 25.6 42 25.4 41.4 25.2 40.9 C 25 40.4 24.6 40 24.2 39.7 C 23.7 39.4 23.2 39.2 22.6 39.2 C 21.8 39.2 21.1 39.5 20.5 40.1 C 20 40.7 19.7 41.6 19.7 42.7 C 19.7 43.8 20 44.7 20.5 45.3 C 21.1 45.9 21.8 46.2 22.6 46.2 C 23 46.2 23.4 46.1 23.8 45.9 C 23.4 45.7 23.1 45.6 22.7 45.5 C 22.7 45.5 22.9 44.6 22.9 44.6 Z M 32.2 47 C 32.2 47 32.2 46.09 32.2 46.1 C 31.7 46.8 31.1 47.1 30.2 47.1 C 29.9 47.1 29.5 47.1 29.2 46.9 C 28.9 46.8 28.6 46.6 28.5 46.4 C 28.3 46.2 28.2 45.9 28.2 45.6 C 28.1 45.4 28.1 45.1 28.1 44.6 C 28.1 44.63 28.1 40.8 28.1 40.8 L 29.2 40.8 C 29.2 40.8 29.16 44.23 29.2 44.2 C 29.2 44.8 29.2 45.2 29.2 45.3 C 29.3 45.6 29.4 45.8 29.6 46 C 29.9 46.2 30.1 46.2 30.4 46.2 C 30.8 46.2 31.1 46.2 31.3 46 C 31.6 45.8 31.8 45.6 31.9 45.3 C 32 45 32.1 44.6 32.1 44.1 C 32.09 44.11 32.1 40.8 32.1 40.8 L 33.1 40.8 L 33.1 47 L 32.2 47 Z M 39.1 47 C 39 46.8 38.9 46.5 38.9 46.2 C 38.5 46.6 38.1 46.8 37.7 46.9 C 37.4 47.1 37 47.1 36.6 47.1 C 35.9 47.1 35.4 47 35 46.6 C 34.6 46.3 34.4 45.9 34.4 45.4 C 34.4 45.1 34.5 44.8 34.6 44.5 C 34.8 44.3 35 44.1 35.2 43.9 C 35.4 43.8 35.7 43.7 36 43.6 C 36.2 43.5 36.5 43.5 36.9 43.4 C 37.7 43.3 38.4 43.2 38.8 43.1 C 38.8 42.9 38.8 42.8 38.8 42.8 C 38.8 42.3 38.7 42 38.5 41.9 C 38.2 41.6 37.8 41.5 37.3 41.5 C 36.8 41.5 36.4 41.6 36.2 41.8 C 35.9 41.9 35.8 42.3 35.7 42.7 C 35.7 42.7 34.6 42.6 34.6 42.6 C 34.7 42.1 34.9 41.8 35.1 41.5 C 35.3 41.2 35.6 41 36 40.9 C 36.4 40.7 36.9 40.6 37.4 40.6 C 38 40.6 38.4 40.7 38.7 40.8 C 39.1 40.9 39.3 41.1 39.5 41.3 C 39.6 41.5 39.7 41.7 39.8 42 C 39.8 42.2 39.8 42.5 39.8 43 C 39.8 43 39.8 44.4 39.8 44.4 C 39.8 45.4 39.9 46 39.9 46.3 C 40 46.5 40 46.8 40.2 47 C 40.17 47 39.1 47 39.1 47 C 39.1 47 39.07 47 39.1 47 Z M 38.8 43.9 C 38.4 44 37.8 44.2 37 44.3 C 36.6 44.3 36.3 44.4 36.1 44.5 C 35.9 44.6 35.8 44.7 35.7 44.8 C 35.6 45 35.6 45.1 35.6 45.3 C 35.6 45.6 35.7 45.8 35.9 46 C 36.1 46.2 36.4 46.3 36.8 46.3 C 37.2 46.3 37.6 46.2 37.9 46 C 38.2 45.9 38.5 45.6 38.6 45.3 C 38.7 45.1 38.8 44.7 38.8 44.3 C 38.8 44.3 38.8 43.9 38.8 43.9 Z M 41.4 47 L 41.4 38.4 L 42.5 38.4 L 42.5 47 L 41.4 47 Z M 44.1 39.6 L 44.1 38.4 L 45.2 38.4 L 45.2 39.6 L 44.1 39.6 Z M 44.1 47 L 44.1 40.8 L 45.2 40.8 L 45.2 47 L 44.1 47 Z M 47.1 47 L 47.1 41.6 L 46.1 41.6 L 46.1 40.8 L 47.1 40.8 C 47.1 40.8 47.09 40.17 47.1 40.2 C 47.1 39.6 47.2 39.1 47.5 38.8 C 47.7 38.4 48.2 38.3 48.7 38.3 C 49.1 38.3 49.5 38.3 49.8 38.4 C 49.8 38.4 49.7 39.3 49.7 39.3 C 49.4 39.3 49.3 39.2 49.1 39.2 C 48.7 39.2 48.5 39.3 48.3 39.5 C 48.2 39.6 48.1 39.9 48.1 40.4 C 48.14 40.37 48.1 40.8 48.1 40.8 L 49.3 40.8 L 49.3 41.6 L 48.1 41.6 L 48.1 47 L 47.1 47 Z M 50.1 39.6 L 50.1 38.4 L 51.2 38.4 L 51.2 39.6 L 50.1 39.6 Z M 50.1 47 L 50.1 40.8 L 51.2 40.8 L 51.2 47 L 50.1 47 Z M 56.9 44.7 C 56.9 44.7 57.9 44.9 57.9 44.9 C 57.8 45.6 57.5 46.1 57 46.5 C 56.6 46.9 56 47.1 55.3 47.1 C 54.5 47.1 53.8 46.9 53.3 46.3 C 52.7 45.7 52.5 45 52.5 43.9 C 52.5 43.2 52.6 42.7 52.8 42.1 C 53 41.6 53.4 41.3 53.8 41 C 54.3 40.8 54.8 40.6 55.3 40.6 C 56 40.6 56.5 40.8 57 41.1 C 57.4 41.5 57.7 42 57.8 42.6 C 57.8 42.6 56.8 42.8 56.8 42.8 C 56.7 42.3 56.5 42 56.3 41.8 C 56 41.6 55.7 41.5 55.4 41.5 C 54.8 41.5 54.4 41.7 54.1 42.1 C 53.7 42.5 53.6 43.1 53.6 43.9 C 53.6 44.7 53.7 45.3 54 45.7 C 54.4 46.1 54.8 46.3 55.3 46.3 C 55.7 46.3 56.1 46.1 56.3 45.9 C 56.6 45.6 56.8 45.2 56.9 44.7 Z M 63.1 47 C 63 46.8 62.9 46.5 62.9 46.2 C 62.5 46.6 62.1 46.8 61.7 46.9 C 61.4 47.1 61 47.1 60.6 47.1 C 59.9 47.1 59.4 47 59 46.6 C 58.6 46.3 58.4 45.9 58.4 45.4 C 58.4 45.1 58.5 44.8 58.7 44.5 C 58.8 44.3 59 44.1 59.2 43.9 C 59.4 43.8 59.7 43.7 60 43.6 C 60.2 43.5 60.5 43.5 60.9 43.4 C 61.7 43.3 62.4 43.2 62.8 43.1 C 62.8 42.9 62.8 42.8 62.8 42.8 C 62.8 42.3 62.7 42 62.5 41.9 C 62.2 41.6 61.8 41.5 61.3 41.5 C 60.8 41.5 60.4 41.6 60.2 41.8 C 59.9 41.9 59.8 42.3 59.7 42.7 C 59.7 42.7 58.6 42.6 58.6 42.6 C 58.7 42.1 58.9 41.8 59.1 41.5 C 59.3 41.2 59.6 41 60 40.9 C 60.4 40.7 60.9 40.6 61.4 40.6 C 62 40.6 62.4 40.7 62.7 40.8 C 63.1 40.9 63.3 41.1 63.5 41.3 C 63.6 41.5 63.7 41.7 63.8 42 C 63.8 42.2 63.8 42.5 63.8 43 C 63.8 43 63.8 44.4 63.8 44.4 C 63.8 45.4 63.9 46 63.9 46.3 C 64 46.5 64 46.8 64.2 47 C 64.18 47 63.1 47 63.1 47 C 63.1 47 63.08 47 63.1 47 Z M 62.8 43.9 C 62.4 44 61.8 44.2 61.1 44.3 C 60.6 44.3 60.3 44.4 60.1 44.5 C 60 44.6 59.8 44.7 59.7 44.8 C 59.6 45 59.6 45.1 59.6 45.3 C 59.6 45.6 59.7 45.8 59.9 46 C 60.1 46.2 60.4 46.3 60.8 46.3 C 61.2 46.3 61.6 46.2 61.9 46 C 62.2 45.9 62.5 45.6 62.6 45.3 C 62.7 45.1 62.8 44.7 62.8 44.3 C 62.8 44.3 62.8 43.9 62.8 43.9 Z M 67.3 46.1 C 67.4 46.1 67.6 46.1 67.8 46.1 C 67.8 46.1 67.9 47 67.9 47 C 67.6 47.1 67.4 47.1 67.1 47.1 C 66.8 47.1 66.5 47 66.2 46.9 C 66 46.8 65.9 46.6 65.8 46.4 C 65.7 46.2 65.7 45.8 65.7 45.2 C 65.67 45.18 65.7 41.6 65.7 41.6 L 64.9 41.6 L 64.9 40.8 L 65.7 40.8 L 65.7 39.2 L 66.7 38.6 L 66.7 40.8 L 67.8 40.8 L 67.8 41.6 L 66.7 41.6 C 66.7 41.6 66.72 45.24 66.7 45.2 C 66.7 45.5 66.7 45.7 66.8 45.8 C 66.8 45.9 66.9 46 67 46 C 67 46.1 67.2 46.1 67.3 46.1 C 67.3 46.1 67.3 46.1 67.3 46.1 Z M 68.8 39.6 L 68.8 38.4 L 69.9 38.4 L 69.9 39.6 L 68.8 39.6 Z M 68.8 47 L 68.8 40.8 L 69.9 40.8 L 69.9 47 L 68.8 47 Z M 71.1 43.9 C 71.1 42.7 71.4 41.9 72 41.3 C 72.6 40.9 73.2 40.6 74 40.6 C 74.9 40.6 75.6 40.9 76.1 41.5 C 76.6 42 76.9 42.8 76.9 43.8 C 76.9 44.6 76.8 45.2 76.6 45.7 C 76.3 46.1 76 46.5 75.5 46.8 C 75 47 74.5 47.1 74 47.1 C 73.1 47.1 72.4 46.9 71.9 46.3 C 71.4 45.7 71.1 44.9 71.1 43.9 Z M 72.2 43.9 C 72.2 44.7 72.3 45.3 72.7 45.7 C 73 46.1 73.5 46.3 74 46.3 C 74.5 46.3 75 46.1 75.3 45.7 C 75.7 45.3 75.8 44.7 75.8 43.9 C 75.8 43.1 75.7 42.5 75.3 42.1 C 75 41.7 74.5 41.5 74 41.5 C 73.5 41.5 73 41.7 72.7 42.1 C 72.3 42.5 72.2 43.1 72.2 43.9 Z M 78.2 47 L 78.2 40.8 L 79.1 40.8 C 79.1 40.8 79.1 41.66 79.1 41.7 C 79.6 41 80.2 40.6 81.1 40.6 C 81.5 40.6 81.8 40.7 82.1 40.8 C 82.4 41 82.7 41.2 82.8 41.4 C 83 41.6 83.1 41.8 83.2 42.1 C 83.2 42.3 83.2 42.7 83.2 43.2 C 83.21 43.17 83.2 47 83.2 47 L 82.2 47 C 82.2 47 82.15 43.21 82.2 43.2 C 82.2 42.8 82.1 42.5 82 42.3 C 81.9 42 81.8 41.9 81.6 41.7 C 81.4 41.6 81.1 41.6 80.9 41.6 C 80.4 41.6 80 41.7 79.7 42 C 79.4 42.3 79.2 42.8 79.2 43.6 C 79.21 43.6 79.2 47 79.2 47 L 78.2 47 Z M 88.3 47 L 88.3 38.4 C 88.3 38.4 91.25 38.41 91.3 38.4 C 91.9 38.4 92.4 38.5 92.8 38.5 C 93.3 38.6 93.7 38.9 94 39.1 C 94.5 39.5 94.8 40 95.1 40.6 C 95.3 41.2 95.4 41.9 95.4 42.7 C 95.4 43.3 95.3 43.9 95.2 44.4 C 95 44.9 94.8 45.3 94.6 45.6 C 94.3 46 94.1 46.2 93.8 46.4 C 93.5 46.6 93.2 46.8 92.8 46.9 C 92.4 47 91.9 47 91.4 47 C 91.39 47 88.3 47 88.3 47 Z M 89.4 46 C 89.4 46 91.27 45.99 91.3 46 C 91.8 46 92.3 45.9 92.6 45.8 C 92.9 45.7 93.2 45.6 93.4 45.4 C 93.6 45.1 93.8 44.8 94 44.3 C 94.1 43.8 94.2 43.3 94.2 42.6 C 94.2 41.7 94.1 41.1 93.8 40.6 C 93.5 40.1 93.1 39.8 92.7 39.6 C 92.4 39.5 91.9 39.4 91.2 39.4 C 91.24 39.42 89.4 39.4 89.4 39.4 L 89.4 46 Z M 101.1 45 C 101.1 45 102.2 45.1 102.2 45.1 C 102 45.8 101.7 46.3 101.2 46.6 C 100.8 47 100.2 47.1 99.4 47.1 C 98.5 47.1 97.8 46.9 97.3 46.3 C 96.7 45.7 96.5 45 96.5 43.9 C 96.5 42.9 96.7 42.1 97.3 41.5 C 97.8 40.9 98.5 40.6 99.4 40.6 C 100.2 40.6 100.9 40.9 101.4 41.5 C 101.9 42.1 102.2 42.8 102.2 43.9 C 102.2 43.9 102.2 44 102.2 44.2 C 102.2 44.2 97.6 44.2 97.6 44.2 C 97.6 44.8 97.8 45.4 98.1 45.7 C 98.5 46.1 98.9 46.3 99.4 46.3 C 99.8 46.3 100.2 46.2 100.4 46 C 100.7 45.8 100.9 45.4 101.1 45 Z M 97.6 43.3 C 97.6 43.3 101.1 43.3 101.1 43.3 C 101.1 42.8 100.9 42.4 100.7 42.1 C 100.4 41.7 99.9 41.5 99.4 41.5 C 98.9 41.5 98.5 41.7 98.2 42 C 97.8 42.3 97.7 42.7 97.6 43.3 Z M 103.1 45.1 C 103.1 45.1 104.1 45 104.1 45 C 104.2 45.4 104.3 45.7 104.6 45.9 C 104.9 46.2 105.3 46.3 105.7 46.3 C 106.2 46.3 106.6 46.2 106.8 46 C 107 45.8 107.2 45.5 107.2 45.3 C 107.2 45 107.1 44.9 106.9 44.7 C 106.7 44.6 106.3 44.5 105.8 44.4 C 105 44.2 104.5 44 104.2 43.9 C 103.9 43.7 103.6 43.5 103.5 43.3 C 103.3 43 103.3 42.7 103.3 42.4 C 103.3 42.2 103.3 41.9 103.4 41.7 C 103.6 41.4 103.7 41.2 104 41.1 C 104.1 40.9 104.4 40.8 104.6 40.8 C 104.9 40.7 105.2 40.6 105.5 40.6 C 106 40.6 106.5 40.7 106.8 40.8 C 107.2 41 107.5 41.2 107.6 41.4 C 107.8 41.7 107.9 42 108 42.4 C 108 42.4 107 42.5 107 42.5 C 106.9 42.2 106.8 42 106.6 41.8 C 106.3 41.6 106 41.5 105.6 41.5 C 105.1 41.5 104.8 41.6 104.6 41.7 C 104.4 41.9 104.3 42.1 104.3 42.3 C 104.3 42.4 104.3 42.6 104.4 42.7 C 104.5 42.8 104.6 42.9 104.8 43 C 104.9 43 105.2 43.1 105.7 43.2 C 106.5 43.4 107 43.6 107.3 43.7 C 107.6 43.8 107.8 44 108 44.3 C 108.2 44.5 108.2 44.8 108.2 45.2 C 108.2 45.5 108.1 45.9 107.9 46.2 C 107.7 46.5 107.4 46.7 107.1 46.9 C 106.7 47.1 106.2 47.1 105.7 47.1 C 104.9 47.1 104.3 47 103.9 46.6 C 103.5 46.3 103.2 45.8 103.1 45.1 Z M 109.5 39.6 L 109.5 38.4 L 110.6 38.4 L 110.6 39.6 L 109.5 39.6 Z M 109.5 47 L 109.5 40.8 L 110.6 40.8 L 110.6 47 L 109.5 47 Z M 112 47.5 C 112 47.5 113 47.7 113 47.7 C 113 48 113.2 48.2 113.4 48.4 C 113.6 48.6 114 48.7 114.4 48.7 C 114.9 48.7 115.3 48.6 115.6 48.4 C 115.8 48.2 116 47.9 116.1 47.5 C 116.2 47.3 116.2 46.9 116.2 46.2 C 115.7 46.7 115.1 47 114.5 47 C 113.6 47 112.9 46.7 112.5 46.1 C 112 45.5 111.8 44.7 111.8 43.9 C 111.8 43.3 111.9 42.7 112.1 42.2 C 112.3 41.7 112.6 41.3 113 41 C 113.4 40.8 113.9 40.6 114.5 40.6 C 115.2 40.6 115.8 40.9 116.3 41.5 C 116.27 41.53 116.3 40.8 116.3 40.8 L 117.2 40.8 C 117.2 40.8 117.25 46.16 117.2 46.2 C 117.2 47.1 117.1 47.8 117 48.2 C 116.8 48.6 116.4 48.9 116 49.2 C 115.6 49.4 115.1 49.5 114.4 49.5 C 113.7 49.5 113.1 49.4 112.6 49 C 112.2 48.7 112 48.2 112 47.5 Z M 112.8 43.8 C 112.8 44.6 113 45.2 113.3 45.6 C 113.7 45.9 114.1 46.1 114.6 46.1 C 115 46.1 115.4 45.9 115.8 45.6 C 116.1 45.2 116.3 44.6 116.3 43.8 C 116.3 43.1 116.1 42.5 115.8 42.1 C 115.4 41.7 115 41.5 114.5 41.5 C 114.1 41.5 113.7 41.7 113.3 42.1 C 113 42.5 112.8 43 112.8 43.8 Z M 118.8 47 L 118.8 40.8 L 119.8 40.8 C 119.8 40.8 119.79 41.66 119.8 41.7 C 120.2 41 120.9 40.6 121.8 40.6 C 122.1 40.6 122.5 40.7 122.8 40.8 C 123.1 41 123.4 41.2 123.5 41.4 C 123.7 41.6 123.8 41.8 123.8 42.1 C 123.9 42.3 123.9 42.7 123.9 43.2 C 123.9 43.17 123.9 47 123.9 47 L 122.8 47 C 122.8 47 122.84 43.21 122.8 43.2 C 122.8 42.8 122.8 42.5 122.7 42.3 C 122.6 42 122.5 41.9 122.3 41.7 C 122.1 41.6 121.8 41.6 121.5 41.6 C 121.1 41.6 120.7 41.7 120.4 42 C 120.1 42.3 119.9 42.8 119.9 43.6 C 119.89 43.6 119.9 47 119.9 47 L 118.8 47 Z M 133.1 47 C 133 46.8 132.9 46.5 132.9 46.2 C 132.5 46.6 132.1 46.8 131.8 46.9 C 131.4 47.1 131 47.1 130.6 47.1 C 129.9 47.1 129.4 47 129 46.6 C 128.7 46.3 128.5 45.9 128.5 45.4 C 128.5 45.1 128.6 44.8 128.7 44.5 C 128.8 44.3 129 44.1 129.2 43.9 C 129.5 43.8 129.7 43.7 130 43.6 C 130.2 43.5 130.5 43.5 130.9 43.4 C 131.8 43.3 132.4 43.2 132.8 43.1 C 132.8 42.9 132.8 42.8 132.8 42.8 C 132.8 42.3 132.7 42 132.5 41.9 C 132.3 41.6 131.9 41.5 131.3 41.5 C 130.8 41.5 130.5 41.6 130.2 41.8 C 130 41.9 129.8 42.3 129.7 42.7 C 129.7 42.7 128.7 42.6 128.7 42.6 C 128.8 42.1 128.9 41.8 129.1 41.5 C 129.3 41.2 129.7 41 130.1 40.9 C 130.5 40.7 130.9 40.6 131.5 40.6 C 132 40.6 132.4 40.7 132.8 40.8 C 133.1 40.9 133.3 41.1 133.5 41.3 C 133.7 41.5 133.8 41.7 133.8 42 C 133.9 42.2 133.9 42.5 133.9 43 C 133.9 43 133.9 44.4 133.9 44.4 C 133.9 45.4 133.9 46 134 46.3 C 134 46.5 134.1 46.8 134.2 47 C 134.22 47 133.1 47 133.1 47 C 133.1 47 133.12 47 133.1 47 Z M 132.8 43.9 C 132.4 44 131.9 44.2 131.1 44.3 C 130.7 44.3 130.4 44.4 130.2 44.5 C 130 44.6 129.9 44.7 129.8 44.8 C 129.7 45 129.6 45.1 129.6 45.3 C 129.6 45.6 129.7 45.8 129.9 46 C 130.1 46.2 130.5 46.3 130.9 46.3 C 131.3 46.3 131.6 46.2 132 46 C 132.3 45.9 132.5 45.6 132.7 45.3 C 132.8 45.1 132.8 44.7 132.8 44.3 C 132.8 44.3 132.8 43.9 132.8 43.9 Z M 135.5 47 L 135.5 40.8 L 136.5 40.8 C 136.5 40.8 136.47 41.66 136.5 41.7 C 136.9 41 137.6 40.6 138.5 40.6 C 138.8 40.6 139.2 40.7 139.5 40.8 C 139.8 41 140 41.2 140.2 41.4 C 140.3 41.6 140.5 41.8 140.5 42.1 C 140.6 42.3 140.6 42.7 140.6 43.2 C 140.58 43.17 140.6 47 140.6 47 L 139.5 47 C 139.5 47 139.52 43.21 139.5 43.2 C 139.5 42.8 139.5 42.5 139.4 42.3 C 139.3 42 139.2 41.9 139 41.7 C 138.8 41.6 138.5 41.6 138.2 41.6 C 137.8 41.6 137.4 41.7 137.1 42 C 136.7 42.3 136.6 42.8 136.6 43.6 C 136.58 43.6 136.6 47 136.6 47 L 135.5 47 Z M 146.2 47 C 146.2 47 146.23 46.21 146.2 46.2 C 145.8 46.8 145.3 47.1 144.5 47.1 C 144 47.1 143.5 47 143.1 46.7 C 142.7 46.5 142.4 46.1 142.2 45.6 C 141.9 45.1 141.8 44.5 141.8 43.9 C 141.8 43.3 141.9 42.7 142.1 42.2 C 142.3 41.7 142.6 41.3 143.1 41 C 143.5 40.8 143.9 40.6 144.4 40.6 C 144.8 40.6 145.2 40.7 145.4 40.9 C 145.7 41 146 41.2 146.2 41.5 C 146.16 41.49 146.2 38.4 146.2 38.4 L 147.2 38.4 L 147.2 47 L 146.2 47 Z M 142.9 43.9 C 142.9 44.7 143.1 45.3 143.4 45.7 C 143.7 46.1 144.1 46.3 144.6 46.3 C 145.1 46.3 145.4 46.1 145.8 45.7 C 146.1 45.3 146.3 44.8 146.3 44 C 146.3 43.1 146.1 42.5 145.8 42.1 C 145.4 41.7 145 41.5 144.5 41.5 C 144.1 41.5 143.7 41.7 143.4 42.1 C 143.1 42.5 142.9 43.1 142.9 43.9 Z M 158.5 44 C 158.5 44 159.6 44.3 159.6 44.3 C 159.4 45.2 158.9 45.9 158.3 46.4 C 157.7 46.9 156.9 47.1 156 47.1 C 155.1 47.1 154.4 47 153.8 46.6 C 153.2 46.2 152.8 45.7 152.5 44.9 C 152.2 44.2 152 43.5 152 42.6 C 152 41.7 152.2 41 152.5 40.3 C 152.9 39.6 153.4 39.1 154 38.8 C 154.6 38.4 155.3 38.3 156.1 38.3 C 156.9 38.3 157.6 38.5 158.2 38.9 C 158.8 39.4 159.2 40 159.5 40.8 C 159.5 40.8 158.3 41 158.3 41 C 158.1 40.4 157.8 39.9 157.5 39.7 C 157.1 39.4 156.6 39.2 156 39.2 C 155.4 39.2 154.8 39.4 154.4 39.7 C 153.9 40 153.6 40.5 153.5 41 C 153.3 41.5 153.2 42.1 153.2 42.6 C 153.2 43.4 153.3 44 153.5 44.5 C 153.7 45.1 154 45.5 154.5 45.8 C 154.9 46 155.4 46.2 156 46.2 C 156.6 46.2 157.1 46 157.6 45.6 C 158 45.3 158.3 44.7 158.5 44 Z M 165.1 45 C 165.1 45 166.2 45.1 166.2 45.1 C 166 45.8 165.7 46.3 165.3 46.6 C 164.8 47 164.2 47.1 163.5 47.1 C 162.6 47.1 161.9 46.9 161.3 46.3 C 160.8 45.7 160.5 45 160.5 43.9 C 160.5 42.9 160.8 42.1 161.3 41.5 C 161.9 40.9 162.6 40.6 163.4 40.6 C 164.3 40.6 164.9 40.9 165.5 41.5 C 166 42.1 166.3 42.8 166.3 43.9 C 166.3 43.9 166.3 44 166.2 44.2 C 166.2 44.2 161.6 44.2 161.6 44.2 C 161.6 44.8 161.8 45.4 162.2 45.7 C 162.5 46.1 163 46.3 163.5 46.3 C 163.9 46.3 164.2 46.2 164.5 46 C 164.8 45.8 165 45.4 165.1 45 Z M 161.7 43.3 C 161.7 43.3 165.1 43.3 165.1 43.3 C 165.1 42.8 165 42.4 164.7 42.1 C 164.4 41.7 164 41.5 163.4 41.5 C 163 41.5 162.5 41.7 162.2 42 C 161.9 42.3 161.7 42.7 161.7 43.3 Z M 167.5 47 L 167.5 40.8 L 168.5 40.8 C 168.5 40.8 168.48 41.72 168.5 41.7 C 168.7 41.3 168.9 41 169.2 40.8 C 169.4 40.7 169.6 40.6 169.8 40.6 C 170.2 40.6 170.5 40.8 170.9 41 C 170.9 41 170.5 42 170.5 42 C 170.3 41.8 170 41.7 169.8 41.7 C 169.5 41.7 169.3 41.8 169.2 41.9 C 169 42.1 168.8 42.3 168.8 42.5 C 168.6 42.9 168.6 43.3 168.6 43.7 C 168.59 43.74 168.6 47 168.6 47 L 167.5 47 Z M 173.4 46.1 C 173.5 46.1 173.7 46.1 173.8 46.1 C 173.8 46.1 174 47 174 47 C 173.7 47.1 173.4 47.1 173.2 47.1 C 172.8 47.1 172.5 47 172.3 46.9 C 172.1 46.8 171.9 46.6 171.9 46.4 C 171.8 46.2 171.7 45.8 171.7 45.2 C 171.73 45.18 171.7 41.6 171.7 41.6 L 171 41.6 L 171 40.8 L 171.7 40.8 L 171.7 39.2 L 172.8 38.6 L 172.8 40.8 L 173.8 40.8 L 173.8 41.6 L 172.8 41.6 C 172.8 41.6 172.78 45.24 172.8 45.2 C 172.8 45.5 172.8 45.7 172.8 45.8 C 172.9 45.9 172.9 46 173 46 C 173.1 46.1 173.2 46.1 173.4 46.1 C 173.4 46.1 173.4 46.1 173.4 46.1 Z M 174.9 39.6 L 174.9 38.4 L 175.9 38.4 L 175.9 39.6 L 174.9 39.6 Z M 174.9 47 L 174.9 40.8 L 175.9 40.8 L 175.9 47 L 174.9 47 Z M 177.8 47 L 177.8 41.6 L 176.9 41.6 L 176.9 40.8 L 177.8 40.8 C 177.8 40.8 177.82 40.17 177.8 40.2 C 177.8 39.6 178 39.1 178.2 38.8 C 178.5 38.4 178.9 38.3 179.5 38.3 C 179.9 38.3 180.2 38.3 180.6 38.4 C 180.6 38.4 180.4 39.3 180.4 39.3 C 180.2 39.3 180 39.2 179.8 39.2 C 179.5 39.2 179.2 39.3 179.1 39.5 C 178.9 39.6 178.9 39.9 178.9 40.4 C 178.88 40.37 178.9 40.8 178.9 40.8 L 180.1 40.8 L 180.1 41.6 L 178.9 41.6 L 178.9 47 L 177.8 47 Z M 180.9 39.6 L 180.9 38.4 L 181.9 38.4 L 181.9 39.6 L 180.9 39.6 Z M 180.9 47 L 180.9 40.8 L 181.9 40.8 L 181.9 47 L 180.9 47 Z M 187.6 44.7 C 187.6 44.7 188.6 44.9 188.6 44.9 C 188.5 45.6 188.2 46.1 187.8 46.5 C 187.3 46.9 186.7 47.1 186 47.1 C 185.2 47.1 184.5 46.9 184 46.3 C 183.5 45.7 183.2 45 183.2 43.9 C 183.2 43.2 183.3 42.7 183.6 42.1 C 183.8 41.6 184.1 41.3 184.6 41 C 185 40.8 185.5 40.6 186.1 40.6 C 186.7 40.6 187.3 40.8 187.7 41.1 C 188.1 41.5 188.4 42 188.5 42.6 C 188.5 42.6 187.5 42.8 187.5 42.8 C 187.4 42.3 187.2 42 187 41.8 C 186.7 41.6 186.4 41.5 186.1 41.5 C 185.6 41.5 185.1 41.7 184.8 42.1 C 184.5 42.5 184.3 43.1 184.3 43.9 C 184.3 44.7 184.5 45.3 184.8 45.7 C 185.1 46.1 185.5 46.3 186 46.3 C 186.4 46.3 186.8 46.1 187.1 45.9 C 187.3 45.6 187.5 45.2 187.6 44.7 Z M 193.8 47 C 193.7 46.8 193.6 46.5 193.6 46.2 C 193.2 46.6 192.8 46.8 192.5 46.9 C 192.1 47.1 191.7 47.1 191.3 47.1 C 190.6 47.1 190.1 47 189.7 46.6 C 189.4 46.3 189.2 45.9 189.2 45.4 C 189.2 45.1 189.3 44.8 189.4 44.5 C 189.5 44.3 189.7 44.1 189.9 43.9 C 190.2 43.8 190.4 43.7 190.7 43.6 C 190.9 43.5 191.2 43.5 191.6 43.4 C 192.5 43.3 193.1 43.2 193.5 43.1 C 193.5 42.9 193.5 42.8 193.5 42.8 C 193.5 42.3 193.4 42 193.2 41.9 C 192.9 41.6 192.5 41.5 192 41.5 C 191.5 41.5 191.2 41.6 190.9 41.8 C 190.7 41.9 190.5 42.3 190.4 42.7 C 190.4 42.7 189.4 42.6 189.4 42.6 C 189.5 42.1 189.6 41.8 189.8 41.5 C 190 41.2 190.4 41 190.8 40.9 C 191.2 40.7 191.6 40.6 192.2 40.6 C 192.7 40.6 193.1 40.7 193.5 40.8 C 193.8 40.9 194 41.1 194.2 41.3 C 194.4 41.5 194.5 41.7 194.5 42 C 194.6 42.2 194.6 42.5 194.6 43 C 194.6 43 194.6 44.4 194.6 44.4 C 194.6 45.4 194.6 46 194.6 46.3 C 194.7 46.5 194.8 46.8 194.9 47 C 194.91 47 193.8 47 193.8 47 C 193.8 47 193.81 47 193.8 47 Z M 193.5 43.9 C 193.1 44 192.6 44.2 191.8 44.3 C 191.4 44.3 191 44.4 190.9 44.5 C 190.7 44.6 190.6 44.7 190.5 44.8 C 190.4 45 190.3 45.1 190.3 45.3 C 190.3 45.6 190.4 45.8 190.6 46 C 190.8 46.2 191.2 46.3 191.6 46.3 C 192 46.3 192.3 46.2 192.6 46 C 193 45.9 193.2 45.6 193.3 45.3 C 193.5 45.1 193.5 44.7 193.5 44.3 C 193.5 44.3 193.5 43.9 193.5 43.9 Z M 198.1 46.1 C 198.2 46.1 198.3 46.1 198.5 46.1 C 198.5 46.1 198.7 47 198.7 47 C 198.4 47.1 198.1 47.1 197.9 47.1 C 197.5 47.1 197.2 47 197 46.9 C 196.8 46.8 196.6 46.6 196.5 46.4 C 196.4 46.2 196.4 45.8 196.4 45.2 C 196.41 45.18 196.4 41.6 196.4 41.6 L 195.6 41.6 L 195.6 40.8 L 196.4 40.8 L 196.4 39.2 L 197.5 38.6 L 197.5 40.8 L 198.5 40.8 L 198.5 41.6 L 197.5 41.6 C 197.5 41.6 197.46 45.24 197.5 45.2 C 197.5 45.5 197.5 45.7 197.5 45.8 C 197.5 45.9 197.6 46 197.7 46 C 197.8 46.1 197.9 46.1 198.1 46.1 C 198.1 46.1 198.1 46.1 198.1 46.1 Z M 199.6 39.6 L 199.6 38.4 L 200.6 38.4 L 200.6 39.6 L 199.6 39.6 Z M 199.6 47 L 199.6 40.8 L 200.6 40.8 L 200.6 47 L 199.6 47 Z M 201.8 43.9 C 201.8 42.7 202.1 41.9 202.8 41.3 C 203.3 40.9 204 40.6 204.7 40.6 C 205.6 40.6 206.3 40.9 206.8 41.5 C 207.4 42 207.7 42.8 207.7 43.8 C 207.7 44.6 207.5 45.2 207.3 45.7 C 207 46.1 206.7 46.5 206.2 46.8 C 205.8 47 205.3 47.1 204.7 47.1 C 203.9 47.1 203.2 46.9 202.6 46.3 C 202.1 45.7 201.8 44.9 201.8 43.9 Z M 202.9 43.9 C 202.9 44.7 203.1 45.3 203.4 45.7 C 203.8 46.1 204.2 46.3 204.7 46.3 C 205.3 46.3 205.7 46.1 206 45.7 C 206.4 45.3 206.6 44.7 206.6 43.9 C 206.6 43.1 206.4 42.5 206 42.1 C 205.7 41.7 205.3 41.5 204.7 41.5 C 204.2 41.5 203.8 41.7 203.4 42.1 C 203.1 42.5 202.9 43.1 202.9 43.9 Z M 208.9 47 L 208.9 40.8 L 209.8 40.8 C 209.8 40.8 209.84 41.66 209.8 41.7 C 210.3 41 211 40.6 211.8 40.6 C 212.2 40.6 212.5 40.7 212.9 40.8 C 213.2 41 213.4 41.2 213.6 41.4 C 213.7 41.6 213.8 41.8 213.9 42.1 C 213.9 42.3 213.9 42.7 213.9 43.2 C 213.94 43.17 213.9 47 213.9 47 L 212.9 47 C 212.9 47 212.89 43.21 212.9 43.2 C 212.9 42.8 212.8 42.5 212.8 42.3 C 212.7 42 212.5 41.9 212.3 41.7 C 212.1 41.6 211.9 41.6 211.6 41.6 C 211.1 41.6 210.8 41.7 210.4 42 C 210.1 42.3 209.9 42.8 209.9 43.6 C 209.94 43.6 209.9 47 209.9 47 L 208.9 47 Z " stroke="none" fill="#000"/>  </g>  <g id="Polygon1989">    <path d="M 0.9 42.8 C 0.9 42.5 0.9 42.2 1 41.9 C 1.2 41.7 1.3 41.4 1.5 41.3 C 1.7 41.1 1.9 40.9 2.2 40.8 C 2.4 40.7 2.7 40.6 3 40.6 C 3.3 40.6 3.6 40.7 3.8 40.8 C 4.1 40.9 4.3 41.1 4.5 41.3 C 4.7 41.4 4.8 41.7 5 41.9 C 5.1 42.2 5.1 42.5 5.1 42.8 C 5.1 43 5.1 43.3 5 43.6 C 4.8 43.8 4.7 44.1 4.5 44.3 C 4.3 44.4 4.1 44.6 3.8 44.7 C 3.6 44.8 3.3 44.9 3 44.9 C 2.7 44.9 2.4 44.8 2.2 44.7 C 1.9 44.6 1.7 44.4 1.5 44.3 C 1.3 44.1 1.2 43.8 1 43.6 C 0.9 43.3 0.9 43 0.9 42.8 Z " stroke="none" fill="#f28620"/>  </g>  <g id="Polygon1988">    <path d="M 18 29.5 L 21.3 20.9 L 22.5 20.9 L 26 29.5 L 24.7 29.5 L 23.7 26.9 L 20.1 26.9 L 19.2 29.5 L 18 29.5 Z M 20.5 26 L 23.4 26 C 23.4 26 22.48 23.59 22.5 23.6 C 22.2 22.9 22 22.3 21.9 21.8 C 21.8 22.4 21.6 22.9 21.4 23.5 C 21.4 23.45 20.5 26 20.5 26 Z M 26.4 27.6 C 26.4 27.6 27.4 27.5 27.4 27.5 C 27.5 27.9 27.6 28.2 27.9 28.4 C 28.2 28.7 28.5 28.8 29 28.8 C 29.5 28.8 29.9 28.7 30.1 28.5 C 30.3 28.3 30.5 28 30.5 27.8 C 30.5 27.5 30.4 27.4 30.1 27.2 C 30 27.1 29.6 27 29.1 26.9 C 28.3 26.7 27.8 26.5 27.5 26.4 C 27.2 26.2 26.9 26 26.8 25.8 C 26.6 25.5 26.5 25.2 26.5 24.9 C 26.5 24.7 26.6 24.4 26.7 24.2 C 26.9 23.9 27 23.7 27.3 23.6 C 27.4 23.4 27.6 23.3 27.9 23.3 C 28.2 23.2 28.5 23.1 28.8 23.1 C 29.3 23.1 29.8 23.2 30.1 23.3 C 30.5 23.5 30.8 23.7 30.9 23.9 C 31.1 24.2 31.2 24.5 31.3 24.9 C 31.3 24.9 30.3 25 30.3 25 C 30.2 24.7 30.1 24.5 29.9 24.3 C 29.6 24.1 29.3 24 28.9 24 C 28.4 24 28.1 24.1 27.9 24.2 C 27.7 24.4 27.6 24.6 27.6 24.8 C 27.6 24.9 27.6 25.1 27.7 25.2 C 27.8 25.3 27.9 25.4 28.1 25.5 C 28.2 25.5 28.5 25.6 29 25.7 C 29.8 25.9 30.3 26.1 30.6 26.2 C 30.9 26.3 31.1 26.5 31.3 26.8 C 31.5 27 31.5 27.3 31.5 27.7 C 31.5 28 31.4 28.4 31.2 28.7 C 31 29 30.7 29.2 30.3 29.4 C 30 29.6 29.5 29.6 29 29.6 C 28.2 29.6 27.6 29.5 27.2 29.1 C 26.8 28.8 26.5 28.3 26.4 27.6 Z M 32.4 27.6 C 32.4 27.6 33.4 27.5 33.4 27.5 C 33.5 27.9 33.6 28.2 33.9 28.4 C 34.2 28.7 34.5 28.8 35 28.8 C 35.5 28.8 35.9 28.7 36.1 28.5 C 36.3 28.3 36.5 28 36.5 27.8 C 36.5 27.5 36.4 27.4 36.1 27.2 C 36 27.1 35.6 27 35.1 26.9 C 34.3 26.7 33.8 26.5 33.5 26.4 C 33.2 26.2 32.9 26 32.8 25.8 C 32.6 25.5 32.5 25.2 32.5 24.9 C 32.5 24.7 32.6 24.4 32.7 24.2 C 32.9 23.9 33 23.7 33.3 23.6 C 33.4 23.4 33.6 23.3 33.9 23.3 C 34.2 23.2 34.5 23.1 34.8 23.1 C 35.3 23.1 35.8 23.2 36.1 23.3 C 36.5 23.5 36.8 23.7 36.9 23.9 C 37.1 24.2 37.2 24.5 37.3 24.9 C 37.3 24.9 36.3 25 36.3 25 C 36.2 24.7 36.1 24.5 35.9 24.3 C 35.6 24.1 35.3 24 34.9 24 C 34.4 24 34.1 24.1 33.9 24.2 C 33.7 24.4 33.6 24.6 33.6 24.8 C 33.6 24.9 33.6 25.1 33.7 25.2 C 33.8 25.3 33.9 25.4 34.1 25.5 C 34.2 25.5 34.5 25.6 35 25.7 C 35.8 25.9 36.3 26.1 36.6 26.2 C 36.9 26.3 37.1 26.5 37.3 26.8 C 37.5 27 37.5 27.3 37.5 27.7 C 37.5 28 37.4 28.4 37.2 28.7 C 37 29 36.7 29.2 36.3 29.4 C 36 29.6 35.5 29.6 35 29.6 C 34.2 29.6 33.6 29.5 33.2 29.1 C 32.8 28.8 32.5 28.3 32.4 27.6 Z M 43.1 27.5 C 43.1 27.5 44.1 27.6 44.1 27.6 C 44 28.3 43.7 28.8 43.2 29.1 C 42.7 29.5 42.1 29.6 41.4 29.6 C 40.5 29.6 39.8 29.4 39.2 28.8 C 38.7 28.2 38.4 27.5 38.4 26.4 C 38.4 25.4 38.7 24.6 39.3 24 C 39.8 23.4 40.5 23.1 41.3 23.1 C 42.2 23.1 42.9 23.4 43.4 24 C 43.9 24.6 44.2 25.3 44.2 26.4 C 44.2 26.4 44.2 26.5 44.2 26.7 C 44.2 26.7 39.5 26.7 39.5 26.7 C 39.6 27.3 39.8 27.9 40.1 28.2 C 40.5 28.6 40.9 28.8 41.4 28.8 C 41.8 28.8 42.1 28.7 42.4 28.5 C 42.7 28.3 42.9 27.9 43.1 27.5 Z M 39.6 25.8 C 39.6 25.8 43.1 25.8 43.1 25.8 C 43 25.3 42.9 24.9 42.7 24.6 C 42.3 24.2 41.9 24 41.4 24 C 40.9 24 40.5 24.2 40.1 24.5 C 39.8 24.8 39.6 25.2 39.6 25.8 Z M 45 27.6 C 45 27.6 46.1 27.5 46.1 27.5 C 46.1 27.9 46.3 28.2 46.6 28.4 C 46.8 28.7 47.2 28.8 47.7 28.8 C 48.2 28.8 48.5 28.7 48.8 28.5 C 49 28.3 49.1 28 49.1 27.8 C 49.1 27.5 49 27.4 48.8 27.2 C 48.7 27.1 48.3 27 47.7 26.9 C 47 26.7 46.4 26.5 46.1 26.4 C 45.8 26.2 45.6 26 45.5 25.8 C 45.3 25.5 45.2 25.2 45.2 24.9 C 45.2 24.7 45.3 24.4 45.4 24.2 C 45.5 23.9 45.7 23.7 45.9 23.6 C 46.1 23.4 46.3 23.3 46.6 23.3 C 46.9 23.2 47.2 23.1 47.5 23.1 C 48 23.1 48.4 23.2 48.8 23.3 C 49.2 23.5 49.4 23.7 49.6 23.9 C 49.8 24.2 49.9 24.5 50 24.9 C 50 24.9 48.9 25 48.9 25 C 48.9 24.7 48.8 24.5 48.5 24.3 C 48.3 24.1 48 24 47.6 24 C 47.1 24 46.8 24.1 46.6 24.2 C 46.3 24.4 46.2 24.6 46.2 24.8 C 46.2 24.9 46.3 25.1 46.4 25.2 C 46.5 25.3 46.6 25.4 46.8 25.5 C 46.9 25.5 47.2 25.6 47.7 25.7 C 48.5 25.9 49 26.1 49.3 26.2 C 49.6 26.3 49.8 26.5 50 26.8 C 50.1 27 50.2 27.3 50.2 27.7 C 50.2 28 50.1 28.4 49.9 28.7 C 49.7 29 49.4 29.2 49 29.4 C 48.6 29.6 48.2 29.6 47.7 29.6 C 46.9 29.6 46.3 29.5 45.9 29.1 C 45.4 28.8 45.2 28.3 45 27.6 Z M 51 27.6 C 51 27.6 52.1 27.5 52.1 27.5 C 52.1 27.9 52.3 28.2 52.6 28.4 C 52.8 28.7 53.2 28.8 53.7 28.8 C 54.2 28.8 54.5 28.7 54.8 28.5 C 55 28.3 55.1 28 55.1 27.8 C 55.1 27.5 55 27.4 54.8 27.2 C 54.7 27.1 54.3 27 53.7 26.9 C 53 26.7 52.4 26.5 52.1 26.4 C 51.8 26.2 51.6 26 51.5 25.8 C 51.3 25.5 51.2 25.2 51.2 24.9 C 51.2 24.7 51.3 24.4 51.4 24.2 C 51.5 23.9 51.7 23.7 51.9 23.6 C 52.1 23.4 52.3 23.3 52.6 23.3 C 52.9 23.2 53.2 23.1 53.5 23.1 C 54 23.1 54.4 23.2 54.8 23.3 C 55.2 23.5 55.4 23.7 55.6 23.9 C 55.8 24.2 55.9 24.5 56 24.9 C 56 24.9 54.9 25 54.9 25 C 54.9 24.7 54.8 24.5 54.5 24.3 C 54.3 24.1 54 24 53.6 24 C 53.1 24 52.8 24.1 52.6 24.2 C 52.3 24.4 52.2 24.6 52.2 24.8 C 52.2 24.9 52.3 25.1 52.4 25.2 C 52.5 25.3 52.6 25.4 52.8 25.5 C 52.9 25.5 53.2 25.6 53.7 25.7 C 54.5 25.9 55 26.1 55.3 26.2 C 55.6 26.3 55.8 26.5 56 26.8 C 56.1 27 56.2 27.3 56.2 27.7 C 56.2 28 56.1 28.4 55.9 28.7 C 55.7 29 55.4 29.2 55 29.4 C 54.6 29.6 54.2 29.6 53.7 29.6 C 52.9 29.6 52.3 29.5 51.9 29.1 C 51.4 28.8 51.2 28.3 51 27.6 Z M 57.5 29.5 L 57.5 23.3 L 58.4 23.3 C 58.4 23.3 58.41 24.15 58.4 24.2 C 58.6 23.8 58.9 23.6 59.2 23.4 C 59.5 23.2 59.9 23.1 60.3 23.1 C 60.8 23.1 61.1 23.2 61.4 23.4 C 61.7 23.6 61.9 23.9 62.1 24.2 C 62.5 23.5 63.2 23.1 64 23.1 C 64.6 23.1 65.1 23.3 65.4 23.6 C 65.7 24 65.9 24.5 65.9 25.2 C 65.9 25.23 65.9 29.5 65.9 29.5 L 64.9 29.5 C 64.9 29.5 64.85 25.58 64.9 25.6 C 64.9 25.2 64.8 24.9 64.7 24.7 C 64.7 24.5 64.6 24.3 64.4 24.2 C 64.2 24.1 64 24.1 63.7 24.1 C 63.3 24.1 62.9 24.2 62.7 24.5 C 62.4 24.8 62.2 25.2 62.2 25.9 C 62.22 25.88 62.2 29.5 62.2 29.5 L 61.2 29.5 C 61.2 29.5 61.17 25.46 61.2 25.5 C 61.2 25 61.1 24.6 60.9 24.4 C 60.7 24.2 60.5 24.1 60.1 24.1 C 59.8 24.1 59.5 24.1 59.2 24.3 C 59 24.4 58.8 24.7 58.7 25 C 58.6 25.3 58.5 25.7 58.5 26.3 C 58.52 26.27 58.5 29.5 58.5 29.5 L 57.5 29.5 Z M 71.7 27.5 C 71.7 27.5 72.8 27.6 72.8 27.6 C 72.6 28.3 72.3 28.8 71.9 29.1 C 71.4 29.5 70.8 29.6 70.1 29.6 C 69.2 29.6 68.4 29.4 67.9 28.8 C 67.4 28.2 67.1 27.5 67.1 26.4 C 67.1 25.4 67.4 24.6 67.9 24 C 68.5 23.4 69.2 23.1 70 23.1 C 70.9 23.1 71.5 23.4 72.1 24 C 72.6 24.6 72.8 25.3 72.8 26.4 C 72.8 26.4 72.8 26.5 72.8 26.7 C 72.8 26.7 68.2 26.7 68.2 26.7 C 68.2 27.3 68.4 27.9 68.8 28.2 C 69.1 28.6 69.6 28.8 70.1 28.8 C 70.5 28.8 70.8 28.7 71.1 28.5 C 71.3 28.3 71.6 27.9 71.7 27.5 Z M 68.3 25.8 C 68.3 25.8 71.7 25.8 71.7 25.8 C 71.7 25.3 71.6 24.9 71.3 24.6 C 71 24.2 70.6 24 70 24 C 69.5 24 69.1 24.2 68.8 24.5 C 68.5 24.8 68.3 25.2 68.3 25.8 Z M 74.1 29.5 L 74.1 23.3 L 75.1 23.3 C 75.1 23.3 75.09 24.16 75.1 24.2 C 75.5 23.5 76.2 23.1 77.1 23.1 C 77.4 23.1 77.8 23.2 78.1 23.3 C 78.4 23.5 78.7 23.7 78.8 23.9 C 79 24.1 79.1 24.3 79.1 24.6 C 79.2 24.8 79.2 25.2 79.2 25.7 C 79.2 25.67 79.2 29.5 79.2 29.5 L 78.1 29.5 C 78.1 29.5 78.14 25.71 78.1 25.7 C 78.1 25.3 78.1 25 78 24.8 C 77.9 24.5 77.8 24.4 77.6 24.2 C 77.4 24.1 77.1 24.1 76.8 24.1 C 76.4 24.1 76 24.2 75.7 24.5 C 75.4 24.8 75.2 25.3 75.2 26.1 C 75.19 26.1 75.2 29.5 75.2 29.5 L 74.1 29.5 Z M 82.7 28.6 C 82.8 28.6 82.9 28.6 83.1 28.6 C 83.1 28.6 83.3 29.5 83.3 29.5 C 83 29.6 82.7 29.6 82.5 29.6 C 82.1 29.6 81.8 29.5 81.6 29.4 C 81.4 29.3 81.2 29.1 81.1 28.9 C 81 28.7 81 28.3 81 27.7 C 81.01 27.68 81 24.1 81 24.1 L 80.2 24.1 L 80.2 23.3 L 81 23.3 L 81 21.7 L 82.1 21.1 L 82.1 23.3 L 83.1 23.3 L 83.1 24.1 L 82.1 24.1 C 82.1 24.1 82.05 27.74 82.1 27.7 C 82.1 28 82.1 28.2 82.1 28.3 C 82.1 28.4 82.2 28.5 82.3 28.5 C 82.4 28.6 82.5 28.6 82.7 28.6 C 82.7 28.6 82.7 28.6 82.7 28.6 Z M 86.9 26.4 C 86.9 25.2 87.2 24.4 87.8 23.8 C 88.4 23.4 89 23.1 89.8 23.1 C 90.7 23.1 91.4 23.4 91.9 24 C 92.4 24.5 92.7 25.3 92.7 26.3 C 92.7 27.1 92.6 27.7 92.4 28.2 C 92.1 28.6 91.8 29 91.3 29.3 C 90.8 29.5 90.3 29.6 89.8 29.6 C 88.9 29.6 88.2 29.4 87.7 28.8 C 87.2 28.2 86.9 27.4 86.9 26.4 Z M 88 26.4 C 88 27.2 88.1 27.8 88.5 28.2 C 88.8 28.6 89.3 28.8 89.8 28.8 C 90.3 28.8 90.8 28.6 91.1 28.2 C 91.5 27.8 91.6 27.2 91.6 26.4 C 91.6 25.6 91.5 25 91.1 24.6 C 90.8 24.2 90.3 24 89.8 24 C 89.3 24 88.8 24.2 88.5 24.6 C 88.1 25 88 25.6 88 26.4 Z M 94.2 29.5 L 94.2 24.1 L 93.3 24.1 L 93.3 23.3 L 94.2 23.3 C 94.2 23.3 94.2 22.62 94.2 22.6 C 94.2 22.2 94.2 21.9 94.3 21.7 C 94.4 21.4 94.6 21.2 94.8 21 C 95.1 20.8 95.5 20.8 95.9 20.8 C 96.2 20.8 96.5 20.8 96.9 20.9 C 96.9 20.9 96.7 21.8 96.7 21.8 C 96.5 21.8 96.3 21.7 96.1 21.7 C 95.8 21.7 95.6 21.8 95.4 21.9 C 95.3 22.1 95.2 22.3 95.2 22.7 C 95.25 22.7 95.2 23.3 95.2 23.3 L 96.5 23.3 L 96.5 24.1 L 95.2 24.1 L 95.2 29.5 L 94.2 29.5 Z M 100.2 25.3 C 100.2 23.9 100.6 22.8 101.3 22 C 102.1 21.2 103.1 20.8 104.3 20.8 C 105.1 20.8 105.8 20.9 106.5 21.3 C 107.1 21.7 107.6 22.2 107.9 22.9 C 108.2 23.6 108.4 24.4 108.4 25.2 C 108.4 26.1 108.2 26.9 107.9 27.6 C 107.5 28.2 107 28.8 106.4 29.1 C 105.7 29.5 105.1 29.6 104.3 29.6 C 103.5 29.6 102.8 29.5 102.1 29.1 C 101.5 28.7 101 28.1 100.7 27.5 C 100.4 26.8 100.2 26.1 100.2 25.3 Z M 101.4 25.3 C 101.4 26.4 101.7 27.2 102.2 27.8 C 102.8 28.4 103.5 28.7 104.3 28.7 C 105.2 28.7 105.9 28.4 106.4 27.8 C 107 27.2 107.2 26.3 107.2 25.2 C 107.2 24.5 107.1 23.9 106.9 23.4 C 106.7 22.9 106.3 22.5 105.9 22.2 C 105.4 21.9 104.9 21.7 104.3 21.7 C 103.5 21.7 102.8 22 102.2 22.6 C 101.7 23.1 101.4 24 101.4 25.3 Z M 113.8 27.2 C 113.8 27.2 114.8 27.4 114.8 27.4 C 114.7 28.1 114.4 28.6 114 29 C 113.5 29.4 112.9 29.6 112.3 29.6 C 111.4 29.6 110.7 29.4 110.2 28.8 C 109.7 28.2 109.4 27.5 109.4 26.4 C 109.4 25.7 109.5 25.2 109.8 24.6 C 110 24.1 110.3 23.8 110.8 23.5 C 111.2 23.3 111.7 23.1 112.3 23.1 C 112.9 23.1 113.5 23.3 113.9 23.6 C 114.3 24 114.6 24.5 114.7 25.1 C 114.7 25.1 113.7 25.3 113.7 25.3 C 113.6 24.8 113.4 24.5 113.2 24.3 C 113 24.1 112.7 24 112.3 24 C 111.8 24 111.3 24.2 111 24.6 C 110.7 25 110.5 25.6 110.5 26.4 C 110.5 27.2 110.7 27.8 111 28.2 C 111.3 28.6 111.7 28.8 112.2 28.8 C 112.7 28.8 113 28.6 113.3 28.4 C 113.6 28.1 113.7 27.7 113.8 27.2 Z M 119.8 27.2 C 119.8 27.2 120.8 27.4 120.8 27.4 C 120.7 28.1 120.4 28.6 120 29 C 119.5 29.4 118.9 29.6 118.3 29.6 C 117.4 29.6 116.7 29.4 116.2 28.8 C 115.7 28.2 115.4 27.5 115.4 26.4 C 115.4 25.7 115.5 25.2 115.8 24.6 C 116 24.1 116.3 23.8 116.8 23.5 C 117.2 23.3 117.7 23.1 118.3 23.1 C 118.9 23.1 119.5 23.3 119.9 23.6 C 120.3 24 120.6 24.5 120.7 25.1 C 120.7 25.1 119.7 25.3 119.7 25.3 C 119.6 24.8 119.4 24.5 119.2 24.3 C 119 24.1 118.7 24 118.3 24 C 117.8 24 117.3 24.2 117 24.6 C 116.7 25 116.5 25.6 116.5 26.4 C 116.5 27.2 116.7 27.8 117 28.2 C 117.3 28.6 117.7 28.8 118.2 28.8 C 118.7 28.8 119 28.6 119.3 28.4 C 119.6 28.1 119.7 27.7 119.8 27.2 Z M 125.8 29.5 C 125.8 29.5 125.82 28.59 125.8 28.6 C 125.3 29.3 124.7 29.6 123.8 29.6 C 123.5 29.6 123.1 29.6 122.8 29.4 C 122.5 29.3 122.3 29.1 122.1 28.9 C 122 28.7 121.8 28.4 121.8 28.1 C 121.7 27.9 121.7 27.6 121.7 27.1 C 121.72 27.13 121.7 23.3 121.7 23.3 L 122.8 23.3 C 122.8 23.3 122.78 26.73 122.8 26.7 C 122.8 27.3 122.8 27.7 122.8 27.8 C 122.9 28.1 123 28.3 123.3 28.5 C 123.5 28.7 123.7 28.7 124.1 28.7 C 124.4 28.7 124.7 28.7 125 28.5 C 125.2 28.3 125.4 28.1 125.5 27.8 C 125.7 27.5 125.7 27.1 125.7 26.6 C 125.71 26.61 125.7 23.3 125.7 23.3 L 126.8 23.3 L 126.8 29.5 L 125.8 29.5 Z M 128.4 31.9 L 128.4 23.3 L 129.4 23.3 C 129.4 23.3 129.38 24.09 129.4 24.1 C 129.6 23.8 129.9 23.5 130.1 23.4 C 130.4 23.2 130.8 23.1 131.2 23.1 C 131.7 23.1 132.2 23.3 132.6 23.5 C 133 23.8 133.3 24.2 133.5 24.7 C 133.7 25.2 133.8 25.7 133.8 26.3 C 133.8 27 133.7 27.6 133.5 28.1 C 133.3 28.6 132.9 29 132.5 29.2 C 132 29.5 131.6 29.6 131.1 29.6 C 130.8 29.6 130.4 29.6 130.2 29.4 C 129.9 29.3 129.7 29.1 129.5 28.9 C 129.47 28.86 129.5 31.9 129.5 31.9 L 128.4 31.9 Z M 129.4 26.4 C 129.4 27.2 129.5 27.8 129.9 28.2 C 130.2 28.6 130.6 28.8 131 28.8 C 131.5 28.8 131.9 28.6 132.2 28.2 C 132.6 27.8 132.7 27.2 132.7 26.3 C 132.7 25.5 132.6 24.9 132.3 24.6 C 131.9 24.2 131.5 24 131.1 24 C 130.6 24 130.2 24.2 129.9 24.6 C 129.5 25 129.4 25.6 129.4 26.4 Z M 139.4 29.5 C 139.3 29.3 139.2 29 139.2 28.7 C 138.8 29.1 138.4 29.3 138 29.4 C 137.7 29.6 137.3 29.6 136.9 29.6 C 136.2 29.6 135.7 29.5 135.3 29.1 C 134.9 28.8 134.7 28.4 134.7 27.9 C 134.7 27.6 134.8 27.3 134.9 27 C 135.1 26.8 135.3 26.6 135.5 26.4 C 135.7 26.3 136 26.2 136.2 26.1 C 136.5 26 136.8 26 137.2 25.9 C 138 25.8 138.7 25.7 139.1 25.6 C 139.1 25.4 139.1 25.3 139.1 25.3 C 139.1 24.8 139 24.5 138.8 24.4 C 138.5 24.1 138.1 24 137.6 24 C 137.1 24 136.7 24.1 136.5 24.3 C 136.2 24.4 136.1 24.8 135.9 25.2 C 135.9 25.2 134.9 25.1 134.9 25.1 C 135 24.6 135.2 24.3 135.4 24 C 135.6 23.7 135.9 23.5 136.3 23.4 C 136.7 23.2 137.2 23.1 137.7 23.1 C 138.3 23.1 138.7 23.2 139 23.3 C 139.4 23.4 139.6 23.6 139.8 23.8 C 139.9 24 140 24.2 140.1 24.5 C 140.1 24.7 140.1 25 140.1 25.5 C 140.1 25.5 140.1 26.9 140.1 26.9 C 140.1 27.9 140.2 28.5 140.2 28.8 C 140.2 29 140.3 29.3 140.5 29.5 C 140.47 29.5 139.4 29.5 139.4 29.5 C 139.4 29.5 139.36 29.5 139.4 29.5 Z M 139.1 26.4 C 138.7 26.5 138.1 26.7 137.3 26.8 C 136.9 26.8 136.6 26.9 136.4 27 C 136.2 27.1 136.1 27.2 136 27.3 C 135.9 27.5 135.9 27.6 135.9 27.8 C 135.9 28.1 136 28.3 136.2 28.5 C 136.4 28.7 136.7 28.8 137.1 28.8 C 137.5 28.8 137.9 28.7 138.2 28.5 C 138.5 28.4 138.7 28.1 138.9 27.8 C 139 27.6 139.1 27.2 139.1 26.8 C 139.1 26.8 139.1 26.4 139.1 26.4 Z M 143.6 28.6 C 143.7 28.6 143.9 28.6 144.1 28.6 C 144.1 28.6 144.2 29.5 144.2 29.5 C 143.9 29.6 143.7 29.6 143.4 29.6 C 143 29.6 142.7 29.5 142.5 29.4 C 142.3 29.3 142.2 29.1 142.1 28.9 C 142 28.7 142 28.3 142 27.7 C 141.96 27.68 142 24.1 142 24.1 L 141.2 24.1 L 141.2 23.3 L 142 23.3 L 142 21.7 L 143 21.1 L 143 23.3 L 144.1 23.3 L 144.1 24.1 L 143 24.1 C 143 24.1 143.01 27.74 143 27.7 C 143 28 143 28.2 143.1 28.3 C 143.1 28.4 143.2 28.5 143.2 28.5 C 143.3 28.6 143.5 28.6 143.6 28.6 C 143.6 28.6 143.6 28.6 143.6 28.6 Z M 145.1 22.1 L 145.1 20.9 L 146.2 20.9 L 146.2 22.1 L 145.1 22.1 Z M 145.1 29.5 L 145.1 23.3 L 146.2 23.3 L 146.2 29.5 L 145.1 29.5 Z M 147.4 26.4 C 147.4 25.2 147.7 24.4 148.3 23.8 C 148.9 23.4 149.5 23.1 150.3 23.1 C 151.1 23.1 151.8 23.4 152.4 24 C 152.9 24.5 153.2 25.3 153.2 26.3 C 153.2 27.1 153.1 27.7 152.8 28.2 C 152.6 28.6 152.3 29 151.8 29.3 C 151.3 29.5 150.8 29.6 150.3 29.6 C 149.4 29.6 148.7 29.4 148.2 28.8 C 147.6 28.2 147.4 27.4 147.4 26.4 Z M 148.5 26.4 C 148.5 27.2 148.6 27.8 149 28.2 C 149.3 28.6 149.8 28.8 150.3 28.8 C 150.8 28.8 151.3 28.6 151.6 28.2 C 151.9 27.8 152.1 27.2 152.1 26.4 C 152.1 25.6 151.9 25 151.6 24.6 C 151.2 24.2 150.8 24 150.3 24 C 149.8 24 149.3 24.2 149 24.6 C 148.6 25 148.5 25.6 148.5 26.4 Z M 154.4 29.5 L 154.4 23.3 L 155.4 23.3 C 155.4 23.3 155.39 24.16 155.4 24.2 C 155.8 23.5 156.5 23.1 157.4 23.1 C 157.7 23.1 158.1 23.2 158.4 23.3 C 158.7 23.5 159 23.7 159.1 23.9 C 159.3 24.1 159.4 24.3 159.4 24.6 C 159.5 24.8 159.5 25.2 159.5 25.7 C 159.5 25.67 159.5 29.5 159.5 29.5 L 158.4 29.5 C 158.4 29.5 158.44 25.71 158.4 25.7 C 158.4 25.3 158.4 25 158.3 24.8 C 158.2 24.5 158.1 24.4 157.9 24.2 C 157.7 24.1 157.4 24.1 157.1 24.1 C 156.7 24.1 156.3 24.2 156 24.5 C 155.7 24.8 155.5 25.3 155.5 26.1 C 155.5 26.1 155.5 29.5 155.5 29.5 L 154.4 29.5 Z M 165.4 29.5 C 165.3 29.3 165.2 29 165.2 28.7 C 164.8 29.1 164.4 29.3 164 29.4 C 163.7 29.6 163.3 29.6 162.9 29.6 C 162.2 29.6 161.7 29.5 161.3 29.1 C 160.9 28.8 160.8 28.4 160.8 27.9 C 160.8 27.6 160.8 27.3 161 27 C 161.1 26.8 161.3 26.6 161.5 26.4 C 161.7 26.3 162 26.2 162.3 26.1 C 162.5 26 162.8 26 163.2 25.9 C 164.1 25.8 164.7 25.7 165.1 25.6 C 165.1 25.4 165.1 25.3 165.1 25.3 C 165.1 24.8 165 24.5 164.8 24.4 C 164.5 24.1 164.1 24 163.6 24 C 163.1 24 162.7 24.1 162.5 24.3 C 162.3 24.4 162.1 24.8 162 25.2 C 162 25.2 160.9 25.1 160.9 25.1 C 161 24.6 161.2 24.3 161.4 24 C 161.6 23.7 161.9 23.5 162.3 23.4 C 162.7 23.2 163.2 23.1 163.7 23.1 C 164.3 23.1 164.7 23.2 165 23.3 C 165.4 23.4 165.6 23.6 165.8 23.8 C 165.9 24 166 24.2 166.1 24.5 C 166.1 24.7 166.2 25 166.2 25.5 C 166.2 25.5 166.2 26.9 166.2 26.9 C 166.2 27.9 166.2 28.5 166.2 28.8 C 166.3 29 166.4 29.3 166.5 29.5 C 166.49 29.5 165.4 29.5 165.4 29.5 C 165.4 29.5 165.39 29.5 165.4 29.5 Z M 165.1 26.4 C 164.7 26.5 164.1 26.7 163.4 26.8 C 162.9 26.8 162.6 26.9 162.4 27 C 162.3 27.1 162.1 27.2 162 27.3 C 161.9 27.5 161.9 27.6 161.9 27.8 C 161.9 28.1 162 28.3 162.2 28.5 C 162.4 28.7 162.7 28.8 163.1 28.8 C 163.5 28.8 163.9 28.7 164.2 28.5 C 164.5 28.4 164.8 28.1 164.9 27.8 C 165 27.6 165.1 27.2 165.1 26.8 C 165.1 26.8 165.1 26.4 165.1 26.4 Z M 167.8 29.5 L 167.8 20.9 L 168.8 20.9 L 168.8 29.5 L 167.8 29.5 Z M 179.8 26.5 C 179.8 26.5 181 26.8 181 26.8 C 180.7 27.7 180.3 28.4 179.7 28.9 C 179.1 29.4 178.3 29.6 177.4 29.6 C 176.5 29.6 175.7 29.5 175.2 29.1 C 174.6 28.7 174.1 28.2 173.8 27.4 C 173.5 26.7 173.4 26 173.4 25.1 C 173.4 24.2 173.6 23.5 173.9 22.8 C 174.2 22.1 174.7 21.6 175.4 21.3 C 176 20.9 176.7 20.8 177.4 20.8 C 178.3 20.8 179 21 179.6 21.4 C 180.2 21.9 180.6 22.5 180.8 23.3 C 180.8 23.3 179.7 23.5 179.7 23.5 C 179.5 22.9 179.2 22.4 178.9 22.2 C 178.5 21.9 178 21.7 177.4 21.7 C 176.8 21.7 176.2 21.9 175.8 22.2 C 175.3 22.5 175 23 174.8 23.5 C 174.7 24 174.6 24.6 174.6 25.1 C 174.6 25.9 174.7 26.5 174.9 27 C 175.1 27.6 175.4 28 175.9 28.3 C 176.3 28.5 176.8 28.7 177.3 28.7 C 178 28.7 178.5 28.5 179 28.1 C 179.4 27.8 179.7 27.2 179.8 26.5 Z M 181.9 26.4 C 181.9 25.2 182.2 24.4 182.8 23.8 C 183.4 23.4 184 23.1 184.8 23.1 C 185.6 23.1 186.3 23.4 186.9 24 C 187.4 24.5 187.7 25.3 187.7 26.3 C 187.7 27.1 187.6 27.7 187.3 28.2 C 187.1 28.6 186.7 29 186.3 29.3 C 185.8 29.5 185.3 29.6 184.8 29.6 C 183.9 29.6 183.2 29.4 182.7 28.8 C 182.1 28.2 181.9 27.4 181.9 26.4 Z M 182.9 26.4 C 182.9 27.2 183.1 27.8 183.5 28.2 C 183.8 28.6 184.2 28.8 184.8 28.8 C 185.3 28.8 185.7 28.6 186.1 28.2 C 186.4 27.8 186.6 27.2 186.6 26.4 C 186.6 25.6 186.4 25 186.1 24.6 C 185.7 24.2 185.3 24 184.8 24 C 184.2 24 183.8 24.2 183.5 24.6 C 183.1 25 182.9 25.6 182.9 26.4 Z M 188.9 29.5 L 188.9 23.3 L 189.9 23.3 C 189.9 23.3 189.87 24.15 189.9 24.2 C 190.1 23.8 190.3 23.6 190.6 23.4 C 191 23.2 191.3 23.1 191.8 23.1 C 192.2 23.1 192.6 23.2 192.9 23.4 C 193.2 23.6 193.4 23.9 193.5 24.2 C 194 23.5 194.6 23.1 195.4 23.1 C 196.1 23.1 196.5 23.3 196.9 23.6 C 197.2 24 197.4 24.5 197.4 25.2 C 197.35 25.23 197.4 29.5 197.4 29.5 L 196.3 29.5 C 196.3 29.5 196.31 25.58 196.3 25.6 C 196.3 25.2 196.3 24.9 196.2 24.7 C 196.1 24.5 196 24.3 195.8 24.2 C 195.7 24.1 195.4 24.1 195.2 24.1 C 194.8 24.1 194.4 24.2 194.1 24.5 C 193.8 24.8 193.7 25.2 193.7 25.9 C 193.68 25.88 193.7 29.5 193.7 29.5 L 192.6 29.5 C 192.6 29.5 192.62 25.46 192.6 25.5 C 192.6 25 192.5 24.6 192.4 24.4 C 192.2 24.2 191.9 24.1 191.5 24.1 C 191.2 24.1 190.9 24.1 190.7 24.3 C 190.4 24.4 190.3 24.7 190.1 25 C 190 25.3 190 25.7 190 26.3 C 189.98 26.27 190 29.5 190 29.5 L 188.9 29.5 Z M 198.9 31.9 L 198.9 23.3 L 199.9 23.3 C 199.9 23.3 199.88 24.09 199.9 24.1 C 200.1 23.8 200.4 23.5 200.6 23.4 C 200.9 23.2 201.3 23.1 201.7 23.1 C 202.2 23.1 202.7 23.3 203.1 23.5 C 203.5 23.8 203.8 24.2 204 24.7 C 204.2 25.2 204.3 25.7 204.3 26.3 C 204.3 27 204.2 27.6 204 28.1 C 203.8 28.6 203.4 29 203 29.2 C 202.5 29.5 202.1 29.6 201.6 29.6 C 201.3 29.6 200.9 29.6 200.7 29.4 C 200.4 29.3 200.2 29.1 200 28.9 C 199.97 28.86 200 31.9 200 31.9 L 198.9 31.9 Z M 199.9 26.4 C 199.9 27.2 200 27.8 200.4 28.2 C 200.7 28.6 201.1 28.8 201.5 28.8 C 202 28.8 202.4 28.6 202.7 28.2 C 203.1 27.8 203.2 27.2 203.2 26.3 C 203.2 25.5 203.1 24.9 202.8 24.6 C 202.4 24.2 202 24 201.6 24 C 201.1 24 200.7 24.2 200.4 24.6 C 200 25 199.9 25.6 199.9 26.4 Z M 209.9 27.5 C 209.9 27.5 210.9 27.6 210.9 27.6 C 210.8 28.3 210.5 28.8 210 29.1 C 209.5 29.5 208.9 29.6 208.2 29.6 C 207.3 29.6 206.6 29.4 206 28.8 C 205.5 28.2 205.2 27.5 205.2 26.4 C 205.2 25.4 205.5 24.6 206.1 24 C 206.6 23.4 207.3 23.1 208.1 23.1 C 209 23.1 209.7 23.4 210.2 24 C 210.7 24.6 211 25.3 211 26.4 C 211 26.4 211 26.5 211 26.7 C 211 26.7 206.3 26.7 206.3 26.7 C 206.4 27.3 206.6 27.9 206.9 28.2 C 207.3 28.6 207.7 28.8 208.2 28.8 C 208.6 28.8 208.9 28.7 209.2 28.5 C 209.5 28.3 209.7 27.9 209.9 27.5 Z M 206.4 25.8 C 206.4 25.8 209.9 25.8 209.9 25.8 C 209.8 25.3 209.7 24.9 209.5 24.6 C 209.1 24.2 208.7 24 208.2 24 C 207.7 24 207.3 24.2 206.9 24.5 C 206.6 24.8 206.4 25.2 206.4 25.8 Z M 214.1 28.6 C 214.2 28.6 214.4 28.6 214.6 28.6 C 214.6 28.6 214.7 29.5 214.7 29.5 C 214.4 29.6 214.2 29.6 213.9 29.6 C 213.5 29.6 213.2 29.5 213 29.4 C 212.8 29.3 212.7 29.1 212.6 28.9 C 212.5 28.7 212.5 28.3 212.5 27.7 C 212.46 27.68 212.5 24.1 212.5 24.1 L 211.7 24.1 L 211.7 23.3 L 212.5 23.3 L 212.5 21.7 L 213.5 21.1 L 213.5 23.3 L 214.6 23.3 L 214.6 24.1 L 213.5 24.1 C 213.5 24.1 213.51 27.74 213.5 27.7 C 213.5 28 213.5 28.2 213.6 28.3 C 213.6 28.4 213.7 28.5 213.7 28.5 C 213.8 28.6 214 28.6 214.1 28.6 C 214.1 28.6 214.1 28.6 214.1 28.6 Z M 219.9 27.5 C 219.9 27.5 221 27.6 221 27.6 C 220.8 28.3 220.5 28.8 220 29.1 C 219.5 29.5 218.9 29.6 218.2 29.6 C 217.3 29.6 216.6 29.4 216 28.8 C 215.5 28.2 215.2 27.5 215.2 26.4 C 215.2 25.4 215.5 24.6 216.1 24 C 216.6 23.4 217.3 23.1 218.2 23.1 C 219 23.1 219.7 23.4 220.2 24 C 220.7 24.6 221 25.3 221 26.4 C 221 26.4 221 26.5 221 26.7 C 221 26.7 216.3 26.7 216.3 26.7 C 216.4 27.3 216.6 27.9 216.9 28.2 C 217.3 28.6 217.7 28.8 218.2 28.8 C 218.6 28.8 218.9 28.7 219.2 28.5 C 219.5 28.3 219.7 27.9 219.9 27.5 Z M 216.4 25.8 C 216.4 25.8 219.9 25.8 219.9 25.8 C 219.8 25.3 219.7 24.9 219.5 24.6 C 219.1 24.2 218.7 24 218.2 24 C 217.7 24 217.3 24.2 216.9 24.5 C 216.6 24.8 216.4 25.2 216.4 25.8 Z M 222.3 29.5 L 222.3 23.3 L 223.2 23.3 C 223.2 23.3 223.22 24.16 223.2 24.2 C 223.7 23.5 224.3 23.1 225.2 23.1 C 225.6 23.1 225.9 23.2 226.2 23.3 C 226.6 23.5 226.8 23.7 226.9 23.9 C 227.1 24.1 227.2 24.3 227.3 24.6 C 227.3 24.8 227.3 25.2 227.3 25.7 C 227.33 25.67 227.3 29.5 227.3 29.5 L 226.3 29.5 C 226.3 29.5 226.28 25.71 226.3 25.7 C 226.3 25.3 226.2 25 226.2 24.8 C 226.1 24.5 225.9 24.4 225.7 24.2 C 225.5 24.1 225.3 24.1 225 24.1 C 224.5 24.1 224.1 24.2 223.8 24.5 C 223.5 24.8 223.3 25.3 223.3 26.1 C 223.33 26.1 223.3 29.5 223.3 29.5 L 222.3 29.5 Z M 233 27.2 C 233 27.2 234 27.4 234 27.4 C 233.9 28.1 233.6 28.6 233.2 29 C 232.7 29.4 232.1 29.6 231.5 29.6 C 230.6 29.6 229.9 29.4 229.4 28.8 C 228.9 28.2 228.6 27.5 228.6 26.4 C 228.6 25.7 228.7 25.2 229 24.6 C 229.2 24.1 229.5 23.8 230 23.5 C 230.4 23.3 230.9 23.1 231.5 23.1 C 232.1 23.1 232.7 23.3 233.1 23.6 C 233.6 24 233.8 24.5 233.9 25.1 C 233.9 25.1 232.9 25.3 232.9 25.3 C 232.8 24.8 232.7 24.5 232.4 24.3 C 232.2 24.1 231.9 24 231.5 24 C 231 24 230.5 24.2 230.2 24.6 C 229.9 25 229.7 25.6 229.7 26.4 C 229.7 27.2 229.9 27.8 230.2 28.2 C 230.5 28.6 230.9 28.8 231.4 28.8 C 231.9 28.8 232.2 28.6 232.5 28.4 C 232.8 28.1 232.9 27.7 233 27.2 Z M 239.2 27.5 C 239.2 27.5 240.3 27.6 240.3 27.6 C 240.1 28.3 239.8 28.8 239.3 29.1 C 238.9 29.5 238.3 29.6 237.6 29.6 C 236.7 29.6 235.9 29.4 235.4 28.8 C 234.9 28.2 234.6 27.5 234.6 26.4 C 234.6 25.4 234.9 24.6 235.4 24 C 235.9 23.4 236.6 23.1 237.5 23.1 C 238.3 23.1 239 23.4 239.5 24 C 240.1 24.6 240.3 25.3 240.3 26.4 C 240.3 26.4 240.3 26.5 240.3 26.7 C 240.3 26.7 235.7 26.7 235.7 26.7 C 235.7 27.3 235.9 27.9 236.3 28.2 C 236.6 28.6 237 28.8 237.6 28.8 C 238 28.8 238.3 28.7 238.6 28.5 C 238.8 28.3 239 27.9 239.2 27.5 Z M 235.7 25.8 C 235.7 25.8 239.2 25.8 239.2 25.8 C 239.2 25.3 239 24.9 238.8 24.6 C 238.5 24.2 238.1 24 237.5 24 C 237 24 236.6 24.2 236.3 24.5 C 236 24.8 235.8 25.2 235.7 25.8 Z " stroke="none" fill="#000"/>  </g>  <g id="Polygon1987">    <path d="M 0.9 25.3 C 0.9 25 0.9 24.7 1 24.4 C 1.2 24.2 1.3 23.9 1.5 23.8 C 1.7 23.6 1.9 23.4 2.2 23.3 C 2.4 23.2 2.7 23.1 3 23.1 C 3.3 23.1 3.6 23.2 3.8 23.3 C 4.1 23.4 4.3 23.6 4.5 23.8 C 4.7 23.9 4.8 24.2 5 24.4 C 5.1 24.7 5.1 25 5.1 25.3 C 5.1 25.5 5.1 25.8 5 26.1 C 4.8 26.3 4.7 26.6 4.5 26.8 C 4.3 26.9 4.1 27.1 3.8 27.2 C 3.6 27.3 3.3 27.4 3 27.4 C 2.7 27.4 2.4 27.3 2.2 27.2 C 1.9 27.1 1.7 26.9 1.5 26.8 C 1.3 26.6 1.2 26.3 1 26.1 C 0.9 25.8 0.9 25.5 0.9 25.3 Z " stroke="none" fill="#f28620"/>  </g>  <g id="Polygon1986">    <path d="M 18.9 12 L 18.9 3.4 L 25.2 3.4 L 25.2 4.4 L 20.1 4.4 L 20.1 7.1 L 24.8 7.1 L 24.8 8.1 L 20.1 8.1 L 20.1 11 L 25.4 11 L 25.4 12 L 18.9 12 Z M 26.8 12 L 26.8 5.8 L 27.7 5.8 C 27.7 5.8 27.74 6.66 27.7 6.7 C 28.2 6 28.9 5.6 29.7 5.6 C 30.1 5.6 30.4 5.7 30.8 5.8 C 31.1 6 31.3 6.2 31.5 6.4 C 31.6 6.6 31.7 6.8 31.8 7.1 C 31.8 7.3 31.9 7.7 31.9 8.2 C 31.85 8.17 31.9 12 31.9 12 L 30.8 12 C 30.8 12 30.8 8.21 30.8 8.2 C 30.8 7.8 30.8 7.5 30.7 7.3 C 30.6 7 30.4 6.9 30.2 6.7 C 30 6.6 29.8 6.6 29.5 6.6 C 29.1 6.6 28.7 6.7 28.3 7 C 28 7.3 27.8 7.8 27.8 8.6 C 27.85 8.6 27.8 12 27.8 12 L 26.8 12 Z M 37.5 12 C 37.5 12 37.51 11.21 37.5 11.2 C 37.1 11.8 36.5 12.1 35.8 12.1 C 35.3 12.1 34.8 12 34.4 11.7 C 34 11.5 33.7 11.1 33.4 10.6 C 33.2 10.1 33.1 9.5 33.1 8.9 C 33.1 8.3 33.2 7.7 33.4 7.2 C 33.6 6.7 33.9 6.3 34.3 6 C 34.7 5.8 35.2 5.6 35.7 5.6 C 36.1 5.6 36.4 5.7 36.7 5.9 C 37 6 37.3 6.2 37.4 6.5 C 37.44 6.49 37.4 3.4 37.4 3.4 L 38.5 3.4 L 38.5 12 L 37.5 12 Z M 34.2 8.9 C 34.2 9.7 34.3 10.3 34.7 10.7 C 35 11.1 35.4 11.3 35.9 11.3 C 36.3 11.3 36.7 11.1 37 10.7 C 37.4 10.3 37.5 9.8 37.5 9 C 37.5 8.1 37.4 7.5 37 7.1 C 36.7 6.7 36.3 6.5 35.8 6.5 C 35.3 6.5 35 6.7 34.6 7.1 C 34.3 7.5 34.2 8.1 34.2 8.9 Z M 39.7 9.4 L 39.7 8.4 L 43 8.4 L 43 9.4 L 39.7 9.4 Z M 44.3 12 L 44.3 3.4 C 44.3 3.4 47.51 3.41 47.5 3.4 C 48.1 3.4 48.5 3.4 48.8 3.5 C 49.2 3.6 49.6 3.7 49.9 3.9 C 50.2 4.1 50.4 4.4 50.6 4.7 C 50.7 5.1 50.8 5.5 50.8 5.9 C 50.8 6.6 50.6 7.2 50.1 7.7 C 49.7 8.3 48.8 8.5 47.6 8.5 C 47.61 8.51 45.4 8.5 45.4 8.5 L 45.4 12 L 44.3 12 Z M 45.4 7.5 C 45.4 7.5 47.63 7.49 47.6 7.5 C 48.4 7.5 48.9 7.4 49.2 7.1 C 49.5 6.8 49.7 6.4 49.7 5.9 C 49.7 5.6 49.6 5.3 49.4 5 C 49.2 4.8 49 4.6 48.7 4.5 C 48.5 4.4 48.1 4.4 47.6 4.4 C 47.61 4.42 45.4 4.4 45.4 4.4 L 45.4 7.5 Z M 51.8 8.9 C 51.8 7.7 52.1 6.9 52.7 6.3 C 53.2 5.9 53.9 5.6 54.7 5.6 C 55.5 5.6 56.2 5.9 56.8 6.5 C 57.3 7 57.6 7.8 57.6 8.8 C 57.6 9.6 57.5 10.2 57.2 10.7 C 57 11.1 56.6 11.5 56.2 11.8 C 55.7 12 55.2 12.1 54.7 12.1 C 53.8 12.1 53.1 11.9 52.6 11.3 C 52 10.7 51.8 9.9 51.8 8.9 Z M 52.8 8.9 C 52.8 9.7 53 10.3 53.4 10.7 C 53.7 11.1 54.1 11.3 54.7 11.3 C 55.2 11.3 55.6 11.1 56 10.7 C 56.3 10.3 56.5 9.7 56.5 8.9 C 56.5 8.1 56.3 7.5 56 7.1 C 55.6 6.7 55.2 6.5 54.7 6.5 C 54.1 6.5 53.7 6.7 53.4 7.1 C 53 7.5 52.8 8.1 52.8 8.9 Z M 58.8 4.6 L 58.8 3.4 L 59.9 3.4 L 59.9 4.6 L 58.8 4.6 Z M 58.8 12 L 58.8 5.8 L 59.9 5.8 L 59.9 12 L 58.8 12 Z M 61.5 12 L 61.5 5.8 L 62.4 5.8 C 62.4 5.8 62.43 6.66 62.4 6.7 C 62.9 6 63.5 5.6 64.4 5.6 C 64.8 5.6 65.1 5.7 65.4 5.8 C 65.8 6 66 6.2 66.2 6.4 C 66.3 6.6 66.4 6.8 66.5 7.1 C 66.5 7.3 66.5 7.7 66.5 8.2 C 66.54 8.17 66.5 12 66.5 12 L 65.5 12 C 65.5 12 65.48 8.21 65.5 8.2 C 65.5 7.8 65.4 7.5 65.4 7.3 C 65.3 7 65.1 6.9 64.9 6.7 C 64.7 6.6 64.5 6.6 64.2 6.6 C 63.7 6.6 63.4 6.7 63 7 C 62.7 7.3 62.5 7.8 62.5 8.6 C 62.54 8.6 62.5 12 62.5 12 L 61.5 12 Z M 70 11.1 C 70.1 11.1 70.3 11.1 70.5 11.1 C 70.5 11.1 70.6 12 70.6 12 C 70.3 12.1 70 12.1 69.8 12.1 C 69.4 12.1 69.1 12 68.9 11.9 C 68.7 11.8 68.6 11.6 68.5 11.4 C 68.4 11.2 68.3 10.8 68.3 10.2 C 68.35 10.18 68.3 6.6 68.3 6.6 L 67.6 6.6 L 67.6 5.8 L 68.3 5.8 L 68.3 4.2 L 69.4 3.6 L 69.4 5.8 L 70.5 5.8 L 70.5 6.6 L 69.4 6.6 C 69.4 6.6 69.4 10.24 69.4 10.2 C 69.4 10.5 69.4 10.7 69.5 10.8 C 69.5 10.9 69.6 11 69.6 11 C 69.7 11.1 69.8 11.1 70 11.1 C 70 11.1 70 11.1 70 11.1 Z M 73.4 12 L 76.7 3.4 L 77.9 3.4 L 81.4 12 L 80.1 12 L 79.1 9.4 L 75.5 9.4 L 74.6 12 L 73.4 12 Z M 75.8 8.5 L 78.7 8.5 C 78.7 8.5 77.85 6.09 77.8 6.1 C 77.6 5.4 77.4 4.8 77.2 4.3 C 77.1 4.9 77 5.4 76.8 6 C 76.78 5.95 75.8 8.5 75.8 8.5 Z M 81.7 10.1 C 81.7 10.1 82.8 10 82.8 10 C 82.8 10.4 83 10.7 83.3 10.9 C 83.5 11.2 83.9 11.3 84.4 11.3 C 84.9 11.3 85.2 11.2 85.5 11 C 85.7 10.8 85.8 10.5 85.8 10.3 C 85.8 10 85.7 9.9 85.5 9.7 C 85.4 9.6 85 9.5 84.4 9.4 C 83.7 9.2 83.1 9 82.8 8.9 C 82.5 8.7 82.3 8.5 82.2 8.3 C 82 8 81.9 7.7 81.9 7.4 C 81.9 7.2 82 6.9 82.1 6.7 C 82.2 6.4 82.4 6.2 82.6 6.1 C 82.8 5.9 83 5.8 83.3 5.8 C 83.6 5.7 83.9 5.6 84.2 5.6 C 84.7 5.6 85.1 5.7 85.5 5.8 C 85.9 6 86.1 6.2 86.3 6.4 C 86.5 6.7 86.6 7 86.7 7.4 C 86.7 7.4 85.6 7.5 85.6 7.5 C 85.6 7.2 85.5 7 85.2 6.8 C 85 6.6 84.7 6.5 84.3 6.5 C 83.8 6.5 83.5 6.6 83.3 6.7 C 83 6.9 82.9 7.1 82.9 7.3 C 82.9 7.4 83 7.6 83.1 7.7 C 83.2 7.8 83.3 7.9 83.5 8 C 83.6 8 83.9 8.1 84.4 8.2 C 85.2 8.4 85.7 8.6 86 8.7 C 86.3 8.8 86.5 9 86.7 9.3 C 86.8 9.5 86.9 9.8 86.9 10.2 C 86.9 10.5 86.8 10.9 86.6 11.2 C 86.4 11.5 86.1 11.7 85.7 11.9 C 85.3 12.1 84.9 12.1 84.4 12.1 C 83.6 12.1 83 12 82.6 11.6 C 82.1 11.3 81.9 10.8 81.7 10.1 Z M 87.7 10.1 C 87.7 10.1 88.8 10 88.8 10 C 88.8 10.4 89 10.7 89.3 10.9 C 89.5 11.2 89.9 11.3 90.4 11.3 C 90.9 11.3 91.2 11.2 91.5 11 C 91.7 10.8 91.8 10.5 91.8 10.3 C 91.8 10 91.7 9.9 91.5 9.7 C 91.4 9.6 91 9.5 90.4 9.4 C 89.7 9.2 89.1 9 88.8 8.9 C 88.5 8.7 88.3 8.5 88.2 8.3 C 88 8 87.9 7.7 87.9 7.4 C 87.9 7.2 88 6.9 88.1 6.7 C 88.2 6.4 88.4 6.2 88.6 6.1 C 88.8 5.9 89 5.8 89.3 5.8 C 89.6 5.7 89.9 5.6 90.2 5.6 C 90.7 5.6 91.1 5.7 91.5 5.8 C 91.9 6 92.1 6.2 92.3 6.4 C 92.5 6.7 92.6 7 92.7 7.4 C 92.7 7.4 91.6 7.5 91.6 7.5 C 91.6 7.2 91.5 7 91.2 6.8 C 91 6.6 90.7 6.5 90.3 6.5 C 89.8 6.5 89.5 6.6 89.3 6.7 C 89 6.9 88.9 7.1 88.9 7.3 C 88.9 7.4 89 7.6 89.1 7.7 C 89.2 7.8 89.3 7.9 89.5 8 C 89.6 8 89.9 8.1 90.4 8.2 C 91.2 8.4 91.7 8.6 92 8.7 C 92.3 8.8 92.5 9 92.7 9.3 C 92.8 9.5 92.9 9.8 92.9 10.2 C 92.9 10.5 92.8 10.9 92.6 11.2 C 92.4 11.5 92.1 11.7 91.7 11.9 C 91.3 12.1 90.9 12.1 90.4 12.1 C 89.6 12.1 89 12 88.6 11.6 C 88.1 11.3 87.9 10.8 87.7 10.1 Z M 98.4 10 C 98.4 10 99.5 10.1 99.5 10.1 C 99.3 10.8 99 11.3 98.6 11.6 C 98.1 12 97.5 12.1 96.8 12.1 C 95.9 12.1 95.1 11.9 94.6 11.3 C 94.1 10.7 93.8 10 93.8 8.9 C 93.8 7.9 94.1 7.1 94.6 6.5 C 95.2 5.9 95.9 5.6 96.7 5.6 C 97.6 5.6 98.2 5.9 98.8 6.5 C 99.3 7.1 99.6 7.8 99.6 8.9 C 99.6 8.9 99.5 9 99.5 9.2 C 99.5 9.2 94.9 9.2 94.9 9.2 C 94.9 9.8 95.1 10.4 95.5 10.7 C 95.8 11.1 96.3 11.3 96.8 11.3 C 97.2 11.3 97.5 11.2 97.8 11 C 98 10.8 98.3 10.4 98.4 10 Z M 95 8.3 C 95 8.3 98.4 8.3 98.4 8.3 C 98.4 7.8 98.3 7.4 98 7.1 C 97.7 6.7 97.3 6.5 96.7 6.5 C 96.2 6.5 95.8 6.7 95.5 7 C 95.2 7.3 95 7.7 95 8.3 Z M 100.4 10.1 C 100.4 10.1 101.5 10 101.5 10 C 101.5 10.4 101.7 10.7 102 10.9 C 102.2 11.2 102.6 11.3 103.1 11.3 C 103.6 11.3 103.9 11.2 104.2 11 C 104.4 10.8 104.5 10.5 104.5 10.3 C 104.5 10 104.4 9.9 104.2 9.7 C 104 9.6 103.7 9.5 103.1 9.4 C 102.3 9.2 101.8 9 101.5 8.9 C 101.2 8.7 101 8.5 100.8 8.3 C 100.7 8 100.6 7.7 100.6 7.4 C 100.6 7.2 100.7 6.9 100.8 6.7 C 100.9 6.4 101.1 6.2 101.3 6.1 C 101.5 5.9 101.7 5.8 102 5.8 C 102.3 5.7 102.6 5.6 102.9 5.6 C 103.4 5.6 103.8 5.7 104.2 5.8 C 104.5 6 104.8 6.2 105 6.4 C 105.2 6.7 105.3 7 105.4 7.4 C 105.4 7.4 104.3 7.5 104.3 7.5 C 104.3 7.2 104.1 7 103.9 6.8 C 103.7 6.6 103.4 6.5 103 6.5 C 102.5 6.5 102.1 6.6 101.9 6.7 C 101.7 6.9 101.6 7.1 101.6 7.3 C 101.6 7.4 101.7 7.6 101.7 7.7 C 101.8 7.8 102 7.9 102.1 8 C 102.3 8 102.6 8.1 103.1 8.2 C 103.8 8.4 104.3 8.6 104.6 8.7 C 104.9 8.8 105.2 9 105.3 9.3 C 105.5 9.5 105.6 9.8 105.6 10.2 C 105.6 10.5 105.5 10.9 105.3 11.2 C 105.1 11.5 104.8 11.7 104.4 11.9 C 104 12.1 103.6 12.1 103.1 12.1 C 102.3 12.1 101.7 12 101.2 11.6 C 100.8 11.3 100.5 10.8 100.4 10.1 Z M 106.4 10.1 C 106.4 10.1 107.5 10 107.5 10 C 107.5 10.4 107.7 10.7 108 10.9 C 108.2 11.2 108.6 11.3 109.1 11.3 C 109.6 11.3 109.9 11.2 110.2 11 C 110.4 10.8 110.5 10.5 110.5 10.3 C 110.5 10 110.4 9.9 110.2 9.7 C 110 9.6 109.7 9.5 109.1 9.4 C 108.3 9.2 107.8 9 107.5 8.9 C 107.2 8.7 107 8.5 106.8 8.3 C 106.7 8 106.6 7.7 106.6 7.4 C 106.6 7.2 106.7 6.9 106.8 6.7 C 106.9 6.4 107.1 6.2 107.3 6.1 C 107.5 5.9 107.7 5.8 108 5.8 C 108.3 5.7 108.6 5.6 108.9 5.6 C 109.4 5.6 109.8 5.7 110.2 5.8 C 110.5 6 110.8 6.2 111 6.4 C 111.2 6.7 111.3 7 111.4 7.4 C 111.4 7.4 110.3 7.5 110.3 7.5 C 110.3 7.2 110.1 7 109.9 6.8 C 109.7 6.6 109.4 6.5 109 6.5 C 108.5 6.5 108.1 6.6 107.9 6.7 C 107.7 6.9 107.6 7.1 107.6 7.3 C 107.6 7.4 107.7 7.6 107.7 7.7 C 107.8 7.8 108 7.9 108.1 8 C 108.3 8 108.6 8.1 109.1 8.2 C 109.8 8.4 110.3 8.6 110.6 8.7 C 110.9 8.8 111.2 9 111.3 9.3 C 111.5 9.5 111.6 9.8 111.6 10.2 C 111.6 10.5 111.5 10.9 111.3 11.2 C 111.1 11.5 110.8 11.7 110.4 11.9 C 110 12.1 109.6 12.1 109.1 12.1 C 108.3 12.1 107.7 12 107.2 11.6 C 106.8 11.3 106.5 10.8 106.4 10.1 Z M 112.8 12 L 112.8 5.8 L 113.8 5.8 C 113.8 5.8 113.78 6.65 113.8 6.7 C 114 6.3 114.2 6.1 114.6 5.9 C 114.9 5.7 115.3 5.6 115.7 5.6 C 116.1 5.6 116.5 5.7 116.8 5.9 C 117.1 6.1 117.3 6.4 117.4 6.7 C 117.9 6 118.6 5.6 119.3 5.6 C 120 5.6 120.4 5.8 120.8 6.1 C 121.1 6.5 121.3 7 121.3 7.7 C 121.27 7.73 121.3 12 121.3 12 L 120.2 12 C 120.2 12 120.22 8.08 120.2 8.1 C 120.2 7.7 120.2 7.4 120.1 7.2 C 120.1 7 119.9 6.8 119.7 6.7 C 119.6 6.6 119.4 6.6 119.1 6.6 C 118.7 6.6 118.3 6.7 118 7 C 117.7 7.3 117.6 7.7 117.6 8.4 C 117.59 8.38 117.6 12 117.6 12 L 116.5 12 C 116.5 12 116.54 7.96 116.5 8 C 116.5 7.5 116.5 7.1 116.3 6.9 C 116.1 6.7 115.8 6.6 115.4 6.6 C 115.1 6.6 114.9 6.6 114.6 6.8 C 114.4 6.9 114.2 7.2 114.1 7.5 C 114 7.8 113.9 8.2 113.9 8.8 C 113.89 8.77 113.9 12 113.9 12 L 112.8 12 Z M 127.1 10 C 127.1 10 128.2 10.1 128.2 10.1 C 128 10.8 127.7 11.3 127.2 11.6 C 126.8 12 126.2 12.1 125.4 12.1 C 124.5 12.1 123.8 11.9 123.3 11.3 C 122.8 10.7 122.5 10 122.5 8.9 C 122.5 7.9 122.8 7.1 123.3 6.5 C 123.8 5.9 124.5 5.6 125.4 5.6 C 126.2 5.6 126.9 5.9 127.4 6.5 C 128 7.1 128.2 7.8 128.2 8.9 C 128.2 8.9 128.2 9 128.2 9.2 C 128.2 9.2 123.6 9.2 123.6 9.2 C 123.6 9.8 123.8 10.4 124.2 10.7 C 124.5 11.1 124.9 11.3 125.5 11.3 C 125.8 11.3 126.2 11.2 126.4 11 C 126.7 10.8 126.9 10.4 127.1 10 Z M 123.6 8.3 C 123.6 8.3 127.1 8.3 127.1 8.3 C 127.1 7.8 126.9 7.4 126.7 7.1 C 126.4 6.7 125.9 6.5 125.4 6.5 C 124.9 6.5 124.5 6.7 124.2 7 C 123.9 7.3 123.7 7.7 123.6 8.3 Z M 129.5 12 L 129.5 5.8 L 130.5 5.8 C 130.5 5.8 130.46 6.66 130.5 6.7 C 130.9 6 131.6 5.6 132.4 5.6 C 132.8 5.6 133.2 5.7 133.5 5.8 C 133.8 6 134 6.2 134.2 6.4 C 134.3 6.6 134.4 6.8 134.5 7.1 C 134.5 7.3 134.6 7.7 134.6 8.2 C 134.57 8.17 134.6 12 134.6 12 L 133.5 12 C 133.5 12 133.51 8.21 133.5 8.2 C 133.5 7.8 133.5 7.5 133.4 7.3 C 133.3 7 133.2 6.9 133 6.7 C 132.7 6.6 132.5 6.6 132.2 6.6 C 131.8 6.6 131.4 6.7 131.1 7 C 130.7 7.3 130.6 7.8 130.6 8.6 C 130.56 8.6 130.6 12 130.6 12 L 129.5 12 Z M 138 11.1 C 138.1 11.1 138.3 11.1 138.5 11.1 C 138.5 11.1 138.6 12 138.6 12 C 138.3 12.1 138.1 12.1 137.8 12.1 C 137.5 12.1 137.2 12 137 11.9 C 136.7 11.8 136.6 11.6 136.5 11.4 C 136.4 11.2 136.4 10.8 136.4 10.2 C 136.38 10.18 136.4 6.6 136.4 6.6 L 135.6 6.6 L 135.6 5.8 L 136.4 5.8 L 136.4 4.2 L 137.4 3.6 L 137.4 5.8 L 138.5 5.8 L 138.5 6.6 L 137.4 6.6 C 137.4 6.6 137.43 10.24 137.4 10.2 C 137.4 10.5 137.4 10.7 137.5 10.8 C 137.5 10.9 137.6 11 137.7 11 C 137.7 11.1 137.9 11.1 138 11.1 C 138 11.1 138 11.1 138 11.1 Z " stroke="none" fill="#000"/>  </g>  <g id="Polygon1985">    <path d="M 0.9 7.8 C 0.9 7.5 0.9 7.2 1 6.9 C 1.2 6.7 1.3 6.4 1.5 6.3 C 1.7 6.1 1.9 5.9 2.2 5.8 C 2.4 5.7 2.7 5.6 3 5.6 C 3.3 5.6 3.6 5.7 3.8 5.8 C 4.1 5.9 4.3 6.1 4.5 6.3 C 4.7 6.4 4.8 6.7 5 6.9 C 5.1 7.2 5.1 7.5 5.1 7.8 C 5.1 8 5.1 8.3 5 8.6 C 4.8 8.8 4.7 9.1 4.5 9.3 C 4.3 9.4 4.1 9.6 3.8 9.7 C 3.6 9.8 3.3 9.9 3 9.9 C 2.7 9.9 2.4 9.8 2.2 9.7 C 1.9 9.6 1.7 9.4 1.5 9.3 C 1.3 9.1 1.2 8.8 1 8.6 C 0.9 8.3 0.9 8 0.9 7.8 Z " stroke="none" fill="#f28620"/>  </g></svg>