<?xml version="1.0" standalone="no"?><!DOCTYPE svg PUBLIC "-//W3C//DTD SVG 1.1//EN" "http://www.w3.org/Graphics/SVG/1.1/DTD/svg11.dtd"><svg xmlns="http://www.w3.org/2000/svg" version="1.1" width="247px" height="36.7px" viewBox="0 -4 247 36.7" style="top:-4px">  <desc>Case Studies Gain a better understanding on what we can do for you.</desc>  <defs/>  <g id="Polygon737">    <path d="M 3.3 25 L 3.3 24.3 L 5.7 24.3 C 5.7 24.3 5.72 26.41 5.7 26.4 C 5.4 26.7 5 26.9 4.6 27.1 C 4.2 27.2 3.8 27.3 3.4 27.3 C 2.8 27.3 2.3 27.2 1.8 26.9 C 1.4 26.7 1 26.4 0.8 25.9 C 0.5 25.4 0.4 24.9 0.4 24.4 C 0.4 23.8 0.5 23.3 0.8 22.8 C 1 22.3 1.3 22 1.8 21.7 C 2.2 21.5 2.7 21.4 3.3 21.4 C 3.7 21.4 4.1 21.4 4.4 21.6 C 4.8 21.7 5 21.9 5.2 22.1 C 5.4 22.4 5.5 22.7 5.6 23.1 C 5.6 23.1 5 23.3 5 23.3 C 4.9 23 4.8 22.7 4.6 22.6 C 4.5 22.4 4.3 22.3 4.1 22.2 C 3.8 22.1 3.6 22 3.3 22 C 3 22 2.7 22.1 2.4 22.2 C 2.1 22.3 1.9 22.4 1.8 22.6 C 1.6 22.8 1.5 23 1.4 23.2 C 1.3 23.5 1.2 23.9 1.2 24.3 C 1.2 24.8 1.3 25.3 1.5 25.6 C 1.6 25.9 1.9 26.2 2.2 26.4 C 2.6 26.5 2.9 26.6 3.3 26.6 C 3.6 26.6 4 26.6 4.3 26.4 C 4.6 26.3 4.8 26.2 5 26 C 4.98 26.03 5 25 5 25 L 3.3 25 Z M 9.6 27.2 C 9.5 27.1 9.5 26.9 9.5 26.7 C 9.2 26.9 8.9 27.1 8.7 27.2 C 8.5 27.3 8.2 27.3 7.9 27.3 C 7.5 27.3 7.1 27.2 6.9 27 C 6.6 26.7 6.5 26.5 6.5 26.1 C 6.5 25.9 6.6 25.7 6.7 25.6 C 6.7 25.4 6.9 25.3 7 25.2 C 7.2 25 7.3 25 7.5 24.9 C 7.7 24.9 7.9 24.8 8.1 24.8 C 8.7 24.7 9.1 24.7 9.4 24.6 C 9.4 24.5 9.4 24.4 9.4 24.4 C 9.4 24.1 9.3 23.9 9.2 23.8 C 9 23.6 8.8 23.5 8.4 23.5 C 8.1 23.5 7.8 23.6 7.7 23.7 C 7.5 23.8 7.4 24 7.3 24.3 C 7.3 24.3 6.6 24.2 6.6 24.2 C 6.7 23.9 6.8 23.7 6.9 23.5 C 7.1 23.3 7.3 23.2 7.6 23.1 C 7.8 23 8.1 23 8.5 23 C 8.9 23 9.1 23 9.4 23.1 C 9.6 23.2 9.8 23.3 9.9 23.4 C 10 23.5 10 23.7 10.1 23.9 C 10.1 24 10.1 24.2 10.1 24.5 C 10.1 24.5 10.1 25.5 10.1 25.5 C 10.1 26.1 10.1 26.5 10.2 26.7 C 10.2 26.9 10.2 27 10.3 27.2 C 10.33 27.21 9.6 27.2 9.6 27.2 C 9.6 27.2 9.6 27.21 9.6 27.2 Z M 9.4 25.1 C 9.1 25.2 8.8 25.3 8.3 25.4 C 8 25.4 7.8 25.5 7.6 25.5 C 7.5 25.6 7.4 25.7 7.4 25.8 C 7.3 25.9 7.3 26 7.3 26.1 C 7.3 26.3 7.3 26.4 7.5 26.6 C 7.6 26.7 7.8 26.7 8.1 26.7 C 8.4 26.7 8.6 26.7 8.8 26.6 C 9 26.5 9.2 26.3 9.3 26.1 C 9.4 25.9 9.4 25.7 9.4 25.4 C 9.4 25.4 9.4 25.1 9.4 25.1 Z M 11.2 22.3 L 11.2 21.5 L 11.9 21.5 L 11.9 22.3 L 11.2 22.3 Z M 11.2 27.2 L 11.2 23.1 L 11.9 23.1 L 11.9 27.2 L 11.2 27.2 Z M 13 27.2 L 13 23.1 L 13.6 23.1 C 13.6 23.1 13.61 23.65 13.6 23.6 C 13.9 23.2 14.4 23 14.9 23 C 15.2 23 15.4 23 15.6 23.1 C 15.8 23.2 16 23.3 16.1 23.5 C 16.2 23.6 16.3 23.8 16.3 24 C 16.3 24.1 16.3 24.3 16.3 24.7 C 16.35 24.66 16.3 27.2 16.3 27.2 L 15.6 27.2 C 15.6 27.2 15.64 24.68 15.6 24.7 C 15.6 24.4 15.6 24.2 15.6 24 C 15.5 23.9 15.4 23.8 15.3 23.7 C 15.1 23.6 15 23.6 14.8 23.6 C 14.5 23.6 14.2 23.7 14 23.9 C 13.8 24 13.7 24.4 13.7 24.9 C 13.68 24.94 13.7 27.2 13.7 27.2 L 13 27.2 Z M 22.5 27.2 C 22.4 27.1 22.4 26.9 22.4 26.7 C 22.1 26.9 21.8 27.1 21.6 27.2 C 21.4 27.3 21.1 27.3 20.8 27.3 C 20.4 27.3 20 27.2 19.8 27 C 19.5 26.7 19.4 26.5 19.4 26.1 C 19.4 25.9 19.5 25.7 19.5 25.6 C 19.6 25.4 19.8 25.3 19.9 25.2 C 20.1 25 20.2 25 20.4 24.9 C 20.6 24.9 20.8 24.8 21 24.8 C 21.6 24.7 22 24.7 22.3 24.6 C 22.3 24.5 22.3 24.4 22.3 24.4 C 22.3 24.1 22.2 23.9 22.1 23.8 C 21.9 23.6 21.7 23.5 21.3 23.5 C 21 23.5 20.7 23.6 20.6 23.7 C 20.4 23.8 20.3 24 20.2 24.3 C 20.2 24.3 19.5 24.2 19.5 24.2 C 19.6 23.9 19.7 23.7 19.8 23.5 C 20 23.3 20.2 23.2 20.5 23.1 C 20.7 23 21 23 21.4 23 C 21.8 23 22 23 22.3 23.1 C 22.5 23.2 22.6 23.3 22.8 23.4 C 22.9 23.5 22.9 23.7 23 23.9 C 23 24 23 24.2 23 24.5 C 23 24.5 23 25.5 23 25.5 C 23 26.1 23 26.5 23.1 26.7 C 23.1 26.9 23.1 27 23.2 27.2 C 23.23 27.21 22.5 27.2 22.5 27.2 C 22.5 27.2 22.5 27.21 22.5 27.2 Z M 22.3 25.1 C 22 25.2 21.7 25.3 21.1 25.4 C 20.9 25.4 20.7 25.5 20.5 25.5 C 20.4 25.6 20.3 25.7 20.3 25.8 C 20.2 25.9 20.2 26 20.2 26.1 C 20.2 26.3 20.2 26.4 20.4 26.6 C 20.5 26.7 20.7 26.7 21 26.7 C 21.3 26.7 21.5 26.7 21.7 26.6 C 21.9 26.5 22.1 26.3 22.2 26.1 C 22.3 25.9 22.3 25.7 22.3 25.4 C 22.3 25.4 22.3 25.1 22.3 25.1 Z M 27 27.2 L 26.3 27.2 L 26.3 21.5 L 27 21.5 C 27 21.5 27.02 23.52 27 23.5 C 27.3 23.1 27.7 23 28.2 23 C 28.4 23 28.7 23 28.9 23.1 C 29.1 23.2 29.3 23.4 29.4 23.6 C 29.6 23.7 29.7 24 29.8 24.2 C 29.9 24.5 29.9 24.8 29.9 25.1 C 29.9 25.8 29.7 26.3 29.4 26.7 C 29 27.1 28.6 27.3 28.1 27.3 C 27.6 27.3 27.2 27.1 27 26.7 C 26.97 26.69 27 27.2 27 27.2 Z M 27 25.1 C 27 25.6 27 26 27.2 26.2 C 27.4 26.5 27.7 26.7 28.1 26.7 C 28.4 26.7 28.6 26.6 28.9 26.3 C 29.1 26.1 29.2 25.7 29.2 25.1 C 29.2 24.6 29.1 24.2 28.9 23.9 C 28.7 23.7 28.4 23.5 28.1 23.5 C 27.8 23.5 27.5 23.7 27.3 23.9 C 27.1 24.2 27 24.6 27 25.1 Z M 33.6 25.9 C 33.6 25.9 34.3 26 34.3 26 C 34.2 26.4 34 26.7 33.7 26.9 C 33.4 27.2 33 27.3 32.5 27.3 C 31.9 27.3 31.4 27.1 31.1 26.7 C 30.7 26.4 30.5 25.8 30.5 25.2 C 30.5 24.5 30.7 23.9 31.1 23.5 C 31.4 23.2 31.9 23 32.5 23 C 33 23 33.5 23.2 33.8 23.5 C 34.2 23.9 34.4 24.4 34.4 25.1 C 34.4 25.2 34.4 25.2 34.4 25.3 C 34.4 25.3 31.3 25.3 31.3 25.3 C 31.3 25.8 31.4 26.1 31.6 26.4 C 31.9 26.6 32.2 26.7 32.5 26.7 C 32.8 26.7 33 26.7 33.2 26.5 C 33.4 26.4 33.5 26.2 33.6 25.9 Z M 31.3 24.7 C 31.3 24.7 33.6 24.7 33.6 24.7 C 33.6 24.4 33.5 24.1 33.4 23.9 C 33.1 23.7 32.8 23.5 32.5 23.5 C 32.2 23.5 31.9 23.6 31.7 23.9 C 31.4 24.1 31.3 24.4 31.3 24.7 Z M 36.4 26.6 C 36.5 26.6 36.6 26.6 36.8 26.6 C 36.8 26.6 36.9 27.2 36.9 27.2 C 36.7 27.2 36.5 27.3 36.3 27.3 C 36.1 27.3 35.9 27.2 35.7 27.1 C 35.6 27.1 35.5 27 35.4 26.8 C 35.4 26.7 35.3 26.4 35.3 26 C 35.35 25.99 35.3 23.6 35.3 23.6 L 34.8 23.6 L 34.8 23.1 L 35.3 23.1 L 35.3 22 L 36 21.6 L 36 23.1 L 36.8 23.1 L 36.8 23.6 L 36 23.6 C 36 23.6 36.05 26.03 36 26 C 36 26.2 36.1 26.4 36.1 26.4 C 36.1 26.5 36.1 26.5 36.2 26.6 C 36.3 26.6 36.3 26.6 36.4 26.6 C 36.4 26.6 36.4 26.6 36.4 26.6 Z M 38.7 26.6 C 38.7 26.6 38.8 26.6 39 26.6 C 39 26.6 39.1 27.2 39.1 27.2 C 38.9 27.2 38.7 27.3 38.5 27.3 C 38.3 27.3 38.1 27.2 38 27.1 C 37.8 27.1 37.7 27 37.7 26.8 C 37.6 26.7 37.6 26.4 37.6 26 C 37.57 25.99 37.6 23.6 37.6 23.6 L 37.1 23.6 L 37.1 23.1 L 37.6 23.1 L 37.6 22 L 38.3 21.6 L 38.3 23.1 L 39 23.1 L 39 23.6 L 38.3 23.6 C 38.3 23.6 38.27 26.03 38.3 26 C 38.3 26.2 38.3 26.4 38.3 26.4 C 38.3 26.5 38.4 26.5 38.4 26.6 C 38.5 26.6 38.6 26.6 38.7 26.6 C 38.7 26.6 38.7 26.6 38.7 26.6 Z M 42.5 25.9 C 42.5 25.9 43.2 26 43.2 26 C 43.1 26.4 42.9 26.7 42.6 26.9 C 42.3 27.2 41.9 27.3 41.4 27.3 C 40.8 27.3 40.3 27.1 40 26.7 C 39.6 26.4 39.4 25.8 39.4 25.2 C 39.4 24.5 39.6 23.9 40 23.5 C 40.3 23.2 40.8 23 41.4 23 C 41.9 23 42.4 23.2 42.7 23.5 C 43.1 23.9 43.3 24.4 43.3 25.1 C 43.3 25.2 43.3 25.2 43.3 25.3 C 43.3 25.3 40.2 25.3 40.2 25.3 C 40.2 25.8 40.3 26.1 40.5 26.4 C 40.8 26.6 41.1 26.7 41.4 26.7 C 41.7 26.7 41.9 26.7 42.1 26.5 C 42.3 26.4 42.4 26.2 42.5 25.9 Z M 40.2 24.7 C 40.2 24.7 42.5 24.7 42.5 24.7 C 42.5 24.4 42.4 24.1 42.2 23.9 C 42 23.7 41.7 23.5 41.4 23.5 C 41.1 23.5 40.8 23.6 40.6 23.9 C 40.3 24.1 40.2 24.4 40.2 24.7 Z M 44.1 27.2 L 44.1 23.1 L 44.7 23.1 C 44.7 23.1 44.74 23.69 44.7 23.7 C 44.9 23.4 45 23.2 45.2 23.1 C 45.3 23 45.5 23 45.6 23 C 45.9 23 46.1 23 46.4 23.2 C 46.4 23.2 46.1 23.8 46.1 23.8 C 45.9 23.7 45.8 23.7 45.6 23.7 C 45.4 23.7 45.3 23.7 45.2 23.8 C 45.1 23.9 45 24 44.9 24.2 C 44.8 24.5 44.8 24.7 44.8 25 C 44.81 25.03 44.8 27.2 44.8 27.2 L 44.1 27.2 Z M 51.7 27.2 C 51.7 27.2 51.72 26.6 51.7 26.6 C 51.4 27.1 51 27.3 50.4 27.3 C 50.2 27.3 49.9 27.3 49.7 27.2 C 49.5 27.1 49.3 26.9 49.2 26.8 C 49.1 26.7 49.1 26.5 49 26.3 C 49 26.1 49 25.9 49 25.6 C 48.98 25.63 49 23.1 49 23.1 L 49.7 23.1 C 49.7 23.1 49.69 25.36 49.7 25.4 C 49.7 25.7 49.7 26 49.7 26.1 C 49.8 26.3 49.9 26.4 50 26.5 C 50.2 26.6 50.3 26.7 50.5 26.7 C 50.8 26.7 51 26.6 51.1 26.5 C 51.3 26.4 51.5 26.3 51.5 26.1 C 51.6 25.9 51.6 25.6 51.6 25.3 C 51.64 25.28 51.6 23.1 51.6 23.1 L 52.3 23.1 L 52.3 27.2 L 51.7 27.2 Z M 53.4 27.2 L 53.4 23.1 L 54.1 23.1 C 54.1 23.1 54.08 23.65 54.1 23.6 C 54.4 23.2 54.8 23 55.4 23 C 55.7 23 55.9 23 56.1 23.1 C 56.3 23.2 56.5 23.3 56.6 23.5 C 56.7 23.6 56.7 23.8 56.8 24 C 56.8 24.1 56.8 24.3 56.8 24.7 C 56.82 24.66 56.8 27.2 56.8 27.2 L 56.1 27.2 C 56.1 27.2 56.12 24.68 56.1 24.7 C 56.1 24.4 56.1 24.2 56 24 C 56 23.9 55.9 23.8 55.7 23.7 C 55.6 23.6 55.4 23.6 55.3 23.6 C 55 23.6 54.7 23.7 54.5 23.9 C 54.3 24 54.2 24.4 54.2 24.9 C 54.15 24.94 54.2 27.2 54.2 27.2 L 53.4 27.2 Z M 60.6 27.2 C 60.6 27.2 60.59 26.68 60.6 26.7 C 60.3 27.1 59.9 27.3 59.4 27.3 C 59.1 27.3 58.8 27.2 58.5 27 C 58.2 26.8 58 26.6 57.9 26.3 C 57.7 25.9 57.6 25.6 57.6 25.1 C 57.6 24.7 57.7 24.3 57.9 24 C 58 23.7 58.2 23.4 58.5 23.2 C 58.7 23.1 59.1 23 59.4 23 C 59.6 23 59.9 23 60.1 23.1 C 60.3 23.2 60.4 23.4 60.5 23.5 C 60.54 23.53 60.5 21.5 60.5 21.5 L 61.2 21.5 L 61.2 27.2 L 60.6 27.2 Z M 58.4 25.1 C 58.4 25.7 58.5 26.1 58.7 26.3 C 58.9 26.6 59.2 26.7 59.5 26.7 C 59.8 26.7 60.1 26.6 60.3 26.3 C 60.5 26.1 60.6 25.7 60.6 25.2 C 60.6 24.6 60.5 24.2 60.3 23.9 C 60.1 23.7 59.8 23.5 59.5 23.5 C 59.2 23.5 58.9 23.7 58.7 23.9 C 58.5 24.2 58.4 24.6 58.4 25.1 Z M 65.2 25.9 C 65.2 25.9 65.9 26 65.9 26 C 65.8 26.4 65.6 26.7 65.3 26.9 C 65 27.2 64.6 27.3 64.1 27.3 C 63.5 27.3 63 27.1 62.6 26.7 C 62.3 26.4 62.1 25.8 62.1 25.2 C 62.1 24.5 62.3 23.9 62.7 23.5 C 63 23.2 63.5 23 64.1 23 C 64.6 23 65.1 23.2 65.4 23.5 C 65.8 23.9 65.9 24.4 65.9 25.1 C 65.9 25.2 65.9 25.2 65.9 25.3 C 65.9 25.3 62.8 25.3 62.8 25.3 C 62.9 25.8 63 26.1 63.2 26.4 C 63.5 26.6 63.7 26.7 64.1 26.7 C 64.4 26.7 64.6 26.7 64.8 26.5 C 64.9 26.4 65.1 26.2 65.2 25.9 Z M 62.9 24.7 C 62.9 24.7 65.2 24.7 65.2 24.7 C 65.2 24.4 65.1 24.1 64.9 23.9 C 64.7 23.7 64.4 23.5 64.1 23.5 C 63.7 23.5 63.5 23.6 63.2 23.9 C 63 24.1 62.9 24.4 62.9 24.7 Z M 66.8 27.2 L 66.8 23.1 L 67.4 23.1 C 67.4 23.1 67.42 23.69 67.4 23.7 C 67.6 23.4 67.7 23.2 67.9 23.1 C 68 23 68.2 23 68.3 23 C 68.6 23 68.8 23 69 23.2 C 69 23.2 68.8 23.8 68.8 23.8 C 68.6 23.7 68.5 23.7 68.3 23.7 C 68.1 23.7 68 23.7 67.9 23.8 C 67.7 23.9 67.7 24 67.6 24.2 C 67.5 24.5 67.5 24.7 67.5 25 C 67.49 25.03 67.5 27.2 67.5 27.2 L 66.8 27.2 Z M 69.2 26 C 69.2 26 69.9 25.9 69.9 25.9 C 69.9 26.1 70 26.4 70.2 26.5 C 70.4 26.6 70.6 26.7 70.9 26.7 C 71.3 26.7 71.5 26.7 71.7 26.5 C 71.8 26.4 71.9 26.2 71.9 26.1 C 71.9 25.9 71.8 25.8 71.7 25.7 C 71.6 25.6 71.4 25.5 71 25.4 C 70.5 25.3 70.1 25.2 69.9 25.1 C 69.7 25 69.6 24.9 69.5 24.7 C 69.3 24.5 69.3 24.4 69.3 24.2 C 69.3 24 69.3 23.8 69.4 23.6 C 69.5 23.5 69.6 23.4 69.8 23.3 C 69.9 23.2 70 23.1 70.2 23 C 70.4 23 70.6 23 70.8 23 C 71.1 23 71.4 23 71.7 23.1 C 71.9 23.2 72.1 23.3 72.2 23.5 C 72.3 23.6 72.4 23.9 72.5 24.1 C 72.5 24.1 71.8 24.2 71.8 24.2 C 71.8 24 71.7 23.8 71.5 23.7 C 71.4 23.6 71.1 23.5 70.9 23.5 C 70.6 23.5 70.3 23.6 70.2 23.7 C 70 23.8 70 23.9 70 24.1 C 70 24.2 70 24.3 70.1 24.3 C 70.1 24.4 70.2 24.5 70.3 24.5 C 70.4 24.5 70.6 24.6 71 24.7 C 71.5 24.8 71.8 24.9 72 25 C 72.2 25.1 72.3 25.2 72.5 25.4 C 72.6 25.5 72.6 25.7 72.6 26 C 72.6 26.2 72.6 26.4 72.4 26.6 C 72.3 26.9 72.1 27 71.8 27.1 C 71.6 27.2 71.3 27.3 71 27.3 C 70.4 27.3 70 27.2 69.7 27 C 69.4 26.7 69.3 26.4 69.2 26 Z M 74.7 26.6 C 74.8 26.6 74.9 26.6 75 26.6 C 75 26.6 75.1 27.2 75.1 27.2 C 74.9 27.2 74.7 27.3 74.6 27.3 C 74.3 27.3 74.1 27.2 74 27.1 C 73.8 27.1 73.7 27 73.7 26.8 C 73.6 26.7 73.6 26.4 73.6 26 C 73.59 25.99 73.6 23.6 73.6 23.6 L 73.1 23.6 L 73.1 23.1 L 73.6 23.1 L 73.6 22 L 74.3 21.6 L 74.3 23.1 L 75 23.1 L 75 23.6 L 74.3 23.6 C 74.3 23.6 74.29 26.03 74.3 26 C 74.3 26.2 74.3 26.4 74.3 26.4 C 74.4 26.5 74.4 26.5 74.4 26.6 C 74.5 26.6 74.6 26.6 74.7 26.6 C 74.7 26.6 74.7 26.6 74.7 26.6 Z M 78.5 27.2 C 78.5 27.1 78.4 26.9 78.4 26.7 C 78.1 26.9 77.9 27.1 77.6 27.2 C 77.4 27.3 77.1 27.3 76.9 27.3 C 76.4 27.3 76.1 27.2 75.8 27 C 75.6 26.7 75.4 26.5 75.4 26.1 C 75.4 25.9 75.5 25.7 75.6 25.6 C 75.7 25.4 75.8 25.3 75.9 25.2 C 76.1 25 76.3 25 76.5 24.9 C 76.6 24.9 76.8 24.8 77.1 24.8 C 77.6 24.7 78.1 24.7 78.3 24.6 C 78.3 24.5 78.3 24.4 78.3 24.4 C 78.3 24.1 78.3 23.9 78.1 23.8 C 78 23.6 77.7 23.5 77.3 23.5 C 77 23.5 76.8 23.6 76.6 23.7 C 76.4 23.8 76.3 24 76.3 24.3 C 76.3 24.3 75.6 24.2 75.6 24.2 C 75.6 23.9 75.7 23.7 75.9 23.5 C 76 23.3 76.2 23.2 76.5 23.1 C 76.8 23 77.1 23 77.4 23 C 77.8 23 78.1 23 78.3 23.1 C 78.5 23.2 78.7 23.3 78.8 23.4 C 78.9 23.5 79 23.7 79 23.9 C 79 24 79 24.2 79 24.5 C 79 24.5 79 25.5 79 25.5 C 79 26.1 79.1 26.5 79.1 26.7 C 79.1 26.9 79.2 27 79.3 27.2 C 79.27 27.21 78.5 27.2 78.5 27.2 C 78.5 27.2 78.53 27.21 78.5 27.2 Z M 78.3 25.1 C 78.1 25.2 77.7 25.3 77.2 25.4 C 76.9 25.4 76.7 25.5 76.6 25.5 C 76.5 25.6 76.4 25.7 76.3 25.8 C 76.2 25.9 76.2 26 76.2 26.1 C 76.2 26.3 76.3 26.4 76.4 26.6 C 76.6 26.7 76.8 26.7 77 26.7 C 77.3 26.7 77.5 26.7 77.8 26.6 C 78 26.5 78.1 26.3 78.2 26.1 C 78.3 25.9 78.3 25.7 78.3 25.4 C 78.3 25.4 78.3 25.1 78.3 25.1 Z M 80.1 27.2 L 80.1 23.1 L 80.8 23.1 C 80.8 23.1 80.77 23.65 80.8 23.6 C 81.1 23.2 81.5 23 82.1 23 C 82.3 23 82.6 23 82.8 23.1 C 83 23.2 83.1 23.3 83.2 23.5 C 83.4 23.6 83.4 23.8 83.5 24 C 83.5 24.1 83.5 24.3 83.5 24.7 C 83.5 24.66 83.5 27.2 83.5 27.2 L 82.8 27.2 C 82.8 27.2 82.8 24.68 82.8 24.7 C 82.8 24.4 82.8 24.2 82.7 24 C 82.7 23.9 82.6 23.8 82.4 23.7 C 82.3 23.6 82.1 23.6 81.9 23.6 C 81.6 23.6 81.4 23.7 81.2 23.9 C 80.9 24 80.8 24.4 80.8 24.9 C 80.84 24.94 80.8 27.2 80.8 27.2 L 80.1 27.2 Z M 87.3 27.2 C 87.3 27.2 87.27 26.68 87.3 26.7 C 87 27.1 86.6 27.3 86.1 27.3 C 85.8 27.3 85.5 27.2 85.2 27 C 84.9 26.8 84.7 26.6 84.6 26.3 C 84.4 25.9 84.3 25.6 84.3 25.1 C 84.3 24.7 84.4 24.3 84.5 24 C 84.7 23.7 84.9 23.4 85.2 23.2 C 85.4 23.1 85.7 23 86.1 23 C 86.3 23 86.6 23 86.8 23.1 C 86.9 23.2 87.1 23.4 87.2 23.5 C 87.23 23.53 87.2 21.5 87.2 21.5 L 87.9 21.5 L 87.9 27.2 L 87.3 27.2 Z M 85.1 25.1 C 85.1 25.7 85.2 26.1 85.4 26.3 C 85.6 26.6 85.9 26.7 86.2 26.7 C 86.5 26.7 86.7 26.6 87 26.3 C 87.2 26.1 87.3 25.7 87.3 25.2 C 87.3 24.6 87.2 24.2 87 23.9 C 86.7 23.7 86.5 23.5 86.1 23.5 C 85.8 23.5 85.6 23.7 85.4 23.9 C 85.2 24.2 85.1 24.6 85.1 25.1 Z M 89 22.3 L 89 21.5 L 89.7 21.5 L 89.7 22.3 L 89 22.3 Z M 89 27.2 L 89 23.1 L 89.7 23.1 L 89.7 27.2 L 89 27.2 Z M 90.8 27.2 L 90.8 23.1 L 91.4 23.1 C 91.4 23.1 91.44 23.65 91.4 23.6 C 91.7 23.2 92.2 23 92.8 23 C 93 23 93.2 23 93.5 23.1 C 93.7 23.2 93.8 23.3 93.9 23.5 C 94 23.6 94.1 23.8 94.1 24 C 94.2 24.1 94.2 24.3 94.2 24.7 C 94.18 24.66 94.2 27.2 94.2 27.2 L 93.5 27.2 C 93.5 27.2 93.48 24.68 93.5 24.7 C 93.5 24.4 93.4 24.2 93.4 24 C 93.3 23.9 93.2 23.8 93.1 23.7 C 93 23.6 92.8 23.6 92.6 23.6 C 92.3 23.6 92.1 23.7 91.8 23.9 C 91.6 24 91.5 24.4 91.5 24.9 C 91.51 24.94 91.5 27.2 91.5 27.2 L 90.8 27.2 Z M 95.1 27.5 C 95.1 27.5 95.8 27.7 95.8 27.7 C 95.8 27.9 95.9 28 96.1 28.1 C 96.2 28.2 96.5 28.3 96.8 28.3 C 97.1 28.3 97.3 28.2 97.5 28.1 C 97.7 28 97.8 27.8 97.9 27.6 C 97.9 27.4 97.9 27.1 97.9 26.7 C 97.6 27 97.2 27.2 96.8 27.2 C 96.2 27.2 95.8 27 95.5 26.6 C 95.1 26.2 95 25.7 95 25.1 C 95 24.7 95.1 24.3 95.2 24 C 95.3 23.7 95.6 23.4 95.8 23.2 C 96.1 23.1 96.4 23 96.8 23 C 97.3 23 97.7 23.2 98 23.6 C 98 23.56 98 23.1 98 23.1 L 98.6 23.1 C 98.6 23.1 98.64 26.64 98.6 26.6 C 98.6 27.3 98.6 27.7 98.4 28 C 98.3 28.3 98.1 28.5 97.8 28.7 C 97.5 28.8 97.2 28.9 96.8 28.9 C 96.3 28.9 95.9 28.8 95.6 28.6 C 95.3 28.3 95.1 28 95.1 27.5 Z M 95.7 25.1 C 95.7 25.6 95.8 26 96 26.2 C 96.3 26.5 96.5 26.6 96.8 26.6 C 97.2 26.6 97.4 26.5 97.7 26.3 C 97.9 26 98 25.6 98 25.1 C 98 24.6 97.9 24.2 97.7 23.9 C 97.4 23.7 97.2 23.5 96.8 23.5 C 96.5 23.5 96.3 23.7 96 23.9 C 95.8 24.2 95.7 24.6 95.7 25.1 Z M 101.7 25.1 C 101.7 24.4 101.9 23.8 102.3 23.4 C 102.7 23.1 103.1 23 103.6 23 C 104.2 23 104.6 23.2 105 23.5 C 105.4 23.9 105.6 24.4 105.6 25.1 C 105.6 25.6 105.5 26 105.3 26.3 C 105.2 26.6 104.9 26.9 104.6 27 C 104.3 27.2 104 27.3 103.6 27.3 C 103 27.3 102.6 27.1 102.2 26.7 C 101.8 26.4 101.7 25.8 101.7 25.1 Z M 102.4 25.1 C 102.4 25.7 102.5 26.1 102.7 26.3 C 103 26.6 103.3 26.7 103.6 26.7 C 104 26.7 104.3 26.6 104.5 26.3 C 104.7 26.1 104.8 25.7 104.8 25.1 C 104.8 24.6 104.7 24.2 104.5 23.9 C 104.2 23.7 104 23.5 103.6 23.5 C 103.3 23.5 103 23.7 102.7 23.9 C 102.5 24.2 102.4 24.6 102.4 25.1 Z M 106.4 27.2 L 106.4 23.1 L 107 23.1 C 107 23.1 107.01 23.65 107 23.6 C 107.3 23.2 107.8 23 108.3 23 C 108.6 23 108.8 23 109 23.1 C 109.2 23.2 109.4 23.3 109.5 23.5 C 109.6 23.6 109.7 23.8 109.7 24 C 109.7 24.1 109.8 24.3 109.8 24.7 C 109.75 24.66 109.8 27.2 109.8 27.2 L 109 27.2 C 109 27.2 109.05 24.68 109 24.7 C 109 24.4 109 24.2 109 24 C 108.9 23.9 108.8 23.8 108.7 23.7 C 108.5 23.6 108.4 23.6 108.2 23.6 C 107.9 23.6 107.6 23.7 107.4 23.9 C 107.2 24 107.1 24.4 107.1 24.9 C 107.08 24.94 107.1 27.2 107.1 27.2 L 106.4 27.2 Z M 113.8 27.2 L 112.5 23.1 L 113.3 23.1 L 113.9 25.5 C 113.9 25.5 114.18 26.34 114.2 26.3 C 114.2 26.3 114.3 26 114.4 25.5 C 114.39 25.49 115.1 23.1 115.1 23.1 L 115.8 23.1 L 116.4 25.5 L 116.6 26.3 L 116.8 25.5 L 117.6 23.1 L 118.2 23.1 L 116.9 27.2 L 116.2 27.2 L 115.6 24.7 L 115.4 24 L 114.6 27.2 L 113.8 27.2 Z M 118.8 27.2 L 118.8 21.5 L 119.5 21.5 C 119.5 21.5 119.53 23.53 119.5 23.5 C 119.9 23.2 120.3 23 120.8 23 C 121.1 23 121.3 23 121.6 23.1 C 121.8 23.3 122 23.4 122.1 23.6 C 122.2 23.9 122.2 24.2 122.2 24.6 C 122.21 24.58 122.2 27.2 122.2 27.2 L 121.5 27.2 C 121.5 27.2 121.5 24.58 121.5 24.6 C 121.5 24.2 121.4 24 121.3 23.8 C 121.1 23.6 120.9 23.6 120.6 23.6 C 120.4 23.6 120.2 23.6 120 23.7 C 119.9 23.8 119.7 24 119.6 24.2 C 119.6 24.4 119.5 24.6 119.5 24.9 C 119.53 24.94 119.5 27.2 119.5 27.2 L 118.8 27.2 Z M 126.1 27.2 C 126.1 27.1 126 26.9 126 26.7 C 125.7 26.9 125.5 27.1 125.2 27.2 C 125 27.3 124.7 27.3 124.5 27.3 C 124 27.3 123.7 27.2 123.4 27 C 123.2 26.7 123 26.5 123 26.1 C 123 25.9 123.1 25.7 123.2 25.6 C 123.3 25.4 123.4 25.3 123.5 25.2 C 123.7 25 123.9 25 124 24.9 C 124.2 24.9 124.4 24.8 124.7 24.8 C 125.2 24.7 125.7 24.7 125.9 24.6 C 125.9 24.5 125.9 24.4 125.9 24.4 C 125.9 24.1 125.9 23.9 125.7 23.8 C 125.6 23.6 125.3 23.5 124.9 23.5 C 124.6 23.5 124.4 23.6 124.2 23.7 C 124 23.8 123.9 24 123.8 24.3 C 123.8 24.3 123.2 24.2 123.2 24.2 C 123.2 23.9 123.3 23.7 123.5 23.5 C 123.6 23.3 123.8 23.2 124.1 23.1 C 124.4 23 124.7 23 125 23 C 125.4 23 125.7 23 125.9 23.1 C 126.1 23.2 126.3 23.3 126.4 23.4 C 126.5 23.5 126.6 23.7 126.6 23.9 C 126.6 24 126.6 24.2 126.6 24.5 C 126.6 24.5 126.6 25.5 126.6 25.5 C 126.6 26.1 126.7 26.5 126.7 26.7 C 126.7 26.9 126.8 27 126.9 27.2 C 126.86 27.21 126.1 27.2 126.1 27.2 C 126.1 27.2 126.13 27.21 126.1 27.2 Z M 125.9 25.1 C 125.7 25.2 125.3 25.3 124.8 25.4 C 124.5 25.4 124.3 25.5 124.2 25.5 C 124 25.6 124 25.7 123.9 25.8 C 123.8 25.9 123.8 26 123.8 26.1 C 123.8 26.3 123.9 26.4 124 26.6 C 124.1 26.7 124.4 26.7 124.6 26.7 C 124.9 26.7 125.1 26.7 125.3 26.6 C 125.6 26.5 125.7 26.3 125.8 26.1 C 125.9 25.9 125.9 25.7 125.9 25.4 C 125.9 25.4 125.9 25.1 125.9 25.1 Z M 129 26.6 C 129 26.6 129.1 26.6 129.3 26.6 C 129.3 26.6 129.4 27.2 129.4 27.2 C 129.2 27.2 129 27.3 128.8 27.3 C 128.6 27.3 128.4 27.2 128.2 27.1 C 128.1 27.1 128 27 127.9 26.8 C 127.9 26.7 127.9 26.4 127.9 26 C 127.86 25.99 127.9 23.6 127.9 23.6 L 127.3 23.6 L 127.3 23.1 L 127.9 23.1 L 127.9 22 L 128.6 21.6 L 128.6 23.1 L 129.3 23.1 L 129.3 23.6 L 128.6 23.6 C 128.6 23.6 128.55 26.03 128.6 26 C 128.6 26.2 128.6 26.4 128.6 26.4 C 128.6 26.5 128.7 26.5 128.7 26.6 C 128.8 26.6 128.8 26.6 129 26.6 C 129 26.6 129 26.6 129 26.6 Z M 132.9 27.2 L 131.7 23.1 L 132.4 23.1 L 133.1 25.5 C 133.1 25.5 133.3 26.34 133.3 26.3 C 133.3 26.3 133.4 26 133.5 25.5 C 133.52 25.49 134.2 23.1 134.2 23.1 L 134.9 23.1 L 135.5 25.5 L 135.7 26.3 L 136 25.5 L 136.7 23.1 L 137.4 23.1 L 136.1 27.2 L 135.3 27.2 L 134.7 24.7 L 134.5 24 L 133.7 27.2 L 132.9 27.2 Z M 140.8 25.9 C 140.8 25.9 141.5 26 141.5 26 C 141.4 26.4 141.2 26.7 140.9 26.9 C 140.6 27.2 140.2 27.3 139.7 27.3 C 139.1 27.3 138.6 27.1 138.2 26.7 C 137.9 26.4 137.7 25.8 137.7 25.2 C 137.7 24.5 137.9 23.9 138.3 23.5 C 138.6 23.2 139.1 23 139.7 23 C 140.2 23 140.7 23.2 141 23.5 C 141.4 23.9 141.5 24.4 141.5 25.1 C 141.5 25.2 141.5 25.2 141.5 25.3 C 141.5 25.3 138.4 25.3 138.4 25.3 C 138.5 25.8 138.6 26.1 138.8 26.4 C 139.1 26.6 139.3 26.7 139.7 26.7 C 140 26.7 140.2 26.7 140.4 26.5 C 140.5 26.4 140.7 26.2 140.8 25.9 Z M 138.5 24.7 C 138.5 24.7 140.8 24.7 140.8 24.7 C 140.8 24.4 140.7 24.1 140.5 23.9 C 140.3 23.7 140 23.5 139.7 23.5 C 139.3 23.5 139.1 23.6 138.8 23.9 C 138.6 24.1 138.5 24.4 138.5 24.7 Z M 147.3 25.7 C 147.3 25.7 148 25.8 148 25.8 C 147.9 26.3 147.8 26.6 147.4 26.9 C 147.1 27.2 146.7 27.3 146.3 27.3 C 145.7 27.3 145.3 27.1 144.9 26.7 C 144.6 26.4 144.4 25.8 144.4 25.1 C 144.4 24.7 144.5 24.3 144.6 24 C 144.8 23.6 145 23.4 145.3 23.2 C 145.6 23 145.9 23 146.3 23 C 146.7 23 147.1 23.1 147.4 23.3 C 147.7 23.5 147.9 23.9 148 24.3 C 148 24.3 147.3 24.4 147.3 24.4 C 147.2 24.1 147.1 23.9 146.9 23.8 C 146.8 23.6 146.6 23.5 146.3 23.5 C 146 23.5 145.7 23.7 145.5 23.9 C 145.2 24.2 145.1 24.6 145.1 25.1 C 145.1 25.7 145.2 26.1 145.4 26.3 C 145.7 26.6 145.9 26.7 146.3 26.7 C 146.6 26.7 146.8 26.6 147 26.5 C 147.2 26.3 147.3 26 147.3 25.7 Z M 151.5 27.2 C 151.4 27.1 151.3 26.9 151.3 26.7 C 151.1 26.9 150.8 27.1 150.6 27.2 C 150.3 27.3 150.1 27.3 149.8 27.3 C 149.3 27.3 149 27.2 148.8 27 C 148.5 26.7 148.4 26.5 148.4 26.1 C 148.4 25.9 148.4 25.7 148.5 25.6 C 148.6 25.4 148.7 25.3 148.9 25.2 C 149 25 149.2 25 149.4 24.9 C 149.5 24.9 149.7 24.8 150 24.8 C 150.6 24.7 151 24.7 151.3 24.6 C 151.3 24.5 151.3 24.4 151.3 24.4 C 151.3 24.1 151.2 23.9 151.1 23.8 C 150.9 23.6 150.6 23.5 150.3 23.5 C 149.9 23.5 149.7 23.6 149.5 23.7 C 149.4 23.8 149.3 24 149.2 24.3 C 149.2 24.3 148.5 24.2 148.5 24.2 C 148.6 23.9 148.7 23.7 148.8 23.5 C 149 23.3 149.2 23.2 149.4 23.1 C 149.7 23 150 23 150.4 23 C 150.7 23 151 23 151.2 23.1 C 151.5 23.2 151.6 23.3 151.7 23.4 C 151.8 23.5 151.9 23.7 151.9 23.9 C 152 24 152 24.2 152 24.5 C 152 24.5 152 25.5 152 25.5 C 152 26.1 152 26.5 152 26.7 C 152.1 26.9 152.1 27 152.2 27.2 C 152.2 27.21 151.5 27.2 151.5 27.2 C 151.5 27.2 151.47 27.21 151.5 27.2 Z M 151.3 25.1 C 151 25.2 150.6 25.3 150.1 25.4 C 149.8 25.4 149.6 25.5 149.5 25.5 C 149.4 25.6 149.3 25.7 149.2 25.8 C 149.2 25.9 149.1 26 149.1 26.1 C 149.1 26.3 149.2 26.4 149.3 26.6 C 149.5 26.7 149.7 26.7 150 26.7 C 150.2 26.7 150.5 26.7 150.7 26.6 C 150.9 26.5 151.1 26.3 151.2 26.1 C 151.2 25.9 151.3 25.7 151.3 25.4 C 151.3 25.4 151.3 25.1 151.3 25.1 Z M 153.1 27.2 L 153.1 23.1 L 153.7 23.1 C 153.7 23.1 153.7 23.65 153.7 23.6 C 154 23.2 154.4 23 155 23 C 155.3 23 155.5 23 155.7 23.1 C 155.9 23.2 156.1 23.3 156.2 23.5 C 156.3 23.6 156.4 23.8 156.4 24 C 156.4 24.1 156.4 24.3 156.4 24.7 C 156.44 24.66 156.4 27.2 156.4 27.2 L 155.7 27.2 C 155.7 27.2 155.74 24.68 155.7 24.7 C 155.7 24.4 155.7 24.2 155.7 24 C 155.6 23.9 155.5 23.8 155.4 23.7 C 155.2 23.6 155.1 23.6 154.9 23.6 C 154.6 23.6 154.3 23.7 154.1 23.9 C 153.9 24 153.8 24.4 153.8 24.9 C 153.77 24.94 153.8 27.2 153.8 27.2 L 153.1 27.2 Z M 162.4 27.2 C 162.4 27.2 162.43 26.68 162.4 26.7 C 162.2 27.1 161.8 27.3 161.3 27.3 C 160.9 27.3 160.6 27.2 160.4 27 C 160.1 26.8 159.9 26.6 159.7 26.3 C 159.6 25.9 159.5 25.6 159.5 25.1 C 159.5 24.7 159.6 24.3 159.7 24 C 159.8 23.7 160 23.4 160.3 23.2 C 160.6 23.1 160.9 23 161.2 23 C 161.5 23 161.7 23 161.9 23.1 C 162.1 23.2 162.3 23.4 162.4 23.5 C 162.39 23.53 162.4 21.5 162.4 21.5 L 163.1 21.5 L 163.1 27.2 L 162.4 27.2 Z M 160.2 25.1 C 160.2 25.7 160.3 26.1 160.5 26.3 C 160.8 26.6 161 26.7 161.3 26.7 C 161.6 26.7 161.9 26.6 162.1 26.3 C 162.3 26.1 162.4 25.7 162.4 25.2 C 162.4 24.6 162.3 24.2 162.1 23.9 C 161.9 23.7 161.6 23.5 161.3 23.5 C 161 23.5 160.7 23.7 160.5 23.9 C 160.3 24.2 160.2 24.6 160.2 25.1 Z M 163.9 25.1 C 163.9 24.4 164.1 23.8 164.6 23.4 C 164.9 23.1 165.4 23 165.9 23 C 166.4 23 166.9 23.2 167.3 23.5 C 167.6 23.9 167.8 24.4 167.8 25.1 C 167.8 25.6 167.7 26 167.6 26.3 C 167.4 26.6 167.2 26.9 166.9 27 C 166.6 27.2 166.2 27.3 165.9 27.3 C 165.3 27.3 164.8 27.1 164.5 26.7 C 164.1 26.4 163.9 25.8 163.9 25.1 Z M 164.7 25.1 C 164.7 25.7 164.8 26.1 165 26.3 C 165.2 26.6 165.5 26.7 165.9 26.7 C 166.2 26.7 166.5 26.6 166.7 26.3 C 167 26.1 167.1 25.7 167.1 25.1 C 167.1 24.6 167 24.2 166.7 23.9 C 166.5 23.7 166.2 23.5 165.9 23.5 C 165.5 23.5 165.2 23.7 165 23.9 C 164.8 24.2 164.7 24.6 164.7 25.1 Z M 171 27.2 L 171 23.6 L 170.4 23.6 L 170.4 23.1 L 171 23.1 C 171 23.1 171.03 22.62 171 22.6 C 171 22.3 171.1 22.1 171.1 22 C 171.2 21.8 171.3 21.7 171.5 21.6 C 171.6 21.4 171.9 21.4 172.2 21.4 C 172.4 21.4 172.6 21.4 172.8 21.5 C 172.8 21.5 172.7 22.1 172.7 22.1 C 172.6 22 172.4 22 172.3 22 C 172.1 22 172 22.1 171.9 22.2 C 171.8 22.3 171.7 22.4 171.7 22.7 C 171.73 22.67 171.7 23.1 171.7 23.1 L 172.5 23.1 L 172.5 23.6 L 171.7 23.6 L 171.7 27.2 L 171 27.2 Z M 172.8 25.1 C 172.8 24.4 173 23.8 173.5 23.4 C 173.8 23.1 174.3 23 174.8 23 C 175.3 23 175.8 23.2 176.2 23.5 C 176.5 23.9 176.7 24.4 176.7 25.1 C 176.7 25.6 176.6 26 176.5 26.3 C 176.3 26.6 176.1 26.9 175.8 27 C 175.5 27.2 175.1 27.3 174.8 27.3 C 174.2 27.3 173.7 27.1 173.4 26.7 C 173 26.4 172.8 25.8 172.8 25.1 Z M 173.5 25.1 C 173.5 25.7 173.7 26.1 173.9 26.3 C 174.1 26.6 174.4 26.7 174.8 26.7 C 175.1 26.7 175.4 26.6 175.6 26.3 C 175.9 26.1 176 25.7 176 25.1 C 176 24.6 175.9 24.2 175.6 23.9 C 175.4 23.7 175.1 23.5 174.8 23.5 C 174.4 23.5 174.1 23.7 173.9 23.9 C 173.7 24.2 173.5 24.6 173.5 25.1 Z M 177.5 27.2 L 177.5 23.1 L 178.2 23.1 C 178.2 23.1 178.16 23.69 178.2 23.7 C 178.3 23.4 178.5 23.2 178.6 23.1 C 178.7 23 178.9 23 179.1 23 C 179.3 23 179.5 23 179.8 23.2 C 179.8 23.2 179.5 23.8 179.5 23.8 C 179.4 23.7 179.2 23.7 179 23.7 C 178.9 23.7 178.7 23.7 178.6 23.8 C 178.5 23.9 178.4 24 178.3 24.2 C 178.3 24.5 178.2 24.7 178.2 25 C 178.23 25.03 178.2 27.2 178.2 27.2 L 177.5 27.2 Z M 182.8 28.9 C 182.7 28.9 182.6 28.9 182.4 28.8 C 182.4 28.8 182.3 28.1 182.3 28.1 C 182.5 28.2 182.6 28.2 182.7 28.2 C 182.9 28.2 183 28.2 183.1 28.1 C 183.2 28.1 183.3 28 183.3 27.9 C 183.4 27.8 183.4 27.7 183.5 27.4 C 183.5 27.3 183.6 27.3 183.6 27.2 C 183.6 27.21 182 23.1 182 23.1 L 182.8 23.1 C 182.8 23.1 183.64 25.46 183.6 25.5 C 183.8 25.8 183.9 26.1 183.9 26.4 C 184 26.1 184.1 25.8 184.2 25.5 C 184.23 25.48 185.1 23.1 185.1 23.1 L 185.8 23.1 C 185.8 23.1 184.25 27.28 184.2 27.3 C 184.1 27.7 183.9 28 183.9 28.2 C 183.7 28.4 183.6 28.6 183.4 28.7 C 183.3 28.8 183.1 28.9 182.8 28.9 C 182.8 28.9 182.8 28.9 182.8 28.9 Z M 186.2 25.1 C 186.2 24.4 186.4 23.8 186.8 23.4 C 187.2 23.1 187.6 23 188.1 23 C 188.7 23 189.1 23.2 189.5 23.5 C 189.9 23.9 190 24.4 190 25.1 C 190 25.6 190 26 189.8 26.3 C 189.6 26.6 189.4 26.9 189.1 27 C 188.8 27.2 188.5 27.3 188.1 27.3 C 187.5 27.3 187.1 27.1 186.7 26.7 C 186.3 26.4 186.2 25.8 186.2 25.1 Z M 186.9 25.1 C 186.9 25.7 187 26.1 187.2 26.3 C 187.5 26.6 187.8 26.7 188.1 26.7 C 188.5 26.7 188.7 26.6 189 26.3 C 189.2 26.1 189.3 25.7 189.3 25.1 C 189.3 24.6 189.2 24.2 189 23.9 C 188.7 23.7 188.5 23.5 188.1 23.5 C 187.8 23.5 187.5 23.7 187.2 23.9 C 187 24.2 186.9 24.6 186.9 25.1 Z M 193.6 27.2 C 193.6 27.2 193.59 26.6 193.6 26.6 C 193.3 27.1 192.8 27.3 192.3 27.3 C 192 27.3 191.8 27.3 191.6 27.2 C 191.4 27.1 191.2 26.9 191.1 26.8 C 191 26.7 190.9 26.5 190.9 26.3 C 190.9 26.1 190.9 25.9 190.9 25.6 C 190.86 25.63 190.9 23.1 190.9 23.1 L 191.6 23.1 C 191.6 23.1 191.56 25.36 191.6 25.4 C 191.6 25.7 191.6 26 191.6 26.1 C 191.6 26.3 191.7 26.4 191.9 26.5 C 192 26.6 192.2 26.7 192.4 26.7 C 192.6 26.7 192.8 26.6 193 26.5 C 193.2 26.4 193.3 26.3 193.4 26.1 C 193.5 25.9 193.5 25.6 193.5 25.3 C 193.52 25.28 193.5 23.1 193.5 23.1 L 194.2 23.1 L 194.2 27.2 L 193.6 27.2 Z M 195.5 27.2 L 195.5 26.4 L 196.3 26.4 L 196.3 27.2 L 195.5 27.2 Z " stroke="none" fill="#010102"/>  </g>  <g id="Polygon736">    <path d="M 7.7 2.6 C 7.7 2.6 7.7 3.5 7.7 3.5 C 6.8 3 5.9 2.8 4.9 2.8 C 2.8 2.8 1.5 4.3 1.5 6.1 C 1.5 8 2.8 9.5 4.9 9.5 C 5.9 9.5 6.9 9.2 7.7 8.6 C 7.7 8.6 7.7 9.6 7.7 9.6 C 6.8 10.1 5.9 10.3 4.9 10.3 C 2 10.3 0.6 8.2 0.6 6.1 C 0.6 3.7 2.4 1.9 4.9 1.9 C 5.8 1.9 6.8 2.1 7.7 2.6 Z M 12.6 2 L 16.3 10.2 L 15.3 10.2 L 14.2 7.6 L 10.5 7.6 L 9.4 10.2 L 8.4 10.2 L 12 2 L 12.6 2 Z M 10.8 6.8 L 13.8 6.8 L 12.3 3.4 L 10.8 6.8 Z M 21.2 2.4 C 21.2 2.4 21.2 3.5 21.2 3.5 C 20.6 3 20 2.7 19.3 2.7 C 18.5 2.7 17.9 3.2 17.9 3.9 C 17.9 4.5 18 4.9 19.4 5.6 C 21.1 6.5 21.5 7.1 21.5 8.2 C 21.5 9.4 20.6 10.3 19.2 10.3 C 18.4 10.3 17.7 10.1 17 9.6 C 17 9.6 17 8.5 17 8.5 C 17.7 9.1 18.4 9.5 19.2 9.5 C 20 9.5 20.6 9 20.6 8.2 C 20.6 7.5 20.4 7.1 18.8 6.3 C 17.5 5.6 17 5 17 3.9 C 17 2.8 18 1.9 19.4 1.9 C 20 1.9 20.6 2.1 21.2 2.4 Z M 27.4 2 L 27.4 2.8 L 23.8 2.8 L 23.8 5.7 L 27.3 5.7 L 27.3 6.5 L 23.8 6.5 L 23.8 9.4 L 27.5 9.4 L 27.5 10.2 L 22.9 10.2 L 22.9 2 L 27.4 2 Z M 36.1 2.4 C 36.1 2.4 36.1 3.5 36.1 3.5 C 35.5 3 34.9 2.7 34.2 2.7 C 33.3 2.7 32.8 3.2 32.8 3.9 C 32.8 4.5 32.9 4.9 34.3 5.6 C 36 6.5 36.4 7.1 36.4 8.2 C 36.4 9.4 35.4 10.3 34 10.3 C 33.3 10.3 32.5 10.1 31.9 9.6 C 31.9 9.6 31.9 8.5 31.9 8.5 C 32.5 9.1 33.2 9.5 34 9.5 C 34.9 9.5 35.5 9 35.5 8.2 C 35.5 7.5 35.2 7.1 33.6 6.3 C 32.4 5.6 31.9 5 31.9 3.9 C 31.9 2.8 32.9 1.9 34.2 1.9 C 34.9 1.9 35.5 2.1 36.1 2.4 Z M 43.8 2 L 43.8 2.8 L 40.8 2.8 L 40.8 10.2 L 39.9 10.2 L 39.9 2.8 L 37 2.8 L 37 2 L 43.8 2 Z M 45.6 2 C 45.6 2 45.65 6.74 45.6 6.7 C 45.6 8.5 46.5 9.5 48.2 9.5 C 49.9 9.5 50.7 8.5 50.7 6.7 C 50.71 6.74 50.7 2 50.7 2 L 51.6 2 C 51.6 2 51.61 6.74 51.6 6.7 C 51.6 8.9 50.5 10.3 48.2 10.3 C 45.9 10.3 44.7 9 44.7 6.7 C 44.75 6.74 44.7 2 44.7 2 L 45.6 2 Z M 53.4 2 C 53.4 2 56.36 2.02 56.4 2 C 59 2 60.8 3.7 60.8 6 C 60.8 8.6 59 10.2 56.4 10.2 C 56.36 10.21 53.4 10.2 53.4 10.2 L 53.4 2 Z M 56.4 9.4 C 58.5 9.4 59.8 8.1 59.8 6.1 C 59.8 4.1 58.5 2.8 56.2 2.8 C 56.22 2.83 54.3 2.8 54.3 2.8 L 54.3 9.4 C 54.3 9.4 56.35 9.39 56.4 9.4 Z M 63.2 2 L 63.2 10.2 L 62.3 10.2 L 62.3 2 L 63.2 2 Z M 69.5 2 L 69.5 2.8 L 65.9 2.8 L 65.9 5.7 L 69.4 5.7 L 69.4 6.5 L 65.9 6.5 L 65.9 9.4 L 69.6 9.4 L 69.6 10.2 L 65 10.2 L 65 2 L 69.5 2 Z M 74.8 2.4 C 74.8 2.4 74.8 3.5 74.8 3.5 C 74.3 3 73.6 2.7 73 2.7 C 72.1 2.7 71.5 3.2 71.5 3.9 C 71.5 4.5 71.7 4.9 73 5.6 C 74.7 6.5 75.1 7.1 75.1 8.2 C 75.1 9.4 74.2 10.3 72.8 10.3 C 72 10.3 71.3 10.1 70.7 9.6 C 70.7 9.6 70.7 8.5 70.7 8.5 C 71.3 9.1 72 9.5 72.8 9.5 C 73.6 9.5 74.2 9 74.2 8.2 C 74.2 7.5 74 7.1 72.4 6.3 C 71.1 5.6 70.6 5 70.6 3.9 C 70.6 2.8 71.6 1.9 73 1.9 C 73.6 1.9 74.3 2.1 74.8 2.4 Z " stroke="none" fill="#010102"/>  </g></svg>