<?xml version="1.0" standalone="no"?><!DOCTYPE svg PUBLIC "-//W3C//DTD SVG 1.1//EN" "http://www.w3.org/Graphics/SVG/1.1/DTD/svg11.dtd"><svg xmlns="http://www.w3.org/2000/svg" version="1.1" width="55px" height="34.5px" viewBox="0 -4 55 34.5" style="top:-4px">  <desc>Client Feedback</desc>  <defs/>  <g id="Polygon2735">    <path d="M 2 23.1 L 2 14.5 L 7.7 14.5 L 7.7 15.6 L 3.1 15.6 L 3.1 18.2 L 7.1 18.2 L 7.1 19.2 L 3.1 19.2 L 3.1 23.1 L 2 23.1 Z M 13.3 21.1 C 13.3 21.1 14.4 21.3 14.4 21.3 C 14.3 21.9 13.9 22.4 13.5 22.7 C 13 23.1 12.4 23.3 11.7 23.3 C 10.8 23.3 10.1 23 9.5 22.4 C 9 21.9 8.7 21.1 8.7 20.1 C 8.7 19 9 18.2 9.5 17.6 C 10.1 17.1 10.8 16.8 11.6 16.8 C 12.5 16.8 13.2 17.1 13.7 17.6 C 14.2 18.2 14.5 19 14.5 20 C 14.5 20.1 14.5 20.2 14.5 20.3 C 14.5 20.3 9.8 20.3 9.8 20.3 C 9.9 21 10.1 21.5 10.4 21.9 C 10.8 22.2 11.2 22.4 11.7 22.4 C 12.1 22.4 12.4 22.3 12.7 22.1 C 13 21.9 13.2 21.6 13.3 21.1 Z M 9.9 19.4 C 9.9 19.4 13.4 19.4 13.4 19.4 C 13.3 18.9 13.2 18.5 13 18.2 C 12.6 17.8 12.2 17.6 11.7 17.6 C 11.2 17.6 10.8 17.8 10.4 18.1 C 10.1 18.5 9.9 18.9 9.9 19.4 Z M 20 21.1 C 20 21.1 21.1 21.3 21.1 21.3 C 20.9 21.9 20.6 22.4 20.2 22.7 C 19.7 23.1 19.1 23.3 18.4 23.3 C 17.5 23.3 16.7 23 16.2 22.4 C 15.7 21.9 15.4 21.1 15.4 20.1 C 15.4 19 15.7 18.2 16.2 17.6 C 16.8 17.1 17.5 16.8 18.3 16.8 C 19.1 16.8 19.8 17.1 20.4 17.6 C 20.9 18.2 21.1 19 21.1 20 C 21.1 20.1 21.1 20.2 21.1 20.3 C 21.1 20.3 16.5 20.3 16.5 20.3 C 16.5 21 16.7 21.5 17.1 21.9 C 17.4 22.2 17.9 22.4 18.4 22.4 C 18.8 22.4 19.1 22.3 19.4 22.1 C 19.6 21.9 19.9 21.6 20 21.1 Z M 16.6 19.4 C 16.6 19.4 20 19.4 20 19.4 C 20 18.9 19.9 18.5 19.6 18.2 C 19.3 17.8 18.9 17.6 18.3 17.6 C 17.8 17.6 17.4 17.8 17.1 18.1 C 16.8 18.5 16.6 18.9 16.6 19.4 Z M 26.5 23.1 C 26.5 23.1 26.47 22.35 26.5 22.4 C 26.1 23 25.5 23.3 24.7 23.3 C 24.2 23.3 23.8 23.1 23.4 22.9 C 22.9 22.6 22.6 22.2 22.4 21.7 C 22.2 21.2 22.1 20.7 22.1 20 C 22.1 19.4 22.2 18.8 22.4 18.3 C 22.6 17.8 22.9 17.4 23.3 17.2 C 23.7 16.9 24.2 16.8 24.7 16.8 C 25.1 16.8 25.4 16.9 25.7 17 C 26 17.2 26.2 17.4 26.4 17.6 C 26.4 17.63 26.4 14.5 26.4 14.5 L 27.5 14.5 L 27.5 23.1 L 26.5 23.1 Z M 23.1 20 C 23.1 20.8 23.3 21.4 23.6 21.8 C 24 22.2 24.4 22.4 24.8 22.4 C 25.3 22.4 25.7 22.2 26 21.8 C 26.3 21.5 26.5 20.9 26.5 20.1 C 26.5 19.3 26.3 18.6 26 18.2 C 25.7 17.8 25.3 17.6 24.8 17.6 C 24.3 17.6 23.9 17.8 23.6 18.2 C 23.3 18.6 23.1 19.2 23.1 20 Z M 30.1 23.1 L 29.1 23.1 L 29.1 14.5 L 30.2 14.5 C 30.2 14.5 30.16 17.61 30.2 17.6 C 30.6 17.1 31.2 16.8 31.9 16.8 C 32.2 16.8 32.6 16.9 33 17 C 33.3 17.2 33.6 17.4 33.8 17.7 C 34 17.9 34.2 18.3 34.3 18.7 C 34.4 19.1 34.5 19.5 34.5 19.9 C 34.5 21 34.2 21.8 33.7 22.4 C 33.2 23 32.5 23.3 31.8 23.3 C 31.1 23.3 30.5 23 30.1 22.4 C 30.08 22.36 30.1 23.1 30.1 23.1 Z M 30.1 20 C 30.1 20.7 30.2 21.3 30.4 21.6 C 30.7 22.1 31.2 22.4 31.7 22.4 C 32.2 22.4 32.6 22.2 32.9 21.8 C 33.3 21.4 33.4 20.8 33.4 20 C 33.4 19.2 33.3 18.6 32.9 18.2 C 32.6 17.8 32.2 17.6 31.8 17.6 C 31.3 17.6 30.9 17.8 30.6 18.2 C 30.2 18.6 30.1 19.2 30.1 20 Z M 40.1 23.1 C 39.9 22.9 39.9 22.7 39.8 22.4 C 39.5 22.7 39.1 22.9 38.7 23.1 C 38.4 23.2 38 23.3 37.6 23.3 C 36.9 23.3 36.3 23.1 36 22.8 C 35.6 22.4 35.4 22 35.4 21.5 C 35.4 21.2 35.5 20.9 35.6 20.7 C 35.8 20.4 36 20.2 36.2 20.1 C 36.4 19.9 36.7 19.8 36.9 19.7 C 37.1 19.7 37.5 19.6 37.9 19.6 C 38.7 19.4 39.4 19.3 39.8 19.2 C 39.8 19 39.8 19 39.8 18.9 C 39.8 18.5 39.7 18.2 39.5 18 C 39.2 17.8 38.8 17.6 38.3 17.6 C 37.8 17.6 37.4 17.7 37.2 17.9 C 36.9 18.1 36.8 18.4 36.6 18.8 C 36.6 18.8 35.6 18.7 35.6 18.7 C 35.7 18.2 35.9 17.9 36.1 17.6 C 36.3 17.3 36.6 17.1 37 17 C 37.4 16.8 37.9 16.8 38.4 16.8 C 38.9 16.8 39.4 16.8 39.7 17 C 40 17.1 40.3 17.2 40.4 17.4 C 40.6 17.6 40.7 17.9 40.8 18.2 C 40.8 18.3 40.8 18.7 40.8 19.1 C 40.8 19.1 40.8 20.5 40.8 20.5 C 40.8 21.5 40.8 22.1 40.9 22.4 C 40.9 22.6 41 22.9 41.2 23.1 C 41.16 23.14 40.1 23.1 40.1 23.1 C 40.1 23.1 40.06 23.14 40.1 23.1 Z M 39.8 20 C 39.4 20.2 38.8 20.3 38 20.4 C 37.6 20.5 37.3 20.5 37.1 20.6 C 36.9 20.7 36.8 20.8 36.7 21 C 36.6 21.1 36.6 21.3 36.6 21.5 C 36.6 21.7 36.7 22 36.9 22.2 C 37.1 22.4 37.4 22.5 37.8 22.5 C 38.2 22.5 38.6 22.4 38.9 22.2 C 39.2 22 39.4 21.8 39.6 21.5 C 39.7 21.2 39.8 20.9 39.8 20.4 C 39.8 20.4 39.8 20 39.8 20 Z M 46.5 20.9 C 46.5 20.9 47.6 21 47.6 21 C 47.4 21.7 47.2 22.3 46.7 22.7 C 46.2 23.1 45.6 23.3 45 23.3 C 44.1 23.3 43.4 23 42.9 22.4 C 42.4 21.9 42.1 21.1 42.1 20 C 42.1 19.4 42.2 18.8 42.5 18.3 C 42.7 17.8 43 17.4 43.5 17.2 C 43.9 16.9 44.4 16.8 45 16.8 C 45.6 16.8 46.2 16.9 46.6 17.3 C 47.1 17.6 47.3 18.1 47.5 18.7 C 47.5 18.7 46.4 18.9 46.4 18.9 C 46.3 18.5 46.2 18.2 45.9 18 C 45.7 17.7 45.4 17.6 45 17.6 C 44.5 17.6 44 17.8 43.7 18.2 C 43.4 18.6 43.2 19.2 43.2 20 C 43.2 20.9 43.4 21.5 43.7 21.8 C 44 22.2 44.4 22.4 45 22.4 C 45.4 22.4 45.7 22.3 46 22 C 46.3 21.8 46.4 21.4 46.5 20.9 Z M 48.5 23.1 L 48.5 14.5 L 49.5 14.5 L 49.5 19.4 L 52 16.9 L 53.4 16.9 L 51 19.2 L 53.6 23.1 L 52.3 23.1 L 50.3 20 L 49.5 20.7 L 49.5 23.1 L 48.5 23.1 Z " stroke="none" fill="#000"/>  </g>  <g id="Polygon2734">    <path d="M 19 5.7 C 19 5.7 20.2 6 20.2 6 C 19.9 6.9 19.5 7.7 18.9 8.1 C 18.3 8.6 17.5 8.9 16.6 8.9 C 15.7 8.9 14.9 8.7 14.4 8.3 C 13.8 7.9 13.3 7.4 13 6.7 C 12.7 6 12.6 5.2 12.6 4.4 C 12.6 3.5 12.7 2.7 13.1 2 C 13.4 1.4 13.9 0.9 14.5 0.5 C 15.2 0.2 15.9 0 16.6 0 C 17.5 0 18.2 0.2 18.8 0.7 C 19.4 1.1 19.8 1.7 20 2.5 C 20 2.5 18.9 2.8 18.9 2.8 C 18.7 2.1 18.4 1.7 18 1.4 C 17.7 1.1 17.2 1 16.6 1 C 15.9 1 15.4 1.1 15 1.4 C 14.5 1.8 14.2 2.2 14 2.7 C 13.8 3.3 13.7 3.8 13.7 4.4 C 13.7 5.1 13.9 5.7 14.1 6.3 C 14.3 6.8 14.6 7.2 15.1 7.5 C 15.5 7.8 16 7.9 16.5 7.9 C 17.2 7.9 17.7 7.7 18.1 7.4 C 18.6 7 18.9 6.4 19 5.7 Z M 21.4 8.7 L 21.4 0.1 L 22.5 0.1 L 22.5 8.7 L 21.4 8.7 Z M 24.1 1.4 L 24.1 0.1 L 25.2 0.1 L 25.2 1.4 L 24.1 1.4 Z M 24.1 8.7 L 24.1 2.5 L 25.2 2.5 L 25.2 8.7 L 24.1 8.7 Z M 31 6.7 C 31 6.7 32.1 6.9 32.1 6.9 C 31.9 7.5 31.6 8 31.2 8.3 C 30.7 8.7 30.1 8.9 29.4 8.9 C 28.5 8.9 27.7 8.6 27.2 8 C 26.7 7.5 26.4 6.7 26.4 5.7 C 26.4 4.6 26.7 3.8 27.2 3.2 C 27.8 2.7 28.5 2.4 29.3 2.4 C 30.2 2.4 30.8 2.7 31.4 3.2 C 31.9 3.8 32.2 4.6 32.2 5.6 C 32.2 5.7 32.1 5.8 32.1 5.9 C 32.1 5.9 27.5 5.9 27.5 5.9 C 27.5 6.6 27.7 7.1 28.1 7.5 C 28.4 7.8 28.9 8 29.4 8 C 29.8 8 30.1 7.9 30.4 7.7 C 30.6 7.5 30.9 7.2 31 6.7 Z M 27.6 5 C 27.6 5 31 5 31 5 C 31 4.5 30.9 4.1 30.6 3.8 C 30.3 3.4 29.9 3.2 29.3 3.2 C 28.8 3.2 28.4 3.4 28.1 3.7 C 27.8 4.1 27.6 4.5 27.6 5 Z M 33.4 8.7 L 33.4 2.5 L 34.4 2.5 C 34.4 2.5 34.39 3.4 34.4 3.4 C 34.8 2.7 35.5 2.4 36.4 2.4 C 36.7 2.4 37.1 2.4 37.4 2.6 C 37.7 2.7 38 2.9 38.1 3.1 C 38.3 3.3 38.4 3.6 38.4 3.9 C 38.5 4.1 38.5 4.4 38.5 4.9 C 38.5 4.91 38.5 8.7 38.5 8.7 L 37.4 8.7 C 37.4 8.7 37.44 4.95 37.4 5 C 37.4 4.5 37.4 4.2 37.3 4 C 37.2 3.8 37.1 3.6 36.9 3.5 C 36.7 3.4 36.4 3.3 36.1 3.3 C 35.7 3.3 35.3 3.4 35 3.7 C 34.7 4 34.5 4.5 34.5 5.3 C 34.5 5.34 34.5 8.7 34.5 8.7 L 33.4 8.7 Z M 42 7.8 C 42.1 7.8 42.2 7.8 42.4 7.8 C 42.4 7.8 42.6 8.7 42.6 8.7 C 42.3 8.8 42 8.8 41.8 8.8 C 41.4 8.8 41.1 8.8 40.9 8.6 C 40.7 8.5 40.5 8.4 40.4 8.2 C 40.4 8 40.3 7.5 40.3 6.9 C 40.31 6.91 40.3 3.3 40.3 3.3 L 39.5 3.3 L 39.5 2.5 L 40.3 2.5 L 40.3 1 L 41.4 0.3 L 41.4 2.5 L 42.4 2.5 L 42.4 3.3 L 41.4 3.3 C 41.4 3.3 41.36 6.97 41.4 7 C 41.4 7.3 41.4 7.5 41.4 7.6 C 41.4 7.6 41.5 7.7 41.6 7.8 C 41.7 7.8 41.8 7.8 42 7.8 C 42 7.8 42 7.8 42 7.8 Z " stroke="none" fill="#000"/>  </g></svg>