<?xml version="1.0" standalone="no"?><!DOCTYPE svg PUBLIC "-//W3C//DTD SVG 1.1//EN" "http://www.w3.org/Graphics/SVG/1.1/DTD/svg11.dtd"><svg xmlns="http://www.w3.org/2000/svg" version="1.1" width="247px" height="39.1px" viewBox="0 -5 247 39.1" style="top:-5px">  <desc>Case Studies Gain a better understanding on what we can do for you.</desc>  <defs/>  <g id="Polygon740">    <path d="M 4.1 25.9 L 4.1 25 L 7.2 25 C 7.2 25 7.15 27.67 7.2 27.7 C 6.7 28 6.2 28.3 5.7 28.5 C 5.2 28.7 4.7 28.8 4.2 28.8 C 3.5 28.8 2.8 28.6 2.3 28.3 C 1.7 28 1.3 27.6 1 27 C 0.7 26.5 0.5 25.8 0.5 25.1 C 0.5 24.4 0.7 23.8 1 23.2 C 1.3 22.6 1.7 22.1 2.2 21.8 C 2.8 21.5 3.4 21.4 4.1 21.4 C 4.6 21.4 5.1 21.5 5.5 21.6 C 5.9 21.8 6.3 22 6.5 22.3 C 6.7 22.6 6.9 23 7 23.5 C 7 23.5 6.2 23.7 6.2 23.7 C 6.1 23.4 6 23.1 5.8 22.9 C 5.6 22.7 5.4 22.5 5.1 22.4 C 4.8 22.3 4.5 22.2 4.1 22.2 C 3.7 22.2 3.3 22.3 3 22.4 C 2.7 22.5 2.4 22.7 2.2 22.9 C 2 23.1 1.9 23.4 1.8 23.6 C 1.6 24.1 1.5 24.5 1.5 25.1 C 1.5 25.7 1.6 26.2 1.8 26.7 C 2.1 27.1 2.4 27.4 2.8 27.6 C 3.2 27.8 3.7 27.9 4.1 27.9 C 4.5 27.9 4.9 27.9 5.3 27.7 C 5.7 27.5 6 27.4 6.2 27.2 C 6.23 27.19 6.2 25.9 6.2 25.9 L 4.1 25.9 Z M 12 28.7 C 11.9 28.5 11.8 28.3 11.8 28 C 11.5 28.3 11.2 28.5 10.9 28.6 C 10.6 28.7 10.3 28.8 9.9 28.8 C 9.3 28.8 8.9 28.6 8.6 28.4 C 8.3 28.1 8.1 27.7 8.1 27.3 C 8.1 27 8.2 26.8 8.3 26.6 C 8.4 26.4 8.6 26.2 8.8 26.1 C 9 26 9.2 25.9 9.4 25.8 C 9.6 25.8 9.8 25.7 10.2 25.7 C 10.9 25.6 11.4 25.5 11.7 25.4 C 11.8 25.3 11.8 25.2 11.8 25.1 C 11.8 24.8 11.7 24.5 11.5 24.4 C 11.3 24.2 10.9 24.1 10.5 24.1 C 10.1 24.1 9.8 24.2 9.6 24.3 C 9.4 24.5 9.2 24.7 9.2 25.1 C 9.2 25.1 8.3 25 8.3 25 C 8.4 24.6 8.5 24.3 8.7 24.1 C 8.9 23.8 9.1 23.7 9.5 23.5 C 9.8 23.4 10.2 23.4 10.6 23.4 C 11.1 23.4 11.4 23.4 11.7 23.5 C 12 23.6 12.2 23.8 12.3 23.9 C 12.4 24.1 12.5 24.3 12.6 24.5 C 12.6 24.7 12.6 24.9 12.6 25.3 C 12.6 25.3 12.6 26.5 12.6 26.5 C 12.6 27.3 12.7 27.8 12.7 28 C 12.7 28.3 12.8 28.5 12.9 28.7 C 12.92 28.66 12 28.7 12 28.7 C 12 28.7 12 28.66 12 28.7 Z M 11.7 26.1 C 11.4 26.2 11 26.3 10.3 26.4 C 10 26.4 9.7 26.5 9.5 26.6 C 9.4 26.6 9.3 26.7 9.2 26.9 C 9.1 27 9.1 27.1 9.1 27.3 C 9.1 27.5 9.2 27.7 9.3 27.9 C 9.5 28 9.8 28.1 10.1 28.1 C 10.5 28.1 10.8 28 11 27.9 C 11.3 27.7 11.5 27.5 11.6 27.3 C 11.7 27.1 11.7 26.8 11.7 26.4 C 11.7 26.4 11.7 26.1 11.7 26.1 Z M 14 22.5 L 14 21.5 L 14.9 21.5 L 14.9 22.5 L 14 22.5 Z M 14 28.7 L 14 23.5 L 14.9 23.5 L 14.9 28.7 L 14 28.7 Z M 16.2 28.7 L 16.2 23.5 L 17 23.5 C 17 23.5 17.01 24.22 17 24.2 C 17.4 23.6 17.9 23.4 18.7 23.4 C 19 23.4 19.3 23.4 19.5 23.5 C 19.8 23.6 20 23.8 20.1 24 C 20.2 24.2 20.3 24.4 20.4 24.6 C 20.4 24.8 20.4 25.1 20.4 25.5 C 20.43 25.48 20.4 28.7 20.4 28.7 L 19.6 28.7 C 19.6 28.7 19.56 25.51 19.6 25.5 C 19.6 25.2 19.5 24.9 19.5 24.7 C 19.4 24.5 19.3 24.4 19.1 24.3 C 18.9 24.2 18.7 24.1 18.5 24.1 C 18.1 24.1 17.8 24.2 17.5 24.5 C 17.2 24.7 17.1 25.2 17.1 25.8 C 17.1 25.83 17.1 28.7 17.1 28.7 L 16.2 28.7 Z M 28.1 28.7 C 28 28.5 28 28.3 27.9 28 C 27.6 28.3 27.3 28.5 27 28.6 C 26.7 28.7 26.4 28.8 26 28.8 C 25.5 28.8 25 28.6 24.7 28.4 C 24.4 28.1 24.3 27.7 24.3 27.3 C 24.3 27 24.3 26.8 24.4 26.6 C 24.6 26.4 24.7 26.2 24.9 26.1 C 25.1 26 25.3 25.9 25.5 25.8 C 25.7 25.8 26 25.7 26.3 25.7 C 27 25.6 27.5 25.5 27.9 25.4 C 27.9 25.3 27.9 25.2 27.9 25.1 C 27.9 24.8 27.8 24.5 27.6 24.4 C 27.4 24.2 27.1 24.1 26.6 24.1 C 26.2 24.1 25.9 24.2 25.7 24.3 C 25.5 24.5 25.4 24.7 25.3 25.1 C 25.3 25.1 24.4 25 24.4 25 C 24.5 24.6 24.6 24.3 24.8 24.1 C 25 23.8 25.2 23.7 25.6 23.5 C 25.9 23.4 26.3 23.4 26.8 23.4 C 27.2 23.4 27.6 23.4 27.8 23.5 C 28.1 23.6 28.3 23.8 28.4 23.9 C 28.6 24.1 28.7 24.3 28.7 24.5 C 28.7 24.7 28.8 24.9 28.8 25.3 C 28.8 25.3 28.8 26.5 28.8 26.5 C 28.8 27.3 28.8 27.8 28.8 28 C 28.9 28.3 28.9 28.5 29 28.7 C 29.04 28.66 28.1 28.7 28.1 28.7 C 28.1 28.7 28.12 28.66 28.1 28.7 Z M 27.9 26.1 C 27.6 26.2 27.1 26.3 26.4 26.4 C 26.1 26.4 25.8 26.5 25.7 26.6 C 25.5 26.6 25.4 26.7 25.3 26.9 C 25.2 27 25.2 27.1 25.2 27.3 C 25.2 27.5 25.3 27.7 25.5 27.9 C 25.6 28 25.9 28.1 26.2 28.1 C 26.6 28.1 26.9 28 27.1 27.9 C 27.4 27.7 27.6 27.5 27.7 27.3 C 27.8 27.1 27.9 26.8 27.9 26.4 C 27.9 26.4 27.9 26.1 27.9 26.1 Z M 33.7 28.7 L 32.9 28.7 L 32.9 21.5 L 33.8 21.5 C 33.8 21.5 33.77 24.06 33.8 24.1 C 34.1 23.6 34.6 23.4 35.2 23.4 C 35.5 23.4 35.8 23.4 36.1 23.6 C 36.4 23.7 36.6 23.9 36.8 24.1 C 37 24.3 37.1 24.6 37.2 24.9 C 37.3 25.3 37.4 25.6 37.4 26 C 37.4 26.9 37.2 27.6 36.7 28.1 C 36.3 28.5 35.8 28.8 35.2 28.8 C 34.5 28.8 34.1 28.5 33.7 28 C 33.71 28.01 33.7 28.7 33.7 28.7 Z M 33.7 26 C 33.7 26.7 33.8 27.1 34 27.4 C 34.2 27.8 34.6 28.1 35.1 28.1 C 35.5 28.1 35.8 27.9 36.1 27.6 C 36.4 27.2 36.5 26.7 36.5 26.1 C 36.5 25.4 36.4 24.9 36.1 24.6 C 35.8 24.2 35.5 24.1 35.1 24.1 C 34.7 24.1 34.4 24.3 34.1 24.6 C 33.8 24.9 33.7 25.4 33.7 26 Z M 42 27 C 42 27 42.9 27.1 42.9 27.1 C 42.8 27.6 42.5 28 42.1 28.3 C 41.7 28.6 41.2 28.8 40.6 28.8 C 39.9 28.8 39.3 28.5 38.8 28.1 C 38.4 27.6 38.2 27 38.2 26.1 C 38.2 25.2 38.4 24.6 38.8 24.1 C 39.3 23.6 39.9 23.4 40.6 23.4 C 41.3 23.4 41.9 23.6 42.3 24.1 C 42.7 24.5 42.9 25.2 42.9 26.1 C 42.9 26.1 42.9 26.2 42.9 26.3 C 42.9 26.3 39.1 26.3 39.1 26.3 C 39.1 26.9 39.3 27.3 39.6 27.6 C 39.9 27.9 40.2 28.1 40.6 28.1 C 41 28.1 41.2 28 41.5 27.8 C 41.7 27.6 41.9 27.4 42 27 Z M 39.1 25.6 C 39.1 25.6 42 25.6 42 25.6 C 42 25.1 41.9 24.8 41.7 24.6 C 41.4 24.3 41 24.1 40.6 24.1 C 40.2 24.1 39.9 24.2 39.6 24.5 C 39.3 24.8 39.2 25.1 39.1 25.6 Z M 45.6 27.9 C 45.7 27.9 45.8 27.9 45.9 27.9 C 45.9 27.9 46.1 28.7 46.1 28.7 C 45.8 28.7 45.6 28.7 45.4 28.7 C 45.1 28.7 44.8 28.7 44.7 28.6 C 44.5 28.5 44.4 28.3 44.3 28.2 C 44.2 28 44.2 27.7 44.2 27.1 C 44.18 27.15 44.2 24.2 44.2 24.2 L 43.5 24.2 L 43.5 23.5 L 44.2 23.5 L 44.2 22.2 L 45.1 21.7 L 45.1 23.5 L 45.9 23.5 L 45.9 24.2 L 45.1 24.2 C 45.1 24.2 45.06 27.19 45.1 27.2 C 45.1 27.4 45.1 27.6 45.1 27.7 C 45.1 27.7 45.2 27.8 45.3 27.8 C 45.3 27.9 45.4 27.9 45.6 27.9 C 45.6 27.9 45.6 27.9 45.6 27.9 Z M 48.3 27.9 C 48.4 27.9 48.6 27.9 48.7 27.9 C 48.7 27.9 48.8 28.7 48.8 28.7 C 48.6 28.7 48.4 28.7 48.2 28.7 C 47.9 28.7 47.6 28.7 47.4 28.6 C 47.3 28.5 47.1 28.3 47.1 28.2 C 47 28 47 27.7 47 27.1 C 46.96 27.15 47 24.2 47 24.2 L 46.3 24.2 L 46.3 23.5 L 47 23.5 L 47 22.2 L 47.8 21.7 L 47.8 23.5 L 48.7 23.5 L 48.7 24.2 L 47.8 24.2 C 47.8 24.2 47.84 27.19 47.8 27.2 C 47.8 27.4 47.9 27.6 47.9 27.7 C 47.9 27.7 48 27.8 48 27.8 C 48.1 27.9 48.2 27.9 48.3 27.9 C 48.3 27.9 48.3 27.9 48.3 27.9 Z M 53.1 27 C 53.1 27 54 27.1 54 27.1 C 53.9 27.6 53.6 28 53.2 28.3 C 52.9 28.6 52.4 28.8 51.8 28.8 C 51 28.8 50.4 28.5 50 28.1 C 49.5 27.6 49.3 27 49.3 26.1 C 49.3 25.2 49.5 24.6 50 24.1 C 50.4 23.6 51 23.4 51.7 23.4 C 52.4 23.4 53 23.6 53.4 24.1 C 53.8 24.5 54.1 25.2 54.1 26.1 C 54.1 26.1 54.1 26.2 54.1 26.3 C 54.1 26.3 50.2 26.3 50.2 26.3 C 50.2 26.9 50.4 27.3 50.7 27.6 C 51 27.9 51.3 28.1 51.8 28.1 C 52.1 28.1 52.4 28 52.6 27.8 C 52.8 27.6 53 27.4 53.1 27 Z M 50.2 25.6 C 50.2 25.6 53.1 25.6 53.1 25.6 C 53.1 25.1 53 24.8 52.8 24.6 C 52.5 24.3 52.2 24.1 51.7 24.1 C 51.3 24.1 51 24.2 50.7 24.5 C 50.4 24.8 50.3 25.1 50.2 25.6 Z M 55.1 28.7 L 55.1 23.5 L 55.9 23.5 C 55.9 23.5 55.92 24.26 55.9 24.3 C 56.1 23.9 56.3 23.7 56.5 23.5 C 56.7 23.4 56.8 23.4 57 23.4 C 57.3 23.4 57.6 23.5 57.9 23.6 C 57.9 23.6 57.6 24.5 57.6 24.5 C 57.4 24.3 57.2 24.3 57 24.3 C 56.8 24.3 56.6 24.3 56.5 24.4 C 56.3 24.6 56.2 24.7 56.2 24.9 C 56.1 25.2 56 25.6 56 25.9 C 56.01 25.95 56 28.7 56 28.7 L 55.1 28.7 Z M 64.6 28.7 C 64.6 28.7 64.65 27.9 64.6 27.9 C 64.2 28.5 63.7 28.8 63 28.8 C 62.7 28.8 62.4 28.7 62.1 28.6 C 61.9 28.5 61.7 28.3 61.6 28.2 C 61.4 28 61.3 27.8 61.3 27.5 C 61.2 27.3 61.2 27.1 61.2 26.7 C 61.23 26.69 61.2 23.5 61.2 23.5 L 62.1 23.5 C 62.1 23.5 62.11 26.35 62.1 26.4 C 62.1 26.8 62.1 27.1 62.2 27.3 C 62.2 27.5 62.3 27.7 62.5 27.8 C 62.7 28 62.9 28 63.2 28 C 63.4 28 63.7 28 63.9 27.8 C 64.2 27.7 64.3 27.5 64.4 27.3 C 64.5 27 64.6 26.7 64.6 26.3 C 64.56 26.26 64.6 23.5 64.6 23.5 L 65.4 23.5 L 65.4 28.7 L 64.6 28.7 Z M 66.8 28.7 L 66.8 23.5 L 67.6 23.5 C 67.6 23.5 67.6 24.22 67.6 24.2 C 68 23.6 68.5 23.4 69.3 23.4 C 69.6 23.4 69.9 23.4 70.1 23.5 C 70.4 23.6 70.6 23.8 70.7 24 C 70.8 24.2 70.9 24.4 71 24.6 C 71 24.8 71 25.1 71 25.5 C 71.03 25.48 71 28.7 71 28.7 L 70.1 28.7 C 70.1 28.7 70.15 25.51 70.1 25.5 C 70.1 25.2 70.1 24.9 70 24.7 C 70 24.5 69.9 24.4 69.7 24.3 C 69.5 24.2 69.3 24.1 69.1 24.1 C 68.7 24.1 68.4 24.2 68.1 24.5 C 67.8 24.7 67.7 25.2 67.7 25.8 C 67.69 25.83 67.7 28.7 67.7 28.7 L 66.8 28.7 Z M 75.7 28.7 C 75.7 28.7 75.74 28.01 75.7 28 C 75.4 28.5 74.9 28.8 74.3 28.8 C 73.9 28.8 73.5 28.7 73.1 28.4 C 72.8 28.2 72.5 27.9 72.3 27.5 C 72.2 27.1 72.1 26.6 72.1 26.1 C 72.1 25.6 72.1 25.1 72.3 24.7 C 72.5 24.2 72.7 23.9 73.1 23.7 C 73.4 23.5 73.8 23.4 74.2 23.4 C 74.6 23.4 74.8 23.4 75.1 23.6 C 75.3 23.7 75.5 23.9 75.7 24.1 C 75.68 24.07 75.7 21.5 75.7 21.5 L 76.6 21.5 L 76.6 28.7 L 75.7 28.7 Z M 73 26.1 C 73 26.7 73.1 27.2 73.4 27.6 C 73.7 27.9 74 28.1 74.4 28.1 C 74.8 28.1 75.1 27.9 75.3 27.6 C 75.6 27.3 75.8 26.8 75.8 26.1 C 75.8 25.4 75.6 24.9 75.3 24.6 C 75.1 24.3 74.7 24.1 74.3 24.1 C 73.9 24.1 73.6 24.2 73.4 24.6 C 73.1 24.9 73 25.4 73 26.1 Z M 81.5 27 C 81.5 27 82.4 27.1 82.4 27.1 C 82.2 27.6 82 28 81.6 28.3 C 81.2 28.6 80.7 28.8 80.1 28.8 C 79.4 28.8 78.8 28.5 78.3 28.1 C 77.9 27.6 77.6 27 77.6 26.1 C 77.6 25.2 77.9 24.6 78.3 24.1 C 78.8 23.6 79.3 23.4 80.1 23.4 C 80.8 23.4 81.3 23.6 81.8 24.1 C 82.2 24.5 82.4 25.2 82.4 26.1 C 82.4 26.1 82.4 26.2 82.4 26.3 C 82.4 26.3 78.5 26.3 78.5 26.3 C 78.6 26.9 78.7 27.3 79 27.6 C 79.3 27.9 79.7 28.1 80.1 28.1 C 80.4 28.1 80.7 28 80.9 27.8 C 81.2 27.6 81.4 27.4 81.5 27 Z M 78.6 25.6 C 78.6 25.6 81.5 25.6 81.5 25.6 C 81.5 25.1 81.3 24.8 81.2 24.6 C 80.9 24.3 80.5 24.1 80.1 24.1 C 79.7 24.1 79.3 24.2 79.1 24.5 C 78.8 24.8 78.6 25.1 78.6 25.6 Z M 83.5 28.7 L 83.5 23.5 L 84.3 23.5 C 84.3 23.5 84.28 24.26 84.3 24.3 C 84.5 23.9 84.7 23.7 84.8 23.5 C 85 23.4 85.2 23.4 85.4 23.4 C 85.7 23.4 86 23.5 86.3 23.6 C 86.3 23.6 86 24.5 86 24.5 C 85.8 24.3 85.6 24.3 85.4 24.3 C 85.2 24.3 85 24.3 84.8 24.4 C 84.7 24.6 84.6 24.7 84.5 24.9 C 84.4 25.2 84.4 25.6 84.4 25.9 C 84.37 25.95 84.4 28.7 84.4 28.7 L 83.5 28.7 Z M 86.5 27.1 C 86.5 27.1 87.3 27 87.3 27 C 87.4 27.3 87.5 27.6 87.8 27.8 C 88 28 88.3 28.1 88.7 28.1 C 89.1 28.1 89.4 28 89.6 27.8 C 89.8 27.6 89.9 27.5 89.9 27.2 C 89.9 27 89.8 26.9 89.6 26.8 C 89.5 26.7 89.2 26.6 88.7 26.5 C 88.1 26.3 87.6 26.2 87.4 26 C 87.1 25.9 86.9 25.8 86.8 25.6 C 86.7 25.3 86.6 25.1 86.6 24.9 C 86.6 24.6 86.7 24.4 86.8 24.2 C 86.9 24 87 23.9 87.2 23.7 C 87.3 23.6 87.5 23.5 87.8 23.5 C 88 23.4 88.3 23.4 88.5 23.4 C 88.9 23.4 89.3 23.4 89.6 23.5 C 89.9 23.7 90.1 23.8 90.3 24 C 90.4 24.2 90.5 24.5 90.6 24.8 C 90.6 24.8 89.7 24.9 89.7 24.9 C 89.7 24.7 89.6 24.5 89.4 24.3 C 89.2 24.2 88.9 24.1 88.6 24.1 C 88.2 24.1 87.9 24.2 87.7 24.3 C 87.6 24.4 87.5 24.6 87.5 24.8 C 87.5 24.9 87.5 25 87.6 25.1 C 87.6 25.2 87.8 25.2 87.9 25.3 C 88 25.3 88.3 25.4 88.7 25.5 C 89.3 25.7 89.7 25.8 90 25.9 C 90.2 26 90.4 26.2 90.6 26.4 C 90.7 26.6 90.8 26.8 90.8 27.1 C 90.8 27.4 90.7 27.7 90.5 28 C 90.4 28.2 90.1 28.4 89.8 28.6 C 89.5 28.7 89.1 28.8 88.7 28.8 C 88 28.8 87.5 28.6 87.2 28.4 C 86.8 28.1 86.6 27.7 86.5 27.1 Z M 93.4 27.9 C 93.5 27.9 93.6 27.9 93.7 27.9 C 93.7 27.9 93.9 28.7 93.9 28.7 C 93.6 28.7 93.4 28.7 93.2 28.7 C 92.9 28.7 92.6 28.7 92.5 28.6 C 92.3 28.5 92.2 28.3 92.1 28.2 C 92 28 92 27.7 92 27.1 C 91.99 27.15 92 24.2 92 24.2 L 91.3 24.2 L 91.3 23.5 L 92 23.5 L 92 22.2 L 92.9 21.7 L 92.9 23.5 L 93.7 23.5 L 93.7 24.2 L 92.9 24.2 C 92.9 24.2 92.86 27.19 92.9 27.2 C 92.9 27.4 92.9 27.6 92.9 27.7 C 92.9 27.7 93 27.8 93.1 27.8 C 93.1 27.9 93.2 27.9 93.4 27.9 C 93.4 27.9 93.4 27.9 93.4 27.9 Z M 98.2 28.7 C 98.1 28.5 98 28.3 98 28 C 97.7 28.3 97.3 28.5 97 28.6 C 96.7 28.7 96.4 28.8 96.1 28.8 C 95.5 28.8 95.1 28.6 94.8 28.4 C 94.5 28.1 94.3 27.7 94.3 27.3 C 94.3 27 94.4 26.8 94.5 26.6 C 94.6 26.4 94.7 26.2 94.9 26.1 C 95.1 26 95.3 25.9 95.6 25.8 C 95.7 25.8 96 25.7 96.3 25.7 C 97.1 25.6 97.6 25.5 97.9 25.4 C 97.9 25.3 97.9 25.2 97.9 25.1 C 97.9 24.8 97.8 24.5 97.7 24.4 C 97.4 24.2 97.1 24.1 96.7 24.1 C 96.3 24.1 96 24.2 95.8 24.3 C 95.6 24.5 95.4 24.7 95.3 25.1 C 95.3 25.1 94.5 25 94.5 25 C 94.5 24.6 94.7 24.3 94.8 24.1 C 95 23.8 95.3 23.7 95.6 23.5 C 96 23.4 96.4 23.4 96.8 23.4 C 97.2 23.4 97.6 23.4 97.9 23.5 C 98.2 23.6 98.4 23.8 98.5 23.9 C 98.6 24.1 98.7 24.3 98.8 24.5 C 98.8 24.7 98.8 24.9 98.8 25.3 C 98.8 25.3 98.8 26.5 98.8 26.5 C 98.8 27.3 98.8 27.8 98.9 28 C 98.9 28.3 99 28.5 99.1 28.7 C 99.08 28.66 98.2 28.7 98.2 28.7 C 98.2 28.7 98.16 28.66 98.2 28.7 Z M 97.9 26.1 C 97.6 26.2 97.1 26.3 96.5 26.4 C 96.1 26.4 95.9 26.5 95.7 26.6 C 95.6 26.6 95.4 26.7 95.4 26.9 C 95.3 27 95.2 27.1 95.2 27.3 C 95.2 27.5 95.3 27.7 95.5 27.9 C 95.7 28 95.9 28.1 96.3 28.1 C 96.6 28.1 96.9 28 97.2 27.9 C 97.5 27.7 97.6 27.5 97.8 27.3 C 97.9 27.1 97.9 26.8 97.9 26.4 C 97.9 26.4 97.9 26.1 97.9 26.1 Z M 100.2 28.7 L 100.2 23.5 L 101 23.5 C 101 23.5 100.96 24.22 101 24.2 C 101.3 23.6 101.9 23.4 102.6 23.4 C 102.9 23.4 103.2 23.4 103.5 23.5 C 103.7 23.6 103.9 23.8 104.1 24 C 104.2 24.2 104.3 24.4 104.3 24.6 C 104.4 24.8 104.4 25.1 104.4 25.5 C 104.38 25.48 104.4 28.7 104.4 28.7 L 103.5 28.7 C 103.5 28.7 103.5 25.51 103.5 25.5 C 103.5 25.2 103.5 24.9 103.4 24.7 C 103.3 24.5 103.2 24.4 103 24.3 C 102.9 24.2 102.7 24.1 102.4 24.1 C 102 24.1 101.7 24.2 101.5 24.5 C 101.2 24.7 101 25.2 101 25.8 C 101.04 25.83 101 28.7 101 28.7 L 100.2 28.7 Z M 109.1 28.7 C 109.1 28.7 109.09 28.01 109.1 28 C 108.8 28.5 108.3 28.8 107.6 28.8 C 107.2 28.8 106.8 28.7 106.5 28.4 C 106.2 28.2 105.9 27.9 105.7 27.5 C 105.5 27.1 105.4 26.6 105.4 26.1 C 105.4 25.6 105.5 25.1 105.7 24.7 C 105.8 24.2 106.1 23.9 106.4 23.7 C 106.8 23.5 107.2 23.4 107.6 23.4 C 107.9 23.4 108.2 23.4 108.4 23.6 C 108.7 23.7 108.9 23.9 109 24.1 C 109.03 24.07 109 21.5 109 21.5 L 109.9 21.5 L 109.9 28.7 L 109.1 28.7 Z M 106.3 26.1 C 106.3 26.7 106.5 27.2 106.7 27.6 C 107 27.9 107.3 28.1 107.7 28.1 C 108.1 28.1 108.4 27.9 108.7 27.6 C 109 27.3 109.1 26.8 109.1 26.1 C 109.1 25.4 109 24.9 108.7 24.6 C 108.4 24.3 108.1 24.1 107.7 24.1 C 107.3 24.1 107 24.2 106.7 24.6 C 106.4 24.9 106.3 25.4 106.3 26.1 Z M 111.3 22.5 L 111.3 21.5 L 112.2 21.5 L 112.2 22.5 L 111.3 22.5 Z M 111.3 28.7 L 111.3 23.5 L 112.2 23.5 L 112.2 28.7 L 111.3 28.7 Z M 113.5 28.7 L 113.5 23.5 L 114.3 23.5 C 114.3 23.5 114.3 24.22 114.3 24.2 C 114.7 23.6 115.2 23.4 116 23.4 C 116.3 23.4 116.6 23.4 116.8 23.5 C 117.1 23.6 117.3 23.8 117.4 24 C 117.5 24.2 117.6 24.4 117.7 24.6 C 117.7 24.8 117.7 25.1 117.7 25.5 C 117.72 25.48 117.7 28.7 117.7 28.7 L 116.8 28.7 C 116.8 28.7 116.85 25.51 116.8 25.5 C 116.8 25.2 116.8 24.9 116.7 24.7 C 116.7 24.5 116.6 24.4 116.4 24.3 C 116.2 24.2 116 24.1 115.8 24.1 C 115.4 24.1 115.1 24.2 114.8 24.5 C 114.5 24.7 114.4 25.2 114.4 25.8 C 114.39 25.83 114.4 28.7 114.4 28.7 L 113.5 28.7 Z M 118.9 29.1 C 118.9 29.1 119.8 29.2 119.8 29.2 C 119.8 29.5 119.9 29.7 120.1 29.8 C 120.3 30 120.6 30 121 30 C 121.4 30 121.7 30 121.9 29.8 C 122.1 29.6 122.3 29.4 122.3 29.1 C 122.4 28.9 122.4 28.6 122.4 28 C 122 28.4 121.5 28.7 121 28.7 C 120.3 28.7 119.7 28.4 119.3 27.9 C 118.9 27.4 118.7 26.8 118.7 26 C 118.7 25.5 118.8 25.1 119 24.7 C 119.2 24.3 119.4 23.9 119.8 23.7 C 120.1 23.5 120.5 23.4 121 23.4 C 121.6 23.4 122.1 23.6 122.5 24.1 C 122.5 24.1 122.5 23.5 122.5 23.5 L 123.3 23.5 C 123.3 23.5 123.31 27.96 123.3 28 C 123.3 28.8 123.2 29.3 123.1 29.7 C 122.9 30 122.6 30.3 122.3 30.5 C 121.9 30.7 121.5 30.8 121 30.8 C 120.3 30.8 119.8 30.6 119.5 30.4 C 119.1 30.1 118.9 29.7 118.9 29.1 Z M 119.6 26 C 119.6 26.7 119.8 27.2 120 27.5 C 120.3 27.8 120.7 27.9 121.1 27.9 C 121.5 27.9 121.8 27.8 122.1 27.5 C 122.3 27.2 122.5 26.7 122.5 26 C 122.5 25.4 122.3 24.9 122.1 24.6 C 121.8 24.2 121.4 24.1 121 24.1 C 120.7 24.1 120.3 24.2 120 24.6 C 119.8 24.9 119.6 25.4 119.6 26 Z M 127.1 26.1 C 127.1 25.1 127.4 24.4 127.9 23.9 C 128.3 23.6 128.9 23.4 129.5 23.4 C 130.2 23.4 130.8 23.6 131.3 24.1 C 131.7 24.5 131.9 25.2 131.9 26 C 131.9 26.7 131.8 27.2 131.6 27.6 C 131.4 28 131.2 28.3 130.8 28.5 C 130.4 28.7 130 28.8 129.5 28.8 C 128.8 28.8 128.2 28.5 127.8 28.1 C 127.3 27.6 127.1 26.9 127.1 26.1 Z M 128 26.1 C 128 26.7 128.1 27.2 128.4 27.6 C 128.7 27.9 129.1 28.1 129.5 28.1 C 130 28.1 130.3 27.9 130.6 27.6 C 130.9 27.2 131 26.7 131 26 C 131 25.4 130.9 24.9 130.6 24.6 C 130.3 24.3 129.9 24.1 129.5 24.1 C 129.1 24.1 128.7 24.3 128.4 24.6 C 128.1 24.9 128 25.4 128 26.1 Z M 133 28.7 L 133 23.5 L 133.8 23.5 C 133.8 23.5 133.76 24.22 133.8 24.2 C 134.1 23.6 134.7 23.4 135.4 23.4 C 135.7 23.4 136 23.4 136.3 23.5 C 136.5 23.6 136.7 23.8 136.9 24 C 137 24.2 137.1 24.4 137.1 24.6 C 137.2 24.8 137.2 25.1 137.2 25.5 C 137.19 25.48 137.2 28.7 137.2 28.7 L 136.3 28.7 C 136.3 28.7 136.31 25.51 136.3 25.5 C 136.3 25.2 136.3 24.9 136.2 24.7 C 136.1 24.5 136 24.4 135.8 24.3 C 135.7 24.2 135.5 24.1 135.2 24.1 C 134.9 24.1 134.5 24.2 134.3 24.5 C 134 24.7 133.9 25.2 133.9 25.8 C 133.85 25.83 133.9 28.7 133.9 28.7 L 133 28.7 Z M 142.3 28.7 L 140.7 23.5 L 141.6 23.5 L 142.4 26.5 C 142.4 26.5 142.72 27.58 142.7 27.6 C 142.7 27.5 142.8 27.2 143 26.5 C 142.99 26.52 143.8 23.5 143.8 23.5 L 144.7 23.5 L 145.5 26.5 L 145.8 27.5 L 146.1 26.5 L 146.9 23.5 L 147.8 23.5 L 146.2 28.7 L 145.3 28.7 L 144.4 25.6 L 144.2 24.7 L 143.2 28.7 L 142.3 28.7 Z M 148.5 28.7 L 148.5 21.5 L 149.4 21.5 C 149.4 21.5 149.41 24.07 149.4 24.1 C 149.8 23.6 150.3 23.4 151 23.4 C 151.4 23.4 151.7 23.4 152 23.6 C 152.3 23.7 152.5 23.9 152.6 24.2 C 152.7 24.5 152.8 24.9 152.8 25.4 C 152.76 25.38 152.8 28.7 152.8 28.7 L 151.9 28.7 C 151.9 28.7 151.88 25.38 151.9 25.4 C 151.9 24.9 151.8 24.6 151.6 24.4 C 151.4 24.2 151.1 24.1 150.8 24.1 C 150.5 24.1 150.3 24.2 150.1 24.3 C 149.8 24.5 149.7 24.6 149.6 24.9 C 149.5 25.1 149.4 25.4 149.4 25.8 C 149.41 25.83 149.4 28.7 149.4 28.7 L 148.5 28.7 Z M 157.7 28.7 C 157.6 28.5 157.5 28.3 157.5 28 C 157.2 28.3 156.8 28.5 156.5 28.6 C 156.2 28.7 155.9 28.8 155.6 28.8 C 155 28.8 154.6 28.6 154.3 28.4 C 154 28.1 153.8 27.7 153.8 27.3 C 153.8 27 153.9 26.8 154 26.6 C 154.1 26.4 154.2 26.2 154.4 26.1 C 154.6 26 154.8 25.9 155.1 25.8 C 155.2 25.8 155.5 25.7 155.8 25.7 C 156.5 25.6 157.1 25.5 157.4 25.4 C 157.4 25.3 157.4 25.2 157.4 25.1 C 157.4 24.8 157.3 24.5 157.2 24.4 C 156.9 24.2 156.6 24.1 156.2 24.1 C 155.7 24.1 155.4 24.2 155.2 24.3 C 155 24.5 154.9 24.7 154.8 25.1 C 154.8 25.1 154 25 154 25 C 154 24.6 154.2 24.3 154.3 24.1 C 154.5 23.8 154.8 23.7 155.1 23.5 C 155.5 23.4 155.8 23.4 156.3 23.4 C 156.7 23.4 157.1 23.4 157.4 23.5 C 157.6 23.6 157.8 23.8 158 23.9 C 158.1 24.1 158.2 24.3 158.3 24.5 C 158.3 24.7 158.3 24.9 158.3 25.3 C 158.3 25.3 158.3 26.5 158.3 26.5 C 158.3 27.3 158.3 27.8 158.4 28 C 158.4 28.3 158.5 28.5 158.6 28.7 C 158.57 28.66 157.7 28.7 157.7 28.7 C 157.7 28.7 157.66 28.66 157.7 28.7 Z M 157.4 26.1 C 157.1 26.2 156.6 26.3 156 26.4 C 155.6 26.4 155.4 26.5 155.2 26.6 C 155.1 26.6 154.9 26.7 154.9 26.9 C 154.8 27 154.7 27.1 154.7 27.3 C 154.7 27.5 154.8 27.7 155 27.9 C 155.2 28 155.4 28.1 155.8 28.1 C 156.1 28.1 156.4 28 156.7 27.9 C 156.9 27.7 157.1 27.5 157.3 27.3 C 157.4 27.1 157.4 26.8 157.4 26.4 C 157.4 26.4 157.4 26.1 157.4 26.1 Z M 161.2 27.9 C 161.3 27.9 161.4 27.9 161.6 27.9 C 161.6 27.9 161.7 28.7 161.7 28.7 C 161.5 28.7 161.2 28.7 161 28.7 C 160.7 28.7 160.5 28.7 160.3 28.6 C 160.1 28.5 160 28.3 159.9 28.2 C 159.9 28 159.8 27.7 159.8 27.1 C 159.82 27.15 159.8 24.2 159.8 24.2 L 159.2 24.2 L 159.2 23.5 L 159.8 23.5 L 159.8 22.2 L 160.7 21.7 L 160.7 23.5 L 161.6 23.5 L 161.6 24.2 L 160.7 24.2 C 160.7 24.2 160.69 27.19 160.7 27.2 C 160.7 27.4 160.7 27.6 160.7 27.7 C 160.8 27.7 160.8 27.8 160.9 27.8 C 161 27.9 161.1 27.9 161.2 27.9 C 161.2 27.9 161.2 27.9 161.2 27.9 Z M 166.2 28.7 L 164.6 23.5 L 165.5 23.5 L 166.3 26.5 C 166.3 26.5 166.63 27.58 166.6 27.6 C 166.6 27.5 166.7 27.2 166.9 26.5 C 166.89 26.52 167.7 23.5 167.7 23.5 L 168.6 23.5 L 169.4 26.5 L 169.7 27.5 L 170 26.5 L 170.8 23.5 L 171.7 23.5 L 170.1 28.7 L 169.2 28.7 L 168.3 25.6 L 168.1 24.7 L 167.1 28.7 L 166.2 28.7 Z M 176 27 C 176 27 176.9 27.1 176.9 27.1 C 176.8 27.6 176.5 28 176.1 28.3 C 175.7 28.6 175.2 28.8 174.6 28.8 C 173.9 28.8 173.3 28.5 172.8 28.1 C 172.4 27.6 172.1 27 172.1 26.1 C 172.1 25.2 172.4 24.6 172.8 24.1 C 173.3 23.6 173.8 23.4 174.6 23.4 C 175.3 23.4 175.8 23.6 176.3 24.1 C 176.7 24.5 176.9 25.2 176.9 26.1 C 176.9 26.1 176.9 26.2 176.9 26.3 C 176.9 26.3 173.1 26.3 173.1 26.3 C 173.1 26.9 173.2 27.3 173.5 27.6 C 173.8 27.9 174.2 28.1 174.6 28.1 C 174.9 28.1 175.2 28 175.4 27.8 C 175.7 27.6 175.9 27.4 176 27 Z M 173.1 25.6 C 173.1 25.6 176 25.6 176 25.6 C 176 25.1 175.8 24.8 175.7 24.6 C 175.4 24.3 175 24.1 174.6 24.1 C 174.2 24.1 173.8 24.2 173.6 24.5 C 173.3 24.8 173.1 25.1 173.1 25.6 Z M 184.2 26.8 C 184.2 26.8 185 26.9 185 26.9 C 184.9 27.5 184.7 27.9 184.3 28.3 C 183.9 28.6 183.4 28.8 182.9 28.8 C 182.2 28.8 181.6 28.5 181.2 28.1 C 180.7 27.6 180.5 27 180.5 26.1 C 180.5 25.5 180.6 25 180.8 24.6 C 181 24.2 181.3 23.9 181.6 23.7 C 182 23.5 182.4 23.4 182.9 23.4 C 183.4 23.4 183.9 23.5 184.3 23.8 C 184.6 24.1 184.8 24.5 184.9 25 C 184.9 25 184.1 25.1 184.1 25.1 C 184 24.8 183.9 24.5 183.7 24.3 C 183.4 24.2 183.2 24.1 182.9 24.1 C 182.5 24.1 182.1 24.2 181.8 24.6 C 181.5 24.9 181.4 25.4 181.4 26.1 C 181.4 26.8 181.5 27.3 181.8 27.6 C 182.1 27.9 182.4 28.1 182.9 28.1 C 183.2 28.1 183.5 28 183.7 27.7 C 184 27.5 184.1 27.2 184.2 26.8 Z M 189.3 28.7 C 189.2 28.5 189.2 28.3 189.2 28 C 188.8 28.3 188.5 28.5 188.2 28.6 C 187.9 28.7 187.6 28.8 187.3 28.8 C 186.7 28.8 186.2 28.6 185.9 28.4 C 185.6 28.1 185.5 27.7 185.5 27.3 C 185.5 27 185.5 26.8 185.7 26.6 C 185.8 26.4 185.9 26.2 186.1 26.1 C 186.3 26 186.5 25.9 186.7 25.8 C 186.9 25.8 187.2 25.7 187.5 25.7 C 188.2 25.6 188.8 25.5 189.1 25.4 C 189.1 25.3 189.1 25.2 189.1 25.1 C 189.1 24.8 189 24.5 188.8 24.4 C 188.6 24.2 188.3 24.1 187.8 24.1 C 187.4 24.1 187.1 24.2 186.9 24.3 C 186.7 24.5 186.6 24.7 186.5 25.1 C 186.5 25.1 185.6 25 185.6 25 C 185.7 24.6 185.8 24.3 186 24.1 C 186.2 23.8 186.5 23.7 186.8 23.5 C 187.1 23.4 187.5 23.4 188 23.4 C 188.4 23.4 188.8 23.4 189 23.5 C 189.3 23.6 189.5 23.8 189.7 23.9 C 189.8 24.1 189.9 24.3 189.9 24.5 C 190 24.7 190 24.9 190 25.3 C 190 25.3 190 26.5 190 26.5 C 190 27.3 190 27.8 190 28 C 190.1 28.3 190.1 28.5 190.3 28.7 C 190.25 28.66 189.3 28.7 189.3 28.7 C 189.3 28.7 189.34 28.66 189.3 28.7 Z M 189.1 26.1 C 188.8 26.2 188.3 26.3 187.7 26.4 C 187.3 26.4 187 26.5 186.9 26.6 C 186.7 26.6 186.6 26.7 186.5 26.9 C 186.5 27 186.4 27.1 186.4 27.3 C 186.4 27.5 186.5 27.7 186.7 27.9 C 186.9 28 187.1 28.1 187.5 28.1 C 187.8 28.1 188.1 28 188.4 27.9 C 188.6 27.7 188.8 27.5 188.9 27.3 C 189 27.1 189.1 26.8 189.1 26.4 C 189.1 26.4 189.1 26.1 189.1 26.1 Z M 191.3 28.7 L 191.3 23.5 L 192.1 23.5 C 192.1 23.5 192.13 24.22 192.1 24.2 C 192.5 23.6 193.1 23.4 193.8 23.4 C 194.1 23.4 194.4 23.4 194.6 23.5 C 194.9 23.6 195.1 23.8 195.2 24 C 195.4 24.2 195.5 24.4 195.5 24.6 C 195.5 24.8 195.6 25.1 195.6 25.5 C 195.55 25.48 195.6 28.7 195.6 28.7 L 194.7 28.7 C 194.7 28.7 194.67 25.51 194.7 25.5 C 194.7 25.2 194.6 24.9 194.6 24.7 C 194.5 24.5 194.4 24.4 194.2 24.3 C 194 24.2 193.8 24.1 193.6 24.1 C 193.2 24.1 192.9 24.2 192.6 24.5 C 192.4 24.7 192.2 25.2 192.2 25.8 C 192.22 25.83 192.2 28.7 192.2 28.7 L 191.3 28.7 Z M 203 28.7 C 203 28.7 203.04 28.01 203 28 C 202.7 28.5 202.2 28.8 201.6 28.8 C 201.2 28.8 200.8 28.7 200.5 28.4 C 200.1 28.2 199.8 27.9 199.6 27.5 C 199.5 27.1 199.4 26.6 199.4 26.1 C 199.4 25.6 199.4 25.1 199.6 24.7 C 199.8 24.2 200.1 23.9 200.4 23.7 C 200.7 23.5 201.1 23.4 201.6 23.4 C 201.9 23.4 202.1 23.4 202.4 23.6 C 202.6 23.7 202.8 23.9 203 24.1 C 202.98 24.07 203 21.5 203 21.5 L 203.9 21.5 L 203.9 28.7 L 203 28.7 Z M 200.3 26.1 C 200.3 26.7 200.4 27.2 200.7 27.6 C 201 27.9 201.3 28.1 201.7 28.1 C 202.1 28.1 202.4 27.9 202.7 27.6 C 202.9 27.3 203.1 26.8 203.1 26.1 C 203.1 25.4 202.9 24.9 202.6 24.6 C 202.4 24.3 202 24.1 201.6 24.1 C 201.2 24.1 200.9 24.2 200.7 24.6 C 200.4 24.9 200.3 25.4 200.3 26.1 Z M 204.9 26.1 C 204.9 25.1 205.2 24.4 205.7 23.9 C 206.2 23.6 206.7 23.4 207.3 23.4 C 208.1 23.4 208.6 23.6 209.1 24.1 C 209.5 24.5 209.8 25.2 209.8 26 C 209.8 26.7 209.7 27.2 209.5 27.6 C 209.3 28 209 28.3 208.6 28.5 C 208.2 28.7 207.8 28.8 207.3 28.8 C 206.6 28.8 206 28.5 205.6 28.1 C 205.1 27.6 204.9 26.9 204.9 26.1 Z M 205.8 26.1 C 205.8 26.7 206 27.2 206.3 27.6 C 206.5 27.9 206.9 28.1 207.3 28.1 C 207.8 28.1 208.1 27.9 208.4 27.6 C 208.7 27.2 208.9 26.7 208.9 26 C 208.9 25.4 208.7 24.9 208.4 24.6 C 208.1 24.3 207.8 24.1 207.3 24.1 C 206.9 24.1 206.5 24.3 206.3 24.6 C 206 24.9 205.8 25.4 205.8 26.1 Z M 213.8 28.7 L 213.8 24.2 L 213 24.2 L 213 23.5 L 213.8 23.5 C 213.8 23.5 213.79 22.93 213.8 22.9 C 213.8 22.6 213.8 22.3 213.9 22.2 C 214 21.9 214.1 21.7 214.3 21.6 C 214.5 21.5 214.8 21.4 215.2 21.4 C 215.5 21.4 215.7 21.4 216 21.5 C 216 21.5 215.9 22.2 215.9 22.2 C 215.7 22.2 215.6 22.2 215.4 22.2 C 215.1 22.2 214.9 22.2 214.8 22.4 C 214.7 22.5 214.7 22.7 214.7 23 C 214.66 23 214.7 23.5 214.7 23.5 L 215.7 23.5 L 215.7 24.2 L 214.7 24.2 L 214.7 28.7 L 213.8 28.7 Z M 216 26.1 C 216 25.1 216.3 24.4 216.8 23.9 C 217.3 23.6 217.8 23.4 218.5 23.4 C 219.2 23.4 219.8 23.6 220.2 24.1 C 220.7 24.5 220.9 25.2 220.9 26 C 220.9 26.7 220.8 27.2 220.6 27.6 C 220.4 28 220.1 28.3 219.7 28.5 C 219.3 28.7 218.9 28.8 218.5 28.8 C 217.7 28.8 217.1 28.5 216.7 28.1 C 216.3 27.6 216 26.9 216 26.1 Z M 216.9 26.1 C 216.9 26.7 217.1 27.2 217.4 27.6 C 217.7 27.9 218 28.1 218.5 28.1 C 218.9 28.1 219.3 27.9 219.6 27.6 C 219.8 27.2 220 26.7 220 26 C 220 25.4 219.8 24.9 219.5 24.6 C 219.3 24.3 218.9 24.1 218.5 24.1 C 218 24.1 217.7 24.3 217.4 24.6 C 217.1 24.9 216.9 25.4 216.9 26.1 Z M 221.9 28.7 L 221.9 23.5 L 222.7 23.5 C 222.7 23.5 222.7 24.26 222.7 24.3 C 222.9 23.9 223.1 23.7 223.3 23.5 C 223.4 23.4 223.6 23.4 223.8 23.4 C 224.1 23.4 224.4 23.5 224.7 23.6 C 224.7 23.6 224.4 24.5 224.4 24.5 C 224.2 24.3 224 24.3 223.8 24.3 C 223.6 24.3 223.4 24.3 223.3 24.4 C 223.1 24.6 223 24.7 222.9 24.9 C 222.8 25.2 222.8 25.6 222.8 25.9 C 222.79 25.95 222.8 28.7 222.8 28.7 L 221.9 28.7 Z M 228.6 30.8 C 228.4 30.8 228.2 30.7 228 30.7 C 228 30.7 227.9 29.8 227.9 29.8 C 228.1 29.9 228.3 29.9 228.4 29.9 C 228.6 29.9 228.7 29.9 228.9 29.8 C 229 29.8 229.1 29.7 229.2 29.5 C 229.2 29.5 229.3 29.2 229.4 28.9 C 229.4 28.8 229.5 28.8 229.5 28.7 C 229.5 28.67 227.5 23.5 227.5 23.5 L 228.5 23.5 C 228.5 23.5 229.56 26.48 229.6 26.5 C 229.7 26.9 229.8 27.3 229.9 27.7 C 230 27.3 230.2 26.9 230.3 26.5 C 230.29 26.5 231.4 23.5 231.4 23.5 L 232.3 23.5 C 232.3 23.5 230.31 28.75 230.3 28.8 C 230.1 29.3 229.9 29.7 229.8 29.9 C 229.7 30.2 229.5 30.4 229.3 30.6 C 229.1 30.7 228.8 30.8 228.6 30.8 C 228.6 30.8 228.6 30.8 228.6 30.8 Z M 232.7 26.1 C 232.7 25.1 233 24.4 233.5 23.9 C 233.9 23.6 234.5 23.4 235.1 23.4 C 235.8 23.4 236.4 23.6 236.9 24.1 C 237.3 24.5 237.6 25.2 237.6 26 C 237.6 26.7 237.5 27.2 237.3 27.6 C 237.1 28 236.8 28.3 236.4 28.5 C 236 28.7 235.6 28.8 235.1 28.8 C 234.4 28.8 233.8 28.5 233.4 28.1 C 232.9 27.6 232.7 26.9 232.7 26.1 Z M 233.6 26.1 C 233.6 26.7 233.7 27.2 234 27.6 C 234.3 27.9 234.7 28.1 235.1 28.1 C 235.6 28.1 235.9 27.9 236.2 27.6 C 236.5 27.2 236.7 26.7 236.7 26 C 236.7 25.4 236.5 24.9 236.2 24.6 C 235.9 24.3 235.6 24.1 235.1 24.1 C 234.7 24.1 234.3 24.3 234 24.6 C 233.7 24.9 233.6 25.4 233.6 26.1 Z M 242 28.7 C 242 28.7 241.99 27.9 242 27.9 C 241.6 28.5 241 28.8 240.3 28.8 C 240 28.8 239.8 28.7 239.5 28.6 C 239.2 28.5 239 28.3 238.9 28.2 C 238.8 28 238.7 27.8 238.6 27.5 C 238.6 27.3 238.6 27.1 238.6 26.7 C 238.57 26.69 238.6 23.5 238.6 23.5 L 239.4 23.5 C 239.4 23.5 239.45 26.35 239.4 26.4 C 239.4 26.8 239.5 27.1 239.5 27.3 C 239.6 27.5 239.7 27.7 239.9 27.8 C 240 28 240.3 28 240.5 28 C 240.8 28 241 28 241.3 27.8 C 241.5 27.7 241.7 27.5 241.8 27.3 C 241.8 27 241.9 26.7 241.9 26.3 C 241.89 26.26 241.9 23.5 241.9 23.5 L 242.8 23.5 L 242.8 28.7 L 242 28.7 Z M 244.4 28.7 L 244.4 27.7 L 245.4 27.7 L 245.4 28.7 L 244.4 28.7 Z " stroke="none" fill="#010102"/>  </g>  <g id="Polygon739">    <path d="M 10.2 1.5 C 10.2 1.5 10.2 2.8 10.2 2.8 C 9.1 2.1 7.8 1.7 6.5 1.7 C 3.8 1.7 2 3.8 2 6.2 C 2 8.7 3.7 10.7 6.5 10.7 C 7.9 10.7 9.2 10.3 10.3 9.6 C 10.3 9.6 10.3 10.9 10.3 10.9 C 9.1 11.5 7.8 11.8 6.5 11.8 C 2.7 11.8 0.8 9 0.8 6.3 C 0.8 3 3.2 0.6 6.5 0.6 C 7.8 0.6 9 0.9 10.2 1.5 Z M 16.8 0.7 L 21.7 11.7 L 20.5 11.7 L 18.9 8.2 L 14 8.2 L 12.5 11.7 L 11.3 11.7 L 16 0.7 L 16.8 0.7 Z M 14.4 7.2 L 18.4 7.2 L 16.4 2.5 L 14.4 7.2 Z M 28.3 1.3 C 28.3 1.3 28.3 2.7 28.3 2.7 C 27.5 2 26.7 1.7 25.8 1.7 C 24.6 1.7 23.9 2.3 23.9 3.3 C 23.9 4 24.1 4.6 25.9 5.5 C 28.1 6.7 28.7 7.5 28.7 9 C 28.7 10.6 27.4 11.8 25.6 11.8 C 24.5 11.8 23.6 11.5 22.7 10.8 C 22.7 10.8 22.7 9.3 22.7 9.3 C 23.5 10.2 24.5 10.7 25.6 10.7 C 26.7 10.7 27.5 10 27.5 9 C 27.5 8.1 27.2 7.5 25 6.4 C 23.3 5.5 22.7 4.7 22.7 3.3 C 22.7 1.8 24 0.6 25.8 0.6 C 26.7 0.6 27.5 0.8 28.3 1.3 Z M 36.5 0.8 L 36.5 1.8 L 31.7 1.8 L 31.7 5.6 L 36.4 5.6 L 36.4 6.7 L 31.7 6.7 L 31.7 10.6 L 36.6 10.6 L 36.6 11.7 L 30.5 11.7 L 30.5 0.8 L 36.5 0.8 Z M 48.1 1.3 C 48.1 1.3 48.1 2.7 48.1 2.7 C 47.3 2 46.5 1.7 45.6 1.7 C 44.5 1.7 43.7 2.3 43.7 3.3 C 43.7 4 43.9 4.6 45.7 5.5 C 48 6.7 48.5 7.5 48.5 9 C 48.5 10.6 47.2 11.8 45.4 11.8 C 44.3 11.8 43.4 11.5 42.5 10.8 C 42.5 10.8 42.5 9.3 42.5 9.3 C 43.4 10.2 44.3 10.7 45.4 10.7 C 46.5 10.7 47.3 10 47.3 9 C 47.3 8.1 47 7.5 44.9 6.4 C 43.2 5.5 42.5 4.7 42.5 3.3 C 42.5 1.8 43.8 0.6 45.6 0.6 C 46.5 0.6 47.3 0.8 48.1 1.3 Z M 58.3 0.8 L 58.3 1.8 L 54.4 1.8 L 54.4 11.7 L 53.2 11.7 L 53.2 1.8 L 49.4 1.8 L 49.4 0.8 L 58.3 0.8 Z M 60.9 0.8 C 60.9 0.8 60.86 7.04 60.9 7 C 60.9 9.5 62 10.7 64.2 10.7 C 66.5 10.7 67.6 9.4 67.6 7 C 67.62 7.04 67.6 0.8 67.6 0.8 L 68.8 0.8 C 68.8 0.8 68.82 7.04 68.8 7 C 68.8 9.9 67.3 11.8 64.3 11.8 C 61.3 11.8 59.7 10.1 59.7 7 C 59.66 7.04 59.7 0.8 59.7 0.8 L 60.9 0.8 Z M 71.1 0.8 C 71.1 0.8 75.15 0.75 75.2 0.8 C 78.7 0.8 81 3 81 6.1 C 81 9.5 78.6 11.7 75.2 11.7 C 75.15 11.66 71.1 11.7 71.1 11.7 L 71.1 0.8 Z M 75.1 10.6 C 78 10.6 79.8 8.9 79.8 6.2 C 79.8 3.6 78 1.8 75 1.8 C 74.96 1.82 72.3 1.8 72.3 1.8 L 72.3 10.6 C 72.3 10.6 75.14 10.58 75.1 10.6 Z M 84.2 0.8 L 84.2 11.7 L 83 11.7 L 83 0.8 L 84.2 0.8 Z M 92.6 0.8 L 92.6 1.8 L 87.9 1.8 L 87.9 5.6 L 92.5 5.6 L 92.5 6.7 L 87.9 6.7 L 87.9 10.6 L 92.8 10.6 L 92.8 11.7 L 86.7 11.7 L 86.7 0.8 L 92.6 0.8 Z M 99.8 1.3 C 99.8 1.3 99.8 2.7 99.8 2.7 C 99 2 98.2 1.7 97.3 1.7 C 96.1 1.7 95.4 2.3 95.4 3.3 C 95.4 4 95.6 4.6 97.4 5.5 C 99.6 6.7 100.2 7.5 100.2 9 C 100.2 10.6 98.9 11.8 97.1 11.8 C 96 11.8 95.1 11.5 94.2 10.8 C 94.2 10.8 94.2 9.3 94.2 9.3 C 95 10.2 96 10.7 97.1 10.7 C 98.2 10.7 99 10 99 9 C 99 8.1 98.7 7.5 96.5 6.4 C 94.8 5.5 94.2 4.7 94.2 3.3 C 94.2 1.8 95.5 0.6 97.3 0.6 C 98.2 0.6 99 0.8 99.8 1.3 Z " stroke="none" fill="#010102"/>  </g></svg>