<?xml version="1.0" standalone="no"?><!DOCTYPE svg PUBLIC "-//W3C//DTD SVG 1.1//EN" "http://www.w3.org/Graphics/SVG/1.1/DTD/svg11.dtd"><svg xmlns="http://www.w3.org/2000/svg" version="1.1" width="43.4px" height="34.5px" viewBox="0 -4 43.4 34.5" style="top:-4px">  <desc>Case Studies</desc>  <defs/>  <g id="Polygon2649">    <path d="M 2.2 20.4 C 2.2 20.4 3.3 20.3 3.3 20.3 C 3.3 20.7 3.4 21.1 3.6 21.3 C 3.8 21.6 4.1 21.8 4.5 22 C 4.9 22.2 5.3 22.3 5.8 22.3 C 6.2 22.3 6.6 22.2 7 22.1 C 7.3 21.9 7.5 21.8 7.7 21.5 C 7.9 21.3 7.9 21.1 7.9 20.8 C 7.9 20.5 7.9 20.3 7.7 20.1 C 7.6 19.9 7.3 19.7 6.9 19.6 C 6.7 19.5 6.2 19.4 5.4 19.2 C 4.6 19 4.1 18.8 3.8 18.6 C 3.3 18.4 3 18.2 2.8 17.8 C 2.6 17.5 2.5 17.2 2.5 16.8 C 2.5 16.3 2.7 15.9 2.9 15.6 C 3.1 15.2 3.5 14.9 4 14.7 C 4.5 14.5 5 14.4 5.6 14.4 C 6.2 14.4 6.8 14.5 7.2 14.7 C 7.7 14.9 8.1 15.2 8.4 15.6 C 8.6 16 8.8 16.5 8.8 17 C 8.8 17 7.7 17 7.7 17 C 7.6 16.5 7.4 16.1 7.1 15.8 C 6.8 15.5 6.3 15.4 5.6 15.4 C 4.9 15.4 4.4 15.5 4.1 15.8 C 3.8 16 3.6 16.3 3.6 16.7 C 3.6 17 3.7 17.3 4 17.5 C 4.2 17.7 4.8 17.9 5.7 18.1 C 6.6 18.3 7.2 18.5 7.6 18.6 C 8.1 18.8 8.4 19.1 8.7 19.5 C 8.9 19.8 9 20.2 9 20.7 C 9 21.2 8.9 21.6 8.6 22 C 8.4 22.4 8 22.7 7.5 22.9 C 7 23.2 6.5 23.3 5.9 23.3 C 5.1 23.3 4.4 23.2 3.9 22.9 C 3.4 22.7 3 22.4 2.7 21.9 C 2.4 21.5 2.2 21 2.2 20.4 Z M 12.3 22.2 C 12.4 22.2 12.6 22.2 12.8 22.2 C 12.8 22.2 12.9 23.1 12.9 23.1 C 12.6 23.2 12.4 23.2 12.1 23.2 C 11.7 23.2 11.4 23.2 11.2 23 C 11 22.9 10.9 22.8 10.8 22.6 C 10.7 22.4 10.7 21.9 10.7 21.3 C 10.65 21.31 10.7 17.7 10.7 17.7 L 9.9 17.7 L 9.9 16.9 L 10.7 16.9 L 10.7 15.4 L 11.7 14.7 L 11.7 16.9 L 12.8 16.9 L 12.8 17.7 L 11.7 17.7 C 11.7 17.7 11.7 21.37 11.7 21.4 C 11.7 21.7 11.7 21.9 11.8 22 C 11.8 22 11.9 22.1 11.9 22.2 C 12 22.2 12.1 22.2 12.3 22.2 C 12.3 22.2 12.3 22.2 12.3 22.2 Z M 17.9 23.1 C 17.9 23.1 17.87 22.22 17.9 22.2 C 17.4 22.9 16.7 23.3 15.9 23.3 C 15.5 23.3 15.2 23.2 14.9 23.1 C 14.6 22.9 14.3 22.7 14.2 22.5 C 14 22.3 13.9 22.1 13.8 21.8 C 13.8 21.5 13.8 21.2 13.8 20.8 C 13.77 20.77 13.8 16.9 13.8 16.9 L 14.8 16.9 C 14.8 16.9 14.82 20.36 14.8 20.4 C 14.8 20.9 14.8 21.3 14.9 21.5 C 15 21.8 15.1 22 15.3 22.1 C 15.5 22.3 15.8 22.4 16.1 22.4 C 16.4 22.4 16.7 22.3 17 22.1 C 17.3 22 17.5 21.7 17.6 21.5 C 17.7 21.2 17.8 20.8 17.8 20.2 C 17.76 20.25 17.8 16.9 17.8 16.9 L 18.8 16.9 L 18.8 23.1 L 17.9 23.1 Z M 24.5 23.1 C 24.5 23.1 24.5 22.35 24.5 22.4 C 24.1 23 23.5 23.3 22.8 23.3 C 22.3 23.3 21.8 23.1 21.4 22.9 C 21 22.6 20.7 22.2 20.4 21.7 C 20.2 21.2 20.1 20.7 20.1 20 C 20.1 19.4 20.2 18.8 20.4 18.3 C 20.6 17.8 20.9 17.4 21.3 17.2 C 21.7 16.9 22.2 16.8 22.7 16.8 C 23.1 16.8 23.4 16.9 23.7 17 C 24 17.2 24.3 17.4 24.4 17.6 C 24.43 17.63 24.4 14.5 24.4 14.5 L 25.5 14.5 L 25.5 23.1 L 24.5 23.1 Z M 21.2 20 C 21.2 20.8 21.3 21.4 21.7 21.8 C 22 22.2 22.4 22.4 22.9 22.4 C 23.3 22.4 23.7 22.2 24 21.8 C 24.4 21.5 24.5 20.9 24.5 20.1 C 24.5 19.3 24.4 18.6 24 18.2 C 23.7 17.8 23.3 17.6 22.8 17.6 C 22.3 17.6 22 17.8 21.6 18.2 C 21.3 18.6 21.2 19.2 21.2 20 Z M 27.1 15.8 L 27.1 14.5 L 28.2 14.5 L 28.2 15.8 L 27.1 15.8 Z M 27.1 23.1 L 27.1 16.9 L 28.2 16.9 L 28.2 23.1 L 27.1 23.1 Z M 34.1 21.1 C 34.1 21.1 35.2 21.3 35.2 21.3 C 35 21.9 34.7 22.4 34.2 22.7 C 33.7 23.1 33.1 23.3 32.4 23.3 C 31.5 23.3 30.8 23 30.3 22.4 C 29.7 21.9 29.5 21.1 29.5 20.1 C 29.5 19 29.7 18.2 30.3 17.6 C 30.8 17.1 31.5 16.8 32.4 16.8 C 33.2 16.8 33.9 17.1 34.4 17.6 C 34.9 18.2 35.2 19 35.2 20 C 35.2 20.1 35.2 20.2 35.2 20.3 C 35.2 20.3 30.5 20.3 30.5 20.3 C 30.6 21 30.8 21.5 31.1 21.9 C 31.5 22.2 31.9 22.4 32.4 22.4 C 32.8 22.4 33.1 22.3 33.4 22.1 C 33.7 21.9 33.9 21.6 34.1 21.1 Z M 30.6 19.4 C 30.6 19.4 34.1 19.4 34.1 19.4 C 34 18.9 33.9 18.5 33.7 18.2 C 33.3 17.8 32.9 17.6 32.4 17.6 C 31.9 17.6 31.5 17.8 31.2 18.1 C 30.8 18.5 30.6 18.9 30.6 19.4 Z M 36.1 21.3 C 36.1 21.3 37.1 21.1 37.1 21.1 C 37.2 21.5 37.3 21.9 37.6 22.1 C 37.9 22.3 38.2 22.4 38.7 22.4 C 39.2 22.4 39.6 22.3 39.8 22.1 C 40 21.9 40.1 21.7 40.1 21.4 C 40.1 21.2 40 21 39.8 20.9 C 39.7 20.8 39.3 20.6 38.8 20.5 C 38 20.3 37.4 20.1 37.1 20 C 36.8 19.9 36.6 19.7 36.5 19.4 C 36.3 19.1 36.2 18.9 36.2 18.6 C 36.2 18.3 36.3 18 36.4 17.8 C 36.6 17.6 36.7 17.4 36.9 17.2 C 37.1 17.1 37.3 17 37.6 16.9 C 37.9 16.8 38.2 16.8 38.5 16.8 C 39 16.8 39.4 16.8 39.8 17 C 40.2 17.1 40.5 17.3 40.6 17.6 C 40.8 17.8 40.9 18.1 41 18.5 C 41 18.5 40 18.7 40 18.7 C 39.9 18.3 39.8 18.1 39.6 17.9 C 39.3 17.7 39 17.6 38.6 17.6 C 38.1 17.6 37.8 17.7 37.6 17.9 C 37.4 18 37.3 18.2 37.3 18.4 C 37.3 18.6 37.3 18.7 37.4 18.8 C 37.5 18.9 37.6 19 37.8 19.1 C 37.9 19.1 38.2 19.2 38.7 19.4 C 39.5 19.6 40 19.7 40.3 19.9 C 40.6 20 40.8 20.2 41 20.4 C 41.1 20.6 41.2 20.9 41.2 21.3 C 41.2 21.7 41.1 22 40.9 22.3 C 40.7 22.6 40.4 22.9 40 23 C 39.6 23.2 39.2 23.3 38.7 23.3 C 37.9 23.3 37.3 23.1 36.9 22.8 C 36.4 22.4 36.2 21.9 36.1 21.3 Z " stroke="none" fill="#000"/>  </g>  <g id="Polygon2648">    <path d="M 14.7 5.7 C 14.7 5.7 15.9 6 15.9 6 C 15.6 6.9 15.2 7.7 14.6 8.1 C 14 8.6 13.2 8.9 12.3 8.9 C 11.4 8.9 10.6 8.7 10 8.3 C 9.5 7.9 9 7.4 8.7 6.7 C 8.4 6 8.3 5.2 8.3 4.4 C 8.3 3.5 8.4 2.7 8.8 2 C 9.1 1.4 9.6 0.9 10.2 0.5 C 10.9 0.2 11.6 0 12.3 0 C 13.2 0 13.9 0.2 14.5 0.7 C 15.1 1.1 15.5 1.7 15.7 2.5 C 15.7 2.5 14.6 2.8 14.6 2.8 C 14.4 2.1 14.1 1.7 13.7 1.4 C 13.4 1.1 12.9 1 12.3 1 C 11.6 1 11.1 1.1 10.6 1.4 C 10.2 1.8 9.9 2.2 9.7 2.7 C 9.5 3.3 9.4 3.8 9.4 4.4 C 9.4 5.1 9.5 5.7 9.8 6.3 C 10 6.8 10.3 7.2 10.8 7.5 C 11.2 7.8 11.7 7.9 12.2 7.9 C 12.8 7.9 13.4 7.7 13.8 7.4 C 14.3 7 14.6 6.4 14.7 5.7 Z M 21.4 8.7 C 21.3 8.5 21.2 8.3 21.2 8 C 20.8 8.3 20.4 8.5 20.1 8.7 C 19.7 8.8 19.3 8.9 18.9 8.9 C 18.2 8.9 17.7 8.7 17.3 8.4 C 17 8 16.8 7.6 16.8 7.1 C 16.8 6.8 16.8 6.5 17 6.3 C 17.1 6 17.3 5.8 17.5 5.7 C 17.7 5.5 18 5.4 18.3 5.3 C 18.5 5.3 18.8 5.2 19.2 5.2 C 20.1 5 20.7 4.9 21.1 4.8 C 21.1 4.6 21.1 4.6 21.1 4.5 C 21.1 4.1 21 3.8 20.8 3.6 C 20.5 3.4 20.1 3.2 19.6 3.2 C 19.1 3.2 18.7 3.3 18.5 3.5 C 18.3 3.7 18.1 4 18 4.4 C 18 4.4 17 4.3 17 4.3 C 17 3.8 17.2 3.5 17.4 3.2 C 17.6 2.9 17.9 2.7 18.3 2.6 C 18.8 2.4 19.2 2.4 19.8 2.4 C 20.3 2.4 20.7 2.4 21.1 2.6 C 21.4 2.7 21.6 2.8 21.8 3 C 21.9 3.2 22.1 3.5 22.1 3.8 C 22.1 3.9 22.2 4.3 22.2 4.7 C 22.2 4.7 22.2 6.1 22.2 6.1 C 22.2 7.1 22.2 7.7 22.2 8 C 22.3 8.2 22.4 8.5 22.5 8.7 C 22.5 8.74 21.4 8.7 21.4 8.7 C 21.4 8.7 21.4 8.74 21.4 8.7 Z M 21.1 5.6 C 20.7 5.8 20.1 5.9 19.4 6 C 18.9 6.1 18.6 6.1 18.5 6.2 C 18.3 6.3 18.1 6.4 18 6.6 C 17.9 6.7 17.9 6.9 17.9 7.1 C 17.9 7.3 18 7.6 18.2 7.8 C 18.4 8 18.7 8.1 19.1 8.1 C 19.6 8.1 19.9 8 20.2 7.8 C 20.5 7.6 20.8 7.4 20.9 7.1 C 21 6.8 21.1 6.5 21.1 6 C 21.1 6 21.1 5.6 21.1 5.6 Z M 23.4 6.9 C 23.4 6.9 24.4 6.7 24.4 6.7 C 24.5 7.1 24.6 7.5 24.9 7.7 C 25.2 7.9 25.6 8 26 8 C 26.5 8 26.9 7.9 27.1 7.7 C 27.3 7.5 27.5 7.3 27.5 7 C 27.5 6.8 27.4 6.6 27.2 6.5 C 27 6.4 26.6 6.2 26.1 6.1 C 25.3 5.9 24.8 5.7 24.5 5.6 C 24.2 5.5 23.9 5.3 23.8 5 C 23.6 4.7 23.6 4.5 23.6 4.2 C 23.6 3.9 23.6 3.6 23.7 3.4 C 23.9 3.2 24 3 24.3 2.8 C 24.4 2.7 24.7 2.6 24.9 2.5 C 25.2 2.4 25.5 2.4 25.8 2.4 C 26.3 2.4 26.8 2.4 27.1 2.6 C 27.5 2.7 27.8 2.9 27.9 3.2 C 28.1 3.4 28.2 3.7 28.3 4.1 C 28.3 4.1 27.3 4.3 27.3 4.3 C 27.2 3.9 27.1 3.7 26.9 3.5 C 26.7 3.3 26.3 3.2 25.9 3.2 C 25.4 3.2 25.1 3.3 24.9 3.5 C 24.7 3.6 24.6 3.8 24.6 4 C 24.6 4.2 24.6 4.3 24.7 4.4 C 24.8 4.5 24.9 4.6 25.1 4.7 C 25.2 4.7 25.5 4.8 26 5 C 26.8 5.2 27.3 5.3 27.6 5.5 C 27.9 5.6 28.1 5.8 28.3 6 C 28.5 6.2 28.5 6.5 28.5 6.9 C 28.5 7.3 28.4 7.6 28.2 7.9 C 28 8.2 27.7 8.5 27.4 8.6 C 27 8.8 26.5 8.9 26 8.9 C 25.2 8.9 24.6 8.7 24.2 8.4 C 23.8 8 23.5 7.5 23.4 6.9 Z M 34.1 6.7 C 34.1 6.7 35.2 6.9 35.2 6.9 C 35 7.5 34.7 8 34.2 8.3 C 33.7 8.7 33.1 8.9 32.4 8.9 C 31.5 8.9 30.8 8.6 30.2 8 C 29.7 7.5 29.4 6.7 29.4 5.7 C 29.4 4.6 29.7 3.8 30.3 3.2 C 30.8 2.7 31.5 2.4 32.4 2.4 C 33.2 2.4 33.9 2.7 34.4 3.2 C 34.9 3.8 35.2 4.6 35.2 5.6 C 35.2 5.7 35.2 5.8 35.2 5.9 C 35.2 5.9 30.5 5.9 30.5 5.9 C 30.6 6.6 30.8 7.1 31.1 7.5 C 31.5 7.8 31.9 8 32.4 8 C 32.8 8 33.1 7.9 33.4 7.7 C 33.7 7.5 33.9 7.2 34.1 6.7 Z M 30.6 5 C 30.6 5 34.1 5 34.1 5 C 34 4.5 33.9 4.1 33.7 3.8 C 33.3 3.4 32.9 3.2 32.4 3.2 C 31.9 3.2 31.5 3.4 31.1 3.7 C 30.8 4.1 30.6 4.5 30.6 5 Z " stroke="none" fill="#000"/>  </g></svg>