<?xml version="1.0" standalone="no"?><!DOCTYPE svg PUBLIC "-//W3C//DTD SVG 1.1//EN" "http://www.w3.org/Graphics/SVG/1.1/DTD/svg11.dtd"><svg xmlns="http://www.w3.org/2000/svg" version="1.1" width="274px" height="75.5px" viewBox="0 -1 274 75.5" style="top:-1px">  <desc>Inspiring Authentic, enthusiastic, committed, supportive, ambassadorial and encouraging</desc>  <defs/>  <g id="Polygon3654">    <path d="M 5.1 59.8 C 5 59.6 4.9 59.3 4.9 59.1 C 4.5 59.4 4.1 59.6 3.7 59.8 C 3.4 59.9 3 60 2.6 60 C 1.9 60 1.4 59.8 1 59.5 C 0.6 59.1 0.4 58.7 0.4 58.2 C 0.4 57.9 0.5 57.6 0.6 57.3 C 0.8 57.1 1 56.9 1.2 56.7 C 1.4 56.6 1.7 56.5 1.9 56.4 C 2.2 56.3 2.5 56.3 2.9 56.2 C 3.7 56.1 4.4 56 4.8 55.9 C 4.8 55.7 4.8 55.6 4.8 55.6 C 4.8 55.2 4.7 54.9 4.5 54.7 C 4.2 54.5 3.8 54.3 3.3 54.3 C 2.8 54.3 2.4 54.4 2.2 54.6 C 1.9 54.8 1.8 55.1 1.6 55.5 C 1.6 55.5 0.6 55.4 0.6 55.4 C 0.7 54.9 0.9 54.6 1.1 54.3 C 1.3 54 1.6 53.8 2 53.7 C 2.4 53.5 2.9 53.5 3.4 53.5 C 4 53.5 4.4 53.5 4.7 53.6 C 5 53.8 5.3 53.9 5.4 54.1 C 5.6 54.3 5.7 54.5 5.8 54.8 C 5.8 55 5.8 55.3 5.8 55.8 C 5.8 55.8 5.8 57.2 5.8 57.2 C 5.8 58.2 5.9 58.8 5.9 59.1 C 5.9 59.3 6 59.6 6.2 59.8 C 6.16 59.82 5.1 59.8 5.1 59.8 C 5.1 59.8 5.06 59.82 5.1 59.8 Z M 4.8 56.7 C 4.4 56.9 3.8 57 3 57.1 C 2.6 57.2 2.3 57.2 2.1 57.3 C 1.9 57.4 1.8 57.5 1.7 57.7 C 1.6 57.8 1.6 58 1.6 58.2 C 1.6 58.4 1.7 58.7 1.9 58.9 C 2.1 59 2.4 59.1 2.8 59.1 C 3.2 59.1 3.6 59 3.9 58.9 C 4.2 58.7 4.4 58.5 4.6 58.1 C 4.7 57.9 4.8 57.6 4.8 57.1 C 4.8 57.1 4.8 56.7 4.8 56.7 Z M 7.5 59.8 L 7.5 53.6 L 8.4 53.6 C 8.4 53.6 8.41 54.47 8.4 54.5 C 8.6 54.2 8.9 53.9 9.2 53.7 C 9.5 53.6 9.9 53.5 10.3 53.5 C 10.8 53.5 11.1 53.6 11.4 53.7 C 11.7 53.9 11.9 54.2 12.1 54.6 C 12.5 53.8 13.2 53.5 14 53.5 C 14.6 53.5 15.1 53.6 15.4 54 C 15.7 54.3 15.9 54.8 15.9 55.6 C 15.9 55.55 15.9 59.8 15.9 59.8 L 14.8 59.8 C 14.8 59.8 14.85 55.9 14.8 55.9 C 14.8 55.5 14.8 55.2 14.7 55 C 14.7 54.8 14.6 54.7 14.4 54.5 C 14.2 54.4 14 54.4 13.7 54.4 C 13.3 54.4 12.9 54.5 12.7 54.8 C 12.4 55.1 12.2 55.6 12.2 56.2 C 12.22 56.21 12.2 59.8 12.2 59.8 L 11.2 59.8 C 11.2 59.8 11.16 55.78 11.2 55.8 C 11.2 55.3 11.1 55 10.9 54.7 C 10.7 54.5 10.5 54.4 10.1 54.4 C 9.8 54.4 9.5 54.5 9.2 54.6 C 9 54.8 8.8 55 8.7 55.3 C 8.6 55.6 8.5 56 8.5 56.6 C 8.52 56.6 8.5 59.8 8.5 59.8 L 7.5 59.8 Z M 18.4 59.8 L 17.5 59.8 L 17.5 51.2 L 18.5 51.2 C 18.5 51.2 18.51 54.3 18.5 54.3 C 19 53.7 19.5 53.5 20.2 53.5 C 20.6 53.5 21 53.5 21.3 53.7 C 21.6 53.8 21.9 54.1 22.1 54.3 C 22.4 54.6 22.5 55 22.7 55.4 C 22.8 55.7 22.9 56.2 22.9 56.6 C 22.9 57.7 22.6 58.5 22.1 59.1 C 21.5 59.7 20.9 60 20.2 60 C 19.4 60 18.9 59.7 18.4 59 C 18.43 59.04 18.4 59.8 18.4 59.8 Z M 18.4 56.7 C 18.4 57.4 18.5 58 18.7 58.3 C 19.1 58.8 19.5 59.1 20.1 59.1 C 20.5 59.1 20.9 58.9 21.3 58.5 C 21.6 58.1 21.8 57.5 21.8 56.7 C 21.8 55.9 21.6 55.3 21.3 54.9 C 21 54.5 20.6 54.3 20.1 54.3 C 19.7 54.3 19.3 54.5 18.9 54.9 C 18.6 55.3 18.4 55.9 18.4 56.7 Z M 28.4 59.8 C 28.3 59.6 28.2 59.3 28.2 59.1 C 27.8 59.4 27.4 59.6 27.1 59.8 C 26.7 59.9 26.3 60 25.9 60 C 25.2 60 24.7 59.8 24.3 59.5 C 24 59.1 23.8 58.7 23.8 58.2 C 23.8 57.9 23.8 57.6 24 57.3 C 24.1 57.1 24.3 56.9 24.5 56.7 C 24.8 56.6 25 56.5 25.3 56.4 C 25.5 56.3 25.8 56.3 26.2 56.2 C 27.1 56.1 27.7 56 28.1 55.9 C 28.1 55.7 28.1 55.6 28.1 55.6 C 28.1 55.2 28 54.9 27.8 54.7 C 27.5 54.5 27.1 54.3 26.6 54.3 C 26.1 54.3 25.8 54.4 25.5 54.6 C 25.3 54.8 25.1 55.1 25 55.5 C 25 55.5 24 55.4 24 55.4 C 24.1 54.9 24.2 54.6 24.4 54.3 C 24.6 54 24.9 53.8 25.4 53.7 C 25.8 53.5 26.2 53.5 26.8 53.5 C 27.3 53.5 27.7 53.5 28.1 53.6 C 28.4 53.8 28.6 53.9 28.8 54.1 C 28.9 54.3 29.1 54.5 29.1 54.8 C 29.2 55 29.2 55.3 29.2 55.8 C 29.2 55.8 29.2 57.2 29.2 57.2 C 29.2 58.2 29.2 58.8 29.2 59.1 C 29.3 59.3 29.4 59.6 29.5 59.8 C 29.51 59.82 28.4 59.8 28.4 59.8 C 28.4 59.8 28.41 59.82 28.4 59.8 Z M 28.1 56.7 C 27.7 56.9 27.2 57 26.4 57.1 C 26 57.2 25.6 57.2 25.5 57.3 C 25.3 57.4 25.1 57.5 25 57.7 C 25 57.8 24.9 58 24.9 58.2 C 24.9 58.4 25 58.7 25.2 58.9 C 25.4 59 25.7 59.1 26.2 59.1 C 26.6 59.1 26.9 59 27.2 58.9 C 27.6 58.7 27.8 58.5 27.9 58.1 C 28.1 57.9 28.1 57.6 28.1 57.1 C 28.1 57.1 28.1 56.7 28.1 56.7 Z M 30.4 58 C 30.4 58 31.4 57.8 31.4 57.8 C 31.5 58.2 31.7 58.5 31.9 58.8 C 32.2 59 32.6 59.1 33 59.1 C 33.5 59.1 33.9 59 34.1 58.8 C 34.4 58.6 34.5 58.4 34.5 58.1 C 34.5 57.9 34.4 57.7 34.2 57.5 C 34 57.5 33.7 57.3 33.1 57.2 C 32.3 57 31.8 56.8 31.5 56.7 C 31.2 56.5 30.9 56.3 30.8 56.1 C 30.6 55.8 30.6 55.6 30.6 55.3 C 30.6 55 30.6 54.7 30.8 54.5 C 30.9 54.2 31.1 54.1 31.3 53.9 C 31.4 53.8 31.7 53.7 31.9 53.6 C 32.2 53.5 32.5 53.5 32.9 53.5 C 33.3 53.5 33.8 53.5 34.1 53.7 C 34.5 53.8 34.8 54 35 54.2 C 35.1 54.5 35.3 54.8 35.3 55.2 C 35.3 55.2 34.3 55.3 34.3 55.3 C 34.2 55 34.1 54.8 33.9 54.6 C 33.7 54.4 33.3 54.3 32.9 54.3 C 32.4 54.3 32.1 54.4 31.9 54.6 C 31.7 54.7 31.6 54.9 31.6 55.1 C 31.6 55.3 31.6 55.4 31.7 55.5 C 31.8 55.6 31.9 55.7 32.1 55.8 C 32.2 55.8 32.5 55.9 33 56.1 C 33.8 56.3 34.3 56.4 34.6 56.5 C 34.9 56.7 35.1 56.9 35.3 57.1 C 35.5 57.3 35.6 57.6 35.6 58 C 35.6 58.3 35.5 58.7 35.2 59 C 35 59.3 34.7 59.5 34.4 59.7 C 34 59.9 33.5 60 33 60 C 32.2 60 31.6 59.8 31.2 59.5 C 30.8 59.1 30.5 58.6 30.4 58 Z M 36.4 58 C 36.4 58 37.4 57.8 37.4 57.8 C 37.5 58.2 37.7 58.5 37.9 58.8 C 38.2 59 38.6 59.1 39 59.1 C 39.5 59.1 39.9 59 40.1 58.8 C 40.4 58.6 40.5 58.4 40.5 58.1 C 40.5 57.9 40.4 57.7 40.2 57.5 C 40 57.5 39.7 57.3 39.1 57.2 C 38.3 57 37.8 56.8 37.5 56.7 C 37.2 56.5 36.9 56.3 36.8 56.1 C 36.6 55.8 36.6 55.6 36.6 55.3 C 36.6 55 36.6 54.7 36.8 54.5 C 36.9 54.2 37.1 54.1 37.3 53.9 C 37.4 53.8 37.7 53.7 37.9 53.6 C 38.2 53.5 38.5 53.5 38.9 53.5 C 39.3 53.5 39.8 53.5 40.1 53.7 C 40.5 53.8 40.8 54 41 54.2 C 41.1 54.5 41.3 54.8 41.3 55.2 C 41.3 55.2 40.3 55.3 40.3 55.3 C 40.2 55 40.1 54.8 39.9 54.6 C 39.7 54.4 39.3 54.3 38.9 54.3 C 38.4 54.3 38.1 54.4 37.9 54.6 C 37.7 54.7 37.6 54.9 37.6 55.1 C 37.6 55.3 37.6 55.4 37.7 55.5 C 37.8 55.6 37.9 55.7 38.1 55.8 C 38.2 55.8 38.5 55.9 39 56.1 C 39.8 56.3 40.3 56.4 40.6 56.5 C 40.9 56.7 41.1 56.9 41.3 57.1 C 41.5 57.3 41.6 57.6 41.6 58 C 41.6 58.3 41.5 58.7 41.2 59 C 41 59.3 40.7 59.5 40.4 59.7 C 40 59.9 39.5 60 39 60 C 38.2 60 37.6 59.8 37.2 59.5 C 36.8 59.1 36.5 58.6 36.4 58 Z M 47.1 59.8 C 47 59.6 46.9 59.3 46.9 59.1 C 46.5 59.4 46.1 59.6 45.7 59.8 C 45.4 59.9 45 60 44.6 60 C 43.9 60 43.4 59.8 43 59.5 C 42.6 59.1 42.5 58.7 42.5 58.2 C 42.5 57.9 42.5 57.6 42.7 57.3 C 42.8 57.1 43 56.9 43.2 56.7 C 43.4 56.6 43.7 56.5 44 56.4 C 44.2 56.3 44.5 56.3 44.9 56.2 C 45.8 56.1 46.4 56 46.8 55.9 C 46.8 55.7 46.8 55.6 46.8 55.6 C 46.8 55.2 46.7 54.9 46.5 54.7 C 46.2 54.5 45.8 54.3 45.3 54.3 C 44.8 54.3 44.4 54.4 44.2 54.6 C 44 54.8 43.8 55.1 43.7 55.5 C 43.7 55.5 42.6 55.4 42.6 55.4 C 42.7 54.9 42.9 54.6 43.1 54.3 C 43.3 54 43.6 53.8 44 53.7 C 44.4 53.5 44.9 53.5 45.4 53.5 C 46 53.5 46.4 53.5 46.7 53.6 C 47.1 53.8 47.3 53.9 47.5 54.1 C 47.6 54.3 47.7 54.5 47.8 54.8 C 47.8 55 47.8 55.3 47.8 55.8 C 47.8 55.8 47.8 57.2 47.8 57.2 C 47.8 58.2 47.9 58.8 47.9 59.1 C 48 59.3 48 59.6 48.2 59.8 C 48.18 59.82 47.1 59.8 47.1 59.8 C 47.1 59.8 47.08 59.82 47.1 59.8 Z M 46.8 56.7 C 46.4 56.9 45.8 57 45.1 57.1 C 44.6 57.2 44.3 57.2 44.1 57.3 C 44 57.4 43.8 57.5 43.7 57.7 C 43.6 57.8 43.6 58 43.6 58.2 C 43.6 58.4 43.7 58.7 43.9 58.9 C 44.1 59 44.4 59.1 44.8 59.1 C 45.2 59.1 45.6 59 45.9 58.9 C 46.2 58.7 46.5 58.5 46.6 58.1 C 46.7 57.9 46.8 57.6 46.8 57.1 C 46.8 57.1 46.8 56.7 46.8 56.7 Z M 53.5 59.8 C 53.5 59.8 53.52 59.04 53.5 59 C 53.1 59.7 52.5 60 51.8 60 C 51.3 60 50.8 59.8 50.4 59.6 C 50 59.3 49.7 58.9 49.4 58.4 C 49.2 57.9 49.1 57.4 49.1 56.7 C 49.1 56.1 49.2 55.5 49.4 55 C 49.6 54.5 49.9 54.1 50.3 53.9 C 50.8 53.6 51.2 53.5 51.7 53.5 C 52.1 53.5 52.4 53.5 52.7 53.7 C 53 53.9 53.3 54.1 53.4 54.3 C 53.45 54.32 53.4 51.2 53.4 51.2 L 54.5 51.2 L 54.5 59.8 L 53.5 59.8 Z M 50.2 56.7 C 50.2 57.5 50.4 58.1 50.7 58.5 C 51 58.9 51.4 59.1 51.9 59.1 C 52.3 59.1 52.7 58.9 53.1 58.5 C 53.4 58.2 53.5 57.6 53.5 56.8 C 53.5 56 53.4 55.3 53 54.9 C 52.7 54.5 52.3 54.3 51.8 54.3 C 51.4 54.3 51 54.5 50.7 54.9 C 50.3 55.3 50.2 55.9 50.2 56.7 Z M 55.8 56.7 C 55.8 55.6 56.1 54.7 56.7 54.2 C 57.3 53.7 57.9 53.5 58.7 53.5 C 59.5 53.5 60.2 53.7 60.8 54.3 C 61.3 54.9 61.6 55.6 61.6 56.6 C 61.6 57.4 61.5 58.1 61.2 58.5 C 61 59 60.6 59.3 60.2 59.6 C 59.7 59.8 59.2 60 58.7 60 C 57.8 60 57.1 59.7 56.6 59.1 C 56 58.6 55.8 57.8 55.8 56.7 Z M 56.8 56.7 C 56.8 57.5 57 58.1 57.4 58.5 C 57.7 58.9 58.2 59.1 58.7 59.1 C 59.2 59.1 59.6 58.9 60 58.5 C 60.3 58.1 60.5 57.5 60.5 56.7 C 60.5 55.9 60.3 55.3 60 54.9 C 59.6 54.5 59.2 54.3 58.7 54.3 C 58.2 54.3 57.7 54.5 57.4 54.9 C 57 55.3 56.8 55.9 56.8 56.7 Z M 62.8 59.8 L 62.8 53.6 L 63.8 53.6 C 63.8 53.6 63.77 54.54 63.8 54.5 C 64 54.1 64.2 53.8 64.4 53.7 C 64.6 53.5 64.9 53.5 65.1 53.5 C 65.5 53.5 65.8 53.6 66.2 53.8 C 66.2 53.8 65.8 54.8 65.8 54.8 C 65.6 54.6 65.3 54.6 65.1 54.6 C 64.8 54.6 64.6 54.6 64.4 54.8 C 64.3 54.9 64.1 55.1 64 55.3 C 63.9 55.7 63.9 56.1 63.9 56.6 C 63.87 56.57 63.9 59.8 63.9 59.8 L 62.8 59.8 Z M 66.8 52.4 L 66.8 51.2 L 67.9 51.2 L 67.9 52.4 L 66.8 52.4 Z M 66.8 59.8 L 66.8 53.6 L 67.9 53.6 L 67.9 59.8 L 66.8 59.8 Z M 73.8 59.8 C 73.7 59.6 73.6 59.3 73.6 59.1 C 73.2 59.4 72.8 59.6 72.4 59.8 C 72.1 59.9 71.7 60 71.3 60 C 70.6 60 70.1 59.8 69.7 59.5 C 69.3 59.1 69.1 58.7 69.1 58.2 C 69.1 57.9 69.2 57.6 69.3 57.3 C 69.5 57.1 69.7 56.9 69.9 56.7 C 70.1 56.6 70.4 56.5 70.6 56.4 C 70.9 56.3 71.2 56.3 71.6 56.2 C 72.4 56.1 73.1 56 73.5 55.9 C 73.5 55.7 73.5 55.6 73.5 55.6 C 73.5 55.2 73.4 54.9 73.2 54.7 C 72.9 54.5 72.5 54.3 72 54.3 C 71.5 54.3 71.1 54.4 70.9 54.6 C 70.6 54.8 70.5 55.1 70.3 55.5 C 70.3 55.5 69.3 55.4 69.3 55.4 C 69.4 54.9 69.6 54.6 69.8 54.3 C 70 54 70.3 53.8 70.7 53.7 C 71.1 53.5 71.6 53.5 72.1 53.5 C 72.7 53.5 73.1 53.5 73.4 53.6 C 73.7 53.8 74 53.9 74.2 54.1 C 74.3 54.3 74.4 54.5 74.5 54.8 C 74.5 55 74.5 55.3 74.5 55.8 C 74.5 55.8 74.5 57.2 74.5 57.2 C 74.5 58.2 74.6 58.8 74.6 59.1 C 74.6 59.3 74.7 59.6 74.9 59.8 C 74.87 59.82 73.8 59.8 73.8 59.8 C 73.8 59.8 73.76 59.82 73.8 59.8 Z M 73.5 56.7 C 73.1 56.9 72.5 57 71.7 57.1 C 71.3 57.2 71 57.2 70.8 57.3 C 70.6 57.4 70.5 57.5 70.4 57.7 C 70.3 57.8 70.3 58 70.3 58.2 C 70.3 58.4 70.4 58.7 70.6 58.9 C 70.8 59 71.1 59.1 71.5 59.1 C 71.9 59.1 72.3 59 72.6 58.9 C 72.9 58.7 73.1 58.5 73.3 58.1 C 73.4 57.9 73.5 57.6 73.5 57.1 C 73.5 57.1 73.5 56.7 73.5 56.7 Z M 76.1 59.8 L 76.1 51.2 L 77.2 51.2 L 77.2 59.8 L 76.1 59.8 Z M 86.4 59.8 C 86.3 59.6 86.3 59.3 86.2 59.1 C 85.8 59.4 85.5 59.6 85.1 59.8 C 84.7 59.9 84.3 60 83.9 60 C 83.3 60 82.7 59.8 82.4 59.5 C 82 59.1 81.8 58.7 81.8 58.2 C 81.8 57.9 81.9 57.6 82 57.3 C 82.2 57.1 82.3 56.9 82.6 56.7 C 82.8 56.6 83 56.5 83.3 56.4 C 83.5 56.3 83.8 56.3 84.3 56.2 C 85.1 56.1 85.7 56 86.1 55.9 C 86.1 55.7 86.1 55.6 86.1 55.6 C 86.1 55.2 86 54.9 85.8 54.7 C 85.6 54.5 85.2 54.3 84.6 54.3 C 84.1 54.3 83.8 54.4 83.5 54.6 C 83.3 54.8 83.1 55.1 83 55.5 C 83 55.5 82 55.4 82 55.4 C 82.1 54.9 82.2 54.6 82.5 54.3 C 82.7 54 83 53.8 83.4 53.7 C 83.8 53.5 84.3 53.5 84.8 53.5 C 85.3 53.5 85.8 53.5 86.1 53.6 C 86.4 53.8 86.7 53.9 86.8 54.1 C 87 54.3 87.1 54.5 87.2 54.8 C 87.2 55 87.2 55.3 87.2 55.8 C 87.2 55.8 87.2 57.2 87.2 57.2 C 87.2 58.2 87.2 58.8 87.3 59.1 C 87.3 59.3 87.4 59.6 87.5 59.8 C 87.54 59.82 86.4 59.8 86.4 59.8 C 86.4 59.8 86.44 59.82 86.4 59.8 Z M 86.1 56.7 C 85.8 56.9 85.2 57 84.4 57.1 C 84 57.2 83.7 57.2 83.5 57.3 C 83.3 57.4 83.2 57.5 83.1 57.7 C 83 57.8 82.9 58 82.9 58.2 C 82.9 58.4 83 58.7 83.3 58.9 C 83.5 59 83.8 59.1 84.2 59.1 C 84.6 59.1 85 59 85.3 58.9 C 85.6 58.7 85.8 58.5 86 58.1 C 86.1 57.9 86.1 57.6 86.1 57.1 C 86.1 57.1 86.1 56.7 86.1 56.7 Z M 88.8 59.8 L 88.8 53.6 L 89.8 53.6 C 89.8 53.6 89.79 54.49 89.8 54.5 C 90.2 53.8 90.9 53.5 91.8 53.5 C 92.1 53.5 92.5 53.5 92.8 53.7 C 93.1 53.8 93.4 54 93.5 54.2 C 93.7 54.4 93.8 54.7 93.8 55 C 93.9 55.2 93.9 55.5 93.9 56 C 93.9 56 93.9 59.8 93.9 59.8 L 92.8 59.8 C 92.8 59.8 92.84 56.04 92.8 56 C 92.8 55.6 92.8 55.3 92.7 55.1 C 92.6 54.9 92.5 54.7 92.3 54.6 C 92.1 54.4 91.8 54.4 91.5 54.4 C 91.1 54.4 90.7 54.5 90.4 54.8 C 90.1 55.1 89.9 55.6 89.9 56.4 C 89.89 56.43 89.9 59.8 89.9 59.8 L 88.8 59.8 Z M 99.6 59.8 C 99.6 59.8 99.55 59.04 99.6 59 C 99.2 59.7 98.6 60 97.8 60 C 97.3 60 96.9 59.8 96.4 59.6 C 96 59.3 95.7 58.9 95.5 58.4 C 95.2 57.9 95.1 57.4 95.1 56.7 C 95.1 56.1 95.2 55.5 95.4 55 C 95.7 54.5 96 54.1 96.4 53.9 C 96.8 53.6 97.3 53.5 97.8 53.5 C 98.1 53.5 98.5 53.5 98.8 53.7 C 99.1 53.9 99.3 54.1 99.5 54.3 C 99.48 54.32 99.5 51.2 99.5 51.2 L 100.5 51.2 L 100.5 59.8 L 99.6 59.8 Z M 96.2 56.7 C 96.2 57.5 96.4 58.1 96.7 58.5 C 97.1 58.9 97.5 59.1 97.9 59.1 C 98.4 59.1 98.8 58.9 99.1 58.5 C 99.4 58.2 99.6 57.6 99.6 56.8 C 99.6 56 99.4 55.3 99.1 54.9 C 98.7 54.5 98.3 54.3 97.9 54.3 C 97.4 54.3 97 54.5 96.7 54.9 C 96.4 55.3 96.2 55.9 96.2 56.7 Z M 109.8 57.8 C 109.8 57.8 110.9 58 110.9 58 C 110.7 58.6 110.4 59.1 109.9 59.4 C 109.5 59.8 108.9 60 108.1 60 C 107.2 60 106.5 59.7 106 59.1 C 105.4 58.6 105.2 57.8 105.2 56.8 C 105.2 55.7 105.4 54.9 106 54.3 C 106.5 53.8 107.2 53.5 108.1 53.5 C 108.9 53.5 109.6 53.7 110.1 54.3 C 110.6 54.9 110.9 55.7 110.9 56.7 C 110.9 56.8 110.9 56.9 110.9 57 C 110.9 57 106.3 57 106.3 57 C 106.3 57.7 106.5 58.2 106.8 58.6 C 107.2 58.9 107.6 59.1 108.1 59.1 C 108.5 59.1 108.9 59 109.1 58.8 C 109.4 58.6 109.6 58.3 109.8 57.8 Z M 106.3 56.1 C 106.3 56.1 109.8 56.1 109.8 56.1 C 109.7 55.6 109.6 55.2 109.4 54.9 C 109.1 54.5 108.6 54.3 108.1 54.3 C 107.6 54.3 107.2 54.5 106.9 54.8 C 106.5 55.1 106.4 55.6 106.3 56.1 Z M 112.2 59.8 L 112.2 53.6 L 113.1 53.6 C 113.1 53.6 113.14 54.49 113.1 54.5 C 113.6 53.8 114.3 53.5 115.1 53.5 C 115.5 53.5 115.8 53.5 116.2 53.7 C 116.5 53.8 116.7 54 116.9 54.2 C 117 54.4 117.1 54.7 117.2 55 C 117.2 55.2 117.3 55.5 117.3 56 C 117.25 56 117.3 59.8 117.3 59.8 L 116.2 59.8 C 116.2 59.8 116.2 56.04 116.2 56 C 116.2 55.6 116.2 55.3 116.1 55.1 C 116 54.9 115.8 54.7 115.6 54.6 C 115.4 54.4 115.2 54.4 114.9 54.4 C 114.5 54.4 114.1 54.5 113.7 54.8 C 113.4 55.1 113.3 55.6 113.3 56.4 C 113.25 56.43 113.3 59.8 113.3 59.8 L 112.2 59.8 Z M 122.9 57.5 C 122.9 57.5 124 57.7 124 57.7 C 123.9 58.4 123.6 59 123.1 59.4 C 122.6 59.8 122.1 60 121.4 60 C 120.5 60 119.8 59.7 119.3 59.1 C 118.8 58.6 118.5 57.8 118.5 56.7 C 118.5 56.1 118.7 55.5 118.9 55 C 119.1 54.5 119.4 54.1 119.9 53.8 C 120.4 53.6 120.8 53.5 121.4 53.5 C 122.1 53.5 122.6 53.6 123 54 C 123.5 54.3 123.7 54.8 123.9 55.4 C 123.9 55.4 122.8 55.6 122.8 55.6 C 122.7 55.2 122.6 54.9 122.3 54.6 C 122.1 54.4 121.8 54.3 121.4 54.3 C 120.9 54.3 120.5 54.5 120.1 54.9 C 119.8 55.3 119.6 55.9 119.6 56.7 C 119.6 57.5 119.8 58.2 120.1 58.5 C 120.4 58.9 120.8 59.1 121.4 59.1 C 121.8 59.1 122.1 59 122.4 58.7 C 122.7 58.5 122.9 58.1 122.9 57.5 Z M 124.5 56.7 C 124.5 55.6 124.8 54.7 125.4 54.2 C 126 53.7 126.6 53.5 127.4 53.5 C 128.3 53.5 128.9 53.7 129.5 54.3 C 130 54.9 130.3 55.6 130.3 56.6 C 130.3 57.4 130.2 58.1 129.9 58.5 C 129.7 59 129.4 59.3 128.9 59.6 C 128.4 59.8 127.9 60 127.4 60 C 126.5 60 125.8 59.7 125.3 59.1 C 124.7 58.6 124.5 57.8 124.5 56.7 Z M 125.6 56.7 C 125.6 57.5 125.7 58.1 126.1 58.5 C 126.4 58.9 126.9 59.1 127.4 59.1 C 127.9 59.1 128.4 58.9 128.7 58.5 C 129 58.1 129.2 57.5 129.2 56.7 C 129.2 55.9 129 55.3 128.7 54.9 C 128.3 54.5 127.9 54.3 127.4 54.3 C 126.9 54.3 126.4 54.5 126.1 54.9 C 125.7 55.3 125.6 55.9 125.6 56.7 Z M 135.6 59.8 C 135.6 59.8 135.62 58.91 135.6 58.9 C 135.1 59.6 134.5 60 133.6 60 C 133.3 60 132.9 59.9 132.6 59.8 C 132.3 59.6 132.1 59.4 131.9 59.2 C 131.8 59 131.6 58.8 131.6 58.4 C 131.5 58.2 131.5 57.9 131.5 57.5 C 131.52 57.46 131.5 53.6 131.5 53.6 L 132.6 53.6 C 132.6 53.6 132.57 57.05 132.6 57.1 C 132.6 57.6 132.6 58 132.6 58.2 C 132.7 58.4 132.8 58.7 133.1 58.8 C 133.3 59 133.5 59.1 133.9 59.1 C 134.2 59.1 134.5 59 134.7 58.8 C 135 58.7 135.2 58.4 135.3 58.2 C 135.5 57.9 135.5 57.5 135.5 56.9 C 135.51 56.94 135.5 53.6 135.5 53.6 L 136.6 53.6 L 136.6 59.8 L 135.6 59.8 Z M 138.2 59.8 L 138.2 53.6 L 139.2 53.6 C 139.2 53.6 139.15 54.54 139.2 54.5 C 139.4 54.1 139.6 53.8 139.8 53.7 C 140 53.5 140.3 53.5 140.5 53.5 C 140.9 53.5 141.2 53.6 141.6 53.8 C 141.6 53.8 141.2 54.8 141.2 54.8 C 141 54.6 140.7 54.6 140.4 54.6 C 140.2 54.6 140 54.6 139.8 54.8 C 139.6 54.9 139.5 55.1 139.4 55.3 C 139.3 55.7 139.3 56.1 139.3 56.6 C 139.26 56.57 139.3 59.8 139.3 59.8 L 138.2 59.8 Z M 146.5 59.8 C 146.4 59.6 146.3 59.3 146.3 59.1 C 145.9 59.4 145.5 59.6 145.1 59.8 C 144.8 59.9 144.4 60 144 60 C 143.3 60 142.8 59.8 142.4 59.5 C 142 59.1 141.9 58.7 141.9 58.2 C 141.9 57.9 141.9 57.6 142.1 57.3 C 142.2 57.1 142.4 56.9 142.6 56.7 C 142.8 56.6 143.1 56.5 143.4 56.4 C 143.6 56.3 143.9 56.3 144.3 56.2 C 145.2 56.1 145.8 56 146.2 55.9 C 146.2 55.7 146.2 55.6 146.2 55.6 C 146.2 55.2 146.1 54.9 145.9 54.7 C 145.6 54.5 145.2 54.3 144.7 54.3 C 144.2 54.3 143.8 54.4 143.6 54.6 C 143.4 54.8 143.2 55.1 143.1 55.5 C 143.1 55.5 142 55.4 142 55.4 C 142.1 54.9 142.3 54.6 142.5 54.3 C 142.7 54 143 53.8 143.4 53.7 C 143.8 53.5 144.3 53.5 144.8 53.5 C 145.4 53.5 145.8 53.5 146.1 53.6 C 146.5 53.8 146.7 53.9 146.9 54.1 C 147 54.3 147.1 54.5 147.2 54.8 C 147.2 55 147.3 55.3 147.3 55.8 C 147.3 55.8 147.3 57.2 147.3 57.2 C 147.3 58.2 147.3 58.8 147.3 59.1 C 147.4 59.3 147.5 59.6 147.6 59.8 C 147.59 59.82 146.5 59.8 146.5 59.8 C 146.5 59.8 146.48 59.82 146.5 59.8 Z M 146.2 56.7 C 145.8 56.9 145.2 57 144.5 57.1 C 144 57.2 143.7 57.2 143.5 57.3 C 143.4 57.4 143.2 57.5 143.1 57.7 C 143 57.8 143 58 143 58.2 C 143 58.4 143.1 58.7 143.3 58.9 C 143.5 59 143.8 59.1 144.2 59.1 C 144.6 59.1 145 59 145.3 58.9 C 145.6 58.7 145.9 58.5 146 58.1 C 146.1 57.9 146.2 57.6 146.2 57.1 C 146.2 57.1 146.2 56.7 146.2 56.7 Z M 148.7 60.3 C 148.7 60.3 149.7 60.5 149.7 60.5 C 149.8 60.8 149.9 61 150.1 61.2 C 150.3 61.4 150.7 61.5 151.1 61.5 C 151.6 61.5 152 61.4 152.3 61.2 C 152.5 61 152.7 60.7 152.8 60.4 C 152.9 60.1 152.9 59.7 152.9 59 C 152.4 59.6 151.9 59.8 151.2 59.8 C 150.3 59.8 149.7 59.5 149.2 58.9 C 148.7 58.3 148.5 57.5 148.5 56.7 C 148.5 56.1 148.6 55.5 148.8 55 C 149 54.5 149.3 54.1 149.7 53.9 C 150.1 53.6 150.6 53.5 151.2 53.5 C 151.9 53.5 152.5 53.8 153 54.4 C 152.99 54.35 153 53.6 153 53.6 L 154 53.6 C 154 53.6 153.97 58.98 154 59 C 154 59.9 153.9 60.6 153.7 61 C 153.5 61.4 153.2 61.8 152.7 62 C 152.3 62.2 151.8 62.3 151.2 62.3 C 150.4 62.3 149.8 62.2 149.4 61.8 C 148.9 61.5 148.7 61 148.7 60.3 Z M 149.6 56.6 C 149.6 57.4 149.7 58 150.1 58.4 C 150.4 58.8 150.8 59 151.3 59 C 151.8 59 152.2 58.8 152.5 58.4 C 152.8 58 153 57.4 153 56.6 C 153 55.9 152.8 55.3 152.5 54.9 C 152.1 54.5 151.7 54.3 151.3 54.3 C 150.8 54.3 150.4 54.5 150.1 54.9 C 149.7 55.3 149.6 55.9 149.6 56.6 Z M 155.6 52.4 L 155.6 51.2 L 156.6 51.2 L 156.6 52.4 L 155.6 52.4 Z M 155.6 59.8 L 155.6 53.6 L 156.6 53.6 L 156.6 59.8 L 155.6 59.8 Z M 158.2 59.8 L 158.2 53.6 L 159.2 53.6 C 159.2 53.6 159.18 54.49 159.2 54.5 C 159.6 53.8 160.3 53.5 161.2 53.5 C 161.5 53.5 161.9 53.5 162.2 53.7 C 162.5 53.8 162.7 54 162.9 54.2 C 163.1 54.4 163.2 54.7 163.2 55 C 163.3 55.2 163.3 55.5 163.3 56 C 163.28 56 163.3 59.8 163.3 59.8 L 162.2 59.8 C 162.2 59.8 162.23 56.04 162.2 56 C 162.2 55.6 162.2 55.3 162.1 55.1 C 162 54.9 161.9 54.7 161.7 54.6 C 161.5 54.4 161.2 54.4 160.9 54.4 C 160.5 54.4 160.1 54.5 159.8 54.8 C 159.4 55.1 159.3 55.6 159.3 56.4 C 159.28 56.43 159.3 59.8 159.3 59.8 L 158.2 59.8 Z M 164.7 60.3 C 164.7 60.3 165.7 60.5 165.7 60.5 C 165.8 60.8 165.9 61 166.1 61.2 C 166.4 61.4 166.7 61.5 167.2 61.5 C 167.7 61.5 168 61.4 168.3 61.2 C 168.6 61 168.7 60.7 168.8 60.4 C 168.9 60.1 168.9 59.7 168.9 59 C 168.4 59.6 167.9 59.8 167.2 59.8 C 166.3 59.8 165.7 59.5 165.2 58.9 C 164.7 58.3 164.5 57.5 164.5 56.7 C 164.5 56.1 164.6 55.5 164.8 55 C 165 54.5 165.3 54.1 165.8 53.9 C 166.2 53.6 166.6 53.5 167.2 53.5 C 167.9 53.5 168.5 53.8 169 54.4 C 169.01 54.35 169 53.6 169 53.6 L 170 53.6 C 170 53.6 169.98 58.98 170 59 C 170 59.9 169.9 60.6 169.7 61 C 169.5 61.4 169.2 61.8 168.7 62 C 168.3 62.2 167.8 62.3 167.2 62.3 C 166.4 62.3 165.8 62.2 165.4 61.8 C 164.9 61.5 164.7 61 164.7 60.3 Z M 165.6 56.6 C 165.6 57.4 165.7 58 166.1 58.4 C 166.4 58.8 166.8 59 167.3 59 C 167.8 59 168.2 58.8 168.5 58.4 C 168.8 58 169 57.4 169 56.6 C 169 55.9 168.8 55.3 168.5 54.9 C 168.2 54.5 167.7 54.3 167.3 54.3 C 166.8 54.3 166.4 54.5 166.1 54.9 C 165.7 55.3 165.6 55.9 165.6 56.6 Z " stroke="none" fill="#ffffff"/>  </g>  <g id="Polygon3653">    <path d="M 0 45.4 L 3.3 36.8 L 4.5 36.8 L 8 45.4 L 6.7 45.4 L 5.7 42.8 L 2.1 42.8 L 1.2 45.4 L 0 45.4 Z M 2.5 41.9 L 5.4 41.9 C 5.4 41.9 4.48 39.52 4.5 39.5 C 4.2 38.8 4 38.2 3.9 37.7 C 3.8 38.3 3.6 38.8 3.4 39.4 C 3.4 39.38 2.5 41.9 2.5 41.9 Z M 12.9 45.4 C 12.9 45.4 12.87 44.51 12.9 44.5 C 12.4 45.2 11.7 45.6 10.9 45.6 C 10.5 45.6 10.2 45.5 9.9 45.4 C 9.6 45.2 9.3 45 9.2 44.8 C 9 44.6 8.9 44.4 8.8 44 C 8.8 43.8 8.8 43.5 8.8 43.1 C 8.77 43.06 8.8 39.2 8.8 39.2 L 9.8 39.2 C 9.8 39.2 9.83 42.65 9.8 42.7 C 9.8 43.2 9.8 43.6 9.9 43.8 C 10 44 10.1 44.3 10.3 44.4 C 10.5 44.6 10.8 44.7 11.1 44.7 C 11.4 44.7 11.7 44.6 12 44.4 C 12.3 44.3 12.5 44 12.6 43.8 C 12.7 43.5 12.8 43.1 12.8 42.5 C 12.76 42.54 12.8 39.2 12.8 39.2 L 13.8 39.2 L 13.8 45.4 L 12.9 45.4 Z M 17.3 44.5 C 17.4 44.5 17.6 44.5 17.8 44.5 C 17.8 44.5 17.9 45.4 17.9 45.4 C 17.6 45.5 17.4 45.5 17.1 45.5 C 16.7 45.5 16.4 45.4 16.2 45.3 C 16 45.2 15.9 45 15.8 44.8 C 15.7 44.6 15.7 44.2 15.7 43.6 C 15.66 43.6 15.7 40 15.7 40 L 14.9 40 L 14.9 39.2 L 15.7 39.2 L 15.7 37.7 L 16.7 37 L 16.7 39.2 L 17.8 39.2 L 17.8 40 L 16.7 40 C 16.7 40 16.71 43.66 16.7 43.7 C 16.7 44 16.7 44.2 16.8 44.2 C 16.8 44.3 16.9 44.4 16.9 44.4 C 17 44.5 17.2 44.5 17.3 44.5 C 17.3 44.5 17.3 44.5 17.3 44.5 Z M 18.8 45.4 L 18.8 36.8 L 19.9 36.8 C 19.9 36.8 19.86 39.92 19.9 39.9 C 20.3 39.3 21 39.1 21.7 39.1 C 22.2 39.1 22.6 39.2 22.9 39.3 C 23.3 39.5 23.5 39.8 23.7 40.1 C 23.8 40.4 23.9 40.9 23.9 41.5 C 23.87 41.48 23.9 45.4 23.9 45.4 L 22.8 45.4 C 22.8 45.4 22.82 41.48 22.8 41.5 C 22.8 41 22.7 40.6 22.5 40.3 C 22.2 40.1 21.9 40 21.5 40 C 21.2 40 20.9 40.1 20.6 40.2 C 20.3 40.4 20.2 40.6 20 40.9 C 19.9 41.1 19.9 41.5 19.9 42 C 19.86 42.02 19.9 45.4 19.9 45.4 L 18.8 45.4 Z M 29.7 43.4 C 29.7 43.4 30.8 43.6 30.8 43.6 C 30.7 44.2 30.3 44.7 29.9 45 C 29.4 45.4 28.8 45.6 28.1 45.6 C 27.2 45.6 26.5 45.3 25.9 44.7 C 25.4 44.2 25.1 43.4 25.1 42.4 C 25.1 41.3 25.4 40.5 25.9 39.9 C 26.5 39.4 27.2 39.1 28 39.1 C 28.9 39.1 29.5 39.3 30.1 39.9 C 30.6 40.5 30.9 41.3 30.9 42.3 C 30.9 42.4 30.9 42.5 30.9 42.6 C 30.9 42.6 26.2 42.6 26.2 42.6 C 26.3 43.3 26.4 43.8 26.8 44.2 C 27.1 44.5 27.6 44.7 28.1 44.7 C 28.5 44.7 28.8 44.6 29.1 44.4 C 29.4 44.2 29.6 43.9 29.7 43.4 Z M 26.3 41.7 C 26.3 41.7 29.7 41.7 29.7 41.7 C 29.7 41.2 29.6 40.8 29.3 40.5 C 29 40.1 28.6 39.9 28 39.9 C 27.6 39.9 27.2 40.1 26.8 40.4 C 26.5 40.7 26.3 41.2 26.3 41.7 Z M 32.2 45.4 L 32.2 39.2 L 33.1 39.2 C 33.1 39.2 33.1 40.09 33.1 40.1 C 33.6 39.4 34.2 39.1 35.1 39.1 C 35.5 39.1 35.8 39.1 36.1 39.3 C 36.4 39.4 36.7 39.6 36.8 39.8 C 37 40 37.1 40.3 37.1 40.6 C 37.2 40.8 37.2 41.1 37.2 41.6 C 37.21 41.6 37.2 45.4 37.2 45.4 L 36.2 45.4 C 36.2 45.4 36.15 41.64 36.2 41.6 C 36.2 41.2 36.1 40.9 36 40.7 C 35.9 40.5 35.8 40.3 35.6 40.2 C 35.4 40 35.1 40 34.9 40 C 34.4 40 34 40.1 33.7 40.4 C 33.4 40.7 33.2 41.2 33.2 42 C 33.21 42.03 33.2 45.4 33.2 45.4 L 32.2 45.4 Z M 40.7 44.5 C 40.8 44.5 40.9 44.5 41.1 44.5 C 41.1 44.5 41.3 45.4 41.3 45.4 C 41 45.5 40.7 45.5 40.5 45.5 C 40.1 45.5 39.8 45.4 39.6 45.3 C 39.4 45.2 39.2 45 39.1 44.8 C 39.1 44.6 39 44.2 39 43.6 C 39.02 43.6 39 40 39 40 L 38.2 40 L 38.2 39.2 L 39 39.2 L 39 37.7 L 40.1 37 L 40.1 39.2 L 41.1 39.2 L 41.1 40 L 40.1 40 C 40.1 40 40.07 43.66 40.1 43.7 C 40.1 44 40.1 44.2 40.1 44.2 C 40.2 44.3 40.2 44.4 40.3 44.4 C 40.4 44.5 40.5 44.5 40.7 44.5 C 40.7 44.5 40.7 44.5 40.7 44.5 Z M 42.2 38 L 42.2 36.8 L 43.2 36.8 L 43.2 38 L 42.2 38 Z M 42.2 45.4 L 42.2 39.2 L 43.2 39.2 L 43.2 45.4 L 42.2 45.4 Z M 48.9 43.1 C 48.9 43.1 49.9 43.3 49.9 43.3 C 49.8 44 49.5 44.6 49.1 45 C 48.6 45.4 48 45.6 47.3 45.6 C 46.5 45.6 45.8 45.3 45.3 44.7 C 44.8 44.2 44.5 43.4 44.5 42.3 C 44.5 41.7 44.6 41.1 44.8 40.6 C 45.1 40.1 45.4 39.7 45.9 39.4 C 46.3 39.2 46.8 39.1 47.3 39.1 C 48 39.1 48.6 39.2 49 39.6 C 49.4 39.9 49.7 40.4 49.8 41 C 49.8 41 48.8 41.2 48.8 41.2 C 48.7 40.8 48.5 40.5 48.3 40.2 C 48 40 47.7 39.9 47.4 39.9 C 46.8 39.9 46.4 40.1 46.1 40.5 C 45.8 40.9 45.6 41.5 45.6 42.3 C 45.6 43.1 45.7 43.8 46.1 44.1 C 46.4 44.5 46.8 44.7 47.3 44.7 C 47.7 44.7 48.1 44.6 48.4 44.3 C 48.6 44.1 48.8 43.7 48.9 43.1 Z M 51.1 45.4 L 51.1 44.2 L 52.3 44.2 C 52.3 44.2 52.3 45.42 52.3 45.4 C 52.3 45.9 52.2 46.2 52.1 46.5 C 51.9 46.8 51.7 47 51.3 47.1 C 51.3 47.1 51 46.7 51 46.7 C 51.3 46.6 51.4 46.4 51.5 46.2 C 51.6 46.1 51.7 45.8 51.7 45.4 C 51.7 45.42 51.1 45.4 51.1 45.4 Z M 61.8 43.4 C 61.8 43.4 62.8 43.6 62.8 43.6 C 62.7 44.2 62.4 44.7 61.9 45 C 61.4 45.4 60.8 45.6 60.1 45.6 C 59.2 45.6 58.5 45.3 57.9 44.7 C 57.4 44.2 57.1 43.4 57.1 42.4 C 57.1 41.3 57.4 40.5 57.9 39.9 C 58.5 39.4 59.2 39.1 60 39.1 C 60.9 39.1 61.6 39.3 62.1 39.9 C 62.6 40.5 62.9 41.3 62.9 42.3 C 62.9 42.4 62.9 42.5 62.9 42.6 C 62.9 42.6 58.2 42.6 58.2 42.6 C 58.3 43.3 58.5 43.8 58.8 44.2 C 59.2 44.5 59.6 44.7 60.1 44.7 C 60.5 44.7 60.8 44.6 61.1 44.4 C 61.4 44.2 61.6 43.9 61.8 43.4 Z M 58.3 41.7 C 58.3 41.7 61.8 41.7 61.8 41.7 C 61.7 41.2 61.6 40.8 61.4 40.5 C 61 40.1 60.6 39.9 60.1 39.9 C 59.6 39.9 59.2 40.1 58.8 40.4 C 58.5 40.7 58.3 41.2 58.3 41.7 Z M 64.2 45.4 L 64.2 39.2 L 65.1 39.2 C 65.1 39.2 65.12 40.09 65.1 40.1 C 65.6 39.4 66.2 39.1 67.1 39.1 C 67.5 39.1 67.8 39.1 68.1 39.3 C 68.4 39.4 68.7 39.6 68.8 39.8 C 69 40 69.1 40.3 69.2 40.6 C 69.2 40.8 69.2 41.1 69.2 41.6 C 69.22 41.6 69.2 45.4 69.2 45.4 L 68.2 45.4 C 68.2 45.4 68.17 41.64 68.2 41.6 C 68.2 41.2 68.1 40.9 68 40.7 C 68 40.5 67.8 40.3 67.6 40.2 C 67.4 40 67.2 40 66.9 40 C 66.4 40 66 40.1 65.7 40.4 C 65.4 40.7 65.2 41.2 65.2 42 C 65.22 42.03 65.2 45.4 65.2 45.4 L 64.2 45.4 Z M 72.7 44.5 C 72.8 44.5 73 44.5 73.1 44.5 C 73.1 44.5 73.3 45.4 73.3 45.4 C 73 45.5 72.7 45.5 72.5 45.5 C 72.1 45.5 71.8 45.4 71.6 45.3 C 71.4 45.2 71.2 45 71.2 44.8 C 71.1 44.6 71 44.2 71 43.6 C 71.03 43.6 71 40 71 40 L 70.3 40 L 70.3 39.2 L 71 39.2 L 71 37.7 L 72.1 37 L 72.1 39.2 L 73.1 39.2 L 73.1 40 L 72.1 40 C 72.1 40 72.08 43.66 72.1 43.7 C 72.1 44 72.1 44.2 72.1 44.2 C 72.2 44.3 72.2 44.4 72.3 44.4 C 72.4 44.5 72.5 44.5 72.7 44.5 C 72.7 44.5 72.7 44.5 72.7 44.5 Z M 74.2 45.4 L 74.2 36.8 L 75.2 36.8 C 75.2 36.8 75.23 39.92 75.2 39.9 C 75.7 39.3 76.3 39.1 77.1 39.1 C 77.6 39.1 78 39.2 78.3 39.3 C 78.6 39.5 78.9 39.8 79 40.1 C 79.2 40.4 79.2 40.9 79.2 41.5 C 79.24 41.48 79.2 45.4 79.2 45.4 L 78.2 45.4 C 78.2 45.4 78.19 41.48 78.2 41.5 C 78.2 41 78.1 40.6 77.8 40.3 C 77.6 40.1 77.3 40 76.9 40 C 76.6 40 76.3 40.1 76 40.2 C 75.7 40.4 75.5 40.6 75.4 40.9 C 75.3 41.1 75.2 41.5 75.2 42 C 75.23 42.02 75.2 45.4 75.2 45.4 L 74.2 45.4 Z M 84.9 45.4 C 84.9 45.4 84.93 44.51 84.9 44.5 C 84.4 45.2 83.8 45.6 83 45.6 C 82.6 45.6 82.2 45.5 81.9 45.4 C 81.6 45.2 81.4 45 81.2 44.8 C 81.1 44.6 81 44.4 80.9 44 C 80.8 43.8 80.8 43.5 80.8 43.1 C 80.82 43.06 80.8 39.2 80.8 39.2 L 81.9 39.2 C 81.9 39.2 81.88 42.65 81.9 42.7 C 81.9 43.2 81.9 43.6 81.9 43.8 C 82 44 82.2 44.3 82.4 44.4 C 82.6 44.6 82.8 44.7 83.2 44.7 C 83.5 44.7 83.8 44.6 84.1 44.4 C 84.3 44.3 84.5 44 84.6 43.8 C 84.8 43.5 84.8 43.1 84.8 42.5 C 84.81 42.54 84.8 39.2 84.8 39.2 L 85.9 39.2 L 85.9 45.4 L 84.9 45.4 Z M 87.1 43.6 C 87.1 43.6 88.1 43.4 88.1 43.4 C 88.2 43.8 88.4 44.1 88.6 44.4 C 88.9 44.6 89.3 44.7 89.8 44.7 C 90.2 44.7 90.6 44.6 90.8 44.4 C 91.1 44.2 91.2 44 91.2 43.7 C 91.2 43.5 91.1 43.3 90.9 43.1 C 90.7 43.1 90.4 42.9 89.8 42.8 C 89 42.6 88.5 42.4 88.2 42.3 C 87.9 42.1 87.7 41.9 87.5 41.7 C 87.4 41.4 87.3 41.2 87.3 40.9 C 87.3 40.6 87.3 40.3 87.5 40.1 C 87.6 39.8 87.8 39.7 88 39.5 C 88.1 39.4 88.4 39.3 88.7 39.2 C 88.9 39.1 89.2 39.1 89.6 39.1 C 90.1 39.1 90.5 39.1 90.9 39.3 C 91.2 39.4 91.5 39.6 91.7 39.8 C 91.8 40.1 92 40.4 92 40.8 C 92 40.8 91 40.9 91 40.9 C 91 40.6 90.8 40.4 90.6 40.2 C 90.4 40 90.1 39.9 89.6 39.9 C 89.2 39.9 88.8 40 88.6 40.2 C 88.4 40.3 88.3 40.5 88.3 40.7 C 88.3 40.9 88.3 41 88.4 41.1 C 88.5 41.2 88.6 41.3 88.8 41.4 C 88.9 41.4 89.2 41.5 89.8 41.7 C 90.5 41.9 91 42 91.3 42.1 C 91.6 42.3 91.8 42.5 92 42.7 C 92.2 42.9 92.3 43.2 92.3 43.6 C 92.3 43.9 92.2 44.3 92 44.6 C 91.8 44.9 91.5 45.1 91.1 45.3 C 90.7 45.5 90.2 45.6 89.8 45.6 C 89 45.6 88.3 45.4 87.9 45.1 C 87.5 44.7 87.2 44.2 87.1 43.6 Z M 93.5 38 L 93.5 36.8 L 94.6 36.8 L 94.6 38 L 93.5 38 Z M 93.5 45.4 L 93.5 39.2 L 94.6 39.2 L 94.6 45.4 L 93.5 45.4 Z M 100.5 45.4 C 100.3 45.2 100.3 44.9 100.2 44.7 C 99.9 45 99.5 45.2 99.1 45.4 C 98.8 45.5 98.4 45.6 98 45.6 C 97.3 45.6 96.7 45.4 96.4 45.1 C 96 44.7 95.8 44.3 95.8 43.8 C 95.8 43.5 95.9 43.2 96 42.9 C 96.2 42.7 96.4 42.5 96.6 42.3 C 96.8 42.2 97.1 42.1 97.3 42 C 97.5 41.9 97.9 41.9 98.3 41.8 C 99.1 41.7 99.8 41.6 100.2 41.5 C 100.2 41.3 100.2 41.2 100.2 41.2 C 100.2 40.8 100.1 40.5 99.9 40.3 C 99.6 40.1 99.2 39.9 98.7 39.9 C 98.2 39.9 97.8 40 97.6 40.2 C 97.3 40.4 97.2 40.7 97 41.1 C 97 41.1 96 41 96 41 C 96.1 40.5 96.3 40.2 96.5 39.9 C 96.7 39.6 97 39.4 97.4 39.3 C 97.8 39.1 98.3 39.1 98.8 39.1 C 99.3 39.1 99.8 39.1 100.1 39.2 C 100.4 39.4 100.7 39.5 100.8 39.7 C 101 39.9 101.1 40.1 101.2 40.4 C 101.2 40.6 101.2 40.9 101.2 41.4 C 101.2 41.4 101.2 42.8 101.2 42.8 C 101.2 43.8 101.2 44.4 101.3 44.7 C 101.3 44.9 101.4 45.2 101.6 45.4 C 101.56 45.42 100.5 45.4 100.5 45.4 C 100.5 45.4 100.46 45.42 100.5 45.4 Z M 100.2 42.3 C 99.8 42.5 99.2 42.6 98.4 42.7 C 98 42.8 97.7 42.8 97.5 42.9 C 97.3 43 97.2 43.1 97.1 43.3 C 97 43.4 97 43.6 97 43.8 C 97 44 97.1 44.3 97.3 44.5 C 97.5 44.6 97.8 44.7 98.2 44.7 C 98.6 44.7 99 44.6 99.3 44.5 C 99.6 44.3 99.8 44.1 100 43.7 C 100.1 43.5 100.2 43.2 100.2 42.7 C 100.2 42.7 100.2 42.3 100.2 42.3 Z M 102.4 43.6 C 102.4 43.6 103.5 43.4 103.5 43.4 C 103.5 43.8 103.7 44.1 104 44.4 C 104.2 44.6 104.6 44.7 105.1 44.7 C 105.6 44.7 105.9 44.6 106.2 44.4 C 106.4 44.2 106.5 44 106.5 43.7 C 106.5 43.5 106.4 43.3 106.2 43.1 C 106.1 43.1 105.7 42.9 105.1 42.8 C 104.4 42.6 103.8 42.4 103.5 42.3 C 103.2 42.1 103 41.9 102.8 41.7 C 102.7 41.4 102.6 41.2 102.6 40.9 C 102.6 40.6 102.7 40.3 102.8 40.1 C 102.9 39.8 103.1 39.7 103.3 39.5 C 103.5 39.4 103.7 39.3 104 39.2 C 104.3 39.1 104.6 39.1 104.9 39.1 C 105.4 39.1 105.8 39.1 106.2 39.3 C 106.6 39.4 106.8 39.6 107 39.8 C 107.2 40.1 107.3 40.4 107.4 40.8 C 107.4 40.8 106.3 40.9 106.3 40.9 C 106.3 40.6 106.2 40.4 105.9 40.2 C 105.7 40 105.4 39.9 105 39.9 C 104.5 39.9 104.2 40 103.9 40.2 C 103.7 40.3 103.6 40.5 103.6 40.7 C 103.6 40.9 103.7 41 103.8 41.1 C 103.8 41.2 104 41.3 104.2 41.4 C 104.3 41.4 104.6 41.5 105.1 41.7 C 105.8 41.9 106.4 42 106.7 42.1 C 107 42.3 107.2 42.5 107.4 42.7 C 107.5 42.9 107.6 43.2 107.6 43.6 C 107.6 43.9 107.5 44.3 107.3 44.6 C 107.1 44.9 106.8 45.1 106.4 45.3 C 106 45.5 105.6 45.6 105.1 45.6 C 104.3 45.6 103.7 45.4 103.3 45.1 C 102.8 44.7 102.6 44.2 102.4 43.6 Z M 110.7 44.5 C 110.8 44.5 111 44.5 111.2 44.5 C 111.2 44.5 111.3 45.4 111.3 45.4 C 111 45.5 110.8 45.5 110.5 45.5 C 110.1 45.5 109.8 45.4 109.6 45.3 C 109.4 45.2 109.3 45 109.2 44.8 C 109.1 44.6 109.1 44.2 109.1 43.6 C 109.05 43.6 109.1 40 109.1 40 L 108.3 40 L 108.3 39.2 L 109.1 39.2 L 109.1 37.7 L 110.1 37 L 110.1 39.2 L 111.2 39.2 L 111.2 40 L 110.1 40 C 110.1 40 110.1 43.66 110.1 43.7 C 110.1 44 110.1 44.2 110.2 44.2 C 110.2 44.3 110.3 44.4 110.3 44.4 C 110.4 44.5 110.5 44.5 110.7 44.5 C 110.7 44.5 110.7 44.5 110.7 44.5 Z M 112.2 38 L 112.2 36.8 L 113.3 36.8 L 113.3 38 L 112.2 38 Z M 112.2 45.4 L 112.2 39.2 L 113.3 39.2 L 113.3 45.4 L 112.2 45.4 Z M 118.9 43.1 C 118.9 43.1 120 43.3 120 43.3 C 119.8 44 119.6 44.6 119.1 45 C 118.6 45.4 118 45.6 117.4 45.6 C 116.5 45.6 115.8 45.3 115.3 44.7 C 114.8 44.2 114.5 43.4 114.5 42.3 C 114.5 41.7 114.7 41.1 114.9 40.6 C 115.1 40.1 115.4 39.7 115.9 39.4 C 116.3 39.2 116.8 39.1 117.4 39.1 C 118.1 39.1 118.6 39.2 119 39.6 C 119.5 39.9 119.7 40.4 119.9 41 C 119.9 41 118.8 41.2 118.8 41.2 C 118.7 40.8 118.6 40.5 118.3 40.2 C 118.1 40 117.8 39.9 117.4 39.9 C 116.9 39.9 116.5 40.1 116.1 40.5 C 115.8 40.9 115.6 41.5 115.6 42.3 C 115.6 43.1 115.8 43.8 116.1 44.1 C 116.4 44.5 116.8 44.7 117.4 44.7 C 117.8 44.7 118.1 44.6 118.4 44.3 C 118.7 44.1 118.8 43.7 118.9 43.1 Z M 121.1 45.4 L 121.1 44.2 L 122.3 44.2 C 122.3 44.2 122.34 45.42 122.3 45.4 C 122.3 45.9 122.3 46.2 122.1 46.5 C 121.9 46.8 121.7 47 121.4 47.1 C 121.4 47.1 121.1 46.7 121.1 46.7 C 121.3 46.6 121.5 46.4 121.6 46.2 C 121.7 46.1 121.7 45.8 121.7 45.4 C 121.73 45.42 121.1 45.4 121.1 45.4 Z M 131.6 43.1 C 131.6 43.1 132.6 43.3 132.6 43.3 C 132.5 44 132.2 44.6 131.8 45 C 131.3 45.4 130.7 45.6 130 45.6 C 129.2 45.6 128.5 45.3 128 44.7 C 127.5 44.2 127.2 43.4 127.2 42.3 C 127.2 41.7 127.3 41.1 127.5 40.6 C 127.8 40.1 128.1 39.7 128.6 39.4 C 129 39.2 129.5 39.1 130 39.1 C 130.7 39.1 131.3 39.2 131.7 39.6 C 132.1 39.9 132.4 40.4 132.5 41 C 132.5 41 131.5 41.2 131.5 41.2 C 131.4 40.8 131.2 40.5 131 40.2 C 130.7 40 130.4 39.9 130.1 39.9 C 129.6 39.9 129.1 40.1 128.8 40.5 C 128.5 40.9 128.3 41.5 128.3 42.3 C 128.3 43.1 128.5 43.8 128.8 44.1 C 129.1 44.5 129.5 44.7 130 44.7 C 130.4 44.7 130.8 44.6 131.1 44.3 C 131.3 44.1 131.5 43.7 131.6 43.1 Z M 133.1 42.3 C 133.1 41.2 133.5 40.3 134.1 39.8 C 134.6 39.3 135.3 39.1 136.1 39.1 C 136.9 39.1 137.6 39.3 138.2 39.9 C 138.7 40.5 139 41.2 139 42.2 C 139 43 138.8 43.7 138.6 44.1 C 138.4 44.6 138 44.9 137.6 45.2 C 137.1 45.4 136.6 45.6 136.1 45.6 C 135.2 45.6 134.5 45.3 133.9 44.7 C 133.4 44.2 133.1 43.4 133.1 42.3 Z M 134.2 42.3 C 134.2 43.1 134.4 43.7 134.7 44.1 C 135.1 44.5 135.5 44.7 136.1 44.7 C 136.6 44.7 137 44.5 137.4 44.1 C 137.7 43.7 137.9 43.1 137.9 42.3 C 137.9 41.5 137.7 40.9 137.4 40.5 C 137 40.1 136.6 39.9 136.1 39.9 C 135.5 39.9 135.1 40.1 134.7 40.5 C 134.4 40.9 134.2 41.5 134.2 42.3 Z M 140.2 45.4 L 140.2 39.2 L 141.1 39.2 C 141.1 39.2 141.15 40.07 141.1 40.1 C 141.3 39.8 141.6 39.5 141.9 39.3 C 142.2 39.2 142.6 39.1 143 39.1 C 143.5 39.1 143.9 39.2 144.2 39.3 C 144.5 39.5 144.7 39.8 144.8 40.2 C 145.3 39.4 145.9 39.1 146.7 39.1 C 147.3 39.1 147.8 39.2 148.1 39.6 C 148.5 39.9 148.6 40.4 148.6 41.2 C 148.63 41.15 148.6 45.4 148.6 45.4 L 147.6 45.4 C 147.6 45.4 147.59 41.5 147.6 41.5 C 147.6 41.1 147.6 40.8 147.5 40.6 C 147.4 40.4 147.3 40.3 147.1 40.1 C 146.9 40 146.7 40 146.5 40 C 146 40 145.7 40.1 145.4 40.4 C 145.1 40.7 145 41.2 145 41.8 C 144.96 41.81 145 45.4 145 45.4 L 143.9 45.4 C 143.9 45.4 143.9 41.38 143.9 41.4 C 143.9 40.9 143.8 40.6 143.6 40.3 C 143.5 40.1 143.2 40 142.8 40 C 142.5 40 142.2 40.1 142 40.2 C 141.7 40.4 141.5 40.6 141.4 40.9 C 141.3 41.2 141.3 41.6 141.3 42.2 C 141.26 42.2 141.3 45.4 141.3 45.4 L 140.2 45.4 Z M 150.2 45.4 L 150.2 39.2 L 151.1 39.2 C 151.1 39.2 151.14 40.07 151.1 40.1 C 151.3 39.8 151.6 39.5 151.9 39.3 C 152.2 39.2 152.6 39.1 153 39.1 C 153.5 39.1 153.9 39.2 154.2 39.3 C 154.5 39.5 154.7 39.8 154.8 40.2 C 155.3 39.4 155.9 39.1 156.7 39.1 C 157.3 39.1 157.8 39.2 158.1 39.6 C 158.5 39.9 158.6 40.4 158.6 41.2 C 158.63 41.15 158.6 45.4 158.6 45.4 L 157.6 45.4 C 157.6 45.4 157.58 41.5 157.6 41.5 C 157.6 41.1 157.5 40.8 157.5 40.6 C 157.4 40.4 157.3 40.3 157.1 40.1 C 156.9 40 156.7 40 156.5 40 C 156 40 155.7 40.1 155.4 40.4 C 155.1 40.7 155 41.2 155 41.8 C 154.95 41.81 155 45.4 155 45.4 L 153.9 45.4 C 153.9 45.4 153.9 41.38 153.9 41.4 C 153.9 40.9 153.8 40.6 153.6 40.3 C 153.5 40.1 153.2 40 152.8 40 C 152.5 40 152.2 40.1 152 40.2 C 151.7 40.4 151.5 40.6 151.4 40.9 C 151.3 41.2 151.3 41.6 151.3 42.2 C 151.25 42.2 151.3 45.4 151.3 45.4 L 150.2 45.4 Z M 160.2 38 L 160.2 36.8 L 161.3 36.8 L 161.3 38 L 160.2 38 Z M 160.2 45.4 L 160.2 39.2 L 161.3 39.2 L 161.3 45.4 L 160.2 45.4 Z M 164.7 44.5 C 164.8 44.5 165 44.5 165.2 44.5 C 165.2 44.5 165.3 45.4 165.3 45.4 C 165 45.5 164.8 45.5 164.5 45.5 C 164.1 45.5 163.8 45.4 163.6 45.3 C 163.4 45.2 163.3 45 163.2 44.8 C 163.1 44.6 163.1 44.2 163.1 43.6 C 163.05 43.6 163.1 40 163.1 40 L 162.3 40 L 162.3 39.2 L 163.1 39.2 L 163.1 37.7 L 164.1 37 L 164.1 39.2 L 165.2 39.2 L 165.2 40 L 164.1 40 C 164.1 40 164.1 43.66 164.1 43.7 C 164.1 44 164.1 44.2 164.2 44.2 C 164.2 44.3 164.3 44.4 164.3 44.4 C 164.4 44.5 164.5 44.5 164.7 44.5 C 164.7 44.5 164.7 44.5 164.7 44.5 Z M 168 44.5 C 168.2 44.5 168.3 44.5 168.5 44.5 C 168.5 44.5 168.7 45.4 168.7 45.4 C 168.4 45.5 168.1 45.5 167.9 45.5 C 167.5 45.5 167.2 45.4 167 45.3 C 166.8 45.2 166.6 45 166.5 44.8 C 166.4 44.6 166.4 44.2 166.4 43.6 C 166.39 43.6 166.4 40 166.4 40 L 165.6 40 L 165.6 39.2 L 166.4 39.2 L 166.4 37.7 L 167.4 37 L 167.4 39.2 L 168.5 39.2 L 168.5 40 L 167.4 40 C 167.4 40 167.44 43.66 167.4 43.7 C 167.4 44 167.5 44.2 167.5 44.2 C 167.5 44.3 167.6 44.4 167.7 44.4 C 167.8 44.5 167.9 44.5 168 44.5 C 168 44.5 168 44.5 168 44.5 Z M 173.8 43.4 C 173.8 43.4 174.9 43.6 174.9 43.6 C 174.7 44.2 174.4 44.7 173.9 45 C 173.5 45.4 172.9 45.6 172.1 45.6 C 171.2 45.6 170.5 45.3 170 44.7 C 169.4 44.2 169.2 43.4 169.2 42.4 C 169.2 41.3 169.4 40.5 170 39.9 C 170.5 39.4 171.2 39.1 172.1 39.1 C 172.9 39.1 173.6 39.3 174.1 39.9 C 174.7 40.5 174.9 41.3 174.9 42.3 C 174.9 42.4 174.9 42.5 174.9 42.6 C 174.9 42.6 170.3 42.6 170.3 42.6 C 170.3 43.3 170.5 43.8 170.8 44.2 C 171.2 44.5 171.6 44.7 172.1 44.7 C 172.5 44.7 172.9 44.6 173.1 44.4 C 173.4 44.2 173.6 43.9 173.8 43.4 Z M 170.3 41.7 C 170.3 41.7 173.8 41.7 173.8 41.7 C 173.8 41.2 173.6 40.8 173.4 40.5 C 173.1 40.1 172.6 39.9 172.1 39.9 C 171.6 39.9 171.2 40.1 170.9 40.4 C 170.5 40.7 170.4 41.2 170.3 41.7 Z M 180.2 45.4 C 180.2 45.4 180.24 44.64 180.2 44.6 C 179.8 45.3 179.3 45.6 178.5 45.6 C 178 45.6 177.5 45.4 177.1 45.2 C 176.7 44.9 176.4 44.5 176.2 44 C 175.9 43.5 175.8 43 175.8 42.3 C 175.8 41.7 175.9 41.1 176.1 40.6 C 176.3 40.1 176.7 39.7 177.1 39.5 C 177.5 39.2 177.9 39.1 178.5 39.1 C 178.8 39.1 179.2 39.1 179.5 39.3 C 179.7 39.5 180 39.7 180.2 39.9 C 180.17 39.92 180.2 36.8 180.2 36.8 L 181.2 36.8 L 181.2 45.4 L 180.2 45.4 Z M 176.9 42.3 C 176.9 43.1 177.1 43.7 177.4 44.1 C 177.7 44.5 178.1 44.7 178.6 44.7 C 179.1 44.7 179.5 44.5 179.8 44.1 C 180.1 43.8 180.3 43.2 180.3 42.4 C 180.3 41.6 180.1 40.9 179.8 40.5 C 179.4 40.1 179 39.9 178.6 39.9 C 178.1 39.9 177.7 40.1 177.4 40.5 C 177.1 40.9 176.9 41.5 176.9 42.3 Z M 183.2 45.4 L 183.2 44.2 L 184.4 44.2 C 184.4 44.2 184.35 45.42 184.4 45.4 C 184.4 45.9 184.3 46.2 184.1 46.5 C 184 46.8 183.7 47 183.4 47.1 C 183.4 47.1 183.1 46.7 183.1 46.7 C 183.3 46.6 183.5 46.4 183.6 46.2 C 183.7 46.1 183.7 45.8 183.8 45.4 C 183.75 45.42 183.2 45.4 183.2 45.4 Z M 189.1 43.6 C 189.1 43.6 190.2 43.4 190.2 43.4 C 190.2 43.8 190.4 44.1 190.7 44.4 C 190.9 44.6 191.3 44.7 191.8 44.7 C 192.3 44.7 192.6 44.6 192.9 44.4 C 193.1 44.2 193.2 44 193.2 43.7 C 193.2 43.5 193.1 43.3 192.9 43.1 C 192.8 43.1 192.4 42.9 191.8 42.8 C 191 42.6 190.5 42.4 190.2 42.3 C 189.9 42.1 189.7 41.9 189.5 41.7 C 189.4 41.4 189.3 41.2 189.3 40.9 C 189.3 40.6 189.4 40.3 189.5 40.1 C 189.6 39.8 189.8 39.7 190 39.5 C 190.2 39.4 190.4 39.3 190.7 39.2 C 191 39.1 191.3 39.1 191.6 39.1 C 192.1 39.1 192.5 39.1 192.9 39.3 C 193.2 39.4 193.5 39.6 193.7 39.8 C 193.9 40.1 194 40.4 194.1 40.8 C 194.1 40.8 193 40.9 193 40.9 C 193 40.6 192.8 40.4 192.6 40.2 C 192.4 40 192.1 39.9 191.7 39.9 C 191.2 39.9 190.8 40 190.6 40.2 C 190.4 40.3 190.3 40.5 190.3 40.7 C 190.3 40.9 190.4 41 190.4 41.1 C 190.5 41.2 190.7 41.3 190.9 41.4 C 191 41.4 191.3 41.5 191.8 41.7 C 192.5 41.9 193 42 193.3 42.1 C 193.6 42.3 193.9 42.5 194 42.7 C 194.2 42.9 194.3 43.2 194.3 43.6 C 194.3 43.9 194.2 44.3 194 44.6 C 193.8 44.9 193.5 45.1 193.1 45.3 C 192.7 45.5 192.3 45.6 191.8 45.6 C 191 45.6 190.4 45.4 189.9 45.1 C 189.5 44.7 189.2 44.2 189.1 43.6 Z M 199.6 45.4 C 199.6 45.4 199.62 44.51 199.6 44.5 C 199.1 45.2 198.5 45.6 197.6 45.6 C 197.3 45.6 196.9 45.5 196.6 45.4 C 196.3 45.2 196.1 45 195.9 44.8 C 195.8 44.6 195.6 44.4 195.6 44 C 195.5 43.8 195.5 43.5 195.5 43.1 C 195.52 43.06 195.5 39.2 195.5 39.2 L 196.6 39.2 C 196.6 39.2 196.58 42.65 196.6 42.7 C 196.6 43.2 196.6 43.6 196.6 43.8 C 196.7 44 196.8 44.3 197.1 44.4 C 197.3 44.6 197.5 44.7 197.9 44.7 C 198.2 44.7 198.5 44.6 198.8 44.4 C 199 44.3 199.2 44 199.3 43.8 C 199.5 43.5 199.5 43.1 199.5 42.5 C 199.51 42.54 199.5 39.2 199.5 39.2 L 200.6 39.2 L 200.6 45.4 L 199.6 45.4 Z M 202.2 47.8 L 202.2 39.2 L 203.2 39.2 C 203.2 39.2 203.18 40.01 203.2 40 C 203.4 39.7 203.7 39.5 203.9 39.3 C 204.2 39.1 204.6 39.1 205 39.1 C 205.5 39.1 206 39.2 206.4 39.5 C 206.8 39.7 207.1 40.1 207.3 40.6 C 207.5 41.1 207.6 41.7 207.6 42.3 C 207.6 42.9 207.5 43.5 207.3 44 C 207 44.5 206.7 44.9 206.3 45.2 C 205.8 45.4 205.4 45.6 204.9 45.6 C 204.6 45.6 204.2 45.5 204 45.3 C 203.7 45.2 203.5 45 203.3 44.8 C 203.27 44.78 203.3 47.8 203.3 47.8 L 202.2 47.8 Z M 203.2 42.3 C 203.2 43.1 203.3 43.7 203.7 44.1 C 204 44.5 204.4 44.7 204.8 44.7 C 205.3 44.7 205.7 44.5 206 44.1 C 206.4 43.7 206.5 43.1 206.5 42.3 C 206.5 41.5 206.4 40.9 206.1 40.5 C 205.7 40.1 205.3 39.9 204.9 39.9 C 204.4 39.9 204 40.1 203.7 40.5 C 203.3 40.9 203.2 41.5 203.2 42.3 Z M 208.9 47.8 L 208.9 39.2 L 209.9 39.2 C 209.9 39.2 209.85 40.01 209.9 40 C 210.1 39.7 210.3 39.5 210.6 39.3 C 210.9 39.1 211.3 39.1 211.7 39.1 C 212.2 39.1 212.7 39.2 213.1 39.5 C 213.5 39.7 213.8 40.1 214 40.6 C 214.2 41.1 214.3 41.7 214.3 42.3 C 214.3 42.9 214.2 43.5 214 44 C 213.7 44.5 213.4 44.9 213 45.2 C 212.5 45.4 212.1 45.6 211.6 45.6 C 211.2 45.6 210.9 45.5 210.6 45.3 C 210.4 45.2 210.1 45 209.9 44.8 C 209.95 44.78 209.9 47.8 209.9 47.8 L 208.9 47.8 Z M 209.8 42.3 C 209.8 43.1 210 43.7 210.3 44.1 C 210.7 44.5 211.1 44.7 211.5 44.7 C 212 44.7 212.4 44.5 212.7 44.1 C 213 43.7 213.2 43.1 213.2 42.3 C 213.2 41.5 213.1 40.9 212.7 40.5 C 212.4 40.1 212 39.9 211.6 39.9 C 211.1 39.9 210.7 40.1 210.4 40.5 C 210 40.9 209.8 41.5 209.8 42.3 Z M 215.2 42.3 C 215.2 41.2 215.5 40.3 216.1 39.8 C 216.7 39.3 217.3 39.1 218.1 39.1 C 218.9 39.1 219.6 39.3 220.2 39.9 C 220.7 40.5 221 41.2 221 42.2 C 221 43 220.9 43.7 220.6 44.1 C 220.4 44.6 220.1 44.9 219.6 45.2 C 219.1 45.4 218.6 45.6 218.1 45.6 C 217.2 45.6 216.5 45.3 216 44.7 C 215.4 44.2 215.2 43.4 215.2 42.3 Z M 216.3 42.3 C 216.3 43.1 216.4 43.7 216.8 44.1 C 217.1 44.5 217.6 44.7 218.1 44.7 C 218.6 44.7 219.1 44.5 219.4 44.1 C 219.7 43.7 219.9 43.1 219.9 42.3 C 219.9 41.5 219.7 40.9 219.4 40.5 C 219 40.1 218.6 39.9 218.1 39.9 C 217.6 39.9 217.1 40.1 216.8 40.5 C 216.4 40.9 216.3 41.5 216.3 42.3 Z M 222.2 45.4 L 222.2 39.2 L 223.2 39.2 C 223.2 39.2 223.18 40.14 223.2 40.1 C 223.4 39.7 223.6 39.4 223.8 39.3 C 224.1 39.1 224.3 39.1 224.5 39.1 C 224.9 39.1 225.2 39.2 225.6 39.4 C 225.6 39.4 225.2 40.4 225.2 40.4 C 225 40.2 224.7 40.2 224.5 40.2 C 224.2 40.2 224 40.2 223.9 40.4 C 223.7 40.5 223.5 40.7 223.5 40.9 C 223.3 41.3 223.3 41.7 223.3 42.2 C 223.28 42.17 223.3 45.4 223.3 45.4 L 222.2 45.4 Z M 228.1 44.5 C 228.2 44.5 228.3 44.5 228.5 44.5 C 228.5 44.5 228.7 45.4 228.7 45.4 C 228.4 45.5 228.1 45.5 227.9 45.5 C 227.5 45.5 227.2 45.4 227 45.3 C 226.8 45.2 226.6 45 226.6 44.8 C 226.5 44.6 226.4 44.2 226.4 43.6 C 226.43 43.6 226.4 40 226.4 40 L 225.7 40 L 225.7 39.2 L 226.4 39.2 L 226.4 37.7 L 227.5 37 L 227.5 39.2 L 228.5 39.2 L 228.5 40 L 227.5 40 C 227.5 40 227.48 43.66 227.5 43.7 C 227.5 44 227.5 44.2 227.5 44.2 C 227.6 44.3 227.6 44.4 227.7 44.4 C 227.8 44.5 227.9 44.5 228.1 44.5 C 228.1 44.5 228.1 44.5 228.1 44.5 Z M 229.6 38 L 229.6 36.8 L 230.6 36.8 L 230.6 38 L 229.6 38 Z M 229.6 45.4 L 229.6 39.2 L 230.6 39.2 L 230.6 45.4 L 229.6 45.4 Z M 234 45.4 L 231.6 39.2 L 232.7 39.2 C 232.7 39.2 234.05 42.93 234 42.9 C 234.2 43.3 234.3 43.7 234.4 44.2 C 234.5 43.9 234.7 43.5 234.8 43 C 234.84 43 236.2 39.2 236.2 39.2 L 237.3 39.2 L 234.9 45.4 L 234 45.4 Z M 242.5 43.4 C 242.5 43.4 243.6 43.6 243.6 43.6 C 243.4 44.2 243.1 44.7 242.6 45 C 242.2 45.4 241.6 45.6 240.8 45.6 C 239.9 45.6 239.2 45.3 238.7 44.7 C 238.2 44.2 237.9 43.4 237.9 42.4 C 237.9 41.3 238.2 40.5 238.7 39.9 C 239.2 39.4 239.9 39.1 240.8 39.1 C 241.6 39.1 242.3 39.3 242.8 39.9 C 243.4 40.5 243.6 41.3 243.6 42.3 C 243.6 42.4 243.6 42.5 243.6 42.6 C 243.6 42.6 239 42.6 239 42.6 C 239 43.3 239.2 43.8 239.6 44.2 C 239.9 44.5 240.3 44.7 240.9 44.7 C 241.2 44.7 241.6 44.6 241.8 44.4 C 242.1 44.2 242.3 43.9 242.5 43.4 Z M 239 41.7 C 239 41.7 242.5 41.7 242.5 41.7 C 242.5 41.2 242.3 40.8 242.1 40.5 C 241.8 40.1 241.3 39.9 240.8 39.9 C 240.3 39.9 239.9 40.1 239.6 40.4 C 239.3 40.7 239.1 41.2 239 41.7 Z M 245.2 45.4 L 245.2 44.2 L 246.4 44.2 C 246.4 44.2 246.39 45.42 246.4 45.4 C 246.4 45.9 246.3 46.2 246.2 46.5 C 246 46.8 245.7 47 245.4 47.1 C 245.4 47.1 245.1 46.7 245.1 46.7 C 245.3 46.6 245.5 46.4 245.6 46.2 C 245.7 46.1 245.8 45.8 245.8 45.4 C 245.78 45.42 245.2 45.4 245.2 45.4 Z " stroke="none" fill="#ffffff"/>  </g>  <g id="Polygon3652">    <path d="M 2.7 13.1 L 2.7 25.4 L 1.4 25.4 L 1.4 13.1 L 2.7 13.1 Z M 6.6 13.1 L 15.3 23.3 L 15.3 13.1 L 16.6 13.1 L 16.6 25.4 L 15.4 25.4 L 6.8 15.3 L 6.8 25.4 L 5.5 25.4 L 5.5 13.1 L 6.6 13.1 Z M 25.3 13.8 C 25.3 13.8 25.3 15.3 25.3 15.3 C 24.4 14.6 23.5 14.2 22.5 14.2 C 21.2 14.2 20.3 14.9 20.3 16 C 20.3 16.8 20.5 17.5 22.6 18.5 C 25.1 19.8 25.7 20.7 25.7 22.4 C 25.7 24.2 24.3 25.6 22.2 25.6 C 21 25.6 20 25.2 19 24.5 C 19 24.5 19 22.8 19 22.8 C 19.9 23.8 21 24.4 22.2 24.4 C 23.5 24.4 24.4 23.6 24.4 22.4 C 24.4 21.4 24 20.8 21.6 19.5 C 19.7 18.5 19 17.6 19 16 C 19 14.3 20.5 13 22.5 13 C 23.5 13 24.4 13.3 25.3 13.8 Z M 31.3 13.1 C 33.8 13.1 35.3 14.4 35.3 16.5 C 35.3 18.8 33.7 19.9 31.1 19.9 C 31.09 19.9 29.2 19.9 29.2 19.9 L 29.2 25.4 L 27.8 25.4 L 27.8 13.1 C 27.8 13.1 31.32 13.15 31.3 13.1 Z M 29.2 18.7 C 29.2 18.7 31.05 18.71 31 18.7 C 33.1 18.7 33.9 17.9 33.9 16.5 C 33.9 15.1 33 14.3 31 14.3 C 31.05 14.34 29.2 14.3 29.2 14.3 L 29.2 18.7 Z M 38.5 13.1 L 38.5 25.4 L 37.2 25.4 L 37.2 13.1 L 38.5 13.1 Z M 41.3 13.1 C 41.3 13.1 44.5 13.15 44.5 13.1 C 47 13.1 48.2 14.6 48.2 16.4 C 48.2 18 47.4 19 45.9 19.5 C 46.7 19.9 47.1 20.2 48.1 21.8 C 48.08 21.75 50.5 25.4 50.5 25.4 L 48.9 25.4 C 48.9 25.4 46.69 22.04 46.7 22 C 45.6 20.2 44.8 19.8 43.8 19.8 C 43.76 19.84 42.6 19.8 42.6 19.8 L 42.6 25.4 L 41.3 25.4 L 41.3 13.1 Z M 43.9 18.7 C 45.6 18.7 46.9 18.2 46.9 16.5 C 46.9 14.9 45.9 14.3 44.3 14.3 C 44.32 14.34 42.6 14.3 42.6 14.3 L 42.6 18.7 C 42.6 18.7 43.88 18.66 43.9 18.7 Z M 53.2 13.1 L 53.2 25.4 L 51.8 25.4 L 51.8 13.1 L 53.2 13.1 Z M 57 13.1 L 65.7 23.3 L 65.7 13.1 L 67 13.1 L 67 25.4 L 65.8 25.4 L 57.2 15.3 L 57.2 25.4 L 55.9 25.4 L 55.9 13.1 L 57 13.1 Z M 79.9 15.4 C 78.6 14.6 77.1 14.2 75.7 14.2 C 72.8 14.2 70.6 16.4 70.6 19.2 C 70.6 22.3 72.7 24.4 75.8 24.4 C 76.8 24.4 77.5 24.2 78.8 23.8 C 78.8 23.75 78.8 20.8 78.8 20.8 L 76.3 20.8 L 76.3 19.6 L 80.2 19.6 C 80.2 19.6 80.15 24.58 80.2 24.6 C 78.7 25.3 77.4 25.6 75.8 25.6 C 71.4 25.6 69.2 22.5 69.2 19.4 C 69.2 15.9 71.8 13 75.7 13 C 77.1 13 78.3 13.3 79.9 14 C 79.9 14 79.9 15.4 79.9 15.4 Z " stroke="none" fill="#ffffff"/>  </g></svg>