<?xml version="1.0" standalone="no"?><!DOCTYPE svg PUBLIC "-//W3C//DTD SVG 1.1//EN" "http://www.w3.org/Graphics/SVG/1.1/DTD/svg11.dtd"><svg xmlns="http://www.w3.org/2000/svg" version="1.1" width="274px" height="76.5px" viewBox="0 -4 274 76.5" style="top:-4px">  <desc>Integrity Behave with honour, underpinned by strong moral principles, transparency and always in the best interests o...</desc>  <defs/>  <g id="Polygon2279">    <path d="M 0.8 57.9 L 0.8 56.6 L 1.9 56.6 L 1.9 57.9 L 0.8 57.9 Z M 0.8 65.2 L 0.8 59 L 1.9 59 L 1.9 65.2 L 0.8 65.2 Z M 3.5 65.2 L 3.5 59 L 4.4 59 C 4.4 59 4.41 59.9 4.4 59.9 C 4.9 59.2 5.5 58.9 6.4 58.9 C 6.8 58.9 7.1 58.9 7.4 59.1 C 7.7 59.2 8 59.4 8.1 59.6 C 8.3 59.8 8.4 60.1 8.5 60.4 C 8.5 60.6 8.5 60.9 8.5 61.4 C 8.51 61.41 8.5 65.2 8.5 65.2 L 7.5 65.2 C 7.5 65.2 7.46 61.45 7.5 61.5 C 7.5 61 7.4 60.7 7.3 60.5 C 7.3 60.3 7.1 60.1 6.9 60 C 6.7 59.9 6.4 59.8 6.2 59.8 C 5.7 59.8 5.3 59.9 5 60.2 C 4.7 60.5 4.5 61 4.5 61.8 C 4.51 61.84 4.5 65.2 4.5 65.2 L 3.5 65.2 Z M 12 64.3 C 12.1 64.3 12.2 64.3 12.4 64.3 C 12.4 64.3 12.6 65.2 12.6 65.2 C 12.3 65.3 12 65.3 11.8 65.3 C 11.4 65.3 11.1 65.3 10.9 65.1 C 10.7 65 10.5 64.9 10.5 64.7 C 10.4 64.5 10.3 64.1 10.3 63.4 C 10.32 63.42 10.3 59.8 10.3 59.8 L 9.6 59.8 L 9.6 59 L 10.3 59 L 10.3 57.5 L 11.4 56.8 L 11.4 59 L 12.4 59 L 12.4 59.8 L 11.4 59.8 C 11.4 59.8 11.37 63.48 11.4 63.5 C 11.4 63.8 11.4 64 11.4 64.1 C 11.5 64.1 11.5 64.2 11.6 64.3 C 11.7 64.3 11.8 64.3 12 64.3 C 12 64.3 12 64.3 12 64.3 Z M 17.7 63.2 C 17.7 63.2 18.8 63.4 18.8 63.4 C 18.6 64 18.3 64.5 17.9 64.9 C 17.4 65.2 16.8 65.4 16.1 65.4 C 15.2 65.4 14.4 65.1 13.9 64.5 C 13.4 64 13.1 63.2 13.1 62.2 C 13.1 61.1 13.4 60.3 13.9 59.7 C 14.5 59.2 15.2 58.9 16 58.9 C 16.9 58.9 17.5 59.2 18.1 59.7 C 18.6 60.3 18.8 61.1 18.8 62.1 C 18.8 62.2 18.8 62.3 18.8 62.4 C 18.8 62.4 14.2 62.4 14.2 62.4 C 14.2 63.1 14.4 63.6 14.8 64 C 15.1 64.3 15.6 64.5 16.1 64.5 C 16.5 64.5 16.8 64.4 17.1 64.2 C 17.3 64 17.6 63.7 17.7 63.2 Z M 14.3 61.5 C 14.3 61.5 17.7 61.5 17.7 61.5 C 17.7 61 17.6 60.6 17.3 60.4 C 17 59.9 16.6 59.7 16 59.7 C 15.5 59.7 15.1 59.9 14.8 60.2 C 14.5 60.6 14.3 61 14.3 61.5 Z M 20.1 65.2 L 20.1 59 L 21.1 59 C 21.1 59 21.08 59.96 21.1 60 C 21.3 59.5 21.5 59.2 21.7 59.1 C 22 58.9 22.2 58.9 22.4 58.9 C 22.8 58.9 23.1 59 23.5 59.2 C 23.5 59.2 23.1 60.2 23.1 60.2 C 22.9 60 22.6 60 22.4 60 C 22.1 60 21.9 60 21.8 60.2 C 21.6 60.3 21.4 60.5 21.4 60.8 C 21.2 61.1 21.2 61.5 21.2 62 C 21.18 61.98 21.2 65.2 21.2 65.2 L 20.1 65.2 Z M 28.4 63.2 C 28.4 63.2 29.5 63.4 29.5 63.4 C 29.3 64 29 64.5 28.5 64.9 C 28.1 65.2 27.5 65.4 26.7 65.4 C 25.8 65.4 25.1 65.1 24.6 64.5 C 24 64 23.8 63.2 23.8 62.2 C 23.8 61.1 24.1 60.3 24.6 59.7 C 25.1 59.2 25.8 58.9 26.7 58.9 C 27.5 58.9 28.2 59.2 28.7 59.7 C 29.3 60.3 29.5 61.1 29.5 62.1 C 29.5 62.2 29.5 62.3 29.5 62.4 C 29.5 62.4 24.9 62.4 24.9 62.4 C 24.9 63.1 25.1 63.6 25.5 64 C 25.8 64.3 26.2 64.5 26.8 64.5 C 27.1 64.5 27.5 64.4 27.7 64.2 C 28 64 28.2 63.7 28.4 63.2 Z M 24.9 61.5 C 24.9 61.5 28.4 61.5 28.4 61.5 C 28.4 61 28.2 60.6 28 60.4 C 27.7 59.9 27.2 59.7 26.7 59.7 C 26.2 59.7 25.8 59.9 25.5 60.2 C 25.1 60.6 25 61 24.9 61.5 Z M 30.4 63.4 C 30.4 63.4 31.4 63.2 31.4 63.2 C 31.5 63.6 31.7 64 31.9 64.2 C 32.2 64.4 32.6 64.5 33 64.5 C 33.5 64.5 33.9 64.4 34.1 64.2 C 34.4 64 34.5 63.8 34.5 63.5 C 34.5 63.3 34.4 63.1 34.2 63 C 34 62.9 33.7 62.7 33.1 62.6 C 32.3 62.4 31.8 62.2 31.5 62.1 C 31.2 62 30.9 61.8 30.8 61.5 C 30.6 61.3 30.6 61 30.6 60.7 C 30.6 60.4 30.6 60.1 30.8 59.9 C 30.9 59.7 31.1 59.5 31.3 59.3 C 31.4 59.2 31.7 59.1 31.9 59 C 32.2 58.9 32.5 58.9 32.9 58.9 C 33.3 58.9 33.8 58.9 34.1 59.1 C 34.5 59.2 34.8 59.4 35 59.7 C 35.1 59.9 35.3 60.2 35.3 60.6 C 35.3 60.6 34.3 60.8 34.3 60.8 C 34.2 60.4 34.1 60.2 33.9 60 C 33.7 59.8 33.3 59.7 32.9 59.7 C 32.4 59.7 32.1 59.8 31.9 60 C 31.7 60.1 31.6 60.3 31.6 60.5 C 31.6 60.7 31.6 60.8 31.7 60.9 C 31.8 61 31.9 61.1 32.1 61.2 C 32.2 61.2 32.5 61.3 33 61.5 C 33.8 61.7 34.3 61.8 34.6 62 C 34.9 62.1 35.1 62.3 35.3 62.5 C 35.5 62.8 35.6 63.1 35.6 63.4 C 35.6 63.8 35.5 64.1 35.2 64.4 C 35 64.7 34.7 65 34.4 65.1 C 34 65.3 33.5 65.4 33 65.4 C 32.2 65.4 31.6 65.2 31.2 64.9 C 30.8 64.5 30.5 64 30.4 63.4 Z M 38.6 64.3 C 38.8 64.3 38.9 64.3 39.1 64.3 C 39.1 64.3 39.3 65.2 39.3 65.2 C 39 65.3 38.7 65.3 38.5 65.3 C 38.1 65.3 37.8 65.3 37.6 65.1 C 37.4 65 37.2 64.9 37.1 64.7 C 37 64.5 37 64.1 37 63.4 C 37 63.42 37 59.8 37 59.8 L 36.2 59.8 L 36.2 59 L 37 59 L 37 57.5 L 38.1 56.8 L 38.1 59 L 39.1 59 L 39.1 59.8 L 38.1 59.8 C 38.1 59.8 38.05 63.48 38.1 63.5 C 38.1 63.8 38.1 64 38.1 64.1 C 38.1 64.1 38.2 64.2 38.3 64.3 C 38.4 64.3 38.5 64.3 38.6 64.3 C 38.6 64.3 38.6 64.3 38.6 64.3 Z M 39.7 63.4 C 39.7 63.4 40.8 63.2 40.8 63.2 C 40.8 63.6 41 64 41.3 64.2 C 41.5 64.4 41.9 64.5 42.4 64.5 C 42.9 64.5 43.2 64.4 43.5 64.2 C 43.7 64 43.8 63.8 43.8 63.5 C 43.8 63.3 43.7 63.1 43.5 63 C 43.3 62.9 43 62.7 42.4 62.6 C 41.6 62.4 41.1 62.2 40.8 62.1 C 40.5 62 40.3 61.8 40.1 61.5 C 40 61.3 39.9 61 39.9 60.7 C 39.9 60.4 40 60.1 40.1 59.9 C 40.2 59.7 40.4 59.5 40.6 59.3 C 40.8 59.2 41 59.1 41.3 59 C 41.6 58.9 41.9 58.9 42.2 58.9 C 42.7 58.9 43.1 58.9 43.5 59.1 C 43.8 59.2 44.1 59.4 44.3 59.7 C 44.5 59.9 44.6 60.2 44.7 60.6 C 44.7 60.6 43.6 60.8 43.6 60.8 C 43.6 60.4 43.4 60.2 43.2 60 C 43 59.8 42.7 59.7 42.3 59.7 C 41.8 59.7 41.4 59.8 41.2 60 C 41 60.1 40.9 60.3 40.9 60.5 C 40.9 60.7 41 60.8 41 60.9 C 41.1 61 41.3 61.1 41.4 61.2 C 41.6 61.2 41.9 61.3 42.4 61.5 C 43.1 61.7 43.6 61.8 43.9 62 C 44.2 62.1 44.5 62.3 44.6 62.5 C 44.8 62.8 44.9 63.1 44.9 63.4 C 44.9 63.8 44.8 64.1 44.6 64.4 C 44.4 64.7 44.1 65 43.7 65.1 C 43.3 65.3 42.9 65.4 42.4 65.4 C 41.6 65.4 41 65.2 40.5 64.9 C 40.1 64.5 39.8 64 39.7 63.4 Z M 49.1 62.1 C 49.1 61 49.4 60.1 50 59.6 C 50.6 59.1 51.2 58.9 52 58.9 C 52.9 58.9 53.6 59.2 54.1 59.7 C 54.6 60.3 54.9 61.1 54.9 62 C 54.9 62.8 54.8 63.5 54.6 63.9 C 54.3 64.4 54 64.7 53.5 65 C 53 65.3 52.5 65.4 52 65.4 C 51.1 65.4 50.4 65.1 49.9 64.5 C 49.4 64 49.1 63.2 49.1 62.1 Z M 50.2 62.1 C 50.2 62.9 50.3 63.5 50.7 63.9 C 51 64.3 51.5 64.5 52 64.5 C 52.5 64.5 53 64.3 53.3 63.9 C 53.7 63.5 53.8 62.9 53.8 62.1 C 53.8 61.3 53.7 60.7 53.3 60.3 C 53 59.9 52.5 59.7 52 59.7 C 51.5 59.7 51 59.9 50.7 60.3 C 50.3 60.7 50.2 61.3 50.2 62.1 Z M 56.4 65.2 L 56.4 59.8 L 55.5 59.8 L 55.5 59 L 56.4 59 C 56.4 59 56.4 58.35 56.4 58.4 C 56.4 57.9 56.4 57.6 56.5 57.4 C 56.6 57.1 56.8 56.9 57 56.8 C 57.3 56.6 57.7 56.5 58.1 56.5 C 58.4 56.5 58.7 56.5 59.1 56.6 C 59.1 56.6 59 57.5 59 57.5 C 58.7 57.5 58.5 57.5 58.3 57.5 C 58 57.5 57.8 57.5 57.7 57.7 C 57.5 57.8 57.5 58.1 57.5 58.4 C 57.45 58.44 57.5 59 57.5 59 L 58.7 59 L 58.7 59.8 L 57.5 59.8 L 57.5 65.2 L 56.4 65.2 Z M 62.4 62.1 C 62.4 61 62.7 60.1 63.4 59.6 C 63.9 59.1 64.6 58.9 65.3 58.9 C 66.2 58.9 66.9 59.2 67.4 59.7 C 68 60.3 68.3 61.1 68.3 62 C 68.3 62.8 68.1 63.5 67.9 63.9 C 67.7 64.4 67.3 64.7 66.8 65 C 66.4 65.3 65.9 65.4 65.3 65.4 C 64.5 65.4 63.8 65.1 63.2 64.5 C 62.7 64 62.4 63.2 62.4 62.1 Z M 63.5 62.1 C 63.5 62.9 63.7 63.5 64 63.9 C 64.4 64.3 64.8 64.5 65.3 64.5 C 65.9 64.5 66.3 64.3 66.7 63.9 C 67 63.5 67.2 62.9 67.2 62.1 C 67.2 61.3 67 60.7 66.6 60.3 C 66.3 59.9 65.9 59.7 65.3 59.7 C 64.8 59.7 64.4 59.9 64 60.3 C 63.7 60.7 63.5 61.3 63.5 62.1 Z M 73.6 65.2 C 73.6 65.2 73.57 64.33 73.6 64.3 C 73.1 65 72.4 65.4 71.6 65.4 C 71.2 65.4 70.9 65.3 70.6 65.2 C 70.2 65 70 64.9 69.9 64.6 C 69.7 64.4 69.6 64.2 69.5 63.9 C 69.5 63.6 69.5 63.3 69.5 62.9 C 69.47 62.87 69.5 59 69.5 59 L 70.5 59 C 70.5 59 70.52 62.47 70.5 62.5 C 70.5 63 70.5 63.4 70.6 63.6 C 70.7 63.9 70.8 64.1 71 64.2 C 71.2 64.4 71.5 64.5 71.8 64.5 C 72.1 64.5 72.4 64.4 72.7 64.2 C 73 64.1 73.2 63.8 73.3 63.6 C 73.4 63.3 73.5 62.9 73.5 62.4 C 73.46 62.35 73.5 59 73.5 59 L 74.5 59 L 74.5 65.2 L 73.6 65.2 Z M 76.2 65.2 L 76.2 59 L 77.1 59 C 77.1 59 77.1 59.96 77.1 60 C 77.3 59.5 77.6 59.2 77.8 59.1 C 78 58.9 78.2 58.9 78.5 58.9 C 78.8 58.9 79.2 59 79.5 59.2 C 79.5 59.2 79.2 60.2 79.2 60.2 C 78.9 60 78.7 60 78.4 60 C 78.2 60 78 60 77.8 60.2 C 77.6 60.3 77.5 60.5 77.4 60.8 C 77.3 61.1 77.2 61.5 77.2 62 C 77.21 61.98 77.2 65.2 77.2 65.2 L 76.2 65.2 Z M 87.6 63 C 87.6 63 88.6 63.1 88.6 63.1 C 88.5 63.8 88.2 64.4 87.7 64.8 C 87.3 65.2 86.7 65.4 86 65.4 C 85.2 65.4 84.5 65.1 84 64.5 C 83.4 64 83.2 63.2 83.2 62.2 C 83.2 61.5 83.3 60.9 83.5 60.4 C 83.7 59.9 84.1 59.5 84.5 59.3 C 85 59 85.5 58.9 86 58.9 C 86.7 58.9 87.2 59 87.7 59.4 C 88.1 59.7 88.4 60.2 88.5 60.8 C 88.5 60.8 87.5 61 87.5 61 C 87.4 60.6 87.2 60.3 87 60.1 C 86.7 59.8 86.4 59.7 86.1 59.7 C 85.5 59.7 85.1 59.9 84.8 60.3 C 84.4 60.7 84.3 61.3 84.3 62.1 C 84.3 63 84.4 63.6 84.7 63.9 C 85.1 64.3 85.5 64.5 86 64.5 C 86.4 64.5 86.8 64.4 87 64.1 C 87.3 63.9 87.5 63.5 87.6 63 Z M 89.5 65.2 L 89.5 56.6 L 90.5 56.6 L 90.5 65.2 L 89.5 65.2 Z M 92.2 57.9 L 92.2 56.6 L 93.2 56.6 L 93.2 57.9 L 92.2 57.9 Z M 92.2 65.2 L 92.2 59 L 93.2 59 L 93.2 65.2 L 92.2 65.2 Z M 99.1 63.2 C 99.1 63.2 100.2 63.4 100.2 63.4 C 100 64 99.7 64.5 99.2 64.9 C 98.8 65.2 98.2 65.4 97.4 65.4 C 96.5 65.4 95.8 65.1 95.3 64.5 C 94.7 64 94.5 63.2 94.5 62.2 C 94.5 61.1 94.7 60.3 95.3 59.7 C 95.8 59.2 96.5 58.9 97.4 58.9 C 98.2 58.9 98.9 59.2 99.4 59.7 C 99.9 60.3 100.2 61.1 100.2 62.1 C 100.2 62.2 100.2 62.3 100.2 62.4 C 100.2 62.4 95.6 62.4 95.6 62.4 C 95.6 63.1 95.8 63.6 96.1 64 C 96.5 64.3 96.9 64.5 97.4 64.5 C 97.8 64.5 98.2 64.4 98.4 64.2 C 98.7 64 98.9 63.7 99.1 63.2 Z M 95.6 61.5 C 95.6 61.5 99.1 61.5 99.1 61.5 C 99.1 61 98.9 60.6 98.7 60.4 C 98.4 59.9 97.9 59.7 97.4 59.7 C 96.9 59.7 96.5 59.9 96.2 60.2 C 95.8 60.6 95.7 61 95.6 61.5 Z M 101.5 65.2 L 101.5 59 L 102.5 59 C 102.5 59 102.45 59.9 102.5 59.9 C 102.9 59.2 103.6 58.9 104.4 58.9 C 104.8 58.9 105.2 58.9 105.5 59.1 C 105.8 59.2 106 59.4 106.2 59.6 C 106.3 59.8 106.4 60.1 106.5 60.4 C 106.5 60.6 106.6 60.9 106.6 61.4 C 106.56 61.41 106.6 65.2 106.6 65.2 L 105.5 65.2 C 105.5 65.2 105.5 61.45 105.5 61.5 C 105.5 61 105.5 60.7 105.4 60.5 C 105.3 60.3 105.2 60.1 104.9 60 C 104.7 59.9 104.5 59.8 104.2 59.8 C 103.8 59.8 103.4 59.9 103 60.2 C 102.7 60.5 102.6 61 102.6 61.8 C 102.56 61.84 102.6 65.2 102.6 65.2 L 101.5 65.2 Z M 110 64.3 C 110.1 64.3 110.3 64.3 110.5 64.3 C 110.5 64.3 110.6 65.2 110.6 65.2 C 110.3 65.3 110.1 65.3 109.8 65.3 C 109.5 65.3 109.2 65.3 108.9 65.1 C 108.7 65 108.6 64.9 108.5 64.7 C 108.4 64.5 108.4 64.1 108.4 63.4 C 108.37 63.42 108.4 59.8 108.4 59.8 L 107.6 59.8 L 107.6 59 L 108.4 59 L 108.4 57.5 L 109.4 56.8 L 109.4 59 L 110.5 59 L 110.5 59.8 L 109.4 59.8 C 109.4 59.8 109.42 63.48 109.4 63.5 C 109.4 63.8 109.4 64 109.5 64.1 C 109.5 64.1 109.6 64.2 109.7 64.3 C 109.7 64.3 109.9 64.3 110 64.3 C 110 64.3 110 64.3 110 64.3 Z M 111.1 63.4 C 111.1 63.4 112.1 63.2 112.1 63.2 C 112.2 63.6 112.4 64 112.6 64.2 C 112.9 64.4 113.3 64.5 113.7 64.5 C 114.2 64.5 114.6 64.4 114.8 64.2 C 115.1 64 115.2 63.8 115.2 63.5 C 115.2 63.3 115.1 63.1 114.9 63 C 114.7 62.9 114.4 62.7 113.8 62.6 C 113 62.4 112.5 62.2 112.2 62.1 C 111.9 62 111.6 61.8 111.5 61.5 C 111.3 61.3 111.3 61 111.3 60.7 C 111.3 60.4 111.3 60.1 111.5 59.9 C 111.6 59.7 111.8 59.5 112 59.3 C 112.1 59.2 112.4 59.1 112.6 59 C 112.9 58.9 113.2 58.9 113.6 58.9 C 114 58.9 114.5 58.9 114.8 59.1 C 115.2 59.2 115.5 59.4 115.7 59.7 C 115.8 59.9 116 60.2 116 60.6 C 116 60.6 115 60.8 115 60.8 C 114.9 60.4 114.8 60.2 114.6 60 C 114.4 59.8 114 59.7 113.6 59.7 C 113.1 59.7 112.8 59.8 112.6 60 C 112.4 60.1 112.3 60.3 112.3 60.5 C 112.3 60.7 112.3 60.8 112.4 60.9 C 112.5 61 112.6 61.1 112.8 61.2 C 112.9 61.2 113.2 61.3 113.7 61.5 C 114.5 61.7 115 61.8 115.3 62 C 115.6 62.1 115.8 62.3 116 62.5 C 116.2 62.8 116.3 63.1 116.3 63.4 C 116.3 63.8 116.2 64.1 115.9 64.4 C 115.7 64.7 115.4 65 115.1 65.1 C 114.7 65.3 114.2 65.4 113.7 65.4 C 112.9 65.4 112.3 65.2 111.9 64.9 C 111.5 64.5 111.2 64 111.1 63.4 Z " stroke="none" fill="#ffffff"/>  </g>  <g id="Polygon2278">    <path d="M 0.8 53.2 L 0.8 44.6 L 1.8 44.6 C 1.8 44.6 1.75 45.43 1.8 45.4 C 2 45.1 2.2 44.9 2.5 44.7 C 2.8 44.6 3.2 44.5 3.6 44.5 C 4.1 44.5 4.6 44.6 5 44.9 C 5.4 45.2 5.7 45.5 5.9 46 C 6.1 46.5 6.2 47.1 6.2 47.7 C 6.2 48.3 6.1 48.9 5.9 49.4 C 5.6 49.9 5.3 50.3 4.9 50.6 C 4.4 50.8 4 51 3.5 51 C 3.1 51 2.8 50.9 2.5 50.8 C 2.3 50.6 2 50.4 1.8 50.2 C 1.85 50.2 1.8 53.2 1.8 53.2 L 0.8 53.2 Z M 1.7 47.8 C 1.7 48.6 1.9 49.2 2.2 49.5 C 2.6 49.9 2.9 50.1 3.4 50.1 C 3.9 50.1 4.3 49.9 4.6 49.5 C 4.9 49.1 5.1 48.5 5.1 47.7 C 5.1 46.9 5 46.3 4.6 45.9 C 4.3 45.5 3.9 45.3 3.5 45.3 C 3 45.3 2.6 45.5 2.3 45.9 C 1.9 46.4 1.7 47 1.7 47.8 Z M 7.5 50.8 L 7.5 44.6 L 8.4 44.6 C 8.4 44.6 8.4 45.56 8.4 45.6 C 8.6 45.1 8.9 44.8 9.1 44.7 C 9.3 44.5 9.5 44.5 9.8 44.5 C 10.1 44.5 10.5 44.6 10.8 44.8 C 10.8 44.8 10.5 45.8 10.5 45.8 C 10.2 45.6 10 45.6 9.7 45.6 C 9.5 45.6 9.3 45.6 9.1 45.8 C 8.9 45.9 8.8 46.1 8.7 46.4 C 8.6 46.7 8.5 47.1 8.5 47.6 C 8.51 47.58 8.5 50.8 8.5 50.8 L 7.5 50.8 Z M 11.5 43.5 L 11.5 42.2 L 12.5 42.2 L 12.5 43.5 L 11.5 43.5 Z M 11.5 50.8 L 11.5 44.6 L 12.5 44.6 L 12.5 50.8 L 11.5 50.8 Z M 14.1 50.8 L 14.1 44.6 L 15.1 44.6 C 15.1 44.6 15.08 45.5 15.1 45.5 C 15.5 44.8 16.2 44.5 17.1 44.5 C 17.4 44.5 17.8 44.5 18.1 44.7 C 18.4 44.8 18.6 45 18.8 45.2 C 19 45.4 19.1 45.7 19.1 46 C 19.2 46.2 19.2 46.5 19.2 47 C 19.18 47.01 19.2 50.8 19.2 50.8 L 18.1 50.8 C 18.1 50.8 18.13 47.05 18.1 47.1 C 18.1 46.6 18.1 46.3 18 46.1 C 17.9 45.9 17.8 45.7 17.6 45.6 C 17.4 45.5 17.1 45.4 16.8 45.4 C 16.4 45.4 16 45.5 15.7 45.8 C 15.3 46.1 15.2 46.6 15.2 47.4 C 15.18 47.44 15.2 50.8 15.2 50.8 L 14.1 50.8 Z M 24.9 48.6 C 24.9 48.6 25.9 48.7 25.9 48.7 C 25.8 49.4 25.5 50 25 50.4 C 24.6 50.8 24 51 23.3 51 C 22.5 51 21.8 50.7 21.3 50.1 C 20.7 49.6 20.5 48.8 20.5 47.8 C 20.5 47.1 20.6 46.5 20.8 46 C 21 45.5 21.4 45.1 21.8 44.9 C 22.3 44.6 22.8 44.5 23.3 44.5 C 24 44.5 24.5 44.6 25 45 C 25.4 45.3 25.7 45.8 25.8 46.4 C 25.8 46.4 24.8 46.6 24.8 46.6 C 24.7 46.2 24.5 45.9 24.3 45.7 C 24 45.4 23.7 45.3 23.4 45.3 C 22.8 45.3 22.4 45.5 22.1 45.9 C 21.7 46.3 21.6 46.9 21.6 47.7 C 21.6 48.6 21.7 49.2 22 49.5 C 22.4 49.9 22.8 50.1 23.3 50.1 C 23.7 50.1 24.1 50 24.3 49.7 C 24.6 49.5 24.8 49.1 24.9 48.6 Z M 26.8 43.5 L 26.8 42.2 L 27.9 42.2 L 27.9 43.5 L 26.8 43.5 Z M 26.8 50.8 L 26.8 44.6 L 27.9 44.6 L 27.9 50.8 L 26.8 50.8 Z M 29.5 53.2 L 29.5 44.6 L 30.4 44.6 C 30.4 44.6 30.43 45.43 30.4 45.4 C 30.7 45.1 30.9 44.9 31.2 44.7 C 31.5 44.6 31.8 44.5 32.2 44.5 C 32.8 44.5 33.2 44.6 33.6 44.9 C 34 45.2 34.4 45.5 34.6 46 C 34.8 46.5 34.9 47.1 34.9 47.7 C 34.9 48.3 34.8 48.9 34.5 49.4 C 34.3 49.9 34 50.3 33.5 50.6 C 33.1 50.8 32.6 51 32.2 51 C 31.8 51 31.5 50.9 31.2 50.8 C 30.9 50.6 30.7 50.4 30.5 50.2 C 30.52 50.2 30.5 53.2 30.5 53.2 L 29.5 53.2 Z M 30.4 47.8 C 30.4 48.6 30.6 49.2 30.9 49.5 C 31.2 49.9 31.6 50.1 32.1 50.1 C 32.6 50.1 33 49.9 33.3 49.5 C 33.6 49.1 33.8 48.5 33.8 47.7 C 33.8 46.9 33.6 46.3 33.3 45.9 C 33 45.5 32.6 45.3 32.1 45.3 C 31.7 45.3 31.3 45.5 30.9 45.9 C 30.6 46.4 30.4 47 30.4 47.8 Z M 36.1 50.8 L 36.1 42.2 L 37.2 42.2 L 37.2 50.8 L 36.1 50.8 Z M 43.1 48.8 C 43.1 48.8 44.2 49 44.2 49 C 44 49.6 43.7 50.1 43.2 50.5 C 42.7 50.8 42.1 51 41.4 51 C 40.5 51 39.8 50.7 39.3 50.1 C 38.7 49.6 38.5 48.8 38.5 47.8 C 38.5 46.7 38.7 45.9 39.3 45.3 C 39.8 44.8 40.5 44.5 41.4 44.5 C 42.2 44.5 42.9 44.8 43.4 45.3 C 43.9 45.9 44.2 46.7 44.2 47.7 C 44.2 47.8 44.2 47.9 44.2 48 C 44.2 48 39.5 48 39.5 48 C 39.6 48.7 39.8 49.2 40.1 49.6 C 40.5 49.9 40.9 50.1 41.4 50.1 C 41.8 50.1 42.1 50 42.4 49.8 C 42.7 49.6 42.9 49.3 43.1 48.8 Z M 39.6 47.1 C 39.6 47.1 43.1 47.1 43.1 47.1 C 43 46.6 42.9 46.2 42.7 46 C 42.3 45.5 41.9 45.3 41.4 45.3 C 40.9 45.3 40.5 45.5 40.2 45.8 C 39.8 46.2 39.6 46.6 39.6 47.1 Z M 45.1 49 C 45.1 49 46.1 48.8 46.1 48.8 C 46.2 49.2 46.3 49.6 46.6 49.8 C 46.9 50 47.2 50.1 47.7 50.1 C 48.2 50.1 48.6 50 48.8 49.8 C 49 49.6 49.1 49.4 49.1 49.1 C 49.1 48.9 49 48.7 48.8 48.6 C 48.7 48.5 48.3 48.3 47.8 48.2 C 47 48 46.4 47.8 46.1 47.7 C 45.8 47.6 45.6 47.4 45.5 47.1 C 45.3 46.9 45.2 46.6 45.2 46.3 C 45.2 46 45.3 45.7 45.4 45.5 C 45.6 45.3 45.7 45.1 45.9 44.9 C 46.1 44.8 46.3 44.7 46.6 44.6 C 46.9 44.5 47.2 44.5 47.5 44.5 C 48 44.5 48.4 44.5 48.8 44.7 C 49.2 44.8 49.5 45 49.6 45.3 C 49.8 45.5 49.9 45.8 50 46.2 C 50 46.2 49 46.4 49 46.4 C 48.9 46 48.8 45.8 48.6 45.6 C 48.3 45.4 48 45.3 47.6 45.3 C 47.1 45.3 46.8 45.4 46.6 45.6 C 46.4 45.7 46.3 45.9 46.3 46.1 C 46.3 46.3 46.3 46.4 46.4 46.5 C 46.5 46.6 46.6 46.7 46.8 46.8 C 46.9 46.8 47.2 46.9 47.7 47.1 C 48.5 47.3 49 47.4 49.3 47.6 C 49.6 47.7 49.8 47.9 50 48.1 C 50.1 48.4 50.2 48.7 50.2 49 C 50.2 49.4 50.1 49.7 49.9 50 C 49.7 50.3 49.4 50.6 49 50.7 C 48.6 50.9 48.2 51 47.7 51 C 46.9 51 46.3 50.8 45.9 50.5 C 45.4 50.1 45.2 49.6 45.1 49 Z M 51.8 50.8 L 51.8 49.6 L 53 49.6 C 53 49.6 52.96 50.84 53 50.8 C 53 51.3 52.9 51.6 52.7 51.9 C 52.6 52.2 52.3 52.4 52 52.5 C 52 52.5 51.7 52.1 51.7 52.1 C 51.9 52 52.1 51.8 52.2 51.7 C 52.3 51.5 52.3 51.2 52.4 50.8 C 52.35 50.84 51.8 50.8 51.8 50.8 Z M 60 49.9 C 60.1 49.9 60.3 49.9 60.5 49.9 C 60.5 49.9 60.6 50.8 60.6 50.8 C 60.3 50.9 60 50.9 59.8 50.9 C 59.4 50.9 59.1 50.9 58.9 50.7 C 58.7 50.6 58.6 50.5 58.5 50.3 C 58.4 50.1 58.3 49.7 58.3 49 C 58.34 49.02 58.3 45.4 58.3 45.4 L 57.6 45.4 L 57.6 44.6 L 58.3 44.6 L 58.3 43.1 L 59.4 42.4 L 59.4 44.6 L 60.5 44.6 L 60.5 45.4 L 59.4 45.4 C 59.4 45.4 59.39 49.08 59.4 49.1 C 59.4 49.4 59.4 49.6 59.4 49.7 C 59.5 49.7 59.5 49.8 59.6 49.9 C 59.7 49.9 59.8 49.9 60 49.9 C 60 49.9 60 49.9 60 49.9 Z M 61.5 50.8 L 61.5 44.6 L 62.4 44.6 C 62.4 44.6 62.42 45.56 62.4 45.6 C 62.7 45.1 62.9 44.8 63.1 44.7 C 63.3 44.5 63.5 44.5 63.8 44.5 C 64.1 44.5 64.5 44.6 64.9 44.8 C 64.9 44.8 64.5 45.8 64.5 45.8 C 64.2 45.6 64 45.6 63.7 45.6 C 63.5 45.6 63.3 45.6 63.1 45.8 C 62.9 45.9 62.8 46.1 62.7 46.4 C 62.6 46.7 62.5 47.1 62.5 47.6 C 62.53 47.58 62.5 50.8 62.5 50.8 L 61.5 50.8 Z M 69.8 50.8 C 69.6 50.6 69.6 50.4 69.5 50.1 C 69.1 50.4 68.8 50.6 68.4 50.8 C 68 50.9 67.7 51 67.2 51 C 66.6 51 66 50.8 65.7 50.5 C 65.3 50.1 65.1 49.7 65.1 49.2 C 65.1 48.9 65.2 48.6 65.3 48.4 C 65.5 48.1 65.6 47.9 65.9 47.8 C 66.1 47.6 66.4 47.5 66.6 47.4 C 66.8 47.4 67.2 47.3 67.6 47.3 C 68.4 47.2 69 47 69.5 46.9 C 69.5 46.7 69.5 46.7 69.5 46.6 C 69.5 46.2 69.4 45.9 69.2 45.7 C 68.9 45.5 68.5 45.3 68 45.3 C 67.5 45.3 67.1 45.4 66.9 45.6 C 66.6 45.8 66.4 46.1 66.3 46.5 C 66.3 46.5 65.3 46.4 65.3 46.4 C 65.4 46 65.6 45.6 65.8 45.3 C 66 45.1 66.3 44.8 66.7 44.7 C 67.1 44.5 67.6 44.5 68.1 44.5 C 68.6 44.5 69.1 44.5 69.4 44.7 C 69.7 44.8 70 44.9 70.1 45.1 C 70.3 45.3 70.4 45.6 70.5 45.9 C 70.5 46 70.5 46.4 70.5 46.8 C 70.5 46.8 70.5 48.2 70.5 48.2 C 70.5 49.2 70.5 49.8 70.6 50.1 C 70.6 50.4 70.7 50.6 70.9 50.8 C 70.85 50.84 69.8 50.8 69.8 50.8 C 69.8 50.8 69.75 50.84 69.8 50.8 Z M 69.5 47.7 C 69.1 47.9 68.5 48 67.7 48.1 C 67.3 48.2 67 48.2 66.8 48.3 C 66.6 48.4 66.5 48.5 66.4 48.7 C 66.3 48.8 66.2 49 66.2 49.2 C 66.2 49.5 66.4 49.7 66.6 49.9 C 66.8 50.1 67.1 50.2 67.5 50.2 C 67.9 50.2 68.3 50.1 68.6 49.9 C 68.9 49.7 69.1 49.5 69.3 49.2 C 69.4 48.9 69.5 48.6 69.5 48.1 C 69.5 48.1 69.5 47.7 69.5 47.7 Z M 72.2 50.8 L 72.2 44.6 L 73.1 44.6 C 73.1 44.6 73.1 45.5 73.1 45.5 C 73.6 44.8 74.2 44.5 75.1 44.5 C 75.5 44.5 75.8 44.5 76.1 44.7 C 76.4 44.8 76.7 45 76.8 45.2 C 77 45.4 77.1 45.7 77.2 46 C 77.2 46.2 77.2 46.5 77.2 47 C 77.21 47.01 77.2 50.8 77.2 50.8 L 76.2 50.8 C 76.2 50.8 76.15 47.05 76.2 47.1 C 76.2 46.6 76.1 46.3 76 46.1 C 75.9 45.9 75.8 45.7 75.6 45.6 C 75.4 45.5 75.1 45.4 74.9 45.4 C 74.4 45.4 74 45.5 73.7 45.8 C 73.4 46.1 73.2 46.6 73.2 47.4 C 73.21 47.44 73.2 50.8 73.2 50.8 L 72.2 50.8 Z M 78.4 49 C 78.4 49 79.4 48.8 79.4 48.8 C 79.5 49.2 79.7 49.6 79.9 49.8 C 80.2 50 80.6 50.1 81.1 50.1 C 81.5 50.1 81.9 50 82.1 49.8 C 82.4 49.6 82.5 49.4 82.5 49.1 C 82.5 48.9 82.4 48.7 82.2 48.6 C 82 48.5 81.7 48.3 81.1 48.2 C 80.3 48 79.8 47.8 79.5 47.7 C 79.2 47.6 79 47.4 78.8 47.1 C 78.7 46.9 78.6 46.6 78.6 46.3 C 78.6 46 78.6 45.7 78.8 45.5 C 78.9 45.3 79.1 45.1 79.3 44.9 C 79.5 44.8 79.7 44.7 80 44.6 C 80.2 44.5 80.5 44.5 80.9 44.5 C 81.4 44.5 81.8 44.5 82.2 44.7 C 82.5 44.8 82.8 45 83 45.3 C 83.2 45.5 83.3 45.8 83.3 46.2 C 83.3 46.2 82.3 46.4 82.3 46.4 C 82.3 46 82.1 45.8 81.9 45.6 C 81.7 45.4 81.4 45.3 80.9 45.3 C 80.5 45.3 80.1 45.4 79.9 45.6 C 79.7 45.7 79.6 45.9 79.6 46.1 C 79.6 46.3 79.6 46.4 79.7 46.5 C 79.8 46.6 79.9 46.7 80.1 46.8 C 80.2 46.8 80.5 46.9 81.1 47.1 C 81.8 47.3 82.3 47.4 82.6 47.6 C 82.9 47.7 83.2 47.9 83.3 48.1 C 83.5 48.4 83.6 48.7 83.6 49 C 83.6 49.4 83.5 49.7 83.3 50 C 83.1 50.3 82.8 50.6 82.4 50.7 C 82 50.9 81.6 51 81.1 51 C 80.3 51 79.6 50.8 79.2 50.5 C 78.8 50.1 78.5 49.6 78.4 49 Z M 84.8 53.2 L 84.8 44.6 L 85.8 44.6 C 85.8 44.6 85.79 45.43 85.8 45.4 C 86 45.1 86.3 44.9 86.6 44.7 C 86.8 44.6 87.2 44.5 87.6 44.5 C 88.1 44.5 88.6 44.6 89 44.9 C 89.4 45.2 89.7 45.5 89.9 46 C 90.1 46.5 90.2 47.1 90.2 47.7 C 90.2 48.3 90.1 48.9 89.9 49.4 C 89.7 49.9 89.3 50.3 88.9 50.6 C 88.5 50.8 88 51 87.5 51 C 87.2 51 86.8 50.9 86.6 50.8 C 86.3 50.6 86.1 50.4 85.9 50.2 C 85.88 50.2 85.9 53.2 85.9 53.2 L 84.8 53.2 Z M 85.8 47.8 C 85.8 48.6 85.9 49.2 86.3 49.5 C 86.6 49.9 87 50.1 87.4 50.1 C 87.9 50.1 88.3 49.9 88.6 49.5 C 89 49.1 89.2 48.5 89.2 47.7 C 89.2 46.9 89 46.3 88.7 45.9 C 88.3 45.5 87.9 45.3 87.5 45.3 C 87 45.3 86.6 45.5 86.3 45.9 C 86 46.4 85.8 47 85.8 47.8 Z M 95.8 50.8 C 95.7 50.6 95.6 50.4 95.6 50.1 C 95.2 50.4 94.8 50.6 94.4 50.8 C 94.1 50.9 93.7 51 93.3 51 C 92.6 51 92.1 50.8 91.7 50.5 C 91.3 50.1 91.1 49.7 91.1 49.2 C 91.1 48.9 91.2 48.6 91.4 48.4 C 91.5 48.1 91.7 47.9 91.9 47.8 C 92.1 47.6 92.4 47.5 92.7 47.4 C 92.9 47.4 93.2 47.3 93.6 47.3 C 94.4 47.2 95.1 47 95.5 46.9 C 95.5 46.7 95.5 46.7 95.5 46.6 C 95.5 46.2 95.4 45.9 95.2 45.7 C 94.9 45.5 94.5 45.3 94 45.3 C 93.5 45.3 93.1 45.4 92.9 45.6 C 92.6 45.8 92.5 46.1 92.4 46.5 C 92.4 46.5 91.3 46.4 91.3 46.4 C 91.4 46 91.6 45.6 91.8 45.3 C 92 45.1 92.3 44.8 92.7 44.7 C 93.1 44.5 93.6 44.5 94.1 44.5 C 94.7 44.5 95.1 44.5 95.4 44.7 C 95.8 44.8 96 44.9 96.2 45.1 C 96.3 45.3 96.4 45.6 96.5 45.9 C 96.5 46 96.5 46.4 96.5 46.8 C 96.5 46.8 96.5 48.2 96.5 48.2 C 96.5 49.2 96.6 49.8 96.6 50.1 C 96.7 50.4 96.7 50.6 96.9 50.8 C 96.87 50.84 95.8 50.8 95.8 50.8 C 95.8 50.8 95.77 50.84 95.8 50.8 Z M 95.5 47.7 C 95.1 47.9 94.5 48 93.8 48.1 C 93.3 48.2 93 48.2 92.8 48.3 C 92.7 48.4 92.5 48.5 92.4 48.7 C 92.3 48.8 92.3 49 92.3 49.2 C 92.3 49.5 92.4 49.7 92.6 49.9 C 92.8 50.1 93.1 50.2 93.5 50.2 C 93.9 50.2 94.3 50.1 94.6 49.9 C 94.9 49.7 95.2 49.5 95.3 49.2 C 95.4 48.9 95.5 48.6 95.5 48.1 C 95.5 48.1 95.5 47.7 95.5 47.7 Z M 98.2 50.8 L 98.2 44.6 L 99.1 44.6 C 99.1 44.6 99.11 45.56 99.1 45.6 C 99.4 45.1 99.6 44.8 99.8 44.7 C 100 44.5 100.2 44.5 100.5 44.5 C 100.8 44.5 101.2 44.6 101.5 44.8 C 101.5 44.8 101.2 45.8 101.2 45.8 C 100.9 45.6 100.7 45.6 100.4 45.6 C 100.2 45.6 100 45.6 99.8 45.8 C 99.6 45.9 99.5 46.1 99.4 46.4 C 99.3 46.7 99.2 47.1 99.2 47.6 C 99.22 47.58 99.2 50.8 99.2 50.8 L 98.2 50.8 Z M 106.4 48.8 C 106.4 48.8 107.5 49 107.5 49 C 107.3 49.6 107 50.1 106.6 50.5 C 106.1 50.8 105.5 51 104.8 51 C 103.9 51 103.2 50.7 102.6 50.1 C 102.1 49.6 101.8 48.8 101.8 47.8 C 101.8 46.7 102.1 45.9 102.6 45.3 C 103.2 44.8 103.9 44.5 104.7 44.5 C 105.6 44.5 106.2 44.8 106.8 45.3 C 107.3 45.9 107.6 46.7 107.6 47.7 C 107.6 47.8 107.6 47.9 107.5 48 C 107.5 48 102.9 48 102.9 48 C 102.9 48.7 103.1 49.2 103.5 49.6 C 103.8 49.9 104.3 50.1 104.8 50.1 C 105.2 50.1 105.5 50 105.8 49.8 C 106.1 49.6 106.3 49.3 106.4 48.8 Z M 103 47.1 C 103 47.1 106.4 47.1 106.4 47.1 C 106.4 46.6 106.3 46.2 106 46 C 105.7 45.5 105.3 45.3 104.7 45.3 C 104.3 45.3 103.8 45.5 103.5 45.8 C 103.2 46.2 103 46.6 103 47.1 Z M 108.8 50.8 L 108.8 44.6 L 109.8 44.6 C 109.8 44.6 109.79 45.5 109.8 45.5 C 110.3 44.8 110.9 44.5 111.8 44.5 C 112.1 44.5 112.5 44.5 112.8 44.7 C 113.1 44.8 113.4 45 113.5 45.2 C 113.7 45.4 113.8 45.7 113.8 46 C 113.9 46.2 113.9 46.5 113.9 47 C 113.9 47.01 113.9 50.8 113.9 50.8 L 112.8 50.8 C 112.8 50.8 112.85 47.05 112.8 47.1 C 112.8 46.6 112.8 46.3 112.7 46.1 C 112.6 45.9 112.5 45.7 112.3 45.6 C 112.1 45.5 111.8 45.4 111.6 45.4 C 111.1 45.4 110.7 45.5 110.4 45.8 C 110.1 46.1 109.9 46.6 109.9 47.4 C 109.9 47.44 109.9 50.8 109.9 50.8 L 108.8 50.8 Z M 119.6 48.6 C 119.6 48.6 120.6 48.7 120.6 48.7 C 120.5 49.4 120.2 50 119.7 50.4 C 119.3 50.8 118.7 51 118 51 C 117.2 51 116.5 50.7 116 50.1 C 115.5 49.6 115.2 48.8 115.2 47.8 C 115.2 47.1 115.3 46.5 115.5 46 C 115.8 45.5 116.1 45.1 116.5 44.9 C 117 44.6 117.5 44.5 118 44.5 C 118.7 44.5 119.3 44.6 119.7 45 C 120.1 45.3 120.4 45.8 120.5 46.4 C 120.5 46.4 119.5 46.6 119.5 46.6 C 119.4 46.2 119.2 45.9 119 45.7 C 118.7 45.4 118.4 45.3 118.1 45.3 C 117.5 45.3 117.1 45.5 116.8 45.9 C 116.4 46.3 116.3 46.9 116.3 47.7 C 116.3 48.6 116.4 49.2 116.8 49.5 C 117.1 49.9 117.5 50.1 118 50.1 C 118.4 50.1 118.8 50 119.1 49.7 C 119.3 49.5 119.5 49.1 119.6 48.6 Z M 122.2 53.4 C 121.9 53.4 121.7 53.3 121.5 53.2 C 121.5 53.2 121.4 52.2 121.4 52.2 C 121.6 52.3 121.8 52.3 122 52.3 C 122.2 52.3 122.4 52.3 122.5 52.2 C 122.7 52.1 122.8 52 122.9 51.9 C 122.9 51.8 123 51.5 123.2 51.1 C 123.2 51.1 123.2 51 123.3 50.9 C 123.28 50.85 120.9 44.6 120.9 44.6 L 122.1 44.6 C 122.1 44.6 123.35 48.22 123.4 48.2 C 123.5 48.7 123.7 49.2 123.8 49.7 C 123.9 49.2 124.1 48.7 124.2 48.2 C 124.24 48.24 125.6 44.6 125.6 44.6 L 126.6 44.6 C 126.6 44.6 124.25 50.95 124.3 50.9 C 124 51.6 123.8 52.1 123.7 52.4 C 123.5 52.7 123.3 53 123 53.1 C 122.8 53.3 122.5 53.4 122.2 53.4 C 122.2 53.4 122.2 53.4 122.2 53.4 Z M 135.1 50.8 C 135 50.6 134.9 50.4 134.9 50.1 C 134.5 50.4 134.1 50.6 133.8 50.8 C 133.4 50.9 133 51 132.6 51 C 131.9 51 131.4 50.8 131 50.5 C 130.7 50.1 130.5 49.7 130.5 49.2 C 130.5 48.9 130.6 48.6 130.7 48.4 C 130.8 48.1 131 47.9 131.2 47.8 C 131.5 47.6 131.7 47.5 132 47.4 C 132.2 47.4 132.5 47.3 132.9 47.3 C 133.8 47.2 134.4 47 134.8 46.9 C 134.8 46.7 134.8 46.7 134.8 46.6 C 134.8 46.2 134.7 45.9 134.5 45.7 C 134.3 45.5 133.9 45.3 133.3 45.3 C 132.8 45.3 132.5 45.4 132.2 45.6 C 132 45.8 131.8 46.1 131.7 46.5 C 131.7 46.5 130.7 46.4 130.7 46.4 C 130.8 46 130.9 45.6 131.1 45.3 C 131.4 45.1 131.7 44.8 132.1 44.7 C 132.5 44.5 132.9 44.5 133.5 44.5 C 134 44.5 134.4 44.5 134.8 44.7 C 135.1 44.8 135.4 44.9 135.5 45.1 C 135.7 45.3 135.8 45.6 135.8 45.9 C 135.9 46 135.9 46.4 135.9 46.8 C 135.9 46.8 135.9 48.2 135.9 48.2 C 135.9 49.2 135.9 49.8 136 50.1 C 136 50.4 136.1 50.6 136.2 50.8 C 136.22 50.84 135.1 50.8 135.1 50.8 C 135.1 50.8 135.12 50.84 135.1 50.8 Z M 134.8 47.7 C 134.4 47.9 133.9 48 133.1 48.1 C 132.7 48.2 132.4 48.2 132.2 48.3 C 132 48.4 131.9 48.5 131.8 48.7 C 131.7 48.8 131.6 49 131.6 49.2 C 131.6 49.5 131.7 49.7 131.9 49.9 C 132.2 50.1 132.5 50.2 132.9 50.2 C 133.3 50.2 133.6 50.1 134 49.9 C 134.3 49.7 134.5 49.5 134.7 49.2 C 134.8 48.9 134.8 48.6 134.8 48.1 C 134.8 48.1 134.8 47.7 134.8 47.7 Z M 137.5 50.8 L 137.5 44.6 L 138.5 44.6 C 138.5 44.6 138.47 45.5 138.5 45.5 C 138.9 44.8 139.6 44.5 140.5 44.5 C 140.8 44.5 141.2 44.5 141.5 44.7 C 141.8 44.8 142 45 142.2 45.2 C 142.4 45.4 142.5 45.7 142.5 46 C 142.6 46.2 142.6 46.5 142.6 47 C 142.58 47.01 142.6 50.8 142.6 50.8 L 141.5 50.8 C 141.5 50.8 141.53 47.05 141.5 47.1 C 141.5 46.6 141.5 46.3 141.4 46.1 C 141.3 45.9 141.2 45.7 141 45.6 C 140.8 45.5 140.5 45.4 140.2 45.4 C 139.8 45.4 139.4 45.5 139.1 45.8 C 138.7 46.1 138.6 46.6 138.6 47.4 C 138.58 47.44 138.6 50.8 138.6 50.8 L 137.5 50.8 Z M 148.2 50.8 C 148.2 50.8 148.24 50.05 148.2 50.1 C 147.8 50.7 147.3 51 146.5 51 C 146 51 145.5 50.8 145.1 50.6 C 144.7 50.3 144.4 49.9 144.2 49.4 C 143.9 48.9 143.8 48.4 143.8 47.7 C 143.8 47.1 143.9 46.5 144.1 46 C 144.3 45.5 144.6 45.2 145.1 44.9 C 145.5 44.6 145.9 44.5 146.4 44.5 C 146.8 44.5 147.2 44.6 147.5 44.7 C 147.7 44.9 148 45.1 148.2 45.3 C 148.17 45.33 148.2 42.2 148.2 42.2 L 149.2 42.2 L 149.2 50.8 L 148.2 50.8 Z M 144.9 47.7 C 144.9 48.5 145.1 49.1 145.4 49.5 C 145.7 49.9 146.1 50.1 146.6 50.1 C 147.1 50.1 147.4 49.9 147.8 49.5 C 148.1 49.2 148.3 48.6 148.3 47.8 C 148.3 47 148.1 46.3 147.8 45.9 C 147.4 45.5 147 45.3 146.5 45.3 C 146.1 45.3 145.7 45.5 145.4 45.9 C 145.1 46.3 144.9 46.9 144.9 47.7 Z M 158.5 50.8 C 158.4 50.6 158.3 50.4 158.3 50.1 C 157.9 50.4 157.5 50.6 157.1 50.8 C 156.8 50.9 156.4 51 156 51 C 155.3 51 154.8 50.8 154.4 50.5 C 154 50.1 153.8 49.7 153.8 49.2 C 153.8 48.9 153.9 48.6 154.1 48.4 C 154.2 48.1 154.4 47.9 154.6 47.8 C 154.8 47.6 155.1 47.5 155.4 47.4 C 155.6 47.4 155.9 47.3 156.3 47.3 C 157.2 47.2 157.8 47 158.2 46.9 C 158.2 46.7 158.2 46.7 158.2 46.6 C 158.2 46.2 158.1 45.9 157.9 45.7 C 157.6 45.5 157.2 45.3 156.7 45.3 C 156.2 45.3 155.8 45.4 155.6 45.6 C 155.4 45.8 155.2 46.1 155.1 46.5 C 155.1 46.5 154 46.4 154 46.4 C 154.1 46 154.3 45.6 154.5 45.3 C 154.7 45.1 155 44.8 155.4 44.7 C 155.8 44.5 156.3 44.5 156.8 44.5 C 157.4 44.5 157.8 44.5 158.1 44.7 C 158.5 44.8 158.7 44.9 158.9 45.1 C 159 45.3 159.1 45.6 159.2 45.9 C 159.2 46 159.2 46.4 159.2 46.8 C 159.2 46.8 159.2 48.2 159.2 48.2 C 159.2 49.2 159.3 49.8 159.3 50.1 C 159.4 50.4 159.4 50.6 159.6 50.8 C 159.58 50.84 158.5 50.8 158.5 50.8 C 158.5 50.8 158.48 50.84 158.5 50.8 Z M 158.2 47.7 C 157.8 47.9 157.2 48 156.5 48.1 C 156 48.2 155.7 48.2 155.5 48.3 C 155.4 48.4 155.2 48.5 155.1 48.7 C 155 48.8 155 49 155 49.2 C 155 49.5 155.1 49.7 155.3 49.9 C 155.5 50.1 155.8 50.2 156.2 50.2 C 156.6 50.2 157 50.1 157.3 49.9 C 157.6 49.7 157.9 49.5 158 49.2 C 158.1 48.9 158.2 48.6 158.2 48.1 C 158.2 48.1 158.2 47.7 158.2 47.7 Z M 160.9 50.8 L 160.9 42.2 L 161.9 42.2 L 161.9 50.8 L 160.9 50.8 Z M 164.7 50.8 L 162.8 44.6 L 163.9 44.6 L 164.9 48.2 C 164.9 48.2 165.24 49.54 165.2 49.5 C 165.3 49.5 165.4 49.1 165.6 48.3 C 165.56 48.26 166.6 44.6 166.6 44.6 L 167.6 44.6 L 168.6 48.2 L 168.9 49.4 L 169.2 48.2 L 170.3 44.6 L 171.3 44.6 L 169.4 50.8 L 168.3 50.8 L 167.3 47.1 L 167.1 46.1 L 165.8 50.8 L 164.7 50.8 Z M 176.5 50.8 C 176.4 50.6 176.3 50.4 176.3 50.1 C 175.9 50.4 175.5 50.6 175.1 50.8 C 174.8 50.9 174.4 51 174 51 C 173.3 51 172.8 50.8 172.4 50.5 C 172 50.1 171.9 49.7 171.9 49.2 C 171.9 48.9 171.9 48.6 172.1 48.4 C 172.2 48.1 172.4 47.9 172.6 47.8 C 172.8 47.6 173.1 47.5 173.4 47.4 C 173.6 47.4 173.9 47.3 174.3 47.3 C 175.2 47.2 175.8 47 176.2 46.9 C 176.2 46.7 176.2 46.7 176.2 46.6 C 176.2 46.2 176.1 45.9 175.9 45.7 C 175.6 45.5 175.2 45.3 174.7 45.3 C 174.2 45.3 173.8 45.4 173.6 45.6 C 173.4 45.8 173.2 46.1 173.1 46.5 C 173.1 46.5 172 46.4 172 46.4 C 172.1 46 172.3 45.6 172.5 45.3 C 172.7 45.1 173 44.8 173.4 44.7 C 173.8 44.5 174.3 44.5 174.8 44.5 C 175.4 44.5 175.8 44.5 176.1 44.7 C 176.5 44.8 176.7 44.9 176.9 45.1 C 177 45.3 177.1 45.6 177.2 45.9 C 177.2 46 177.3 46.4 177.3 46.8 C 177.3 46.8 177.3 48.2 177.3 48.2 C 177.3 49.2 177.3 49.8 177.3 50.1 C 177.4 50.4 177.5 50.6 177.6 50.8 C 177.59 50.84 176.5 50.8 176.5 50.8 C 176.5 50.8 176.48 50.84 176.5 50.8 Z M 176.2 47.7 C 175.8 47.9 175.2 48 174.5 48.1 C 174 48.2 173.7 48.2 173.5 48.3 C 173.4 48.4 173.2 48.5 173.1 48.7 C 173 48.8 173 49 173 49.2 C 173 49.5 173.1 49.7 173.3 49.9 C 173.5 50.1 173.8 50.2 174.2 50.2 C 174.6 50.2 175 50.1 175.3 49.9 C 175.6 49.7 175.9 49.5 176 49.2 C 176.1 48.9 176.2 48.6 176.2 48.1 C 176.2 48.1 176.2 47.7 176.2 47.7 Z M 179.5 53.4 C 179.3 53.4 179.1 53.3 178.8 53.2 C 178.8 53.2 178.7 52.2 178.7 52.2 C 179 52.3 179.2 52.3 179.3 52.3 C 179.6 52.3 179.7 52.3 179.9 52.2 C 180 52.1 180.1 52 180.2 51.9 C 180.3 51.8 180.4 51.5 180.6 51.1 C 180.6 51.1 180.6 51 180.7 50.9 C 180.65 50.85 178.3 44.6 178.3 44.6 L 179.4 44.6 C 179.4 44.6 180.72 48.22 180.7 48.2 C 180.9 48.7 181 49.2 181.2 49.7 C 181.3 49.2 181.4 48.7 181.6 48.2 C 181.61 48.24 182.9 44.6 182.9 44.6 L 184 44.6 C 184 44.6 181.62 50.95 181.6 50.9 C 181.4 51.6 181.2 52.1 181 52.4 C 180.8 52.7 180.6 53 180.4 53.1 C 180.1 53.3 179.9 53.4 179.5 53.4 C 179.5 53.4 179.5 53.4 179.5 53.4 Z M 184.5 49 C 184.5 49 185.5 48.8 185.5 48.8 C 185.6 49.2 185.7 49.6 186 49.8 C 186.3 50 186.6 50.1 187.1 50.1 C 187.6 50.1 188 50 188.2 49.8 C 188.4 49.6 188.5 49.4 188.5 49.1 C 188.5 48.9 188.4 48.7 188.2 48.6 C 188.1 48.5 187.7 48.3 187.2 48.2 C 186.4 48 185.9 47.8 185.6 47.7 C 185.3 47.6 185 47.4 184.9 47.1 C 184.7 46.9 184.6 46.6 184.6 46.3 C 184.6 46 184.7 45.7 184.8 45.5 C 185 45.3 185.1 45.1 185.3 44.9 C 185.5 44.8 185.7 44.7 186 44.6 C 186.3 44.5 186.6 44.5 186.9 44.5 C 187.4 44.5 187.8 44.5 188.2 44.7 C 188.6 44.8 188.9 45 189 45.3 C 189.2 45.5 189.3 45.8 189.4 46.2 C 189.4 46.2 188.4 46.4 188.4 46.4 C 188.3 46 188.2 45.8 188 45.6 C 187.7 45.4 187.4 45.3 187 45.3 C 186.5 45.3 186.2 45.4 186 45.6 C 185.8 45.7 185.7 45.9 185.7 46.1 C 185.7 46.3 185.7 46.4 185.8 46.5 C 185.9 46.6 186 46.7 186.2 46.8 C 186.3 46.8 186.6 46.9 187.1 47.1 C 187.9 47.3 188.4 47.4 188.7 47.6 C 189 47.7 189.2 47.9 189.4 48.1 C 189.5 48.4 189.6 48.7 189.6 49 C 189.6 49.4 189.5 49.7 189.3 50 C 189.1 50.3 188.8 50.6 188.4 50.7 C 188.1 50.9 187.6 51 187.1 51 C 186.3 51 185.7 50.8 185.3 50.5 C 184.9 50.1 184.6 49.6 184.5 49 Z M 194.2 43.5 L 194.2 42.2 L 195.3 42.2 L 195.3 43.5 L 194.2 43.5 Z M 194.2 50.8 L 194.2 44.6 L 195.3 44.6 L 195.3 50.8 L 194.2 50.8 Z M 196.9 50.8 L 196.9 44.6 L 197.8 44.6 C 197.8 44.6 197.84 45.5 197.8 45.5 C 198.3 44.8 199 44.5 199.8 44.5 C 200.2 44.5 200.5 44.5 200.9 44.7 C 201.2 44.8 201.4 45 201.6 45.2 C 201.7 45.4 201.8 45.7 201.9 46 C 201.9 46.2 201.9 46.5 201.9 47 C 201.94 47.01 201.9 50.8 201.9 50.8 L 200.9 50.8 C 200.9 50.8 200.89 47.05 200.9 47.1 C 200.9 46.6 200.8 46.3 200.8 46.1 C 200.7 45.9 200.5 45.7 200.3 45.6 C 200.1 45.5 199.9 45.4 199.6 45.4 C 199.1 45.4 198.8 45.5 198.4 45.8 C 198.1 46.1 197.9 46.6 197.9 47.4 C 197.94 47.44 197.9 50.8 197.9 50.8 L 196.9 50.8 Z M 208.7 49.9 C 208.9 49.9 209 49.9 209.2 49.9 C 209.2 49.9 209.3 50.8 209.3 50.8 C 209.1 50.9 208.8 50.9 208.6 50.9 C 208.2 50.9 207.9 50.9 207.7 50.7 C 207.5 50.6 207.3 50.5 207.2 50.3 C 207.1 50.1 207.1 49.7 207.1 49 C 207.09 49.02 207.1 45.4 207.1 45.4 L 206.3 45.4 L 206.3 44.6 L 207.1 44.6 L 207.1 43.1 L 208.1 42.4 L 208.1 44.6 L 209.2 44.6 L 209.2 45.4 L 208.1 45.4 C 208.1 45.4 208.14 49.08 208.1 49.1 C 208.1 49.4 208.2 49.6 208.2 49.7 C 208.2 49.7 208.3 49.8 208.4 49.9 C 208.5 49.9 208.6 49.9 208.7 49.9 C 208.7 49.9 208.7 49.9 208.7 49.9 Z M 210.2 50.8 L 210.2 42.2 L 211.3 42.2 C 211.3 42.2 211.28 45.33 211.3 45.3 C 211.8 44.8 212.4 44.5 213.1 44.5 C 213.6 44.5 214 44.6 214.3 44.7 C 214.7 44.9 214.9 45.2 215.1 45.5 C 215.2 45.8 215.3 46.3 215.3 46.9 C 215.3 46.9 215.3 50.8 215.3 50.8 L 214.2 50.8 C 214.2 50.8 214.24 46.9 214.2 46.9 C 214.2 46.4 214.1 46 213.9 45.7 C 213.7 45.5 213.3 45.4 212.9 45.4 C 212.6 45.4 212.3 45.5 212 45.6 C 211.8 45.8 211.6 46 211.5 46.3 C 211.3 46.6 211.3 46.9 211.3 47.4 C 211.28 47.44 211.3 50.8 211.3 50.8 L 210.2 50.8 Z M 221.2 48.8 C 221.2 48.8 222.3 49 222.3 49 C 222.1 49.6 221.8 50.1 221.3 50.5 C 220.8 50.8 220.2 51 219.5 51 C 218.6 51 217.9 50.7 217.4 50.1 C 216.8 49.6 216.6 48.8 216.6 47.8 C 216.6 46.7 216.8 45.9 217.4 45.3 C 217.9 44.8 218.6 44.5 219.5 44.5 C 220.3 44.5 221 44.8 221.5 45.3 C 222 45.9 222.3 46.7 222.3 47.7 C 222.3 47.8 222.3 47.9 222.3 48 C 222.3 48 217.6 48 217.6 48 C 217.7 48.7 217.9 49.2 218.2 49.6 C 218.6 49.9 219 50.1 219.5 50.1 C 219.9 50.1 220.2 50 220.5 49.8 C 220.8 49.6 221 49.3 221.2 48.8 Z M 217.7 47.1 C 217.7 47.1 221.2 47.1 221.2 47.1 C 221.1 46.6 221 46.2 220.8 46 C 220.4 45.5 220 45.3 219.5 45.3 C 219 45.3 218.6 45.5 218.2 45.8 C 217.9 46.2 217.7 46.6 217.7 47.1 Z M 227.9 50.8 L 226.9 50.8 L 226.9 42.2 L 228 42.2 C 228 42.2 227.96 45.31 228 45.3 C 228.4 44.8 229 44.5 229.7 44.5 C 230 44.5 230.4 44.6 230.8 44.7 C 231.1 44.9 231.4 45.1 231.6 45.4 C 231.8 45.6 232 46 232.1 46.4 C 232.2 46.8 232.3 47.2 232.3 47.6 C 232.3 48.7 232 49.5 231.5 50.1 C 231 50.7 230.3 51 229.6 51 C 228.9 51 228.3 50.7 227.9 50.1 C 227.88 50.06 227.9 50.8 227.9 50.8 Z M 227.9 47.7 C 227.9 48.4 228 49 228.2 49.3 C 228.5 49.8 229 50.1 229.5 50.1 C 230 50.1 230.4 49.9 230.7 49.5 C 231.1 49.1 231.2 48.5 231.2 47.7 C 231.2 46.9 231.1 46.3 230.7 45.9 C 230.4 45.5 230 45.3 229.6 45.3 C 229.1 45.3 228.7 45.5 228.4 45.9 C 228 46.3 227.9 46.9 227.9 47.7 Z M 237.8 48.8 C 237.8 48.8 238.9 49 238.9 49 C 238.8 49.6 238.4 50.1 238 50.5 C 237.5 50.8 236.9 51 236.2 51 C 235.3 51 234.6 50.7 234 50.1 C 233.5 49.6 233.2 48.8 233.2 47.8 C 233.2 46.7 233.5 45.9 234 45.3 C 234.6 44.8 235.3 44.5 236.1 44.5 C 237 44.5 237.7 44.8 238.2 45.3 C 238.7 45.9 239 46.7 239 47.7 C 239 47.8 239 47.9 239 48 C 239 48 234.3 48 234.3 48 C 234.4 48.7 234.6 49.2 234.9 49.6 C 235.2 49.9 235.7 50.1 236.2 50.1 C 236.6 50.1 236.9 50 237.2 49.8 C 237.5 49.6 237.7 49.3 237.8 48.8 Z M 234.4 47.1 C 234.4 47.1 237.9 47.1 237.9 47.1 C 237.8 46.6 237.7 46.2 237.5 46 C 237.1 45.5 236.7 45.3 236.2 45.3 C 235.7 45.3 235.3 45.5 234.9 45.8 C 234.6 46.2 234.4 46.6 234.4 47.1 Z M 239.8 49 C 239.8 49 240.9 48.8 240.9 48.8 C 240.9 49.2 241.1 49.6 241.4 49.8 C 241.6 50 242 50.1 242.5 50.1 C 243 50.1 243.3 50 243.6 49.8 C 243.8 49.6 243.9 49.4 243.9 49.1 C 243.9 48.9 243.8 48.7 243.6 48.6 C 243.5 48.5 243.1 48.3 242.5 48.2 C 241.8 48 241.2 47.8 240.9 47.7 C 240.6 47.6 240.4 47.4 240.2 47.1 C 240.1 46.9 240 46.6 240 46.3 C 240 46 240.1 45.7 240.2 45.5 C 240.3 45.3 240.5 45.1 240.7 44.9 C 240.9 44.8 241.1 44.7 241.4 44.6 C 241.7 44.5 242 44.5 242.3 44.5 C 242.8 44.5 243.2 44.5 243.6 44.7 C 244 44.8 244.2 45 244.4 45.3 C 244.6 45.5 244.7 45.8 244.8 46.2 C 244.8 46.2 243.7 46.4 243.7 46.4 C 243.7 46 243.6 45.8 243.3 45.6 C 243.1 45.4 242.8 45.3 242.4 45.3 C 241.9 45.3 241.5 45.4 241.3 45.6 C 241.1 45.7 241 45.9 241 46.1 C 241 46.3 241.1 46.4 241.2 46.5 C 241.2 46.6 241.4 46.7 241.6 46.8 C 241.7 46.8 242 46.9 242.5 47.1 C 243.2 47.3 243.8 47.4 244.1 47.6 C 244.4 47.7 244.6 47.9 244.8 48.1 C 244.9 48.4 245 48.7 245 49 C 245 49.4 244.9 49.7 244.7 50 C 244.5 50.3 244.2 50.6 243.8 50.7 C 243.4 50.9 243 51 242.5 51 C 241.7 51 241.1 50.8 240.6 50.5 C 240.2 50.1 240 49.6 239.8 49 Z M 248.1 49.9 C 248.2 49.9 248.4 49.9 248.6 49.9 C 248.6 49.9 248.7 50.8 248.7 50.8 C 248.4 50.9 248.2 50.9 247.9 50.9 C 247.5 50.9 247.2 50.9 247 50.7 C 246.8 50.6 246.7 50.5 246.6 50.3 C 246.5 50.1 246.5 49.7 246.5 49 C 246.45 49.02 246.5 45.4 246.5 45.4 L 245.7 45.4 L 245.7 44.6 L 246.5 44.6 L 246.5 43.1 L 247.5 42.4 L 247.5 44.6 L 248.6 44.6 L 248.6 45.4 L 247.5 45.4 C 247.5 45.4 247.5 49.08 247.5 49.1 C 247.5 49.4 247.5 49.6 247.6 49.7 C 247.6 49.7 247.7 49.8 247.7 49.9 C 247.8 49.9 247.9 49.9 248.1 49.9 C 248.1 49.9 248.1 49.9 248.1 49.9 Z " stroke="none" fill="#ffffff"/>  </g>  <g id="Polygon2277">    <path d="M 0.9 36.4 L 0.9 27.8 C 0.9 27.8 4.1 27.85 4.1 27.8 C 4.8 27.8 5.3 27.9 5.7 28.1 C 6.1 28.3 6.4 28.6 6.6 28.9 C 6.8 29.3 6.9 29.7 6.9 30 C 6.9 30.4 6.8 30.8 6.7 31.1 C 6.5 31.4 6.2 31.7 5.7 31.9 C 6.3 32 6.7 32.3 6.9 32.6 C 7.2 33 7.4 33.4 7.4 33.9 C 7.4 34.4 7.3 34.7 7.1 35.1 C 6.9 35.4 6.7 35.7 6.5 35.9 C 6.2 36.1 5.9 36.2 5.5 36.3 C 5.2 36.4 4.7 36.4 4.2 36.4 C 4.15 36.44 0.9 36.4 0.9 36.4 Z M 2 31.5 C 2 31.5 3.87 31.46 3.9 31.5 C 4.4 31.5 4.7 31.4 5 31.4 C 5.2 31.3 5.5 31.1 5.6 30.9 C 5.8 30.7 5.8 30.5 5.8 30.2 C 5.8 29.9 5.8 29.6 5.6 29.4 C 5.5 29.2 5.3 29.1 5 29 C 4.8 28.9 4.3 28.9 3.7 28.9 C 3.73 28.86 2 28.9 2 28.9 L 2 31.5 Z M 2 35.4 C 2 35.4 4.15 35.43 4.2 35.4 C 4.5 35.4 4.8 35.4 4.9 35.4 C 5.2 35.3 5.4 35.3 5.6 35.2 C 5.8 35 5.9 34.9 6 34.7 C 6.1 34.5 6.2 34.2 6.2 33.9 C 6.2 33.6 6.1 33.4 5.9 33.1 C 5.8 32.9 5.5 32.7 5.3 32.6 C 5 32.5 4.5 32.5 4 32.5 C 4 32.47 2 32.5 2 32.5 L 2 35.4 Z M 13.1 34.4 C 13.1 34.4 14.1 34.6 14.1 34.6 C 14 35.2 13.7 35.7 13.2 36.1 C 12.7 36.4 12.1 36.6 11.4 36.6 C 10.5 36.6 9.8 36.3 9.2 35.7 C 8.7 35.2 8.4 34.4 8.4 33.4 C 8.4 32.3 8.7 31.5 9.3 30.9 C 9.8 30.4 10.5 30.1 11.3 30.1 C 12.2 30.1 12.9 30.4 13.4 30.9 C 13.9 31.5 14.2 32.3 14.2 33.3 C 14.2 33.4 14.2 33.5 14.2 33.6 C 14.2 33.6 9.5 33.6 9.5 33.6 C 9.6 34.3 9.8 34.8 10.1 35.2 C 10.5 35.5 10.9 35.7 11.4 35.7 C 11.8 35.7 12.1 35.6 12.4 35.4 C 12.7 35.2 12.9 34.9 13.1 34.4 Z M 9.6 32.7 C 9.6 32.7 13.1 32.7 13.1 32.7 C 13 32.2 12.9 31.8 12.7 31.6 C 12.3 31.1 11.9 30.9 11.4 30.9 C 10.9 30.9 10.5 31.1 10.1 31.4 C 9.8 31.8 9.6 32.2 9.6 32.7 Z M 15.5 36.4 L 15.5 27.8 L 16.5 27.8 C 16.5 27.8 16.52 30.93 16.5 30.9 C 17 30.4 17.6 30.1 18.4 30.1 C 18.8 30.1 19.2 30.2 19.6 30.3 C 19.9 30.5 20.2 30.8 20.3 31.1 C 20.5 31.4 20.5 31.9 20.5 32.5 C 20.54 32.5 20.5 36.4 20.5 36.4 L 19.5 36.4 C 19.5 36.4 19.48 32.5 19.5 32.5 C 19.5 32 19.4 31.6 19.1 31.3 C 18.9 31.1 18.6 31 18.2 31 C 17.9 31 17.6 31.1 17.3 31.2 C 17 31.4 16.8 31.6 16.7 31.9 C 16.6 32.2 16.5 32.5 16.5 33 C 16.52 33.04 16.5 36.4 16.5 36.4 L 15.5 36.4 Z M 26.4 36.4 C 26.3 36.2 26.2 36 26.2 35.7 C 25.8 36 25.4 36.2 25.1 36.4 C 24.7 36.5 24.3 36.6 23.9 36.6 C 23.2 36.6 22.7 36.4 22.3 36.1 C 22 35.7 21.8 35.3 21.8 34.8 C 21.8 34.5 21.9 34.2 22 34 C 22.1 33.7 22.3 33.5 22.5 33.4 C 22.8 33.2 23 33.1 23.3 33 C 23.5 33 23.8 32.9 24.2 32.9 C 25.1 32.8 25.7 32.6 26.1 32.5 C 26.1 32.3 26.1 32.3 26.1 32.2 C 26.1 31.8 26 31.5 25.8 31.3 C 25.6 31.1 25.2 30.9 24.6 30.9 C 24.1 30.9 23.8 31 23.5 31.2 C 23.3 31.4 23.1 31.7 23 32.1 C 23 32.1 22 32 22 32 C 22.1 31.6 22.2 31.2 22.4 30.9 C 22.6 30.7 23 30.4 23.4 30.3 C 23.8 30.1 24.2 30.1 24.8 30.1 C 25.3 30.1 25.7 30.1 26.1 30.3 C 26.4 30.4 26.6 30.5 26.8 30.7 C 27 30.9 27.1 31.2 27.1 31.5 C 27.2 31.6 27.2 32 27.2 32.4 C 27.2 32.4 27.2 33.8 27.2 33.8 C 27.2 34.8 27.2 35.4 27.2 35.7 C 27.3 36 27.4 36.2 27.5 36.4 C 27.52 36.44 26.4 36.4 26.4 36.4 C 26.4 36.4 26.41 36.44 26.4 36.4 Z M 26.1 33.3 C 25.7 33.5 25.2 33.6 24.4 33.7 C 24 33.8 23.7 33.8 23.5 33.9 C 23.3 34 23.2 34.1 23.1 34.3 C 23 34.4 22.9 34.6 22.9 34.8 C 22.9 35.1 23 35.3 23.2 35.5 C 23.4 35.7 23.8 35.8 24.2 35.8 C 24.6 35.8 24.9 35.7 25.2 35.5 C 25.6 35.3 25.8 35.1 25.9 34.8 C 26.1 34.5 26.1 34.2 26.1 33.7 C 26.1 33.7 26.1 33.3 26.1 33.3 Z M 30.5 36.4 L 28.2 30.2 L 29.3 30.2 C 29.3 30.2 30.63 33.94 30.6 33.9 C 30.8 34.3 30.9 34.8 31 35.2 C 31.1 34.9 31.2 34.5 31.4 34 C 31.42 34.01 32.8 30.2 32.8 30.2 L 33.9 30.2 L 31.5 36.4 L 30.5 36.4 Z M 39.1 34.4 C 39.1 34.4 40.2 34.6 40.2 34.6 C 40 35.2 39.7 35.7 39.2 36.1 C 38.7 36.4 38.2 36.6 37.4 36.6 C 36.5 36.6 35.8 36.3 35.3 35.7 C 34.7 35.2 34.5 34.4 34.5 33.4 C 34.5 32.3 34.7 31.5 35.3 30.9 C 35.8 30.4 36.5 30.1 37.4 30.1 C 38.2 30.1 38.9 30.4 39.4 30.9 C 39.9 31.5 40.2 32.3 40.2 33.3 C 40.2 33.4 40.2 33.5 40.2 33.6 C 40.2 33.6 35.6 33.6 35.6 33.6 C 35.6 34.3 35.8 34.8 36.1 35.2 C 36.5 35.5 36.9 35.7 37.4 35.7 C 37.8 35.7 38.2 35.6 38.4 35.4 C 38.7 35.2 38.9 34.9 39.1 34.4 Z M 35.6 32.7 C 35.6 32.7 39.1 32.7 39.1 32.7 C 39 32.2 38.9 31.8 38.7 31.6 C 38.4 31.1 37.9 30.9 37.4 30.9 C 36.9 30.9 36.5 31.1 36.2 31.4 C 35.8 31.8 35.6 32.2 35.6 32.7 Z M 46 36.4 L 44.1 30.2 L 45.2 30.2 L 46.1 33.8 C 46.1 33.8 46.52 35.14 46.5 35.1 C 46.5 35.1 46.6 34.7 46.8 33.9 C 46.84 33.86 47.8 30.2 47.8 30.2 L 48.9 30.2 L 49.8 33.8 L 50.2 35 L 50.5 33.8 L 51.6 30.2 L 52.6 30.2 L 50.7 36.4 L 49.6 36.4 L 48.6 32.7 L 48.3 31.7 L 47.1 36.4 L 46 36.4 Z M 53.5 29.1 L 53.5 27.8 L 54.6 27.8 L 54.6 29.1 L 53.5 29.1 Z M 53.5 36.4 L 53.5 30.2 L 54.6 30.2 L 54.6 36.4 L 53.5 36.4 Z M 58 35.5 C 58.1 35.5 58.3 35.5 58.5 35.5 C 58.5 35.5 58.6 36.4 58.6 36.4 C 58.3 36.5 58 36.5 57.8 36.5 C 57.4 36.5 57.1 36.5 56.9 36.3 C 56.7 36.2 56.6 36.1 56.5 35.9 C 56.4 35.7 56.3 35.3 56.3 34.6 C 56.35 34.62 56.3 31 56.3 31 L 55.6 31 L 55.6 30.2 L 56.3 30.2 L 56.3 28.7 L 57.4 28 L 57.4 30.2 L 58.5 30.2 L 58.5 31 L 57.4 31 C 57.4 31 57.4 34.68 57.4 34.7 C 57.4 35 57.4 35.2 57.5 35.3 C 57.5 35.3 57.6 35.4 57.6 35.5 C 57.7 35.5 57.8 35.5 58 35.5 C 58 35.5 58 35.5 58 35.5 Z M 59.5 36.4 L 59.5 27.8 L 60.5 27.8 C 60.5 27.8 60.54 30.93 60.5 30.9 C 61 30.4 61.7 30.1 62.4 30.1 C 62.9 30.1 63.3 30.2 63.6 30.3 C 63.9 30.5 64.2 30.8 64.3 31.1 C 64.5 31.4 64.6 31.9 64.6 32.5 C 64.56 32.5 64.6 36.4 64.6 36.4 L 63.5 36.4 C 63.5 36.4 63.5 32.5 63.5 32.5 C 63.5 32 63.4 31.6 63.2 31.3 C 62.9 31.1 62.6 31 62.2 31 C 61.9 31 61.6 31.1 61.3 31.2 C 61 31.4 60.8 31.6 60.7 31.9 C 60.6 32.2 60.5 32.5 60.5 33 C 60.54 33.04 60.5 36.4 60.5 36.4 L 59.5 36.4 Z M 69.5 36.4 L 69.5 27.8 L 70.6 27.8 C 70.6 27.8 70.55 30.93 70.6 30.9 C 71 30.4 71.7 30.1 72.4 30.1 C 72.9 30.1 73.3 30.2 73.6 30.3 C 74 30.5 74.2 30.8 74.3 31.1 C 74.5 31.4 74.6 31.9 74.6 32.5 C 74.57 32.5 74.6 36.4 74.6 36.4 L 73.5 36.4 C 73.5 36.4 73.51 32.5 73.5 32.5 C 73.5 32 73.4 31.6 73.2 31.3 C 72.9 31.1 72.6 31 72.2 31 C 71.9 31 71.6 31.1 71.3 31.2 C 71 31.4 70.8 31.6 70.7 31.9 C 70.6 32.2 70.6 32.5 70.6 33 C 70.55 33.04 70.6 36.4 70.6 36.4 L 69.5 36.4 Z M 75.8 33.3 C 75.8 32.2 76.1 31.3 76.7 30.8 C 77.3 30.3 77.9 30.1 78.7 30.1 C 79.6 30.1 80.3 30.4 80.8 30.9 C 81.3 31.5 81.6 32.3 81.6 33.2 C 81.6 34 81.5 34.7 81.2 35.1 C 81 35.6 80.7 35.9 80.2 36.2 C 79.7 36.5 79.2 36.6 78.7 36.6 C 77.8 36.6 77.1 36.3 76.6 35.7 C 76 35.2 75.8 34.4 75.8 33.3 Z M 76.9 33.3 C 76.9 34.1 77 34.7 77.4 35.1 C 77.7 35.5 78.2 35.7 78.7 35.7 C 79.2 35.7 79.7 35.5 80 35.1 C 80.4 34.7 80.5 34.1 80.5 33.3 C 80.5 32.5 80.4 31.9 80 31.5 C 79.7 31.1 79.2 30.9 78.7 30.9 C 78.2 30.9 77.7 31.1 77.4 31.5 C 77 31.9 76.9 32.5 76.9 33.3 Z M 82.8 36.4 L 82.8 30.2 L 83.8 30.2 C 83.8 30.2 83.79 31.1 83.8 31.1 C 84.3 30.4 84.9 30.1 85.8 30.1 C 86.2 30.1 86.5 30.1 86.8 30.3 C 87.1 30.4 87.4 30.6 87.5 30.8 C 87.7 31 87.8 31.3 87.8 31.6 C 87.9 31.8 87.9 32.1 87.9 32.6 C 87.9 32.61 87.9 36.4 87.9 36.4 L 86.8 36.4 C 86.8 36.4 86.85 32.65 86.8 32.7 C 86.8 32.2 86.8 31.9 86.7 31.7 C 86.6 31.5 86.5 31.3 86.3 31.2 C 86.1 31.1 85.8 31 85.6 31 C 85.1 31 84.7 31.1 84.4 31.4 C 84.1 31.7 83.9 32.2 83.9 33 C 83.9 33.04 83.9 36.4 83.9 36.4 L 82.8 36.4 Z M 89.1 33.3 C 89.1 32.2 89.4 31.3 90.1 30.8 C 90.6 30.3 91.3 30.1 92 30.1 C 92.9 30.1 93.6 30.4 94.1 30.9 C 94.7 31.5 95 32.3 95 33.2 C 95 34 94.8 34.7 94.6 35.1 C 94.4 35.6 94 35.9 93.5 36.2 C 93.1 36.5 92.6 36.6 92 36.6 C 91.2 36.6 90.5 36.3 89.9 35.7 C 89.4 35.2 89.1 34.4 89.1 33.3 Z M 90.2 33.3 C 90.2 34.1 90.4 34.7 90.7 35.1 C 91.1 35.5 91.5 35.7 92 35.7 C 92.6 35.7 93 35.5 93.4 35.1 C 93.7 34.7 93.9 34.1 93.9 33.3 C 93.9 32.5 93.7 31.9 93.3 31.5 C 93 31.1 92.6 30.9 92 30.9 C 91.5 30.9 91.1 31.1 90.7 31.5 C 90.4 31.9 90.2 32.5 90.2 33.3 Z M 100.3 36.4 C 100.3 36.4 100.27 35.53 100.3 35.5 C 99.8 36.2 99.1 36.6 98.3 36.6 C 97.9 36.6 97.6 36.5 97.3 36.4 C 97 36.2 96.7 36.1 96.6 35.8 C 96.4 35.6 96.3 35.4 96.2 35.1 C 96.2 34.8 96.2 34.5 96.2 34.1 C 96.17 34.07 96.2 30.2 96.2 30.2 L 97.2 30.2 C 97.2 30.2 97.22 33.67 97.2 33.7 C 97.2 34.2 97.2 34.6 97.3 34.8 C 97.4 35.1 97.5 35.3 97.7 35.4 C 97.9 35.6 98.2 35.7 98.5 35.7 C 98.8 35.7 99.1 35.6 99.4 35.4 C 99.7 35.3 99.9 35 100 34.8 C 100.1 34.5 100.2 34.1 100.2 33.6 C 100.16 33.55 100.2 30.2 100.2 30.2 L 101.2 30.2 L 101.2 36.4 L 100.3 36.4 Z M 102.9 36.4 L 102.9 30.2 L 103.8 30.2 C 103.8 30.2 103.8 31.16 103.8 31.2 C 104 30.7 104.3 30.4 104.5 30.3 C 104.7 30.1 104.9 30.1 105.2 30.1 C 105.5 30.1 105.9 30.2 106.2 30.4 C 106.2 30.4 105.9 31.4 105.9 31.4 C 105.6 31.2 105.4 31.2 105.1 31.2 C 104.9 31.2 104.7 31.2 104.5 31.4 C 104.3 31.5 104.2 31.7 104.1 32 C 104 32.3 103.9 32.7 103.9 33.2 C 103.91 33.18 103.9 36.4 103.9 36.4 L 102.9 36.4 Z M 106.5 36.4 L 106.5 35.2 L 107.7 35.2 C 107.7 35.2 107.68 36.44 107.7 36.4 C 107.7 36.9 107.6 37.2 107.4 37.5 C 107.3 37.8 107 38 106.7 38.1 C 106.7 38.1 106.4 37.7 106.4 37.7 C 106.6 37.6 106.8 37.4 106.9 37.3 C 107 37.1 107.1 36.8 107.1 36.4 C 107.07 36.44 106.5 36.4 106.5 36.4 Z M 116.9 36.4 C 116.9 36.4 116.95 35.53 116.9 35.5 C 116.5 36.2 115.8 36.6 115 36.6 C 114.6 36.6 114.3 36.5 113.9 36.4 C 113.6 36.2 113.4 36.1 113.2 35.8 C 113.1 35.6 113 35.4 112.9 35.1 C 112.9 34.8 112.8 34.5 112.8 34.1 C 112.85 34.07 112.8 30.2 112.8 30.2 L 113.9 30.2 C 113.9 30.2 113.9 33.67 113.9 33.7 C 113.9 34.2 113.9 34.6 114 34.8 C 114 35.1 114.2 35.3 114.4 35.4 C 114.6 35.6 114.9 35.7 115.2 35.7 C 115.5 35.7 115.8 35.6 116.1 35.4 C 116.4 35.3 116.5 35 116.7 34.8 C 116.8 34.5 116.8 34.1 116.8 33.6 C 116.84 33.55 116.8 30.2 116.8 30.2 L 117.9 30.2 L 117.9 36.4 L 116.9 36.4 Z M 119.5 36.4 L 119.5 30.2 L 120.5 30.2 C 120.5 30.2 120.49 31.1 120.5 31.1 C 120.9 30.4 121.6 30.1 122.5 30.1 C 122.8 30.1 123.2 30.1 123.5 30.3 C 123.8 30.4 124.1 30.6 124.2 30.8 C 124.4 31 124.5 31.3 124.5 31.6 C 124.6 31.8 124.6 32.1 124.6 32.6 C 124.6 32.61 124.6 36.4 124.6 36.4 L 123.5 36.4 C 123.5 36.4 123.54 32.65 123.5 32.7 C 123.5 32.2 123.5 31.9 123.4 31.7 C 123.3 31.5 123.2 31.3 123 31.2 C 122.8 31.1 122.5 31 122.3 31 C 121.8 31 121.4 31.1 121.1 31.4 C 120.8 31.7 120.6 32.2 120.6 33 C 120.6 33.04 120.6 36.4 120.6 36.4 L 119.5 36.4 Z M 130.3 36.4 C 130.3 36.4 130.25 35.65 130.3 35.7 C 129.9 36.3 129.3 36.6 128.5 36.6 C 128 36.6 127.6 36.4 127.1 36.2 C 126.7 35.9 126.4 35.5 126.2 35 C 126 34.5 125.8 34 125.8 33.3 C 125.8 32.7 125.9 32.1 126.1 31.6 C 126.4 31.1 126.7 30.8 127.1 30.5 C 127.5 30.2 128 30.1 128.5 30.1 C 128.8 30.1 129.2 30.2 129.5 30.3 C 129.8 30.5 130 30.7 130.2 30.9 C 130.18 30.93 130.2 27.8 130.2 27.8 L 131.2 27.8 L 131.2 36.4 L 130.3 36.4 Z M 126.9 33.3 C 126.9 34.1 127.1 34.7 127.4 35.1 C 127.8 35.5 128.2 35.7 128.6 35.7 C 129.1 35.7 129.5 35.5 129.8 35.1 C 130.1 34.8 130.3 34.2 130.3 33.4 C 130.3 32.6 130.1 31.9 129.8 31.5 C 129.5 31.1 129 30.9 128.6 30.9 C 128.1 30.9 127.7 31.1 127.4 31.5 C 127.1 31.9 126.9 32.5 126.9 33.3 Z M 137.2 34.4 C 137.2 34.4 138.2 34.6 138.2 34.6 C 138.1 35.2 137.7 35.7 137.3 36.1 C 136.8 36.4 136.2 36.6 135.5 36.6 C 134.6 36.6 133.9 36.3 133.3 35.7 C 132.8 35.2 132.5 34.4 132.5 33.4 C 132.5 32.3 132.8 31.5 133.3 30.9 C 133.9 30.4 134.6 30.1 135.4 30.1 C 136.3 30.1 137 30.4 137.5 30.9 C 138 31.5 138.3 32.3 138.3 33.3 C 138.3 33.4 138.3 33.5 138.3 33.6 C 138.3 33.6 133.6 33.6 133.6 33.6 C 133.7 34.3 133.9 34.8 134.2 35.2 C 134.6 35.5 135 35.7 135.5 35.7 C 135.9 35.7 136.2 35.6 136.5 35.4 C 136.8 35.2 137 34.9 137.2 34.4 Z M 133.7 32.7 C 133.7 32.7 137.2 32.7 137.2 32.7 C 137.1 32.2 137 31.8 136.8 31.6 C 136.4 31.1 136 30.9 135.5 30.9 C 135 30.9 134.6 31.1 134.2 31.4 C 133.9 31.8 133.7 32.2 133.7 32.7 Z M 139.6 36.4 L 139.6 30.2 L 140.5 30.2 C 140.5 30.2 140.5 31.16 140.5 31.2 C 140.7 30.7 141 30.4 141.2 30.3 C 141.4 30.1 141.6 30.1 141.8 30.1 C 142.2 30.1 142.6 30.2 142.9 30.4 C 142.9 30.4 142.6 31.4 142.6 31.4 C 142.3 31.2 142.1 31.2 141.8 31.2 C 141.6 31.2 141.4 31.2 141.2 31.4 C 141 31.5 140.9 31.7 140.8 32 C 140.7 32.3 140.6 32.7 140.6 33.2 C 140.61 33.18 140.6 36.4 140.6 36.4 L 139.6 36.4 Z M 143.6 38.8 L 143.6 30.2 L 144.5 30.2 C 144.5 30.2 144.52 31.03 144.5 31 C 144.7 30.7 145 30.5 145.3 30.3 C 145.6 30.2 145.9 30.1 146.3 30.1 C 146.9 30.1 147.3 30.2 147.7 30.5 C 148.1 30.8 148.4 31.1 148.7 31.6 C 148.9 32.1 149 32.7 149 33.3 C 149 33.9 148.8 34.5 148.6 35 C 148.4 35.5 148.1 35.9 147.6 36.2 C 147.2 36.4 146.7 36.6 146.3 36.6 C 145.9 36.6 145.6 36.5 145.3 36.4 C 145 36.2 144.8 36 144.6 35.8 C 144.62 35.8 144.6 38.8 144.6 38.8 L 143.6 38.8 Z M 144.5 33.4 C 144.5 34.2 144.7 34.8 145 35.1 C 145.3 35.5 145.7 35.7 146.2 35.7 C 146.6 35.7 147 35.5 147.4 35.1 C 147.7 34.7 147.9 34.1 147.9 33.3 C 147.9 32.5 147.7 31.9 147.4 31.5 C 147.1 31.1 146.7 30.9 146.2 30.9 C 145.8 30.9 145.4 31.1 145 31.5 C 144.7 32 144.5 32.6 144.5 33.4 Z M 150.2 29.1 L 150.2 27.8 L 151.3 27.8 L 151.3 29.1 L 150.2 29.1 Z M 150.2 36.4 L 150.2 30.2 L 151.3 30.2 L 151.3 36.4 L 150.2 36.4 Z M 152.9 36.4 L 152.9 30.2 L 153.8 30.2 C 153.8 30.2 153.85 31.1 153.8 31.1 C 154.3 30.4 155 30.1 155.8 30.1 C 156.2 30.1 156.5 30.1 156.9 30.3 C 157.2 30.4 157.4 30.6 157.6 30.8 C 157.7 31 157.8 31.3 157.9 31.6 C 157.9 31.8 158 32.1 158 32.6 C 157.96 32.61 158 36.4 158 36.4 L 156.9 36.4 C 156.9 36.4 156.9 32.65 156.9 32.7 C 156.9 32.2 156.9 31.9 156.8 31.7 C 156.7 31.5 156.6 31.3 156.3 31.2 C 156.1 31.1 155.9 31 155.6 31 C 155.2 31 154.8 31.1 154.4 31.4 C 154.1 31.7 154 32.2 154 33 C 153.96 33.04 154 36.4 154 36.4 L 152.9 36.4 Z M 159.6 36.4 L 159.6 30.2 L 160.5 30.2 C 160.5 30.2 160.52 31.1 160.5 31.1 C 161 30.4 161.6 30.1 162.5 30.1 C 162.9 30.1 163.2 30.1 163.5 30.3 C 163.9 30.4 164.1 30.6 164.2 30.8 C 164.4 31 164.5 31.3 164.6 31.6 C 164.6 31.8 164.6 32.1 164.6 32.6 C 164.63 32.61 164.6 36.4 164.6 36.4 L 163.6 36.4 C 163.6 36.4 163.58 32.65 163.6 32.7 C 163.6 32.2 163.5 31.9 163.5 31.7 C 163.4 31.5 163.2 31.3 163 31.2 C 162.8 31.1 162.6 31 162.3 31 C 161.8 31 161.4 31.1 161.1 31.4 C 160.8 31.7 160.6 32.2 160.6 33 C 160.63 33.04 160.6 36.4 160.6 36.4 L 159.6 36.4 Z M 170.5 34.4 C 170.5 34.4 171.6 34.6 171.6 34.6 C 171.4 35.2 171.1 35.7 170.6 36.1 C 170.2 36.4 169.6 36.6 168.9 36.6 C 168 36.6 167.2 36.3 166.7 35.7 C 166.2 35.2 165.9 34.4 165.9 33.4 C 165.9 32.3 166.2 31.5 166.7 30.9 C 167.2 30.4 167.9 30.1 168.8 30.1 C 169.6 30.1 170.3 30.4 170.8 30.9 C 171.4 31.5 171.6 32.3 171.6 33.3 C 171.6 33.4 171.6 33.5 171.6 33.6 C 171.6 33.6 167 33.6 167 33.6 C 167 34.3 167.2 34.8 167.6 35.2 C 167.9 35.5 168.3 35.7 168.9 35.7 C 169.3 35.7 169.6 35.6 169.9 35.4 C 170.1 35.2 170.3 34.9 170.5 34.4 Z M 167 32.7 C 167 32.7 170.5 32.7 170.5 32.7 C 170.5 32.2 170.3 31.8 170.1 31.6 C 169.8 31.1 169.3 30.9 168.8 30.9 C 168.3 30.9 167.9 31.1 167.6 31.4 C 167.3 31.8 167.1 32.2 167 32.7 Z M 177 36.4 C 177 36.4 176.96 35.65 177 35.7 C 176.6 36.3 176 36.6 175.2 36.6 C 174.7 36.6 174.3 36.4 173.9 36.2 C 173.4 35.9 173.1 35.5 172.9 35 C 172.7 34.5 172.5 34 172.5 33.3 C 172.5 32.7 172.6 32.1 172.9 31.6 C 173.1 31.1 173.4 30.8 173.8 30.5 C 174.2 30.2 174.7 30.1 175.2 30.1 C 175.5 30.1 175.9 30.2 176.2 30.3 C 176.5 30.5 176.7 30.7 176.9 30.9 C 176.89 30.93 176.9 27.8 176.9 27.8 L 177.9 27.8 L 177.9 36.4 L 177 36.4 Z M 173.6 33.3 C 173.6 34.1 173.8 34.7 174.1 35.1 C 174.5 35.5 174.9 35.7 175.3 35.7 C 175.8 35.7 176.2 35.5 176.5 35.1 C 176.8 34.8 177 34.2 177 33.4 C 177 32.6 176.8 31.9 176.5 31.5 C 176.2 31.1 175.8 30.9 175.3 30.9 C 174.8 30.9 174.4 31.1 174.1 31.5 C 173.8 31.9 173.6 32.5 173.6 33.3 Z M 183.9 36.4 L 182.9 36.4 L 182.9 27.8 L 184 27.8 C 184 27.8 183.98 30.91 184 30.9 C 184.4 30.4 185 30.1 185.7 30.1 C 186.1 30.1 186.4 30.2 186.8 30.3 C 187.1 30.5 187.4 30.7 187.6 31 C 187.8 31.2 188 31.6 188.1 32 C 188.3 32.4 188.3 32.8 188.3 33.2 C 188.3 34.3 188.1 35.1 187.5 35.7 C 187 36.3 186.4 36.6 185.6 36.6 C 184.9 36.6 184.3 36.3 183.9 35.7 C 183.9 35.66 183.9 36.4 183.9 36.4 Z M 183.9 33.3 C 183.9 34 184 34.6 184.2 34.9 C 184.5 35.4 185 35.7 185.5 35.7 C 186 35.7 186.4 35.5 186.7 35.1 C 187.1 34.7 187.2 34.1 187.2 33.3 C 187.2 32.5 187.1 31.9 186.8 31.5 C 186.4 31.1 186 30.9 185.6 30.9 C 185.1 30.9 184.7 31.1 184.4 31.5 C 184.1 31.9 183.9 32.5 183.9 33.3 Z M 190.2 39 C 190 39 189.8 38.9 189.6 38.8 C 189.6 38.8 189.4 37.8 189.4 37.8 C 189.7 37.9 189.9 37.9 190 37.9 C 190.3 37.9 190.5 37.9 190.6 37.8 C 190.7 37.7 190.9 37.6 191 37.5 C 191 37.4 191.1 37.1 191.3 36.7 C 191.3 36.7 191.3 36.6 191.4 36.5 C 191.37 36.45 189 30.2 189 30.2 L 190.1 30.2 C 190.1 30.2 191.44 33.82 191.4 33.8 C 191.6 34.3 191.8 34.8 191.9 35.3 C 192 34.8 192.2 34.3 192.3 33.8 C 192.32 33.84 193.7 30.2 193.7 30.2 L 194.7 30.2 C 194.7 30.2 192.34 36.55 192.3 36.5 C 192.1 37.2 191.9 37.7 191.7 38 C 191.6 38.3 191.3 38.6 191.1 38.7 C 190.9 38.9 190.6 39 190.2 39 C 190.2 39 190.2 39 190.2 39 Z M 198.5 34.6 C 198.5 34.6 199.6 34.4 199.6 34.4 C 199.6 34.8 199.8 35.2 200 35.4 C 200.3 35.6 200.7 35.7 201.2 35.7 C 201.7 35.7 202 35.6 202.2 35.4 C 202.5 35.2 202.6 35 202.6 34.7 C 202.6 34.5 202.5 34.3 202.3 34.2 C 202.1 34.1 201.8 33.9 201.2 33.8 C 200.4 33.6 199.9 33.4 199.6 33.3 C 199.3 33.2 199.1 33 198.9 32.7 C 198.8 32.5 198.7 32.2 198.7 31.9 C 198.7 31.6 198.8 31.3 198.9 31.1 C 199 30.9 199.2 30.7 199.4 30.5 C 199.6 30.4 199.8 30.3 200.1 30.2 C 200.4 30.1 200.7 30.1 201 30.1 C 201.5 30.1 201.9 30.1 202.3 30.3 C 202.6 30.4 202.9 30.6 203.1 30.9 C 203.3 31.1 203.4 31.4 203.4 31.8 C 203.4 31.8 202.4 32 202.4 32 C 202.4 31.6 202.2 31.4 202 31.2 C 201.8 31 201.5 30.9 201.1 30.9 C 200.6 30.9 200.2 31 200 31.2 C 199.8 31.3 199.7 31.5 199.7 31.7 C 199.7 31.9 199.8 32 199.8 32.1 C 199.9 32.2 200.1 32.3 200.2 32.4 C 200.3 32.4 200.7 32.5 201.2 32.7 C 201.9 32.9 202.4 33 202.7 33.2 C 203 33.3 203.3 33.5 203.4 33.7 C 203.6 34 203.7 34.3 203.7 34.6 C 203.7 35 203.6 35.3 203.4 35.6 C 203.2 35.9 202.9 36.2 202.5 36.3 C 202.1 36.5 201.7 36.6 201.2 36.6 C 200.4 36.6 199.8 36.4 199.3 36.1 C 198.9 35.7 198.6 35.2 198.5 34.6 Z M 206.8 35.5 C 206.9 35.5 207 35.5 207.2 35.5 C 207.2 35.5 207.4 36.4 207.4 36.4 C 207.1 36.5 206.8 36.5 206.6 36.5 C 206.2 36.5 205.9 36.5 205.7 36.3 C 205.5 36.2 205.3 36.1 205.3 35.9 C 205.2 35.7 205.1 35.3 205.1 34.6 C 205.13 34.62 205.1 31 205.1 31 L 204.4 31 L 204.4 30.2 L 205.1 30.2 L 205.1 28.7 L 206.2 28 L 206.2 30.2 L 207.2 30.2 L 207.2 31 L 206.2 31 C 206.2 31 206.18 34.68 206.2 34.7 C 206.2 35 206.2 35.2 206.2 35.3 C 206.3 35.3 206.3 35.4 206.4 35.5 C 206.5 35.5 206.6 35.5 206.8 35.5 C 206.8 35.5 206.8 35.5 206.8 35.5 Z M 208.3 36.4 L 208.3 30.2 L 209.2 30.2 C 209.2 30.2 209.21 31.16 209.2 31.2 C 209.5 30.7 209.7 30.4 209.9 30.3 C 210.1 30.1 210.3 30.1 210.6 30.1 C 210.9 30.1 211.3 30.2 211.6 30.4 C 211.6 30.4 211.3 31.4 211.3 31.4 C 211 31.2 210.8 31.2 210.5 31.2 C 210.3 31.2 210.1 31.2 209.9 31.4 C 209.7 31.5 209.6 31.7 209.5 32 C 209.4 32.3 209.3 32.7 209.3 33.2 C 209.31 33.18 209.3 36.4 209.3 36.4 L 208.3 36.4 Z M 211.9 33.3 C 211.9 32.2 212.2 31.3 212.8 30.8 C 213.4 30.3 214 30.1 214.8 30.1 C 215.6 30.1 216.3 30.4 216.9 30.9 C 217.4 31.5 217.7 32.3 217.7 33.2 C 217.7 34 217.6 34.7 217.3 35.1 C 217.1 35.6 216.8 35.9 216.3 36.2 C 215.8 36.5 215.3 36.6 214.8 36.6 C 213.9 36.6 213.2 36.3 212.7 35.7 C 212.1 35.2 211.9 34.4 211.9 33.3 Z M 213 33.3 C 213 34.1 213.1 34.7 213.5 35.1 C 213.8 35.5 214.3 35.7 214.8 35.7 C 215.3 35.7 215.8 35.5 216.1 35.1 C 216.4 34.7 216.6 34.1 216.6 33.3 C 216.6 32.5 216.4 31.9 216.1 31.5 C 215.7 31.1 215.3 30.9 214.8 30.9 C 214.3 30.9 213.8 31.1 213.5 31.5 C 213.1 31.9 213 32.5 213 33.3 Z M 218.9 36.4 L 218.9 30.2 L 219.9 30.2 C 219.9 30.2 219.89 31.1 219.9 31.1 C 220.3 30.4 221 30.1 221.9 30.1 C 222.2 30.1 222.6 30.1 222.9 30.3 C 223.2 30.4 223.5 30.6 223.6 30.8 C 223.8 31 223.9 31.3 223.9 31.6 C 224 31.8 224 32.1 224 32.6 C 224 32.61 224 36.4 224 36.4 L 222.9 36.4 C 222.9 36.4 222.94 32.65 222.9 32.7 C 222.9 32.2 222.9 31.9 222.8 31.7 C 222.7 31.5 222.6 31.3 222.4 31.2 C 222.2 31.1 221.9 31 221.6 31 C 221.2 31 220.8 31.1 220.5 31.4 C 220.2 31.7 220 32.2 220 33 C 220 33.04 220 36.4 220 36.4 L 218.9 36.4 Z M 225.4 37 C 225.4 37 226.4 37.1 226.4 37.1 C 226.5 37.4 226.6 37.7 226.8 37.8 C 227.1 38 227.4 38.1 227.9 38.1 C 228.4 38.1 228.7 38 229 37.8 C 229.3 37.6 229.5 37.3 229.5 37 C 229.6 36.8 229.6 36.3 229.6 35.6 C 229.2 36.2 228.6 36.4 227.9 36.4 C 227 36.4 226.4 36.1 225.9 35.5 C 225.4 34.9 225.2 34.2 225.2 33.3 C 225.2 32.7 225.3 32.2 225.5 31.6 C 225.7 31.1 226.1 30.8 226.5 30.5 C 226.9 30.2 227.4 30.1 227.9 30.1 C 228.6 30.1 229.2 30.4 229.7 31 C 229.72 30.97 229.7 30.2 229.7 30.2 L 230.7 30.2 C 230.7 30.2 230.7 35.6 230.7 35.6 C 230.7 36.6 230.6 37.3 230.4 37.7 C 230.2 38.1 229.9 38.4 229.5 38.6 C 229 38.8 228.5 39 227.9 39 C 227.1 39 226.5 38.8 226.1 38.5 C 225.6 38.1 225.4 37.6 225.4 37 Z M 226.3 33.2 C 226.3 34 226.5 34.6 226.8 35 C 227.1 35.4 227.5 35.6 228 35.6 C 228.5 35.6 228.9 35.4 229.2 35 C 229.5 34.6 229.7 34 229.7 33.3 C 229.7 32.5 229.5 31.9 229.2 31.5 C 228.9 31.1 228.5 30.9 228 30.9 C 227.5 30.9 227.1 31.1 226.8 31.5 C 226.5 31.9 226.3 32.5 226.3 33.2 Z M 235.6 36.4 L 235.6 30.2 L 236.6 30.2 C 236.6 30.2 236.57 31.09 236.6 31.1 C 236.8 30.8 237 30.5 237.3 30.4 C 237.7 30.2 238 30.1 238.5 30.1 C 238.9 30.1 239.3 30.2 239.6 30.4 C 239.9 30.6 240.1 30.8 240.2 31.2 C 240.7 30.4 241.3 30.1 242.1 30.1 C 242.7 30.1 243.2 30.2 243.6 30.6 C 243.9 30.9 244.1 31.5 244.1 32.2 C 244.05 32.17 244.1 36.4 244.1 36.4 L 243 36.4 C 243 36.4 243.01 32.52 243 32.5 C 243 32.1 243 31.8 242.9 31.6 C 242.8 31.4 242.7 31.3 242.5 31.2 C 242.4 31 242.1 31 241.9 31 C 241.5 31 241.1 31.1 240.8 31.4 C 240.5 31.7 240.4 32.2 240.4 32.8 C 240.38 32.82 240.4 36.4 240.4 36.4 L 239.3 36.4 C 239.3 36.4 239.32 32.4 239.3 32.4 C 239.3 31.9 239.2 31.6 239.1 31.3 C 238.9 31.1 238.6 31 238.2 31 C 237.9 31 237.6 31.1 237.4 31.2 C 237.1 31.4 237 31.6 236.8 31.9 C 236.7 32.2 236.7 32.6 236.7 33.2 C 236.68 33.21 236.7 36.4 236.7 36.4 L 235.6 36.4 Z M 245.2 33.3 C 245.2 32.2 245.5 31.3 246.2 30.8 C 246.7 30.3 247.4 30.1 248.1 30.1 C 249 30.1 249.7 30.4 250.2 30.9 C 250.8 31.5 251.1 32.3 251.1 33.2 C 251.1 34 250.9 34.7 250.7 35.1 C 250.5 35.6 250.1 35.9 249.6 36.2 C 249.2 36.5 248.7 36.6 248.1 36.6 C 247.3 36.6 246.6 36.3 246 35.7 C 245.5 35.2 245.2 34.4 245.2 33.3 Z M 246.3 33.3 C 246.3 34.1 246.5 34.7 246.8 35.1 C 247.2 35.5 247.6 35.7 248.1 35.7 C 248.7 35.7 249.1 35.5 249.5 35.1 C 249.8 34.7 250 34.1 250 33.3 C 250 32.5 249.8 31.9 249.4 31.5 C 249.1 31.1 248.7 30.9 248.1 30.9 C 247.6 30.9 247.2 31.1 246.8 31.5 C 246.5 31.9 246.3 32.5 246.3 33.3 Z M 252.3 36.4 L 252.3 30.2 L 253.2 30.2 C 253.2 30.2 253.23 31.16 253.2 31.2 C 253.5 30.7 253.7 30.4 253.9 30.3 C 254.1 30.1 254.3 30.1 254.6 30.1 C 254.9 30.1 255.3 30.2 255.7 30.4 C 255.7 30.4 255.3 31.4 255.3 31.4 C 255 31.2 254.8 31.2 254.5 31.2 C 254.3 31.2 254.1 31.2 253.9 31.4 C 253.7 31.5 253.6 31.7 253.5 32 C 253.4 32.3 253.3 32.7 253.3 33.2 C 253.34 33.18 253.3 36.4 253.3 36.4 L 252.3 36.4 Z M 260.6 36.4 C 260.5 36.2 260.4 36 260.3 35.7 C 260 36 259.6 36.2 259.2 36.4 C 258.9 36.5 258.5 36.6 258.1 36.6 C 257.4 36.6 256.8 36.4 256.5 36.1 C 256.1 35.7 255.9 35.3 255.9 34.8 C 255.9 34.5 256 34.2 256.1 34 C 256.3 33.7 256.5 33.5 256.7 33.4 C 256.9 33.2 257.2 33.1 257.4 33 C 257.7 33 258 32.9 258.4 32.9 C 259.2 32.8 259.9 32.6 260.3 32.5 C 260.3 32.3 260.3 32.3 260.3 32.2 C 260.3 31.8 260.2 31.5 260 31.3 C 259.7 31.1 259.3 30.9 258.8 30.9 C 258.3 30.9 257.9 31 257.7 31.2 C 257.4 31.4 257.3 31.7 257.1 32.1 C 257.1 32.1 256.1 32 256.1 32 C 256.2 31.6 256.4 31.2 256.6 30.9 C 256.8 30.7 257.1 30.4 257.5 30.3 C 257.9 30.1 258.4 30.1 258.9 30.1 C 259.5 30.1 259.9 30.1 260.2 30.3 C 260.5 30.4 260.8 30.5 260.9 30.7 C 261.1 30.9 261.2 31.2 261.3 31.5 C 261.3 31.6 261.3 32 261.3 32.4 C 261.3 32.4 261.3 33.8 261.3 33.8 C 261.3 34.8 261.4 35.4 261.4 35.7 C 261.4 36 261.5 36.2 261.7 36.4 C 261.66 36.44 260.6 36.4 260.6 36.4 C 260.6 36.4 260.56 36.44 260.6 36.4 Z M 260.3 33.3 C 259.9 33.5 259.3 33.6 258.5 33.7 C 258.1 33.8 257.8 33.8 257.6 33.9 C 257.4 34 257.3 34.1 257.2 34.3 C 257.1 34.4 257.1 34.6 257.1 34.8 C 257.1 35.1 257.2 35.3 257.4 35.5 C 257.6 35.7 257.9 35.8 258.3 35.8 C 258.7 35.8 259.1 35.7 259.4 35.5 C 259.7 35.3 259.9 35.1 260.1 34.8 C 260.2 34.5 260.3 34.2 260.3 33.7 C 260.3 33.7 260.3 33.3 260.3 33.3 Z M 262.9 36.4 L 262.9 27.8 L 264 27.8 L 264 36.4 L 262.9 36.4 Z " stroke="none" fill="#ffffff"/>  </g>  <g id="Polygon2276">    <path d="M 2.7 4.2 L 2.7 16.4 L 1.4 16.4 L 1.4 4.2 L 2.7 4.2 Z M 6.6 4.2 L 15.3 14.3 L 15.3 4.2 L 16.6 4.2 L 16.6 16.4 L 15.4 16.4 L 6.8 6.3 L 6.8 16.4 L 5.5 16.4 L 5.5 4.2 L 6.6 4.2 Z M 28.3 4.2 L 28.3 5.4 L 23.9 5.4 L 23.9 16.4 L 22.6 16.4 L 22.6 5.4 L 18.2 5.4 L 18.2 4.2 L 28.3 4.2 Z M 36.7 4.2 L 36.7 5.4 L 31.3 5.4 L 31.3 9.7 L 36.5 9.7 L 36.5 10.9 L 31.3 10.9 L 31.3 15.2 L 36.8 15.2 L 36.8 16.4 L 30 16.4 L 30 4.2 L 36.7 4.2 Z M 49.1 6.4 C 47.8 5.6 46.3 5.2 44.9 5.2 C 42.1 5.2 39.9 7.4 39.9 10.2 C 39.9 13.3 42 15.4 45 15.4 C 46 15.4 46.8 15.2 48 14.8 C 48.04 14.77 48 11.8 48 11.8 L 45.5 11.8 L 45.5 10.6 L 49.4 10.6 C 49.4 10.6 49.39 15.59 49.4 15.6 C 48 16.3 46.6 16.6 45 16.6 C 40.6 16.6 38.5 13.5 38.5 10.4 C 38.5 6.9 41 4 45 4 C 46.4 4 47.5 4.3 49.1 5 C 49.1 5 49.1 6.4 49.1 6.4 Z M 52 4.2 C 52 4.2 55.19 4.16 55.2 4.2 C 57.7 4.2 58.9 5.6 58.9 7.5 C 58.9 9 58.1 10 56.6 10.5 C 57.4 10.9 57.8 11.2 58.8 12.8 C 58.77 12.77 61.1 16.4 61.1 16.4 L 59.5 16.4 C 59.5 16.4 57.38 13.06 57.4 13.1 C 56.2 11.3 55.5 10.9 54.4 10.9 C 54.45 10.86 53.3 10.9 53.3 10.9 L 53.3 16.4 L 52 16.4 L 52 4.2 Z M 54.6 9.7 C 56.3 9.7 57.5 9.3 57.5 7.5 C 57.5 6 56.6 5.4 55 5.4 C 55.01 5.35 53.3 5.4 53.3 5.4 L 53.3 9.7 C 53.3 9.7 54.58 9.67 54.6 9.7 Z M 63.8 4.2 L 63.8 16.4 L 62.5 16.4 L 62.5 4.2 L 63.8 4.2 Z M 75.6 4.2 L 75.6 5.4 L 71.2 5.4 L 71.2 16.4 L 69.8 16.4 L 69.8 5.4 L 65.5 5.4 L 65.5 4.2 L 75.6 4.2 Z M 77.7 4.2 L 81.3 8.7 L 85 4.2 L 86.6 4.2 L 82 9.9 L 82 16.4 L 80.7 16.4 L 80.7 9.9 L 76.1 4.2 L 77.7 4.2 Z " stroke="none" fill="#ffffff"/>  </g></svg>