<?xml version="1.0" standalone="no"?><!DOCTYPE svg PUBLIC "-//W3C//DTD SVG 1.1//EN" "http://www.w3.org/Graphics/SVG/1.1/DTD/svg11.dtd"><svg xmlns="http://www.w3.org/2000/svg" version="1.1" width="264px" height="46.5px" viewBox="0 -5 264 46.5" style="top:-5px">  <desc>Client Feedback View our latest survey results.</desc>  <defs/>  <g id="Polygon2079">    <path d="M 3.4 33.9 L 0.1 25.3 L 1.3 25.3 C 1.3 25.3 3.52 31.56 3.5 31.6 C 3.7 32.1 3.8 32.5 4 33 C 4.1 32.5 4.3 32 4.4 31.6 C 4.43 31.56 6.8 25.3 6.8 25.3 L 7.9 25.3 L 4.5 33.9 L 3.4 33.9 Z M 8.6 26.5 L 8.6 25.3 L 9.6 25.3 L 9.6 26.5 L 8.6 26.5 Z M 8.6 33.9 L 8.6 27.7 L 9.6 27.7 L 9.6 33.9 L 8.6 33.9 Z M 15.5 31.9 C 15.5 31.9 16.6 32 16.6 32 C 16.4 32.7 16.1 33.2 15.6 33.5 C 15.2 33.9 14.6 34.1 13.9 34.1 C 12.9 34.1 12.2 33.8 11.7 33.2 C 11.2 32.6 10.9 31.9 10.9 30.9 C 10.9 29.8 11.2 29 11.7 28.4 C 12.2 27.8 12.9 27.5 13.8 27.5 C 14.6 27.5 15.3 27.8 15.8 28.4 C 16.4 29 16.6 29.8 16.6 30.8 C 16.6 30.8 16.6 30.9 16.6 31.1 C 16.6 31.1 12 31.1 12 31.1 C 12 31.8 12.2 32.3 12.6 32.6 C 12.9 33 13.3 33.2 13.9 33.2 C 14.3 33.2 14.6 33.1 14.9 32.9 C 15.1 32.7 15.3 32.4 15.5 31.9 Z M 12 30.2 C 12 30.2 15.5 30.2 15.5 30.2 C 15.5 29.7 15.3 29.3 15.1 29 C 14.8 28.6 14.3 28.4 13.8 28.4 C 13.3 28.4 12.9 28.6 12.6 28.9 C 12.3 29.2 12.1 29.7 12 30.2 Z M 19.1 33.9 L 17.2 27.7 L 18.3 27.7 L 19.2 31.3 C 19.2 31.3 19.61 32.62 19.6 32.6 C 19.6 32.5 19.7 32.1 19.9 31.3 C 19.93 31.33 20.9 27.7 20.9 27.7 L 22 27.7 L 22.9 31.3 L 23.3 32.5 L 23.6 31.3 L 24.7 27.7 L 25.7 27.7 L 23.8 33.9 L 22.7 33.9 L 21.7 30.2 L 21.4 29.1 L 20.2 33.9 L 19.1 33.9 Z M 29.5 30.8 C 29.5 29.6 29.8 28.8 30.5 28.2 C 31 27.8 31.7 27.5 32.4 27.5 C 33.3 27.5 34 27.8 34.5 28.4 C 35.1 28.9 35.4 29.7 35.4 30.7 C 35.4 31.5 35.2 32.1 35 32.6 C 34.8 33.1 34.4 33.4 33.9 33.7 C 33.5 33.9 33 34.1 32.4 34.1 C 31.6 34.1 30.9 33.8 30.3 33.2 C 29.8 32.7 29.5 31.8 29.5 30.8 Z M 30.6 30.8 C 30.6 31.6 30.8 32.2 31.1 32.6 C 31.5 33 31.9 33.2 32.4 33.2 C 33 33.2 33.4 33 33.8 32.6 C 34.1 32.2 34.3 31.6 34.3 30.8 C 34.3 30 34.1 29.4 33.7 29 C 33.4 28.6 33 28.4 32.4 28.4 C 31.9 28.4 31.5 28.6 31.1 29 C 30.8 29.4 30.6 30 30.6 30.8 Z M 40.7 33.9 C 40.7 33.9 40.67 33 40.7 33 C 40.2 33.7 39.5 34.1 38.7 34.1 C 38.3 34.1 38 34 37.7 33.8 C 37.3 33.7 37.1 33.5 37 33.3 C 36.8 33.1 36.7 32.8 36.6 32.5 C 36.6 32.3 36.6 32 36.6 31.5 C 36.57 31.54 36.6 27.7 36.6 27.7 L 37.6 27.7 C 37.6 27.7 37.62 31.14 37.6 31.1 C 37.6 31.7 37.6 32.1 37.7 32.3 C 37.8 32.5 37.9 32.7 38.1 32.9 C 38.3 33.1 38.6 33.1 38.9 33.1 C 39.2 33.1 39.5 33.1 39.8 32.9 C 40.1 32.7 40.3 32.5 40.4 32.2 C 40.5 32 40.6 31.6 40.6 31 C 40.56 31.02 40.6 27.7 40.6 27.7 L 41.6 27.7 L 41.6 33.9 L 40.7 33.9 Z M 43.3 33.9 L 43.3 27.7 L 44.2 27.7 C 44.2 27.7 44.2 28.63 44.2 28.6 C 44.4 28.2 44.7 27.9 44.9 27.8 C 45.1 27.6 45.3 27.5 45.6 27.5 C 45.9 27.5 46.3 27.7 46.6 27.9 C 46.6 27.9 46.3 28.9 46.3 28.9 C 46 28.7 45.8 28.6 45.5 28.6 C 45.3 28.6 45.1 28.7 44.9 28.8 C 44.7 29 44.6 29.2 44.5 29.4 C 44.4 29.8 44.3 30.2 44.3 30.7 C 44.31 30.65 44.3 33.9 44.3 33.9 L 43.3 33.9 Z M 50.6 33.9 L 50.6 25.3 L 51.6 25.3 L 51.6 33.9 L 50.6 33.9 Z M 57.5 33.9 C 57.4 33.7 57.4 33.4 57.3 33.1 C 56.9 33.5 56.6 33.7 56.2 33.8 C 55.8 34 55.4 34.1 55 34.1 C 54.3 34.1 53.8 33.9 53.5 33.5 C 53.1 33.2 52.9 32.8 52.9 32.3 C 52.9 32 53 31.7 53.1 31.4 C 53.3 31.2 53.4 31 53.7 30.8 C 53.9 30.7 54.1 30.6 54.4 30.5 C 54.6 30.4 54.9 30.4 55.4 30.3 C 56.2 30.2 56.8 30.1 57.2 30 C 57.2 29.8 57.2 29.7 57.2 29.7 C 57.2 29.3 57.1 29 56.9 28.8 C 56.7 28.5 56.3 28.4 55.7 28.4 C 55.2 28.4 54.9 28.5 54.6 28.7 C 54.4 28.9 54.2 29.2 54.1 29.6 C 54.1 29.6 53.1 29.5 53.1 29.5 C 53.2 29 53.3 28.7 53.5 28.4 C 53.8 28.1 54.1 27.9 54.5 27.8 C 54.9 27.6 55.4 27.5 55.9 27.5 C 56.4 27.5 56.9 27.6 57.2 27.7 C 57.5 27.9 57.8 28 57.9 28.2 C 58.1 28.4 58.2 28.6 58.2 28.9 C 58.3 29.1 58.3 29.4 58.3 29.9 C 58.3 29.9 58.3 31.3 58.3 31.3 C 58.3 32.3 58.3 32.9 58.4 33.2 C 58.4 33.4 58.5 33.7 58.6 33.9 C 58.63 33.91 57.5 33.9 57.5 33.9 C 57.5 33.9 57.53 33.91 57.5 33.9 Z M 57.2 30.8 C 56.9 30.9 56.3 31.1 55.5 31.2 C 55.1 31.2 54.8 31.3 54.6 31.4 C 54.4 31.5 54.3 31.6 54.2 31.7 C 54.1 31.9 54 32.1 54 32.2 C 54 32.5 54.1 32.8 54.3 32.9 C 54.6 33.1 54.9 33.2 55.3 33.2 C 55.7 33.2 56.1 33.1 56.4 33 C 56.7 32.8 56.9 32.5 57.1 32.2 C 57.2 32 57.2 31.6 57.2 31.2 C 57.2 31.2 57.2 30.8 57.2 30.8 Z M 61.8 33 C 61.9 33 62 33 62.2 33 C 62.2 33 62.4 33.9 62.4 33.9 C 62.1 34 61.8 34 61.6 34 C 61.2 34 60.9 33.9 60.7 33.8 C 60.5 33.7 60.3 33.5 60.3 33.3 C 60.2 33.1 60.1 32.7 60.1 32.1 C 60.13 32.09 60.1 28.5 60.1 28.5 L 59.4 28.5 L 59.4 27.7 L 60.1 27.7 L 60.1 26.1 L 61.2 25.5 L 61.2 27.7 L 62.2 27.7 L 62.2 28.5 L 61.2 28.5 C 61.2 28.5 61.18 32.15 61.2 32.1 C 61.2 32.4 61.2 32.6 61.2 32.7 C 61.3 32.8 61.3 32.9 61.4 32.9 C 61.5 33 61.6 33 61.8 33 C 61.8 33 61.8 33 61.8 33 Z M 67.5 31.9 C 67.5 31.9 68.6 32 68.6 32 C 68.4 32.7 68.1 33.2 67.7 33.5 C 67.2 33.9 66.6 34.1 65.9 34.1 C 65 34.1 64.3 33.8 63.7 33.2 C 63.2 32.6 62.9 31.9 62.9 30.9 C 62.9 29.8 63.2 29 63.7 28.4 C 64.3 27.8 65 27.5 65.8 27.5 C 66.7 27.5 67.3 27.8 67.9 28.4 C 68.4 29 68.7 29.8 68.7 30.8 C 68.7 30.8 68.7 30.9 68.6 31.1 C 68.6 31.1 64 31.1 64 31.1 C 64 31.8 64.2 32.3 64.6 32.6 C 64.9 33 65.4 33.2 65.9 33.2 C 66.3 33.2 66.6 33.1 66.9 32.9 C 67.2 32.7 67.4 32.4 67.5 31.9 Z M 64.1 30.2 C 64.1 30.2 67.5 30.2 67.5 30.2 C 67.5 29.7 67.4 29.3 67.1 29 C 66.8 28.6 66.4 28.4 65.8 28.4 C 65.4 28.4 64.9 28.6 64.6 28.9 C 64.3 29.2 64.1 29.7 64.1 30.2 Z M 69.5 32.1 C 69.5 32.1 70.6 31.9 70.6 31.9 C 70.6 32.3 70.8 32.6 71.1 32.8 C 71.3 33.1 71.7 33.2 72.2 33.2 C 72.7 33.2 73 33.1 73.3 32.9 C 73.5 32.7 73.6 32.5 73.6 32.2 C 73.6 32 73.5 31.8 73.3 31.6 C 73.2 31.5 72.8 31.4 72.2 31.3 C 71.4 31.1 70.9 30.9 70.6 30.8 C 70.3 30.6 70.1 30.4 69.9 30.2 C 69.8 29.9 69.7 29.6 69.7 29.3 C 69.7 29.1 69.8 28.8 69.9 28.6 C 70 28.3 70.2 28.1 70.4 28 C 70.6 27.9 70.8 27.8 71.1 27.7 C 71.4 27.6 71.7 27.5 72 27.5 C 72.5 27.5 72.9 27.6 73.3 27.8 C 73.6 27.9 73.9 28.1 74.1 28.3 C 74.3 28.6 74.4 28.9 74.5 29.3 C 74.5 29.3 73.4 29.4 73.4 29.4 C 73.4 29.1 73.2 28.9 73 28.7 C 72.8 28.5 72.5 28.4 72.1 28.4 C 71.6 28.4 71.2 28.5 71 28.7 C 70.8 28.8 70.7 29 70.7 29.2 C 70.7 29.4 70.8 29.5 70.8 29.6 C 70.9 29.7 71.1 29.8 71.3 29.9 C 71.4 29.9 71.7 30 72.2 30.1 C 72.9 30.3 73.4 30.5 73.7 30.6 C 74 30.8 74.3 30.9 74.4 31.2 C 74.6 31.4 74.7 31.7 74.7 32.1 C 74.7 32.4 74.6 32.8 74.4 33.1 C 74.2 33.4 73.9 33.6 73.5 33.8 C 73.1 34 72.7 34.1 72.2 34.1 C 71.4 34.1 70.8 33.9 70.3 33.5 C 69.9 33.2 69.6 32.7 69.5 32.1 Z M 77.8 33 C 77.9 33 78.1 33 78.2 33 C 78.2 33 78.4 33.9 78.4 33.9 C 78.1 34 77.8 34 77.6 34 C 77.2 34 76.9 33.9 76.7 33.8 C 76.5 33.7 76.4 33.5 76.3 33.3 C 76.2 33.1 76.1 32.7 76.1 32.1 C 76.14 32.09 76.1 28.5 76.1 28.5 L 75.4 28.5 L 75.4 27.7 L 76.1 27.7 L 76.1 26.1 L 77.2 25.5 L 77.2 27.7 L 78.2 27.7 L 78.2 28.5 L 77.2 28.5 C 77.2 28.5 77.19 32.15 77.2 32.1 C 77.2 32.4 77.2 32.6 77.2 32.7 C 77.3 32.8 77.3 32.9 77.4 32.9 C 77.5 33 77.6 33 77.8 33 C 77.8 33 77.8 33 77.8 33 Z M 82.2 32.1 C 82.2 32.1 83.2 31.9 83.2 31.9 C 83.3 32.3 83.5 32.6 83.7 32.8 C 84 33.1 84.4 33.2 84.8 33.2 C 85.3 33.2 85.7 33.1 85.9 32.9 C 86.2 32.7 86.3 32.5 86.3 32.2 C 86.3 32 86.2 31.8 86 31.6 C 85.8 31.5 85.5 31.4 84.9 31.3 C 84.1 31.1 83.6 30.9 83.3 30.8 C 83 30.6 82.8 30.4 82.6 30.2 C 82.4 29.9 82.4 29.6 82.4 29.3 C 82.4 29.1 82.4 28.8 82.6 28.6 C 82.7 28.3 82.9 28.1 83.1 28 C 83.2 27.9 83.5 27.8 83.7 27.7 C 84 27.6 84.3 27.5 84.7 27.5 C 85.1 27.5 85.6 27.6 85.9 27.8 C 86.3 27.9 86.6 28.1 86.8 28.3 C 86.9 28.6 87.1 28.9 87.1 29.3 C 87.1 29.3 86.1 29.4 86.1 29.4 C 86 29.1 85.9 28.9 85.7 28.7 C 85.5 28.5 85.1 28.4 84.7 28.4 C 84.2 28.4 83.9 28.5 83.7 28.7 C 83.5 28.8 83.4 29 83.4 29.2 C 83.4 29.4 83.4 29.5 83.5 29.6 C 83.6 29.7 83.7 29.8 83.9 29.9 C 84 29.9 84.3 30 84.8 30.1 C 85.6 30.3 86.1 30.5 86.4 30.6 C 86.7 30.8 86.9 30.9 87.1 31.2 C 87.3 31.4 87.4 31.7 87.4 32.1 C 87.4 32.4 87.3 32.8 87 33.1 C 86.8 33.4 86.5 33.6 86.2 33.8 C 85.8 34 85.3 34.1 84.8 34.1 C 84 34.1 83.4 33.9 83 33.5 C 82.6 33.2 82.3 32.7 82.2 32.1 Z M 92.7 33.9 C 92.7 33.9 92.69 33 92.7 33 C 92.2 33.7 91.5 34.1 90.7 34.1 C 90.3 34.1 90 34 89.7 33.8 C 89.4 33.7 89.1 33.5 89 33.3 C 88.8 33.1 88.7 32.8 88.7 32.5 C 88.6 32.3 88.6 32 88.6 31.5 C 88.59 31.54 88.6 27.7 88.6 27.7 L 89.6 27.7 C 89.6 27.7 89.64 31.14 89.6 31.1 C 89.6 31.7 89.7 32.1 89.7 32.3 C 89.8 32.5 89.9 32.7 90.1 32.9 C 90.3 33.1 90.6 33.1 90.9 33.1 C 91.2 33.1 91.5 33.1 91.8 32.9 C 92.1 32.7 92.3 32.5 92.4 32.2 C 92.5 32 92.6 31.6 92.6 31 C 92.58 31.02 92.6 27.7 92.6 27.7 L 93.6 27.7 L 93.6 33.9 L 92.7 33.9 Z M 95.3 33.9 L 95.3 27.7 L 96.2 27.7 C 96.2 27.7 96.22 28.63 96.2 28.6 C 96.5 28.2 96.7 27.9 96.9 27.8 C 97.1 27.6 97.3 27.5 97.6 27.5 C 97.9 27.5 98.3 27.7 98.7 27.9 C 98.7 27.9 98.3 28.9 98.3 28.9 C 98 28.7 97.8 28.6 97.5 28.6 C 97.3 28.6 97.1 28.7 96.9 28.8 C 96.7 29 96.6 29.2 96.5 29.4 C 96.4 29.8 96.3 30.2 96.3 30.7 C 96.33 30.65 96.3 33.9 96.3 33.9 L 95.3 33.9 Z M 101 33.9 L 98.6 27.7 L 99.8 27.7 C 99.8 27.7 101.09 31.41 101.1 31.4 C 101.2 31.8 101.4 32.2 101.5 32.7 C 101.6 32.3 101.7 31.9 101.9 31.5 C 101.88 31.48 103.3 27.7 103.3 27.7 L 104.3 27.7 L 102 33.9 L 101 33.9 Z M 109.5 31.9 C 109.5 31.9 110.6 32 110.6 32 C 110.5 32.7 110.1 33.2 109.7 33.5 C 109.2 33.9 108.6 34.1 107.9 34.1 C 107 34.1 106.3 33.8 105.7 33.2 C 105.2 32.6 104.9 31.9 104.9 30.9 C 104.9 29.8 105.2 29 105.7 28.4 C 106.3 27.8 107 27.5 107.8 27.5 C 108.7 27.5 109.3 27.8 109.9 28.4 C 110.4 29 110.7 29.8 110.7 30.8 C 110.7 30.8 110.7 30.9 110.7 31.1 C 110.7 31.1 106 31.1 106 31.1 C 106.1 31.8 106.3 32.3 106.6 32.6 C 106.9 33 107.4 33.2 107.9 33.2 C 108.3 33.2 108.6 33.1 108.9 32.9 C 109.2 32.7 109.4 32.4 109.5 31.9 Z M 106.1 30.2 C 106.1 30.2 109.6 30.2 109.6 30.2 C 109.5 29.7 109.4 29.3 109.2 29 C 108.8 28.6 108.4 28.4 107.8 28.4 C 107.4 28.4 107 28.6 106.6 28.9 C 106.3 29.2 106.1 29.7 106.1 30.2 Z M 112.6 36.4 C 112.4 36.4 112.2 36.4 111.9 36.3 C 111.9 36.3 111.8 35.3 111.8 35.3 C 112 35.4 112.2 35.4 112.4 35.4 C 112.6 35.4 112.8 35.4 113 35.3 C 113.1 35.2 113.2 35.1 113.3 35 C 113.4 34.9 113.5 34.6 113.6 34.2 C 113.6 34.1 113.7 34 113.7 33.9 C 113.72 33.92 111.4 27.7 111.4 27.7 L 112.5 27.7 C 112.5 27.7 113.79 31.29 113.8 31.3 C 114 31.7 114.1 32.2 114.2 32.7 C 114.4 32.2 114.5 31.8 114.7 31.3 C 114.67 31.31 116 27.7 116 27.7 L 117.1 27.7 C 117.1 27.7 114.69 34.02 114.7 34 C 114.4 34.7 114.2 35.2 114.1 35.4 C 113.9 35.8 113.7 36 113.5 36.2 C 113.2 36.4 112.9 36.4 112.6 36.4 C 112.6 36.4 112.6 36.4 112.6 36.4 Z M 121.3 33.9 L 121.3 27.7 L 122.2 27.7 C 122.2 27.7 122.23 28.63 122.2 28.6 C 122.5 28.2 122.7 27.9 122.9 27.8 C 123.1 27.6 123.3 27.5 123.6 27.5 C 123.9 27.5 124.3 27.7 124.7 27.9 C 124.7 27.9 124.3 28.9 124.3 28.9 C 124 28.7 123.8 28.6 123.5 28.6 C 123.3 28.6 123.1 28.7 122.9 28.8 C 122.7 29 122.6 29.2 122.5 29.4 C 122.4 29.8 122.3 30.2 122.3 30.7 C 122.33 30.65 122.3 33.9 122.3 33.9 L 121.3 33.9 Z M 129.5 31.9 C 129.5 31.9 130.6 32 130.6 32 C 130.5 32.7 130.1 33.2 129.7 33.5 C 129.2 33.9 128.6 34.1 127.9 34.1 C 127 34.1 126.3 33.8 125.7 33.2 C 125.2 32.6 124.9 31.9 124.9 30.9 C 124.9 29.8 125.2 29 125.7 28.4 C 126.3 27.8 127 27.5 127.8 27.5 C 128.7 27.5 129.4 27.8 129.9 28.4 C 130.4 29 130.7 29.8 130.7 30.8 C 130.7 30.8 130.7 30.9 130.7 31.1 C 130.7 31.1 126 31.1 126 31.1 C 126.1 31.8 126.3 32.3 126.6 32.6 C 127 33 127.4 33.2 127.9 33.2 C 128.3 33.2 128.6 33.1 128.9 32.9 C 129.2 32.7 129.4 32.4 129.5 31.9 Z M 126.1 30.2 C 126.1 30.2 129.6 30.2 129.6 30.2 C 129.5 29.7 129.4 29.3 129.2 29 C 128.8 28.6 128.4 28.4 127.9 28.4 C 127.4 28.4 127 28.6 126.6 28.9 C 126.3 29.2 126.1 29.7 126.1 30.2 Z M 131.5 32.1 C 131.5 32.1 132.6 31.9 132.6 31.9 C 132.6 32.3 132.8 32.6 133.1 32.8 C 133.3 33.1 133.7 33.2 134.2 33.2 C 134.7 33.2 135 33.1 135.3 32.9 C 135.5 32.7 135.6 32.5 135.6 32.2 C 135.6 32 135.5 31.8 135.3 31.6 C 135.2 31.5 134.8 31.4 134.2 31.3 C 133.5 31.1 132.9 30.9 132.6 30.8 C 132.3 30.6 132.1 30.4 131.9 30.2 C 131.8 29.9 131.7 29.6 131.7 29.3 C 131.7 29.1 131.8 28.8 131.9 28.6 C 132 28.3 132.2 28.1 132.4 28 C 132.6 27.9 132.8 27.8 133.1 27.7 C 133.4 27.6 133.7 27.5 134 27.5 C 134.5 27.5 134.9 27.6 135.3 27.8 C 135.7 27.9 135.9 28.1 136.1 28.3 C 136.3 28.6 136.4 28.9 136.5 29.3 C 136.5 29.3 135.4 29.4 135.4 29.4 C 135.4 29.1 135.3 28.9 135 28.7 C 134.8 28.5 134.5 28.4 134.1 28.4 C 133.6 28.4 133.2 28.5 133 28.7 C 132.8 28.8 132.7 29 132.7 29.2 C 132.7 29.4 132.8 29.5 132.9 29.6 C 132.9 29.7 133.1 29.8 133.3 29.9 C 133.4 29.9 133.7 30 134.2 30.1 C 134.9 30.3 135.5 30.5 135.8 30.6 C 136.1 30.8 136.3 30.9 136.5 31.2 C 136.6 31.4 136.7 31.7 136.7 32.1 C 136.7 32.4 136.6 32.8 136.4 33.1 C 136.2 33.4 135.9 33.6 135.5 33.8 C 135.1 34 134.7 34.1 134.2 34.1 C 133.4 34.1 132.8 33.9 132.3 33.5 C 131.9 33.2 131.7 32.7 131.5 32.1 Z M 142 33.9 C 142 33.9 142.04 33 142 33 C 141.6 33.7 140.9 34.1 140.1 34.1 C 139.7 34.1 139.4 34 139 33.8 C 138.7 33.7 138.5 33.5 138.3 33.3 C 138.2 33.1 138.1 32.8 138 32.5 C 138 32.3 137.9 32 137.9 31.5 C 137.94 31.54 137.9 27.7 137.9 27.7 L 139 27.7 C 139 27.7 138.99 31.14 139 31.1 C 139 31.7 139 32.1 139.1 32.3 C 139.1 32.5 139.3 32.7 139.5 32.9 C 139.7 33.1 140 33.1 140.3 33.1 C 140.6 33.1 140.9 33.1 141.2 32.9 C 141.4 32.7 141.6 32.5 141.8 32.2 C 141.9 32 141.9 31.6 141.9 31 C 141.93 31.02 141.9 27.7 141.9 27.7 L 143 27.7 L 143 33.9 L 142 33.9 Z M 144.6 33.9 L 144.6 25.3 L 145.7 25.3 L 145.7 33.9 L 144.6 33.9 Z M 149.1 33 C 149.3 33 149.4 33 149.6 33 C 149.6 33 149.8 33.9 149.8 33.9 C 149.5 34 149.2 34 149 34 C 148.6 34 148.3 33.9 148.1 33.8 C 147.9 33.7 147.7 33.5 147.6 33.3 C 147.5 33.1 147.5 32.7 147.5 32.1 C 147.49 32.09 147.5 28.5 147.5 28.5 L 146.7 28.5 L 146.7 27.7 L 147.5 27.7 L 147.5 26.1 L 148.5 25.5 L 148.5 27.7 L 149.6 27.7 L 149.6 28.5 L 148.5 28.5 C 148.5 28.5 148.54 32.15 148.5 32.1 C 148.5 32.4 148.6 32.6 148.6 32.7 C 148.6 32.8 148.7 32.9 148.8 32.9 C 148.9 33 149 33 149.1 33 C 149.1 33 149.1 33 149.1 33 Z M 150.2 32.1 C 150.2 32.1 151.3 31.9 151.3 31.9 C 151.3 32.3 151.5 32.6 151.7 32.8 C 152 33.1 152.4 33.2 152.9 33.2 C 153.3 33.2 153.7 33.1 153.9 32.9 C 154.2 32.7 154.3 32.5 154.3 32.2 C 154.3 32 154.2 31.8 154 31.6 C 153.8 31.5 153.5 31.4 152.9 31.3 C 152.1 31.1 151.6 30.9 151.3 30.8 C 151 30.6 150.8 30.4 150.6 30.2 C 150.5 29.9 150.4 29.6 150.4 29.3 C 150.4 29.1 150.5 28.8 150.6 28.6 C 150.7 28.3 150.9 28.1 151.1 28 C 151.3 27.9 151.5 27.8 151.8 27.7 C 152 27.6 152.4 27.5 152.7 27.5 C 153.2 27.5 153.6 27.6 154 27.8 C 154.3 27.9 154.6 28.1 154.8 28.3 C 155 28.6 155.1 28.9 155.1 29.3 C 155.1 29.3 154.1 29.4 154.1 29.4 C 154.1 29.1 153.9 28.9 153.7 28.7 C 153.5 28.5 153.2 28.4 152.8 28.4 C 152.3 28.4 151.9 28.5 151.7 28.7 C 151.5 28.8 151.4 29 151.4 29.2 C 151.4 29.4 151.4 29.5 151.5 29.6 C 151.6 29.7 151.8 29.8 151.9 29.9 C 152 29.9 152.4 30 152.9 30.1 C 153.6 30.3 154.1 30.5 154.4 30.6 C 154.7 30.8 155 30.9 155.1 31.2 C 155.3 31.4 155.4 31.7 155.4 32.1 C 155.4 32.4 155.3 32.8 155.1 33.1 C 154.9 33.4 154.6 33.6 154.2 33.8 C 153.8 34 153.4 34.1 152.9 34.1 C 152.1 34.1 151.4 33.9 151 33.5 C 150.6 33.2 150.3 32.7 150.2 32.1 Z M 156.9 33.9 L 156.9 32.7 L 158.1 32.7 L 158.1 33.9 L 156.9 33.9 Z " stroke="none" fill="#010102"/>  </g>  <g id="Polygon2078">    <path d="M 11.5 1.7 C 11.5 1.7 11.5 3.1 11.5 3.1 C 10.2 2.4 8.8 1.9 7.4 1.9 C 4.2 1.9 2.3 4.3 2.3 7 C 2.3 9.8 4.2 12 7.3 12 C 8.9 12 10.3 11.6 11.6 10.8 C 11.6 10.8 11.6 12.3 11.6 12.3 C 10.2 13 8.8 13.3 7.3 13.3 C 3.1 13.3 0.8 10.1 0.8 7 C 0.8 3.4 3.7 0.7 7.3 0.7 C 8.7 0.7 10.1 1 11.5 1.7 Z M 15.1 0.8 L 15.1 11.9 L 20.9 11.9 L 20.9 13.1 L 13.7 13.1 L 13.7 0.8 L 15.1 0.8 Z M 23.8 0.8 L 23.8 13.1 L 22.4 13.1 L 22.4 0.8 L 23.8 0.8 Z M 33.2 0.8 L 33.2 2.1 L 27.9 2.1 L 27.9 6.3 L 33.1 6.3 L 33.1 7.5 L 27.9 7.5 L 27.9 11.9 L 33.4 11.9 L 33.4 13.1 L 26.5 13.1 L 26.5 0.8 L 33.2 0.8 Z M 36.7 0.8 L 45.4 11 L 45.4 0.8 L 46.7 0.8 L 46.7 13.1 L 45.5 13.1 L 36.9 3 L 36.9 13.1 L 35.6 13.1 L 35.6 0.8 L 36.7 0.8 Z M 58.4 0.8 L 58.4 2 L 54 2 L 54 13.1 L 52.6 13.1 L 52.6 2 L 48.3 2 L 48.3 0.8 L 58.4 0.8 Z M 71.4 0.8 L 71.4 2.1 L 66.4 2.1 L 66.4 6 L 71.2 6 L 71.2 7.3 L 66.4 7.3 L 66.4 13.1 L 65.1 13.1 L 65.1 0.8 L 71.4 0.8 Z M 79.9 0.8 L 79.9 2.1 L 74.5 2.1 L 74.5 6.3 L 79.7 6.3 L 79.7 7.5 L 74.5 7.5 L 74.5 11.9 L 80 11.9 L 80 13.1 L 73.2 13.1 L 73.2 0.8 L 79.9 0.8 Z M 88.9 0.8 L 88.9 2.1 L 83.5 2.1 L 83.5 6.3 L 88.7 6.3 L 88.7 7.5 L 83.5 7.5 L 83.5 11.9 L 89 11.9 L 89 13.1 L 82.2 13.1 L 82.2 0.8 L 88.9 0.8 Z M 91.2 0.8 C 91.2 0.8 95.74 0.85 95.7 0.8 C 99.8 0.8 102.3 3.3 102.3 6.9 C 102.3 10.7 99.6 13.1 95.7 13.1 C 95.74 13.12 91.2 13.1 91.2 13.1 L 91.2 0.8 Z M 95.7 11.9 C 98.9 11.9 100.9 10 100.9 7 C 100.9 4 99 2.1 95.5 2.1 C 95.53 2.05 92.6 2.1 92.6 2.1 L 92.6 11.9 C 92.6 11.9 95.72 11.9 95.7 11.9 Z M 107.8 0.8 C 110.1 0.8 111.6 2 111.6 4 C 111.6 5.3 110.8 6.2 109.5 6.7 C 111.4 6.9 112.6 8.2 112.6 9.8 C 112.6 12.1 110.6 13.1 108.3 13.1 C 108.34 13.12 104.6 13.1 104.6 13.1 L 104.6 0.8 C 104.6 0.8 107.77 0.85 107.8 0.8 Z M 105.9 6.3 C 105.9 6.3 107.28 6.3 107.3 6.3 C 109.3 6.3 110.2 5.4 110.2 4.1 C 110.2 2.7 109.3 2 107.5 2 C 107.5 2.03 105.9 2 105.9 2 L 105.9 6.3 Z M 108.1 11.9 C 110.1 11.9 111.2 11.3 111.2 9.7 C 111.2 8.3 110.2 7.5 107.9 7.5 C 107.89 7.47 105.9 7.5 105.9 7.5 L 105.9 11.9 C 105.9 11.9 108.09 11.93 108.1 11.9 Z M 119.8 0.8 L 125.2 13.1 L 123.8 13.1 L 122.1 9.3 L 116.5 9.3 L 114.9 13.1 L 113.5 13.1 L 118.8 0.8 L 119.8 0.8 Z M 117.1 8.1 L 121.6 8.1 L 119.2 2.8 L 117.1 8.1 Z M 136.2 1.7 C 136.2 1.7 136.2 3.1 136.2 3.1 C 134.9 2.4 133.5 1.9 132.1 1.9 C 128.9 1.9 127 4.3 127 7 C 127 9.8 128.9 12 132 12 C 133.6 12 135 11.6 136.3 10.8 C 136.3 10.8 136.3 12.3 136.3 12.3 C 134.9 13 133.5 13.3 132 13.3 C 127.8 13.3 125.5 10.1 125.5 7 C 125.5 3.4 128.4 0.7 132 0.7 C 133.4 0.7 134.8 1 136.2 1.7 Z M 139.8 0.8 L 139.8 6.6 L 145.2 0.8 L 146.9 0.8 L 141.4 6.7 L 147.9 13.1 L 146.1 13.1 L 139.8 7 L 139.8 13.1 L 138.4 13.1 L 138.4 0.8 L 139.8 0.8 Z " stroke="none" fill="#010102"/>  </g></svg>