<?xml version="1.0" standalone="no"?><!DOCTYPE svg PUBLIC "-//W3C//DTD SVG 1.1//EN" "http://www.w3.org/Graphics/SVG/1.1/DTD/svg11.dtd"><svg xmlns="http://www.w3.org/2000/svg" version="1.1" width="247px" height="59.5px" viewBox="0 -5 247 59.5" style="top:-5px">  <desc>About Find out about our services, tenets and way of working.</desc>  <defs/>  <g id="Polygon695">    <path d="M 1.9 47.5 L 0 41.3 L 1.1 41.3 L 2.1 44.9 C 2.1 44.9 2.48 46.23 2.5 46.2 C 2.5 46.2 2.6 45.7 2.8 44.9 C 2.81 44.94 3.8 41.3 3.8 41.3 L 4.9 41.3 L 5.8 44.9 L 6.1 46.1 L 6.5 44.9 L 7.5 41.3 L 8.6 41.3 L 6.6 47.5 L 5.5 47.5 L 4.5 43.8 L 4.3 42.7 L 3 47.5 L 1.9 47.5 Z M 9.1 44.4 C 9.1 43.3 9.4 42.4 10 41.8 C 10.6 41.4 11.2 41.2 12 41.2 C 12.8 41.2 13.5 41.4 14.1 42 C 14.6 42.6 14.9 43.3 14.9 44.3 C 14.9 45.1 14.8 45.8 14.5 46.2 C 14.3 46.7 13.9 47 13.5 47.3 C 13 47.5 12.5 47.7 12 47.7 C 11.1 47.7 10.4 47.4 9.9 46.8 C 9.3 46.3 9.1 45.5 9.1 44.4 Z M 10.1 44.4 C 10.1 45.2 10.3 45.8 10.7 46.2 C 11 46.6 11.5 46.8 12 46.8 C 12.5 46.8 12.9 46.6 13.3 46.2 C 13.6 45.8 13.8 45.2 13.8 44.4 C 13.8 43.6 13.6 43 13.3 42.6 C 12.9 42.2 12.5 42 12 42 C 11.5 42 11 42.2 10.7 42.6 C 10.3 43 10.1 43.6 10.1 44.4 Z M 16.1 47.5 L 16.1 41.3 L 17.1 41.3 C 17.1 41.3 17.07 42.24 17.1 42.2 C 17.3 41.8 17.5 41.5 17.7 41.4 C 17.9 41.2 18.2 41.2 18.4 41.2 C 18.8 41.2 19.1 41.3 19.5 41.5 C 19.5 41.5 19.1 42.5 19.1 42.5 C 18.9 42.3 18.6 42.2 18.4 42.2 C 18.1 42.2 17.9 42.3 17.7 42.5 C 17.6 42.6 17.4 42.8 17.3 43 C 17.2 43.4 17.2 43.8 17.2 44.3 C 17.17 44.26 17.2 47.5 17.2 47.5 L 16.1 47.5 Z M 20.1 47.5 L 20.1 38.9 L 21.2 38.9 L 21.2 43.8 L 23.7 41.3 L 25 41.3 L 22.7 43.6 L 25.3 47.5 L 24 47.5 L 21.9 44.3 L 21.2 45.1 L 21.2 47.5 L 20.1 47.5 Z M 26.1 40.1 L 26.1 38.9 L 27.2 38.9 L 27.2 40.1 L 26.1 40.1 Z M 26.1 47.5 L 26.1 41.3 L 27.2 41.3 L 27.2 47.5 L 26.1 47.5 Z M 28.8 47.5 L 28.8 41.3 L 29.7 41.3 C 29.7 41.3 29.74 42.18 29.7 42.2 C 30.2 41.5 30.9 41.2 31.7 41.2 C 32.1 41.2 32.4 41.2 32.8 41.4 C 33.1 41.5 33.3 41.7 33.5 41.9 C 33.6 42.1 33.7 42.4 33.8 42.7 C 33.8 42.9 33.8 43.2 33.8 43.7 C 33.85 43.7 33.8 47.5 33.8 47.5 L 32.8 47.5 C 32.8 47.5 32.79 43.74 32.8 43.7 C 32.8 43.3 32.8 43 32.7 42.8 C 32.6 42.6 32.4 42.4 32.2 42.3 C 32 42.1 31.8 42.1 31.5 42.1 C 31.1 42.1 30.7 42.2 30.3 42.5 C 30 42.8 29.8 43.3 29.8 44.1 C 29.85 44.12 29.8 47.5 29.8 47.5 L 28.8 47.5 Z M 35.3 48 C 35.3 48 36.3 48.2 36.3 48.2 C 36.3 48.5 36.5 48.7 36.7 48.9 C 36.9 49.1 37.3 49.2 37.7 49.2 C 38.2 49.2 38.6 49.1 38.9 48.9 C 39.1 48.7 39.3 48.4 39.4 48.1 C 39.5 47.8 39.5 47.4 39.5 46.7 C 39 47.3 38.4 47.5 37.8 47.5 C 36.9 47.5 36.2 47.2 35.8 46.6 C 35.3 46 35.1 45.2 35.1 44.4 C 35.1 43.8 35.2 43.2 35.4 42.7 C 35.6 42.2 35.9 41.8 36.3 41.6 C 36.7 41.3 37.2 41.2 37.8 41.2 C 38.5 41.2 39.1 41.5 39.6 42 C 39.57 42.05 39.6 41.3 39.6 41.3 L 40.5 41.3 C 40.5 41.3 40.55 46.68 40.5 46.7 C 40.5 47.6 40.4 48.3 40.3 48.7 C 40.1 49.1 39.7 49.5 39.3 49.7 C 38.9 49.9 38.4 50 37.7 50 C 37 50 36.4 49.9 35.9 49.5 C 35.5 49.2 35.3 48.7 35.3 48 Z M 36.1 44.3 C 36.1 45.1 36.3 45.7 36.6 46.1 C 37 46.5 37.4 46.6 37.9 46.6 C 38.3 46.6 38.7 46.5 39.1 46.1 C 39.4 45.7 39.6 45.1 39.6 44.3 C 39.6 43.6 39.4 43 39.1 42.6 C 38.7 42.2 38.3 42 37.8 42 C 37.4 42 37 42.2 36.6 42.6 C 36.3 43 36.1 43.5 36.1 44.3 Z M 42.4 47.5 L 42.4 46.3 L 43.6 46.3 L 43.6 47.5 L 42.4 47.5 Z " stroke="none" fill="#010102"/>  </g>  <g id="Polygon694">    <path d="M 1 33.1 L 1 24.5 L 6.8 24.5 L 6.8 25.5 L 2.1 25.5 L 2.1 28.2 L 6.2 28.2 L 6.2 29.2 L 2.1 29.2 L 2.1 33.1 L 1 33.1 Z M 8.1 25.7 L 8.1 24.5 L 9.2 24.5 L 9.2 25.7 L 8.1 25.7 Z M 8.1 33.1 L 8.1 26.9 L 9.2 26.9 L 9.2 33.1 L 8.1 33.1 Z M 10.8 33.1 L 10.8 26.9 L 11.7 26.9 C 11.7 26.9 11.74 27.78 11.7 27.8 C 12.2 27.1 12.9 26.8 13.7 26.8 C 14.1 26.8 14.4 26.8 14.8 27 C 15.1 27.1 15.3 27.3 15.5 27.5 C 15.6 27.7 15.7 28 15.8 28.3 C 15.8 28.5 15.8 28.8 15.8 29.3 C 15.84 29.3 15.8 33.1 15.8 33.1 L 14.8 33.1 C 14.8 33.1 14.79 29.34 14.8 29.3 C 14.8 28.9 14.7 28.6 14.7 28.4 C 14.6 28.2 14.4 28 14.2 27.9 C 14 27.7 13.8 27.7 13.5 27.7 C 13 27.7 12.7 27.8 12.3 28.1 C 12 28.4 11.8 28.9 11.8 29.7 C 11.84 29.72 11.8 33.1 11.8 33.1 L 10.8 33.1 Z M 21.5 33.1 C 21.5 33.1 21.5 32.34 21.5 32.3 C 21.1 33 20.5 33.3 19.8 33.3 C 19.3 33.3 18.8 33.1 18.4 32.9 C 18 32.6 17.7 32.2 17.4 31.7 C 17.2 31.2 17.1 30.7 17.1 30 C 17.1 29.4 17.2 28.8 17.4 28.3 C 17.6 27.8 17.9 27.4 18.3 27.2 C 18.7 26.9 19.2 26.8 19.7 26.8 C 20.1 26.8 20.4 26.8 20.7 27 C 21 27.2 21.2 27.4 21.4 27.6 C 21.43 27.61 21.4 24.5 21.4 24.5 L 22.5 24.5 L 22.5 33.1 L 21.5 33.1 Z M 18.2 30 C 18.2 30.8 18.3 31.4 18.7 31.8 C 19 32.2 19.4 32.4 19.9 32.4 C 20.3 32.4 20.7 32.2 21 31.8 C 21.4 31.5 21.5 30.9 21.5 30.1 C 21.5 29.3 21.4 28.6 21 28.2 C 20.7 27.8 20.3 27.6 19.8 27.6 C 19.3 27.6 19 27.8 18.6 28.2 C 18.3 28.6 18.2 29.2 18.2 30 Z M 27.1 30 C 27.1 28.9 27.4 28 28 27.4 C 28.6 27 29.2 26.8 30 26.8 C 30.8 26.8 31.5 27 32.1 27.6 C 32.6 28.2 32.9 28.9 32.9 29.9 C 32.9 30.7 32.8 31.4 32.5 31.8 C 32.3 32.3 32 32.6 31.5 32.9 C 31 33.1 30.5 33.3 30 33.3 C 29.1 33.3 28.4 33 27.9 32.4 C 27.3 31.9 27.1 31.1 27.1 30 Z M 28.2 30 C 28.2 30.8 28.3 31.4 28.7 31.8 C 29 32.2 29.5 32.4 30 32.4 C 30.5 32.4 31 32.2 31.3 31.8 C 31.6 31.4 31.8 30.8 31.8 30 C 31.8 29.2 31.6 28.6 31.3 28.2 C 30.9 27.8 30.5 27.6 30 27.6 C 29.5 27.6 29 27.8 28.7 28.2 C 28.3 28.6 28.2 29.2 28.2 30 Z M 38.2 33.1 C 38.2 33.1 38.22 32.21 38.2 32.2 C 37.7 32.9 37.1 33.3 36.2 33.3 C 35.9 33.3 35.5 33.2 35.2 33.1 C 34.9 32.9 34.7 32.7 34.5 32.5 C 34.4 32.3 34.2 32 34.2 31.7 C 34.1 31.5 34.1 31.2 34.1 30.8 C 34.12 30.75 34.1 26.9 34.1 26.9 L 35.2 26.9 C 35.2 26.9 35.17 30.35 35.2 30.4 C 35.2 30.9 35.2 31.3 35.2 31.5 C 35.3 31.7 35.4 32 35.7 32.1 C 35.9 32.3 36.1 32.4 36.5 32.4 C 36.8 32.4 37.1 32.3 37.3 32.1 C 37.6 31.9 37.8 31.7 37.9 31.4 C 38.1 31.2 38.1 30.8 38.1 30.2 C 38.11 30.23 38.1 26.9 38.1 26.9 L 39.2 26.9 L 39.2 33.1 L 38.2 33.1 Z M 42.7 32.2 C 42.8 32.2 42.9 32.2 43.1 32.2 C 43.1 32.2 43.3 33.1 43.3 33.1 C 43 33.2 42.7 33.2 42.5 33.2 C 42.1 33.2 41.8 33.1 41.6 33 C 41.4 32.9 41.2 32.7 41.1 32.5 C 41.1 32.3 41 31.9 41 31.3 C 41.01 31.3 41 27.7 41 27.7 L 40.2 27.7 L 40.2 26.9 L 41 26.9 L 41 25.4 L 42.1 24.7 L 42.1 26.9 L 43.1 26.9 L 43.1 27.7 L 42.1 27.7 C 42.1 27.7 42.06 31.36 42.1 31.4 C 42.1 31.7 42.1 31.9 42.1 31.9 C 42.2 32 42.2 32.1 42.3 32.1 C 42.4 32.2 42.5 32.2 42.7 32.2 C 42.7 32.2 42.7 32.2 42.7 32.2 Z M 51.8 33.1 C 51.6 32.9 51.6 32.6 51.5 32.4 C 51.2 32.7 50.8 32.9 50.4 33.1 C 50.1 33.2 49.7 33.3 49.3 33.3 C 48.6 33.3 48 33.1 47.7 32.8 C 47.3 32.4 47.1 32 47.1 31.5 C 47.1 31.2 47.2 30.9 47.3 30.6 C 47.5 30.4 47.7 30.2 47.9 30 C 48.1 29.9 48.4 29.8 48.6 29.7 C 48.8 29.6 49.2 29.6 49.6 29.5 C 50.4 29.4 51.1 29.3 51.5 29.2 C 51.5 29 51.5 28.9 51.5 28.9 C 51.5 28.5 51.4 28.2 51.2 28 C 50.9 27.8 50.5 27.6 50 27.6 C 49.5 27.6 49.1 27.7 48.9 27.9 C 48.6 28.1 48.5 28.4 48.3 28.8 C 48.3 28.8 47.3 28.7 47.3 28.7 C 47.4 28.2 47.6 27.9 47.8 27.6 C 48 27.3 48.3 27.1 48.7 27 C 49.1 26.8 49.6 26.8 50.1 26.8 C 50.6 26.8 51.1 26.8 51.4 26.9 C 51.7 27.1 52 27.2 52.1 27.4 C 52.3 27.6 52.4 27.8 52.5 28.1 C 52.5 28.3 52.5 28.6 52.5 29.1 C 52.5 29.1 52.5 30.5 52.5 30.5 C 52.5 31.5 52.5 32.1 52.6 32.4 C 52.6 32.6 52.7 32.9 52.9 33.1 C 52.86 33.12 51.8 33.1 51.8 33.1 C 51.8 33.1 51.76 33.12 51.8 33.1 Z M 51.5 30 C 51.1 30.2 50.5 30.3 49.7 30.4 C 49.3 30.5 49 30.5 48.8 30.6 C 48.6 30.7 48.5 30.8 48.4 31 C 48.3 31.1 48.3 31.3 48.3 31.5 C 48.3 31.7 48.4 32 48.6 32.2 C 48.8 32.3 49.1 32.4 49.5 32.4 C 49.9 32.4 50.3 32.3 50.6 32.2 C 50.9 32 51.1 31.7 51.3 31.4 C 51.4 31.2 51.5 30.9 51.5 30.4 C 51.5 30.4 51.5 30 51.5 30 Z M 55.1 33.1 L 54.2 33.1 L 54.2 24.5 L 55.2 24.5 C 55.2 24.5 55.21 27.6 55.2 27.6 C 55.7 27 56.2 26.8 56.9 26.8 C 57.3 26.8 57.7 26.8 58 27 C 58.3 27.1 58.6 27.4 58.8 27.6 C 59.1 27.9 59.2 28.3 59.4 28.7 C 59.5 29 59.5 29.5 59.5 29.9 C 59.5 31 59.3 31.8 58.8 32.4 C 58.2 33 57.6 33.3 56.9 33.3 C 56.1 33.3 55.5 33 55.1 32.3 C 55.13 32.34 55.1 33.1 55.1 33.1 Z M 55.1 30 C 55.1 30.7 55.2 31.2 55.4 31.6 C 55.8 32.1 56.2 32.4 56.8 32.4 C 57.2 32.4 57.6 32.2 58 31.8 C 58.3 31.4 58.5 30.8 58.5 30 C 58.5 29.2 58.3 28.6 58 28.2 C 57.7 27.8 57.3 27.6 56.8 27.6 C 56.4 27.6 56 27.8 55.6 28.2 C 55.3 28.6 55.1 29.2 55.1 30 Z M 60.4 30 C 60.4 28.9 60.8 28 61.4 27.4 C 61.9 27 62.6 26.8 63.4 26.8 C 64.2 26.8 64.9 27 65.5 27.6 C 66 28.2 66.3 28.9 66.3 29.9 C 66.3 30.7 66.1 31.4 65.9 31.8 C 65.7 32.3 65.3 32.6 64.9 32.9 C 64.4 33.1 63.9 33.3 63.4 33.3 C 62.5 33.3 61.8 33 61.2 32.4 C 60.7 31.9 60.4 31.1 60.4 30 Z M 61.5 30 C 61.5 30.8 61.7 31.4 62 31.8 C 62.4 32.2 62.8 32.4 63.4 32.4 C 63.9 32.4 64.3 32.2 64.7 31.8 C 65 31.4 65.2 30.8 65.2 30 C 65.2 29.2 65 28.6 64.7 28.2 C 64.3 27.8 63.9 27.6 63.4 27.6 C 62.8 27.6 62.4 27.8 62 28.2 C 61.7 28.6 61.5 29.2 61.5 30 Z M 71.6 33.1 C 71.6 33.1 71.58 32.21 71.6 32.2 C 71.1 32.9 70.4 33.3 69.6 33.3 C 69.2 33.3 68.9 33.2 68.6 33.1 C 68.3 32.9 68 32.7 67.9 32.5 C 67.7 32.3 67.6 32 67.5 31.7 C 67.5 31.5 67.5 31.2 67.5 30.8 C 67.48 30.75 67.5 26.9 67.5 26.9 L 68.5 26.9 C 68.5 26.9 68.54 30.35 68.5 30.4 C 68.5 30.9 68.6 31.3 68.6 31.5 C 68.7 31.7 68.8 32 69 32.1 C 69.2 32.3 69.5 32.4 69.8 32.4 C 70.1 32.4 70.4 32.3 70.7 32.1 C 71 31.9 71.2 31.7 71.3 31.4 C 71.4 31.2 71.5 30.8 71.5 30.2 C 71.47 30.23 71.5 26.9 71.5 26.9 L 72.5 26.9 L 72.5 33.1 L 71.6 33.1 Z M 76 32.2 C 76.1 32.2 76.3 32.2 76.5 32.2 C 76.5 32.2 76.6 33.1 76.6 33.1 C 76.3 33.2 76.1 33.2 75.8 33.2 C 75.5 33.2 75.2 33.1 74.9 33 C 74.7 32.9 74.6 32.7 74.5 32.5 C 74.4 32.3 74.4 31.9 74.4 31.3 C 74.37 31.3 74.4 27.7 74.4 27.7 L 73.6 27.7 L 73.6 26.9 L 74.4 26.9 L 74.4 25.4 L 75.4 24.7 L 75.4 26.9 L 76.5 26.9 L 76.5 27.7 L 75.4 27.7 C 75.4 27.7 75.42 31.36 75.4 31.4 C 75.4 31.7 75.4 31.9 75.5 31.9 C 75.5 32 75.6 32.1 75.7 32.1 C 75.7 32.2 75.9 32.2 76 32.2 C 76 32.2 76 32.2 76 32.2 Z M 80.5 30 C 80.5 28.9 80.8 28 81.4 27.4 C 82 27 82.6 26.8 83.4 26.8 C 84.2 26.8 84.9 27 85.5 27.6 C 86 28.2 86.3 28.9 86.3 29.9 C 86.3 30.7 86.2 31.4 85.9 31.8 C 85.7 32.3 85.3 32.6 84.9 32.9 C 84.4 33.1 83.9 33.3 83.4 33.3 C 82.5 33.3 81.8 33 81.3 32.4 C 80.7 31.9 80.5 31.1 80.5 30 Z M 81.5 30 C 81.5 30.8 81.7 31.4 82.1 31.8 C 82.4 32.2 82.8 32.4 83.4 32.4 C 83.9 32.4 84.3 32.2 84.7 31.8 C 85 31.4 85.2 30.8 85.2 30 C 85.2 29.2 85 28.6 84.7 28.2 C 84.3 27.8 83.9 27.6 83.4 27.6 C 82.8 27.6 82.4 27.8 82.1 28.2 C 81.7 28.6 81.5 29.2 81.5 30 Z M 91.6 33.1 C 91.6 33.1 91.6 32.21 91.6 32.2 C 91.1 32.9 90.5 33.3 89.6 33.3 C 89.3 33.3 88.9 33.2 88.6 33.1 C 88.3 32.9 88 32.7 87.9 32.5 C 87.7 32.3 87.6 32 87.6 31.7 C 87.5 31.5 87.5 31.2 87.5 30.8 C 87.5 30.75 87.5 26.9 87.5 26.9 L 88.6 26.9 C 88.6 26.9 88.55 30.35 88.6 30.4 C 88.6 30.9 88.6 31.3 88.6 31.5 C 88.7 31.7 88.8 32 89 32.1 C 89.3 32.3 89.5 32.4 89.8 32.4 C 90.2 32.4 90.4 32.3 90.7 32.1 C 91 31.9 91.2 31.7 91.3 31.4 C 91.4 31.2 91.5 30.8 91.5 30.2 C 91.49 30.23 91.5 26.9 91.5 26.9 L 92.5 26.9 L 92.5 33.1 L 91.6 33.1 Z M 94.2 33.1 L 94.2 26.9 L 95.1 26.9 C 95.1 26.9 95.13 27.84 95.1 27.8 C 95.4 27.4 95.6 27.1 95.8 27 C 96 26.8 96.2 26.8 96.5 26.8 C 96.8 26.8 97.2 26.9 97.6 27.1 C 97.6 27.1 97.2 28.1 97.2 28.1 C 96.9 27.9 96.7 27.8 96.4 27.8 C 96.2 27.8 96 27.9 95.8 28.1 C 95.6 28.2 95.5 28.4 95.4 28.6 C 95.3 29 95.2 29.4 95.2 29.9 C 95.24 29.86 95.2 33.1 95.2 33.1 L 94.2 33.1 Z M 101.1 31.3 C 101.1 31.3 102.1 31.1 102.1 31.1 C 102.2 31.5 102.4 31.8 102.6 32.1 C 102.9 32.3 103.3 32.4 103.8 32.4 C 104.2 32.4 104.6 32.3 104.8 32.1 C 105.1 31.9 105.2 31.7 105.2 31.4 C 105.2 31.2 105.1 31 104.9 30.8 C 104.7 30.7 104.4 30.6 103.8 30.5 C 103 30.3 102.5 30.1 102.2 30 C 101.9 29.8 101.7 29.6 101.5 29.4 C 101.4 29.1 101.3 28.9 101.3 28.6 C 101.3 28.3 101.3 28 101.5 27.8 C 101.6 27.5 101.8 27.3 102 27.2 C 102.2 27.1 102.4 27 102.7 26.9 C 102.9 26.8 103.2 26.8 103.6 26.8 C 104.1 26.8 104.5 26.8 104.9 27 C 105.2 27.1 105.5 27.3 105.7 27.5 C 105.8 27.8 106 28.1 106 28.5 C 106 28.5 105 28.6 105 28.6 C 105 28.3 104.8 28.1 104.6 27.9 C 104.4 27.7 104.1 27.6 103.6 27.6 C 103.2 27.6 102.8 27.7 102.6 27.9 C 102.4 28 102.3 28.2 102.3 28.4 C 102.3 28.6 102.3 28.7 102.4 28.8 C 102.5 28.9 102.6 29 102.8 29.1 C 102.9 29.1 103.2 29.2 103.8 29.3 C 104.5 29.5 105 29.7 105.3 29.8 C 105.6 30 105.9 30.1 106 30.4 C 106.2 30.6 106.3 30.9 106.3 31.3 C 106.3 31.6 106.2 32 106 32.3 C 105.8 32.6 105.5 32.8 105.1 33 C 104.7 33.2 104.3 33.3 103.8 33.3 C 103 33.3 102.3 33.1 101.9 32.8 C 101.5 32.4 101.2 31.9 101.1 31.3 Z M 111.8 31.1 C 111.8 31.1 112.9 31.3 112.9 31.3 C 112.7 31.9 112.4 32.4 111.9 32.7 C 111.5 33.1 110.9 33.3 110.1 33.3 C 109.2 33.3 108.5 33 108 32.4 C 107.4 31.9 107.2 31.1 107.2 30.1 C 107.2 29 107.4 28.2 108 27.6 C 108.5 27 109.2 26.8 110.1 26.8 C 110.9 26.8 111.6 27 112.1 27.6 C 112.6 28.2 112.9 29 112.9 30 C 112.9 30.1 112.9 30.2 112.9 30.3 C 112.9 30.3 108.3 30.3 108.3 30.3 C 108.3 31 108.5 31.5 108.8 31.9 C 109.2 32.2 109.6 32.4 110.1 32.4 C 110.5 32.4 110.9 32.3 111.1 32.1 C 111.4 31.9 111.6 31.6 111.8 31.1 Z M 108.3 29.4 C 108.3 29.4 111.8 29.4 111.8 29.4 C 111.8 28.9 111.6 28.5 111.4 28.2 C 111.1 27.8 110.6 27.6 110.1 27.6 C 109.6 27.6 109.2 27.8 108.9 28.1 C 108.5 28.4 108.4 28.9 108.3 29.4 Z M 114.2 33.1 L 114.2 26.9 L 115.1 26.9 C 115.1 26.9 115.14 27.84 115.1 27.8 C 115.4 27.4 115.6 27.1 115.8 27 C 116 26.8 116.2 26.8 116.5 26.8 C 116.8 26.8 117.2 26.9 117.6 27.1 C 117.6 27.1 117.2 28.1 117.2 28.1 C 116.9 27.9 116.7 27.8 116.4 27.8 C 116.2 27.8 116 27.9 115.8 28.1 C 115.6 28.2 115.5 28.4 115.4 28.6 C 115.3 29 115.2 29.4 115.2 29.9 C 115.24 29.86 115.2 33.1 115.2 33.1 L 114.2 33.1 Z M 119.9 33.1 L 117.6 26.9 L 118.7 26.9 C 118.7 26.9 120.01 30.63 120 30.6 C 120.2 31 120.3 31.4 120.4 31.9 C 120.5 31.6 120.6 31.2 120.8 30.7 C 120.8 30.7 122.2 26.9 122.2 26.9 L 123.3 26.9 L 120.9 33.1 L 119.9 33.1 Z M 124.2 25.7 L 124.2 24.5 L 125.3 24.5 L 125.3 25.7 L 124.2 25.7 Z M 124.2 33.1 L 124.2 26.9 L 125.3 26.9 L 125.3 33.1 L 124.2 33.1 Z M 130.9 30.8 C 130.9 30.8 132 31 132 31 C 131.8 31.7 131.6 32.3 131.1 32.7 C 130.6 33.1 130 33.3 129.4 33.3 C 128.5 33.3 127.8 33 127.3 32.4 C 126.8 31.9 126.5 31.1 126.5 30 C 126.5 29.4 126.7 28.8 126.9 28.3 C 127.1 27.8 127.4 27.4 127.9 27.1 C 128.3 26.9 128.8 26.8 129.4 26.8 C 130.1 26.8 130.6 26.9 131 27.3 C 131.5 27.6 131.7 28.1 131.9 28.7 C 131.9 28.7 130.8 28.9 130.8 28.9 C 130.7 28.5 130.6 28.2 130.3 27.9 C 130.1 27.7 129.8 27.6 129.4 27.6 C 128.9 27.6 128.5 27.8 128.1 28.2 C 127.8 28.6 127.6 29.2 127.6 30 C 127.6 30.8 127.8 31.4 128.1 31.8 C 128.4 32.2 128.8 32.4 129.4 32.4 C 129.8 32.4 130.1 32.3 130.4 32 C 130.7 31.8 130.8 31.4 130.9 30.8 Z M 137.1 31.1 C 137.1 31.1 138.2 31.3 138.2 31.3 C 138 31.9 137.7 32.4 137.3 32.7 C 136.8 33.1 136.2 33.3 135.5 33.3 C 134.6 33.3 133.8 33 133.3 32.4 C 132.8 31.9 132.5 31.1 132.5 30.1 C 132.5 29 132.8 28.2 133.3 27.6 C 133.9 27 134.6 26.8 135.4 26.8 C 136.2 26.8 136.9 27 137.5 27.6 C 138 28.2 138.2 29 138.2 30 C 138.2 30.1 138.2 30.2 138.2 30.3 C 138.2 30.3 133.6 30.3 133.6 30.3 C 133.6 31 133.8 31.5 134.2 31.9 C 134.5 32.2 135 32.4 135.5 32.4 C 135.9 32.4 136.2 32.3 136.5 32.1 C 136.7 31.9 137 31.6 137.1 31.1 Z M 133.7 29.4 C 133.7 29.4 137.1 29.4 137.1 29.4 C 137.1 28.9 137 28.5 136.7 28.2 C 136.4 27.8 136 27.6 135.4 27.6 C 134.9 27.6 134.5 27.8 134.2 28.1 C 133.9 28.4 133.7 28.9 133.7 29.4 Z M 139.1 31.3 C 139.1 31.3 140.2 31.1 140.2 31.1 C 140.2 31.5 140.4 31.8 140.6 32.1 C 140.9 32.3 141.3 32.4 141.8 32.4 C 142.3 32.4 142.6 32.3 142.8 32.1 C 143.1 31.9 143.2 31.7 143.2 31.4 C 143.2 31.2 143.1 31 142.9 30.8 C 142.7 30.7 142.4 30.6 141.8 30.5 C 141 30.3 140.5 30.1 140.2 30 C 139.9 29.8 139.7 29.6 139.5 29.4 C 139.4 29.1 139.3 28.9 139.3 28.6 C 139.3 28.3 139.4 28 139.5 27.8 C 139.6 27.5 139.8 27.3 140 27.2 C 140.2 27.1 140.4 27 140.7 26.9 C 141 26.8 141.3 26.8 141.6 26.8 C 142.1 26.8 142.5 26.8 142.9 27 C 143.2 27.1 143.5 27.3 143.7 27.5 C 143.9 27.8 144 28.1 144 28.5 C 144 28.5 143 28.6 143 28.6 C 143 28.3 142.8 28.1 142.6 27.9 C 142.4 27.7 142.1 27.6 141.7 27.6 C 141.2 27.6 140.8 27.7 140.6 27.9 C 140.4 28 140.3 28.2 140.3 28.4 C 140.3 28.6 140.4 28.7 140.4 28.8 C 140.5 28.9 140.7 29 140.8 29.1 C 140.9 29.1 141.3 29.2 141.8 29.3 C 142.5 29.5 143 29.7 143.3 29.8 C 143.6 30 143.9 30.1 144 30.4 C 144.2 30.6 144.3 30.9 144.3 31.3 C 144.3 31.6 144.2 32 144 32.3 C 143.8 32.6 143.5 32.8 143.1 33 C 142.7 33.2 142.3 33.3 141.8 33.3 C 141 33.3 140.3 33.1 139.9 32.8 C 139.5 32.4 139.2 31.9 139.1 31.3 Z M 145.8 33.1 L 145.8 31.9 L 147 31.9 C 147 31.9 147.01 33.12 147 33.1 C 147 33.6 146.9 33.9 146.8 34.2 C 146.6 34.5 146.4 34.7 146 34.8 C 146 34.8 145.7 34.4 145.7 34.4 C 146 34.3 146.1 34.1 146.2 33.9 C 146.3 33.7 146.4 33.5 146.4 33.1 C 146.41 33.12 145.8 33.1 145.8 33.1 Z M 154 32.2 C 154.2 32.2 154.3 32.2 154.5 32.2 C 154.5 32.2 154.7 33.1 154.7 33.1 C 154.4 33.2 154.1 33.2 153.9 33.2 C 153.5 33.2 153.2 33.1 153 33 C 152.8 32.9 152.6 32.7 152.5 32.5 C 152.4 32.3 152.4 31.9 152.4 31.3 C 152.4 31.3 152.4 27.7 152.4 27.7 L 151.6 27.7 L 151.6 26.9 L 152.4 26.9 L 152.4 25.4 L 153.4 24.7 L 153.4 26.9 L 154.5 26.9 L 154.5 27.7 L 153.4 27.7 C 153.4 27.7 153.45 31.36 153.4 31.4 C 153.4 31.7 153.5 31.9 153.5 31.9 C 153.5 32 153.6 32.1 153.7 32.1 C 153.8 32.2 153.9 32.2 154 32.2 C 154 32.2 154 32.2 154 32.2 Z M 159.8 31.1 C 159.8 31.1 160.9 31.3 160.9 31.3 C 160.7 31.9 160.4 32.4 159.9 32.7 C 159.5 33.1 158.9 33.3 158.2 33.3 C 157.2 33.3 156.5 33 156 32.4 C 155.5 31.9 155.2 31.1 155.2 30.1 C 155.2 29 155.5 28.2 156 27.6 C 156.5 27 157.2 26.8 158.1 26.8 C 158.9 26.8 159.6 27 160.1 27.6 C 160.7 28.2 160.9 29 160.9 30 C 160.9 30.1 160.9 30.2 160.9 30.3 C 160.9 30.3 156.3 30.3 156.3 30.3 C 156.3 31 156.5 31.5 156.9 31.9 C 157.2 32.2 157.6 32.4 158.2 32.4 C 158.5 32.4 158.9 32.3 159.1 32.1 C 159.4 31.9 159.6 31.6 159.8 31.1 Z M 156.3 29.4 C 156.3 29.4 159.8 29.4 159.8 29.4 C 159.8 28.9 159.6 28.5 159.4 28.2 C 159.1 27.8 158.6 27.6 158.1 27.6 C 157.6 27.6 157.2 27.8 156.9 28.1 C 156.6 28.4 156.4 28.9 156.3 29.4 Z M 162.2 33.1 L 162.2 26.9 L 163.2 26.9 C 163.2 26.9 163.16 27.78 163.2 27.8 C 163.6 27.1 164.3 26.8 165.1 26.8 C 165.5 26.8 165.9 26.8 166.2 27 C 166.5 27.1 166.7 27.3 166.9 27.5 C 167 27.7 167.1 28 167.2 28.3 C 167.2 28.5 167.3 28.8 167.3 29.3 C 167.27 29.3 167.3 33.1 167.3 33.1 L 166.2 33.1 C 166.2 33.1 166.21 29.34 166.2 29.3 C 166.2 28.9 166.2 28.6 166.1 28.4 C 166 28.2 165.9 28 165.7 27.9 C 165.4 27.7 165.2 27.7 164.9 27.7 C 164.5 27.7 164.1 27.8 163.8 28.1 C 163.4 28.4 163.3 28.9 163.3 29.7 C 163.27 29.72 163.3 33.1 163.3 33.1 L 162.2 33.1 Z M 173.1 31.1 C 173.1 31.1 174.2 31.3 174.2 31.3 C 174.1 31.9 173.7 32.4 173.3 32.7 C 172.8 33.1 172.2 33.3 171.5 33.3 C 170.6 33.3 169.9 33 169.3 32.4 C 168.8 31.9 168.5 31.1 168.5 30.1 C 168.5 29 168.8 28.2 169.3 27.6 C 169.9 27 170.6 26.8 171.4 26.8 C 172.3 26.8 173 27 173.5 27.6 C 174 28.2 174.3 29 174.3 30 C 174.3 30.1 174.3 30.2 174.3 30.3 C 174.3 30.3 169.6 30.3 169.6 30.3 C 169.7 31 169.9 31.5 170.2 31.9 C 170.6 32.2 171 32.4 171.5 32.4 C 171.9 32.4 172.2 32.3 172.5 32.1 C 172.8 31.9 173 31.6 173.1 31.1 Z M 169.7 29.4 C 169.7 29.4 173.2 29.4 173.2 29.4 C 173.1 28.9 173 28.5 172.8 28.2 C 172.4 27.8 172 27.6 171.5 27.6 C 171 27.6 170.6 27.8 170.2 28.1 C 169.9 28.4 169.7 28.9 169.7 29.4 Z M 177.4 32.2 C 177.5 32.2 177.7 32.2 177.9 32.2 C 177.9 32.2 178 33.1 178 33.1 C 177.7 33.2 177.5 33.2 177.2 33.2 C 176.8 33.2 176.5 33.1 176.3 33 C 176.1 32.9 176 32.7 175.9 32.5 C 175.8 32.3 175.8 31.9 175.8 31.3 C 175.75 31.3 175.8 27.7 175.8 27.7 L 175 27.7 L 175 26.9 L 175.8 26.9 L 175.8 25.4 L 176.8 24.7 L 176.8 26.9 L 177.9 26.9 L 177.9 27.7 L 176.8 27.7 C 176.8 27.7 176.8 31.36 176.8 31.4 C 176.8 31.7 176.8 31.9 176.9 31.9 C 176.9 32 177 32.1 177 32.1 C 177.1 32.2 177.2 32.2 177.4 32.2 C 177.4 32.2 177.4 32.2 177.4 32.2 Z M 178.5 31.3 C 178.5 31.3 179.5 31.1 179.5 31.1 C 179.6 31.5 179.7 31.8 180 32.1 C 180.3 32.3 180.6 32.4 181.1 32.4 C 181.6 32.4 182 32.3 182.2 32.1 C 182.4 31.9 182.6 31.7 182.6 31.4 C 182.6 31.2 182.5 31 182.2 30.8 C 182.1 30.7 181.7 30.6 181.2 30.5 C 180.4 30.3 179.9 30.1 179.6 30 C 179.3 29.8 179 29.6 178.9 29.4 C 178.7 29.1 178.6 28.9 178.6 28.6 C 178.6 28.3 178.7 28 178.8 27.8 C 179 27.5 179.1 27.3 179.4 27.2 C 179.5 27.1 179.7 27 180 26.9 C 180.3 26.8 180.6 26.8 180.9 26.8 C 181.4 26.8 181.9 26.8 182.2 27 C 182.6 27.1 182.9 27.3 183 27.5 C 183.2 27.8 183.3 28.1 183.4 28.5 C 183.4 28.5 182.4 28.6 182.4 28.6 C 182.3 28.3 182.2 28.1 182 27.9 C 181.7 27.7 181.4 27.6 181 27.6 C 180.5 27.6 180.2 27.7 180 27.9 C 179.8 28 179.7 28.2 179.7 28.4 C 179.7 28.6 179.7 28.7 179.8 28.8 C 179.9 28.9 180 29 180.2 29.1 C 180.3 29.1 180.6 29.2 181.1 29.3 C 181.9 29.5 182.4 29.7 182.7 29.8 C 183 30 183.2 30.1 183.4 30.4 C 183.6 30.6 183.6 30.9 183.6 31.3 C 183.6 31.6 183.5 32 183.3 32.3 C 183.1 32.6 182.8 32.8 182.4 33 C 182.1 33.2 181.6 33.3 181.1 33.3 C 180.3 33.3 179.7 33.1 179.3 32.8 C 178.9 32.4 178.6 31.9 178.5 31.3 Z M 192.5 33.1 C 192.4 32.9 192.3 32.6 192.3 32.4 C 191.9 32.7 191.5 32.9 191.2 33.1 C 190.8 33.2 190.4 33.3 190 33.3 C 189.3 33.3 188.8 33.1 188.4 32.8 C 188.1 32.4 187.9 32 187.9 31.5 C 187.9 31.2 187.9 30.9 188.1 30.6 C 188.2 30.4 188.4 30.2 188.6 30 C 188.8 29.9 189.1 29.8 189.4 29.7 C 189.6 29.6 189.9 29.6 190.3 29.5 C 191.2 29.4 191.8 29.3 192.2 29.2 C 192.2 29 192.2 28.9 192.2 28.9 C 192.2 28.5 192.1 28.2 191.9 28 C 191.6 27.8 191.2 27.6 190.7 27.6 C 190.2 27.6 189.8 27.7 189.6 27.9 C 189.4 28.1 189.2 28.4 189.1 28.8 C 189.1 28.8 188.1 28.7 188.1 28.7 C 188.1 28.2 188.3 27.9 188.5 27.6 C 188.7 27.3 189 27.1 189.4 27 C 189.9 26.8 190.3 26.8 190.9 26.8 C 191.4 26.8 191.8 26.8 192.2 26.9 C 192.5 27.1 192.7 27.2 192.9 27.4 C 193 27.6 193.2 27.8 193.2 28.1 C 193.2 28.3 193.3 28.6 193.3 29.1 C 193.3 29.1 193.3 30.5 193.3 30.5 C 193.3 31.5 193.3 32.1 193.3 32.4 C 193.4 32.6 193.5 32.9 193.6 33.1 C 193.6 33.12 192.5 33.1 192.5 33.1 C 192.5 33.1 192.5 33.12 192.5 33.1 Z M 192.2 30 C 191.8 30.2 191.2 30.3 190.5 30.4 C 190 30.5 189.7 30.5 189.6 30.6 C 189.4 30.7 189.2 30.8 189.1 31 C 189 31.1 189 31.3 189 31.5 C 189 31.7 189.1 32 189.3 32.2 C 189.5 32.3 189.8 32.4 190.2 32.4 C 190.7 32.4 191 32.3 191.3 32.2 C 191.6 32 191.9 31.7 192 31.4 C 192.1 31.2 192.2 30.9 192.2 30.4 C 192.2 30.4 192.2 30 192.2 30 Z M 194.9 33.1 L 194.9 26.9 L 195.8 26.9 C 195.8 26.9 195.85 27.78 195.8 27.8 C 196.3 27.1 197 26.8 197.8 26.8 C 198.2 26.8 198.5 26.8 198.9 27 C 199.2 27.1 199.4 27.3 199.6 27.5 C 199.7 27.7 199.8 28 199.9 28.3 C 199.9 28.5 200 28.8 200 29.3 C 199.96 29.3 200 33.1 200 33.1 L 198.9 33.1 C 198.9 33.1 198.9 29.34 198.9 29.3 C 198.9 28.9 198.9 28.6 198.8 28.4 C 198.7 28.2 198.6 28 198.3 27.9 C 198.1 27.7 197.9 27.7 197.6 27.7 C 197.2 27.7 196.8 27.8 196.4 28.1 C 196.1 28.4 196 28.9 196 29.7 C 195.96 29.72 196 33.1 196 33.1 L 194.9 33.1 Z M 205.6 33.1 C 205.6 33.1 205.61 32.34 205.6 32.3 C 205.2 33 204.6 33.3 203.9 33.3 C 203.4 33.3 202.9 33.1 202.5 32.9 C 202.1 32.6 201.8 32.2 201.5 31.7 C 201.3 31.2 201.2 30.7 201.2 30 C 201.2 29.4 201.3 28.8 201.5 28.3 C 201.7 27.8 202 27.4 202.4 27.2 C 202.8 26.9 203.3 26.8 203.8 26.8 C 204.2 26.8 204.5 26.8 204.8 27 C 205.1 27.2 205.4 27.4 205.5 27.6 C 205.54 27.61 205.5 24.5 205.5 24.5 L 206.6 24.5 L 206.6 33.1 L 205.6 33.1 Z M 202.3 30 C 202.3 30.8 202.4 31.4 202.8 31.8 C 203.1 32.2 203.5 32.4 204 32.4 C 204.4 32.4 204.8 32.2 205.1 31.8 C 205.5 31.5 205.6 30.9 205.6 30.1 C 205.6 29.3 205.5 28.6 205.1 28.2 C 204.8 27.8 204.4 27.6 203.9 27.6 C 203.5 27.6 203.1 27.8 202.7 28.2 C 202.4 28.6 202.3 29.2 202.3 30 Z M 212.7 33.1 L 210.8 26.9 L 211.9 26.9 L 212.9 30.5 C 212.9 30.5 213.28 31.83 213.3 31.8 C 213.3 31.8 213.4 31.3 213.6 30.5 C 213.6 30.54 214.6 26.9 214.6 26.9 L 215.7 26.9 L 216.6 30.5 L 216.9 31.7 L 217.3 30.5 L 218.3 26.9 L 219.4 26.9 L 217.4 33.1 L 216.3 33.1 L 215.3 29.4 L 215.1 28.3 L 213.8 33.1 L 212.7 33.1 Z M 224.5 33.1 C 224.4 32.9 224.3 32.6 224.3 32.4 C 223.9 32.7 223.5 32.9 223.2 33.1 C 222.8 33.2 222.4 33.3 222 33.3 C 221.3 33.3 220.8 33.1 220.4 32.8 C 220.1 32.4 219.9 32 219.9 31.5 C 219.9 31.2 220 30.9 220.1 30.6 C 220.2 30.4 220.4 30.2 220.6 30 C 220.9 29.9 221.1 29.8 221.4 29.7 C 221.6 29.6 221.9 29.6 222.3 29.5 C 223.2 29.4 223.8 29.3 224.2 29.2 C 224.2 29 224.2 28.9 224.2 28.9 C 224.2 28.5 224.1 28.2 223.9 28 C 223.7 27.8 223.3 27.6 222.7 27.6 C 222.2 27.6 221.9 27.7 221.6 27.9 C 221.4 28.1 221.2 28.4 221.1 28.8 C 221.1 28.8 220.1 28.7 220.1 28.7 C 220.2 28.2 220.3 27.9 220.5 27.6 C 220.7 27.3 221.1 27.1 221.5 27 C 221.9 26.8 222.3 26.8 222.9 26.8 C 223.4 26.8 223.8 26.8 224.2 26.9 C 224.5 27.1 224.7 27.2 224.9 27.4 C 225.1 27.6 225.2 27.8 225.2 28.1 C 225.3 28.3 225.3 28.6 225.3 29.1 C 225.3 29.1 225.3 30.5 225.3 30.5 C 225.3 31.5 225.3 32.1 225.4 32.4 C 225.4 32.6 225.5 32.9 225.6 33.1 C 225.62 33.12 224.5 33.1 224.5 33.1 C 224.5 33.1 224.52 33.12 224.5 33.1 Z M 224.2 30 C 223.8 30.2 223.3 30.3 222.5 30.4 C 222.1 30.5 221.8 30.5 221.6 30.6 C 221.4 30.7 221.3 30.8 221.2 31 C 221.1 31.1 221 31.3 221 31.5 C 221 31.7 221.1 32 221.3 32.2 C 221.5 32.3 221.9 32.4 222.3 32.4 C 222.7 32.4 223 32.3 223.4 32.2 C 223.7 32 223.9 31.7 224.1 31.4 C 224.2 31.2 224.2 30.9 224.2 30.4 C 224.2 30.4 224.2 30 224.2 30 Z M 227.6 35.6 C 227.4 35.6 227.1 35.6 226.9 35.5 C 226.9 35.5 226.8 34.5 226.8 34.5 C 227 34.6 227.2 34.6 227.4 34.6 C 227.6 34.6 227.8 34.6 227.9 34.5 C 228.1 34.4 228.2 34.3 228.3 34.2 C 228.3 34.1 228.4 33.8 228.6 33.4 C 228.6 33.3 228.6 33.2 228.7 33.1 C 228.69 33.13 226.3 26.9 226.3 26.9 L 227.5 26.9 C 227.5 26.9 228.76 30.5 228.8 30.5 C 228.9 31 229.1 31.4 229.2 31.9 C 229.3 31.5 229.5 31 229.6 30.5 C 229.64 30.53 231 26.9 231 26.9 L 232 26.9 C 232 26.9 229.66 33.23 229.7 33.2 C 229.4 33.9 229.2 34.4 229.1 34.6 C 228.9 35 228.7 35.2 228.4 35.4 C 228.2 35.6 227.9 35.6 227.6 35.6 C 227.6 35.6 227.6 35.6 227.6 35.6 Z M 235.9 30 C 235.9 28.9 236.2 28 236.8 27.4 C 237.4 27 238 26.8 238.8 26.8 C 239.6 26.8 240.3 27 240.9 27.6 C 241.4 28.2 241.7 28.9 241.7 29.9 C 241.7 30.7 241.6 31.4 241.3 31.8 C 241.1 32.3 240.7 32.6 240.3 32.9 C 239.8 33.1 239.3 33.3 238.8 33.3 C 237.9 33.3 237.2 33 236.7 32.4 C 236.1 31.9 235.9 31.1 235.9 30 Z M 236.9 30 C 236.9 30.8 237.1 31.4 237.5 31.8 C 237.8 32.2 238.3 32.4 238.8 32.4 C 239.3 32.4 239.7 32.2 240.1 31.8 C 240.4 31.4 240.6 30.8 240.6 30 C 240.6 29.2 240.4 28.6 240.1 28.2 C 239.7 27.8 239.3 27.6 238.8 27.6 C 238.3 27.6 237.8 27.8 237.5 28.2 C 237.1 28.6 236.9 29.2 236.9 30 Z M 243.2 33.1 L 243.2 27.7 L 242.3 27.7 L 242.3 26.9 L 243.2 26.9 C 243.2 26.9 243.18 26.24 243.2 26.2 C 243.2 25.8 243.2 25.5 243.3 25.3 C 243.4 25 243.6 24.8 243.8 24.6 C 244.1 24.5 244.4 24.4 244.9 24.4 C 245.2 24.4 245.5 24.4 245.9 24.5 C 245.9 24.5 245.7 25.4 245.7 25.4 C 245.5 25.4 245.3 25.4 245.1 25.4 C 244.8 25.4 244.6 25.4 244.4 25.6 C 244.3 25.7 244.2 25.9 244.2 26.3 C 244.23 26.32 244.2 26.9 244.2 26.9 L 245.4 26.9 L 245.4 27.7 L 244.2 27.7 L 244.2 33.1 L 243.2 33.1 Z " stroke="none" fill="#010102"/>  </g>  <g id="Polygon693">    <path d="M 6.3 0.8 L 11.8 13.1 L 10.4 13.1 L 8.7 9.3 L 3.1 9.3 L 1.4 13.1 L 0 13.1 L 5.3 0.8 L 6.3 0.8 Z M 3.6 8.1 L 8.1 8.1 L 5.8 2.8 L 3.6 8.1 Z M 16.3 0.8 C 18.6 0.8 20.1 2 20.1 4 C 20.1 5.3 19.4 6.2 18.1 6.7 C 20 6.9 21.2 8.2 21.2 9.8 C 21.2 12.1 19.2 13.1 16.9 13.1 C 16.92 13.12 13.2 13.1 13.2 13.1 L 13.2 0.8 C 13.2 0.8 16.34 0.85 16.3 0.8 Z M 14.5 6.3 C 14.5 6.3 15.86 6.3 15.9 6.3 C 17.9 6.3 18.7 5.4 18.7 4.1 C 18.7 2.7 17.9 2 16.1 2 C 16.07 2.03 14.5 2 14.5 2 L 14.5 6.3 Z M 16.7 11.9 C 18.6 11.9 19.8 11.3 19.8 9.7 C 19.8 8.3 18.8 7.5 16.5 7.5 C 16.47 7.47 14.5 7.5 14.5 7.5 L 14.5 11.9 C 14.5 11.9 16.67 11.93 16.7 11.9 Z M 35.4 6.9 C 35.4 10.4 32.9 13.3 28.8 13.3 C 25 13.3 22.4 10.4 22.4 7.1 C 22.4 3.6 24.9 0.7 28.9 0.7 C 32.8 0.7 35.4 3.5 35.4 6.9 Z M 23.8 7 C 23.8 9.9 26.1 12 28.8 12 C 32.5 12 34 9.2 34 7 C 34 4.5 32.1 2 28.9 2 C 25.6 2 23.8 4.5 23.8 7 Z M 38.8 0.8 C 38.8 0.8 38.79 7.92 38.8 7.9 C 38.8 10.6 40.1 12.1 42.6 12.1 C 45.1 12.1 46.4 10.6 46.4 7.9 C 46.39 7.92 46.4 0.8 46.4 0.8 L 47.7 0.8 C 47.7 0.8 47.74 7.92 47.7 7.9 C 47.7 11.1 46 13.3 42.6 13.3 C 39.2 13.3 37.4 11.4 37.4 7.9 C 37.44 7.92 37.4 0.8 37.4 0.8 L 38.8 0.8 Z M 59.3 0.8 L 59.3 2 L 54.9 2 L 54.9 13.1 L 53.6 13.1 L 53.6 2 L 49.2 2 L 49.2 0.8 L 59.3 0.8 Z " stroke="none" fill="#010102"/>  </g></svg>