<?xml version="1.0" standalone="no"?><!DOCTYPE svg PUBLIC "-//W3C//DTD SVG 1.1//EN" "http://www.w3.org/Graphics/SVG/1.1/DTD/svg11.dtd"><svg xmlns="http://www.w3.org/2000/svg" version="1.1" width="42.1px" height="19.3px" viewBox="0 -4 42.1 19.3" style="top:-4px">  <desc>About</desc>  <defs/>  <g id="Polygon2131">    <path d="M 5.4 0.5 L 9 8.7 L 8.1 8.7 L 7 6.2 L 3.2 6.2 L 2.1 8.7 L 1.2 8.7 L 4.8 0.5 L 5.4 0.5 Z M 3.6 5.4 L 6.6 5.4 L 5.1 1.9 L 3.6 5.4 Z M 12.1 0.6 C 13.6 0.6 14.6 1.3 14.6 2.7 C 14.6 3.5 14.1 4.2 13.3 4.5 C 14.5 4.6 15.3 5.5 15.3 6.6 C 15.3 8.1 14 8.7 12.5 8.7 C 12.47 8.75 10 8.7 10 8.7 L 10 0.6 C 10 0.6 12.08 0.56 12.1 0.6 Z M 10.9 4.2 C 10.9 4.2 11.76 4.2 11.8 4.2 C 13.1 4.2 13.7 3.6 13.7 2.7 C 13.7 1.8 13.1 1.4 11.9 1.4 C 11.9 1.36 10.9 1.4 10.9 1.4 L 10.9 4.2 Z M 12.3 8 C 13.6 8 14.4 7.5 14.4 6.5 C 14.4 5.5 13.7 5 12.2 5 C 12.17 4.98 10.9 5 10.9 5 L 10.9 8 C 10.9 8 12.3 7.96 12.3 8 Z M 24.8 4.6 C 24.8 6.9 23.1 8.9 20.4 8.9 C 17.9 8.9 16.2 6.9 16.2 4.7 C 16.2 2.4 17.8 0.5 20.4 0.5 C 23.1 0.5 24.8 2.4 24.8 4.6 Z M 17.1 4.7 C 17.1 6.6 18.6 8 20.4 8 C 22.8 8 23.8 6.1 23.8 4.6 C 23.8 3 22.6 1.3 20.5 1.3 C 18.3 1.3 17.1 3 17.1 4.7 Z M 27 0.6 C 27 0.6 27.05 5.28 27 5.3 C 27 7.1 27.9 8.1 29.6 8.1 C 31.3 8.1 32.1 7.1 32.1 5.3 C 32.11 5.28 32.1 0.6 32.1 0.6 L 33 0.6 C 33 0.6 33.01 5.28 33 5.3 C 33 7.4 31.9 8.9 29.6 8.9 C 27.3 8.9 26.1 7.6 26.1 5.3 C 26.15 5.28 26.1 0.6 26.1 0.6 L 27 0.6 Z M 40.7 0.6 L 40.7 1.4 L 37.8 1.4 L 37.8 8.7 L 36.9 8.7 L 36.9 1.4 L 34 1.4 L 34 0.6 L 40.7 0.6 Z " stroke="none" fill="#010102"/>  </g></svg>