<?xml version="1.0" standalone="no"?><!DOCTYPE svg PUBLIC "-//W3C//DTD SVG 1.1//EN" "http://www.w3.org/Graphics/SVG/1.1/DTD/svg11.dtd"><svg xmlns="http://www.w3.org/2000/svg" version="1.1" width="264px" height="60.5px" viewBox="0 -5 264 60.5" style="top:-5px">  <desc>About Find out about our services, tenets and way of working.</desc>  <defs/>  <g id="Polygon737">    <path d="M 1.9 48.3 L 0 42.1 L 1.1 42.1 L 2.1 45.7 C 2.1 45.7 2.48 47.02 2.5 47 C 2.5 46.9 2.6 46.5 2.8 45.7 C 2.81 45.73 3.8 42.1 3.8 42.1 L 4.9 42.1 L 5.8 45.7 L 6.1 46.9 L 6.5 45.7 L 7.5 42.1 L 8.6 42.1 L 6.6 48.3 L 5.5 48.3 L 4.5 44.6 L 4.3 43.5 L 3 48.3 L 1.9 48.3 Z M 9.1 45.2 C 9.1 44 9.4 43.2 10 42.6 C 10.6 42.2 11.2 41.9 12 41.9 C 12.8 41.9 13.5 42.2 14.1 42.8 C 14.6 43.3 14.9 44.1 14.9 45.1 C 14.9 45.9 14.8 46.5 14.5 47 C 14.3 47.5 13.9 47.8 13.5 48.1 C 13 48.3 12.5 48.5 12 48.5 C 11.1 48.5 10.4 48.2 9.9 47.6 C 9.3 47.1 9.1 46.2 9.1 45.2 Z M 10.1 45.2 C 10.1 46 10.3 46.6 10.7 47 C 11 47.4 11.5 47.6 12 47.6 C 12.5 47.6 12.9 47.4 13.3 47 C 13.6 46.6 13.8 46 13.8 45.2 C 13.8 44.4 13.6 43.8 13.3 43.4 C 12.9 43 12.5 42.8 12 42.8 C 11.5 42.8 11 43 10.7 43.4 C 10.3 43.8 10.1 44.4 10.1 45.2 Z M 16.1 48.3 L 16.1 42.1 L 17.1 42.1 C 17.1 42.1 17.07 43.03 17.1 43 C 17.3 42.6 17.5 42.3 17.7 42.2 C 17.9 42 18.2 41.9 18.4 41.9 C 18.8 41.9 19.1 42.1 19.5 42.3 C 19.5 42.3 19.1 43.3 19.1 43.3 C 18.9 43.1 18.6 43 18.4 43 C 18.1 43 17.9 43.1 17.7 43.2 C 17.6 43.4 17.4 43.6 17.3 43.8 C 17.2 44.2 17.2 44.6 17.2 45.1 C 17.17 45.05 17.2 48.3 17.2 48.3 L 16.1 48.3 Z M 20.1 48.3 L 20.1 39.7 L 21.2 39.7 L 21.2 44.6 L 23.7 42.1 L 25 42.1 L 22.7 44.4 L 25.3 48.3 L 24 48.3 L 21.9 45.1 L 21.2 45.8 L 21.2 48.3 L 20.1 48.3 Z M 26.1 40.9 L 26.1 39.7 L 27.2 39.7 L 27.2 40.9 L 26.1 40.9 Z M 26.1 48.3 L 26.1 42.1 L 27.2 42.1 L 27.2 48.3 L 26.1 48.3 Z M 28.8 48.3 L 28.8 42.1 L 29.7 42.1 C 29.7 42.1 29.74 42.97 29.7 43 C 30.2 42.3 30.9 41.9 31.7 41.9 C 32.1 41.9 32.4 42 32.8 42.1 C 33.1 42.3 33.3 42.5 33.5 42.7 C 33.6 42.9 33.7 43.2 33.8 43.5 C 33.8 43.7 33.8 44 33.8 44.5 C 33.85 44.48 33.8 48.3 33.8 48.3 L 32.8 48.3 C 32.8 48.3 32.79 44.52 32.8 44.5 C 32.8 44.1 32.8 43.8 32.7 43.6 C 32.6 43.3 32.4 43.2 32.2 43.1 C 32 42.9 31.8 42.9 31.5 42.9 C 31.1 42.9 30.7 43 30.3 43.3 C 30 43.6 29.8 44.1 29.8 44.9 C 29.85 44.91 29.8 48.3 29.8 48.3 L 28.8 48.3 Z M 35.3 48.8 C 35.3 48.8 36.3 49 36.3 49 C 36.3 49.3 36.5 49.5 36.7 49.7 C 36.9 49.9 37.3 50 37.7 50 C 38.2 50 38.6 49.9 38.9 49.7 C 39.1 49.5 39.3 49.2 39.4 48.8 C 39.5 48.6 39.5 48.2 39.5 47.5 C 39 48 38.4 48.3 37.8 48.3 C 36.9 48.3 36.2 48 35.8 47.4 C 35.3 46.8 35.1 46 35.1 45.2 C 35.1 44.6 35.2 44 35.4 43.5 C 35.6 43 35.9 42.6 36.3 42.4 C 36.7 42.1 37.2 41.9 37.8 41.9 C 38.5 41.9 39.1 42.2 39.6 42.8 C 39.57 42.84 39.6 42.1 39.6 42.1 L 40.5 42.1 C 40.5 42.1 40.55 47.47 40.5 47.5 C 40.5 48.4 40.4 49.1 40.3 49.5 C 40.1 49.9 39.7 50.2 39.3 50.5 C 38.9 50.7 38.4 50.8 37.7 50.8 C 37 50.8 36.4 50.7 35.9 50.3 C 35.5 50 35.3 49.5 35.3 48.8 Z M 36.1 45.1 C 36.1 45.9 36.3 46.5 36.6 46.9 C 37 47.2 37.4 47.4 37.9 47.4 C 38.3 47.4 38.7 47.3 39.1 46.9 C 39.4 46.5 39.6 45.9 39.6 45.1 C 39.6 44.4 39.4 43.8 39.1 43.4 C 38.7 43 38.3 42.8 37.8 42.8 C 37.4 42.8 37 43 36.6 43.4 C 36.3 43.8 36.1 44.3 36.1 45.1 Z M 42.4 48.3 L 42.4 47.1 L 43.6 47.1 L 43.6 48.3 L 42.4 48.3 Z " stroke="none" fill="#010102"/>  </g>  <g id="Polygon736">    <path d="M 1 33.9 L 1 25.3 L 6.8 25.3 L 6.8 26.3 L 2.1 26.3 L 2.1 29 L 6.2 29 L 6.2 30 L 2.1 30 L 2.1 33.9 L 1 33.9 Z M 8.1 26.5 L 8.1 25.3 L 9.2 25.3 L 9.2 26.5 L 8.1 26.5 Z M 8.1 33.9 L 8.1 27.7 L 9.2 27.7 L 9.2 33.9 L 8.1 33.9 Z M 10.8 33.9 L 10.8 27.7 L 11.7 27.7 C 11.7 27.7 11.74 28.57 11.7 28.6 C 12.2 27.9 12.9 27.5 13.7 27.5 C 14.1 27.5 14.4 27.6 14.8 27.7 C 15.1 27.9 15.3 28.1 15.5 28.3 C 15.6 28.5 15.7 28.8 15.8 29.1 C 15.8 29.3 15.8 29.6 15.8 30.1 C 15.84 30.08 15.8 33.9 15.8 33.9 L 14.8 33.9 C 14.8 33.9 14.79 30.12 14.8 30.1 C 14.8 29.7 14.7 29.4 14.7 29.2 C 14.6 28.9 14.4 28.8 14.2 28.7 C 14 28.5 13.8 28.5 13.5 28.5 C 13 28.5 12.7 28.6 12.3 28.9 C 12 29.2 11.8 29.7 11.8 30.5 C 11.84 30.51 11.8 33.9 11.8 33.9 L 10.8 33.9 Z M 21.5 33.9 C 21.5 33.9 21.5 33.12 21.5 33.1 C 21.1 33.7 20.5 34.1 19.8 34.1 C 19.3 34.1 18.8 33.9 18.4 33.6 C 18 33.4 17.7 33 17.4 32.5 C 17.2 32 17.1 31.4 17.1 30.8 C 17.1 30.2 17.2 29.6 17.4 29.1 C 17.6 28.6 17.9 28.2 18.3 28 C 18.7 27.7 19.2 27.5 19.7 27.5 C 20.1 27.5 20.4 27.6 20.7 27.8 C 21 27.9 21.2 28.1 21.4 28.4 C 21.43 28.4 21.4 25.3 21.4 25.3 L 22.5 25.3 L 22.5 33.9 L 21.5 33.9 Z M 18.2 30.8 C 18.2 31.6 18.3 32.2 18.7 32.6 C 19 33 19.4 33.2 19.9 33.2 C 20.3 33.2 20.7 33 21 32.6 C 21.4 32.2 21.5 31.7 21.5 30.9 C 21.5 30 21.4 29.4 21 29 C 20.7 28.6 20.3 28.4 19.8 28.4 C 19.3 28.4 19 28.6 18.6 29 C 18.3 29.4 18.2 30 18.2 30.8 Z M 27.1 30.8 C 27.1 29.6 27.4 28.8 28 28.2 C 28.6 27.8 29.2 27.5 30 27.5 C 30.8 27.5 31.5 27.8 32.1 28.4 C 32.6 28.9 32.9 29.7 32.9 30.7 C 32.9 31.5 32.8 32.1 32.5 32.6 C 32.3 33.1 32 33.4 31.5 33.7 C 31 33.9 30.5 34.1 30 34.1 C 29.1 34.1 28.4 33.8 27.9 33.2 C 27.3 32.7 27.1 31.8 27.1 30.8 Z M 28.2 30.8 C 28.2 31.6 28.3 32.2 28.7 32.6 C 29 33 29.5 33.2 30 33.2 C 30.5 33.2 31 33 31.3 32.6 C 31.6 32.2 31.8 31.6 31.8 30.8 C 31.8 30 31.6 29.4 31.3 29 C 30.9 28.6 30.5 28.4 30 28.4 C 29.5 28.4 29 28.6 28.7 29 C 28.3 29.4 28.2 30 28.2 30.8 Z M 38.2 33.9 C 38.2 33.9 38.22 33 38.2 33 C 37.7 33.7 37.1 34.1 36.2 34.1 C 35.9 34.1 35.5 34 35.2 33.8 C 34.9 33.7 34.7 33.5 34.5 33.3 C 34.4 33.1 34.2 32.8 34.2 32.5 C 34.1 32.3 34.1 32 34.1 31.5 C 34.12 31.54 34.1 27.7 34.1 27.7 L 35.2 27.7 C 35.2 27.7 35.17 31.14 35.2 31.1 C 35.2 31.7 35.2 32.1 35.2 32.3 C 35.3 32.5 35.4 32.7 35.7 32.9 C 35.9 33.1 36.1 33.1 36.5 33.1 C 36.8 33.1 37.1 33.1 37.3 32.9 C 37.6 32.7 37.8 32.5 37.9 32.2 C 38.1 32 38.1 31.6 38.1 31 C 38.11 31.02 38.1 27.7 38.1 27.7 L 39.2 27.7 L 39.2 33.9 L 38.2 33.9 Z M 42.7 33 C 42.8 33 42.9 33 43.1 33 C 43.1 33 43.3 33.9 43.3 33.9 C 43 34 42.7 34 42.5 34 C 42.1 34 41.8 33.9 41.6 33.8 C 41.4 33.7 41.2 33.5 41.1 33.3 C 41.1 33.1 41 32.7 41 32.1 C 41.01 32.09 41 28.5 41 28.5 L 40.2 28.5 L 40.2 27.7 L 41 27.7 L 41 26.1 L 42.1 25.5 L 42.1 27.7 L 43.1 27.7 L 43.1 28.5 L 42.1 28.5 C 42.1 28.5 42.06 32.15 42.1 32.1 C 42.1 32.4 42.1 32.6 42.1 32.7 C 42.2 32.8 42.2 32.9 42.3 32.9 C 42.4 33 42.5 33 42.7 33 C 42.7 33 42.7 33 42.7 33 Z M 51.8 33.9 C 51.6 33.7 51.6 33.4 51.5 33.1 C 51.2 33.5 50.8 33.7 50.4 33.8 C 50.1 34 49.7 34.1 49.3 34.1 C 48.6 34.1 48 33.9 47.7 33.5 C 47.3 33.2 47.1 32.8 47.1 32.3 C 47.1 32 47.2 31.7 47.3 31.4 C 47.5 31.2 47.7 31 47.9 30.8 C 48.1 30.7 48.4 30.6 48.6 30.5 C 48.8 30.4 49.2 30.4 49.6 30.3 C 50.4 30.2 51.1 30.1 51.5 30 C 51.5 29.8 51.5 29.7 51.5 29.7 C 51.5 29.3 51.4 29 51.2 28.8 C 50.9 28.5 50.5 28.4 50 28.4 C 49.5 28.4 49.1 28.5 48.9 28.7 C 48.6 28.9 48.5 29.2 48.3 29.6 C 48.3 29.6 47.3 29.5 47.3 29.5 C 47.4 29 47.6 28.7 47.8 28.4 C 48 28.1 48.3 27.9 48.7 27.8 C 49.1 27.6 49.6 27.5 50.1 27.5 C 50.6 27.5 51.1 27.6 51.4 27.7 C 51.7 27.9 52 28 52.1 28.2 C 52.3 28.4 52.4 28.6 52.5 28.9 C 52.5 29.1 52.5 29.4 52.5 29.9 C 52.5 29.9 52.5 31.3 52.5 31.3 C 52.5 32.3 52.5 32.9 52.6 33.2 C 52.6 33.4 52.7 33.7 52.9 33.9 C 52.86 33.91 51.8 33.9 51.8 33.9 C 51.8 33.9 51.76 33.91 51.8 33.9 Z M 51.5 30.8 C 51.1 30.9 50.5 31.1 49.7 31.2 C 49.3 31.2 49 31.3 48.8 31.4 C 48.6 31.5 48.5 31.6 48.4 31.7 C 48.3 31.9 48.3 32.1 48.3 32.2 C 48.3 32.5 48.4 32.8 48.6 32.9 C 48.8 33.1 49.1 33.2 49.5 33.2 C 49.9 33.2 50.3 33.1 50.6 33 C 50.9 32.8 51.1 32.5 51.3 32.2 C 51.4 32 51.5 31.6 51.5 31.2 C 51.5 31.2 51.5 30.8 51.5 30.8 Z M 55.1 33.9 L 54.2 33.9 L 54.2 25.3 L 55.2 25.3 C 55.2 25.3 55.21 28.38 55.2 28.4 C 55.7 27.8 56.2 27.5 56.9 27.5 C 57.3 27.5 57.7 27.6 58 27.8 C 58.3 27.9 58.6 28.1 58.8 28.4 C 59.1 28.7 59.2 29 59.4 29.4 C 59.5 29.8 59.5 30.3 59.5 30.7 C 59.5 31.8 59.3 32.6 58.8 33.2 C 58.2 33.8 57.6 34.1 56.9 34.1 C 56.1 34.1 55.5 33.7 55.1 33.1 C 55.13 33.13 55.1 33.9 55.1 33.9 Z M 55.1 30.8 C 55.1 31.5 55.2 32 55.4 32.4 C 55.8 32.9 56.2 33.2 56.8 33.2 C 57.2 33.2 57.6 33 58 32.6 C 58.3 32.2 58.5 31.6 58.5 30.8 C 58.5 30 58.3 29.4 58 29 C 57.7 28.6 57.3 28.4 56.8 28.4 C 56.4 28.4 56 28.6 55.6 29 C 55.3 29.4 55.1 30 55.1 30.8 Z M 60.4 30.8 C 60.4 29.6 60.8 28.8 61.4 28.2 C 61.9 27.8 62.6 27.5 63.4 27.5 C 64.2 27.5 64.9 27.8 65.5 28.4 C 66 28.9 66.3 29.7 66.3 30.7 C 66.3 31.5 66.1 32.1 65.9 32.6 C 65.7 33.1 65.3 33.4 64.9 33.7 C 64.4 33.9 63.9 34.1 63.4 34.1 C 62.5 34.1 61.8 33.8 61.2 33.2 C 60.7 32.7 60.4 31.8 60.4 30.8 Z M 61.5 30.8 C 61.5 31.6 61.7 32.2 62 32.6 C 62.4 33 62.8 33.2 63.4 33.2 C 63.9 33.2 64.3 33 64.7 32.6 C 65 32.2 65.2 31.6 65.2 30.8 C 65.2 30 65 29.4 64.7 29 C 64.3 28.6 63.9 28.4 63.4 28.4 C 62.8 28.4 62.4 28.6 62 29 C 61.7 29.4 61.5 30 61.5 30.8 Z M 71.6 33.9 C 71.6 33.9 71.58 33 71.6 33 C 71.1 33.7 70.4 34.1 69.6 34.1 C 69.2 34.1 68.9 34 68.6 33.8 C 68.3 33.7 68 33.5 67.9 33.3 C 67.7 33.1 67.6 32.8 67.5 32.5 C 67.5 32.3 67.5 32 67.5 31.5 C 67.48 31.54 67.5 27.7 67.5 27.7 L 68.5 27.7 C 68.5 27.7 68.54 31.14 68.5 31.1 C 68.5 31.7 68.6 32.1 68.6 32.3 C 68.7 32.5 68.8 32.7 69 32.9 C 69.2 33.1 69.5 33.1 69.8 33.1 C 70.1 33.1 70.4 33.1 70.7 32.9 C 71 32.7 71.2 32.5 71.3 32.2 C 71.4 32 71.5 31.6 71.5 31 C 71.47 31.02 71.5 27.7 71.5 27.7 L 72.5 27.7 L 72.5 33.9 L 71.6 33.9 Z M 76 33 C 76.1 33 76.3 33 76.5 33 C 76.5 33 76.6 33.9 76.6 33.9 C 76.3 34 76.1 34 75.8 34 C 75.5 34 75.2 33.9 74.9 33.8 C 74.7 33.7 74.6 33.5 74.5 33.3 C 74.4 33.1 74.4 32.7 74.4 32.1 C 74.37 32.09 74.4 28.5 74.4 28.5 L 73.6 28.5 L 73.6 27.7 L 74.4 27.7 L 74.4 26.1 L 75.4 25.5 L 75.4 27.7 L 76.5 27.7 L 76.5 28.5 L 75.4 28.5 C 75.4 28.5 75.42 32.15 75.4 32.1 C 75.4 32.4 75.4 32.6 75.5 32.7 C 75.5 32.8 75.6 32.9 75.7 32.9 C 75.7 33 75.9 33 76 33 C 76 33 76 33 76 33 Z M 80.5 30.8 C 80.5 29.6 80.8 28.8 81.4 28.2 C 82 27.8 82.6 27.5 83.4 27.5 C 84.2 27.5 84.9 27.8 85.5 28.4 C 86 28.9 86.3 29.7 86.3 30.7 C 86.3 31.5 86.2 32.1 85.9 32.6 C 85.7 33.1 85.3 33.4 84.9 33.7 C 84.4 33.9 83.9 34.1 83.4 34.1 C 82.5 34.1 81.8 33.8 81.3 33.2 C 80.7 32.7 80.5 31.8 80.5 30.8 Z M 81.5 30.8 C 81.5 31.6 81.7 32.2 82.1 32.6 C 82.4 33 82.8 33.2 83.4 33.2 C 83.9 33.2 84.3 33 84.7 32.6 C 85 32.2 85.2 31.6 85.2 30.8 C 85.2 30 85 29.4 84.7 29 C 84.3 28.6 83.9 28.4 83.4 28.4 C 82.8 28.4 82.4 28.6 82.1 29 C 81.7 29.4 81.5 30 81.5 30.8 Z M 91.6 33.9 C 91.6 33.9 91.6 33 91.6 33 C 91.1 33.7 90.5 34.1 89.6 34.1 C 89.3 34.1 88.9 34 88.6 33.8 C 88.3 33.7 88 33.5 87.9 33.3 C 87.7 33.1 87.6 32.8 87.6 32.5 C 87.5 32.3 87.5 32 87.5 31.5 C 87.5 31.54 87.5 27.7 87.5 27.7 L 88.6 27.7 C 88.6 27.7 88.55 31.14 88.6 31.1 C 88.6 31.7 88.6 32.1 88.6 32.3 C 88.7 32.5 88.8 32.7 89 32.9 C 89.3 33.1 89.5 33.1 89.8 33.1 C 90.2 33.1 90.4 33.1 90.7 32.9 C 91 32.7 91.2 32.5 91.3 32.2 C 91.4 32 91.5 31.6 91.5 31 C 91.49 31.02 91.5 27.7 91.5 27.7 L 92.5 27.7 L 92.5 33.9 L 91.6 33.9 Z M 94.2 33.9 L 94.2 27.7 L 95.1 27.7 C 95.1 27.7 95.13 28.63 95.1 28.6 C 95.4 28.2 95.6 27.9 95.8 27.8 C 96 27.6 96.2 27.5 96.5 27.5 C 96.8 27.5 97.2 27.7 97.6 27.9 C 97.6 27.9 97.2 28.9 97.2 28.9 C 96.9 28.7 96.7 28.6 96.4 28.6 C 96.2 28.6 96 28.7 95.8 28.8 C 95.6 29 95.5 29.2 95.4 29.4 C 95.3 29.8 95.2 30.2 95.2 30.7 C 95.24 30.65 95.2 33.9 95.2 33.9 L 94.2 33.9 Z M 101.1 32.1 C 101.1 32.1 102.1 31.9 102.1 31.9 C 102.2 32.3 102.4 32.6 102.6 32.8 C 102.9 33.1 103.3 33.2 103.8 33.2 C 104.2 33.2 104.6 33.1 104.8 32.9 C 105.1 32.7 105.2 32.5 105.2 32.2 C 105.2 32 105.1 31.8 104.9 31.6 C 104.7 31.5 104.4 31.4 103.8 31.3 C 103 31.1 102.5 30.9 102.2 30.8 C 101.9 30.6 101.7 30.4 101.5 30.2 C 101.4 29.9 101.3 29.6 101.3 29.3 C 101.3 29.1 101.3 28.8 101.5 28.6 C 101.6 28.3 101.8 28.1 102 28 C 102.2 27.9 102.4 27.8 102.7 27.7 C 102.9 27.6 103.2 27.5 103.6 27.5 C 104.1 27.5 104.5 27.6 104.9 27.8 C 105.2 27.9 105.5 28.1 105.7 28.3 C 105.8 28.6 106 28.9 106 29.3 C 106 29.3 105 29.4 105 29.4 C 105 29.1 104.8 28.9 104.6 28.7 C 104.4 28.5 104.1 28.4 103.6 28.4 C 103.2 28.4 102.8 28.5 102.6 28.7 C 102.4 28.8 102.3 29 102.3 29.2 C 102.3 29.4 102.3 29.5 102.4 29.6 C 102.5 29.7 102.6 29.8 102.8 29.9 C 102.9 29.9 103.2 30 103.8 30.1 C 104.5 30.3 105 30.5 105.3 30.6 C 105.6 30.8 105.9 30.9 106 31.2 C 106.2 31.4 106.3 31.7 106.3 32.1 C 106.3 32.4 106.2 32.8 106 33.1 C 105.8 33.4 105.5 33.6 105.1 33.8 C 104.7 34 104.3 34.1 103.8 34.1 C 103 34.1 102.3 33.9 101.9 33.5 C 101.5 33.2 101.2 32.7 101.1 32.1 Z M 111.8 31.9 C 111.8 31.9 112.9 32 112.9 32 C 112.7 32.7 112.4 33.2 111.9 33.5 C 111.5 33.9 110.9 34.1 110.1 34.1 C 109.2 34.1 108.5 33.8 108 33.2 C 107.4 32.6 107.2 31.9 107.2 30.9 C 107.2 29.8 107.4 29 108 28.4 C 108.5 27.8 109.2 27.5 110.1 27.5 C 110.9 27.5 111.6 27.8 112.1 28.4 C 112.6 29 112.9 29.8 112.9 30.8 C 112.9 30.8 112.9 30.9 112.9 31.1 C 112.9 31.1 108.3 31.1 108.3 31.1 C 108.3 31.8 108.5 32.3 108.8 32.6 C 109.2 33 109.6 33.2 110.1 33.2 C 110.5 33.2 110.9 33.1 111.1 32.9 C 111.4 32.7 111.6 32.4 111.8 31.9 Z M 108.3 30.2 C 108.3 30.2 111.8 30.2 111.8 30.2 C 111.8 29.7 111.6 29.3 111.4 29 C 111.1 28.6 110.6 28.4 110.1 28.4 C 109.6 28.4 109.2 28.6 108.9 28.9 C 108.5 29.2 108.4 29.7 108.3 30.2 Z M 114.2 33.9 L 114.2 27.7 L 115.1 27.7 C 115.1 27.7 115.14 28.63 115.1 28.6 C 115.4 28.2 115.6 27.9 115.8 27.8 C 116 27.6 116.2 27.5 116.5 27.5 C 116.8 27.5 117.2 27.7 117.6 27.9 C 117.6 27.9 117.2 28.9 117.2 28.9 C 116.9 28.7 116.7 28.6 116.4 28.6 C 116.2 28.6 116 28.7 115.8 28.8 C 115.6 29 115.5 29.2 115.4 29.4 C 115.3 29.8 115.2 30.2 115.2 30.7 C 115.24 30.65 115.2 33.9 115.2 33.9 L 114.2 33.9 Z M 119.9 33.9 L 117.6 27.7 L 118.7 27.7 C 118.7 27.7 120.01 31.41 120 31.4 C 120.2 31.8 120.3 32.2 120.4 32.7 C 120.5 32.3 120.6 31.9 120.8 31.5 C 120.8 31.48 122.2 27.7 122.2 27.7 L 123.3 27.7 L 120.9 33.9 L 119.9 33.9 Z M 124.2 26.5 L 124.2 25.3 L 125.3 25.3 L 125.3 26.5 L 124.2 26.5 Z M 124.2 33.9 L 124.2 27.7 L 125.3 27.7 L 125.3 33.9 L 124.2 33.9 Z M 130.9 31.6 C 130.9 31.6 132 31.8 132 31.8 C 131.8 32.5 131.6 33 131.1 33.4 C 130.6 33.8 130 34.1 129.4 34.1 C 128.5 34.1 127.8 33.8 127.3 33.2 C 126.8 32.7 126.5 31.9 126.5 30.8 C 126.5 30.2 126.7 29.6 126.9 29.1 C 127.1 28.6 127.4 28.2 127.9 27.9 C 128.3 27.7 128.8 27.5 129.4 27.5 C 130.1 27.5 130.6 27.7 131 28.1 C 131.5 28.4 131.7 28.9 131.9 29.5 C 131.9 29.5 130.8 29.7 130.8 29.7 C 130.7 29.3 130.6 28.9 130.3 28.7 C 130.1 28.5 129.8 28.4 129.4 28.4 C 128.9 28.4 128.5 28.6 128.1 29 C 127.8 29.4 127.6 30 127.6 30.8 C 127.6 31.6 127.8 32.2 128.1 32.6 C 128.4 33 128.8 33.2 129.4 33.2 C 129.8 33.2 130.1 33.1 130.4 32.8 C 130.7 32.5 130.8 32.2 130.9 31.6 Z M 137.1 31.9 C 137.1 31.9 138.2 32 138.2 32 C 138 32.7 137.7 33.2 137.3 33.5 C 136.8 33.9 136.2 34.1 135.5 34.1 C 134.6 34.1 133.8 33.8 133.3 33.2 C 132.8 32.6 132.5 31.9 132.5 30.9 C 132.5 29.8 132.8 29 133.3 28.4 C 133.9 27.8 134.6 27.5 135.4 27.5 C 136.2 27.5 136.9 27.8 137.5 28.4 C 138 29 138.2 29.8 138.2 30.8 C 138.2 30.8 138.2 30.9 138.2 31.1 C 138.2 31.1 133.6 31.1 133.6 31.1 C 133.6 31.8 133.8 32.3 134.2 32.6 C 134.5 33 135 33.2 135.5 33.2 C 135.9 33.2 136.2 33.1 136.5 32.9 C 136.7 32.7 137 32.4 137.1 31.9 Z M 133.7 30.2 C 133.7 30.2 137.1 30.2 137.1 30.2 C 137.1 29.7 137 29.3 136.7 29 C 136.4 28.6 136 28.4 135.4 28.4 C 134.9 28.4 134.5 28.6 134.2 28.9 C 133.9 29.2 133.7 29.7 133.7 30.2 Z M 139.1 32.1 C 139.1 32.1 140.2 31.9 140.2 31.9 C 140.2 32.3 140.4 32.6 140.6 32.8 C 140.9 33.1 141.3 33.2 141.8 33.2 C 142.3 33.2 142.6 33.1 142.8 32.9 C 143.1 32.7 143.2 32.5 143.2 32.2 C 143.2 32 143.1 31.8 142.9 31.6 C 142.7 31.5 142.4 31.4 141.8 31.3 C 141 31.1 140.5 30.9 140.2 30.8 C 139.9 30.6 139.7 30.4 139.5 30.2 C 139.4 29.9 139.3 29.6 139.3 29.3 C 139.3 29.1 139.4 28.8 139.5 28.6 C 139.6 28.3 139.8 28.1 140 28 C 140.2 27.9 140.4 27.8 140.7 27.7 C 141 27.6 141.3 27.5 141.6 27.5 C 142.1 27.5 142.5 27.6 142.9 27.8 C 143.2 27.9 143.5 28.1 143.7 28.3 C 143.9 28.6 144 28.9 144 29.3 C 144 29.3 143 29.4 143 29.4 C 143 29.1 142.8 28.9 142.6 28.7 C 142.4 28.5 142.1 28.4 141.7 28.4 C 141.2 28.4 140.8 28.5 140.6 28.7 C 140.4 28.8 140.3 29 140.3 29.2 C 140.3 29.4 140.4 29.5 140.4 29.6 C 140.5 29.7 140.7 29.8 140.8 29.9 C 140.9 29.9 141.3 30 141.8 30.1 C 142.5 30.3 143 30.5 143.3 30.6 C 143.6 30.8 143.9 30.9 144 31.2 C 144.2 31.4 144.3 31.7 144.3 32.1 C 144.3 32.4 144.2 32.8 144 33.1 C 143.8 33.4 143.5 33.6 143.1 33.8 C 142.7 34 142.3 34.1 141.8 34.1 C 141 34.1 140.3 33.9 139.9 33.5 C 139.5 33.2 139.2 32.7 139.1 32.1 Z M 145.8 33.9 L 145.8 32.7 L 147 32.7 C 147 32.7 147.01 33.91 147 33.9 C 147 34.4 146.9 34.7 146.8 35 C 146.6 35.3 146.4 35.5 146 35.6 C 146 35.6 145.7 35.2 145.7 35.2 C 146 35.1 146.1 34.9 146.2 34.7 C 146.3 34.5 146.4 34.3 146.4 33.9 C 146.41 33.91 145.8 33.9 145.8 33.9 Z M 154 33 C 154.2 33 154.3 33 154.5 33 C 154.5 33 154.7 33.9 154.7 33.9 C 154.4 34 154.1 34 153.9 34 C 153.5 34 153.2 33.9 153 33.8 C 152.8 33.7 152.6 33.5 152.5 33.3 C 152.4 33.1 152.4 32.7 152.4 32.1 C 152.4 32.09 152.4 28.5 152.4 28.5 L 151.6 28.5 L 151.6 27.7 L 152.4 27.7 L 152.4 26.1 L 153.4 25.5 L 153.4 27.7 L 154.5 27.7 L 154.5 28.5 L 153.4 28.5 C 153.4 28.5 153.45 32.15 153.4 32.1 C 153.4 32.4 153.5 32.6 153.5 32.7 C 153.5 32.8 153.6 32.9 153.7 32.9 C 153.8 33 153.9 33 154 33 C 154 33 154 33 154 33 Z M 159.8 31.9 C 159.8 31.9 160.9 32 160.9 32 C 160.7 32.7 160.4 33.2 159.9 33.5 C 159.5 33.9 158.9 34.1 158.2 34.1 C 157.2 34.1 156.5 33.8 156 33.2 C 155.5 32.6 155.2 31.9 155.2 30.9 C 155.2 29.8 155.5 29 156 28.4 C 156.5 27.8 157.2 27.5 158.1 27.5 C 158.9 27.5 159.6 27.8 160.1 28.4 C 160.7 29 160.9 29.8 160.9 30.8 C 160.9 30.8 160.9 30.9 160.9 31.1 C 160.9 31.1 156.3 31.1 156.3 31.1 C 156.3 31.8 156.5 32.3 156.9 32.6 C 157.2 33 157.6 33.2 158.2 33.2 C 158.5 33.2 158.9 33.1 159.1 32.9 C 159.4 32.7 159.6 32.4 159.8 31.9 Z M 156.3 30.2 C 156.3 30.2 159.8 30.2 159.8 30.2 C 159.8 29.7 159.6 29.3 159.4 29 C 159.1 28.6 158.6 28.4 158.1 28.4 C 157.6 28.4 157.2 28.6 156.9 28.9 C 156.6 29.2 156.4 29.7 156.3 30.2 Z M 162.2 33.9 L 162.2 27.7 L 163.2 27.7 C 163.2 27.7 163.16 28.57 163.2 28.6 C 163.6 27.9 164.3 27.5 165.1 27.5 C 165.5 27.5 165.9 27.6 166.2 27.7 C 166.5 27.9 166.7 28.1 166.9 28.3 C 167 28.5 167.1 28.8 167.2 29.1 C 167.2 29.3 167.3 29.6 167.3 30.1 C 167.27 30.08 167.3 33.9 167.3 33.9 L 166.2 33.9 C 166.2 33.9 166.21 30.12 166.2 30.1 C 166.2 29.7 166.2 29.4 166.1 29.2 C 166 28.9 165.9 28.8 165.7 28.7 C 165.4 28.5 165.2 28.5 164.9 28.5 C 164.5 28.5 164.1 28.6 163.8 28.9 C 163.4 29.2 163.3 29.7 163.3 30.5 C 163.27 30.51 163.3 33.9 163.3 33.9 L 162.2 33.9 Z M 173.1 31.9 C 173.1 31.9 174.2 32 174.2 32 C 174.1 32.7 173.7 33.2 173.3 33.5 C 172.8 33.9 172.2 34.1 171.5 34.1 C 170.6 34.1 169.9 33.8 169.3 33.2 C 168.8 32.6 168.5 31.9 168.5 30.9 C 168.5 29.8 168.8 29 169.3 28.4 C 169.9 27.8 170.6 27.5 171.4 27.5 C 172.3 27.5 173 27.8 173.5 28.4 C 174 29 174.3 29.8 174.3 30.8 C 174.3 30.8 174.3 30.9 174.3 31.1 C 174.3 31.1 169.6 31.1 169.6 31.1 C 169.7 31.8 169.9 32.3 170.2 32.6 C 170.6 33 171 33.2 171.5 33.2 C 171.9 33.2 172.2 33.1 172.5 32.9 C 172.8 32.7 173 32.4 173.1 31.9 Z M 169.7 30.2 C 169.7 30.2 173.2 30.2 173.2 30.2 C 173.1 29.7 173 29.3 172.8 29 C 172.4 28.6 172 28.4 171.5 28.4 C 171 28.4 170.6 28.6 170.2 28.9 C 169.9 29.2 169.7 29.7 169.7 30.2 Z M 177.4 33 C 177.5 33 177.7 33 177.9 33 C 177.9 33 178 33.9 178 33.9 C 177.7 34 177.5 34 177.2 34 C 176.8 34 176.5 33.9 176.3 33.8 C 176.1 33.7 176 33.5 175.9 33.3 C 175.8 33.1 175.8 32.7 175.8 32.1 C 175.75 32.09 175.8 28.5 175.8 28.5 L 175 28.5 L 175 27.7 L 175.8 27.7 L 175.8 26.1 L 176.8 25.5 L 176.8 27.7 L 177.9 27.7 L 177.9 28.5 L 176.8 28.5 C 176.8 28.5 176.8 32.15 176.8 32.1 C 176.8 32.4 176.8 32.6 176.9 32.7 C 176.9 32.8 177 32.9 177 32.9 C 177.1 33 177.2 33 177.4 33 C 177.4 33 177.4 33 177.4 33 Z M 178.5 32.1 C 178.5 32.1 179.5 31.9 179.5 31.9 C 179.6 32.3 179.7 32.6 180 32.8 C 180.3 33.1 180.6 33.2 181.1 33.2 C 181.6 33.2 182 33.1 182.2 32.9 C 182.4 32.7 182.6 32.5 182.6 32.2 C 182.6 32 182.5 31.8 182.2 31.6 C 182.1 31.5 181.7 31.4 181.2 31.3 C 180.4 31.1 179.9 30.9 179.6 30.8 C 179.3 30.6 179 30.4 178.9 30.2 C 178.7 29.9 178.6 29.6 178.6 29.3 C 178.6 29.1 178.7 28.8 178.8 28.6 C 179 28.3 179.1 28.1 179.4 28 C 179.5 27.9 179.7 27.8 180 27.7 C 180.3 27.6 180.6 27.5 180.9 27.5 C 181.4 27.5 181.9 27.6 182.2 27.8 C 182.6 27.9 182.9 28.1 183 28.3 C 183.2 28.6 183.3 28.9 183.4 29.3 C 183.4 29.3 182.4 29.4 182.4 29.4 C 182.3 29.1 182.2 28.9 182 28.7 C 181.7 28.5 181.4 28.4 181 28.4 C 180.5 28.4 180.2 28.5 180 28.7 C 179.8 28.8 179.7 29 179.7 29.2 C 179.7 29.4 179.7 29.5 179.8 29.6 C 179.9 29.7 180 29.8 180.2 29.9 C 180.3 29.9 180.6 30 181.1 30.1 C 181.9 30.3 182.4 30.5 182.7 30.6 C 183 30.8 183.2 30.9 183.4 31.2 C 183.6 31.4 183.6 31.7 183.6 32.1 C 183.6 32.4 183.5 32.8 183.3 33.1 C 183.1 33.4 182.8 33.6 182.4 33.8 C 182.1 34 181.6 34.1 181.1 34.1 C 180.3 34.1 179.7 33.9 179.3 33.5 C 178.9 33.2 178.6 32.7 178.5 32.1 Z M 192.5 33.9 C 192.4 33.7 192.3 33.4 192.3 33.1 C 191.9 33.5 191.5 33.7 191.2 33.8 C 190.8 34 190.4 34.1 190 34.1 C 189.3 34.1 188.8 33.9 188.4 33.5 C 188.1 33.2 187.9 32.8 187.9 32.3 C 187.9 32 187.9 31.7 188.1 31.4 C 188.2 31.2 188.4 31 188.6 30.8 C 188.8 30.7 189.1 30.6 189.4 30.5 C 189.6 30.4 189.9 30.4 190.3 30.3 C 191.2 30.2 191.8 30.1 192.2 30 C 192.2 29.8 192.2 29.7 192.2 29.7 C 192.2 29.3 192.1 29 191.9 28.8 C 191.6 28.5 191.2 28.4 190.7 28.4 C 190.2 28.4 189.8 28.5 189.6 28.7 C 189.4 28.9 189.2 29.2 189.1 29.6 C 189.1 29.6 188.1 29.5 188.1 29.5 C 188.1 29 188.3 28.7 188.5 28.4 C 188.7 28.1 189 27.9 189.4 27.8 C 189.9 27.6 190.3 27.5 190.9 27.5 C 191.4 27.5 191.8 27.6 192.2 27.7 C 192.5 27.9 192.7 28 192.9 28.2 C 193 28.4 193.2 28.6 193.2 28.9 C 193.2 29.1 193.3 29.4 193.3 29.9 C 193.3 29.9 193.3 31.3 193.3 31.3 C 193.3 32.3 193.3 32.9 193.3 33.2 C 193.4 33.4 193.5 33.7 193.6 33.9 C 193.6 33.91 192.5 33.9 192.5 33.9 C 192.5 33.9 192.5 33.91 192.5 33.9 Z M 192.2 30.8 C 191.8 30.9 191.2 31.1 190.5 31.2 C 190 31.2 189.7 31.3 189.6 31.4 C 189.4 31.5 189.2 31.6 189.1 31.7 C 189 31.9 189 32.1 189 32.2 C 189 32.5 189.1 32.8 189.3 32.9 C 189.5 33.1 189.8 33.2 190.2 33.2 C 190.7 33.2 191 33.1 191.3 33 C 191.6 32.8 191.9 32.5 192 32.2 C 192.1 32 192.2 31.6 192.2 31.2 C 192.2 31.2 192.2 30.8 192.2 30.8 Z M 194.9 33.9 L 194.9 27.7 L 195.8 27.7 C 195.8 27.7 195.85 28.57 195.8 28.6 C 196.3 27.9 197 27.5 197.8 27.5 C 198.2 27.5 198.5 27.6 198.9 27.7 C 199.2 27.9 199.4 28.1 199.6 28.3 C 199.7 28.5 199.8 28.8 199.9 29.1 C 199.9 29.3 200 29.6 200 30.1 C 199.96 30.08 200 33.9 200 33.9 L 198.9 33.9 C 198.9 33.9 198.9 30.12 198.9 30.1 C 198.9 29.7 198.9 29.4 198.8 29.2 C 198.7 28.9 198.6 28.8 198.3 28.7 C 198.1 28.5 197.9 28.5 197.6 28.5 C 197.2 28.5 196.8 28.6 196.4 28.9 C 196.1 29.2 196 29.7 196 30.5 C 195.96 30.51 196 33.9 196 33.9 L 194.9 33.9 Z M 205.6 33.9 C 205.6 33.9 205.61 33.12 205.6 33.1 C 205.2 33.7 204.6 34.1 203.9 34.1 C 203.4 34.1 202.9 33.9 202.5 33.6 C 202.1 33.4 201.8 33 201.5 32.5 C 201.3 32 201.2 31.4 201.2 30.8 C 201.2 30.2 201.3 29.6 201.5 29.1 C 201.7 28.6 202 28.2 202.4 28 C 202.8 27.7 203.3 27.5 203.8 27.5 C 204.2 27.5 204.5 27.6 204.8 27.8 C 205.1 27.9 205.4 28.1 205.5 28.4 C 205.54 28.4 205.5 25.3 205.5 25.3 L 206.6 25.3 L 206.6 33.9 L 205.6 33.9 Z M 202.3 30.8 C 202.3 31.6 202.4 32.2 202.8 32.6 C 203.1 33 203.5 33.2 204 33.2 C 204.4 33.2 204.8 33 205.1 32.6 C 205.5 32.2 205.6 31.7 205.6 30.9 C 205.6 30 205.5 29.4 205.1 29 C 204.8 28.6 204.4 28.4 203.9 28.4 C 203.5 28.4 203.1 28.6 202.7 29 C 202.4 29.4 202.3 30 202.3 30.8 Z M 212.7 33.9 L 210.8 27.7 L 211.9 27.7 L 212.9 31.3 C 212.9 31.3 213.28 32.62 213.3 32.6 C 213.3 32.5 213.4 32.1 213.6 31.3 C 213.6 31.33 214.6 27.7 214.6 27.7 L 215.7 27.7 L 216.6 31.3 L 216.9 32.5 L 217.3 31.3 L 218.3 27.7 L 219.4 27.7 L 217.4 33.9 L 216.3 33.9 L 215.3 30.2 L 215.1 29.1 L 213.8 33.9 L 212.7 33.9 Z M 224.5 33.9 C 224.4 33.7 224.3 33.4 224.3 33.1 C 223.9 33.5 223.5 33.7 223.2 33.8 C 222.8 34 222.4 34.1 222 34.1 C 221.3 34.1 220.8 33.9 220.4 33.5 C 220.1 33.2 219.9 32.8 219.9 32.3 C 219.9 32 220 31.7 220.1 31.4 C 220.2 31.2 220.4 31 220.6 30.8 C 220.9 30.7 221.1 30.6 221.4 30.5 C 221.6 30.4 221.9 30.4 222.3 30.3 C 223.2 30.2 223.8 30.1 224.2 30 C 224.2 29.8 224.2 29.7 224.2 29.7 C 224.2 29.3 224.1 29 223.9 28.8 C 223.7 28.5 223.3 28.4 222.7 28.4 C 222.2 28.4 221.9 28.5 221.6 28.7 C 221.4 28.9 221.2 29.2 221.1 29.6 C 221.1 29.6 220.1 29.5 220.1 29.5 C 220.2 29 220.3 28.7 220.5 28.4 C 220.7 28.1 221.1 27.9 221.5 27.8 C 221.9 27.6 222.3 27.5 222.9 27.5 C 223.4 27.5 223.8 27.6 224.2 27.7 C 224.5 27.9 224.7 28 224.9 28.2 C 225.1 28.4 225.2 28.6 225.2 28.9 C 225.3 29.1 225.3 29.4 225.3 29.9 C 225.3 29.9 225.3 31.3 225.3 31.3 C 225.3 32.3 225.3 32.9 225.4 33.2 C 225.4 33.4 225.5 33.7 225.6 33.9 C 225.62 33.91 224.5 33.9 224.5 33.9 C 224.5 33.9 224.52 33.91 224.5 33.9 Z M 224.2 30.8 C 223.8 30.9 223.3 31.1 222.5 31.2 C 222.1 31.2 221.8 31.3 221.6 31.4 C 221.4 31.5 221.3 31.6 221.2 31.7 C 221.1 31.9 221 32.1 221 32.2 C 221 32.5 221.1 32.8 221.3 32.9 C 221.5 33.1 221.9 33.2 222.3 33.2 C 222.7 33.2 223 33.1 223.4 33 C 223.7 32.8 223.9 32.5 224.1 32.2 C 224.2 32 224.2 31.6 224.2 31.2 C 224.2 31.2 224.2 30.8 224.2 30.8 Z M 227.6 36.4 C 227.4 36.4 227.1 36.4 226.9 36.3 C 226.9 36.3 226.8 35.3 226.8 35.3 C 227 35.4 227.2 35.4 227.4 35.4 C 227.6 35.4 227.8 35.4 227.9 35.3 C 228.1 35.2 228.2 35.1 228.3 35 C 228.3 34.9 228.4 34.6 228.6 34.2 C 228.6 34.1 228.6 34 228.7 33.9 C 228.69 33.92 226.3 27.7 226.3 27.7 L 227.5 27.7 C 227.5 27.7 228.76 31.29 228.8 31.3 C 228.9 31.7 229.1 32.2 229.2 32.7 C 229.3 32.2 229.5 31.8 229.6 31.3 C 229.64 31.31 231 27.7 231 27.7 L 232 27.7 C 232 27.7 229.66 34.02 229.7 34 C 229.4 34.7 229.2 35.2 229.1 35.4 C 228.9 35.8 228.7 36 228.4 36.2 C 228.2 36.4 227.9 36.4 227.6 36.4 C 227.6 36.4 227.6 36.4 227.6 36.4 Z M 235.9 30.8 C 235.9 29.6 236.2 28.8 236.8 28.2 C 237.4 27.8 238 27.5 238.8 27.5 C 239.6 27.5 240.3 27.8 240.9 28.4 C 241.4 28.9 241.7 29.7 241.7 30.7 C 241.7 31.5 241.6 32.1 241.3 32.6 C 241.1 33.1 240.7 33.4 240.3 33.7 C 239.8 33.9 239.3 34.1 238.8 34.1 C 237.9 34.1 237.2 33.8 236.7 33.2 C 236.1 32.7 235.9 31.8 235.9 30.8 Z M 236.9 30.8 C 236.9 31.6 237.1 32.2 237.5 32.6 C 237.8 33 238.3 33.2 238.8 33.2 C 239.3 33.2 239.7 33 240.1 32.6 C 240.4 32.2 240.6 31.6 240.6 30.8 C 240.6 30 240.4 29.4 240.1 29 C 239.7 28.6 239.3 28.4 238.8 28.4 C 238.3 28.4 237.8 28.6 237.5 29 C 237.1 29.4 236.9 30 236.9 30.8 Z M 243.2 33.9 L 243.2 28.5 L 242.3 28.5 L 242.3 27.7 L 243.2 27.7 C 243.2 27.7 243.18 27.03 243.2 27 C 243.2 26.6 243.2 26.3 243.3 26.1 C 243.4 25.8 243.6 25.6 243.8 25.4 C 244.1 25.3 244.4 25.2 244.9 25.2 C 245.2 25.2 245.5 25.2 245.9 25.3 C 245.9 25.3 245.7 26.2 245.7 26.2 C 245.5 26.2 245.3 26.1 245.1 26.1 C 244.8 26.1 244.6 26.2 244.4 26.3 C 244.3 26.5 244.2 26.7 244.2 27.1 C 244.23 27.11 244.2 27.7 244.2 27.7 L 245.4 27.7 L 245.4 28.5 L 244.2 28.5 L 244.2 33.9 L 243.2 33.9 Z " stroke="none" fill="#010102"/>  </g>  <g id="Polygon735">    <path d="M 6.3 0.8 L 11.8 13.1 L 10.4 13.1 L 8.7 9.3 L 3.1 9.3 L 1.4 13.1 L 0 13.1 L 5.3 0.8 L 6.3 0.8 Z M 3.6 8.1 L 8.1 8.1 L 5.8 2.8 L 3.6 8.1 Z M 16.3 0.8 C 18.6 0.8 20.1 2 20.1 4 C 20.1 5.3 19.4 6.2 18.1 6.7 C 20 6.9 21.2 8.2 21.2 9.8 C 21.2 12.1 19.2 13.1 16.9 13.1 C 16.92 13.12 13.2 13.1 13.2 13.1 L 13.2 0.8 C 13.2 0.8 16.34 0.85 16.3 0.8 Z M 14.5 6.3 C 14.5 6.3 15.86 6.3 15.9 6.3 C 17.9 6.3 18.7 5.4 18.7 4.1 C 18.7 2.7 17.9 2 16.1 2 C 16.07 2.03 14.5 2 14.5 2 L 14.5 6.3 Z M 16.7 11.9 C 18.6 11.9 19.8 11.3 19.8 9.7 C 19.8 8.3 18.8 7.5 16.5 7.5 C 16.47 7.47 14.5 7.5 14.5 7.5 L 14.5 11.9 C 14.5 11.9 16.67 11.93 16.7 11.9 Z M 35.4 6.9 C 35.4 10.4 32.9 13.3 28.8 13.3 C 25 13.3 22.4 10.4 22.4 7.1 C 22.4 3.6 24.9 0.7 28.9 0.7 C 32.8 0.7 35.4 3.5 35.4 6.9 Z M 23.8 7 C 23.8 9.9 26.1 12 28.8 12 C 32.5 12 34 9.2 34 7 C 34 4.5 32.1 2 28.9 2 C 25.6 2 23.8 4.5 23.8 7 Z M 38.8 0.8 C 38.8 0.8 38.79 7.92 38.8 7.9 C 38.8 10.6 40.1 12.1 42.6 12.1 C 45.1 12.1 46.4 10.6 46.4 7.9 C 46.39 7.92 46.4 0.8 46.4 0.8 L 47.7 0.8 C 47.7 0.8 47.74 7.92 47.7 7.9 C 47.7 11.1 46 13.3 42.6 13.3 C 39.2 13.3 37.4 11.4 37.4 7.9 C 37.44 7.92 37.4 0.8 37.4 0.8 L 38.8 0.8 Z M 59.3 0.8 L 59.3 2 L 54.9 2 L 54.9 13.1 L 53.6 13.1 L 53.6 2 L 49.2 2 L 49.2 0.8 L 59.3 0.8 Z " stroke="none" fill="#010102"/>  </g></svg>