<?xml version="1.0" standalone="no"?><!DOCTYPE svg PUBLIC "-//W3C//DTD SVG 1.1//EN" "http://www.w3.org/Graphics/SVG/1.1/DTD/svg11.dtd"><svg xmlns="http://www.w3.org/2000/svg" version="1.1" width="41.1px" height="20.5px" viewBox="0 -4 41.1 20.5" style="top:-4px">  <desc>Survey</desc>  <defs/>  <g id="Polygon2389">    <path d="M 2.4 6 C 2.4 6 3.5 5.9 3.5 5.9 C 3.5 6.3 3.7 6.7 3.8 6.9 C 4 7.2 4.3 7.4 4.7 7.6 C 5.1 7.8 5.5 7.9 6 7.9 C 6.5 7.9 6.8 7.8 7.2 7.7 C 7.5 7.5 7.8 7.4 7.9 7.1 C 8.1 6.9 8.2 6.7 8.2 6.4 C 8.2 6.1 8.1 5.9 7.9 5.7 C 7.8 5.5 7.5 5.3 7.1 5.2 C 6.9 5.1 6.4 5 5.6 4.8 C 4.8 4.6 4.3 4.4 4 4.2 C 3.6 4 3.2 3.8 3 3.4 C 2.8 3.1 2.7 2.8 2.7 2.4 C 2.7 1.9 2.9 1.5 3.1 1.2 C 3.4 0.8 3.7 0.5 4.2 0.3 C 4.7 0.1 5.2 0 5.8 0 C 6.4 0 7 0.1 7.5 0.3 C 7.9 0.5 8.3 0.8 8.6 1.2 C 8.8 1.6 9 2.1 9 2.6 C 9 2.6 7.9 2.6 7.9 2.6 C 7.8 2.1 7.6 1.7 7.3 1.4 C 7 1.1 6.5 1 5.8 1 C 5.1 1 4.6 1.1 4.3 1.4 C 4 1.6 3.8 1.9 3.8 2.3 C 3.8 2.6 4 2.9 4.2 3.1 C 4.4 3.3 5 3.5 5.9 3.7 C 6.8 3.9 7.4 4.1 7.8 4.2 C 8.3 4.4 8.7 4.7 8.9 5.1 C 9.1 5.4 9.3 5.8 9.3 6.3 C 9.3 6.8 9.1 7.2 8.9 7.6 C 8.6 8 8.2 8.3 7.7 8.5 C 7.2 8.8 6.7 8.9 6.1 8.9 C 5.3 8.9 4.6 8.8 4.1 8.5 C 3.6 8.3 3.2 8 2.9 7.5 C 2.6 7.1 2.4 6.6 2.4 6 Z M 14.7 8.7 C 14.7 8.7 14.75 7.82 14.7 7.8 C 14.3 8.5 13.6 8.9 12.8 8.9 C 12.4 8.9 12.1 8.8 11.7 8.7 C 11.4 8.5 11.2 8.3 11 8.1 C 10.9 7.9 10.8 7.7 10.7 7.4 C 10.7 7.1 10.6 6.8 10.6 6.4 C 10.65 6.37 10.6 2.5 10.6 2.5 L 11.7 2.5 C 11.7 2.5 11.7 5.96 11.7 6 C 11.7 6.5 11.7 6.9 11.8 7.1 C 11.8 7.4 12 7.6 12.2 7.7 C 12.4 7.9 12.7 8 13 8 C 13.3 8 13.6 7.9 13.9 7.7 C 14.2 7.6 14.3 7.3 14.5 7.1 C 14.6 6.8 14.6 6.4 14.6 5.8 C 14.64 5.85 14.6 2.5 14.6 2.5 L 15.7 2.5 L 15.7 8.7 L 14.7 8.7 Z M 17.3 8.7 L 17.3 2.5 L 18.3 2.5 C 18.3 2.5 18.28 3.46 18.3 3.5 C 18.5 3 18.7 2.7 19 2.6 C 19.2 2.4 19.4 2.4 19.6 2.4 C 20 2.4 20.3 2.5 20.7 2.7 C 20.7 2.7 20.4 3.7 20.4 3.7 C 20.1 3.5 19.8 3.5 19.6 3.5 C 19.3 3.5 19.1 3.5 19 3.7 C 18.8 3.8 18.6 4 18.6 4.2 C 18.4 4.6 18.4 5 18.4 5.5 C 18.39 5.48 18.4 8.7 18.4 8.7 L 17.3 8.7 Z M 23.1 8.7 L 20.7 2.5 L 21.8 2.5 C 21.8 2.5 23.15 6.24 23.2 6.2 C 23.3 6.6 23.4 7.1 23.5 7.5 C 23.6 7.2 23.8 6.8 23.9 6.3 C 23.94 6.31 25.3 2.5 25.3 2.5 L 26.4 2.5 L 24.1 8.7 L 23.1 8.7 Z M 31.6 6.7 C 31.6 6.7 32.7 6.9 32.7 6.9 C 32.5 7.5 32.2 8 31.7 8.3 C 31.3 8.7 30.7 8.9 30 8.9 C 29 8.9 28.3 8.6 27.8 8 C 27.3 7.5 27 6.7 27 5.7 C 27 4.6 27.3 3.8 27.8 3.2 C 28.3 2.7 29 2.4 29.9 2.4 C 30.7 2.4 31.4 2.7 31.9 3.2 C 32.5 3.8 32.7 4.6 32.7 5.6 C 32.7 5.7 32.7 5.8 32.7 5.9 C 32.7 5.9 28.1 5.9 28.1 5.9 C 28.1 6.6 28.3 7.1 28.7 7.5 C 29 7.8 29.4 8 30 8 C 30.3 8 30.7 7.9 31 7.7 C 31.2 7.5 31.4 7.2 31.6 6.7 Z M 28.1 5 C 28.1 5 31.6 5 31.6 5 C 31.6 4.5 31.4 4.1 31.2 3.8 C 30.9 3.4 30.4 3.2 29.9 3.2 C 29.4 3.2 29 3.4 28.7 3.7 C 28.4 4.1 28.2 4.5 28.1 5 Z M 34.6 11.3 C 34.4 11.3 34.2 11.2 34 11.1 C 34 11.1 33.9 10.1 33.9 10.1 C 34.1 10.2 34.3 10.2 34.5 10.2 C 34.7 10.2 34.9 10.2 35 10.1 C 35.2 10 35.3 9.9 35.4 9.8 C 35.4 9.7 35.5 9.4 35.7 9 C 35.7 8.9 35.7 8.9 35.8 8.7 C 35.78 8.75 33.4 2.5 33.4 2.5 L 34.6 2.5 C 34.6 2.5 35.85 6.12 35.8 6.1 C 36 6.6 36.2 7.1 36.3 7.6 C 36.4 7.1 36.6 6.6 36.7 6.1 C 36.73 6.14 38.1 2.5 38.1 2.5 L 39.1 2.5 C 39.1 2.5 36.75 8.84 36.8 8.8 C 36.5 9.5 36.3 10 36.2 10.3 C 36 10.6 35.8 10.9 35.5 11 C 35.3 11.2 35 11.3 34.6 11.3 C 34.6 11.3 34.6 11.3 34.6 11.3 Z " stroke="none" fill="#000"/>  </g></svg>