<?xml version="1.0" standalone="no"?><!DOCTYPE svg PUBLIC "-//W3C//DTD SVG 1.1//EN" "http://www.w3.org/Graphics/SVG/1.1/DTD/svg11.dtd"><svg xmlns="http://www.w3.org/2000/svg" version="1.1" width="256.2px" height="46.5px" viewBox="0 -5 256.2 46.5" style="top:-5px">  <desc>Survey Help us to continuously improve.</desc>  <defs/>  <g id="Polygon894">    <path d="M 1 34.4 L 1 25.8 L 2.1 25.8 L 2.1 29.4 L 6.6 29.4 L 6.6 25.8 L 7.7 25.8 L 7.7 34.4 L 6.6 34.4 L 6.6 30.4 L 2.1 30.4 L 2.1 34.4 L 1 34.4 Z M 13.7 32.4 C 13.7 32.4 14.8 32.6 14.8 32.6 C 14.6 33.2 14.3 33.7 13.9 34 C 13.4 34.4 12.8 34.6 12.1 34.6 C 11.2 34.6 10.4 34.3 9.9 33.7 C 9.4 33.2 9.1 32.4 9.1 31.4 C 9.1 30.3 9.4 29.5 9.9 28.9 C 10.5 28.4 11.2 28.1 12 28.1 C 12.8 28.1 13.5 28.3 14.1 28.9 C 14.6 29.5 14.8 30.3 14.8 31.3 C 14.8 31.4 14.8 31.5 14.8 31.6 C 14.8 31.6 10.2 31.6 10.2 31.6 C 10.2 32.3 10.4 32.8 10.8 33.2 C 11.1 33.5 11.6 33.7 12.1 33.7 C 12.5 33.7 12.8 33.6 13.1 33.4 C 13.3 33.2 13.6 32.9 13.7 32.4 Z M 10.3 30.7 C 10.3 30.7 13.7 30.7 13.7 30.7 C 13.7 30.2 13.5 29.8 13.3 29.5 C 13 29.1 12.6 28.9 12 28.9 C 11.5 28.9 11.1 29.1 10.8 29.4 C 10.5 29.7 10.3 30.2 10.3 30.7 Z M 16.1 34.4 L 16.1 25.8 L 17.2 25.8 L 17.2 34.4 L 16.1 34.4 Z M 18.8 36.8 L 18.8 28.2 L 19.8 28.2 C 19.8 28.2 19.76 29.01 19.8 29 C 20 28.7 20.2 28.5 20.5 28.3 C 20.8 28.1 21.2 28.1 21.6 28.1 C 22.1 28.1 22.6 28.2 23 28.5 C 23.4 28.7 23.7 29.1 23.9 29.6 C 24.1 30.1 24.2 30.7 24.2 31.3 C 24.2 31.9 24.1 32.5 23.9 33 C 23.6 33.5 23.3 33.9 22.9 34.2 C 22.4 34.4 22 34.6 21.5 34.6 C 21.1 34.6 20.8 34.5 20.5 34.3 C 20.3 34.2 20 34 19.9 33.8 C 19.85 33.78 19.9 36.8 19.9 36.8 L 18.8 36.8 Z M 19.8 31.4 C 19.8 32.2 19.9 32.7 20.2 33.1 C 20.6 33.5 21 33.7 21.4 33.7 C 21.9 33.7 22.3 33.5 22.6 33.1 C 23 32.7 23.1 32.1 23.1 31.3 C 23.1 30.5 23 29.9 22.6 29.5 C 22.3 29.1 21.9 28.9 21.5 28.9 C 21 28.9 20.6 29.1 20.3 29.5 C 19.9 29.9 19.8 30.6 19.8 31.4 Z M 32.9 34.4 C 32.9 34.4 32.88 33.51 32.9 33.5 C 32.4 34.2 31.7 34.6 30.9 34.6 C 30.5 34.6 30.2 34.5 29.9 34.4 C 29.6 34.2 29.3 34 29.2 33.8 C 29 33.6 28.9 33.4 28.8 33 C 28.8 32.8 28.8 32.5 28.8 32.1 C 28.78 32.06 28.8 28.2 28.8 28.2 L 29.8 28.2 C 29.8 28.2 29.84 31.66 29.8 31.7 C 29.8 32.2 29.9 32.6 29.9 32.8 C 30 33 30.1 33.3 30.3 33.4 C 30.5 33.6 30.8 33.7 31.1 33.7 C 31.4 33.7 31.7 33.6 32 33.4 C 32.3 33.3 32.5 33 32.6 32.8 C 32.7 32.5 32.8 32.1 32.8 31.5 C 32.77 31.54 32.8 28.2 32.8 28.2 L 33.8 28.2 L 33.8 34.4 L 32.9 34.4 Z M 35.1 32.6 C 35.1 32.6 36.1 32.4 36.1 32.4 C 36.2 32.8 36.3 33.1 36.6 33.4 C 36.9 33.6 37.2 33.7 37.7 33.7 C 38.2 33.7 38.6 33.6 38.8 33.4 C 39 33.2 39.1 33 39.1 32.7 C 39.1 32.5 39 32.3 38.8 32.1 C 38.7 32.1 38.3 31.9 37.8 31.8 C 37 31.6 36.4 31.4 36.1 31.3 C 35.8 31.1 35.6 30.9 35.5 30.7 C 35.3 30.4 35.2 30.2 35.2 29.9 C 35.2 29.6 35.3 29.3 35.4 29.1 C 35.5 28.8 35.7 28.7 35.9 28.5 C 36.1 28.4 36.3 28.3 36.6 28.2 C 36.9 28.1 37.2 28.1 37.5 28.1 C 38 28.1 38.4 28.1 38.8 28.3 C 39.2 28.4 39.5 28.6 39.6 28.8 C 39.8 29.1 39.9 29.4 40 29.8 C 40 29.8 39 30 39 30 C 38.9 29.6 38.8 29.4 38.6 29.2 C 38.3 29 38 28.9 37.6 28.9 C 37.1 28.9 36.8 29 36.6 29.2 C 36.4 29.3 36.3 29.5 36.3 29.7 C 36.3 29.9 36.3 30 36.4 30.1 C 36.5 30.2 36.6 30.3 36.8 30.4 C 36.9 30.4 37.2 30.5 37.7 30.7 C 38.5 30.9 39 31 39.3 31.1 C 39.6 31.3 39.8 31.5 40 31.7 C 40.1 31.9 40.2 32.2 40.2 32.6 C 40.2 33 40.1 33.3 39.9 33.6 C 39.7 33.9 39.4 34.1 39 34.3 C 38.6 34.5 38.2 34.6 37.7 34.6 C 36.9 34.6 36.3 34.4 35.9 34.1 C 35.4 33.7 35.2 33.2 35.1 32.6 Z M 46.7 33.5 C 46.8 33.5 46.9 33.5 47.1 33.5 C 47.1 33.5 47.3 34.4 47.3 34.4 C 47 34.5 46.7 34.5 46.5 34.5 C 46.1 34.5 45.8 34.4 45.6 34.3 C 45.4 34.2 45.2 34 45.1 33.8 C 45 33.7 45 33.2 45 32.6 C 45.01 32.6 45 29 45 29 L 44.2 29 L 44.2 28.2 L 45 28.2 L 45 26.7 L 46.1 26 L 46.1 28.2 L 47.1 28.2 L 47.1 29 L 46.1 29 C 46.1 29 46.05 32.66 46.1 32.7 C 46.1 33 46.1 33.2 46.1 33.2 C 46.1 33.3 46.2 33.4 46.3 33.4 C 46.4 33.5 46.5 33.5 46.7 33.5 C 46.7 33.5 46.7 33.5 46.7 33.5 Z M 47.8 31.3 C 47.8 30.2 48.1 29.3 48.7 28.8 C 49.2 28.3 49.9 28.1 50.7 28.1 C 51.5 28.1 52.2 28.3 52.8 28.9 C 53.3 29.5 53.6 30.2 53.6 31.2 C 53.6 32 53.5 32.7 53.2 33.1 C 53 33.6 52.6 33.9 52.2 34.2 C 51.7 34.4 51.2 34.6 50.7 34.6 C 49.8 34.6 49.1 34.3 48.6 33.7 C 48 33.2 47.8 32.4 47.8 31.3 Z M 48.8 31.3 C 48.8 32.1 49 32.7 49.4 33.1 C 49.7 33.5 50.1 33.7 50.7 33.7 C 51.2 33.7 51.6 33.5 52 33.1 C 52.3 32.7 52.5 32.1 52.5 31.3 C 52.5 30.5 52.3 29.9 52 29.5 C 51.6 29.1 51.2 28.9 50.7 28.9 C 50.1 28.9 49.7 29.1 49.4 29.5 C 49 29.9 48.8 30.5 48.8 31.3 Z M 62.2 32.1 C 62.2 32.1 63.3 32.3 63.3 32.3 C 63.1 33 62.8 33.6 62.4 34 C 61.9 34.4 61.3 34.6 60.7 34.6 C 59.8 34.6 59.1 34.3 58.6 33.7 C 58.1 33.2 57.8 32.4 57.8 31.3 C 57.8 30.7 57.9 30.1 58.2 29.6 C 58.4 29.1 58.7 28.7 59.2 28.4 C 59.6 28.2 60.1 28.1 60.7 28.1 C 61.3 28.1 61.9 28.2 62.3 28.6 C 62.8 28.9 63 29.4 63.2 30 C 63.2 30 62.1 30.2 62.1 30.2 C 62 29.8 61.9 29.5 61.6 29.2 C 61.4 29 61.1 28.9 60.7 28.9 C 60.2 28.9 59.7 29.1 59.4 29.5 C 59.1 29.9 58.9 30.5 58.9 31.3 C 58.9 32.1 59.1 32.8 59.4 33.1 C 59.7 33.5 60.1 33.7 60.7 33.7 C 61.1 33.7 61.4 33.6 61.7 33.3 C 62 33.1 62.1 32.7 62.2 32.1 Z M 63.8 31.3 C 63.8 30.2 64.1 29.3 64.7 28.8 C 65.3 28.3 65.9 28.1 66.7 28.1 C 67.5 28.1 68.2 28.3 68.8 28.9 C 69.3 29.5 69.6 30.2 69.6 31.2 C 69.6 32 69.5 32.7 69.2 33.1 C 69 33.6 68.6 33.9 68.2 34.2 C 67.7 34.4 67.2 34.6 66.7 34.6 C 65.8 34.6 65.1 34.3 64.6 33.7 C 64 33.2 63.8 32.4 63.8 31.3 Z M 64.8 31.3 C 64.8 32.1 65 32.7 65.4 33.1 C 65.7 33.5 66.2 33.7 66.7 33.7 C 67.2 33.7 67.6 33.5 68 33.1 C 68.3 32.7 68.5 32.1 68.5 31.3 C 68.5 30.5 68.3 29.9 68 29.5 C 67.6 29.1 67.2 28.9 66.7 28.9 C 66.2 28.9 65.7 29.1 65.4 29.5 C 65 29.9 64.8 30.5 64.8 31.3 Z M 70.8 34.4 L 70.8 28.2 L 71.8 28.2 C 71.8 28.2 71.78 29.09 71.8 29.1 C 72.2 28.4 72.9 28.1 73.8 28.1 C 74.1 28.1 74.5 28.1 74.8 28.3 C 75.1 28.4 75.3 28.6 75.5 28.8 C 75.7 29 75.8 29.3 75.8 29.6 C 75.9 29.8 75.9 30.1 75.9 30.6 C 75.88 30.6 75.9 34.4 75.9 34.4 L 74.8 34.4 C 74.8 34.4 74.83 30.64 74.8 30.6 C 74.8 30.2 74.8 29.9 74.7 29.7 C 74.6 29.5 74.5 29.3 74.3 29.2 C 74.1 29 73.8 29 73.5 29 C 73.1 29 72.7 29.1 72.4 29.4 C 72 29.7 71.9 30.2 71.9 31 C 71.88 31.03 71.9 34.4 71.9 34.4 L 70.8 34.4 Z M 79.3 33.5 C 79.5 33.5 79.6 33.5 79.8 33.5 C 79.8 33.5 80 34.4 80 34.4 C 79.7 34.5 79.4 34.5 79.2 34.5 C 78.8 34.5 78.5 34.4 78.3 34.3 C 78.1 34.2 77.9 34 77.8 33.8 C 77.7 33.7 77.7 33.2 77.7 32.6 C 77.7 32.6 77.7 29 77.7 29 L 76.9 29 L 76.9 28.2 L 77.7 28.2 L 77.7 26.7 L 78.7 26 L 78.7 28.2 L 79.8 28.2 L 79.8 29 L 78.7 29 C 78.7 29 78.74 32.66 78.7 32.7 C 78.7 33 78.8 33.2 78.8 33.2 C 78.8 33.3 78.9 33.4 79 33.4 C 79.1 33.5 79.2 33.5 79.3 33.5 C 79.3 33.5 79.3 33.5 79.3 33.5 Z M 80.8 27.1 L 80.8 25.8 L 81.9 25.8 L 81.9 27.1 L 80.8 27.1 Z M 80.8 34.4 L 80.8 28.2 L 81.9 28.2 L 81.9 34.4 L 80.8 34.4 Z M 83.5 34.4 L 83.5 28.2 L 84.5 28.2 C 84.5 28.2 84.45 29.09 84.5 29.1 C 84.9 28.4 85.6 28.1 86.4 28.1 C 86.8 28.1 87.2 28.1 87.5 28.3 C 87.8 28.4 88 28.6 88.2 28.8 C 88.3 29 88.4 29.3 88.5 29.6 C 88.5 29.8 88.6 30.1 88.6 30.6 C 88.56 30.6 88.6 34.4 88.6 34.4 L 87.5 34.4 C 87.5 34.4 87.5 30.64 87.5 30.6 C 87.5 30.2 87.5 29.9 87.4 29.7 C 87.3 29.5 87.2 29.3 86.9 29.2 C 86.7 29 86.5 29 86.2 29 C 85.8 29 85.4 29.1 85 29.4 C 84.7 29.7 84.6 30.2 84.6 31 C 84.56 31.03 84.6 34.4 84.6 34.4 L 83.5 34.4 Z M 94.3 34.4 C 94.3 34.4 94.25 33.51 94.3 33.5 C 93.8 34.2 93.1 34.6 92.3 34.6 C 91.9 34.6 91.6 34.5 91.3 34.4 C 90.9 34.2 90.7 34 90.5 33.8 C 90.4 33.6 90.3 33.4 90.2 33 C 90.2 32.8 90.2 32.5 90.2 32.1 C 90.15 32.06 90.2 28.2 90.2 28.2 L 91.2 28.2 C 91.2 28.2 91.21 31.66 91.2 31.7 C 91.2 32.2 91.2 32.6 91.3 32.8 C 91.3 33 91.5 33.3 91.7 33.4 C 91.9 33.6 92.2 33.7 92.5 33.7 C 92.8 33.7 93.1 33.6 93.4 33.4 C 93.7 33.3 93.9 33 94 32.8 C 94.1 32.5 94.1 32.1 94.1 31.5 C 94.14 31.54 94.1 28.2 94.1 28.2 L 95.2 28.2 L 95.2 34.4 L 94.3 34.4 Z M 96.5 31.3 C 96.5 30.2 96.8 29.3 97.4 28.8 C 98 28.3 98.6 28.1 99.4 28.1 C 100.2 28.1 100.9 28.3 101.5 28.9 C 102 29.5 102.3 30.2 102.3 31.2 C 102.3 32 102.2 32.7 101.9 33.1 C 101.7 33.6 101.3 33.9 100.9 34.2 C 100.4 34.4 99.9 34.6 99.4 34.6 C 98.5 34.6 97.8 34.3 97.3 33.7 C 96.7 33.2 96.5 32.4 96.5 31.3 Z M 97.5 31.3 C 97.5 32.1 97.7 32.7 98.1 33.1 C 98.4 33.5 98.8 33.7 99.4 33.7 C 99.9 33.7 100.3 33.5 100.7 33.1 C 101 32.7 101.2 32.1 101.2 31.3 C 101.2 30.5 101 29.9 100.7 29.5 C 100.3 29.1 99.9 28.9 99.4 28.9 C 98.8 28.9 98.4 29.1 98.1 29.5 C 97.7 29.9 97.5 30.5 97.5 31.3 Z M 107.6 34.4 C 107.6 34.4 107.6 33.51 107.6 33.5 C 107.1 34.2 106.5 34.6 105.6 34.6 C 105.3 34.6 104.9 34.5 104.6 34.4 C 104.3 34.2 104 34 103.9 33.8 C 103.7 33.6 103.6 33.4 103.6 33 C 103.5 32.8 103.5 32.5 103.5 32.1 C 103.5 32.06 103.5 28.2 103.5 28.2 L 104.6 28.2 C 104.6 28.2 104.55 31.66 104.6 31.7 C 104.6 32.2 104.6 32.6 104.6 32.8 C 104.7 33 104.8 33.3 105 33.4 C 105.3 33.6 105.5 33.7 105.8 33.7 C 106.2 33.7 106.5 33.6 106.7 33.4 C 107 33.3 107.2 33 107.3 32.8 C 107.4 32.5 107.5 32.1 107.5 31.5 C 107.49 31.54 107.5 28.2 107.5 28.2 L 108.5 28.2 L 108.5 34.4 L 107.6 34.4 Z M 109.8 32.6 C 109.8 32.6 110.8 32.4 110.8 32.4 C 110.9 32.8 111 33.1 111.3 33.4 C 111.6 33.6 111.9 33.7 112.4 33.7 C 112.9 33.7 113.3 33.6 113.5 33.4 C 113.7 33.2 113.9 33 113.9 32.7 C 113.9 32.5 113.8 32.3 113.5 32.1 C 113.4 32.1 113 31.9 112.5 31.8 C 111.7 31.6 111.2 31.4 110.9 31.3 C 110.6 31.1 110.3 30.9 110.2 30.7 C 110 30.4 110 30.2 110 29.9 C 110 29.6 110 29.3 110.1 29.1 C 110.3 28.8 110.4 28.7 110.7 28.5 C 110.8 28.4 111 28.3 111.3 28.2 C 111.6 28.1 111.9 28.1 112.2 28.1 C 112.7 28.1 113.2 28.1 113.5 28.3 C 113.9 28.4 114.2 28.6 114.3 28.8 C 114.5 29.1 114.6 29.4 114.7 29.8 C 114.7 29.8 113.7 30 113.7 30 C 113.6 29.6 113.5 29.4 113.3 29.2 C 113 29 112.7 28.9 112.3 28.9 C 111.8 28.9 111.5 29 111.3 29.2 C 111.1 29.3 111 29.5 111 29.7 C 111 29.9 111 30 111.1 30.1 C 111.2 30.2 111.3 30.3 111.5 30.4 C 111.6 30.4 111.9 30.5 112.4 30.7 C 113.2 30.9 113.7 31 114 31.1 C 114.3 31.3 114.5 31.5 114.7 31.7 C 114.9 31.9 114.9 32.2 114.9 32.6 C 114.9 33 114.8 33.3 114.6 33.6 C 114.4 33.9 114.1 34.1 113.7 34.3 C 113.4 34.5 112.9 34.6 112.4 34.6 C 111.6 34.6 111 34.4 110.6 34.1 C 110.2 33.7 109.9 33.2 109.8 32.6 Z M 116.2 34.4 L 116.2 25.8 L 117.2 25.8 L 117.2 34.4 L 116.2 34.4 Z M 119.5 37 C 119.3 37 119.1 36.9 118.8 36.8 C 118.8 36.8 118.7 35.8 118.7 35.8 C 118.9 35.9 119.1 35.9 119.3 35.9 C 119.5 35.9 119.7 35.9 119.9 35.8 C 120 35.7 120.1 35.6 120.2 35.5 C 120.3 35.4 120.4 35.1 120.5 34.7 C 120.6 34.6 120.6 34.6 120.6 34.4 C 120.63 34.44 118.3 28.2 118.3 28.2 L 119.4 28.2 C 119.4 28.2 120.7 31.81 120.7 31.8 C 120.9 32.3 121 32.7 121.1 33.2 C 121.3 32.8 121.4 32.3 121.6 31.8 C 121.58 31.83 122.9 28.2 122.9 28.2 L 124 28.2 C 124 28.2 121.6 34.53 121.6 34.5 C 121.3 35.2 121.1 35.7 121 35.9 C 120.8 36.3 120.6 36.5 120.4 36.7 C 120.1 36.9 119.8 37 119.5 37 C 119.5 37 119.5 37 119.5 37 Z M 128.2 27.1 L 128.2 25.8 L 129.3 25.8 L 129.3 27.1 L 128.2 27.1 Z M 128.2 34.4 L 128.2 28.2 L 129.3 28.2 L 129.3 34.4 L 128.2 34.4 Z M 130.9 34.4 L 130.9 28.2 L 131.8 28.2 C 131.8 28.2 131.81 29.08 131.8 29.1 C 132 28.8 132.3 28.5 132.6 28.3 C 132.9 28.2 133.3 28.1 133.7 28.1 C 134.2 28.1 134.5 28.2 134.8 28.4 C 135.1 28.5 135.3 28.8 135.5 29.2 C 135.9 28.4 136.6 28.1 137.4 28.1 C 138 28.1 138.5 28.2 138.8 28.6 C 139.1 28.9 139.3 29.4 139.3 30.2 C 139.29 30.16 139.3 34.4 139.3 34.4 L 138.2 34.4 C 138.2 34.4 138.25 30.51 138.2 30.5 C 138.2 30.1 138.2 29.8 138.1 29.6 C 138.1 29.4 138 29.3 137.8 29.1 C 137.6 29 137.4 29 137.1 29 C 136.7 29 136.3 29.1 136 29.4 C 135.8 29.7 135.6 30.2 135.6 30.8 C 135.62 30.81 135.6 34.4 135.6 34.4 L 134.6 34.4 C 134.6 34.4 134.56 30.38 134.6 30.4 C 134.6 29.9 134.5 29.6 134.3 29.3 C 134.1 29.1 133.8 29 133.5 29 C 133.2 29 132.9 29.1 132.6 29.2 C 132.4 29.4 132.2 29.6 132.1 29.9 C 132 30.2 131.9 30.6 131.9 31.2 C 131.92 31.2 131.9 34.4 131.9 34.4 L 130.9 34.4 Z M 140.9 36.8 L 140.9 28.2 L 141.8 28.2 C 141.8 28.2 141.82 29.01 141.8 29 C 142 28.7 142.3 28.5 142.6 28.3 C 142.9 28.1 143.2 28.1 143.6 28.1 C 144.2 28.1 144.6 28.2 145 28.5 C 145.4 28.7 145.7 29.1 146 29.6 C 146.2 30.1 146.3 30.7 146.3 31.3 C 146.3 31.9 146.1 32.5 145.9 33 C 145.7 33.5 145.4 33.9 144.9 34.2 C 144.5 34.4 144 34.6 143.5 34.6 C 143.2 34.6 142.9 34.5 142.6 34.3 C 142.3 34.2 142.1 34 141.9 33.8 C 141.91 33.78 141.9 36.8 141.9 36.8 L 140.9 36.8 Z M 141.8 31.4 C 141.8 32.2 142 32.7 142.3 33.1 C 142.6 33.5 143 33.7 143.5 33.7 C 143.9 33.7 144.3 33.5 144.7 33.1 C 145 32.7 145.2 32.1 145.2 31.3 C 145.2 30.5 145 29.9 144.7 29.5 C 144.4 29.1 144 28.9 143.5 28.9 C 143.1 28.9 142.7 29.1 142.3 29.5 C 142 29.9 141.8 30.6 141.8 31.4 Z M 147.5 34.4 L 147.5 28.2 L 148.5 28.2 C 148.5 28.2 148.47 29.15 148.5 29.1 C 148.7 28.7 148.9 28.4 149.1 28.3 C 149.3 28.1 149.6 28.1 149.8 28.1 C 150.2 28.1 150.5 28.2 150.9 28.4 C 150.9 28.4 150.5 29.4 150.5 29.4 C 150.3 29.2 150 29.2 149.8 29.2 C 149.5 29.2 149.3 29.2 149.1 29.4 C 149 29.5 148.8 29.7 148.8 29.9 C 148.6 30.3 148.6 30.7 148.6 31.2 C 148.58 31.17 148.6 34.4 148.6 34.4 L 147.5 34.4 Z M 151.1 31.3 C 151.1 30.2 151.5 29.3 152.1 28.8 C 152.6 28.3 153.3 28.1 154.1 28.1 C 154.9 28.1 155.6 28.3 156.2 28.9 C 156.7 29.5 157 30.2 157 31.2 C 157 32 156.8 32.7 156.6 33.1 C 156.4 33.6 156 33.9 155.6 34.2 C 155.1 34.4 154.6 34.6 154.1 34.6 C 153.2 34.6 152.5 34.3 151.9 33.7 C 151.4 33.2 151.1 32.4 151.1 31.3 Z M 152.2 31.3 C 152.2 32.1 152.4 32.7 152.7 33.1 C 153.1 33.5 153.5 33.7 154.1 33.7 C 154.6 33.7 155 33.5 155.4 33.1 C 155.7 32.7 155.9 32.1 155.9 31.3 C 155.9 30.5 155.7 29.9 155.4 29.5 C 155 29.1 154.6 28.9 154.1 28.9 C 153.5 28.9 153.1 29.1 152.7 29.5 C 152.4 29.9 152.2 30.5 152.2 31.3 Z M 159.9 34.4 L 157.6 28.2 L 158.7 28.2 C 158.7 28.2 160.01 31.93 160 31.9 C 160.2 32.3 160.3 32.8 160.4 33.2 C 160.5 32.9 160.6 32.5 160.8 32 C 160.8 32 162.2 28.2 162.2 28.2 L 163.3 28.2 L 160.9 34.4 L 159.9 34.4 Z M 168.5 32.4 C 168.5 32.4 169.6 32.6 169.6 32.6 C 169.4 33.2 169.1 33.7 168.6 34 C 168.1 34.4 167.5 34.6 166.8 34.6 C 165.9 34.6 165.2 34.3 164.7 33.7 C 164.1 33.2 163.9 32.4 163.9 31.4 C 163.9 30.3 164.1 29.5 164.7 28.9 C 165.2 28.4 165.9 28.1 166.8 28.1 C 167.6 28.1 168.3 28.3 168.8 28.9 C 169.3 29.5 169.6 30.3 169.6 31.3 C 169.6 31.4 169.6 31.5 169.6 31.6 C 169.6 31.6 164.9 31.6 164.9 31.6 C 165 32.3 165.2 32.8 165.5 33.2 C 165.9 33.5 166.3 33.7 166.8 33.7 C 167.2 33.7 167.5 33.6 167.8 33.4 C 168.1 33.2 168.3 32.9 168.5 32.4 Z M 165 30.7 C 165 30.7 168.5 30.7 168.5 30.7 C 168.4 30.2 168.3 29.8 168.1 29.5 C 167.7 29.1 167.3 28.9 166.8 28.9 C 166.3 28.9 165.9 29.1 165.5 29.4 C 165.2 29.7 165 30.2 165 30.7 Z M 171.2 34.4 L 171.2 33.2 L 172.4 33.2 L 172.4 34.4 L 171.2 34.4 Z " stroke="none" fill="#010102"/>  </g>  <g id="Polygon893">    <path d="M 7.4 1.5 C 7.4 1.5 7.4 3.1 7.4 3.1 C 6.5 2.4 5.5 2 4.5 2 C 3.1 2 2.2 2.7 2.2 3.8 C 2.2 4.7 2.5 5.4 4.6 6.5 C 7.2 7.8 7.8 8.8 7.8 10.5 C 7.8 12.4 6.4 13.8 4.2 13.8 C 3 13.8 1.9 13.4 0.9 12.7 C 0.9 12.7 0.9 10.9 0.9 10.9 C 1.8 12 3 12.6 4.2 12.6 C 5.5 12.6 6.4 11.7 6.4 10.5 C 6.4 9.4 6.1 8.8 3.6 7.5 C 1.6 6.5 0.8 5.5 0.8 3.9 C 0.8 2.1 2.4 0.7 4.5 0.7 C 5.5 0.7 6.5 1 7.4 1.5 Z M 11.3 0.9 C 11.3 0.9 11.26 8.23 11.3 8.2 C 11.3 11.1 12.6 12.6 15.2 12.6 C 17.9 12.6 19.2 11 19.2 8.2 C 19.16 8.23 19.2 0.9 19.2 0.9 L 20.6 0.9 C 20.6 0.9 20.56 8.23 20.6 8.2 C 20.6 11.6 18.8 13.8 15.2 13.8 C 11.7 13.8 9.9 11.8 9.9 8.2 C 9.86 8.23 9.9 0.9 9.9 0.9 L 11.3 0.9 Z M 23.3 0.9 C 23.3 0.9 26.62 0.88 26.6 0.9 C 29.2 0.9 30.5 2.4 30.5 4.3 C 30.5 5.9 29.7 7 28.1 7.4 C 28.9 7.9 29.3 8.2 30.3 9.8 C 30.35 9.82 32.8 13.6 32.8 13.6 L 31.2 13.6 C 31.2 13.6 28.91 10.12 28.9 10.1 C 27.7 8.3 26.9 7.8 25.9 7.8 C 25.86 7.84 24.7 7.8 24.7 7.8 L 24.7 13.6 L 23.3 13.6 L 23.3 0.9 Z M 26 6.6 C 27.7 6.6 29.1 6.2 29.1 4.3 C 29.1 2.8 28.1 2.1 26.4 2.1 C 26.44 2.11 24.7 2.1 24.7 2.1 L 24.7 6.6 C 24.7 6.6 25.99 6.6 26 6.6 Z M 32.2 0.9 L 33.6 0.9 L 37.7 10.8 L 37.7 10.8 L 41.9 0.9 L 43.3 0.9 L 37.9 13.8 L 37.6 13.8 L 32.2 0.9 Z M 51.7 0.9 L 51.7 2.1 L 46.1 2.1 L 46.1 6.6 L 51.5 6.6 L 51.5 7.8 L 46.1 7.8 L 46.1 12.4 L 51.9 12.4 L 51.9 13.6 L 44.7 13.6 L 44.7 0.9 L 51.7 0.9 Z M 54.8 0.9 L 58.6 5.6 L 62.4 0.9 L 64 0.9 L 59.3 6.8 L 59.3 13.6 L 57.8 13.6 L 57.8 6.8 L 53.1 0.9 L 54.8 0.9 Z " stroke="none" fill="#010102"/>  </g></svg>