<?xml version="1.0" standalone="no"?><!DOCTYPE svg PUBLIC "-//W3C//DTD SVG 1.1//EN" "http://www.w3.org/Graphics/SVG/1.1/DTD/svg11.dtd"><svg xmlns="http://www.w3.org/2000/svg" version="1.1" width="43.4px" height="20.5px" viewBox="0 -4 43.4 20.5" style="top:-4px">  <desc>Home</desc>  <defs/>  <g id="Polygon2396">    <path d="M 6.6 8.7 L 6.6 0.1 L 7.8 0.1 L 7.8 3.7 L 12.2 3.7 L 12.2 0.1 L 13.4 0.1 L 13.4 8.7 L 12.2 8.7 L 12.2 4.7 L 7.8 4.7 L 7.8 8.7 L 6.6 8.7 Z M 14.7 5.6 C 14.7 4.5 15.1 3.6 15.7 3.1 C 16.2 2.6 16.9 2.4 17.7 2.4 C 18.5 2.4 19.2 2.7 19.8 3.2 C 20.3 3.8 20.6 4.5 20.6 5.5 C 20.6 6.3 20.4 7 20.2 7.4 C 20 7.9 19.6 8.2 19.2 8.5 C 18.7 8.7 18.2 8.9 17.7 8.9 C 16.8 8.9 16.1 8.6 15.5 8 C 15 7.5 14.7 6.7 14.7 5.6 Z M 15.8 5.6 C 15.8 6.4 16 7 16.3 7.4 C 16.7 7.8 17.1 8 17.7 8 C 18.2 8 18.6 7.8 19 7.4 C 19.3 7 19.5 6.4 19.5 5.6 C 19.5 4.8 19.3 4.2 19 3.8 C 18.6 3.4 18.2 3.2 17.7 3.2 C 17.1 3.2 16.7 3.4 16.3 3.8 C 16 4.2 15.8 4.8 15.8 5.6 Z M 21.8 8.7 L 21.8 2.5 L 22.7 2.5 C 22.7 2.5 22.75 3.39 22.7 3.4 C 22.9 3.1 23.2 2.8 23.5 2.7 C 23.9 2.5 24.2 2.4 24.6 2.4 C 25.1 2.4 25.5 2.5 25.8 2.7 C 26.1 2.9 26.3 3.1 26.4 3.5 C 26.9 2.7 27.5 2.4 28.3 2.4 C 28.9 2.4 29.4 2.5 29.7 2.9 C 30.1 3.2 30.2 3.8 30.2 4.5 C 30.24 4.46 30.2 8.7 30.2 8.7 L 29.2 8.7 C 29.2 8.7 29.19 4.82 29.2 4.8 C 29.2 4.4 29.2 4.1 29.1 3.9 C 29 3.7 28.9 3.6 28.7 3.5 C 28.5 3.3 28.3 3.3 28.1 3.3 C 27.6 3.3 27.3 3.4 27 3.7 C 26.7 4 26.6 4.5 26.6 5.1 C 26.56 5.12 26.6 8.7 26.6 8.7 L 25.5 8.7 C 25.5 8.7 25.5 4.69 25.5 4.7 C 25.5 4.2 25.4 3.9 25.2 3.6 C 25.1 3.4 24.8 3.3 24.4 3.3 C 24.1 3.3 23.8 3.4 23.6 3.5 C 23.3 3.7 23.1 3.9 23 4.2 C 22.9 4.5 22.9 4.9 22.9 5.5 C 22.86 5.51 22.9 8.7 22.9 8.7 L 21.8 8.7 Z M 36.1 6.7 C 36.1 6.7 37.1 6.9 37.1 6.9 C 37 7.5 36.7 8 36.2 8.3 C 35.7 8.7 35.1 8.9 34.4 8.9 C 33.5 8.9 32.8 8.6 32.2 8 C 31.7 7.5 31.4 6.7 31.4 5.7 C 31.4 4.6 31.7 3.8 32.3 3.2 C 32.8 2.7 33.5 2.4 34.4 2.4 C 35.2 2.4 35.9 2.7 36.4 3.2 C 36.9 3.8 37.2 4.6 37.2 5.6 C 37.2 5.7 37.2 5.8 37.2 5.9 C 37.2 5.9 32.5 5.9 32.5 5.9 C 32.6 6.6 32.8 7.1 33.1 7.5 C 33.5 7.8 33.9 8 34.4 8 C 34.8 8 35.1 7.9 35.4 7.7 C 35.7 7.5 35.9 7.2 36.1 6.7 Z M 32.6 5 C 32.6 5 36.1 5 36.1 5 C 36 4.5 35.9 4.1 35.7 3.8 C 35.3 3.4 34.9 3.2 34.4 3.2 C 33.9 3.2 33.5 3.4 33.1 3.7 C 32.8 4.1 32.6 4.5 32.6 5 Z " stroke="none" fill="#000"/>  </g></svg>