<?xml version="1.0" standalone="no"?><!DOCTYPE svg PUBLIC "-//W3C//DTD SVG 1.1//EN" "http://www.w3.org/Graphics/SVG/1.1/DTD/svg11.dtd"><svg xmlns="http://www.w3.org/2000/svg" version="1.1" width="247px" height="45.5px" viewBox="0 -5 247 45.5" style="top:-5px">  <desc>Client Feedback View our latest survey results.</desc>  <defs/>  <g id="Polygon806">    <path d="M 3.4 33.1 L 0.1 24.5 L 1.3 24.5 C 1.3 24.5 3.52 30.77 3.5 30.8 C 3.7 31.3 3.8 31.7 4 32.2 C 4.1 31.7 4.3 31.2 4.4 30.8 C 4.43 30.77 6.8 24.5 6.8 24.5 L 7.9 24.5 L 4.5 33.1 L 3.4 33.1 Z M 8.6 25.7 L 8.6 24.5 L 9.6 24.5 L 9.6 25.7 L 8.6 25.7 Z M 8.6 33.1 L 8.6 26.9 L 9.6 26.9 L 9.6 33.1 L 8.6 33.1 Z M 15.5 31.1 C 15.5 31.1 16.6 31.3 16.6 31.3 C 16.4 31.9 16.1 32.4 15.6 32.7 C 15.2 33.1 14.6 33.3 13.9 33.3 C 12.9 33.3 12.2 33 11.7 32.4 C 11.2 31.9 10.9 31.1 10.9 30.1 C 10.9 29 11.2 28.2 11.7 27.6 C 12.2 27 12.9 26.8 13.8 26.8 C 14.6 26.8 15.3 27 15.8 27.6 C 16.4 28.2 16.6 29 16.6 30 C 16.6 30.1 16.6 30.2 16.6 30.3 C 16.6 30.3 12 30.3 12 30.3 C 12 31 12.2 31.5 12.6 31.9 C 12.9 32.2 13.3 32.4 13.9 32.4 C 14.3 32.4 14.6 32.3 14.9 32.1 C 15.1 31.9 15.3 31.6 15.5 31.1 Z M 12 29.4 C 12 29.4 15.5 29.4 15.5 29.4 C 15.5 28.9 15.3 28.5 15.1 28.2 C 14.8 27.8 14.3 27.6 13.8 27.6 C 13.3 27.6 12.9 27.8 12.6 28.1 C 12.3 28.4 12.1 28.9 12 29.4 Z M 19.1 33.1 L 17.2 26.9 L 18.3 26.9 L 19.2 30.5 C 19.2 30.5 19.61 31.83 19.6 31.8 C 19.6 31.8 19.7 31.3 19.9 30.5 C 19.93 30.54 20.9 26.9 20.9 26.9 L 22 26.9 L 22.9 30.5 L 23.3 31.7 L 23.6 30.5 L 24.7 26.9 L 25.7 26.9 L 23.8 33.1 L 22.7 33.1 L 21.7 29.4 L 21.4 28.3 L 20.2 33.1 L 19.1 33.1 Z M 29.5 30 C 29.5 28.9 29.8 28 30.5 27.4 C 31 27 31.7 26.8 32.4 26.8 C 33.3 26.8 34 27 34.5 27.6 C 35.1 28.2 35.4 28.9 35.4 29.9 C 35.4 30.7 35.2 31.4 35 31.8 C 34.8 32.3 34.4 32.6 33.9 32.9 C 33.5 33.1 33 33.3 32.4 33.3 C 31.6 33.3 30.9 33 30.3 32.4 C 29.8 31.9 29.5 31.1 29.5 30 Z M 30.6 30 C 30.6 30.8 30.8 31.4 31.1 31.8 C 31.5 32.2 31.9 32.4 32.4 32.4 C 33 32.4 33.4 32.2 33.8 31.8 C 34.1 31.4 34.3 30.8 34.3 30 C 34.3 29.2 34.1 28.6 33.7 28.2 C 33.4 27.8 33 27.6 32.4 27.6 C 31.9 27.6 31.5 27.8 31.1 28.2 C 30.8 28.6 30.6 29.2 30.6 30 Z M 40.7 33.1 C 40.7 33.1 40.67 32.21 40.7 32.2 C 40.2 32.9 39.5 33.3 38.7 33.3 C 38.3 33.3 38 33.2 37.7 33.1 C 37.3 32.9 37.1 32.7 37 32.5 C 36.8 32.3 36.7 32 36.6 31.7 C 36.6 31.5 36.6 31.2 36.6 30.8 C 36.57 30.75 36.6 26.9 36.6 26.9 L 37.6 26.9 C 37.6 26.9 37.62 30.35 37.6 30.4 C 37.6 30.9 37.6 31.3 37.7 31.5 C 37.8 31.7 37.9 32 38.1 32.1 C 38.3 32.3 38.6 32.4 38.9 32.4 C 39.2 32.4 39.5 32.3 39.8 32.1 C 40.1 31.9 40.3 31.7 40.4 31.4 C 40.5 31.2 40.6 30.8 40.6 30.2 C 40.56 30.23 40.6 26.9 40.6 26.9 L 41.6 26.9 L 41.6 33.1 L 40.7 33.1 Z M 43.3 33.1 L 43.3 26.9 L 44.2 26.9 C 44.2 26.9 44.2 27.84 44.2 27.8 C 44.4 27.4 44.7 27.1 44.9 27 C 45.1 26.8 45.3 26.8 45.6 26.8 C 45.9 26.8 46.3 26.9 46.6 27.1 C 46.6 27.1 46.3 28.1 46.3 28.1 C 46 27.9 45.8 27.8 45.5 27.8 C 45.3 27.8 45.1 27.9 44.9 28.1 C 44.7 28.2 44.6 28.4 44.5 28.6 C 44.4 29 44.3 29.4 44.3 29.9 C 44.31 29.86 44.3 33.1 44.3 33.1 L 43.3 33.1 Z M 50.6 33.1 L 50.6 24.5 L 51.6 24.5 L 51.6 33.1 L 50.6 33.1 Z M 57.5 33.1 C 57.4 32.9 57.4 32.6 57.3 32.4 C 56.9 32.7 56.6 32.9 56.2 33.1 C 55.8 33.2 55.4 33.3 55 33.3 C 54.3 33.3 53.8 33.1 53.5 32.8 C 53.1 32.4 52.9 32 52.9 31.5 C 52.9 31.2 53 30.9 53.1 30.6 C 53.3 30.4 53.4 30.2 53.7 30 C 53.9 29.9 54.1 29.8 54.4 29.7 C 54.6 29.6 54.9 29.6 55.4 29.5 C 56.2 29.4 56.8 29.3 57.2 29.2 C 57.2 29 57.2 28.9 57.2 28.9 C 57.2 28.5 57.1 28.2 56.9 28 C 56.7 27.8 56.3 27.6 55.7 27.6 C 55.2 27.6 54.9 27.7 54.6 27.9 C 54.4 28.1 54.2 28.4 54.1 28.8 C 54.1 28.8 53.1 28.7 53.1 28.7 C 53.2 28.2 53.3 27.9 53.5 27.6 C 53.8 27.3 54.1 27.1 54.5 27 C 54.9 26.8 55.4 26.8 55.9 26.8 C 56.4 26.8 56.9 26.8 57.2 26.9 C 57.5 27.1 57.8 27.2 57.9 27.4 C 58.1 27.6 58.2 27.8 58.2 28.1 C 58.3 28.3 58.3 28.6 58.3 29.1 C 58.3 29.1 58.3 30.5 58.3 30.5 C 58.3 31.5 58.3 32.1 58.4 32.4 C 58.4 32.6 58.5 32.9 58.6 33.1 C 58.63 33.12 57.5 33.1 57.5 33.1 C 57.5 33.1 57.53 33.12 57.5 33.1 Z M 57.2 30 C 56.9 30.2 56.3 30.3 55.5 30.4 C 55.1 30.5 54.8 30.5 54.6 30.6 C 54.4 30.7 54.3 30.8 54.2 31 C 54.1 31.1 54 31.3 54 31.5 C 54 31.7 54.1 32 54.3 32.2 C 54.6 32.3 54.9 32.4 55.3 32.4 C 55.7 32.4 56.1 32.3 56.4 32.2 C 56.7 32 56.9 31.7 57.1 31.4 C 57.2 31.2 57.2 30.9 57.2 30.4 C 57.2 30.4 57.2 30 57.2 30 Z M 61.8 32.2 C 61.9 32.2 62 32.2 62.2 32.2 C 62.2 32.2 62.4 33.1 62.4 33.1 C 62.1 33.2 61.8 33.2 61.6 33.2 C 61.2 33.2 60.9 33.1 60.7 33 C 60.5 32.9 60.3 32.7 60.3 32.5 C 60.2 32.3 60.1 31.9 60.1 31.3 C 60.13 31.3 60.1 27.7 60.1 27.7 L 59.4 27.7 L 59.4 26.9 L 60.1 26.9 L 60.1 25.4 L 61.2 24.7 L 61.2 26.9 L 62.2 26.9 L 62.2 27.7 L 61.2 27.7 C 61.2 27.7 61.18 31.36 61.2 31.4 C 61.2 31.7 61.2 31.9 61.2 31.9 C 61.3 32 61.3 32.1 61.4 32.1 C 61.5 32.2 61.6 32.2 61.8 32.2 C 61.8 32.2 61.8 32.2 61.8 32.2 Z M 67.5 31.1 C 67.5 31.1 68.6 31.3 68.6 31.3 C 68.4 31.9 68.1 32.4 67.7 32.7 C 67.2 33.1 66.6 33.3 65.9 33.3 C 65 33.3 64.3 33 63.7 32.4 C 63.2 31.9 62.9 31.1 62.9 30.1 C 62.9 29 63.2 28.2 63.7 27.6 C 64.3 27 65 26.8 65.8 26.8 C 66.7 26.8 67.3 27 67.9 27.6 C 68.4 28.2 68.7 29 68.7 30 C 68.7 30.1 68.7 30.2 68.6 30.3 C 68.6 30.3 64 30.3 64 30.3 C 64 31 64.2 31.5 64.6 31.9 C 64.9 32.2 65.4 32.4 65.9 32.4 C 66.3 32.4 66.6 32.3 66.9 32.1 C 67.2 31.9 67.4 31.6 67.5 31.1 Z M 64.1 29.4 C 64.1 29.4 67.5 29.4 67.5 29.4 C 67.5 28.9 67.4 28.5 67.1 28.2 C 66.8 27.8 66.4 27.6 65.8 27.6 C 65.4 27.6 64.9 27.8 64.6 28.1 C 64.3 28.4 64.1 28.9 64.1 29.4 Z M 69.5 31.3 C 69.5 31.3 70.6 31.1 70.6 31.1 C 70.6 31.5 70.8 31.8 71.1 32.1 C 71.3 32.3 71.7 32.4 72.2 32.4 C 72.7 32.4 73 32.3 73.3 32.1 C 73.5 31.9 73.6 31.7 73.6 31.4 C 73.6 31.2 73.5 31 73.3 30.8 C 73.2 30.7 72.8 30.6 72.2 30.5 C 71.4 30.3 70.9 30.1 70.6 30 C 70.3 29.8 70.1 29.6 69.9 29.4 C 69.8 29.1 69.7 28.9 69.7 28.6 C 69.7 28.3 69.8 28 69.9 27.8 C 70 27.5 70.2 27.3 70.4 27.2 C 70.6 27.1 70.8 27 71.1 26.9 C 71.4 26.8 71.7 26.8 72 26.8 C 72.5 26.8 72.9 26.8 73.3 27 C 73.6 27.1 73.9 27.3 74.1 27.5 C 74.3 27.8 74.4 28.1 74.5 28.5 C 74.5 28.5 73.4 28.6 73.4 28.6 C 73.4 28.3 73.2 28.1 73 27.9 C 72.8 27.7 72.5 27.6 72.1 27.6 C 71.6 27.6 71.2 27.7 71 27.9 C 70.8 28 70.7 28.2 70.7 28.4 C 70.7 28.6 70.8 28.7 70.8 28.8 C 70.9 28.9 71.1 29 71.3 29.1 C 71.4 29.1 71.7 29.2 72.2 29.3 C 72.9 29.5 73.4 29.7 73.7 29.8 C 74 30 74.3 30.1 74.4 30.4 C 74.6 30.6 74.7 30.9 74.7 31.3 C 74.7 31.6 74.6 32 74.4 32.3 C 74.2 32.6 73.9 32.8 73.5 33 C 73.1 33.2 72.7 33.3 72.2 33.3 C 71.4 33.3 70.8 33.1 70.3 32.8 C 69.9 32.4 69.6 31.9 69.5 31.3 Z M 77.8 32.2 C 77.9 32.2 78.1 32.2 78.2 32.2 C 78.2 32.2 78.4 33.1 78.4 33.1 C 78.1 33.2 77.8 33.2 77.6 33.2 C 77.2 33.2 76.9 33.1 76.7 33 C 76.5 32.9 76.4 32.7 76.3 32.5 C 76.2 32.3 76.1 31.9 76.1 31.3 C 76.14 31.3 76.1 27.7 76.1 27.7 L 75.4 27.7 L 75.4 26.9 L 76.1 26.9 L 76.1 25.4 L 77.2 24.7 L 77.2 26.9 L 78.2 26.9 L 78.2 27.7 L 77.2 27.7 C 77.2 27.7 77.19 31.36 77.2 31.4 C 77.2 31.7 77.2 31.9 77.2 31.9 C 77.3 32 77.3 32.1 77.4 32.1 C 77.5 32.2 77.6 32.2 77.8 32.2 C 77.8 32.2 77.8 32.2 77.8 32.2 Z M 82.2 31.3 C 82.2 31.3 83.2 31.1 83.2 31.1 C 83.3 31.5 83.5 31.8 83.7 32.1 C 84 32.3 84.4 32.4 84.8 32.4 C 85.3 32.4 85.7 32.3 85.9 32.1 C 86.2 31.9 86.3 31.7 86.3 31.4 C 86.3 31.2 86.2 31 86 30.8 C 85.8 30.7 85.5 30.6 84.9 30.5 C 84.1 30.3 83.6 30.1 83.3 30 C 83 29.8 82.8 29.6 82.6 29.4 C 82.4 29.1 82.4 28.9 82.4 28.6 C 82.4 28.3 82.4 28 82.6 27.8 C 82.7 27.5 82.9 27.3 83.1 27.2 C 83.2 27.1 83.5 27 83.7 26.9 C 84 26.8 84.3 26.8 84.7 26.8 C 85.1 26.8 85.6 26.8 85.9 27 C 86.3 27.1 86.6 27.3 86.8 27.5 C 86.9 27.8 87.1 28.1 87.1 28.5 C 87.1 28.5 86.1 28.6 86.1 28.6 C 86 28.3 85.9 28.1 85.7 27.9 C 85.5 27.7 85.1 27.6 84.7 27.6 C 84.2 27.6 83.9 27.7 83.7 27.9 C 83.5 28 83.4 28.2 83.4 28.4 C 83.4 28.6 83.4 28.7 83.5 28.8 C 83.6 28.9 83.7 29 83.9 29.1 C 84 29.1 84.3 29.2 84.8 29.3 C 85.6 29.5 86.1 29.7 86.4 29.8 C 86.7 30 86.9 30.1 87.1 30.4 C 87.3 30.6 87.4 30.9 87.4 31.3 C 87.4 31.6 87.3 32 87 32.3 C 86.8 32.6 86.5 32.8 86.2 33 C 85.8 33.2 85.3 33.3 84.8 33.3 C 84 33.3 83.4 33.1 83 32.8 C 82.6 32.4 82.3 31.9 82.2 31.3 Z M 92.7 33.1 C 92.7 33.1 92.69 32.21 92.7 32.2 C 92.2 32.9 91.5 33.3 90.7 33.3 C 90.3 33.3 90 33.2 89.7 33.1 C 89.4 32.9 89.1 32.7 89 32.5 C 88.8 32.3 88.7 32 88.7 31.7 C 88.6 31.5 88.6 31.2 88.6 30.8 C 88.59 30.75 88.6 26.9 88.6 26.9 L 89.6 26.9 C 89.6 26.9 89.64 30.35 89.6 30.4 C 89.6 30.9 89.7 31.3 89.7 31.5 C 89.8 31.7 89.9 32 90.1 32.1 C 90.3 32.3 90.6 32.4 90.9 32.4 C 91.2 32.4 91.5 32.3 91.8 32.1 C 92.1 31.9 92.3 31.7 92.4 31.4 C 92.5 31.2 92.6 30.8 92.6 30.2 C 92.58 30.23 92.6 26.9 92.6 26.9 L 93.6 26.9 L 93.6 33.1 L 92.7 33.1 Z M 95.3 33.1 L 95.3 26.9 L 96.2 26.9 C 96.2 26.9 96.22 27.84 96.2 27.8 C 96.5 27.4 96.7 27.1 96.9 27 C 97.1 26.8 97.3 26.8 97.6 26.8 C 97.9 26.8 98.3 26.9 98.7 27.1 C 98.7 27.1 98.3 28.1 98.3 28.1 C 98 27.9 97.8 27.8 97.5 27.8 C 97.3 27.8 97.1 27.9 96.9 28.1 C 96.7 28.2 96.6 28.4 96.5 28.6 C 96.4 29 96.3 29.4 96.3 29.9 C 96.33 29.86 96.3 33.1 96.3 33.1 L 95.3 33.1 Z M 101 33.1 L 98.6 26.9 L 99.8 26.9 C 99.8 26.9 101.09 30.63 101.1 30.6 C 101.2 31 101.4 31.4 101.5 31.9 C 101.6 31.6 101.7 31.2 101.9 30.7 C 101.88 30.7 103.3 26.9 103.3 26.9 L 104.3 26.9 L 102 33.1 L 101 33.1 Z M 109.5 31.1 C 109.5 31.1 110.6 31.3 110.6 31.3 C 110.5 31.9 110.1 32.4 109.7 32.7 C 109.2 33.1 108.6 33.3 107.9 33.3 C 107 33.3 106.3 33 105.7 32.4 C 105.2 31.9 104.9 31.1 104.9 30.1 C 104.9 29 105.2 28.2 105.7 27.6 C 106.3 27 107 26.8 107.8 26.8 C 108.7 26.8 109.3 27 109.9 27.6 C 110.4 28.2 110.7 29 110.7 30 C 110.7 30.1 110.7 30.2 110.7 30.3 C 110.7 30.3 106 30.3 106 30.3 C 106.1 31 106.3 31.5 106.6 31.9 C 106.9 32.2 107.4 32.4 107.9 32.4 C 108.3 32.4 108.6 32.3 108.9 32.1 C 109.2 31.9 109.4 31.6 109.5 31.1 Z M 106.1 29.4 C 106.1 29.4 109.6 29.4 109.6 29.4 C 109.5 28.9 109.4 28.5 109.2 28.2 C 108.8 27.8 108.4 27.6 107.8 27.6 C 107.4 27.6 107 27.8 106.6 28.1 C 106.3 28.4 106.1 28.9 106.1 29.4 Z M 112.6 35.6 C 112.4 35.6 112.2 35.6 111.9 35.5 C 111.9 35.5 111.8 34.5 111.8 34.5 C 112 34.6 112.2 34.6 112.4 34.6 C 112.6 34.6 112.8 34.6 113 34.5 C 113.1 34.4 113.2 34.3 113.3 34.2 C 113.4 34.1 113.5 33.8 113.6 33.4 C 113.6 33.3 113.7 33.2 113.7 33.1 C 113.72 33.13 111.4 26.9 111.4 26.9 L 112.5 26.9 C 112.5 26.9 113.79 30.5 113.8 30.5 C 114 31 114.1 31.4 114.2 31.9 C 114.4 31.5 114.5 31 114.7 30.5 C 114.67 30.53 116 26.9 116 26.9 L 117.1 26.9 C 117.1 26.9 114.69 33.23 114.7 33.2 C 114.4 33.9 114.2 34.4 114.1 34.6 C 113.9 35 113.7 35.2 113.5 35.4 C 113.2 35.6 112.9 35.6 112.6 35.6 C 112.6 35.6 112.6 35.6 112.6 35.6 Z M 121.3 33.1 L 121.3 26.9 L 122.2 26.9 C 122.2 26.9 122.23 27.84 122.2 27.8 C 122.5 27.4 122.7 27.1 122.9 27 C 123.1 26.8 123.3 26.8 123.6 26.8 C 123.9 26.8 124.3 26.9 124.7 27.1 C 124.7 27.1 124.3 28.1 124.3 28.1 C 124 27.9 123.8 27.8 123.5 27.8 C 123.3 27.8 123.1 27.9 122.9 28.1 C 122.7 28.2 122.6 28.4 122.5 28.6 C 122.4 29 122.3 29.4 122.3 29.9 C 122.33 29.86 122.3 33.1 122.3 33.1 L 121.3 33.1 Z M 129.5 31.1 C 129.5 31.1 130.6 31.3 130.6 31.3 C 130.5 31.9 130.1 32.4 129.7 32.7 C 129.2 33.1 128.6 33.3 127.9 33.3 C 127 33.3 126.3 33 125.7 32.4 C 125.2 31.9 124.9 31.1 124.9 30.1 C 124.9 29 125.2 28.2 125.7 27.6 C 126.3 27 127 26.8 127.8 26.8 C 128.7 26.8 129.4 27 129.9 27.6 C 130.4 28.2 130.7 29 130.7 30 C 130.7 30.1 130.7 30.2 130.7 30.3 C 130.7 30.3 126 30.3 126 30.3 C 126.1 31 126.3 31.5 126.6 31.9 C 127 32.2 127.4 32.4 127.9 32.4 C 128.3 32.4 128.6 32.3 128.9 32.1 C 129.2 31.9 129.4 31.6 129.5 31.1 Z M 126.1 29.4 C 126.1 29.4 129.6 29.4 129.6 29.4 C 129.5 28.9 129.4 28.5 129.2 28.2 C 128.8 27.8 128.4 27.6 127.9 27.6 C 127.4 27.6 127 27.8 126.6 28.1 C 126.3 28.4 126.1 28.9 126.1 29.4 Z M 131.5 31.3 C 131.5 31.3 132.6 31.1 132.6 31.1 C 132.6 31.5 132.8 31.8 133.1 32.1 C 133.3 32.3 133.7 32.4 134.2 32.4 C 134.7 32.4 135 32.3 135.3 32.1 C 135.5 31.9 135.6 31.7 135.6 31.4 C 135.6 31.2 135.5 31 135.3 30.8 C 135.2 30.7 134.8 30.6 134.2 30.5 C 133.5 30.3 132.9 30.1 132.6 30 C 132.3 29.8 132.1 29.6 131.9 29.4 C 131.8 29.1 131.7 28.9 131.7 28.6 C 131.7 28.3 131.8 28 131.9 27.8 C 132 27.5 132.2 27.3 132.4 27.2 C 132.6 27.1 132.8 27 133.1 26.9 C 133.4 26.8 133.7 26.8 134 26.8 C 134.5 26.8 134.9 26.8 135.3 27 C 135.7 27.1 135.9 27.3 136.1 27.5 C 136.3 27.8 136.4 28.1 136.5 28.5 C 136.5 28.5 135.4 28.6 135.4 28.6 C 135.4 28.3 135.3 28.1 135 27.9 C 134.8 27.7 134.5 27.6 134.1 27.6 C 133.6 27.6 133.2 27.7 133 27.9 C 132.8 28 132.7 28.2 132.7 28.4 C 132.7 28.6 132.8 28.7 132.9 28.8 C 132.9 28.9 133.1 29 133.3 29.1 C 133.4 29.1 133.7 29.2 134.2 29.3 C 134.9 29.5 135.5 29.7 135.8 29.8 C 136.1 30 136.3 30.1 136.5 30.4 C 136.6 30.6 136.7 30.9 136.7 31.3 C 136.7 31.6 136.6 32 136.4 32.3 C 136.2 32.6 135.9 32.8 135.5 33 C 135.1 33.2 134.7 33.3 134.2 33.3 C 133.4 33.3 132.8 33.1 132.3 32.8 C 131.9 32.4 131.7 31.9 131.5 31.3 Z M 142 33.1 C 142 33.1 142.04 32.21 142 32.2 C 141.6 32.9 140.9 33.3 140.1 33.3 C 139.7 33.3 139.4 33.2 139 33.1 C 138.7 32.9 138.5 32.7 138.3 32.5 C 138.2 32.3 138.1 32 138 31.7 C 138 31.5 137.9 31.2 137.9 30.8 C 137.94 30.75 137.9 26.9 137.9 26.9 L 139 26.9 C 139 26.9 138.99 30.35 139 30.4 C 139 30.9 139 31.3 139.1 31.5 C 139.1 31.7 139.3 32 139.5 32.1 C 139.7 32.3 140 32.4 140.3 32.4 C 140.6 32.4 140.9 32.3 141.2 32.1 C 141.4 31.9 141.6 31.7 141.8 31.4 C 141.9 31.2 141.9 30.8 141.9 30.2 C 141.93 30.23 141.9 26.9 141.9 26.9 L 143 26.9 L 143 33.1 L 142 33.1 Z M 144.6 33.1 L 144.6 24.5 L 145.7 24.5 L 145.7 33.1 L 144.6 33.1 Z M 149.1 32.2 C 149.3 32.2 149.4 32.2 149.6 32.2 C 149.6 32.2 149.8 33.1 149.8 33.1 C 149.5 33.2 149.2 33.2 149 33.2 C 148.6 33.2 148.3 33.1 148.1 33 C 147.9 32.9 147.7 32.7 147.6 32.5 C 147.5 32.3 147.5 31.9 147.5 31.3 C 147.49 31.3 147.5 27.7 147.5 27.7 L 146.7 27.7 L 146.7 26.9 L 147.5 26.9 L 147.5 25.4 L 148.5 24.7 L 148.5 26.9 L 149.6 26.9 L 149.6 27.7 L 148.5 27.7 C 148.5 27.7 148.54 31.36 148.5 31.4 C 148.5 31.7 148.6 31.9 148.6 31.9 C 148.6 32 148.7 32.1 148.8 32.1 C 148.9 32.2 149 32.2 149.1 32.2 C 149.1 32.2 149.1 32.2 149.1 32.2 Z M 150.2 31.3 C 150.2 31.3 151.3 31.1 151.3 31.1 C 151.3 31.5 151.5 31.8 151.7 32.1 C 152 32.3 152.4 32.4 152.9 32.4 C 153.3 32.4 153.7 32.3 153.9 32.1 C 154.2 31.9 154.3 31.7 154.3 31.4 C 154.3 31.2 154.2 31 154 30.8 C 153.8 30.7 153.5 30.6 152.9 30.5 C 152.1 30.3 151.6 30.1 151.3 30 C 151 29.8 150.8 29.6 150.6 29.4 C 150.5 29.1 150.4 28.9 150.4 28.6 C 150.4 28.3 150.5 28 150.6 27.8 C 150.7 27.5 150.9 27.3 151.1 27.2 C 151.3 27.1 151.5 27 151.8 26.9 C 152 26.8 152.4 26.8 152.7 26.8 C 153.2 26.8 153.6 26.8 154 27 C 154.3 27.1 154.6 27.3 154.8 27.5 C 155 27.8 155.1 28.1 155.1 28.5 C 155.1 28.5 154.1 28.6 154.1 28.6 C 154.1 28.3 153.9 28.1 153.7 27.9 C 153.5 27.7 153.2 27.6 152.8 27.6 C 152.3 27.6 151.9 27.7 151.7 27.9 C 151.5 28 151.4 28.2 151.4 28.4 C 151.4 28.6 151.4 28.7 151.5 28.8 C 151.6 28.9 151.8 29 151.9 29.1 C 152 29.1 152.4 29.2 152.9 29.3 C 153.6 29.5 154.1 29.7 154.4 29.8 C 154.7 30 155 30.1 155.1 30.4 C 155.3 30.6 155.4 30.9 155.4 31.3 C 155.4 31.6 155.3 32 155.1 32.3 C 154.9 32.6 154.6 32.8 154.2 33 C 153.8 33.2 153.4 33.3 152.9 33.3 C 152.1 33.3 151.4 33.1 151 32.8 C 150.6 32.4 150.3 31.9 150.2 31.3 Z M 156.9 33.1 L 156.9 31.9 L 158.1 31.9 L 158.1 33.1 L 156.9 33.1 Z " stroke="none" fill="#010102"/>  </g>  <g id="Polygon805">    <path d="M 11.5 1.7 C 11.5 1.7 11.5 3.1 11.5 3.1 C 10.2 2.4 8.8 1.9 7.4 1.9 C 4.2 1.9 2.3 4.3 2.3 7 C 2.3 9.8 4.2 12 7.3 12 C 8.9 12 10.3 11.6 11.6 10.8 C 11.6 10.8 11.6 12.3 11.6 12.3 C 10.2 13 8.8 13.3 7.3 13.3 C 3.1 13.3 0.8 10.1 0.8 7 C 0.8 3.4 3.7 0.7 7.3 0.7 C 8.7 0.7 10.1 1 11.5 1.7 Z M 15.1 0.8 L 15.1 11.9 L 20.9 11.9 L 20.9 13.1 L 13.7 13.1 L 13.7 0.8 L 15.1 0.8 Z M 23.8 0.8 L 23.8 13.1 L 22.4 13.1 L 22.4 0.8 L 23.8 0.8 Z M 33.2 0.8 L 33.2 2.1 L 27.9 2.1 L 27.9 6.3 L 33.1 6.3 L 33.1 7.5 L 27.9 7.5 L 27.9 11.9 L 33.4 11.9 L 33.4 13.1 L 26.5 13.1 L 26.5 0.8 L 33.2 0.8 Z M 36.7 0.8 L 45.4 11 L 45.4 0.8 L 46.7 0.8 L 46.7 13.1 L 45.5 13.1 L 36.9 3 L 36.9 13.1 L 35.6 13.1 L 35.6 0.8 L 36.7 0.8 Z M 58.4 0.8 L 58.4 2 L 54 2 L 54 13.1 L 52.6 13.1 L 52.6 2 L 48.3 2 L 48.3 0.8 L 58.4 0.8 Z M 71.4 0.8 L 71.4 2.1 L 66.4 2.1 L 66.4 6 L 71.2 6 L 71.2 7.3 L 66.4 7.3 L 66.4 13.1 L 65.1 13.1 L 65.1 0.8 L 71.4 0.8 Z M 79.9 0.8 L 79.9 2.1 L 74.5 2.1 L 74.5 6.3 L 79.7 6.3 L 79.7 7.5 L 74.5 7.5 L 74.5 11.9 L 80 11.9 L 80 13.1 L 73.2 13.1 L 73.2 0.8 L 79.9 0.8 Z M 88.9 0.8 L 88.9 2.1 L 83.5 2.1 L 83.5 6.3 L 88.7 6.3 L 88.7 7.5 L 83.5 7.5 L 83.5 11.9 L 89 11.9 L 89 13.1 L 82.2 13.1 L 82.2 0.8 L 88.9 0.8 Z M 91.2 0.8 C 91.2 0.8 95.74 0.85 95.7 0.8 C 99.8 0.8 102.3 3.3 102.3 6.9 C 102.3 10.7 99.6 13.1 95.7 13.1 C 95.74 13.12 91.2 13.1 91.2 13.1 L 91.2 0.8 Z M 95.7 11.9 C 98.9 11.9 100.9 10 100.9 7 C 100.9 4 99 2.1 95.5 2.1 C 95.53 2.05 92.6 2.1 92.6 2.1 L 92.6 11.9 C 92.6 11.9 95.72 11.9 95.7 11.9 Z M 107.8 0.8 C 110.1 0.8 111.6 2 111.6 4 C 111.6 5.3 110.8 6.2 109.5 6.7 C 111.4 6.9 112.6 8.2 112.6 9.8 C 112.6 12.1 110.6 13.1 108.3 13.1 C 108.34 13.12 104.6 13.1 104.6 13.1 L 104.6 0.8 C 104.6 0.8 107.77 0.85 107.8 0.8 Z M 105.9 6.3 C 105.9 6.3 107.28 6.3 107.3 6.3 C 109.3 6.3 110.2 5.4 110.2 4.1 C 110.2 2.7 109.3 2 107.5 2 C 107.5 2.03 105.9 2 105.9 2 L 105.9 6.3 Z M 108.1 11.9 C 110.1 11.9 111.2 11.3 111.2 9.7 C 111.2 8.3 110.2 7.5 107.9 7.5 C 107.89 7.47 105.9 7.5 105.9 7.5 L 105.9 11.9 C 105.9 11.9 108.09 11.93 108.1 11.9 Z M 119.8 0.8 L 125.2 13.1 L 123.8 13.1 L 122.1 9.3 L 116.5 9.3 L 114.9 13.1 L 113.5 13.1 L 118.8 0.8 L 119.8 0.8 Z M 117.1 8.1 L 121.6 8.1 L 119.2 2.8 L 117.1 8.1 Z M 136.2 1.7 C 136.2 1.7 136.2 3.1 136.2 3.1 C 134.9 2.4 133.5 1.9 132.1 1.9 C 128.9 1.9 127 4.3 127 7 C 127 9.8 128.9 12 132 12 C 133.6 12 135 11.6 136.3 10.8 C 136.3 10.8 136.3 12.3 136.3 12.3 C 134.9 13 133.5 13.3 132 13.3 C 127.8 13.3 125.5 10.1 125.5 7 C 125.5 3.4 128.4 0.7 132 0.7 C 133.4 0.7 134.8 1 136.2 1.7 Z M 139.8 0.8 L 139.8 6.6 L 145.2 0.8 L 146.9 0.8 L 141.4 6.7 L 147.9 13.1 L 146.1 13.1 L 139.8 7 L 139.8 13.1 L 138.4 13.1 L 138.4 0.8 L 139.8 0.8 Z " stroke="none" fill="#010102"/>  </g></svg>