<?xml version="1.0" standalone="no"?><!DOCTYPE svg PUBLIC "-//W3C//DTD SVG 1.1//EN" "http://www.w3.org/Graphics/SVG/1.1/DTD/svg11.dtd"><svg xmlns="http://www.w3.org/2000/svg" version="1.1" width="356.5px" height="24.1px" viewBox="0 -4 356.5 24.1" style="top:-4px">  <desc>AWARDING I LEARNING I MANAGED SERVICES</desc>  <defs/>  <g id="Polygon667">    <path d="M 20.4 0.6 L 24.9 10.9 L 23.8 10.9 L 22.3 7.7 L 17.7 7.7 L 16.3 10.9 L 15.1 10.9 L 19.6 0.6 L 20.4 0.6 Z M 18.1 6.7 L 21.9 6.7 L 19.9 2.4 L 18.1 6.7 Z M 24.1 0.7 L 25.3 0.7 L 28.3 8.5 L 28.3 8.5 L 31.4 0.7 L 32.4 0.7 L 35.5 8.5 L 35.5 8.5 L 38.5 0.7 L 39.6 0.7 L 35.6 11 L 35.3 11 L 31.9 2.3 L 28.5 11 L 28.2 11 L 24.1 0.7 Z M 44.1 0.6 L 48.6 10.9 L 47.5 10.9 L 46 7.7 L 41.4 7.7 L 40 10.9 L 38.9 10.9 L 43.3 0.6 L 44.1 0.6 Z M 41.8 6.7 L 45.6 6.7 L 43.7 2.4 L 41.8 6.7 Z M 49.8 0.7 C 49.8 0.7 52.5 0.7 52.5 0.7 C 54.6 0.7 55.6 1.9 55.6 3.4 C 55.6 4.7 54.9 5.6 53.7 6 C 54.3 6.3 54.6 6.6 55.5 7.9 C 55.48 7.87 57.5 10.9 57.5 10.9 L 56.1 10.9 C 56.1 10.9 54.33 8.11 54.3 8.1 C 53.4 6.6 52.8 6.3 51.9 6.3 C 51.88 6.28 50.9 6.3 50.9 6.3 L 50.9 10.9 L 49.8 10.9 L 49.8 0.7 Z M 52 5.3 C 53.4 5.3 54.5 4.9 54.5 3.5 C 54.5 2.2 53.7 1.7 52.3 1.7 C 52.35 1.69 50.9 1.7 50.9 1.7 L 50.9 5.3 C 50.9 5.3 51.99 5.29 52 5.3 Z M 58.6 0.7 C 58.6 0.7 62.35 0.7 62.4 0.7 C 65.7 0.7 67.9 2.8 67.9 5.7 C 67.9 8.9 65.6 10.9 62.4 10.9 C 62.35 10.93 58.6 10.9 58.6 10.9 L 58.6 0.7 Z M 62.3 9.9 C 65 9.9 66.7 8.3 66.7 5.8 C 66.7 3.3 65.1 1.7 62.2 1.7 C 62.17 1.71 59.7 1.7 59.7 1.7 L 59.7 9.9 C 59.7 9.9 62.34 9.91 62.3 9.9 Z M 70.9 0.7 L 70.9 10.9 L 69.7 10.9 L 69.7 0.7 L 70.9 0.7 Z M 74.1 0.7 L 81.3 9.2 L 81.3 0.7 L 82.4 0.7 L 82.4 10.9 L 81.4 10.9 L 74.2 2.5 L 74.2 10.9 L 73.2 10.9 L 73.2 0.7 L 74.1 0.7 Z M 93.1 2.6 C 92 1.9 90.8 1.6 89.6 1.6 C 87.3 1.6 85.4 3.4 85.4 5.8 C 85.4 8.3 87.2 10.1 89.7 10.1 C 90.6 10.1 91.2 9.9 92.2 9.5 C 92.23 9.54 92.2 7 92.2 7 L 90.1 7 L 90.1 6.1 L 93.4 6.1 C 93.4 6.1 93.36 10.23 93.4 10.2 C 92.2 10.8 91 11.1 89.7 11.1 C 86.1 11.1 84.3 8.5 84.3 5.9 C 84.3 3 86.4 0.6 89.7 0.6 C 90.8 0.6 91.8 0.8 93.1 1.4 C 93.1 1.4 93.1 2.6 93.1 2.6 Z M 105 0.7 L 105 10.9 L 103.8 10.9 L 103.8 0.7 L 105 0.7 Z M 116.7 0.7 L 116.7 9.9 L 121.5 9.9 L 121.5 10.9 L 115.6 10.9 L 115.6 0.7 L 116.7 0.7 Z M 128.4 0.7 L 128.4 1.7 L 124 1.7 L 124 5.3 L 128.3 5.3 L 128.3 6.3 L 124 6.3 L 124 9.9 L 128.6 9.9 L 128.6 10.9 L 122.8 10.9 L 122.8 0.7 L 128.4 0.7 Z M 134.8 0.6 L 139.4 10.9 L 138.2 10.9 L 136.8 7.7 L 132.1 7.7 L 130.8 10.9 L 129.6 10.9 L 134 0.6 L 134.8 0.6 Z M 132.6 6.7 L 136.3 6.7 L 134.4 2.4 L 132.6 6.7 Z M 140.5 0.7 C 140.5 0.7 143.23 0.7 143.2 0.7 C 145.3 0.7 146.4 1.9 146.4 3.4 C 146.4 4.7 145.7 5.6 144.4 6 C 145.1 6.3 145.4 6.6 146.2 7.9 C 146.22 7.87 148.2 10.9 148.2 10.9 L 146.9 10.9 C 146.9 10.9 145.06 8.11 145.1 8.1 C 144.1 6.6 143.5 6.3 142.6 6.3 C 142.62 6.28 141.7 6.3 141.7 6.3 L 141.7 10.9 L 140.5 10.9 L 140.5 0.7 Z M 142.7 5.3 C 144.1 5.3 145.2 4.9 145.2 3.5 C 145.2 2.2 144.4 1.7 143.1 1.7 C 143.08 1.69 141.7 1.7 141.7 1.7 L 141.7 5.3 C 141.7 5.3 142.72 5.29 142.7 5.3 Z M 150.3 0.7 L 157.5 9.2 L 157.5 0.7 L 158.6 0.7 L 158.6 10.9 L 157.6 10.9 L 150.4 2.5 L 150.4 10.9 L 149.3 10.9 L 149.3 0.7 L 150.3 0.7 Z M 162 0.7 L 162 10.9 L 160.9 10.9 L 160.9 0.7 L 162 0.7 Z M 165.2 0.7 L 172.5 9.2 L 172.5 0.7 L 173.5 0.7 L 173.5 10.9 L 172.6 10.9 L 165.4 2.5 L 165.4 10.9 L 164.3 10.9 L 164.3 0.7 L 165.2 0.7 Z M 184.3 2.6 C 183.2 1.9 181.9 1.6 180.8 1.6 C 178.4 1.6 176.6 3.4 176.6 5.8 C 176.6 8.3 178.3 10.1 180.9 10.1 C 181.7 10.1 182.3 9.9 183.4 9.5 C 183.37 9.54 183.4 7 183.4 7 L 181.3 7 L 181.3 6.1 L 184.5 6.1 C 184.5 6.1 184.5 10.23 184.5 10.2 C 183.3 10.8 182.2 11.1 180.9 11.1 C 177.2 11.1 175.4 8.5 175.4 5.9 C 175.4 3 177.5 0.6 180.8 0.6 C 182 0.6 182.9 0.8 184.3 1.4 C 184.3 1.4 184.3 2.6 184.3 2.6 Z M 196.1 0.7 L 196.1 10.9 L 195 10.9 L 195 0.7 L 196.1 0.7 Z M 206.7 0.7 L 207.8 0.7 L 211.4 5.2 L 215 0.7 L 216.1 0.7 L 216.1 10.9 L 215 10.9 L 215 2.5 L 214.9 2.5 L 211.5 6.8 L 211.3 6.8 L 207.9 2.5 L 207.9 2.5 L 207.9 10.9 L 206.7 10.9 L 206.7 0.7 Z M 222.5 0.6 L 227.1 10.9 L 225.9 10.9 L 224.5 7.7 L 219.8 7.7 L 218.4 10.9 L 217.3 10.9 L 221.7 0.6 L 222.5 0.6 Z M 220.2 6.7 L 224 6.7 L 222.1 2.4 L 220.2 6.7 Z M 229.2 0.7 L 236.4 9.2 L 236.4 0.7 L 237.5 0.7 L 237.5 10.9 L 236.5 10.9 L 229.3 2.5 L 229.3 10.9 L 228.2 10.9 L 228.2 0.7 L 229.2 0.7 Z M 243.9 0.6 L 248.4 10.9 L 247.3 10.9 L 245.8 7.7 L 241.2 7.7 L 239.8 10.9 L 238.6 10.9 L 243.1 0.6 L 243.9 0.6 Z M 241.6 6.7 L 245.4 6.7 L 243.4 2.4 L 241.6 6.7 Z M 257.6 2.6 C 256.5 1.9 255.2 1.6 254.1 1.6 C 251.7 1.6 249.9 3.4 249.9 5.8 C 249.9 8.3 251.6 10.1 254.2 10.1 C 255 10.1 255.6 9.9 256.7 9.5 C 256.68 9.54 256.7 7 256.7 7 L 254.6 7 L 254.6 6.1 L 257.8 6.1 C 257.8 6.1 257.8 10.23 257.8 10.2 C 256.6 10.8 255.5 11.1 254.2 11.1 C 250.5 11.1 248.7 8.5 248.7 5.9 C 248.7 3 250.8 0.6 254.1 0.6 C 255.3 0.6 256.2 0.8 257.6 1.4 C 257.6 1.4 257.6 2.6 257.6 2.6 Z M 265.5 0.7 L 265.5 1.7 L 261.1 1.7 L 261.1 5.3 L 265.4 5.3 L 265.4 6.3 L 261.1 6.3 L 261.1 9.9 L 265.7 9.9 L 265.7 10.9 L 259.9 10.9 L 259.9 0.7 L 265.5 0.7 Z M 267.5 0.7 C 267.5 0.7 271.24 0.7 271.2 0.7 C 274.6 0.7 276.7 2.8 276.7 5.7 C 276.7 8.9 274.5 10.9 271.2 10.9 C 271.24 10.93 267.5 10.9 267.5 10.9 L 267.5 0.7 Z M 271.2 9.9 C 273.9 9.9 275.6 8.3 275.6 5.8 C 275.6 3.3 274 1.7 271.1 1.7 C 271.06 1.71 268.6 1.7 268.6 1.7 L 268.6 9.9 C 268.6 9.9 271.23 9.91 271.2 9.9 Z M 287.5 1.2 C 287.5 1.2 287.5 2.5 287.5 2.5 C 286.8 1.9 286.1 1.6 285.2 1.6 C 284.1 1.6 283.4 2.2 283.4 3.1 C 283.4 3.7 283.6 4.3 285.3 5.2 C 287.4 6.3 287.9 7 287.9 8.4 C 287.9 9.9 286.8 11.1 285 11.1 C 284 11.1 283.1 10.8 282.3 10.2 C 282.3 10.2 282.3 8.8 282.3 8.8 C 283.1 9.6 284 10.1 285 10.1 C 286 10.1 286.8 9.4 286.8 8.4 C 286.8 7.6 286.5 7 284.5 6 C 282.9 5.2 282.3 4.4 282.3 3.1 C 282.3 1.6 283.5 0.6 285.3 0.6 C 286 0.6 286.8 0.8 287.5 1.2 Z M 295.3 0.7 L 295.3 1.7 L 290.8 1.7 L 290.8 5.3 L 295.1 5.3 L 295.1 6.3 L 290.8 6.3 L 290.8 9.9 L 295.4 9.9 L 295.4 10.9 L 289.7 10.9 L 289.7 0.7 L 295.3 0.7 Z M 297.2 0.7 C 297.2 0.7 299.89 0.7 299.9 0.7 C 301.9 0.7 303 1.9 303 3.4 C 303 4.7 302.3 5.6 301.1 6 C 301.7 6.3 302 6.6 302.9 7.9 C 302.88 7.87 304.9 10.9 304.9 10.9 L 303.5 10.9 C 303.5 10.9 301.72 8.11 301.7 8.1 C 300.8 6.6 300.1 6.3 299.3 6.3 C 299.28 6.28 298.3 6.3 298.3 6.3 L 298.3 10.9 L 297.2 10.9 L 297.2 0.7 Z M 299.4 5.3 C 300.8 5.3 301.9 4.9 301.9 3.5 C 301.9 2.2 301 1.7 299.7 1.7 C 299.74 1.69 298.3 1.7 298.3 1.7 L 298.3 5.3 C 298.3 5.3 299.38 5.29 299.4 5.3 Z M 304.3 0.7 L 305.5 0.7 L 308.8 8.7 L 308.8 8.7 L 312.1 0.7 L 313.2 0.7 L 308.9 11 L 308.7 11 L 304.3 0.7 Z M 315.5 0.7 L 315.5 10.9 L 314.4 10.9 L 314.4 0.7 L 315.5 0.7 Z M 326.3 1.4 C 326.3 1.4 326.3 2.6 326.3 2.6 C 325.2 2 324 1.6 322.8 1.6 C 320.2 1.6 318.6 3.6 318.6 5.8 C 318.6 8.1 320.2 10 322.8 10 C 324.1 10 325.3 9.7 326.4 9 C 326.4 9 326.4 10.2 326.4 10.2 C 325.2 10.8 324 11.1 322.8 11.1 C 319.2 11.1 317.4 8.4 317.4 5.9 C 317.4 2.8 319.7 0.6 322.8 0.6 C 324 0.6 325.1 0.9 326.3 1.4 Z M 333.7 0.7 L 333.7 1.7 L 329.2 1.7 L 329.2 5.3 L 333.6 5.3 L 333.6 6.3 L 329.2 6.3 L 329.2 9.9 L 333.8 9.9 L 333.8 10.9 L 328.1 10.9 L 328.1 0.7 L 333.7 0.7 Z M 340.4 1.2 C 340.4 1.2 340.4 2.5 340.4 2.5 C 339.7 1.9 338.9 1.6 338.1 1.6 C 337 1.6 336.3 2.2 336.3 3.1 C 336.3 3.7 336.5 4.3 338.2 5.2 C 340.3 6.3 340.8 7 340.8 8.4 C 340.8 9.9 339.6 11.1 337.9 11.1 C 336.9 11.1 336 10.8 335.2 10.2 C 335.2 10.2 335.2 8.8 335.2 8.8 C 336 9.6 336.9 10.1 337.9 10.1 C 338.9 10.1 339.6 9.4 339.6 8.4 C 339.6 7.6 339.4 7 337.4 6 C 335.8 5.2 335.2 4.4 335.2 3.1 C 335.2 1.6 336.4 0.6 338.1 0.6 C 338.9 0.6 339.7 0.8 340.4 1.2 Z " stroke="none" fill="#ffffff"/>  </g></svg>