<?xml version="1.0" standalone="no"?><!DOCTYPE svg PUBLIC "-//W3C//DTD SVG 1.1//EN" "http://www.w3.org/Graphics/SVG/1.1/DTD/svg11.dtd"><svg xmlns="http://www.w3.org/2000/svg" version="1.1" width="42.1px" height="20.5px" viewBox="0 -4 42.1 20.5" style="top:-4px">  <desc>About</desc>  <defs/>  <g id="Polygon2128">    <path d="M 5.4 8.7 L 8.6 0.1 L 9.9 0.1 L 13.4 8.7 L 12.1 8.7 L 11.1 6.1 L 7.5 6.1 L 6.6 8.7 L 5.4 8.7 Z M 7.8 5.2 L 10.7 5.2 C 10.7 5.2 9.84 2.83 9.8 2.8 C 9.6 2.1 9.4 1.5 9.2 1 C 9.1 1.6 9 2.1 8.8 2.7 C 8.77 2.69 7.8 5.2 7.8 5.2 Z M 15.1 8.7 L 14.2 8.7 L 14.2 0.1 L 15.2 0.1 C 15.2 0.1 15.21 3.21 15.2 3.2 C 15.7 2.7 16.2 2.4 16.9 2.4 C 17.3 2.4 17.7 2.5 18 2.6 C 18.3 2.8 18.6 3 18.8 3.3 C 19.1 3.5 19.2 3.9 19.4 4.3 C 19.5 4.7 19.6 5.1 19.6 5.5 C 19.6 6.6 19.3 7.4 18.8 8 C 18.2 8.6 17.6 8.9 16.9 8.9 C 16.1 8.9 15.6 8.6 15.1 8 C 15.14 7.96 15.1 8.7 15.1 8.7 Z M 15.1 5.6 C 15.1 6.3 15.2 6.9 15.4 7.2 C 15.8 7.7 16.2 8 16.8 8 C 17.2 8 17.6 7.8 18 7.4 C 18.3 7 18.5 6.4 18.5 5.6 C 18.5 4.8 18.3 4.2 18 3.8 C 17.7 3.4 17.3 3.2 16.8 3.2 C 16.4 3.2 16 3.4 15.6 3.8 C 15.3 4.2 15.1 4.8 15.1 5.6 Z M 20.4 5.6 C 20.4 4.5 20.8 3.6 21.4 3.1 C 21.9 2.6 22.6 2.4 23.4 2.4 C 24.2 2.4 24.9 2.7 25.5 3.2 C 26 3.8 26.3 4.5 26.3 5.5 C 26.3 6.3 26.2 7 25.9 7.4 C 25.7 7.9 25.3 8.2 24.9 8.5 C 24.4 8.7 23.9 8.9 23.4 8.9 C 22.5 8.9 21.8 8.6 21.3 8 C 20.7 7.5 20.4 6.7 20.4 5.6 Z M 21.5 5.6 C 21.5 6.4 21.7 7 22 7.4 C 22.4 7.8 22.8 8 23.4 8 C 23.9 8 24.3 7.8 24.7 7.4 C 25 7 25.2 6.4 25.2 5.6 C 25.2 4.8 25 4.2 24.7 3.8 C 24.3 3.4 23.9 3.2 23.4 3.2 C 22.8 3.2 22.4 3.4 22 3.8 C 21.7 4.2 21.5 4.8 21.5 5.6 Z M 31.6 8.7 C 31.6 8.7 31.59 7.82 31.6 7.8 C 31.1 8.5 30.4 8.9 29.6 8.9 C 29.2 8.9 28.9 8.8 28.6 8.7 C 28.3 8.5 28 8.3 27.9 8.1 C 27.7 7.9 27.6 7.7 27.6 7.4 C 27.5 7.1 27.5 6.8 27.5 6.4 C 27.49 6.37 27.5 2.5 27.5 2.5 L 28.5 2.5 C 28.5 2.5 28.54 5.96 28.5 6 C 28.5 6.5 28.6 6.9 28.6 7.1 C 28.7 7.4 28.8 7.6 29 7.7 C 29.2 7.9 29.5 8 29.8 8 C 30.1 8 30.4 7.9 30.7 7.7 C 31 7.6 31.2 7.3 31.3 7.1 C 31.4 6.8 31.5 6.4 31.5 5.8 C 31.48 5.85 31.5 2.5 31.5 2.5 L 32.5 2.5 L 32.5 8.7 L 31.6 8.7 Z M 36 7.8 C 36.1 7.8 36.3 7.8 36.5 7.8 C 36.5 7.8 36.6 8.7 36.6 8.7 C 36.3 8.8 36.1 8.8 35.8 8.8 C 35.5 8.8 35.2 8.8 35 8.6 C 34.7 8.5 34.6 8.4 34.5 8.2 C 34.4 8 34.4 7.5 34.4 6.9 C 34.38 6.91 34.4 3.3 34.4 3.3 L 33.6 3.3 L 33.6 2.5 L 34.4 2.5 L 34.4 1 L 35.4 0.3 L 35.4 2.5 L 36.5 2.5 L 36.5 3.3 L 35.4 3.3 C 35.4 3.3 35.43 6.97 35.4 7 C 35.4 7.3 35.4 7.5 35.5 7.6 C 35.5 7.6 35.6 7.7 35.7 7.8 C 35.7 7.8 35.9 7.8 36 7.8 C 36 7.8 36 7.8 36 7.8 Z " stroke="none" fill="#000"/>  </g></svg>