<?xml version="1.0" encoding="UTF-8"?>
<svg id="Layer_1" xmlns="http://www.w3.org/2000/svg" version="1.1" viewBox="0 0 512 512">
  <!-- Generator: Adobe Illustrator 29.0.0, SVG Export Plug-In . SVG Version: 2.1.0 Build 186)  -->
  <defs>
    <style>
      .st0 {
        fill: #253885;
      }
    </style>
  </defs>
  <g id="Layer_4">
    <g>
      <path class="st0" d="M130.5,66.9c2.2,2.2,5.1,3.3,7.9,3.3s5.7-1.1,7.9-3.3c4.4-4.4,4.4-11.5,0-15.9l-26.4-26.4c-4.4-4.4-11.5-4.4-15.9,0s-4.4,11.5,0,15.9l26.4,26.4Z"/>
      <path class="st0" d="M373.6,70.2c2.9,0,5.8-1.1,8-3.3l26.4-26.4c4.4-4.4,4.4-11.5,0-15.9s-11.5-4.4-15.9,0l-26.4,26.4c-4.4,4.4-4.4,11.5,0,15.9,2.2,2.2,5.1,3.3,7.9,3.3h0Z"/>
      <path class="st0" d="M252.7,114.4c10.1-.2,19.5,4.9,24.9,13.4,2.1,3.4,5.8,5.3,9.5,5.3s4.1-.5,6-1.7c5.3-3.3,6.8-10.3,3.5-15.5-9.6-15.2-26.8-24.4-44.5-23.9-6.2.2-11.1,5.3-10.9,11.5.2,6.2,5.4,10.6,11.6,10.9h0Z"/>
      <path class="st0" d="M453.1,135.1c-29.4-4.8-59.6-5-89.8-1.2-3.5-23.4-14.1-44.9-31.3-61.7-21.3-20.7-49.3-31.7-79-30.8-52.7,1.4-96.4,41.7-104.3,92.6-30.6-4-62.2-3.6-90.1,1.2-11.2,2.1-18.9,11.5-18.9,22.9v302.1c0,4.5,2.2,8.7,6,11.3,2.3,1.6,7.2,2.4,10,2.1l11.2-1.7c57.1-8.2,113.7-3.9,168.5,13.1l17.4,5.3c1.1.3,2.2.5,3.3.5s7-1.7,7-1.7c58.4-20.2,121.2-26.1,181.6-17.2,0,0,7,.4,9.2,1,4.3,1.1,8.8,1.1,12.5-1.4,3.1-2.1,6-7.5,6-11.3V158c0-11.3-7.8-20.7-19.3-22.9h0ZM253.6,63.8c.8,0,1.6,0,2.4,0,22.7,0,44,8.6,60.3,24.5,16.9,16.4,26.2,38.4,26.2,62s-10.2,47.3-27.9,63.6c-10,9.2-15.5,21.3-15.5,34.1s-11.4,25.4-25.4,25.4h-6.4v-59.1c0-6.2-5-11.2-11.2-11.2s-11.2,5-11.2,11.2v59.1h-6.4c-14,0-25.4-11.4-25.4-25.4s-5.5-24.9-15.5-34.1c-17.9-16.5-28.1-39.9-27.9-64.3.4-46.1,38.1-84.5,84.1-85.7h0ZM256,327.7c-14.8,0-26.9-12.1-26.9-26.9v-5.9c3,.6,6,.9,9.2.9h35.3c3.1,0,6.1-.4,9-.9v5.9c0,14.8-12,26.9-26.6,26.9h0ZM63.5,449.5l-1.4.2.5-292.5c26-4.5,56.2-4.8,85.1-.8,1.6,28.1,13.6,54.8,34.5,74,5.3,4.9,8.3,11.2,8.3,17.6,0,14.2,6.4,26.9,16.2,35.6v17.2c0,23.3,16.3,42.8,38.1,47.9v115.5l-2.9-.9c-57.9-18-117.9-22.6-178.3-13.9ZM449.9,449.8l-2-.3c-60.1-8.9-122.2-3.4-180.6,14.9v-115.7c21.7-5.1,37.9-24.6,37.9-47.9v-17.1c10-8.8,16.4-21.5,16.4-35.8s2.9-12.7,8.3-17.6c20.8-19.1,32.9-45.9,34.5-74,28.7-3.8,57.3-3.7,85.6,1.6v291.8Z"/>
      <path class="st0" d="M107.5,253.9h36.1c6.2,0,11.2-5,11.2-11.2s-5-11.2-11.2-11.2h-36.1c-6.2,0-11.2,5-11.2,11.2s5,11.2,11.2,11.2Z"/>
      <path class="st0" d="M107.5,324.4h64.2c6.2,0,11.2-5,11.2-11.2s-5-11.2-11.2-11.2h-64.2c-6.2,0-11.3,5-11.3,11.2s5,11.2,11.3,11.2Z"/>
      <path class="st0" d="M190,367.9h-82.5c-6.2,0-11.3,5-11.3,11.2s5,11.2,11.3,11.2h82.5c6.2,0,11.2-5,11.2-11.2s-5-11.2-11.2-11.2Z"/>
      <path class="st0" d="M357.2,247.2c0,6.2,5,11.2,11.3,11.2h36.1c6.2,0,11.2-5,11.2-11.2s-5-11.2-11.2-11.2h-36.1c-6.2,0-11.3,5-11.3,11.2Z"/>
      <path class="st0" d="M404.5,301.9h-64.2c-6.2,0-11.2,5-11.2,11.2s5,11.2,11.2,11.2h64.2c6.2,0,11.3-5,11.3-11.2s-5-11.2-11.3-11.2Z"/>
      <path class="st0" d="M396.5,367.9h-74.5c-6.2,0-11.2,5-11.2,11.2s5,11.2,11.2,11.2h74.5c6.2,0,11.2-5,11.2-11.2s-5-11.2-11.2-11.2Z"/>
    </g>
  </g>
</svg>