<?xml version="1.0" encoding="UTF-8"?>
<svg id="Layer_1" xmlns="http://www.w3.org/2000/svg" version="1.1" viewBox="0 0 512 512">
  <!-- Generator: Adobe Illustrator 29.0.0, SVG Export Plug-In . SVG Version: 2.1.0 Build 186)  -->
  <defs>
    <style>
      .st0 {
        fill: #d0cece;
      }
    </style>
  </defs>
  <g id="Layer_11" data-name="Layer_1">
    <g id="Page-1">
      <g id="_x30_18---Online-Survey">
        <path id="Shape" class="st0" d="M477.9,0H34.1C15.3,0,0,15.3,0,34.1v443.7c0,18.9,15.3,34.1,34.1,34.1h443.7c18.9,0,34.1-15.3,34.1-34.1V34.1C512,15.3,496.7,0,477.9,0ZM17.1,34.1c0-9.4,7.6-17.1,17.1-17.1h443.7c9.4,0,17.1,7.6,17.1,17.1v51.2H17.1v-51.2ZM494.9,477.9c0,9.4-7.6,17.1-17.1,17.1H34.1c-9.4,0-17.1-7.6-17.1-17.1V102.4h477.9v375.5Z"/>
        <circle id="Oval" class="st0" cx="51.2" cy="51.2" r="8.5"/>
        <circle id="Oval-2" class="st0" cx="85.3" cy="51.2" r="8.5"/>
        <circle id="Oval-3" class="st0" cx="119.5" cy="51.2" r="8.5"/>
        <path id="Shape-2" class="st0" d="M460.8,42.7h-34.1c-4.7,0-8.5,3.8-8.5,8.5s3.8,8.5,8.5,8.5h34.1c4.7,0,8.5-3.8,8.5-8.5s-3.8-8.5-8.5-8.5Z"/>
        <path id="Shape-3" class="st0" d="M341.3,273.1h68.3c14.1,0,25.6-11.5,25.6-25.6v-11.4c0-4.7-3.8-8.5-8.5-8.5s-8.5,3.8-8.5,8.5v11.4c0,4.7-3.8,8.5-8.5,8.5h-68.3c-4.7,0-8.5-3.8-8.5-8.5v-68.3c0-4.7,3.8-8.5,8.5-8.5h62.6c4.7,0,8.5-3.8,8.5-8.5s-3.8-8.5-8.5-8.5h-62.6c-14.1,0-25.6,11.5-25.6,25.6v68.3c0,14.1,11.5,25.6,25.6,25.6h0Z"/>
        <path id="Shape-4" class="st0" d="M355.9,207.3c-3.3-3.2-8.7-3.2-12,.1s-3.3,8.6-.1,12l25.6,25.6c3.2,3.2,8.3,3.3,11.7.3l76.8-68.3c3.5-3.1,3.9-8.5.7-12.1s-8.5-3.9-12.1-.7l-70.8,62.9-19.9-19.9h0Z"/>
        <path id="Shape-5" class="st0" d="M341.3,452.3h68.3c14.1,0,25.6-11.5,25.6-25.6v-11.4c0-4.7-3.8-8.5-8.5-8.5s-8.5,3.8-8.5,8.5v11.4c0,4.7-3.8,8.5-8.5,8.5h-68.3c-4.7,0-8.5-3.8-8.5-8.5v-68.3c0-4.7,3.8-8.5,8.5-8.5h62.6c4.7,0,8.5-3.8,8.5-8.5s-3.8-8.5-8.5-8.5h-62.6c-14.1,0-25.6,11.5-25.6,25.6v68.3c0,14.1,11.5,25.6,25.6,25.6h0Z"/>
        <path id="Shape-6" class="st0" d="M446.6,343.5l-70.8,62.9-19.9-19.9c-3.3-3.2-8.7-3.2-12,.1s-3.3,8.6-.1,12l25.6,25.6c3.2,3.2,8.3,3.3,11.7.3l76.8-68.3c3.5-3.1,3.9-8.5.7-12.1s-8.5-3.9-12.1-.7h0Z"/>
        <path id="Shape-7" class="st0" d="M59.7,221.9h213.3c4.7,0,8.5-3.8,8.5-8.5s-3.8-8.5-8.5-8.5H59.7c-4.7,0-8.5,3.8-8.5,8.5s3.8,8.5,8.5,8.5Z"/>
        <path id="Shape-8" class="st0" d="M59.7,179.2h213.3c4.7,0,8.5-3.8,8.5-8.5s-3.8-8.5-8.5-8.5H59.7c-4.7,0-8.5,3.8-8.5,8.5s3.8,8.5,8.5,8.5Z"/>
        <path id="Shape-9" class="st0" d="M59.7,264.5h119.5c4.7,0,8.5-3.8,8.5-8.5s-3.8-8.5-8.5-8.5H59.7c-4.7,0-8.5,3.8-8.5,8.5s3.8,8.5,8.5,8.5Z"/>
        <path id="Shape-10" class="st0" d="M59.7,401.1h213.3c4.7,0,8.5-3.8,8.5-8.5s-3.8-8.5-8.5-8.5H59.7c-4.7,0-8.5,3.8-8.5,8.5s3.8,8.5,8.5,8.5Z"/>
        <path id="Shape-11" class="st0" d="M59.7,358.4h213.3c4.7,0,8.5-3.8,8.5-8.5s-3.8-8.5-8.5-8.5H59.7c-4.7,0-8.5,3.8-8.5,8.5s3.8,8.5,8.5,8.5Z"/>
        <path id="Shape-12" class="st0" d="M59.7,443.7h119.5c4.7,0,8.5-3.8,8.5-8.5s-3.8-8.5-8.5-8.5H59.7c-4.7,0-8.5,3.8-8.5,8.5s3.8,8.5,8.5,8.5Z"/>
      </g>
    </g>
  </g>
</svg>